<svg width="126" height="126" viewBox="0 0 126 126" fill="none" xmlns="http://www.w3.org/2000/svg">
<path d="M101.036 73.9461L87.78 78.3561L84 68.2499V97.1249H42V68.2499L38.22 78.3561L24.9637 73.9461L28.6387 61.8449C29.4906 59.0562 31.1 56.5587 33.2876 54.6307C35.4752 52.7026 38.1551 51.4197 41.0287 50.9249C58.065 48.0636 51.2137 48.5361 70.77 48.5361L84.8662 50.8986C87.762 51.3777 90.4664 52.6564 92.6742 54.5905C94.882 56.5247 96.5053 59.0373 97.3612 61.8449C101.404 75.1274 100.721 72.8699 101.036 73.9461Z" fill="#DB5669"/>
<path d="M101.036 73.9461L87.78 78.3561L84 68.2499V94.4999H52.5C51.1077 94.4999 49.7723 93.9468 48.7877 92.9622C47.8032 91.9776 47.25 90.6423 47.25 89.2499V71.5049C47.2532 70.8851 47.0974 70.2749 46.7974 69.7326C46.4973 69.1903 46.0632 68.734 45.5364 68.4074C45.0097 68.0808 44.408 67.8949 43.7888 67.8673C43.1696 67.8397 42.5537 67.9714 42 68.2499C39.5588 74.7861 40.0575 73.4999 39.375 75.0749C36.8483 74.047 34.7964 72.1126 33.6213 69.6508C32.4462 67.189 32.2327 64.3772 33.0225 61.7661C33.7191 58.0612 35.5544 54.6659 38.2725 52.0536L40.8975 50.9249C58.0125 48.0636 51.135 48.5361 70.6913 48.5361L84.7875 50.8986C87.6834 51.3777 90.3877 52.6564 92.5955 54.5905C94.8033 56.5247 96.4267 59.0373 97.2825 61.8449C101.404 75.1274 100.721 72.8699 101.036 73.9461Z" fill="#F26674"/>
<path d="M70.875 42.4987C70.875 46.8562 71.3475 49.6649 68.88 52.4474C67.8205 53.6367 66.4254 54.4767 64.8786 54.8567C63.3319 55.2367 61.7062 55.1387 60.2163 54.5757C58.7264 54.0127 57.4422 53.0112 56.5332 51.7033C55.6243 50.3954 55.1333 48.8426 55.125 47.2499V42.4987H70.875Z" fill="#F6CCAF"/>
<path d="M70.875 42.4987C70.875 46.8562 71.3475 49.6649 68.88 52.4474C67.7986 52.5342 66.7108 52.3966 65.685 52.0432C64.6592 51.6898 63.7175 51.1283 62.9189 50.3938C62.1204 49.6594 61.4822 48.7678 61.0445 47.7751C60.6067 46.7823 60.3788 45.7099 60.375 44.6249V42.4987H70.875Z" fill="#FFDEC7"/>
<path d="M78.75 18.3748C78.75 27.9298 80.115 35.6473 72.5287 41.3961C70.1944 43.1698 67.4114 44.2567 64.4929 44.5346C61.5744 44.8125 58.6363 44.2703 56.0092 42.969C53.3821 41.6678 51.1703 39.6591 49.6229 37.1691C48.0754 34.679 47.2536 31.8065 47.25 28.8748V18.3748C47.25 14.1977 48.9094 10.1916 51.8631 7.23788C54.8168 4.28419 58.8228 2.62482 63 2.62482C67.1772 2.62482 71.1832 4.28419 74.1369 7.23788C77.0906 10.1916 78.75 14.1977 78.75 18.3748Z" fill="#F6CCAF"/>
<path d="M78.7501 18.3749C78.7501 27.9299 80.1151 35.6474 72.5289 41.3961C70.1877 42.057 67.7254 42.1666 65.3348 41.7163C62.9442 41.266 60.6904 40.2681 58.7501 38.8008C56.8099 37.3335 55.2358 35.4368 54.1515 33.2592C53.0671 31.0816 52.5019 28.6825 52.5001 26.2499C52.5001 16.6949 51.1351 8.97738 58.7214 3.22863C61.0625 2.56777 63.5249 2.45818 65.9155 2.90846C68.306 3.35874 70.5598 4.35664 72.5001 5.82393C74.4404 7.29122 76.0144 9.188 77.0988 11.3656C78.1831 13.5431 78.7484 15.9423 78.7501 18.3749Z" fill="#FFDEC7"/>
<path d="M78.75 18.3748V20.9998C72.5287 20.9998 66.36 21.7348 60.375 15.7498C57.4613 21.6823 51.7913 20.9998 47.25 20.9998V18.3748C47.25 14.1977 48.9094 10.1916 51.8631 7.23788C54.8168 4.28419 58.8228 2.62482 63 2.62482C67.1772 2.62482 71.1832 4.28419 74.1369 7.23788C77.0906 10.1916 78.75 14.1977 78.75 18.3748Z" fill="#A87E6B"/>
<path d="M78.75 18.375V21C72.5288 21 66.36 21.735 60.375 15.75C59.6509 17.2486 58.5385 18.5259 57.1537 19.4491C55.7688 20.3724 54.1619 20.9079 52.5 21V18.375C52.5038 14.6557 53.8237 11.0577 56.2259 8.21824C58.6282 5.37879 61.9577 3.48109 65.625 2.86121C69.2923 3.48109 72.6219 5.37879 75.0241 8.21824C77.4264 11.0577 78.7462 14.6557 78.75 18.375Z" fill="#BE927C"/>
<path d="M83.9999 107.625V123.375H44.9399C43.5384 123.349 42.198 122.796 41.1866 121.826C40.1753 120.855 39.5674 119.539 39.4845 118.14C39.4016 116.74 39.8498 115.361 40.7395 114.278C41.6292 113.195 42.8949 112.488 44.2836 112.297C58.5636 110.25 17.4824 115.5 83.9999 107.625Z" fill="#F6CCAF"/>
<path d="M83.9999 107.625V118.125H50.19C49.4319 118.126 48.6815 117.972 47.985 117.673C47.2884 117.374 46.6603 116.936 46.1392 116.385C45.6181 115.834 45.215 115.183 44.9546 114.471C44.6942 113.759 44.582 113.002 44.625 112.245L83.9999 107.625Z" fill="#FFDEC7"/>
<path d="M98.9626 123.375H84.0001V107.625C98.4901 105.971 99.0676 105.551 101.876 106.496C103.88 107.116 105.59 108.445 106.686 110.233C107.782 112.022 108.19 114.148 107.833 116.215C107.476 118.282 106.379 120.149 104.747 121.466C103.114 122.784 101.058 123.462 98.9626 123.375Z" fill="#6FABE6"/>
<path d="M44.9399 123.375C26.5649 123.375 24.2287 124.189 20.9212 120.75C19.9063 119.719 19.1666 118.45 18.77 117.059C18.3735 115.667 18.3327 114.199 18.6515 112.788C18.9703 111.377 19.6384 110.068 20.5945 108.983C21.5507 107.897 22.7642 107.069 24.1237 106.575C26.7487 105.63 24.9112 105.735 62.9737 110.145L44.2837 112.297C42.8949 112.488 41.6292 113.195 40.7395 114.278C39.8498 115.362 39.4016 116.741 39.4845 118.14C39.5674 119.539 40.1753 120.856 41.1867 121.826C42.198 122.797 43.5384 123.35 44.9399 123.375Z" fill="#6FABE6"/>
<path d="M62.9999 110.25L44.3099 112.402C42.9746 112.56 41.7407 113.193 40.8343 114.186C39.928 115.179 39.4099 116.466 39.3749 117.81C39.3749 118.256 40.2412 118.125 32.2874 118.125C30.9019 118.124 29.5366 117.791 28.3064 117.154C27.0761 116.517 26.0166 115.594 25.2169 114.462C24.4171 113.331 23.9005 112.024 23.7103 110.652C23.52 109.279 23.6618 107.881 24.1237 106.575C26.9849 105.577 25.7249 105.84 62.9999 110.25Z" fill="#82BCF4"/>
<path d="M102.375 109.462C102.375 111.76 101.462 113.963 99.8378 115.588C98.2133 117.212 96.01 118.125 93.7126 118.125H84.0001V107.625C98.49 105.971 99.0675 105.551 101.876 106.496C102.203 107.451 102.371 108.453 102.375 109.462Z" fill="#82BCF4"/>
<path d="M99.75 106.102C98.6737 105.945 100.905 105.761 63 110.145C62.7375 110.145 63.3675 110.145 28.035 106.102C25.935 105.919 22.7849 108.15 42 97.1248H84L99.75 106.102Z" fill="#6FABE6"/>
<path d="M96.4425 104.265C67.515 107.625 68.4863 107.625 68.25 107.625L44.625 104.475C44.0792 104.405 43.569 104.166 43.1666 103.79C42.7642 103.415 42.4899 102.923 42.3825 102.383C42.2752 101.843 42.3401 101.284 42.5683 100.783C42.7964 100.282 43.1761 99.8655 43.6538 99.5923L47.9063 97.1248H84L96.4425 104.265Z" fill="#82BCF4"/>
<path d="M38.22 78.3562C34.335 88.8562 34.02 90.4837 31.7362 93.1874C18.375 109.331 18.9262 108.937 17.0625 109.672C15.6818 110.239 14.1494 110.321 12.7164 109.903C11.2834 109.486 10.0346 108.594 9.17458 107.374C8.31453 106.154 7.89418 104.678 7.98237 103.188C8.07056 101.698 8.66205 100.282 9.65999 99.1724C23.9662 82.0049 20.79 87.6224 24.9637 73.9724C30.975 75.9149 28.0087 74.9437 38.22 78.3562Z" fill="#F6CCAF"/>
<path d="M38.2201 78.3561C34.3351 88.8561 34.0201 90.4836 31.7363 93.1873C18.3751 109.331 18.9263 108.937 17.0626 109.672C16.1254 109.225 15.3047 108.566 14.6648 107.748C14.025 106.93 13.5835 105.975 13.3749 104.958C13.1664 103.94 13.1965 102.888 13.4628 101.885C13.7292 100.881 14.2245 99.9524 14.9101 99.1723C29.3213 81.8998 26.1713 87.1498 29.7413 75.5473L38.2201 78.3561Z" fill="#FFDEC7"/>
<path d="M111.562 110.25C107.625 110.25 107.625 109.042 94.2637 93.1875C91.9537 90.5625 91.6387 88.7775 87.7799 78.3562L101.036 73.9462C105.184 87.5437 101.929 81.8212 116.34 99.1462C117.196 100.09 117.763 101.26 117.973 102.517C118.183 103.774 118.027 105.064 117.523 106.235C117.02 107.406 116.19 108.407 115.133 109.118C114.076 109.83 112.836 110.223 111.562 110.25Z" fill="#F6CCAF"/>
<path d="M114.188 109.672C113.243 109.294 112.411 108.68 111.773 107.887C95.4451 88.3312 99.1988 94.5 92.1376 76.9125L101.036 73.9462C105.184 87.5437 101.929 81.8212 116.34 99.1462C117.026 99.9287 117.521 100.859 117.787 101.865C118.054 102.87 118.084 103.924 117.875 104.943C117.667 105.963 117.225 106.92 116.586 107.74C115.946 108.561 115.125 109.222 114.188 109.672Z" fill="#FFDEC7"/>
</svg>
