<svg width="66" height="66" viewBox="0 0 66 66" fill="none" xmlns="http://www.w3.org/2000/svg">
<path d="M62.9298 63.9263H3.07008C1.37466 63.9263 0 62.5517 0 60.8563V5.69355C0 3.75946 1.56802 2.19144 3.50161 2.19144H62.6831C64.5149 2.19144 65.9999 3.67637 65.9999 5.50825V60.8563C65.9999 62.5517 64.6252 63.9263 62.9298 63.9263Z" fill="#F4F4F4"/>
<path d="M62.6836 2.19144H61.1433C61.2415 2.50917 61.2944 2.84654 61.2944 3.1965V62.9214C61.2944 63.2713 61.2415 63.6087 61.1433 63.9265H62.9299C64.6258 63.9265 66 62.5518 66 60.8564V5.50775C66 3.67638 64.515 2.19144 62.6836 2.19144Z" fill="#E8E8E8"/>
<path d="M0 14.0719H65.9999V5.35417C65.9999 3.60739 64.5839 2.19144 62.8371 2.19144H3.16273C1.41595 2.19144 0 3.60739 0 5.35417L0 14.0719Z" fill="#5994CE"/>
<path d="M62.8372 2.19144H61.1433C61.2415 2.50917 61.2944 2.84654 61.2944 3.1965V14.072H66V5.35417C66 3.60739 64.584 2.19144 62.8372 2.19144Z" fill="#4C7EB0"/>
<path d="M10.2662 8.13165C10.2662 9.42625 9.21684 10.4761 7.92174 10.4761C6.62714 10.4761 5.57776 9.42625 5.57776 8.13165C5.57776 6.83705 6.62714 5.78717 7.92174 5.78717C9.21684 5.78717 10.2662 6.83705 10.2662 8.13165Z" fill="#FA5D72"/>
<path d="M18.2025 8.13165C18.2025 9.42625 17.1526 10.4761 15.858 10.4761C14.5629 10.4761 13.5135 9.42625 13.5135 8.13165C13.5135 6.83705 14.5629 5.78717 15.858 5.78717C17.1526 5.78717 18.2025 6.83705 18.2025 8.13165Z" fill="#F6D867"/>
<path d="M26.1383 8.13165C26.1383 9.42625 25.0884 10.4761 23.7938 10.4761C22.4992 10.4761 21.4493 9.42625 21.4493 8.13165C21.4493 6.83705 22.4992 5.78717 23.7938 5.78717C25.0884 5.78717 26.1383 6.83705 26.1383 8.13165Z" fill="#279463"/>
<path d="M0 14.072V60.7638C0 62.5106 1.41595 63.9265 3.16273 63.9265H21.4493V14.072H0Z" fill="#A7C3DE"/>
<path d="M19.5292 14.072H21.4492V63.9265H19.5292V14.072Z" fill="#93ACC4"/>
<path d="M40.478 31.3993H26.5843C26.0203 31.3993 25.5631 30.942 25.5631 30.3781V19.9639C25.5631 19.3999 26.0203 18.9427 26.5843 18.9427H40.478C41.0419 18.9427 41.4991 19.3999 41.4991 19.9639V30.3781C41.4991 30.942 41.0419 31.3993 40.478 31.3993Z" fill="#FA5D72"/>
<path d="M40.478 18.9427H38.0656C38.1572 19.1084 38.2101 19.2982 38.2101 19.5006V30.8413C38.2101 31.0438 38.1572 31.2341 38.0656 31.3993H40.478C41.042 31.3993 41.4992 30.942 41.4992 30.3781V19.9639C41.4992 19.3999 41.042 18.9427 40.478 18.9427Z" fill="#E35567"/>
<path d="M60.8814 31.3993H47.3478C46.6846 31.3993 46.1469 30.862 46.1469 30.1983V20.1436C46.1469 19.4805 46.6846 18.9427 47.3478 18.9427H60.8814C61.5446 18.9427 62.0824 19.4805 62.0824 20.1436V30.1983C62.0824 30.862 61.5446 31.3993 60.8814 31.3993Z" fill="#FA5D72"/>
<path d="M60.8815 18.9427H58.6573C58.8094 19.1617 58.899 19.4266 58.899 19.7136V30.6288C58.899 30.9154 58.8094 31.1807 58.6573 31.3998H60.8815C61.5446 31.3998 62.0824 30.862 62.0824 30.1983V20.1436C62.0824 19.4805 61.5446 18.9427 60.8815 18.9427Z" fill="#E35567"/>
<path d="M61.0612 49.1923H26.5843C26.0203 49.1923 25.5631 48.7351 25.5631 48.1711V36.6682C25.5631 36.1043 26.0203 35.6471 26.5843 35.6471H61.0612C61.6251 35.6471 62.0824 36.1043 62.0824 36.6682V48.1711C62.0824 48.7351 61.6251 49.1923 61.0612 49.1923Z" fill="#FA5D72"/>
<path d="M61.0613 35.6471H58.7682C58.819 35.778 58.8477 35.9195 58.8477 36.068V48.7713C58.8477 48.9199 58.8185 49.0614 58.7682 49.1923H61.0613C61.6253 49.1923 62.0825 48.7351 62.0825 48.1711V36.6682C62.0825 36.1043 61.6253 35.6471 61.0613 35.6471Z" fill="#E35567"/>
<path d="M61.1307 58.2988H26.5843C26.0203 58.2988 25.5631 57.8416 25.5631 57.2776V54.9648C25.5631 54.4009 26.0203 53.9437 26.5843 53.9437H61.1307C61.6946 53.9437 62.1518 54.4009 62.1518 54.9648V57.2776C62.1518 57.8416 61.6946 58.2988 61.1307 58.2988Z" fill="#FBA826"/>
<path d="M61.1 53.9437H58.0455C58.6266 53.9437 59.0974 54.4145 59.0974 54.9956V57.2469C59.0974 57.828 58.6266 58.2988 58.0455 58.2988H61.1C61.6811 58.2988 62.1519 57.828 62.1519 57.2469V54.9956C62.1519 54.4145 61.6811 53.9437 61.1 53.9437Z" fill="#E09721"/>
<path d="M60.0683 8.13168C60.0683 7.58182 59.6226 7.13568 59.0723 7.13568H34.8147C34.2649 7.13568 33.8187 7.58182 33.8187 8.13168C33.8187 8.68155 34.2649 9.12769 34.8147 9.12769H59.0723C59.6226 9.12769 60.0683 8.68155 60.0683 8.13168Z" fill="#495663"/>
<path d="M4.15115 20.6426H17.2981C17.8479 20.6426 18.2941 20.1965 18.2941 19.6466C18.2941 19.0962 17.8479 18.6506 17.2981 18.6506H4.15115C3.60129 18.6506 3.15515 19.0962 3.15515 19.6466C3.15515 20.1965 3.60129 20.6426 4.15115 20.6426Z" fill="#495663"/>
<path d="M4.15115 26.8729H17.2981C17.8479 26.8729 18.2941 26.4268 18.2941 25.8769C18.2941 25.3266 17.8479 24.8809 17.2981 24.8809H4.15115C3.60129 24.8809 3.15515 25.3266 3.15515 25.8769C3.15515 26.4268 3.60129 26.8729 4.15115 26.8729Z" fill="#495663"/>
<path d="M4.15115 33.1032H17.2981C17.8479 33.1032 18.2941 32.6571 18.2941 32.1072C18.2941 31.5569 17.8479 31.1112 17.2981 31.1112H4.15115C3.60129 31.1112 3.15515 31.5569 3.15515 32.1072C3.15515 32.6571 3.60129 33.1032 4.15115 33.1032Z" fill="#495663"/>
<path d="M4.15115 39.3331H17.2981C17.8479 39.3331 18.2941 38.8874 18.2941 38.3376C18.2941 37.7872 17.8479 37.3416 17.2981 37.3416H4.15115C3.60129 37.3416 3.15515 37.7872 3.15515 38.3376C3.15515 38.8874 3.60129 39.3331 4.15115 39.3331Z" fill="#495663"/>
</svg>
