<svg width="88" height="88" viewBox="0 0 88 88" fill="none" xmlns="http://www.w3.org/2000/svg">
<g clip-path="url(#clip0_462_12427)">
<path d="M83.5997 24.1995C83.5997 25.4144 82.6152 26.3998 81.4002 26.3998C80.1853 26.3998 79.2 25.4144 79.2 24.1995C79.2 22.9845 80.1853 22 81.4002 22C82.6152 22 83.5997 22.9845 83.5997 24.1995Z" fill="white"/>
<path d="M83.5997 63.7996C83.5997 65.0145 82.6152 65.9998 81.4002 65.9998C80.1853 65.9998 79.2 65.0145 79.2 63.7996C79.2 62.5846 80.1853 61.6001 81.4002 61.6001C82.6152 61.6001 83.5997 62.5846 83.5997 63.7996V63.7996Z" fill="white"/>
<path d="M65.9998 81.4C65.9998 82.6149 65.0144 83.5994 63.7995 83.5994C62.5846 83.5994 61.6 82.6149 61.6 81.4C61.6 80.185 62.5846 79.1997 63.7995 79.1997C65.0144 79.1997 65.9998 80.185 65.9998 81.4V81.4Z" fill="white"/>
<path d="M26.3998 81.4C26.3998 82.6149 25.4145 83.5994 24.1995 83.5994C22.9846 83.5994 22.0001 82.6149 22.0001 81.4C22.0001 80.185 22.9846 79.1997 24.1995 79.1997C25.4145 79.1997 26.3998 80.185 26.3998 81.4V81.4Z" fill="white"/>
<path d="M8.80017 63.7996C8.80017 65.0145 7.81484 65.9998 6.5999 65.9998C5.38495 65.9998 4.39963 65.0145 4.39963 63.7996C4.39963 62.5846 5.38495 61.6001 6.5999 61.6001C7.81484 61.6001 8.80017 62.5846 8.80017 63.7996V63.7996Z" fill="white"/>
<path d="M8.80017 24.1995C8.80017 25.4144 7.81484 26.3998 6.5999 26.3998C5.38495 26.3998 4.39963 25.4144 4.39963 24.1995C4.39963 22.9845 5.38495 22 6.5999 22C7.81484 22 8.80017 22.9845 8.80017 24.1995Z" fill="white"/>
<path d="M22.0001 30.7998V61.6003H65.9998V30.7998H22.0001ZM46.1998 50.5998C46.1998 51.8147 45.2145 52.8001 43.9995 52.8001C42.7846 52.8001 41.8001 51.8147 41.8001 50.5998V41.8003C41.8001 40.5854 42.7846 39.6001 43.9995 39.6001C45.2145 39.6001 46.1998 40.5854 46.1998 41.8003V50.5998Z" fill="white"/>
<path d="M46.2 41.8004V50.5998C46.2 51.8148 45.2147 52.8001 43.9998 52.8001C42.7849 52.8001 41.8004 51.8148 41.8004 50.5998V41.8004C41.8004 40.5854 42.7849 39.6001 43.9998 39.6001C45.2147 39.6001 46.2 40.5854 46.2 41.8004Z" fill="url(#paint0_linear_462_12427)"/>
<path d="M83.6003 57.5961V50.5997C83.5971 49.3864 82.6142 48.4035 81.4008 48.4003H70.4003V39.6H81.4008C82.6142 39.5968 83.5971 38.6139 83.6003 37.3997V30.4042C86.6312 29.3326 88.4488 26.2332 87.9058 23.0654C87.3619 19.8975 84.6146 17.5812 81.4008 17.5812C78.1862 17.5812 75.4389 19.8975 74.8959 23.0654C74.3521 26.2332 76.1696 29.3326 79.2005 30.4042V35.2003H70.4003V28.6003C70.397 27.3861 69.4141 26.4032 68.2008 26.4H61.6008V17.5997C61.6008 7.87939 53.7206 0 44.0002 0C34.2799 0 26.4005 7.87939 26.4005 17.5997V26.4H19.8005C18.5871 26.4032 17.6042 27.3861 17.6002 28.6003V35.2003H8.80073V30.4042C11.8308 29.3326 13.6492 26.2332 13.1054 23.0654C12.5616 19.8975 9.81506 17.5812 6.60046 17.5812C3.38585 17.5812 0.639342 19.8975 0.095518 23.0654C-0.448306 26.2332 1.37008 29.3326 4.40019 30.4042V37.3997C4.40421 38.6139 5.38713 39.5968 6.60046 39.6H17.6002V48.4003H6.60046C5.38713 48.4035 4.40421 49.3864 4.40019 50.5997V57.5961C1.37008 58.6677 -0.448306 61.7662 0.095518 64.9349C0.639342 68.1028 3.38585 70.4183 6.60046 70.4183C9.81506 70.4183 12.5616 68.1028 13.1054 64.9349C13.6492 61.7662 11.8308 58.6677 8.80073 57.5961V52.8H17.6002V63.7997C17.6042 65.0139 18.5871 65.9968 19.8005 66H35.2008V79.2H30.4046C29.3331 76.1691 26.2337 74.3515 23.0658 74.8953C19.898 75.4384 17.5817 78.1857 17.5817 81.4003C17.5817 84.6141 19.898 87.3614 23.0658 87.9052C26.2337 88.4482 29.3331 86.6306 30.4046 83.5997H37.4002C38.6144 83.5965 39.5973 82.6136 39.6005 81.4003V66H48.4008V81.4003C48.404 82.6136 49.3869 83.5965 50.6002 83.5997H57.5966C58.6682 86.6306 61.7668 88.4482 64.9354 87.9052C68.1033 87.3614 70.4188 84.6141 70.4188 81.4003C70.4188 78.1857 68.1033 75.4384 64.9354 74.8953C61.7668 74.3515 58.6682 76.1691 57.5966 79.2H52.8005V66H68.2008C69.4141 65.9968 70.397 65.0139 70.4003 63.7997V52.8H79.2005V57.5961C76.1696 58.6677 74.3521 61.7662 74.8959 64.9349C75.4389 68.1028 78.1862 70.4183 81.4008 70.4183C84.6146 70.4183 87.3619 68.1028 87.9058 64.9349C88.4488 61.7662 86.6312 58.6677 83.6003 57.5961V57.5961ZM81.4008 22.0003C82.6158 22.0003 83.6003 22.9848 83.6003 24.1997C83.6003 25.4147 82.6158 26.4 81.4008 26.4C80.1859 26.4 79.2005 25.4147 79.2005 24.1997C79.2038 22.9864 80.1867 22.0035 81.4008 22.0003ZM6.60046 26.4C5.38552 26.4 4.40019 25.4147 4.40019 24.1997C4.40019 22.9848 5.38552 22.0003 6.60046 22.0003C7.8154 22.0003 8.80073 22.9848 8.80073 24.1997C8.7967 25.4139 7.81379 26.3968 6.60046 26.4ZM6.60046 66C5.38552 66 4.40019 65.0147 4.40019 63.7997C4.40019 62.5848 5.38552 61.6003 6.60046 61.6003C7.8154 61.6003 8.80073 62.5848 8.80073 63.7997C8.7967 65.0139 7.81379 65.9968 6.60046 66ZM24.2002 83.5997C22.9853 83.5997 22.0007 82.6152 22.0007 81.4003C22.0007 80.1853 22.9853 79.2 24.2002 79.2C25.4152 79.2 26.4005 80.1853 26.4005 81.4003C26.3973 82.6136 25.4143 83.5965 24.2002 83.5997V83.5997ZM63.8003 79.2C65.0152 79.2 66.0005 80.1853 66.0005 81.4003C66.0005 82.6152 65.0152 83.5997 63.8003 83.5997C62.5853 83.5997 61.6008 82.6152 61.6008 81.4003C61.604 80.1861 62.5869 79.2032 63.8003 79.2ZM30.8002 17.5997C30.8002 10.3101 36.7106 4.39973 44.0002 4.39973C51.2907 4.39973 57.2003 10.3101 57.2003 17.5997V26.4H30.8002V17.5997ZM66.0005 61.6003H22.0007V30.7997H66.0005V61.6003ZM81.4008 66C80.1859 66 79.2005 65.0147 79.2005 63.7997C79.2005 62.5848 80.1859 61.6003 81.4008 61.6003C82.6158 61.6003 83.6003 62.5848 83.6003 63.7997C83.5971 65.0139 82.6142 65.9968 81.4008 66Z" fill="url(#paint1_linear_462_12427)"/>
</g>
<defs>
<linearGradient id="paint0_linear_462_12427" x1="44.0002" y1="39.6001" x2="44.0002" y2="52.8001" gradientUnits="userSpaceOnUse">
<stop stop-color="#05EDFE"/>
<stop offset="0.479167" stop-color="#38C0FE"/>
<stop offset="1" stop-color="#0F7DF4"/>
</linearGradient>
<linearGradient id="paint1_linear_462_12427" x1="44.0005" y1="0" x2="44.0005" y2="88.0007" gradientUnits="userSpaceOnUse">
<stop stop-color="#05EDFE"/>
<stop offset="0.479167" stop-color="#38C0FE"/>
<stop offset="1" stop-color="#0F7DF4"/>
</linearGradient>
<clipPath id="clip0_462_12427">
<rect width="88" height="88" fill="white"/>
</clipPath>
</defs>
</svg>
