<svg width="443" height="136" viewBox="0 0 443 136" fill="none" xmlns="http://www.w3.org/2000/svg">
<path d="M18.7889 124.615H0V60L18.7889 75.6283V124.615Z" fill="url(#paint0_linear_25_2)"/>
<mask id="path-2-inside-1_25_2" fill="white">
<path d="M157.472 118.204L158.457 124.232C156.537 124.636 154.818 124.838 153.302 124.838C150.825 124.838 148.904 124.447 147.54 123.663C146.175 122.88 145.214 121.856 144.658 120.593C144.102 119.304 143.824 116.612 143.824 112.518V89.355H138.82V84.0477H143.824V74.0775L150.61 69.9832V84.0477H157.472V89.355H150.61V112.897C150.61 114.843 150.724 116.094 150.951 116.65C151.204 117.206 151.596 117.648 152.127 117.977C152.683 118.305 153.466 118.47 154.477 118.47C155.235 118.47 156.233 118.381 157.472 118.204ZM190.453 119.342C187.926 121.49 185.487 123.006 183.137 123.891C180.812 124.775 178.309 125.218 175.631 125.218C171.208 125.218 167.809 124.143 165.433 121.995C163.057 119.822 161.869 117.054 161.869 113.693C161.869 111.722 162.312 109.927 163.196 108.31C164.106 106.667 165.281 105.353 166.722 104.367C168.188 103.382 169.83 102.636 171.65 102.131C172.99 101.777 175.011 101.436 177.716 101.107C183.225 100.45 187.281 99.6665 189.885 98.7566C189.91 97.8215 189.922 97.2276 189.922 96.9749C189.922 94.1948 189.278 92.2362 187.989 91.0989C186.245 89.5572 183.655 88.7864 180.218 88.7864C177.008 88.7864 174.632 89.355 173.091 90.4923C171.574 91.6043 170.45 93.5883 169.717 96.4441L163.045 95.5343C163.651 92.6784 164.649 90.3786 166.039 88.6348C167.429 86.8656 169.439 85.5135 172.067 84.5784C174.695 83.6181 177.741 83.1379 181.203 83.1379C184.64 83.1379 187.433 83.5422 189.581 84.351C191.729 85.1597 193.309 86.1833 194.32 87.4216C195.331 88.6348 196.039 90.1764 196.443 92.0466C196.67 93.2092 196.784 95.3068 196.784 98.3396V107.438C196.784 113.781 196.923 117.8 197.201 119.493C197.504 121.161 198.086 122.766 198.945 124.308H191.818C191.11 122.892 190.655 121.237 190.453 119.342ZM189.885 104.102C187.408 105.113 183.693 105.972 178.739 106.68C175.934 107.084 173.95 107.539 172.787 108.044C171.625 108.55 170.728 109.295 170.096 110.281C169.464 111.242 169.148 112.316 169.148 113.503C169.148 115.323 169.83 116.84 171.195 118.053C172.585 119.266 174.607 119.872 177.261 119.872C179.889 119.872 182.227 119.304 184.274 118.166C186.321 117.004 187.825 115.424 188.785 113.428C189.518 111.886 189.885 109.611 189.885 106.604V104.102ZM202.85 124.308L217.559 103.382L203.949 84.0477H212.479L218.658 93.4872C219.821 95.2816 220.756 96.7853 221.463 97.9984C222.575 96.3304 223.599 94.8519 224.534 93.563L231.32 84.0477H239.47L225.557 103.002L240.532 124.308H232.154L223.889 111.798L221.691 108.424L211.114 124.308H202.85ZM252.511 124.308H246.18V68.7322H253.004V88.5589C255.885 84.9449 259.562 83.1379 264.036 83.1379C266.512 83.1379 268.85 83.6433 271.049 84.6542C273.273 85.6399 275.093 87.0426 276.508 88.8622C277.949 90.6566 279.073 92.8301 279.882 95.3827C280.691 97.9352 281.095 100.665 281.095 103.571C281.095 110.471 279.389 115.803 275.977 119.569C272.565 123.335 268.471 125.218 263.695 125.218C258.943 125.218 255.215 123.234 252.511 119.266V124.308ZM252.435 103.874C252.435 108.702 253.092 112.189 254.407 114.337C256.555 117.85 259.461 119.607 263.126 119.607C266.108 119.607 268.686 118.318 270.859 115.74C273.033 113.137 274.12 109.27 274.12 104.14C274.12 98.883 273.071 95.0036 270.973 92.5015C268.901 89.9995 266.386 88.7485 263.429 88.7485C260.447 88.7485 257.869 90.05 255.696 92.6532C253.522 95.231 252.435 98.9714 252.435 103.874ZM286.895 104.178C286.895 96.7221 288.968 91.2 293.112 87.6112C296.575 84.629 300.795 83.1379 305.774 83.1379C311.309 83.1379 315.833 84.9575 319.346 88.5968C322.859 92.2109 324.615 97.215 324.615 103.609C324.615 108.79 323.832 112.872 322.265 115.854C320.723 118.811 318.461 121.111 315.479 122.753C312.522 124.396 309.287 125.218 305.774 125.218C300.138 125.218 295.577 123.41 292.089 119.796C288.626 116.182 286.895 110.976 286.895 104.178ZM293.909 104.178C293.909 109.333 295.033 113.2 297.282 115.778C299.532 118.331 302.362 119.607 305.774 119.607C309.161 119.607 311.979 118.318 314.228 115.74C316.477 113.162 317.602 109.232 317.602 103.95C317.602 98.9714 316.465 95.2058 314.19 92.6532C311.941 90.0753 309.136 88.7864 305.774 88.7864C302.362 88.7864 299.532 90.0627 297.282 92.6153C295.033 95.1678 293.909 99.022 293.909 104.178ZM358.923 119.342C356.396 121.49 353.957 123.006 351.607 123.891C349.282 124.775 346.78 125.218 344.101 125.218C339.678 125.218 336.279 124.143 333.903 121.995C331.527 119.822 330.34 117.054 330.34 113.693C330.34 111.722 330.782 109.927 331.666 108.31C332.576 106.667 333.752 105.353 335.192 104.367C336.658 103.382 338.301 102.636 340.12 102.131C341.46 101.777 343.482 101.436 346.186 101.107C351.695 100.45 355.752 99.6665 358.355 98.7566C358.38 97.8215 358.393 97.2276 358.393 96.9749C358.393 94.1948 357.748 92.2362 356.459 91.0989C354.716 89.5572 352.125 88.7864 348.688 88.7864C345.478 88.7864 343.103 89.355 341.561 90.4923C340.045 91.6043 338.92 93.5883 338.187 96.4441L331.515 95.5343C332.121 92.6784 333.12 90.3786 334.51 88.6348C335.9 86.8656 337.909 85.5135 340.537 84.5784C343.166 83.6181 346.211 83.1379 349.674 83.1379C353.111 83.1379 355.903 83.5422 358.052 84.351C360.2 85.1597 361.779 86.1833 362.79 87.4216C363.801 88.6348 364.509 90.1764 364.913 92.0466C365.141 93.2092 365.254 95.3068 365.254 98.3396V107.438C365.254 113.781 365.393 117.8 365.671 119.493C365.975 121.161 366.556 122.766 367.415 124.308H360.288C359.581 122.892 359.126 121.237 358.923 119.342ZM358.355 104.102C355.878 105.113 352.163 105.972 347.209 106.68C344.404 107.084 342.42 107.539 341.258 108.044C340.095 108.55 339.198 109.295 338.566 110.281C337.934 111.242 337.618 112.316 337.618 113.503C337.618 115.323 338.301 116.84 339.665 118.053C341.055 119.266 343.077 119.872 345.731 119.872C348.359 119.872 350.697 119.304 352.744 118.166C354.791 117.004 356.295 115.424 357.255 113.428C357.988 111.886 358.355 109.611 358.355 106.604V104.102ZM375.793 124.308V84.0477H381.935V90.1511C383.502 87.2953 384.942 85.4124 386.256 84.5026C387.596 83.5928 389.062 83.1379 390.654 83.1379C392.954 83.1379 395.291 83.8708 397.667 85.3366L395.317 91.6675C393.649 90.6819 391.981 90.189 390.313 90.189C388.822 90.189 387.482 90.644 386.294 91.5538C385.106 92.4384 384.26 93.6767 383.754 95.2689C382.996 97.6952 382.617 100.349 382.617 103.23V124.308H375.793ZM427.843 124.308V119.228C425.291 123.221 421.538 125.218 416.584 125.218C413.374 125.218 410.417 124.333 407.713 122.564C405.034 120.795 402.949 118.331 401.458 115.171C399.992 111.987 399.259 108.335 399.259 104.216C399.259 100.197 399.929 96.5579 401.269 93.2976C402.608 90.0121 404.617 87.4975 407.296 85.7536C409.975 84.0098 412.97 83.1379 416.281 83.1379C418.707 83.1379 420.868 83.656 422.763 84.6922C424.659 85.7031 426.2 87.0299 427.388 88.6727V68.7322H434.174V124.308H427.843ZM406.273 104.216C406.273 109.371 407.359 113.225 409.533 115.778C411.706 118.331 414.271 119.607 417.228 119.607C420.211 119.607 422.738 118.394 424.81 115.968C426.908 113.516 427.957 109.788 427.957 104.784C427.957 99.2747 426.895 95.231 424.772 92.6532C422.65 90.0753 420.034 88.7864 416.925 88.7864C413.892 88.7864 411.352 90.0248 409.305 92.5015C407.283 94.9783 406.273 98.883 406.273 104.216Z"/>
</mask>
<path d="M157.472 118.204L158.457 124.232C156.537 124.636 154.818 124.838 153.302 124.838C150.825 124.838 148.904 124.447 147.54 123.663C146.175 122.88 145.214 121.856 144.658 120.593C144.102 119.304 143.824 116.612 143.824 112.518V89.355H138.82V84.0477H143.824V74.0775L150.61 69.9832V84.0477H157.472V89.355H150.61V112.897C150.61 114.843 150.724 116.094 150.951 116.65C151.204 117.206 151.596 117.648 152.127 117.977C152.683 118.305 153.466 118.47 154.477 118.47C155.235 118.47 156.233 118.381 157.472 118.204ZM190.453 119.342C187.926 121.49 185.487 123.006 183.137 123.891C180.812 124.775 178.309 125.218 175.631 125.218C171.208 125.218 167.809 124.143 165.433 121.995C163.057 119.822 161.869 117.054 161.869 113.693C161.869 111.722 162.312 109.927 163.196 108.31C164.106 106.667 165.281 105.353 166.722 104.367C168.188 103.382 169.83 102.636 171.65 102.131C172.99 101.777 175.011 101.436 177.716 101.107C183.225 100.45 187.281 99.6665 189.885 98.7566C189.91 97.8215 189.922 97.2276 189.922 96.9749C189.922 94.1948 189.278 92.2362 187.989 91.0989C186.245 89.5572 183.655 88.7864 180.218 88.7864C177.008 88.7864 174.632 89.355 173.091 90.4923C171.574 91.6043 170.45 93.5883 169.717 96.4441L163.045 95.5343C163.651 92.6784 164.649 90.3786 166.039 88.6348C167.429 86.8656 169.439 85.5135 172.067 84.5784C174.695 83.6181 177.741 83.1379 181.203 83.1379C184.64 83.1379 187.433 83.5422 189.581 84.351C191.729 85.1597 193.309 86.1833 194.32 87.4216C195.331 88.6348 196.039 90.1764 196.443 92.0466C196.67 93.2092 196.784 95.3068 196.784 98.3396V107.438C196.784 113.781 196.923 117.8 197.201 119.493C197.504 121.161 198.086 122.766 198.945 124.308H191.818C191.11 122.892 190.655 121.237 190.453 119.342ZM189.885 104.102C187.408 105.113 183.693 105.972 178.739 106.68C175.934 107.084 173.95 107.539 172.787 108.044C171.625 108.55 170.728 109.295 170.096 110.281C169.464 111.242 169.148 112.316 169.148 113.503C169.148 115.323 169.83 116.84 171.195 118.053C172.585 119.266 174.607 119.872 177.261 119.872C179.889 119.872 182.227 119.304 184.274 118.166C186.321 117.004 187.825 115.424 188.785 113.428C189.518 111.886 189.885 109.611 189.885 106.604V104.102ZM202.85 124.308L217.559 103.382L203.949 84.0477H212.479L218.658 93.4872C219.821 95.2816 220.756 96.7853 221.463 97.9984C222.575 96.3304 223.599 94.8519 224.534 93.563L231.32 84.0477H239.47L225.557 103.002L240.532 124.308H232.154L223.889 111.798L221.691 108.424L211.114 124.308H202.85ZM252.511 124.308H246.18V68.7322H253.004V88.5589C255.885 84.9449 259.562 83.1379 264.036 83.1379C266.512 83.1379 268.85 83.6433 271.049 84.6542C273.273 85.6399 275.093 87.0426 276.508 88.8622C277.949 90.6566 279.073 92.8301 279.882 95.3827C280.691 97.9352 281.095 100.665 281.095 103.571C281.095 110.471 279.389 115.803 275.977 119.569C272.565 123.335 268.471 125.218 263.695 125.218C258.943 125.218 255.215 123.234 252.511 119.266V124.308ZM252.435 103.874C252.435 108.702 253.092 112.189 254.407 114.337C256.555 117.85 259.461 119.607 263.126 119.607C266.108 119.607 268.686 118.318 270.859 115.74C273.033 113.137 274.12 109.27 274.12 104.14C274.12 98.883 273.071 95.0036 270.973 92.5015C268.901 89.9995 266.386 88.7485 263.429 88.7485C260.447 88.7485 257.869 90.05 255.696 92.6532C253.522 95.231 252.435 98.9714 252.435 103.874ZM286.895 104.178C286.895 96.7221 288.968 91.2 293.112 87.6112C296.575 84.629 300.795 83.1379 305.774 83.1379C311.309 83.1379 315.833 84.9575 319.346 88.5968C322.859 92.2109 324.615 97.215 324.615 103.609C324.615 108.79 323.832 112.872 322.265 115.854C320.723 118.811 318.461 121.111 315.479 122.753C312.522 124.396 309.287 125.218 305.774 125.218C300.138 125.218 295.577 123.41 292.089 119.796C288.626 116.182 286.895 110.976 286.895 104.178ZM293.909 104.178C293.909 109.333 295.033 113.2 297.282 115.778C299.532 118.331 302.362 119.607 305.774 119.607C309.161 119.607 311.979 118.318 314.228 115.74C316.477 113.162 317.602 109.232 317.602 103.95C317.602 98.9714 316.465 95.2058 314.19 92.6532C311.941 90.0753 309.136 88.7864 305.774 88.7864C302.362 88.7864 299.532 90.0627 297.282 92.6153C295.033 95.1678 293.909 99.022 293.909 104.178ZM358.923 119.342C356.396 121.49 353.957 123.006 351.607 123.891C349.282 124.775 346.78 125.218 344.101 125.218C339.678 125.218 336.279 124.143 333.903 121.995C331.527 119.822 330.34 117.054 330.34 113.693C330.34 111.722 330.782 109.927 331.666 108.31C332.576 106.667 333.752 105.353 335.192 104.367C336.658 103.382 338.301 102.636 340.12 102.131C341.46 101.777 343.482 101.436 346.186 101.107C351.695 100.45 355.752 99.6665 358.355 98.7566C358.38 97.8215 358.393 97.2276 358.393 96.9749C358.393 94.1948 357.748 92.2362 356.459 91.0989C354.716 89.5572 352.125 88.7864 348.688 88.7864C345.478 88.7864 343.103 89.355 341.561 90.4923C340.045 91.6043 338.92 93.5883 338.187 96.4441L331.515 95.5343C332.121 92.6784 333.12 90.3786 334.51 88.6348C335.9 86.8656 337.909 85.5135 340.537 84.5784C343.166 83.6181 346.211 83.1379 349.674 83.1379C353.111 83.1379 355.903 83.5422 358.052 84.351C360.2 85.1597 361.779 86.1833 362.79 87.4216C363.801 88.6348 364.509 90.1764 364.913 92.0466C365.141 93.2092 365.254 95.3068 365.254 98.3396V107.438C365.254 113.781 365.393 117.8 365.671 119.493C365.975 121.161 366.556 122.766 367.415 124.308H360.288C359.581 122.892 359.126 121.237 358.923 119.342ZM358.355 104.102C355.878 105.113 352.163 105.972 347.209 106.68C344.404 107.084 342.42 107.539 341.258 108.044C340.095 108.55 339.198 109.295 338.566 110.281C337.934 111.242 337.618 112.316 337.618 113.503C337.618 115.323 338.301 116.84 339.665 118.053C341.055 119.266 343.077 119.872 345.731 119.872C348.359 119.872 350.697 119.304 352.744 118.166C354.791 117.004 356.295 115.424 357.255 113.428C357.988 111.886 358.355 109.611 358.355 106.604V104.102ZM375.793 124.308V84.0477H381.935V90.1511C383.502 87.2953 384.942 85.4124 386.256 84.5026C387.596 83.5928 389.062 83.1379 390.654 83.1379C392.954 83.1379 395.291 83.8708 397.667 85.3366L395.317 91.6675C393.649 90.6819 391.981 90.189 390.313 90.189C388.822 90.189 387.482 90.644 386.294 91.5538C385.106 92.4384 384.26 93.6767 383.754 95.2689C382.996 97.6952 382.617 100.349 382.617 103.23V124.308H375.793ZM427.843 124.308V119.228C425.291 123.221 421.538 125.218 416.584 125.218C413.374 125.218 410.417 124.333 407.713 122.564C405.034 120.795 402.949 118.331 401.458 115.171C399.992 111.987 399.259 108.335 399.259 104.216C399.259 100.197 399.929 96.5579 401.269 93.2976C402.608 90.0121 404.617 87.4975 407.296 85.7536C409.975 84.0098 412.97 83.1379 416.281 83.1379C418.707 83.1379 420.868 83.656 422.763 84.6922C424.659 85.7031 426.2 87.0299 427.388 88.6727V68.7322H434.174V124.308H427.843ZM406.273 104.216C406.273 109.371 407.359 113.225 409.533 115.778C411.706 118.331 414.271 119.607 417.228 119.607C420.211 119.607 422.738 118.394 424.81 115.968C426.908 113.516 427.957 109.788 427.957 104.784C427.957 99.2747 426.895 95.231 424.772 92.6532C422.65 90.0753 420.034 88.7864 416.925 88.7864C413.892 88.7864 411.352 90.0248 409.305 92.5015C407.283 94.9783 406.273 98.883 406.273 104.216Z" fill="white" stroke="white" stroke-width="2" mask="url(#path-2-inside-1_25_2)"/>
<path d="M63.2764 123.821L82.0648 123.691L81.6152 67.3846L62.9356 81.1339L63.2764 123.821Z" fill="url(#paint1_linear_25_2)"/>
<path d="M113.722 76.6154H94.9333V123.692H113.722V76.6154Z" fill="url(#paint2_linear_25_2)"/>
<path d="M173.174 12.4985L102.508 71.8154L58.3445 34.4585L73.603 21.9877L103.22 46.1908L157.916 0L173.174 12.4985Z" fill="url(#paint3_linear_25_2)"/>
<path d="M78.1222 54.4615L44.1638 85.6615L0 48.3046L13.8444 36.9231L44.1638 61.8461L64.2778 43.3846L78.1222 54.4615Z" fill="url(#paint4_linear_25_2)"/>
<path d="M84.0556 26.7692L96.9111 36.9231L111.744 23.0769L97.9 14.7692L84.0556 26.7692Z" fill="url(#paint5_linear_25_2)"/>
<defs>
<linearGradient id="paint0_linear_25_2" x1="0" y1="92.3119" x2="18.7889" y2="92.3119" gradientUnits="userSpaceOnUse">
<stop offset="0.01" stop-color="white"/>
<stop offset="0.984375" stop-color="white"/>
</linearGradient>
<linearGradient id="paint1_linear_25_2" x1="81.84" y1="95.5413" x2="63.0518" y2="95.6913" gradientUnits="userSpaceOnUse">
<stop offset="0.01" stop-color="white"/>
<stop offset="1" stop-color="white"/>
</linearGradient>
<linearGradient id="paint2_linear_25_2" x1="1570.24" y1="5769.63" x2="1980.4" y2="5769.63" gradientUnits="userSpaceOnUse">
<stop offset="0.01" stop-color="white"/>
<stop offset="1" stop-color="#067AE5"/>
</linearGradient>
<linearGradient id="paint3_linear_25_2" x1="5139.47" y1="3422.72" x2="18936.8" y2="3422.72" gradientUnits="userSpaceOnUse">
<stop offset="0.01" stop-color="white"/>
<stop offset="1" stop-color="#067AE5"/>
</linearGradient>
<linearGradient id="paint4_linear_25_2" x1="5081.13" y1="3436.57" x2="18878.4" y2="3436.57" gradientUnits="userSpaceOnUse">
<stop offset="0.01" stop-color="white"/>
</linearGradient>
<linearGradient id="paint5_linear_25_2" x1="3844.11" y1="935.204" x2="6379.02" y2="935.204" gradientUnits="userSpaceOnUse">
<stop offset="0.01" stop-color="white"/>
<stop offset="1" stop-color="#067AE5"/>
</linearGradient>
</defs>
</svg>
