<svg width="443" height="136" viewBox="0 0 443 136" fill="none" xmlns="http://www.w3.org/2000/svg">
<path d="M18.7889 124.615H0V60L18.7889 75.6283V124.615Z" fill="url(#paint0_linear_1_26)"/>
<path d="M157.472 118.204L158.457 124.232C156.537 124.636 154.818 124.838 153.302 124.838C150.825 124.838 148.904 124.447 147.54 123.663C146.175 122.88 145.214 121.856 144.658 120.593C144.102 119.304 143.824 116.612 143.824 112.518V89.355H138.82V84.0477H143.824V74.0775L150.61 69.9832V84.0477H157.472V89.355H150.61V112.897C150.61 114.843 150.724 116.094 150.951 116.65C151.204 117.206 151.596 117.648 152.127 117.977C152.683 118.305 153.466 118.47 154.477 118.47C155.235 118.47 156.233 118.381 157.472 118.204ZM190.453 119.342C187.926 121.49 185.487 123.006 183.137 123.891C180.812 124.775 178.309 125.218 175.631 125.218C171.208 125.218 167.809 124.143 165.433 121.995C163.057 119.822 161.869 117.054 161.869 113.693C161.869 111.722 162.312 109.927 163.196 108.31C164.106 106.667 165.281 105.353 166.722 104.367C168.188 103.382 169.83 102.636 171.65 102.131C172.99 101.777 175.011 101.436 177.716 101.107C183.225 100.45 187.281 99.6665 189.885 98.7566C189.91 97.8215 189.922 97.2276 189.922 96.9749C189.922 94.1948 189.278 92.2362 187.989 91.0989C186.245 89.5572 183.655 88.7864 180.218 88.7864C177.008 88.7864 174.632 89.355 173.091 90.4923C171.574 91.6043 170.45 93.5883 169.717 96.4441L163.045 95.5343C163.651 92.6784 164.649 90.3786 166.039 88.6348C167.429 86.8656 169.439 85.5135 172.067 84.5784C174.695 83.6181 177.741 83.1379 181.203 83.1379C184.64 83.1379 187.433 83.5422 189.581 84.351C191.729 85.1597 193.309 86.1833 194.32 87.4216C195.331 88.6348 196.039 90.1764 196.443 92.0466C196.67 93.2092 196.784 95.3068 196.784 98.3396V107.438C196.784 113.781 196.923 117.8 197.201 119.493C197.504 121.161 198.086 122.766 198.945 124.308H191.818C191.11 122.892 190.655 121.237 190.453 119.342ZM189.885 104.102C187.408 105.113 183.693 105.972 178.739 106.68C175.934 107.084 173.95 107.539 172.787 108.044C171.625 108.55 170.728 109.295 170.096 110.281C169.464 111.242 169.148 112.316 169.148 113.503C169.148 115.323 169.83 116.84 171.195 118.053C172.585 119.266 174.607 119.872 177.261 119.872C179.889 119.872 182.227 119.304 184.274 118.166C186.321 117.004 187.825 115.424 188.785 113.428C189.518 111.886 189.885 109.611 189.885 106.604V104.102ZM202.85 124.308L217.559 103.382L203.949 84.0477H212.479L218.658 93.4872C219.821 95.2816 220.756 96.7853 221.463 97.9984C222.575 96.3304 223.599 94.8519 224.534 93.563L231.32 84.0477H239.47L225.557 103.002L240.532 124.308H232.154L223.889 111.798L221.691 108.424L211.114 124.308H202.85ZM252.511 124.308H246.18V68.7322H253.004V88.5589C255.885 84.9449 259.562 83.1379 264.036 83.1379C266.512 83.1379 268.85 83.6433 271.049 84.6542C273.273 85.6399 275.093 87.0426 276.508 88.8622C277.949 90.6566 279.073 92.8301 279.882 95.3827C280.691 97.9352 281.095 100.665 281.095 103.571C281.095 110.471 279.389 115.803 275.977 119.569C272.565 123.335 268.471 125.218 263.695 125.218C258.943 125.218 255.215 123.234 252.511 119.266V124.308ZM252.435 103.874C252.435 108.702 253.092 112.189 254.407 114.337C256.555 117.85 259.461 119.607 263.126 119.607C266.108 119.607 268.686 118.318 270.859 115.74C273.033 113.137 274.12 109.27 274.12 104.14C274.12 98.883 273.071 95.0036 270.973 92.5015C268.901 89.9995 266.386 88.7485 263.429 88.7485C260.447 88.7485 257.869 90.05 255.696 92.6532C253.522 95.231 252.435 98.9714 252.435 103.874ZM286.895 104.178C286.895 96.7221 288.968 91.2 293.112 87.6112C296.575 84.629 300.795 83.1379 305.774 83.1379C311.309 83.1379 315.833 84.9575 319.346 88.5968C322.859 92.2109 324.615 97.215 324.615 103.609C324.615 108.79 323.832 112.872 322.265 115.854C320.723 118.811 318.461 121.111 315.479 122.753C312.522 124.396 309.287 125.218 305.774 125.218C300.138 125.218 295.577 123.41 292.089 119.796C288.626 116.182 286.895 110.976 286.895 104.178ZM293.909 104.178C293.909 109.333 295.033 113.2 297.282 115.778C299.532 118.331 302.362 119.607 305.774 119.607C309.161 119.607 311.979 118.318 314.228 115.74C316.477 113.162 317.602 109.232 317.602 103.95C317.602 98.9714 316.465 95.2058 314.19 92.6532C311.941 90.0753 309.136 88.7864 305.774 88.7864C302.362 88.7864 299.532 90.0627 297.282 92.6153C295.033 95.1678 293.909 99.022 293.909 104.178ZM358.923 119.342C356.396 121.49 353.957 123.006 351.607 123.891C349.282 124.775 346.78 125.218 344.101 125.218C339.678 125.218 336.279 124.143 333.903 121.995C331.527 119.822 330.34 117.054 330.34 113.693C330.34 111.722 330.782 109.927 331.666 108.31C332.576 106.667 333.752 105.353 335.192 104.367C336.658 103.382 338.301 102.636 340.12 102.131C341.46 101.777 343.482 101.436 346.186 101.107C351.695 100.45 355.752 99.6665 358.355 98.7566C358.38 97.8215 358.393 97.2276 358.393 96.9749C358.393 94.1948 357.748 92.2362 356.459 91.0989C354.716 89.5572 352.125 88.7864 348.688 88.7864C345.478 88.7864 343.103 89.355 341.561 90.4923C340.045 91.6043 338.92 93.5883 338.187 96.4441L331.515 95.5343C332.121 92.6784 333.12 90.3786 334.51 88.6348C335.9 86.8656 337.909 85.5135 340.537 84.5784C343.166 83.6181 346.211 83.1379 349.674 83.1379C353.111 83.1379 355.903 83.5422 358.052 84.351C360.2 85.1597 361.779 86.1833 362.79 87.4216C363.801 88.6348 364.509 90.1764 364.913 92.0466C365.141 93.2092 365.254 95.3068 365.254 98.3396V107.438C365.254 113.781 365.393 117.8 365.671 119.493C365.975 121.161 366.556 122.766 367.415 124.308H360.288C359.581 122.892 359.126 121.237 358.923 119.342ZM358.355 104.102C355.878 105.113 352.163 105.972 347.209 106.68C344.404 107.084 342.42 107.539 341.258 108.044C340.095 108.55 339.198 109.295 338.566 110.281C337.934 111.242 337.618 112.316 337.618 113.503C337.618 115.323 338.301 116.84 339.665 118.053C341.055 119.266 343.077 119.872 345.731 119.872C348.359 119.872 350.697 119.304 352.744 118.166C354.791 117.004 356.295 115.424 357.255 113.428C357.988 111.886 358.355 109.611 358.355 106.604V104.102ZM375.793 124.308V84.0477H381.935V90.1511C383.502 87.2953 384.942 85.4124 386.256 84.5026C387.596 83.5928 389.062 83.1379 390.654 83.1379C392.954 83.1379 395.291 83.8708 397.667 85.3366L395.317 91.6675C393.649 90.6819 391.981 90.189 390.313 90.189C388.822 90.189 387.482 90.644 386.294 91.5538C385.106 92.4384 384.26 93.6767 383.754 95.2689C382.996 97.6952 382.617 100.349 382.617 103.23V124.308H375.793ZM427.843 124.308V119.228C425.291 123.221 421.538 125.218 416.584 125.218C413.374 125.218 410.417 124.333 407.713 122.564C405.034 120.795 402.949 118.331 401.458 115.171C399.992 111.987 399.259 108.335 399.259 104.216C399.259 100.197 399.929 96.5579 401.269 93.2976C402.608 90.0121 404.617 87.4975 407.296 85.7536C409.975 84.0098 412.97 83.1379 416.281 83.1379C418.707 83.1379 420.868 83.656 422.763 84.6922C424.659 85.7031 426.2 87.0299 427.388 88.6727V68.7322H434.174V124.308H427.843ZM406.273 104.216C406.273 109.371 407.359 113.225 409.533 115.778C411.706 118.331 414.271 119.607 417.228 119.607C420.211 119.607 422.738 118.394 424.81 115.968C426.908 113.516 427.957 109.788 427.957 104.784C427.957 99.2747 426.895 95.231 424.772 92.6532C422.65 90.0753 420.034 88.7864 416.925 88.7864C413.892 88.7864 411.352 90.0248 409.305 92.5015C407.283 94.9783 406.273 98.883 406.273 104.216Z" fill="#303030"/>
<path d="M157.472 118.204L158.154 118.093L158.045 117.424L157.374 117.52L157.472 118.204ZM158.457 124.232L158.6 124.909L159.247 124.772L159.14 124.12L158.457 124.232ZM144.658 120.593L144.023 120.866L144.025 120.871L144.658 120.593ZM143.824 89.355H144.516V88.6635H143.824V89.355ZM138.82 89.355H138.129V90.0466H138.82V89.355ZM138.82 84.0477V83.3562H138.129V84.0477H138.82ZM143.824 84.0477V84.7392H144.516V84.0477H143.824ZM143.824 74.0775L143.467 73.4854L143.133 73.6871V74.0775H143.824ZM150.61 69.9832H151.302V68.7584L150.253 69.3911L150.61 69.9832ZM150.61 84.0477H149.919V84.7392H150.61V84.0477ZM157.472 84.0477H158.163V83.3562H157.472V84.0477ZM157.472 89.355V90.0466H158.163V89.355H157.472ZM150.61 89.355V88.6635H149.919V89.355H150.61ZM150.951 116.65L150.311 116.912L150.316 116.924L150.322 116.936L150.951 116.65ZM152.127 117.977L151.763 118.565L151.769 118.569L151.775 118.572L152.127 117.977ZM156.789 118.316L157.775 124.343L159.14 124.12L158.154 118.093L156.789 118.316ZM158.315 123.555C156.428 123.952 154.759 124.147 153.302 124.147V125.53C154.878 125.53 156.645 125.32 158.6 124.909L158.315 123.555ZM153.302 124.147C150.883 124.147 149.1 123.762 147.884 123.064L147.195 124.263C148.708 125.132 150.767 125.53 153.302 125.53V124.147ZM147.884 123.064C146.628 122.343 145.78 121.424 145.291 120.314L144.025 120.871C144.649 122.288 145.721 123.417 147.195 124.263L147.884 123.064ZM145.293 120.319C145.058 119.774 144.858 118.864 144.721 117.536C144.585 116.223 144.516 114.552 144.516 112.518H143.133C143.133 114.578 143.203 116.3 143.345 117.678C143.486 119.042 143.702 120.122 144.023 120.866L145.293 120.319ZM144.516 112.518V89.355H143.133V112.518H144.516ZM143.824 88.6635H138.82V90.0466H143.824V88.6635ZM139.512 89.355V84.0477H138.129V89.355H139.512ZM138.82 84.7392H143.824V83.3562H138.82V84.7392ZM144.516 84.0477V74.0775H143.133V84.0477H144.516ZM144.182 74.6696L150.967 70.5753L150.253 69.3911L143.467 73.4854L144.182 74.6696ZM149.919 69.9832V84.0477H151.302V69.9832H149.919ZM150.61 84.7392H157.472V83.3562H150.61V84.7392ZM156.78 84.0477V89.355H158.163V84.0477H156.78ZM157.472 88.6635H150.61V90.0466H157.472V88.6635ZM149.919 89.355V112.897H151.302V89.355H149.919ZM149.919 112.897C149.919 113.881 149.947 114.703 150.007 115.357C150.065 115.994 150.156 116.533 150.311 116.912L151.591 116.388C151.519 116.211 151.44 115.847 151.384 115.232C151.33 114.635 151.302 113.859 151.302 112.897H149.919ZM150.322 116.936C150.633 117.62 151.118 118.166 151.763 118.565L152.491 117.389C152.074 117.131 151.776 116.792 151.581 116.364L150.322 116.936ZM151.775 118.572C152.481 118.99 153.406 119.161 154.477 119.161V117.778C153.526 117.778 152.884 117.621 152.478 117.381L151.775 118.572ZM154.477 119.161C155.282 119.161 156.317 119.068 157.57 118.889L157.374 117.52C156.15 117.695 155.188 117.778 154.477 117.778V119.161ZM190.453 119.342L191.141 119.268L191.002 117.967L190.005 118.815L190.453 119.342ZM183.137 123.891L182.893 123.243L182.891 123.244L183.137 123.891ZM165.433 121.995L164.966 122.505L164.969 122.508L165.433 121.995ZM163.196 108.31L162.591 107.975L162.589 107.978L163.196 108.31ZM166.722 104.367L166.336 103.793L166.331 103.797L166.722 104.367ZM171.65 102.131L171.473 101.462L171.465 101.464L171.65 102.131ZM177.716 101.107L177.634 100.42L177.632 100.421L177.716 101.107ZM189.885 98.7566L190.113 99.4094L190.563 99.2521L190.576 98.7753L189.885 98.7566ZM187.989 91.0989L187.531 91.617L187.532 91.6174L187.989 91.0989ZM173.091 90.4923L173.5 91.05L173.501 91.0488L173.091 90.4923ZM169.717 96.4441L169.623 97.1293L170.233 97.2125L170.386 96.616L169.717 96.4441ZM163.045 95.5343L162.368 95.3906L162.213 96.1189L162.951 96.2195L163.045 95.5343ZM166.039 88.6348L166.58 89.0658L166.583 89.062L166.039 88.6348ZM172.067 84.5784L172.299 85.23L172.304 85.2279L172.067 84.5784ZM194.32 87.4216L193.784 87.859L193.789 87.8643L194.32 87.4216ZM196.443 92.0466L197.122 91.9138L197.119 91.9005L196.443 92.0466ZM197.201 119.493L196.519 119.605L196.521 119.617L197.201 119.493ZM198.945 124.308V124.999H200.122L199.549 123.971L198.945 124.308ZM191.818 124.308L191.199 124.617L191.391 124.999H191.818V124.308ZM189.885 104.102H190.576V103.073L189.623 103.462L189.885 104.102ZM178.739 106.68L178.641 105.995L178.64 105.995L178.739 106.68ZM170.096 110.281L170.673 110.661L170.678 110.654L170.096 110.281ZM171.195 118.053L170.736 118.569L170.74 118.574L171.195 118.053ZM184.274 118.166L184.61 118.771L184.615 118.768L184.274 118.166ZM188.785 113.428L189.408 113.727L189.41 113.725L188.785 113.428ZM190.005 118.815C187.52 120.927 185.149 122.394 182.893 123.243L183.38 124.538C185.825 123.618 188.331 122.053 190.901 119.868L190.005 118.815ZM182.891 123.244C180.65 124.097 178.232 124.526 175.631 124.526V125.909C178.387 125.909 180.973 125.454 183.383 124.537L182.891 123.244ZM175.631 124.526C171.314 124.526 168.104 123.478 165.897 121.482L164.969 122.508C167.513 124.809 171.102 125.909 175.631 125.909V124.526ZM165.9 121.485C163.674 119.449 162.561 116.87 162.561 113.693H161.178C161.178 117.239 162.44 120.195 164.966 122.505L165.9 121.485ZM162.561 113.693C162.561 111.829 162.978 110.15 163.803 108.642L162.589 107.978C161.645 109.704 161.178 111.614 161.178 113.693H162.561ZM163.801 108.645C164.663 107.089 165.767 105.858 167.112 104.938L166.331 103.797C164.795 104.848 163.549 106.245 162.591 107.975L163.801 108.645ZM167.108 104.941C168.508 104 170.082 103.284 171.835 102.797L171.465 101.464C169.579 101.988 167.867 102.764 166.336 103.793L167.108 104.941ZM171.827 102.799C173.119 102.458 175.102 102.121 177.799 101.793L177.632 100.421C174.92 100.75 172.86 101.096 171.473 101.462L171.827 102.799ZM177.797 101.794C183.317 101.135 187.435 100.345 190.113 99.4094L189.656 98.1038C187.127 98.9878 183.133 99.7645 177.634 100.42L177.797 101.794ZM190.576 98.7753C190.601 97.8432 190.614 97.2389 190.614 96.9749H189.231C189.231 97.2163 189.219 97.7998 189.193 98.7379L190.576 98.7753ZM190.614 96.9749C190.614 94.1161 189.955 91.9114 188.447 90.5804L187.532 91.6174C188.601 92.5609 189.231 94.2736 189.231 96.9749H190.614ZM188.447 90.5808C186.528 88.8845 183.745 88.0949 180.218 88.0949V89.4779C183.565 89.4779 185.962 90.23 187.531 91.617L188.447 90.5808ZM180.218 88.0949C176.951 88.0949 174.397 88.6692 172.68 89.9358L173.501 91.0488C174.867 90.0409 177.065 89.4779 180.218 89.4779V88.0949ZM172.682 89.9347C170.981 91.1819 169.798 93.3445 169.047 96.2722L170.386 96.616C171.101 93.832 172.167 92.0268 173.5 91.05L172.682 89.9347ZM169.81 95.759L163.138 94.8491L162.951 96.2195L169.623 97.1293L169.81 95.759ZM163.721 95.678C164.312 92.8959 165.274 90.7038 166.58 89.0658L165.499 88.2037C164.024 90.0534 162.99 92.461 162.368 95.3906L163.721 95.678ZM166.583 89.062C167.875 87.4177 169.764 86.1318 172.299 85.2299L171.835 83.9269C169.113 84.8953 166.984 86.3136 165.496 88.2075L166.583 89.062ZM172.304 85.2279C174.841 84.3011 177.803 83.8294 181.203 83.8294V82.4463C177.678 82.4463 174.55 82.935 171.83 83.9289L172.304 85.2279ZM181.203 83.8294C184.594 83.8294 187.296 84.2295 189.338 84.9981L189.825 83.7038C187.57 82.855 184.686 82.4463 181.203 82.4463V83.8294ZM189.338 84.9981C191.419 85.7815 192.877 86.7475 193.784 87.8589L194.856 86.9843C193.741 85.6191 192.04 84.5379 189.825 83.7038L189.338 84.9981ZM193.789 87.8643C194.715 88.9754 195.381 90.4088 195.767 92.1928L197.119 91.9005C196.696 89.9441 195.947 88.2941 194.851 86.979L193.789 87.8643ZM195.764 92.1794C195.977 93.2681 196.093 95.3035 196.093 98.3396H197.476C197.476 95.3102 197.363 93.1503 197.122 91.9138L195.764 92.1794ZM196.093 98.3396V107.438H197.476V98.3396H196.093ZM196.093 107.438C196.093 113.763 196.23 117.844 196.519 119.605L197.883 119.381C197.617 117.755 197.476 113.8 197.476 107.438H196.093ZM196.521 119.617C196.838 121.363 197.446 123.039 198.341 124.644L199.549 123.971C198.725 122.493 198.171 120.96 197.881 119.369L196.521 119.617ZM198.945 123.616H191.818V124.999H198.945V123.616ZM192.436 123.998C191.772 122.67 191.336 121.098 191.141 119.268L189.766 119.415C189.975 121.376 190.448 123.114 191.199 124.617L192.436 123.998ZM189.623 103.462C187.226 104.44 183.578 105.29 178.641 105.995L178.837 107.364C183.807 106.654 187.589 105.786 190.146 104.742L189.623 103.462ZM178.64 105.995C175.83 106.4 173.766 106.865 172.512 107.41L173.063 108.679C174.134 108.213 176.037 107.768 178.838 107.364L178.64 105.995ZM172.512 107.41C171.234 107.966 170.226 108.797 169.514 109.908L170.678 110.654C171.23 109.794 172.015 109.134 173.063 108.679L172.512 107.41ZM169.518 109.901C168.809 110.978 168.456 112.185 168.456 113.503H169.84C169.84 112.446 170.118 111.505 170.673 110.661L169.518 109.901ZM168.456 113.503C168.456 115.521 169.224 117.226 170.736 118.569L171.655 117.536C170.437 116.453 169.84 115.125 169.84 113.503H168.456ZM170.74 118.574C172.302 119.936 174.512 120.564 177.261 120.564V119.181C174.702 119.181 172.868 118.595 171.65 117.532L170.74 118.574ZM177.261 120.564C179.992 120.564 182.448 119.972 184.61 118.771L183.938 117.562C182.006 118.635 179.786 119.181 177.261 119.181V120.564ZM184.615 118.768C186.777 117.54 188.383 115.859 189.408 113.727L188.162 113.128C187.267 114.989 185.865 116.467 183.932 117.565L184.615 118.768ZM189.41 113.725C190.208 112.044 190.576 109.647 190.576 106.604H189.193C189.193 109.575 188.828 111.728 188.161 113.131L189.41 113.725ZM190.576 106.604V104.102H189.193V106.604H190.576ZM202.85 124.308L202.284 123.91L201.518 124.999H202.85V124.308ZM217.559 103.382L218.124 103.779L218.404 103.381L218.124 102.984L217.559 103.382ZM203.949 84.0477V83.3562H202.617L203.384 84.4457L203.949 84.0477ZM212.479 84.0477L213.057 83.6689L212.853 83.3562H212.479V84.0477ZM218.658 93.4872L219.238 93.1112L219.237 93.1084L218.658 93.4872ZM221.463 97.9984L220.866 98.3469L221.424 99.3038L222.039 98.382L221.463 97.9984ZM224.534 93.563L225.094 93.9691L225.097 93.9645L224.534 93.563ZM231.32 84.0477V83.3562H230.964L230.757 83.6462L231.32 84.0477ZM239.47 84.0477L240.028 84.4569L240.836 83.3562H239.47V84.0477ZM225.557 103.002L225 102.593L224.706 102.994L224.992 103.4L225.557 103.002ZM240.532 124.308V124.999H241.863L241.098 123.91L240.532 124.308ZM232.154 124.308L231.577 124.689L231.782 124.999H232.154V124.308ZM223.889 111.798L223.31 112.175L223.312 112.179L223.889 111.798ZM221.691 108.424L222.27 108.046L221.697 107.167L221.115 108.04L221.691 108.424ZM211.114 124.308V124.999H211.484L211.69 124.691L211.114 124.308ZM203.415 124.705L218.124 103.779L216.993 102.984L202.284 123.91L203.415 124.705ZM218.124 102.984L204.514 83.6496L203.384 84.4457L216.993 103.78L218.124 102.984ZM203.949 84.7392H212.479V83.3562H203.949V84.7392ZM211.9 84.4264L218.079 93.8659L219.237 93.1084L213.057 83.6689L211.9 84.4264ZM218.078 93.8632C219.237 95.6527 220.166 97.1465 220.866 98.3469L222.061 97.65C221.345 96.4241 220.404 94.9105 219.238 93.1112L218.078 93.8632ZM222.039 98.382C223.147 96.7197 224.165 95.249 225.094 93.9691L223.974 93.1569C223.033 94.4548 222.004 95.9411 220.888 97.6148L222.039 98.382ZM225.097 93.9645L231.883 84.4492L230.757 83.6462L223.971 93.1615L225.097 93.9645ZM231.32 84.7392H239.47V83.3562H231.32V84.7392ZM238.913 83.6385L225 102.593L226.115 103.412L240.028 84.4569L238.913 83.6385ZM224.992 103.4L239.966 124.705L241.098 123.91L226.123 102.605L224.992 103.4ZM240.532 123.616H232.154V124.999H240.532V123.616ZM232.731 123.927L224.466 111.416L223.312 112.179L231.577 124.689L232.731 123.927ZM224.469 111.42L222.27 108.046L221.111 108.801L223.31 112.175L224.469 111.42ZM221.115 108.04L210.538 123.924L211.69 124.691L222.266 108.807L221.115 108.04ZM211.114 123.616H202.85V124.999H211.114V123.616ZM252.511 124.308V124.999H253.203V124.308H252.511ZM246.18 124.308H245.489V124.999H246.18V124.308ZM246.18 68.7322V68.0407H245.489V68.7322H246.18ZM253.004 68.7322H253.696V68.0407H253.004V68.7322ZM253.004 88.5589H252.313V90.5357L253.545 88.99L253.004 88.5589ZM271.049 84.6542L270.76 85.2826L270.769 85.2865L271.049 84.6542ZM276.508 88.8622L275.962 89.2868L275.969 89.2951L276.508 88.8622ZM275.977 119.569L275.465 119.105L275.465 119.105L275.977 119.569ZM252.511 119.266L253.083 118.876L251.82 117.023V119.266H252.511ZM254.407 114.337L254.997 113.977L254.997 113.977L254.407 114.337ZM270.859 115.74L271.388 116.186L271.39 116.183L270.859 115.74ZM270.973 92.5015L270.441 92.9427L270.443 92.9458L270.973 92.5015ZM255.696 92.6532L256.224 93.0989L256.226 93.0964L255.696 92.6532ZM252.511 123.616H246.18V124.999H252.511V123.616ZM246.872 124.308V68.7322H245.489V124.308H246.872ZM246.18 69.4237H253.004V68.0407H246.18V69.4237ZM252.313 68.7322V88.5589H253.696V68.7322H252.313ZM253.545 88.99C256.3 85.5342 259.781 83.8294 264.036 83.8294V82.4463C259.344 82.4463 255.471 84.3556 252.463 88.1279L253.545 88.99ZM264.036 83.8294C266.415 83.8294 268.654 84.3143 270.76 85.2825L271.338 84.026C269.046 82.9724 266.61 82.4463 264.036 82.4463V83.8294ZM270.769 85.2865C272.894 86.2285 274.621 87.5622 275.962 89.2868L277.054 88.4377C275.565 86.5229 273.652 85.0513 271.329 84.022L270.769 85.2865ZM275.969 89.2951C277.348 91.0129 278.436 93.1073 279.223 95.5915L280.541 95.1738C279.711 92.5529 278.549 90.3003 277.047 88.4293L275.969 89.2951ZM279.223 95.5915C280.008 98.071 280.404 100.73 280.404 103.571H281.787C281.787 100.6 281.373 97.7995 280.541 95.1738L279.223 95.5915ZM280.404 103.571C280.404 110.361 278.726 115.506 275.465 119.105L276.49 120.033C280.053 116.101 281.787 110.58 281.787 103.571H280.404ZM275.465 119.105C272.175 122.736 268.262 124.526 263.695 124.526V125.909C268.68 125.909 272.956 123.933 276.49 120.033L275.465 119.105ZM263.695 124.526C259.175 124.526 255.66 122.658 253.083 118.876L251.94 119.655C254.771 123.81 258.712 125.909 263.695 125.909V124.526ZM251.82 119.266V124.308H253.203V119.266H251.82ZM251.744 103.874C251.744 108.731 252.399 112.381 253.817 114.698L254.997 113.977C253.786 111.998 253.127 108.672 253.127 103.874H251.744ZM253.817 114.698C256.072 118.386 259.187 120.298 263.126 120.298V118.915C259.736 118.915 257.038 117.314 254.997 113.977L253.817 114.698ZM263.126 120.298C266.34 120.298 269.103 118.897 271.388 116.186L270.331 115.294C268.269 117.739 265.876 118.915 263.126 118.915V120.298ZM271.39 116.183C273.709 113.406 274.811 109.352 274.811 104.14H273.428C273.428 109.188 272.357 112.868 270.329 115.297L271.39 116.183ZM274.811 104.14C274.811 98.8133 273.752 94.7401 271.503 92.0573L270.443 92.9458C272.389 95.2671 273.428 98.9527 273.428 104.14H274.811ZM271.506 92.0604C269.317 89.4175 266.614 88.057 263.429 88.057V89.44C266.158 89.44 268.485 90.5815 270.441 92.9426L271.506 92.0604ZM263.429 88.057C260.212 88.057 257.449 89.4737 255.165 92.21L256.226 93.0964C258.289 90.6264 260.682 89.44 263.429 89.44V88.057ZM255.167 92.2074C252.85 94.9559 251.744 98.8806 251.744 103.874H253.127C253.127 99.0623 254.195 95.5061 256.224 93.0989L255.167 92.2074ZM293.112 87.6112L292.661 87.0872L292.66 87.0884L293.112 87.6112ZM319.346 88.5968L318.848 89.0771L318.85 89.0788L319.346 88.5968ZM322.265 115.854L321.653 115.532L321.652 115.534L322.265 115.854ZM315.479 122.753L315.145 122.148L315.143 122.149L315.479 122.753ZM292.089 119.796L291.59 120.275L291.591 120.277L292.089 119.796ZM297.282 115.778L296.761 116.233L296.764 116.235L297.282 115.778ZM314.19 92.6532L313.669 93.1078L313.674 93.1132L314.19 92.6532ZM287.587 104.178C287.587 96.847 289.621 91.5488 293.565 88.134L292.66 87.0884C288.314 90.8512 286.204 96.5973 286.204 104.178H287.587ZM293.564 88.1352C296.889 85.271 300.945 83.8294 305.774 83.8294V82.4463C300.646 82.4463 296.261 83.9869 292.661 87.0872L293.564 88.1352ZM305.774 83.8294C311.141 83.8294 315.479 85.5862 318.848 89.0771L319.843 88.1166C316.187 84.3288 311.477 82.4463 305.774 82.4463V83.8294ZM318.85 89.0788C322.206 92.5316 323.924 97.3444 323.924 103.609H325.307C325.307 97.0856 323.511 91.8902 319.842 88.1149L318.85 89.0788ZM323.924 103.609C323.924 108.733 323.147 112.688 321.653 115.532L322.877 116.175C324.517 113.055 325.307 108.847 325.307 103.609H323.924ZM321.652 115.534C320.174 118.368 318.011 120.569 315.145 122.148L315.813 123.359C318.912 121.652 321.272 119.254 322.878 116.174L321.652 115.534ZM315.143 122.149C312.293 123.732 309.174 124.526 305.774 124.526V125.909C309.4 125.909 312.751 125.06 315.815 123.358L315.143 122.149ZM305.774 124.526C300.301 124.526 295.927 122.778 292.586 119.316L291.591 120.277C295.226 124.043 299.976 125.909 305.774 125.909V124.526ZM292.588 119.318C289.288 115.873 287.587 110.863 287.587 104.178H286.204C286.204 111.089 287.965 116.492 291.59 120.275L292.588 119.318ZM293.217 104.178C293.217 109.419 294.358 113.478 296.761 116.233L297.804 115.323C295.708 112.922 294.6 109.248 294.6 104.178H293.217ZM296.764 116.235C299.145 118.937 302.164 120.298 305.774 120.298V118.915C302.56 118.915 299.919 117.724 297.801 115.321L296.764 116.235ZM305.774 120.298C309.363 120.298 312.37 118.921 314.749 116.195L313.707 115.285C311.587 117.715 308.959 118.915 305.774 118.915V120.298ZM314.749 116.195C317.155 113.438 318.294 109.312 318.294 103.95H316.91C316.91 109.152 315.8 112.887 313.707 115.285L314.749 116.195ZM318.294 103.95C318.294 98.8779 317.136 94.9195 314.706 92.1931L313.674 93.1132C315.794 95.492 316.91 99.065 316.91 103.95H318.294ZM314.711 92.1985C312.333 89.4733 309.339 88.0949 305.774 88.0949V89.4779C308.932 89.4779 311.548 90.6774 313.669 93.1078L314.711 92.1985ZM305.774 88.0949C302.164 88.0949 299.145 89.456 296.764 92.1581L297.801 93.0724C299.919 90.6693 302.56 89.4779 305.774 89.4779V88.0949ZM296.764 92.1581C294.358 94.8882 293.217 98.9375 293.217 104.178H294.6C294.6 99.1065 295.708 95.4475 297.801 93.0724L296.764 92.1581ZM358.923 119.342L359.611 119.268L359.472 117.967L358.476 118.815L358.923 119.342ZM351.607 123.891L351.363 123.243L351.361 123.244L351.607 123.891ZM333.903 121.995L333.436 122.505L333.439 122.508L333.903 121.995ZM331.666 108.31L331.062 107.975L331.06 107.978L331.666 108.31ZM335.192 104.367L334.806 103.793L334.802 103.797L335.192 104.367ZM340.12 102.131L339.944 101.462L339.935 101.464L340.12 102.131ZM346.186 101.107L346.104 100.42L346.102 100.421L346.186 101.107ZM358.355 98.7566L358.583 99.4094L359.033 99.2521L359.046 98.7753L358.355 98.7566ZM356.459 91.0989L356.001 91.617L356.002 91.6174L356.459 91.0989ZM341.561 90.4923L341.97 91.05L341.971 91.0488L341.561 90.4923ZM338.187 96.4441L338.093 97.1293L338.704 97.2125L338.857 96.616L338.187 96.4441ZM331.515 95.5343L330.838 95.3906L330.684 96.1189L331.421 96.2195L331.515 95.5343ZM334.51 88.6348L335.05 89.0658L335.053 89.062L334.51 88.6348ZM340.537 84.5784L340.769 85.23L340.775 85.2279L340.537 84.5784ZM362.79 87.4216L362.255 87.859L362.259 87.8643L362.79 87.4216ZM364.913 92.0466L365.592 91.9138L365.589 91.9005L364.913 92.0466ZM365.671 119.493L364.989 119.605L364.991 119.617L365.671 119.493ZM367.415 124.308V124.999H368.592L368.019 123.971L367.415 124.308ZM360.288 124.308L359.67 124.617L359.861 124.999H360.288V124.308ZM358.355 104.102H359.046V103.073L358.094 103.462L358.355 104.102ZM347.209 106.68L347.112 105.995L347.111 105.995L347.209 106.68ZM338.566 110.281L339.144 110.661L339.148 110.654L338.566 110.281ZM339.665 118.053L339.206 118.569L339.211 118.574L339.665 118.053ZM352.744 118.166L353.08 118.771L353.086 118.768L352.744 118.166ZM357.255 113.428L357.879 113.727L357.88 113.725L357.255 113.428ZM358.476 118.815C355.991 120.927 353.62 122.394 351.363 123.243L351.851 124.538C354.295 123.618 356.802 122.053 359.371 119.868L358.476 118.815ZM351.361 123.244C349.12 124.097 346.702 124.526 344.101 124.526V125.909C346.857 125.909 349.443 125.454 351.853 124.537L351.361 123.244ZM344.101 124.526C339.784 124.526 336.574 123.478 334.367 121.482L333.439 122.508C335.984 124.809 339.572 125.909 344.101 125.909V124.526ZM334.37 121.485C332.144 119.449 331.031 116.87 331.031 113.693H329.648C329.648 117.239 330.911 120.195 333.436 122.505L334.37 121.485ZM331.031 113.693C331.031 111.829 331.448 110.15 332.273 108.642L331.06 107.978C330.116 109.704 329.648 111.614 329.648 113.693H331.031ZM332.271 108.645C333.133 107.089 334.237 105.858 335.583 104.938L334.802 103.797C333.266 104.848 332.019 106.245 331.062 107.975L332.271 108.645ZM335.578 104.941C336.978 104 338.552 103.284 340.305 102.797L339.935 101.464C338.049 101.988 336.338 102.764 334.806 103.793L335.578 104.941ZM340.297 102.799C341.589 102.458 343.573 102.121 346.269 101.793L346.102 100.421C343.391 100.75 341.331 101.096 339.944 101.462L340.297 102.799ZM346.268 101.794C351.788 101.135 355.906 100.345 358.583 99.4094L358.127 98.1038C355.598 98.9878 351.603 99.7645 346.104 100.42L346.268 101.794ZM359.046 98.7753C359.071 97.8432 359.084 97.2389 359.084 96.9749H357.701C357.701 97.2163 357.689 97.7998 357.664 98.7379L359.046 98.7753ZM359.084 96.9749C359.084 94.1161 358.425 91.9114 356.917 90.5804L356.002 91.6174C357.071 92.5609 357.701 94.2736 357.701 96.9749H359.084ZM356.917 90.5808C354.999 88.8845 352.215 88.0949 348.688 88.0949V89.4779C352.035 89.4779 354.432 90.23 356.001 91.617L356.917 90.5808ZM348.688 88.0949C345.421 88.0949 342.867 88.6692 341.15 89.9358L341.971 91.0488C343.338 90.0409 345.536 89.4779 348.688 89.4779V88.0949ZM341.152 89.9347C339.451 91.1819 338.268 93.3445 337.517 96.2722L338.857 96.616C339.571 93.832 340.638 92.0268 341.97 91.05L341.152 89.9347ZM338.28 95.759L331.608 94.8491L331.421 96.2195L338.093 97.1293L338.28 95.759ZM332.191 95.678C332.782 92.8959 333.745 90.7038 335.05 89.0658L333.969 88.2037C332.495 90.0534 331.461 92.461 330.838 95.3906L332.191 95.678ZM335.053 89.062C336.345 87.4177 338.234 86.1318 340.769 85.2299L340.306 83.9269C337.584 84.8953 335.454 86.3136 333.966 88.2075L335.053 89.062ZM340.775 85.2279C343.311 84.3011 346.274 83.8294 349.674 83.8294V82.4463C346.149 82.4463 343.02 82.935 340.3 83.9289L340.775 85.2279ZM349.674 83.8294C353.065 83.8294 355.766 84.2295 357.808 84.9981L358.295 83.7038C356.041 82.855 353.157 82.4463 349.674 82.4463V83.8294ZM357.808 84.9981C359.889 85.7815 361.347 86.7475 362.255 87.8589L363.326 86.9843C362.211 85.6191 360.511 84.5379 358.295 83.7038L357.808 84.9981ZM362.259 87.8643C363.185 88.9754 363.852 90.4088 364.237 92.1928L365.589 91.9005C365.166 89.9441 364.417 88.2941 363.322 86.979L362.259 87.8643ZM364.235 92.1794C364.448 93.2681 364.563 95.3035 364.563 98.3396H365.946C365.946 95.3102 365.834 93.1503 365.592 91.9138L364.235 92.1794ZM364.563 98.3396V107.438H365.946V98.3396H364.563ZM364.563 107.438C364.563 113.763 364.7 117.844 364.989 119.605L366.354 119.381C366.087 117.755 365.946 113.8 365.946 107.438H364.563ZM364.991 119.617C365.308 121.363 365.916 123.039 366.811 124.644L368.019 123.971C367.195 122.493 366.641 120.96 366.352 119.369L364.991 119.617ZM367.415 123.616H360.288V124.999H367.415V123.616ZM360.907 123.998C360.243 122.67 359.806 121.098 359.611 119.268L358.236 119.415C358.445 121.376 358.918 123.114 359.67 124.617L360.907 123.998ZM358.094 103.462C355.697 104.44 352.049 105.29 347.112 105.995L347.307 107.364C352.277 106.654 356.06 105.786 358.616 104.742L358.094 103.462ZM347.111 105.995C344.301 106.4 342.236 106.865 340.982 107.41L341.533 108.679C342.604 108.213 344.508 107.768 347.308 107.364L347.111 105.995ZM340.982 107.41C339.704 107.966 338.696 108.797 337.984 109.908L339.148 110.654C339.7 109.794 340.486 109.134 341.533 108.679L340.982 107.41ZM337.988 109.901C337.28 110.978 336.927 112.185 336.927 113.503H338.31C338.31 112.446 338.589 111.505 339.144 110.661L337.988 109.901ZM336.927 113.503C336.927 115.521 337.694 117.226 339.206 118.569L340.125 117.536C338.907 116.453 338.31 115.125 338.31 113.503H336.927ZM339.211 118.574C340.772 119.936 342.982 120.564 345.731 120.564V119.181C343.172 119.181 341.339 118.595 340.12 117.532L339.211 118.574ZM345.731 120.564C348.462 120.564 350.918 119.972 353.08 118.771L352.408 117.562C350.476 118.635 348.256 119.181 345.731 119.181V120.564ZM353.086 118.768C355.247 117.54 356.853 115.859 357.879 113.727L356.632 113.128C355.737 114.989 354.336 116.467 352.403 117.565L353.086 118.768ZM357.88 113.725C358.679 112.044 359.046 109.647 359.046 106.604H357.663C357.663 109.575 357.298 111.728 356.631 113.131L357.88 113.725ZM359.046 106.604V104.102H357.663V106.604H359.046ZM375.793 124.308H375.102V124.999H375.793V124.308ZM375.793 84.0477V83.3562H375.102V84.0477H375.793ZM381.935 84.0477H382.626V83.3562H381.935V84.0477ZM381.935 90.1511H381.243V92.8491L382.541 90.4838L381.935 90.1511ZM386.256 84.5026L385.868 83.9306L385.863 83.934L386.256 84.5026ZM397.667 85.3366L398.315 85.5773L398.513 85.0458L398.03 84.7481L397.667 85.3366ZM395.317 91.6675L394.965 92.2629L395.677 92.6837L395.965 91.9082L395.317 91.6675ZM386.294 91.5538L386.707 92.1085L386.715 92.1028L386.294 91.5538ZM383.754 95.2689L383.095 95.0597L383.094 95.0627L383.754 95.2689ZM382.617 124.308V124.999H383.309V124.308H382.617ZM376.485 124.308V84.0477H375.102V124.308H376.485ZM375.793 84.7392H381.935V83.3562H375.793V84.7392ZM381.243 84.0477V90.1511H382.626V84.0477H381.243ZM382.541 90.4838C384.099 87.6439 385.476 85.884 386.65 85.0712L385.863 83.934C384.408 84.9409 382.904 86.9467 381.328 89.8185L382.541 90.4838ZM386.645 85.0746C387.872 84.2413 389.203 83.8294 390.654 83.8294V82.4463C388.921 82.4463 387.32 82.9443 385.868 83.9306L386.645 85.0746ZM390.654 83.8294C392.8 83.8294 395.014 84.5122 397.304 85.9251L398.03 84.7481C395.569 83.2294 393.107 82.4463 390.654 82.4463V83.8294ZM397.019 85.0959L394.668 91.4268L395.965 91.9082L398.315 85.5773L397.019 85.0959ZM395.669 91.0722C393.911 90.0339 392.123 89.4975 390.313 89.4975V90.8806C391.838 90.8806 393.386 91.3299 394.965 92.2629L395.669 91.0722ZM390.313 89.4975C388.669 89.4975 387.182 90.0029 385.874 91.0048L386.715 92.1028C387.782 91.285 388.974 90.8806 390.313 90.8806V89.4975ZM385.881 90.9992C384.563 91.9811 383.639 93.3479 383.095 95.0597L384.413 95.4782C384.881 94.0056 385.65 92.8956 386.707 92.1084L385.881 90.9992ZM383.094 95.0627C382.313 97.5639 381.925 100.288 381.925 103.23H383.309C383.309 100.41 383.68 97.8264 384.414 95.4752L383.094 95.0627ZM381.925 103.23V124.308H383.309V103.23H381.925ZM382.617 123.616H375.793V124.999H382.617V123.616ZM427.843 124.308H427.152V124.999H427.843V124.308ZM427.843 119.228H428.535V116.862L427.26 118.855L427.843 119.228ZM407.713 122.564L407.332 123.141L407.335 123.143L407.713 122.564ZM401.458 115.171L400.83 115.461L400.833 115.467L401.458 115.171ZM401.269 93.2976L401.908 93.5604L401.909 93.5587L401.269 93.2976ZM422.763 84.6922L422.432 85.299L422.438 85.3023L422.763 84.6922ZM427.388 88.6727L426.828 89.0779L428.08 90.8092V88.6727H427.388ZM427.388 68.7322V68.0407H426.697V68.7322H427.388ZM434.174 68.7322H434.866V68.0407H434.174V68.7322ZM434.174 124.308V124.999H434.866V124.308H434.174ZM424.81 115.968L424.285 115.518L424.285 115.518L424.81 115.968ZM409.305 92.5015L408.772 92.061L408.77 92.0642L409.305 92.5015ZM428.535 124.308V119.228H427.152V124.308H428.535ZM427.26 118.855C424.842 122.639 421.314 124.526 416.584 124.526V125.909C421.761 125.909 425.739 123.803 428.426 119.6L427.26 118.855ZM416.584 124.526C413.51 124.526 410.684 123.681 408.092 121.985L407.335 123.143C410.15 124.985 413.239 125.909 416.584 125.909V124.526ZM408.094 121.987C405.53 120.294 403.525 117.931 402.083 114.876L400.833 115.467C402.373 118.73 404.538 121.296 407.332 123.141L408.094 121.987ZM402.086 114.882C400.669 111.803 399.951 108.253 399.951 104.216H398.568C398.568 108.418 399.316 112.171 400.83 115.461L402.086 114.882ZM399.951 104.216C399.951 100.275 400.607 96.7264 401.908 93.5604L400.629 93.0348C399.251 96.3893 398.568 100.12 398.568 104.216H399.951ZM401.909 93.5587C403.201 90.3887 405.125 87.9918 407.673 86.3332L406.919 85.1741C404.109 87.0032 402.015 89.6356 400.628 93.0366L401.909 93.5587ZM407.673 86.3332C410.236 84.6651 413.099 83.8294 416.281 83.8294V82.4463C412.841 82.4463 409.714 83.3545 406.919 85.1741L407.673 86.3332ZM416.281 83.8294C418.606 83.8294 420.65 84.3249 422.432 85.2989L423.095 84.0854C421.086 82.987 418.808 82.4463 416.281 82.4463V83.8294ZM422.438 85.3023C424.246 86.2667 425.705 87.5255 426.828 89.0779L427.949 88.2675C426.695 86.5343 425.071 85.1394 423.089 84.082L422.438 85.3023ZM428.08 88.6727V68.7322H426.697V88.6727H428.08ZM427.388 69.4237H434.174V68.0407H427.388V69.4237ZM433.483 68.7322V124.308H434.866V68.7322H433.483ZM434.174 123.616H427.843V124.999H434.174V123.616ZM405.581 104.216C405.581 109.451 406.682 113.497 409.006 116.226L410.059 115.33C408.037 112.954 406.964 109.292 406.964 104.216H405.581ZM409.006 116.226C411.291 118.91 414.04 120.298 417.228 120.298V118.915C414.503 118.915 412.121 117.751 410.059 115.33L409.006 116.226ZM417.228 120.298C420.429 120.298 423.143 118.985 425.336 116.417L424.285 115.518C422.333 117.803 419.993 118.915 417.228 118.915V120.298ZM425.336 116.417C427.586 113.787 428.648 109.867 428.648 104.784H427.265C427.265 109.71 426.23 113.245 424.285 115.518L425.336 116.417ZM428.648 104.784C428.648 99.2107 427.579 94.9734 425.306 92.2136L424.239 93.0928C426.212 95.4887 427.265 99.3388 427.265 104.784H428.648ZM425.306 92.2136C423.063 89.4897 420.257 88.0949 416.925 88.0949V89.4779C419.81 89.4779 422.236 90.6609 424.239 93.0928L425.306 92.2136ZM416.925 88.0949C413.673 88.0949 410.942 89.4361 408.772 92.061L409.838 92.9421C411.763 90.6134 414.112 89.4779 416.925 89.4779V88.0949ZM408.77 92.0642C406.599 94.7234 405.581 98.8215 405.581 104.216H406.964C406.964 98.9445 407.968 95.2332 409.841 92.9388L408.77 92.0642Z" fill="#303030"/>
<path d="M63.2764 123.821L82.0648 123.691L81.6152 67.3846L62.9356 81.1339L63.2764 123.821Z" fill="url(#paint1_linear_1_26)"/>
<path d="M113.722 76.6154H94.9333V123.692H113.722V76.6154Z" fill="url(#paint2_linear_1_26)"/>
<path d="M173.174 12.4985L102.508 71.8154L58.3445 34.4585L73.603 21.9877L103.22 46.1908L157.916 0L173.174 12.4985Z" fill="url(#paint3_linear_1_26)"/>
<path d="M78.1222 54.4615L44.1638 85.6615L0 48.3046L13.8444 36.9231L44.1638 61.8461L64.2778 43.3846L78.1222 54.4615Z" fill="url(#paint4_linear_1_26)"/>
<path d="M84.0556 26.7692L96.9111 36.9231L111.744 23.0769L97.9 14.7692L84.0556 26.7692Z" fill="url(#paint5_linear_1_26)"/>
<defs>
<linearGradient id="paint0_linear_1_26" x1="0" y1="92.3119" x2="18.7889" y2="92.3119" gradientUnits="userSpaceOnUse">
<stop offset="0.01" stop-color="#11BEEF"/>
<stop offset="0.984375" stop-color="#0781E6"/>
</linearGradient>
<linearGradient id="paint1_linear_1_26" x1="81.84" y1="95.5413" x2="63.0518" y2="95.6913" gradientUnits="userSpaceOnUse">
<stop offset="0.01" stop-color="#11BEEF"/>
<stop offset="1" stop-color="#11BEEF"/>
</linearGradient>
<linearGradient id="paint2_linear_1_26" x1="1570.24" y1="5769.63" x2="1980.4" y2="5769.63" gradientUnits="userSpaceOnUse">
<stop offset="0.01" stop-color="#11BEEF"/>
<stop offset="1" stop-color="#067AE5"/>
</linearGradient>
<linearGradient id="paint3_linear_1_26" x1="5139.47" y1="3422.72" x2="18936.8" y2="3422.72" gradientUnits="userSpaceOnUse">
<stop offset="0.01" stop-color="#11BEEF"/>
<stop offset="1" stop-color="#067AE5"/>
</linearGradient>
<linearGradient id="paint4_linear_1_26" x1="5081.13" y1="3436.57" x2="18878.4" y2="3436.57" gradientUnits="userSpaceOnUse">
<stop offset="0.01" stop-color="#11BEEF"/>
</linearGradient>
<linearGradient id="paint5_linear_1_26" x1="3844.11" y1="935.204" x2="6379.02" y2="935.204" gradientUnits="userSpaceOnUse">
<stop offset="0.01" stop-color="#11BEEF"/>
<stop offset="1" stop-color="#067AE5"/>
</linearGradient>
</defs>
</svg>
