<svg id="Layer_1" data-name="Layer 1" xmlns="http://www.w3.org/2000/svg" xmlns:xlink="http://www.w3.org/1999/xlink" viewBox="0 0 439.63 400.37"><defs><style>.cls-1{fill:url(#linear-gradient);}.cls-2{fill:url(#linear-gradient-2);}.cls-3{fill:url(#linear-gradient-3);}.cls-4{fill:url(#linear-gradient-4);}.cls-5{fill:url(#linear-gradient-5);}</style><linearGradient id="linear-gradient" y1="294.59" x2="59.35" y2="294.59" gradientUnits="userSpaceOnUse"><stop offset="0.01" stop-color="#11beef"/><stop offset="1" stop-color="#067ae5"/></linearGradient><linearGradient id="linear-gradient-2" x1="213.59" y1="328.96" x2="272.99" y2="328.96" xlink:href="#linear-gradient"/><linearGradient id="linear-gradient-3" x1="0.94" y1="176.69" x2="166.35" y2="176.69" xlink:href="#linear-gradient"/><linearGradient id="linear-gradient-4" x1="118.33" y1="129.64" x2="439.63" y2="129.64" xlink:href="#linear-gradient"/><linearGradient id="linear-gradient-5" x1="206.39" y1="60.21" x2="344.1" y2="60.21" xlink:href="#linear-gradient"/></defs><title>my_taxboard_edged_monogram</title><polygon class="cls-1" points="59.35 400.38 0 400.38 0 188.81 59.35 239.98 59.35 400.38"/><rect class="cls-2" x="213.59" y="257.54" width="59.4" height="142.83"/><polygon class="cls-3" points="166.35 212.32 124.35 249.09 0.94 141.06 42.94 104.29 166.35 212.32"/><polygon class="cls-4" points="439.63 60.67 239.83 235.46 118.33 125.37 160.3 88.63 241.78 159.96 397.66 23.83 439.63 60.67"/><polygon class="cls-5" points="206.39 83.61 248.33 120.43 344.11 36.82 302.16 0 206.39 83.61"/></svg>