<svg width="40" height="40" viewBox="0 0 40 40" fill="none" xmlns="http://www.w3.org/2000/svg">
<g clip-path="url(#clip0)">
<path d="M39.3638 7.2344C38.4751 7.6285 37.5525 7.93941 36.6058 8.16449C37.649 7.17326 38.4332 5.93343 38.8757 4.54957C39.002 4.15449 38.5729 3.81287 38.2162 4.0244C36.8992 4.80557 35.4806 5.39159 33.9997 5.76637C33.9138 5.78812 33.8251 5.79914 33.7362 5.79914C33.4664 5.79914 33.2042 5.69898 32.9979 5.5172C31.4223 4.12855 29.3959 3.36377 27.292 3.36377C26.3816 3.36377 25.4624 3.50567 24.5599 3.78556C21.7637 4.65284 19.6062 6.95939 18.9293 9.80514C18.6753 10.8725 18.6066 11.9409 18.7248 12.9805C18.7383 13.1 18.6819 13.1834 18.6471 13.2225C18.5859 13.291 18.4992 13.3303 18.4092 13.3303C18.3992 13.3303 18.3888 13.3299 18.3786 13.3289C12.2578 12.7602 6.7383 9.81138 2.83684 5.02568C2.6379 4.78157 2.25638 4.81151 2.09781 5.08351C1.3338 6.39423 0.930053 7.89337 0.930053 9.41885C0.930053 11.7567 1.86931 13.9599 3.50079 15.566C2.81471 15.4033 2.15067 15.1471 1.53383 14.8045C1.2354 14.6387 0.868223 14.8518 0.864029 15.1931C0.821314 18.6662 2.85469 21.7565 5.90076 23.1481C5.83942 23.1496 5.77807 23.1502 5.71663 23.1502C5.23379 23.1502 4.7449 23.1036 4.26372 23.0117C3.92765 22.9475 3.64532 23.2663 3.74967 23.5921C4.73837 26.6789 7.3961 28.9541 10.5766 29.4707C7.93696 31.2426 4.8631 32.1773 1.66382 32.1773L0.666446 32.1767C0.359147 32.1767 0.0992454 32.377 0.0209335 32.6746C-0.056208 32.9678 0.0858846 33.277 0.347932 33.4295C3.95301 35.5275 8.06511 36.6364 12.2415 36.6364C15.8972 36.6364 19.3168 35.9109 22.4053 34.4802C25.2368 33.1686 27.7388 31.2937 29.8421 28.9076C31.8013 26.6848 33.3334 24.1188 34.3956 21.2811C35.4082 18.5761 35.9435 15.6897 35.9435 12.9341V12.8028C35.9434 12.3604 36.1435 11.944 36.4926 11.6606C37.8175 10.5849 38.9712 9.31869 39.9216 7.89708C40.1725 7.52171 39.7767 7.05125 39.3638 7.2344Z" fill="#76A9EA"/>
</g>
<defs>
<clipPath id="clip0">
<rect width="40" height="40" fill="white"/>
</clipPath>
</defs>
</svg>
