<svg width="618" height="453" viewBox="0 0 618 453" fill="none" xmlns="http://www.w3.org/2000/svg">
<path d="M268.083 97.0344C247.247 21.449 153.353 -2.90029 99.5417 53.5904C98.7688 54.401 97.9975 55.2264 97.226 56.0637C20.0808 139.924 56.5251 346.58 217.525 398.958C378.523 451.336 545.986 355.689 555.394 270.186C564.801 184.684 490.523 157.817 375.254 181.726C310.129 195.234 281.054 144.089 268.083 97.0344" fill="#ABDDE7"/>
<path d="M402.013 109.964C380.473 113.47 374.503 132.556 391.134 146.094C396.631 150.569 404.483 154.288 415.667 156.142C458.274 163.21 480.882 144.361 463.803 119.921C453.263 104.836 423.361 106.488 402.013 109.964" fill="#ABDDE7"/>
<path d="M58.5475 262.689C45.1563 245.456 25.5423 249.352 21.6188 270.436C20.3213 277.405 20.8161 286.077 24.5417 296.785C38.7339 337.574 66.1073 348.398 79.3885 321.704C87.586 305.228 71.8199 279.766 58.5475 262.689" fill="#ABDDE7"/>
<path d="M570.578 280.124C568.594 290.512 577.171 297.869 586.891 293.868C590.103 292.544 593.343 289.993 596.227 285.509C607.209 268.425 601.647 253.771 586.355 255.275C576.919 256.203 572.545 269.829 570.578 280.124" fill="#ABDDE7"/>
<path d="M516.121 170.501C526.474 172.661 533.977 164.21 530.141 154.424C528.873 151.189 526.377 147.905 521.942 144.946C505.049 133.676 490.301 138.986 491.545 154.301C492.313 163.753 505.861 168.36 516.121 170.501" fill="#ABDDE7"/>
<path d="M264.486 59.3357C272.683 66.0184 283.234 61.9691 284.331 51.5144C284.694 48.0597 283.99 43.9957 281.414 39.3277C271.603 21.5464 256.066 19.4757 250.122 33.6437C246.454 42.3891 256.363 52.7131 264.486 59.3357Z" fill="#ABDDE7"/>
<path d="M596.246 332.09C612.684 315.565 625.203 296.89 612.75 293.98C600.284 291.064 579.35 323.609 575.702 353.232L572.051 363.012C575.087 341.47 567.706 315.232 556.898 314.149C546.16 313.076 552.66 330.096 561.188 344.651C567.68 355.732 569.392 364.473 569.82 368.989L552.576 415.181C557.286 381.054 545.592 339.65 528.494 337.94C511.454 336.236 521.767 363.243 535.3 386.337C545.528 403.791 548.28 417.594 548.983 424.808L545.546 434.017C547.05 434.865 548.558 435.701 550.07 436.531L570.584 381.576C574.542 378.621 580.551 375.05 589.107 372.156C605.088 366.75 621.151 358.152 612.335 351.926C604.683 346.525 586.698 356.924 574.308 371.598L581.402 352.594C584.602 347.09 589.151 339.222 596.246 332.09" fill="#373D9C"/>
<path d="M78.0632 116.494C80.1949 96.5343 78.5356 77.245 68.6022 82.0023C58.66 86.765 62.1444 119.906 75.6632 141.766L78.4829 150.302C68.9094 134.2 49.808 120.557 41.9678 125.656C34.1772 130.724 47.7168 138.65 61.2913 143.828C71.6241 147.769 77.4845 152.717 80.2074 155.52L93.5266 195.836C78.2938 170.378 48.1209 148.876 35.7157 156.945C23.3537 164.985 44.8381 177.562 66.3761 185.777C82.6528 191.985 91.9424 199.773 96.3022 204.237L98.9585 212.276C100.425 212.034 101.889 211.784 103.352 211.524L87.5048 163.561C88.57 159.442 90.6813 153.805 94.8668 147.249C102.684 135.005 108.837 120.572 99.5605 121.144C91.5105 121.64 85.0366 138.318 84.6277 154.853L79.148 138.265C78.3282 132.844 77.1433 125.109 78.0632 116.494" fill="#373D9C"/>
<path d="M485.281 386.988C485.489 388.12 485.73 389.353 486.013 390.665V390.669C488.973 404.43 496.239 426.96 512.59 431.389C512.59 431.389 503.69 384.984 535.41 372.898C567.13 360.813 563.622 349.305 561.81 328.82C559.997 308.336 552.987 304.429 574.997 285.242C597.005 266.054 592.795 237.476 592.795 237.476C592.795 237.476 571.967 270.106 549.721 270.864C527.473 271.621 523.577 290.613 524.525 304.737C525.473 318.86 506.579 320.457 496.355 328.648C486.133 336.841 484.207 379.86 484.207 379.86C484.207 379.86 484.489 382.67 485.281 386.988" fill="#3D89D1"/>
<path d="M485.281 386.988C485.489 388.12 485.73 389.353 486.013 390.665C488.293 383.76 491.503 377.961 494.505 373.509C501.621 362.968 511.64 354.308 520.654 350.909C535.003 345.501 542.01 331.426 543.368 305.272C544.155 290.09 560.038 281.121 560.202 281.034C560.666 280.777 560.835 280.19 560.576 279.726C560.319 279.26 559.733 279.09 559.27 279.348C558.575 279.73 542.286 288.909 541.443 305.17C540.131 330.456 533.51 344.008 519.975 349.109C510.466 352.693 500.346 361.412 492.907 372.43C490.279 376.325 487.497 381.229 485.281 386.988" fill="#385DB4"/>
<path d="M134.178 431.137H156.467C144.423 429.146 114.563 416.326 111.901 390.621C108.528 358.062 96.9344 358.47 77.3989 355.065C57.8636 351.66 52.4817 357.218 40.0781 331.942C27.6745 306.665 0 303.48 0 303.48C0 303.48 25.2229 331.001 20.3959 351.917C15.5683 372.832 32.2948 381.185 45.6885 383.813C59.0833 386.441 55.8724 404.442 60.9625 416.004C63.2855 421.28 72.7923 426.749 82.4437 431.137H134.178Z" fill="#385DB4"/>
<path d="M85.8985 399.088C86.872 408.837 92.4788 420.433 100.896 430.104C101.192 430.444 101.5 430.789 101.815 431.137H104.351C103.625 430.372 102.938 429.618 102.298 428.884C94.2454 419.633 88.6694 408.145 87.7444 398.902C86.2752 384.189 74.9042 374.16 50.873 366.39C36.9246 361.882 32.5189 344.854 32.4788 344.68C32.3542 344.184 31.8496 343.88 31.3537 344.005C30.8542 344.129 30.5501 344.633 30.6746 345.129C30.859 345.869 35.3594 363.328 50.3001 368.158C73.5318 375.668 84.511 385.206 85.8985 399.088" fill="#373D9C"/>
<path d="M146.199 370.712C145.727 372.293 145.192 374.016 144.588 375.845L144.587 375.849C138.25 395.028 125.25 427.329 101.242 431.137C101.242 431.137 120.243 365.022 76.8494 342.905C33.4562 320.786 40.2297 304.909 45.9655 275.966C51.7005 247.024 62.2999 242.529 33.8521 211.772C5.40407 181.016 15.8026 140.892 15.8026 140.892C15.8026 140.892 40.5005 190.645 72.1218 195.145C103.742 199.645 106.381 227.338 102.857 247.341C99.3333 267.342 126.042 272.525 139.367 285.784C152.691 299.041 148.826 360.706 148.826 360.706C148.826 360.706 147.991 364.674 146.199 370.712Z" fill="#3D89D1"/>
<path d="M146.199 370.712C145.727 372.293 145.193 374.016 144.589 375.845C142.395 365.644 138.71 356.876 135.11 350.065C126.581 333.932 113.617 320.037 101.282 313.804C81.6428 303.884 73.81 282.729 75.8933 245.206C77.1048 223.428 55.8252 208.193 55.6053 208.044C54.9829 207.605 54.8313 206.742 55.2704 206.12C55.7094 205.493 56.573 205.341 57.1949 205.781C58.1246 206.433 79.9512 222.03 78.6548 245.36C76.6386 281.632 84.0017 301.981 102.527 311.341C115.542 317.914 128.637 331.908 137.555 348.772C140.706 354.732 143.923 362.154 146.199 370.712" fill="#385DB4"/>
<path d="M163.411 415.59C163.484 420.615 163.575 425.846 163.684 431.137H212.164C212.256 425.346 212.328 419.796 212.38 414.59C212.527 400.48 212.543 388.866 212.532 381.648C212.527 376.529 212.506 373.626 212.506 373.626L163.07 373.101C163.07 373.101 163.07 377.372 163.108 384.358C163.14 392.121 163.227 403.237 163.411 415.59Z" fill="#2F335D"/>
<path d="M163.108 384.358C163.14 392.121 163.227 403.237 163.411 415.59C178.64 416.753 195.335 416.762 212.38 414.59C212.527 400.48 212.543 388.866 212.532 381.648L163.108 384.358Z" fill="#1C1A2C"/>
<path d="M102.315 404.442C102.369 412.344 102.463 421.397 102.619 431.137H151.103C151.223 425.433 151.319 419.8 151.398 414.417C151.566 402.864 151.651 392.462 151.695 384.984C151.733 377.626 151.733 373.101 151.733 373.101L102.276 373.626C102.276 373.626 102.238 378.869 102.249 387.693C102.249 392.36 102.271 398.02 102.315 404.442" fill="#2F335D"/>
<path d="M102.25 387.693C102.25 392.36 102.271 398.02 102.315 404.442C112.159 407.345 129.785 411.86 151.398 414.417C151.566 402.864 151.651 392.462 151.695 384.984L102.25 387.693" fill="#1C1A2C"/>
<path d="M183.522 113.004C183.522 113.004 191.313 105.501 191.286 98.0903C191.259 90.681 186.223 92.8703 183.522 85.9663C180.819 79.0623 172.789 74.8517 168.385 75.6943C163.979 76.5357 154.682 59.3597 142.07 62.3917C129.458 65.4223 130.557 81.589 125.123 83.9463C119.691 86.3036 121.206 95.9023 124.07 98.0903C126.933 100.281 128.143 109.078 129.755 108.88C131.366 108.681 183.522 113.004 183.522 113.004Z" fill="#2F335D"/>
<path d="M131.089 112.827C131.089 112.827 126.191 106.296 122.549 111.696C118.907 117.096 124.057 133.045 132.973 129.152L131.089 112.827Z" fill="#F25349"/>
<path d="M131.026 124.224C130.697 124.224 130.394 124.006 130.301 123.673C128.919 118.749 123.817 116.753 123.766 116.733C123.378 116.585 123.182 116.149 123.33 115.761C123.477 115.373 123.911 115.177 124.299 115.324C124.538 115.413 130.161 117.596 131.753 123.266C131.865 123.666 131.63 124.082 131.23 124.196C131.162 124.214 131.093 124.224 131.026 124.224" fill="#E43342"/>
<path d="M125.876 121.742C125.736 121.742 125.595 121.704 125.468 121.622C125.119 121.397 125.018 120.93 125.243 120.581C125.282 120.524 126.183 119.146 128.071 118.301C128.45 118.13 128.896 118.301 129.067 118.681C129.236 119.061 129.067 119.506 128.687 119.677C127.227 120.33 126.516 121.388 126.51 121.397C126.367 121.621 126.123 121.742 125.876 121.742" fill="#E43342"/>
<path d="M181.566 112.827C181.566 112.827 186.463 106.296 190.106 111.696C193.747 117.096 188.598 133.045 179.682 129.152L181.566 112.827Z" fill="#F25349"/>
<path d="M181.629 124.224C181.958 124.224 182.261 124.006 182.354 123.673C183.735 118.749 188.838 116.753 188.889 116.733C189.277 116.585 189.473 116.149 189.325 115.761C189.178 115.373 188.743 115.177 188.355 115.324C188.117 115.413 182.494 117.596 180.902 123.266C180.79 123.666 181.025 124.082 181.425 124.196C181.493 124.214 181.562 124.224 181.629 124.224" fill="#E43342"/>
<path d="M186.778 121.742C186.918 121.742 187.059 121.704 187.186 121.622C187.535 121.397 187.636 120.93 187.411 120.581C187.372 120.524 186.471 119.146 184.583 118.301C184.204 118.13 183.756 118.301 183.587 118.681C183.418 119.061 183.587 119.506 183.967 119.677C185.427 120.33 186.138 121.388 186.144 121.397C186.287 121.621 186.531 121.742 186.778 121.742" fill="#E43342"/>
<path d="M168.385 142.681V158.542C168.385 158.542 163.654 166.62 157.257 167.17C150.866 167.728 145.187 160.216 145.187 160.216V143.796L168.385 142.681Z" fill="#F6876F"/>
<path d="M168.385 142.681V149.718C164.091 154.482 156.469 155.672 145.187 154.006V143.796L168.385 142.681Z" fill="#F25349"/>
<path d="M185.107 101.945C184.813 108.109 184.226 115.817 183.05 121.981C182.757 123.518 182.425 124.965 182.055 126.261C178.717 137.949 170.367 157.993 146.994 149.644C136.67 145.958 131.885 134.46 129.753 122.765C128.306 114.822 128.087 106.797 128.193 101.064C128.306 95.2078 131.501 89.8585 136.595 86.9731C150.393 79.1505 164.95 82.0665 174.535 85.7518C181.189 88.3065 185.446 94.8398 185.107 101.945" fill="#F6876F"/>
<path d="M155.842 131.352C171.503 128.664 168.704 137.833 168.603 138.161V138.166C168.598 138.172 168.598 138.172 168.598 138.172C167.538 139.182 166.456 140.032 165.38 140.612C159.312 143.89 158.656 143.396 156.262 143.501C153.827 143.618 150.467 142.896 147.058 140.99C145.996 140.394 144.41 139.242 142.672 137.656C142.672 137.656 140.211 129.245 155.842 131.352V131.352ZM129.755 122.762C129.755 122.762 132.023 136.277 134.164 141.202C136.311 146.129 142.163 147.057 144.362 151.221C147.495 157.157 152.274 161.861 160.134 158.994C166.674 156.609 166.378 153.265 170.042 150.678C176.318 146.246 179.43 141.369 179.683 137.328C179.935 133.286 183.052 121.98 183.052 121.98L179.683 121.742C179.683 121.742 177.763 125.718 174.939 130.098C172.104 123.874 158.45 128.401 158.45 128.401L155.842 129.245L153.164 128.401C153.164 128.401 139.348 124.066 136.619 130.593C134.948 128.037 133.588 125.162 132.972 122.117L129.755 122.762Z" fill="#2F335D"/>
<path d="M146.429 114.896C146.429 116.59 145.557 117.962 144.481 117.962C143.403 117.962 142.531 116.59 142.531 114.896C142.531 113.202 143.403 111.83 144.481 111.83C145.557 111.83 146.429 113.202 146.429 114.896Z" fill="#2F335D"/>
<path d="M169.601 114.896C169.601 116.59 168.729 117.962 167.651 117.962C166.575 117.962 165.702 116.59 165.702 114.896C165.702 113.202 166.575 111.83 167.651 111.83C168.729 111.83 169.601 113.202 169.601 114.896Z" fill="#2F335D"/>
<path d="M175.323 104.801C175.323 104.801 167.27 101.618 161.069 104.297L161.689 107.745C161.689 107.745 170.79 106.976 175.377 108.834C175.786 107.506 175.847 106.165 175.323 104.801Z" fill="#2F335D"/>
<path d="M137.029 104.816C137.029 104.816 145.142 101.61 151.39 104.309L150.765 107.784C150.765 107.784 141.595 107.008 136.975 108.88C136.562 107.542 136.502 106.19 137.029 104.816" fill="#2F335D"/>
<path d="M156.59 127.745C157.861 127.745 159.121 127.25 159.317 127.17C159.701 127.013 159.886 126.573 159.729 126.188C159.573 125.802 159.131 125.618 158.747 125.776C158.066 126.05 156.433 126.484 155.725 126.061C155.589 125.978 155.401 125.816 155.354 125.358C155.082 122.728 155.802 113.908 155.81 113.818C155.843 113.404 155.535 113.04 155.121 113.006C154.703 112.97 154.342 113.281 154.307 113.696C154.278 114.062 153.569 122.745 153.855 125.514C153.963 126.557 154.51 127.09 154.951 127.354C155.433 127.642 156.013 127.745 156.59 127.745" fill="#F25349"/>
<path d="M146.982 132.86C147.555 135.737 149.455 141.033 155.862 141.033C162.283 141.033 164.083 136.195 164.702 132.86H146.982" fill="white"/>
<path d="M185.107 101.945C184.813 108.109 184.226 115.817 183.05 121.981L179.682 121.742C179.682 121.742 180.498 116.538 180.874 113.148C181.251 109.757 181.891 103.418 178.998 102.628C176.111 101.844 177.806 94.6131 173.789 91.4785C169.773 88.3371 160.851 85.5705 154.929 89.2185C149.006 92.8571 142.269 90.8451 139.541 91.4785C136.806 92.1038 133.098 95.8718 134.101 99.3905C135.11 102.901 132.097 105.042 131.366 108.681C130.634 112.321 132.97 122.117 132.97 122.117L129.753 122.765C128.306 114.822 128.087 106.797 128.193 101.064C128.306 95.2078 131.501 89.8585 136.595 86.9731C150.393 79.1505 164.95 82.0665 174.535 85.7518C181.189 88.3065 185.446 94.8398 185.107 101.945" fill="#2F335D"/>
<path d="M222.75 397.461C207.503 401.321 192.257 403.818 177.001 404.969C176.309 405.018 175.622 405.069 174.93 405.116C172.833 405.257 170.735 405.374 168.639 405.466C158.262 405.913 147.881 405.738 137.501 404.937C135.407 404.777 133.317 404.592 131.223 404.376C130.554 404.313 129.886 404.242 129.214 404.165C116.819 402.82 104.43 400.584 92.0261 397.461C91.9017 386.034 92.0428 349.913 92.7449 310.74C92.8257 306.032 92.9168 301.28 93.0209 296.521C94.12 244.893 96.2402 192.486 100.054 187.237C103.711 182.213 114.73 175.828 125.265 170.068C125.894 169.725 126.522 169.382 127.146 169.042C129.515 167.757 131.831 166.509 134.009 165.326C138.677 162.785 142.702 160.528 145.19 158.784V160.218C145.19 160.218 150.862 167.726 157.254 167.172C163.081 166.67 167.517 159.94 168.27 158.733C171.018 160.669 175.955 163.337 181.678 166.361C183.271 167.205 184.918 168.069 186.598 168.958C187.217 169.285 187.838 169.614 188.463 169.948C200.114 176.126 212.675 183.093 216.446 188.272C216.729 188.654 216.997 189.297 217.253 190.177C219.483 197.732 220.867 222.802 221.711 253.16C221.715 253.268 221.718 253.378 221.722 253.489C221.758 254.716 221.789 255.953 221.819 257.197C221.826 257.358 221.83 257.522 221.833 257.688C222.109 268.336 222.317 279.546 222.478 290.812C222.491 291.705 222.507 292.598 222.518 293.493C222.522 293.944 222.529 294.386 222.531 294.837C222.569 297.056 222.591 299.273 222.613 301.481C222.635 303.11 222.655 304.737 222.67 306.368C223.09 347.084 222.918 385.49 222.75 397.461" fill="#385DB4"/>
<path d="M221.819 257.197C218.15 251.204 214.211 245.089 210.501 239.678C210.491 239.664 210.481 239.65 210.474 239.638C208.915 237.366 207.399 235.221 205.958 233.262C205.934 233.225 205.91 233.193 205.883 233.161C205.433 232.546 204.986 231.949 204.55 231.368C204.479 231.266 204.425 231.162 204.391 231.052L204.389 231.048C204.271 230.654 204.402 230.218 204.747 229.956C205.195 229.617 205.83 229.704 206.166 230.15C210.622 236.054 216.322 244.544 221.711 253.16C221.715 253.268 221.718 253.378 221.722 253.489C221.758 254.716 221.789 255.953 221.819 257.197" fill="#3948A5"/>
<path d="M216.602 187.438C216.602 187.438 239.595 229.565 253.611 250.914C253.611 250.914 261.582 243.59 271.948 233.796C283.188 223.174 298.56 205.424 298.56 205.424L307.067 215.512C307.067 215.512 272.528 277.665 257.036 285.477C241.544 293.288 212.998 238 212.998 238L216.602 187.438" fill="#385DB4"/>
<path d="M119.247 353.465C119.234 353.465 119.222 353.465 119.21 353.465C118.635 353.444 118.187 352.962 118.207 352.388C119.414 318.368 101.772 307.346 101.594 307.24C101.103 306.942 100.943 306.305 101.238 305.813C101.532 305.321 102.169 305.16 102.662 305.453C102.857 305.57 107.521 308.404 112.038 315.662C116.161 322.289 120.938 334.053 120.285 352.462C120.266 353.024 119.805 353.465 119.247 353.465" fill="#3948A5"/>
<path d="M194.506 321.415C193.967 321.415 193.511 321.001 193.47 320.456C192.911 313.292 195.271 308.067 198.258 301.451C199.132 299.515 200.035 297.515 200.96 295.269C206.759 281.207 203.846 265.128 203.815 264.968C203.71 264.403 204.082 263.86 204.646 263.755C205.211 263.647 205.754 264.02 205.86 264.585C205.987 265.265 208.915 281.435 202.884 296.063C201.946 298.339 201.035 300.356 200.154 302.307C197.176 308.899 195.026 313.661 195.543 320.295C195.588 320.868 195.159 321.368 194.587 321.412C194.559 321.415 194.532 321.415 194.506 321.415" fill="#3948A5"/>
<path d="M134.007 165.325C134.453 168.674 135.105 173.02 135.817 177.956C136.034 179.421 136.251 180.941 136.474 182.502C137.197 187.6 137.943 193.146 138.581 198.754C138.753 200.26 138.914 201.77 139.065 203.276C139.626 208.828 140.05 214.344 140.202 219.473C140.253 221.024 140.273 222.538 140.262 224.009C140.253 227.924 140.035 231.521 139.561 234.597C139.257 236.542 138.989 238.442 138.753 240.302C138.555 241.842 138.378 243.358 138.222 244.848C137.615 250.633 137.311 256.018 137.227 261.094C137.201 262.637 137.197 264.146 137.211 265.626C137.257 271.39 137.585 276.761 138.061 281.873C138.201 283.405 138.358 284.91 138.519 286.396C139.141 291.982 139.898 297.302 140.611 302.561C140.818 304.068 141.021 305.568 141.218 307.068C141.526 309.473 141.818 311.877 142.071 314.297C142.339 316.864 142.51 319.865 142.591 323.194C142.631 324.648 142.651 326.169 142.657 327.741C142.677 332.716 142.551 338.228 142.318 343.992C142.258 345.498 142.193 347.024 142.117 348.565C141.859 353.92 141.521 359.425 141.142 364.862C141.031 366.393 140.919 367.914 140.803 369.428C140.383 375.088 139.919 380.598 139.45 385.726C139.307 387.282 139.166 388.804 139.025 390.278C138.483 395.922 137.958 400.937 137.499 404.938C147.881 405.737 158.262 405.914 168.639 405.465C168.882 401.205 169.543 394.334 170.195 386.248C170.317 384.766 170.433 383.241 170.549 381.685C170.938 376.541 171.291 371.045 171.523 365.498C171.59 363.978 171.645 362.452 171.686 360.93C171.842 355.394 171.847 349.893 171.61 344.736C171.539 343.169 171.449 341.638 171.327 340.148C171.206 338.622 171.059 337.137 170.882 335.701C170.382 331.65 170.19 327.76 170.215 323.912C170.221 322.385 170.261 320.869 170.331 319.349C170.569 314.076 171.145 308.79 171.811 303.178C171.989 301.688 172.175 300.172 172.363 298.626C172.963 293.636 173.59 288.34 174.086 282.545C174.217 281.06 174.333 279.54 174.445 277.984C174.787 273.013 175.019 267.673 175.055 261.853C175.065 260.353 175.061 258.821 175.039 257.257C174.985 252.218 174.773 246.829 174.363 241.024C174.327 240.509 174.293 239.988 174.253 239.464C174.175 238.448 174.111 237.422 174.065 236.396C173.797 231.101 173.867 225.656 174.166 220.225C174.247 218.7 174.347 217.173 174.465 215.648C174.883 210.212 175.495 204.826 176.202 199.664C176.409 198.128 176.626 196.608 176.849 195.112C177.698 189.453 178.613 184.129 179.451 179.37C179.729 177.804 179.997 176.298 180.249 174.864C180.819 171.65 181.314 168.786 181.678 166.361C175.954 163.336 171.018 160.668 168.27 158.733C167.518 159.941 163.082 166.67 157.253 167.17C150.862 167.725 145.189 160.218 145.189 160.218V158.784C142.702 160.526 138.675 162.785 134.007 165.325" fill="white"/>
<path d="M135.816 177.956C136.034 179.421 136.251 180.941 136.474 182.502C142.207 182.633 148.942 181.774 157.055 179.9C165.744 177.9 173.408 178.249 179.451 179.37C179.728 177.804 179.996 176.298 180.248 174.864C173.7 173.656 165.442 173.308 156.034 175.476C148.027 177.318 141.359 178.168 135.816 177.956Z" fill="#DCD9D7"/>
<path d="M138.581 198.754C138.753 200.26 138.914 201.77 139.065 203.276C144.213 203.14 150.134 202.281 157.055 200.678C164.245 199.022 170.741 198.981 176.202 199.664C176.409 198.128 176.626 196.608 176.849 195.112C170.927 194.38 163.881 194.44 156.034 196.249C149.315 197.8 143.535 198.648 138.581 198.754Z" fill="#DCD9D7"/>
<path d="M140.202 219.473C140.253 221.024 140.273 222.538 140.262 224.009C145.127 223.781 150.665 222.933 157.055 221.458C163.37 220.002 169.149 219.796 174.166 220.225C174.247 218.7 174.347 217.173 174.465 215.648C169.069 215.204 162.85 215.456 156.034 217.028C150.038 218.412 144.789 219.234 140.202 219.473Z" fill="#DCD9D7"/>
<path d="M138.222 244.848C143.566 244.788 149.75 243.92 157.055 242.237C163.451 240.761 169.301 240.569 174.363 241.024C174.327 240.509 174.293 239.988 174.253 239.464C174.175 238.448 174.111 237.422 174.065 236.396C168.761 235.997 162.683 236.27 156.034 237.806C149.391 239.341 143.673 240.181 138.753 240.302C138.555 241.842 138.378 243.358 138.222 244.848" fill="#DCD9D7"/>
<path d="M137.211 265.626C142.783 265.672 149.285 264.809 157.055 263.016C163.759 261.469 169.846 261.322 175.055 261.853C175.065 260.353 175.061 258.821 175.039 257.257C169.513 256.746 163.097 256.958 156.034 258.585C148.694 260.277 142.479 261.13 137.227 261.094C137.201 262.637 137.197 264.146 137.211 265.626" fill="#DCD9D7"/>
<path d="M138.061 281.873C138.201 283.405 138.358 284.91 138.519 286.396C143.794 286.31 149.886 285.445 157.055 283.794C163.345 282.344 169.099 282.121 174.086 282.545C174.217 281.06 174.333 279.54 174.445 277.984C169.049 277.538 162.839 277.792 156.034 279.364C149.083 280.965 143.133 281.818 138.061 281.873" fill="#DCD9D7"/>
<path d="M140.611 302.561C140.818 304.068 141.021 305.568 141.218 307.068C145.85 306.78 151.074 305.952 157.055 304.573C162.41 303.335 167.377 302.996 171.811 303.179C171.989 301.688 172.175 300.172 172.363 298.627C167.473 298.404 161.981 298.768 156.034 300.143C150.21 301.48 145.097 302.3 140.611 302.561" fill="#DCD9D7"/>
<path d="M142.591 323.195C142.631 324.648 142.651 326.169 142.657 327.741C146.926 327.381 151.69 326.589 157.055 325.347C161.779 324.259 166.199 323.867 170.215 323.912C170.221 322.385 170.261 320.869 170.331 319.349C165.971 319.304 161.173 319.733 156.034 320.921C151.054 322.068 146.587 322.829 142.591 323.195" fill="#DCD9D7"/>
<path d="M142.116 348.565C146.522 348.227 151.458 347.413 157.055 346.125C162.324 344.912 167.219 344.564 171.61 344.736C171.539 343.169 171.448 341.639 171.327 340.148C166.704 340.017 161.566 340.421 156.034 341.695C150.936 342.871 146.386 343.645 142.318 343.992C142.258 345.499 142.192 347.024 142.116 348.565" fill="#DCD9D7"/>
<path d="M140.803 369.428C145.537 369.161 150.897 368.322 157.055 366.904C162.294 365.696 167.159 365.342 171.523 365.498C171.59 363.978 171.645 362.452 171.686 360.93C166.973 360.769 161.713 361.164 156.034 362.473C150.442 363.765 145.502 364.569 141.142 364.862C141.031 366.393 140.919 367.914 140.803 369.428Z" fill="#DCD9D7"/>
<path d="M139.024 390.278C144.183 390.146 150.114 389.282 157.055 387.681C161.768 386.594 166.183 386.197 170.195 386.248C170.316 384.766 170.432 383.241 170.548 381.685C166.128 381.62 161.258 382.044 156.034 383.252C149.704 384.71 144.207 385.544 139.45 385.726C139.307 387.282 139.166 388.804 139.024 390.278" fill="#DCD9D7"/>
<path d="M174.928 405.116C175.62 405.07 176.308 405.02 177 404.969C181.091 380.913 178.732 345.598 177.854 334.777C176.944 323.541 178.692 309.093 182.647 295.149C185.719 284.318 183.835 259.205 182.324 239.029C181.9 233.366 181.496 228.016 181.259 223.62C180.486 209.414 185.628 183.124 188.463 169.949C187.836 169.616 187.215 169.286 186.599 168.958C183.759 182.002 178.43 208.889 179.238 223.732C179.48 228.146 179.884 233.506 180.31 239.18C181.81 259.201 183.678 284.112 180.708 294.594C176.687 308.765 174.914 323.472 175.843 334.938C176.718 345.776 179.091 381.312 174.928 405.116Z" fill="#3948A5"/>
<path d="M133.013 307.229C135.418 322.022 134.659 331.63 133.781 342.75C133.498 346.346 133.205 350.06 132.998 354.161C132.357 367.034 130.178 392.956 129.214 404.166C129.886 404.242 130.553 404.313 131.225 404.378C132.19 393.168 134.371 367.181 135.019 354.262C135.221 350.192 135.514 346.488 135.797 342.912C136.681 331.66 137.449 321.941 135.003 306.906C134.483 303.678 133.927 300.405 133.377 297.146C130.654 281.025 127.835 264.354 129.169 256.368C129.491 254.417 129.906 252.204 130.35 249.86C132.159 240.221 134.418 228.228 133.705 217.82C132.998 207.505 128.77 179.572 127.147 169.044C126.522 169.382 125.895 169.726 125.263 170.069C126.955 181.078 131.002 207.938 131.69 217.957C132.382 228.106 130.154 239.964 128.366 249.485C127.921 251.84 127.502 254.062 127.173 256.034C125.789 264.354 128.506 280.444 131.386 297.484C131.937 300.738 132.487 304.006 133.013 307.229" fill="#3948A5"/>
<path d="M93.2469 204.393C93.2469 204.393 72.6645 273.032 67.5672 297.493C62.4698 321.954 62.0756 372.806 62.0756 372.806C62.0756 372.806 53.0776 391.485 52.8645 399.798C52.6374 408.66 57.2906 415.71 56.7598 421.51C56.2286 427.31 63.289 424.161 61.2948 412.416C59.3 400.668 64.9589 390.03 67.401 390.37C69.8437 390.712 65.3802 403.197 67.5489 407.696C69.7166 412.194 72.524 403.454 75.3156 398.15C78.2136 392.646 78.0442 380.632 76.725 372.056C75.4062 363.48 90.9526 311.39 91.027 296.297L110.713 229.777C110.713 229.777 104.209 202.009 93.2469 204.393" fill="#F6876F"/>
<path d="M113.234 228.106C112.537 232.517 110.097 240.09 106.945 249.617V249.622C106.677 250.425 106.404 251.245 106.131 252.078C106.116 252.113 106.101 252.153 106.091 252.194C105.303 254.564 104.479 257.042 103.63 259.61C103.626 259.625 103.62 259.641 103.615 259.656C100.125 270.256 96.2599 282.378 93.0162 294.837C91.8995 299.101 90.8594 303.41 89.935 307.704C88.7527 313.186 87.7527 318.652 87.0199 324.002C84.3875 343.274 79.3563 367.686 79.3563 367.686C71.9751 370.717 60.4366 366.716 60.4366 366.716C60.4366 366.716 60.1386 331.56 61.7855 317.9C63.8208 301.01 66.4131 288.986 69.6256 275.185C78.4667 237.2 94.0266 200.033 98.2959 190.176C98.6344 189.388 98.9016 188.777 99.0886 188.353H102.762C109.991 192.945 115.118 216.224 113.234 228.106" fill="#385DB4"/>
<path d="M59.8364 359.677L60.415 367.766C60.415 367.766 71.3864 371.332 79.6098 368.82L81.7843 361.605C73.8655 362.025 66.5499 361.829 59.8364 359.677" fill="#3D89D1"/>
<path d="M106.945 249.617V249.622C106.945 249.738 106.924 249.854 106.884 249.972C106.636 250.653 106.383 251.356 106.131 252.078C106.115 252.113 106.101 252.153 106.091 252.194C105.282 254.486 104.459 256.982 103.63 259.61C103.625 259.625 103.62 259.641 103.615 259.656C99.316 273.316 94.9458 290.502 92.9354 301.48C92.9556 299.273 92.9811 297.054 93.016 294.837C91.8993 299.101 90.8592 303.41 89.9348 307.704C90.3488 303.678 91.5004 297.646 93.0712 290.812C96.2447 276.98 101.114 259.848 104.984 249.278C105.176 248.754 105.757 248.485 106.282 248.677C106.692 248.829 106.945 249.208 106.945 249.617" fill="#3948A5"/>
<path d="M475.128 431.137H523.749C523.589 427.764 523.428 424.532 523.272 421.48C522.424 404.83 521.704 393.494 521.704 393.494L482.164 395.252L478.887 395.4L473.07 395.66C473.07 395.66 473.631 405.797 474.504 420.646C474.698 423.931 474.907 427.449 475.128 431.137" fill="#2F335D"/>
<path d="M478.887 395.4L473.07 395.66C473.07 395.66 473.631 405.797 474.504 420.646C489.696 421.913 506.282 422.428 523.272 421.48C522.424 404.83 521.704 393.494 521.704 393.494L482.164 395.252L478.887 395.4" fill="#1C1A2C"/>
<path d="M484.179 431.137C483.291 415.726 482.562 402.562 482.163 395.253L478.885 395.401C479.282 402.677 480.007 415.78 480.894 431.137H484.179" fill="#1C1A2C"/>
<path d="M460.866 431.137C461.115 426.962 461.35 423.003 461.565 419.354C462.402 405.209 462.929 395.66 462.929 395.66L456.615 395.378L453.342 395.23L414.287 393.494C414.287 393.494 413.858 400.252 413.273 410.989C412.961 416.712 412.606 423.572 412.245 431.137H460.866" fill="#2F335D"/>
<path d="M413.272 410.989C423.872 413.481 440.964 416.98 461.564 419.354C462.402 405.208 462.928 395.66 462.928 395.66L456.615 395.378L453.342 395.23L414.287 393.494C414.287 393.494 413.858 400.252 413.272 410.989" fill="#1C1A2C"/>
<path d="M454.606 431.137C455.492 415.765 456.218 402.65 456.615 395.378L453.34 395.232C452.942 402.536 452.212 415.71 451.322 431.137H454.606" fill="#1C1A2C"/>
<path d="M528.764 401.073C518.86 403.8 508.956 405.856 499.054 407.237C495.61 407.72 492.168 408.124 488.727 408.44C484.086 408.869 479.446 409.158 474.807 409.304C467.135 409.538 459.463 409.37 451.787 408.802C436.951 407.717 422.118 405.126 407.279 401.073C407.14 387.238 407.348 337.624 408.387 289.769C408.438 287.622 408.484 285.476 408.538 283.337C408.544 282.884 408.559 282.43 408.568 281.977C408.578 281.482 408.592 280.988 408.606 280.498C408.639 278.98 408.679 277.468 408.716 275.961C408.792 272.886 408.874 269.838 408.962 266.82C409.015 265.016 409.068 263.221 409.122 261.444C409.132 261.074 409.146 260.708 409.156 260.341C409.194 259.169 409.23 258.002 409.267 256.844C409.267 256.844 409.267 256.844 409.267 256.84C409.282 256.48 409.29 256.121 409.304 255.761C409.338 254.693 409.375 253.63 409.408 252.58C409.443 251.682 409.472 250.798 409.503 249.91C410.652 217.629 412.332 192.166 414.738 188.578C418.818 182.492 432.714 174.413 443.891 167.837C447.872 165.498 452.627 163.065 455.35 161.26C459.319 164.456 462.199 167.342 468.083 167.145C474.667 166.92 476.288 162.961 478.799 159.566C480.332 160.561 484.224 163.754 486.247 164.94C487.978 165.961 489.852 167.044 491.808 168.169C494.834 169.9 498.05 171.738 501.234 173.613C505.955 176.393 510.611 179.258 514.471 181.998C518.327 184.737 521.388 187.354 522.903 189.622C525.087 192.902 526.503 214.138 527.412 242.085C527.45 243.062 527.476 244.053 527.514 245.05C527.516 245.172 527.516 245.293 527.516 245.418C527.555 246.432 527.584 247.474 527.608 248.516C527.699 251.661 527.782 254.873 527.87 258.141C527.887 258.829 527.903 259.525 527.914 260.217C527.927 260.738 527.944 261.262 527.948 261.777C527.978 263.121 528.007 264.469 528.038 265.829C528.044 266.101 528.048 266.373 528.055 266.646C528.128 270.232 528.199 273.868 528.263 277.534C528.283 278.606 528.3 279.681 528.318 280.757C529.147 331.068 528.955 386.206 528.764 401.073" fill="#385DB4"/>
<path d="M528.318 280.757L512.634 296.665L498.022 281.853L483.414 296.665L468.749 281.792L454.077 296.665L439.314 281.694L424.549 296.665L408.606 280.498C408.639 278.98 408.679 277.468 408.717 275.961C408.793 272.886 408.874 269.838 408.962 266.82L424.549 251.013L439.314 265.986L454.077 251.013L468.749 265.886L483.414 251.013L498.022 265.825L512.634 251.013L528.055 266.646C528.129 270.232 528.199 273.868 528.263 277.534C528.283 278.606 528.301 279.681 528.318 280.757" fill="#3948A5"/>
<path d="M501.246 362.753C501.245 362.753 501.243 362.753 501.241 362.753C480.242 362.66 462.318 353.104 450.979 345.104C438.717 336.452 431.283 327.685 431.211 327.597C430.851 327.171 430.906 326.533 431.334 326.173C431.761 325.814 432.398 325.869 432.757 326.297C432.83 326.381 440.126 334.981 452.19 343.485C463.282 351.304 480.797 360.643 501.25 360.732C501.809 360.733 502.259 361.189 502.257 361.747C502.254 362.303 501.802 362.753 501.246 362.753" fill="#3948A5"/>
<path d="M488.147 350.332C470.267 346.817 454.44 333.124 453.722 332.494C453.302 332.128 453.259 331.489 453.626 331.069C453.994 330.649 454.631 330.608 455.052 330.974C455.238 331.136 473.863 347.241 492.842 348.974C493.407 349.02 493.808 349.516 493.758 350.072C493.707 350.626 493.215 351.036 492.66 350.985C491.146 350.848 489.639 350.625 488.147 350.332" fill="#3948A5"/>
<path d="M452.338 194.933C451.862 194.933 451.439 194.594 451.346 194.11C451.242 193.562 451.603 193.034 452.151 192.929C477.753 188.072 485.47 171.601 485.545 171.436C485.775 170.926 486.374 170.701 486.882 170.93C487.391 171.161 487.615 171.758 487.386 172.268C487.062 172.984 479.153 189.864 452.527 194.914C452.463 194.926 452.399 194.933 452.338 194.933Z" fill="#3948A5"/>
<path d="M421.101 239.268V239.274C421.077 239.385 421.026 239.496 420.962 239.597C420.579 240.212 420.178 240.848 419.779 241.496C419.759 241.533 419.735 241.564 419.719 241.604C418.439 243.673 417.104 245.934 415.728 248.324C415.727 248.341 415.721 248.352 415.706 248.365C413.559 252.125 411.335 256.201 409.156 260.341C409.194 259.169 409.23 258.002 409.267 256.844C409.267 256.844 409.267 256.844 409.267 256.84C409.282 256.48 409.29 256.121 409.305 255.761C412.817 249.242 416.318 243.144 419.255 238.518C419.558 238.044 420.178 237.91 420.652 238.205C421.019 238.444 421.187 238.868 421.101 239.268" fill="#3948A5"/>
<path d="M550.113 201.82C550.113 201.82 582.851 191.297 592.541 169.813C595.342 163.59 572.257 100.418 572.257 100.418L561.115 100.958C561.115 100.958 564.289 122.876 566.215 135.286C567.797 145.492 570.354 157.684 571.218 161.7C571.405 162.571 571.51 163.054 571.51 163.054C570.963 163.148 570.415 163.255 569.857 163.365C554.561 166.473 535.031 176.436 535.031 176.436L550.113 201.82Z" fill="#F6876F"/>
<path d="M579.734 169.109C580.199 169.448 580.864 169.347 581.199 168.879C581.551 168.403 581.444 167.746 580.968 167.414C578.587 165.684 574.992 163.652 571.218 161.7C571.404 162.571 571.51 163.054 571.51 163.054C570.963 163.148 570.415 163.255 569.856 163.365C573.7 165.34 577.379 167.396 579.734 169.109" fill="#F25349"/>
<path d="M500.017 172.918C500.017 172.918 490.114 196.158 515.326 209.097C532.774 218.052 572.519 194.673 572.519 194.673L558.349 164.586C558.349 164.586 521.983 179.588 500.017 172.918" fill="#385DB4"/>
<path d="M566.554 64.9012C565.566 65.5932 565.768 69.8612 566.202 73.8812C566.063 73.9012 565.922 73.9252 565.779 73.9505C564.607 68.5852 562.274 59.4599 560.278 61.2012C558.971 62.3412 560.722 70.2105 561.912 74.9172C561.667 74.9932 561.419 75.0705 561.172 75.1505C559.67 69.5625 556.431 58.8025 554.275 60.8959C552.836 62.2905 555.598 71.7665 557.131 76.6012C556.916 76.6839 556.708 76.7665 556.503 76.8479C555.036 72.1585 551.903 63.2879 549.756 65.3719C547.812 67.2585 553.383 80.6692 553.383 80.6692L554.842 85.9332C554.842 85.9332 553.107 86.6825 550.398 83.6185C547.69 80.5559 544.451 80.0159 546.7 84.4492C549.243 89.4572 553.006 93.0492 554.663 96.5932C556.319 100.139 561.53 101.311 561.53 101.311L571.992 100.805C571.992 100.805 574.022 83.1199 570.118 74.6905C569.448 69.6799 568.27 63.6972 566.554 64.9012" fill="#F6876F"/>
<path d="M437.101 105.684C437.101 123.506 448.071 135.785 465.886 135.785C483.707 135.785 496.13 122.584 496.13 104.761C496.13 99.8465 495.329 95.2572 493.786 91.1972C493.695 90.9545 493.605 90.7131 493.506 90.4798C493.318 90.0171 493.121 89.5572 492.909 89.1105C492.599 88.4225 492.251 87.7492 491.889 87.0985C487.246 78.7518 478.929 73.4438 467.753 73.4438C446.386 73.4438 437.101 87.8625 437.101 105.684" fill="#2F335D"/>
<path d="M441.1 113.357C441.1 113.357 436.15 106.756 432.468 112.214C428.786 117.673 433.992 133.796 443.004 129.86L441.1 113.357Z" fill="#F25349"/>
<path d="M441.036 124.878C440.704 124.878 440.398 124.657 440.303 124.321C438.907 119.344 433.75 117.326 433.698 117.306C433.306 117.156 433.108 116.717 433.256 116.324C433.406 115.932 433.844 115.733 434.238 115.881C434.479 115.973 440.162 118.178 441.771 123.91C441.884 124.314 441.647 124.736 441.242 124.849C441.174 124.868 441.106 124.878 441.036 124.878" fill="#E43342"/>
<path d="M435.832 122.37C435.69 122.37 435.547 122.332 435.419 122.249C435.066 122.021 434.964 121.55 435.191 121.196C435.228 121.137 436.142 119.745 438.051 118.892C438.432 118.72 438.886 118.892 439.058 119.276C439.227 119.66 439.058 120.11 438.672 120.282C437.196 120.942 436.479 122.01 436.472 122.021C436.327 122.248 436.082 122.37 435.832 122.37Z" fill="#E43342"/>
<path d="M492.122 113.357C492.122 113.357 497.074 106.756 500.755 112.214C504.438 117.673 499.231 133.796 490.219 129.86L492.122 113.357Z" fill="#F25349"/>
<path d="M492.187 124.878C492.519 124.878 492.826 124.657 492.92 124.321C494.316 119.344 499.474 117.326 499.526 117.306C499.918 117.156 500.115 116.717 499.966 116.324C499.818 115.932 499.379 115.733 498.986 115.881C498.744 115.973 493.062 118.178 491.452 123.91C491.339 124.314 491.575 124.736 491.98 124.849C492.05 124.868 492.118 124.878 492.187 124.878" fill="#E43342"/>
<path d="M497.393 122.37C497.534 122.37 497.677 122.332 497.803 122.249C498.158 122.021 498.259 121.55 498.031 121.196C497.994 121.137 497.082 119.745 495.173 118.892C494.791 118.72 494.338 118.892 494.167 119.276C493.995 119.66 494.167 120.11 494.551 120.282C496.027 120.942 496.745 122.01 496.751 122.021C496.897 122.248 497.142 122.37 497.393 122.37Z" fill="#E43342"/>
<path d="M478.799 143.535V159.568C478.799 159.568 474.018 167.733 467.551 168.289C461.091 168.853 455.351 161.259 455.351 161.259V144.663L478.799 143.535Z" fill="#F6876F"/>
<path d="M478.799 143.534V150.649C474.459 155.464 466.754 156.666 455.351 154.982V144.662L478.799 143.534Z" fill="#F25349"/>
<path d="M495.703 102.359C495.406 108.589 494.811 116.381 493.623 122.612C493.327 124.165 492.991 125.628 492.618 126.939C489.243 138.752 480.804 159.012 457.176 150.573C446.742 146.848 441.904 135.225 439.75 123.404C438.287 115.376 438.066 107.264 438.172 101.467C438.287 95.5492 441.516 90.1412 446.666 87.2238C460.612 79.3172 475.328 82.2652 485.016 85.9905C491.742 88.5718 496.046 95.1758 495.703 102.359" fill="#F6876F"/>
<path d="M456.481 115.45C456.481 117.161 455.599 118.549 454.51 118.549C453.423 118.549 452.541 117.161 452.541 115.45C452.541 113.738 453.423 112.35 454.51 112.35C455.599 112.35 456.481 113.738 456.481 115.45Z" fill="#2F335D"/>
<path d="M479.703 115.386C479.703 117.097 478.821 118.485 477.733 118.485C476.645 118.485 475.762 117.097 475.762 115.386C475.762 113.674 476.645 112.286 477.733 112.286C478.821 112.286 479.703 113.674 479.703 115.386Z" fill="#2F335D"/>
<path d="M484.155 104.736C484.155 104.736 477.939 102.28 473.153 104.346L473.631 107.009C473.631 107.009 480.657 106.416 484.195 107.849C484.513 106.825 484.559 105.789 484.155 104.736Z" fill="#2F335D"/>
<path d="M447.936 104.736C447.936 104.736 454.152 102.28 458.939 104.346L458.46 107.009C458.46 107.009 451.436 106.416 447.895 107.849C447.579 106.825 447.532 105.789 447.936 104.736Z" fill="#2F335D"/>
<path d="M466.877 128.437C468.162 128.437 469.437 127.937 469.634 127.857C470.022 127.697 470.209 127.253 470.051 126.864C469.893 126.474 469.447 126.286 469.058 126.446C468.37 126.725 466.719 127.164 466.003 126.734C465.865 126.652 465.675 126.488 465.627 126.025C465.353 123.366 466.081 114.45 466.089 114.361C466.122 113.941 465.811 113.573 465.393 113.538C464.971 113.504 464.606 113.816 464.57 114.236C464.541 114.608 463.823 123.382 464.114 126.182C464.222 127.236 464.775 127.776 465.221 128.042C465.709 128.334 466.293 128.437 466.877 128.437" fill="#F25349"/>
<path d="M456.648 132.305C457.915 136.7 461.514 141.084 466.472 141.145C471.426 141.084 475.024 136.7 476.291 132.305H456.648" fill="white"/>
<path d="M466.049 145.918C468.019 145.918 469.691 144.92 469.762 144.877C470.121 144.66 470.237 144.192 470.018 143.832C469.801 143.472 469.333 143.357 468.973 143.574C468.959 143.582 467.585 144.396 466.049 144.396C464.639 144.396 463.29 143.586 463.277 143.578C462.918 143.358 462.449 143.468 462.227 143.826C462.007 144.184 462.118 144.653 462.477 144.874C462.545 144.917 464.187 145.918 466.049 145.918Z" fill="#F25349"/>
<path d="M494.897 113.492H491.446C491.827 110.026 492.374 103.922 489.527 103.048C480.533 100.285 492.189 93.929 488.129 90.7597C484.069 87.585 473.963 88.945 466.937 88.7184C459.866 88.489 448.502 88.589 445.745 89.229C442.979 89.861 444.495 94.4517 445.507 98.0077C446.529 101.558 442.118 105.489 441.381 109.168C441.169 110.224 441.213 111.792 441.382 113.492H438.505C438.163 109.014 438.111 104.846 438.173 101.466C438.287 95.549 441.517 90.141 446.666 87.2237C460.613 79.317 475.329 82.265 485.017 85.9904C491.742 88.5717 496.046 95.1757 495.703 102.358C495.541 105.772 495.287 109.654 494.897 113.492" fill="#2F335D"/>
<path d="M454.165 108.521C450.15 108.521 446.886 111.787 446.886 115.8C446.886 119.813 450.15 123.079 454.165 123.079C458.177 123.079 461.443 119.813 461.443 115.8C461.443 111.787 458.177 108.521 454.165 108.521ZM454.165 124.424C449.409 124.424 445.541 120.555 445.541 115.8C445.541 111.045 449.409 107.177 454.165 107.177C458.918 107.177 462.786 111.045 462.786 115.8C462.786 120.555 458.918 124.424 454.165 124.424Z" fill="white"/>
<path d="M477.733 108.521C473.719 108.521 470.454 111.787 470.454 115.8C470.454 119.813 473.719 123.079 477.733 123.079C481.746 123.079 485.011 119.813 485.011 115.8C485.011 111.787 481.746 108.521 477.733 108.521ZM477.733 124.424C472.978 124.424 469.11 120.555 469.11 115.8C469.11 111.045 472.978 107.177 477.733 107.177C482.487 107.177 486.355 111.045 486.355 115.8C486.355 120.555 482.487 124.424 477.733 124.424Z" fill="white"/>
<path d="M446.998 113.022C446.827 113.022 446.657 112.958 446.525 112.828C446.486 112.789 442.569 108.989 437.43 110.188C437.069 110.273 436.707 110.048 436.622 109.686C436.539 109.325 436.763 108.964 437.125 108.878C443.002 107.508 447.291 111.696 447.473 111.874C447.734 112.136 447.737 112.562 447.474 112.825C447.343 112.957 447.171 113.022 446.998 113.022" fill="white"/>
<path d="M485.058 113.022C484.838 113.022 484.622 112.916 484.494 112.718C484.29 112.408 484.378 111.992 484.688 111.788C484.946 111.62 491.047 107.684 496.239 108.538C496.606 108.6 496.853 108.945 496.793 109.312C496.733 109.677 496.39 109.925 496.02 109.866C491.347 109.096 485.483 112.876 485.423 112.913C485.31 112.988 485.183 113.022 485.058 113.022" fill="white"/>
<path d="M469.583 113.864C469.569 113.842 467.971 111.682 465.873 111.682C463.793 111.682 462.35 113.838 462.337 113.86L461.21 113.125C461.283 113.012 463.058 110.338 465.873 110.338C468.667 110.338 470.593 112.965 470.673 113.077L469.583 113.864" fill="white"/>
<path d="M418.26 238.001C418.26 238.001 409.176 255.59 398.48 269.522C395.324 273.633 392.031 277.424 388.784 280.35C383.526 285.098 378.396 287.582 374.22 285.476C358.728 277.665 324.192 215.512 324.192 215.512L332.698 205.424C332.698 205.424 348.068 223.174 359.31 233.797C369.676 243.592 377.648 250.916 377.648 250.916C379.083 248.732 380.612 246.338 382.202 243.805C383.892 241.116 385.646 238.269 387.431 235.342C400.375 214.09 414.738 188.578 414.738 188.578L418.26 238.001" fill="#F6876F"/>
<path d="M398.481 269.522C395.325 273.633 392.031 277.424 388.785 280.35L382.202 243.805C383.893 241.116 385.646 238.269 387.431 235.342L398.481 269.522Z" fill="#F25349"/>
<path d="M414.738 188.578L383.692 237.405L394.112 280.35L419.802 238.518C419.802 238.518 422.918 209.9 414.738 188.578" fill="#385DB4"/>
<path d="M375.702 431.137C373.486 418.849 371.299 404.99 369.313 391.533C368.878 388.556 368.45 385.605 368.03 382.694C366.438 371.55 365.014 361.014 363.873 352.272C363.437 348.95 363.046 345.884 362.69 343.148C361.582 334.421 360.931 329 360.931 329L311.906 330.853L262.73 329C262.73 329 261.463 339.726 259.434 355.278C259.062 358.109 258.667 361.094 258.251 364.21C257.159 372.373 255.911 381.386 254.569 390.616C254.549 390.75 254.529 390.885 254.509 391.021C254.087 393.897 253.662 396.793 253.221 399.689C253.215 399.729 253.211 399.764 253.201 399.805V399.81C252.149 406.809 251.046 413.798 249.923 420.522C249.463 423.297 248.997 426.024 248.526 428.679C248.381 429.505 248.234 430.324 248.089 431.137H375.702" fill="#385DB4"/>
<path d="M274.031 343.724C274.031 346.276 271.962 348.345 269.41 348.345C266.858 348.345 264.789 346.276 264.789 343.724C264.789 341.172 266.858 339.102 269.41 339.102C271.962 339.102 274.031 341.172 274.031 343.724Z" fill="#3948A5"/>
<path d="M285.496 361.625C285.496 364.177 283.427 366.246 280.876 366.246C278.324 366.246 276.255 364.177 276.255 361.625C276.255 359.073 278.324 357.004 280.876 357.004C283.427 357.004 285.496 359.073 285.496 361.625Z" fill="#3948A5"/>
<path d="M308.057 352.384C308.057 354.936 305.987 357.004 303.435 357.004C300.883 357.004 298.814 354.936 298.814 352.384C298.814 349.832 300.883 347.762 303.435 347.762C305.987 347.762 308.057 349.832 308.057 352.384Z" fill="#3948A5"/>
<path d="M272.451 380.636C272.451 383.188 270.382 385.257 267.83 385.257C265.278 385.257 263.21 383.188 263.21 380.636C263.21 378.084 265.278 376.016 267.83 376.016C270.382 376.016 272.451 378.084 272.451 380.636Z" fill="#3948A5"/>
<path d="M300.641 378.66C300.641 381.212 298.571 383.28 296.019 383.28C293.468 383.28 291.399 381.212 291.399 378.66C291.399 376.108 293.468 374.038 296.019 374.038C298.571 374.038 300.641 376.108 300.641 378.66Z" fill="#3948A5"/>
<path d="M262.439 359.612C262.439 362.017 260.606 363.996 258.251 364.21C258.667 361.094 259.062 358.109 259.434 355.278C261.193 355.934 262.439 357.624 262.439 359.612Z" fill="#3948A5"/>
<path d="M346.578 405.806C346.578 408.358 344.508 410.426 341.956 410.426C339.404 410.426 337.336 408.358 337.336 405.806C337.336 403.256 339.404 401.186 341.956 401.186C344.508 401.186 346.578 403.256 346.578 405.806Z" fill="#3948A5"/>
<path d="M344.394 380.636C344.394 383.188 342.326 385.257 339.775 385.257C337.223 385.257 335.154 383.188 335.154 380.636C335.154 378.084 337.223 376.016 339.775 376.016C342.326 376.016 344.394 378.084 344.394 380.636Z" fill="#3948A5"/>
<path d="M369.313 391.533C368.757 391.768 368.141 391.898 367.499 391.898C364.949 391.898 362.881 389.828 362.881 387.278C362.881 384.728 364.949 382.658 367.499 382.658C367.679 382.658 367.855 382.669 368.03 382.694C368.45 385.605 368.878 388.556 369.313 391.533" fill="#3948A5"/>
<path d="M349.015 424.253C349.015 426.805 346.947 428.873 344.394 428.873C341.842 428.873 339.775 426.805 339.775 424.253C339.775 421.701 341.842 419.633 344.394 419.633C346.947 419.633 349.015 421.701 349.015 424.253Z" fill="#3948A5"/>
<path d="M368.781 416.876C368.781 419.428 366.711 421.497 364.159 421.497C361.607 421.497 359.538 419.428 359.538 416.876C359.538 414.325 361.607 412.257 364.159 412.257C366.711 412.257 368.781 414.325 368.781 416.876Z" fill="#3948A5"/>
<path d="M327.654 431.137C326.823 429.922 325.43 429.122 323.845 429.122C322.262 429.122 320.869 429.922 320.038 431.137H327.654" fill="#3948A5"/>
<path d="M269.41 409.824C269.41 412.376 267.34 414.445 264.788 414.445C262.238 414.445 260.168 412.376 260.168 409.824C260.168 407.273 262.238 405.204 264.788 405.204C267.34 405.204 269.41 407.273 269.41 409.824Z" fill="#3948A5"/>
<path d="M257.219 395.229C257.219 397.575 255.471 399.513 253.2 399.805C253.211 399.764 253.215 399.729 253.22 399.689C253.662 396.793 254.087 393.897 254.508 391.021C256.107 391.753 257.219 393.361 257.219 395.229Z" fill="#3948A5"/>
<path d="M251.818 424.249C251.818 426.338 250.43 428.101 248.526 428.678C248.997 426.024 249.463 423.297 249.923 420.522C251.071 421.364 251.818 422.721 251.818 424.249" fill="#3948A5"/>
<path d="M280.877 426.204C280.877 428.757 278.807 430.825 276.255 430.825C273.703 430.825 271.635 428.757 271.635 426.204C271.635 423.651 273.703 421.585 276.255 421.585C278.807 421.585 280.877 423.651 280.877 426.204Z" fill="#3948A5"/>
<path d="M305.26 422.586C305.26 425.138 303.192 427.206 300.64 427.206C298.088 427.206 296.019 425.138 296.019 422.586C296.019 420.034 298.088 417.966 300.64 417.966C303.192 417.966 305.26 420.034 305.26 422.586Z" fill="#3948A5"/>
<path d="M287.864 399.868C287.864 402.421 285.795 404.489 283.243 404.489C280.691 404.489 278.623 402.421 278.623 399.868C278.623 397.316 280.691 395.248 283.243 395.248C285.795 395.248 287.864 397.316 287.864 399.868Z" fill="#3948A5"/>
<path d="M312.676 395.248C312.676 397.8 310.608 399.868 308.056 399.868C305.504 399.868 303.435 397.8 303.435 395.248C303.435 392.697 305.504 390.628 308.056 390.628C310.608 390.628 312.676 392.697 312.676 395.248Z" fill="#3948A5"/>
<path d="M323.844 370.866C323.844 373.418 321.778 375.486 319.226 375.486C316.672 375.486 314.604 373.418 314.604 370.866C314.604 368.313 316.672 366.246 319.226 366.246C321.778 366.246 323.844 368.313 323.844 370.866Z" fill="#3948A5"/>
<path d="M363.873 352.272C363.551 352.348 363.221 352.382 362.881 352.382C360.325 352.382 358.26 350.313 358.26 347.762C358.26 345.277 360.224 343.244 362.69 343.148C363.046 345.884 363.437 348.95 363.873 352.272" fill="#3948A5"/>
<path d="M339.775 352.384C339.775 354.936 337.706 357.004 335.154 357.004C332.602 357.004 330.532 354.936 330.532 352.384C330.532 349.832 332.602 347.762 335.154 347.762C337.706 347.762 339.775 349.832 339.775 352.384Z" fill="#3948A5"/>
<path d="M356.698 368.852C356.698 371.402 354.628 373.472 352.076 373.472C349.524 373.472 347.455 371.402 347.455 368.852C347.455 366.3 349.524 364.23 352.076 364.23C354.628 364.23 356.698 366.3 356.698 368.852Z" fill="#3948A5"/>
<path d="M328.466 409.824C328.466 412.376 326.397 414.445 323.845 414.445C321.293 414.445 319.226 412.376 319.226 409.824C319.226 407.273 321.293 405.204 323.845 405.204C326.397 405.204 328.466 407.273 328.466 409.824Z" fill="#3948A5"/>
<path d="M363.912 330.212C338.05 347.096 290.562 345.773 260.722 330.212C263.572 312.456 267.326 294.68 266.519 271.045C266.428 268.456 266.318 265.88 266.188 263.33C266.072 261.11 265.943 258.906 265.802 256.726C263.227 217.412 256.518 185.265 259.815 181.113C261.252 179.293 263.652 177.329 266.614 175.32C267.776 174.529 269.019 173.728 270.331 172.925C273.427 171.036 276.87 169.133 280.327 167.28C288.528 162.9 296.855 158.837 301.03 156.061C305.168 157.865 308.464 158.852 312.016 158.832C312.112 158.832 312.216 158.832 312.322 158.821C312.418 158.832 312.523 158.832 312.618 158.832C316.171 158.852 319.466 157.865 323.611 156.061C327.483 158.636 334.774 162.229 342.214 166.146C347.679 169.028 353.227 172.084 357.544 175.05C360.371 176.989 362.679 178.893 364.092 180.676C365.727 182.736 365.04 191.764 363.642 205.141C362.259 218.304 360.19 235.684 358.938 254.788C358.591 260.093 358.306 265.53 358.115 271.045C357.314 294.68 361.06 312.456 363.912 330.212" fill="#3D89D1"/>
<path d="M348.096 310.576C348.095 310.576 348.094 310.576 348.092 310.576C327.266 310.484 309.488 301.008 298.244 293.073C286.083 284.492 278.712 275.798 278.639 275.71C278.283 275.288 278.338 274.654 278.76 274.3C279.184 273.942 279.816 273.997 280.172 274.421C280.244 274.505 287.48 283.034 299.446 291.468C310.446 299.221 327.816 308.482 348.1 308.572C348.654 308.574 349.102 309.025 349.099 309.578C349.096 310.13 348.647 310.576 348.096 310.576" fill="#385DB4"/>
<path d="M334.309 298.452C316.575 294.966 300.879 281.385 300.167 280.761C299.75 280.397 299.707 279.764 300.071 279.348C300.437 278.93 301.069 278.89 301.486 279.253C301.67 279.414 320.142 295.386 338.965 297.104C339.525 297.149 339.922 297.642 339.873 298.193C339.822 298.744 339.335 299.15 338.783 299.1C337.283 298.964 335.787 298.742 334.309 298.452" fill="#385DB4"/>
<path d="M308.055 206.709C307.583 206.709 307.163 206.373 307.071 205.893C306.969 205.349 307.326 204.825 307.869 204.722C333.261 199.904 340.913 183.569 340.987 183.405C341.215 182.901 341.809 182.677 342.314 182.905C342.818 183.133 343.042 183.726 342.814 184.23C342.493 184.941 334.647 201.681 308.243 206.69C308.179 206.702 308.117 206.709 308.055 206.709" fill="#385DB4"/>
<path d="M342.211 166.146C337.173 177.642 324.782 189.546 308.67 186.764C293.067 184.066 285.667 175.814 280.327 167.278C288.531 162.897 296.856 158.84 301.028 156.062C305.168 157.864 308.465 158.85 312.014 158.834C312.111 158.834 312.218 158.834 312.32 158.822C312.416 158.834 312.524 158.834 312.62 158.834C316.17 158.85 319.467 157.864 323.613 156.062C327.483 158.636 334.775 162.228 342.211 166.146" fill="#F6876F"/>
<path d="M328.742 156.904C328.297 156.899 327.943 157.256 327.941 157.696C327.935 158.341 327.673 173.537 314.031 174.714C301.379 175.813 296.142 163.703 294.523 158.677C294.429 158.383 294.157 158.185 293.846 158.185H293.697C293.21 158.185 292.866 158.66 293.019 159.121C294.746 164.305 300.261 176.824 313.15 176.365C313.485 176.352 313.825 176.332 314.169 176.303C329.265 175 329.533 157.877 329.534 157.704C329.537 157.265 329.182 156.907 328.742 156.904" fill="white"/>
<path d="M338.385 76.1356C338.385 76.1356 350.575 95.0183 349.239 114.686C347.903 134.354 351.037 157.06 333.438 156.062C315.838 155.064 284.446 163.118 274.469 147.8C264.491 132.48 338.385 76.1356 338.385 76.1356" fill="#2F335D"/>
<path d="M342.902 110.856C342.902 110.856 346.066 139.365 332.539 147.214C319.01 155.064 309.22 146.301 309.22 146.301C309.22 146.301 337.734 106.562 342.902 110.856" fill="#1C1A2C"/>
<path d="M286.71 110.724C286.71 110.724 281.853 104.246 278.241 109.602C274.629 114.958 279.734 130.776 288.578 126.914L286.71 110.724" fill="#F25349"/>
<path d="M286.647 122.026C286.32 122.026 286.02 121.81 285.927 121.481C284.558 116.597 279.498 114.617 279.447 114.598C279.062 114.452 278.867 114.02 279.014 113.634C279.16 113.249 279.591 113.054 279.976 113.201C280.212 113.289 285.788 115.453 287.367 121.077C287.478 121.474 287.246 121.888 286.848 121.998C286.782 122.017 286.714 122.026 286.647 122.026" fill="#E43342"/>
<path d="M281.539 119.566C281.4 119.566 281.26 119.528 281.136 119.448C280.788 119.224 280.688 118.761 280.912 118.414C280.95 118.357 281.844 116.992 283.718 116.153C284.091 115.984 284.535 116.153 284.704 116.53C284.872 116.908 284.704 117.349 284.327 117.517C282.879 118.166 282.175 119.213 282.168 119.224C282.026 119.446 281.784 119.566 281.539 119.566" fill="#E43342"/>
<path d="M336.77 110.724C336.77 110.724 341.626 104.246 345.238 109.602C348.85 114.958 343.744 130.776 334.9 126.914L336.77 110.724" fill="#F25349"/>
<path d="M336.833 122.026C337.159 122.026 337.458 121.81 337.551 121.481C338.922 116.597 343.981 114.617 344.033 114.598C344.417 114.452 344.611 114.02 344.465 113.634C344.319 113.249 343.889 113.054 343.503 113.201C343.266 113.289 337.69 115.453 336.113 121.077C336.002 121.474 336.233 121.888 336.63 121.998C336.698 122.017 336.766 122.026 336.833 122.026Z" fill="#E43342"/>
<path d="M341.939 119.566C342.078 119.566 342.218 119.528 342.342 119.448C342.69 119.224 342.79 118.761 342.566 118.414C342.53 118.357 341.634 116.992 339.762 116.153C339.387 115.984 338.943 116.153 338.775 116.53C338.607 116.908 338.775 117.349 339.151 117.517C340.6 118.166 341.303 119.213 341.31 119.224C341.452 119.446 341.694 119.566 341.939 119.566" fill="#E43342"/>
<path d="M323.696 140.332V156.062C323.696 156.062 319.006 164.074 312.662 164.618C306.323 165.173 300.691 157.721 300.691 157.721V141.437L323.696 140.332" fill="#F6876F"/>
<path d="M323.696 140.332V147.312C319.44 152.036 311.882 153.709 300.694 152.058L300.691 141.437L323.696 140.332Z" fill="#F25349"/>
<path d="M340.282 99.9317C339.991 106.045 339.407 113.69 338.24 119.804C337.951 121.328 337.62 122.762 337.255 124.048C333.944 135.638 325.664 155.517 302.483 147.237C292.244 143.582 287.499 132.178 285.384 120.58C283.95 112.704 283.732 104.745 283.838 99.0583C283.95 93.2516 287.118 87.945 292.17 85.0836C305.852 77.3263 320.291 80.2183 329.796 83.8717C336.395 86.405 340.618 92.885 340.282 99.9317" fill="#F6876F"/>
<path d="M301.531 111.647C301.531 113.325 300.666 114.687 299.598 114.687C298.53 114.687 297.665 113.325 297.665 111.647C297.665 109.968 298.53 108.607 299.598 108.607C300.666 108.607 301.531 109.968 301.531 111.647Z" fill="#2F335D"/>
<path d="M325.4 111.647C325.4 113.325 324.535 114.687 323.467 114.687C322.4 114.687 321.535 113.325 321.535 111.647C321.535 109.968 322.4 108.607 323.467 108.607C324.535 108.607 325.4 109.968 325.4 111.647Z" fill="#2F335D"/>
<path d="M295.768 102.594C297.375 102.141 300.618 101.366 304.038 101.356C304.938 101.353 305.627 102.153 305.468 103.04L305.464 103.062C305.336 103.769 304.704 104.27 303.986 104.236C301.659 104.128 295.548 104.454 292.663 105.624C292.604 105.122 292.902 104.573 293.322 104.086C293.958 103.348 294.831 102.86 295.768 102.594" fill="#2F335D"/>
<path d="M327.002 102.657C325.395 102.203 322.154 101.428 318.733 101.419C317.833 101.416 317.143 102.216 317.302 103.101L317.306 103.124C317.434 103.832 318.066 104.332 318.785 104.299C321.113 104.191 327.222 104.517 330.107 105.687C330.166 105.185 329.869 104.636 329.45 104.148C328.813 103.409 327.941 102.923 327.002 102.657" fill="#2F335D"/>
<path d="M311.999 125.518C311.427 125.518 310.853 125.418 310.374 125.132C309.938 124.869 309.395 124.34 309.287 123.306C309.003 120.561 309.706 111.95 309.737 111.585C309.77 111.173 310.13 110.868 310.542 110.901C310.954 110.936 311.259 111.297 311.226 111.708C311.219 111.796 310.505 120.544 310.774 123.153C310.821 123.606 311.006 123.768 311.142 123.848C311.843 124.269 313.465 123.84 314.139 123.565C314.521 123.409 314.958 123.593 315.114 123.976C315.269 124.357 315.086 124.793 314.705 124.949C314.51 125.029 313.259 125.518 311.999 125.518" fill="#F25349"/>
<path d="M302.509 130.237C303.074 133.08 304.951 138.311 311.278 138.311C317.618 138.311 319.397 133.531 320.007 130.237H302.509" fill="white"/>
<path d="M311.187 142.67C309.362 142.67 307.75 141.688 307.681 141.646C307.33 141.429 307.222 140.968 307.439 140.617C307.655 140.266 308.114 140.158 308.466 140.373C308.479 140.381 309.794 141.176 311.187 141.176C312.694 141.176 314.043 140.378 314.058 140.369C314.411 140.158 314.87 140.272 315.082 140.625C315.294 140.978 315.182 141.436 314.83 141.649C314.761 141.692 313.121 142.67 311.187 142.67" fill="#F25349"/>
<path d="M343.29 98.7144C343.05 99.3958 342.384 99.8318 341.492 100.092C341.558 101.74 341.384 103.722 341.222 105.622C340.299 116.424 337.574 118.321 336.958 115.65C336.552 113.876 336.577 103.704 336.773 100.388C334.638 100.248 332.814 99.8918 332.814 99.8918L330.309 89.4051L329.433 99.7611C325.674 101.069 316.906 98.9745 316.906 98.9745L313.966 88.6385L312.147 98.5838C306.51 101.329 299.466 99.5011 299.466 99.5011L297.847 88.7731L294.11 99.5011C294.11 99.5011 282.086 103.814 281.955 99.5011C281.875 96.9905 283.714 89.9211 285.267 84.4451C286.961 78.4731 290.883 73.4264 296.19 70.5811C311.104 62.5744 326.878 66.8345 332.287 70.0651C343.762 76.9145 343.29 98.7144 343.29 98.7144" fill="#2F335D"/>
<path d="M288.578 76.9345C288.578 76.9345 278.678 88.7079 275.422 109.736C272.166 130.764 267.657 146.301 280.327 153.244C294.041 160.759 292.854 145.347 292.657 141.157C292.458 136.969 280.793 125.519 288.578 93.2705C291.091 82.8599 288.578 76.9345 288.578 76.9345" fill="#2F335D"/>
<path d="M286.265 120.388C286.265 120.388 286.265 120.398 286.265 120.413C286.269 120.568 286.279 121.405 286.339 122.713C286.369 123.525 286.419 124.512 286.495 125.634C286.961 132.718 288.339 144.953 292.387 149.197C293.985 150.876 297.066 151.717 300.694 152.058V146.492C296.87 144.677 293.89 141.697 291.581 138.029C290.153 134.938 287.693 130.098 286.539 122.488L286.265 120.388" fill="#1C1A2C"/>
<path d="M340.46 127.269C340.46 128.237 339.675 129.021 338.71 129.021C337.742 129.021 336.958 128.237 336.958 127.269C336.958 126.302 337.742 125.518 338.71 125.518C339.675 125.518 340.46 126.302 340.46 127.269Z" fill="white"/>
<path d="M376.14 259.165C371.182 273.364 348.971 272.329 323.675 264.568C323.639 264.557 323.603 264.544 323.566 264.535C323.486 264.511 323.41 264.484 323.33 264.461L319.85 263.352C319.37 263.195 318.887 263.035 318.407 262.871C315.68 261.959 312.935 260.972 310.178 259.924C301.14 256.492 292.031 252.424 283.443 248.084L283.503 247.933L286.09 241.215L286.972 238.928C286.972 238.928 333.867 244.037 357.447 239.108C357.847 239.025 358.236 238.941 358.619 238.852C358.527 238.328 358.498 237.795 358.35 237.296C345.856 194.763 359.52 186.608 364.092 180.675C364.092 180.675 385.503 232.364 376.14 259.165" fill="#3D89D1"/>
<path d="M368.499 246.001C368.359 246.068 368.209 246.1 368.062 246.1C367.693 246.1 367.337 245.894 367.163 245.54C365.377 241.881 359.31 239.704 357.447 239.108C357.847 239.025 358.237 238.941 358.619 238.852C358.527 238.328 358.438 237.809 358.35 237.296C360.721 238.078 366.909 240.465 368.958 244.664C369.202 245.157 368.995 245.757 368.499 246.001" fill="#385DB4"/>
<path d="M302.817 244.218C293.246 244.218 285.474 243.669 284.796 243.62C284.246 243.58 283.832 243.1 283.871 242.549C283.912 241.998 284.391 241.589 284.942 241.625C285.295 241.649 320.472 244.14 334.342 238.513C334.852 238.306 335.436 238.55 335.644 239.064C335.851 239.574 335.606 240.157 335.094 240.366C327.416 243.48 313.909 244.218 302.817 244.218Z" fill="#385DB4"/>
<path d="M319.85 263.352C319.853 263.352 319.852 263.352 319.852 263.352C327.879 261.138 335.174 258.981 339.387 257.632C345.235 255.756 350.075 249.844 352.275 244.817C352.495 244.312 353.084 244.081 353.591 244.305C354.098 244.525 354.329 245.114 354.109 245.621C351.727 251.056 346.443 257.469 339.998 259.538C336.941 260.52 332.271 261.918 326.874 263.458C324.574 264.116 322.129 264.078 319.85 263.352" fill="#385DB4"/>
<path d="M341.483 256.476C269.009 280.885 246.713 264.912 246.713 264.912C241.834 220.788 259.813 181.112 259.813 181.112C265.126 189.869 271.131 205.157 271.131 205.157L272.718 238.978L272.598 239.918L272.541 240.362L272.242 242.674L272.234 242.721C272.389 242.754 272.545 242.788 272.701 242.821C294.625 247.446 334.718 242.277 334.718 242.277L341.483 256.476" fill="#3D89D1"/>
<path d="M272.701 242.821C268.789 246.1 265.073 249.88 261.759 254.222C261.426 254.662 260.797 254.749 260.357 254.413C259.917 254.08 259.834 253.453 260.163 253.013C260.167 253.013 260.167 253.009 260.167 253.009C263.89 248.12 268.109 243.934 272.541 240.362L272.242 242.674L272.234 242.721C272.389 242.754 272.545 242.788 272.701 242.821" fill="#385DB4"/>
<path d="M334.718 242.278C334.718 242.278 342.742 224.052 354.94 225.674L358.619 238.853C351.942 241.688 350.964 253.138 341.484 256.476L334.718 242.278Z" fill="#F6876F"/>
<path d="M286.974 238.928C286.974 238.928 281.907 227.034 268.571 223.582C255.237 220.129 246.741 226.414 245.845 228.785C244.95 231.157 250.874 228.89 250.874 228.89C250.874 228.89 247.015 229.982 244.802 233.609C242.589 237.234 250.19 233.322 250.19 233.322C250.19 233.322 244.739 235.71 244.046 237.925C243.353 240.141 250.542 236.398 251.894 236.47C251.894 236.47 245.474 239.022 245.518 241.308C245.561 243.592 252.893 239.866 258.366 240.16C263.841 240.456 272.234 242.722 272.234 242.722C276.714 243.576 280.995 244.205 284.869 244.385L286.974 238.928" fill="#F6876F"/>
<path d="M415.747 38.9092C412.359 38.9092 409.605 41.6652 409.605 45.0532C409.605 48.4399 412.359 51.1959 415.747 51.1959C419.134 51.1959 421.891 48.4399 421.891 45.0532C421.891 41.6652 419.134 38.9092 415.747 38.9092ZM415.747 54.0039C410.811 54.0039 406.795 49.9879 406.795 45.0532C406.795 40.1172 410.811 36.1012 415.747 36.1012C420.683 36.1012 424.699 40.1172 424.699 45.0532C424.699 49.9879 420.683 54.0039 415.747 54.0039Z" fill="#385DB4"/>
<path d="M493.847 23.701C490.459 23.701 487.705 26.4557 487.705 29.8437C487.705 33.2303 490.459 35.9863 493.847 35.9863C497.234 35.9863 499.991 33.2303 499.991 29.8437C499.991 26.4557 497.234 23.701 493.847 23.701ZM493.847 38.7957C488.911 38.7957 484.895 34.7797 484.895 29.8437C484.895 24.9077 488.911 20.8917 493.847 20.8917C498.783 20.8917 502.799 24.9077 502.799 29.8437C502.799 34.7797 498.783 38.7957 493.847 38.7957Z" fill="#3D89D1"/>
<path d="M504.907 67.8853C504.133 67.8853 503.505 67.2559 503.505 66.4799V60.2879C503.505 59.5119 504.133 58.8839 504.907 58.8839C505.682 58.8839 506.311 59.5119 506.311 60.2879V66.4799C506.311 67.2559 505.682 67.8853 504.907 67.8853Z" fill="#385DB4"/>
<path d="M504.907 78.7212C504.133 78.7212 503.505 78.0919 503.505 77.3172V71.1239C503.505 70.3492 504.133 69.7212 504.907 69.7212C505.682 69.7212 506.311 70.3492 506.311 71.1239V77.3172C506.311 78.0919 505.682 78.7212 504.907 78.7212Z" fill="#385DB4"/>
<path d="M513.599 70.2065H508.037C507.262 70.2065 506.633 69.5785 506.633 68.8025C506.633 68.0265 507.262 67.3985 508.037 67.3985H513.599C514.375 67.3985 515.005 68.0265 515.005 68.8025C515.005 69.5785 514.375 70.2065 513.599 70.2065Z" fill="#385DB4"/>
<path d="M501.779 70.2065H496.217C495.441 70.2065 494.811 69.5785 494.811 68.8025C494.811 68.0265 495.441 67.3985 496.217 67.3985H501.779C502.554 67.3985 503.182 68.0265 503.182 68.8025C503.182 69.5785 502.554 70.2065 501.779 70.2065Z" fill="#385DB4"/>
<path d="M457.625 30.3718C456.85 30.3718 456.222 29.7425 456.222 28.9678V22.7745C456.222 21.9998 456.85 21.3705 457.625 21.3705C458.401 21.3705 459.029 21.9998 459.029 22.7745V28.9678C459.029 29.7425 458.401 30.3718 457.625 30.3718Z" fill="#373D9C"/>
<path d="M457.625 41.2078C456.85 41.2078 456.222 40.5798 456.222 39.8038V33.6118C456.222 32.8358 456.85 32.2078 457.625 32.2078C458.401 32.2078 459.029 32.8358 459.029 33.6118V39.8038C459.029 40.5798 458.401 41.2078 457.625 41.2078Z" fill="#373D9C"/>
<path d="M466.317 32.6943H460.754C459.979 32.6943 459.35 32.065 459.35 31.289C459.35 30.5143 459.979 29.885 460.754 29.885H466.317C467.093 29.885 467.722 30.5143 467.722 31.289C467.722 32.065 467.093 32.6943 466.317 32.6943Z" fill="#373D9C"/>
<path d="M454.497 32.6943H448.934C448.158 32.6943 447.529 32.065 447.529 31.289C447.529 30.5143 448.158 29.885 448.934 29.885H454.497C455.271 29.885 455.899 30.5143 455.899 31.289C455.899 32.065 455.271 32.6943 454.497 32.6943Z" fill="#373D9C"/>
<path d="M98.6 22.3384C98.6 25.7251 101.356 28.4811 104.743 28.4811C108.131 28.4811 110.887 25.7251 110.887 22.3384C110.887 18.9504 108.131 16.1944 104.743 16.1944C101.356 16.1944 98.6 18.9504 98.6 22.3384ZM95.7917 22.3384C95.7917 17.4011 99.8073 13.3864 104.743 13.3864C109.679 13.3864 113.695 17.4011 113.695 22.3384C113.695 27.2744 109.679 31.2891 104.743 31.2891C99.8073 31.2891 95.7917 27.2744 95.7917 22.3384Z" fill="#385DB4"/>
<path d="M62.6511 56.4584C62.6511 59.845 65.4068 62.6011 68.7943 62.6011C72.1818 62.6011 74.9375 59.845 74.9375 56.4584C74.9375 53.0704 72.1818 50.3144 68.7943 50.3144C65.4068 50.3144 62.6511 53.0704 62.6511 56.4584ZM59.8423 56.4584C59.8423 51.5224 63.859 47.5064 68.7943 47.5064C73.7298 47.5064 77.7464 51.5224 77.7464 56.4584C77.7464 61.3944 73.7298 65.4104 68.7943 65.4104C63.859 65.4104 59.8423 61.3944 59.8423 56.4584Z" fill="#3D89D1"/>
<path d="M41.2318 69.0198C42.0074 69.0198 42.636 68.3918 42.636 67.6158V61.4238C42.636 60.6478 42.0074 60.0198 41.2318 60.0198C40.4563 60.0198 39.8276 60.6478 39.8276 61.4238V67.6158C39.8276 68.3918 40.4563 69.0198 41.2318 69.0198Z" fill="#385DB4"/>
<path d="M41.2318 79.8572C42.0074 79.8572 42.636 79.2292 42.636 78.4518V72.2598C42.636 71.4852 42.0074 70.8558 41.2318 70.8558C40.4563 70.8558 39.8276 71.4852 39.8276 72.2598V78.4518C39.8276 79.2292 40.4563 79.8572 41.2318 79.8572Z" fill="#385DB4"/>
<path d="M32.5396 71.3423H38.1022C38.8776 71.3423 39.5068 70.7129 39.5068 69.9383C39.5068 69.1623 38.8776 68.5343 38.1022 68.5343H32.5396C31.7646 68.5343 31.1355 69.1623 31.1355 69.9383C31.1355 70.7129 31.7646 71.3423 32.5396 71.3423Z" fill="#385DB4"/>
<path d="M44.3603 71.3423H49.9239C50.6989 71.3423 51.3275 70.7129 51.3275 69.9383C51.3275 69.1623 50.6989 68.5343 49.9239 68.5343H44.3603C43.5854 68.5343 42.9573 69.1623 42.9573 69.9383C42.9573 70.7129 43.5854 71.3423 44.3603 71.3423" fill="#385DB4"/>
<path d="M73.587 21.4197C74.3621 21.4197 74.9913 20.7903 74.9913 20.0157V13.8237C74.9913 13.0477 74.3621 12.4197 73.587 12.4197C72.8121 12.4197 72.1829 13.0477 72.1829 13.8237V20.0157C72.1829 20.7903 72.8121 21.4197 73.587 21.4197Z" fill="#373D9C"/>
<path d="M73.587 32.2571C74.3621 32.2571 74.9913 31.6277 74.9913 30.8517V24.6597C74.9913 23.8851 74.3621 23.2557 73.587 23.2557C72.8121 23.2557 72.1829 23.8851 72.1829 24.6597V30.8517C72.1829 31.6277 72.8121 32.2571 73.587 32.2571Z" fill="#373D9C"/>
<path d="M64.8953 23.7424H70.4579C71.2328 23.7424 71.862 23.1131 71.862 22.3384C71.862 21.5624 71.2328 20.9331 70.4579 20.9331H64.8953C64.1199 20.9331 63.4912 21.5624 63.4912 22.3384C63.4912 23.1131 64.1199 23.7424 64.8953 23.7424Z" fill="#373D9C"/>
<path d="M76.7161 23.7424H82.2787C83.0541 23.7424 83.6828 23.1131 83.6828 22.3384C83.6828 21.5624 83.0541 20.9331 82.2787 20.9331H76.7161C75.9407 20.9331 75.312 21.5624 75.312 22.3384C75.312 23.1131 75.9407 23.7424 76.7161 23.7424Z" fill="#373D9C"/>
<path d="M341.286 22.981C341.124 22.9983 340.956 22.9757 340.795 22.9077C339.091 22.189 338.093 21.853 338.082 21.8503C337.561 21.6757 337.279 21.1117 337.451 20.589C337.627 20.0663 338.191 19.785 338.714 19.9583C338.757 19.973 339.786 20.3183 341.57 21.0703C342.078 21.285 342.316 21.869 342.102 22.377C341.955 22.7237 341.636 22.945 341.286 22.981" fill="#ABDDE7"/>
<path d="M392.099 76.4585C392.778 78.2678 393.413 80.1331 393.987 82.0038C394.13 82.4678 394.579 82.7518 395.045 82.7025C395.107 82.6971 395.171 82.6838 395.233 82.6638C395.759 82.5025 396.057 81.9451 395.894 81.4185C395.307 79.5091 394.659 77.6051 393.967 75.7585C393.774 75.2438 393.202 74.9825 392.683 75.1758C392.169 75.3691 391.906 75.9438 392.099 76.4585" fill="#ABDDE7"/>
<path d="M395.54 87.6531C395.998 89.5265 396.411 91.4545 396.768 93.3851C396.863 93.8998 397.339 94.2491 397.852 94.1958C397.878 94.1918 397.903 94.1891 397.931 94.1838C398.471 94.0838 398.83 93.5625 398.728 93.0225C398.364 91.0558 397.944 89.0905 397.478 87.1811C397.347 86.6465 396.807 86.3185 396.274 86.4491C395.738 86.5785 395.41 87.1185 395.54 87.6531Z" fill="#ABDDE7"/>
<path d="M399.746 117.762C400.241 117.71 400.628 117.296 400.636 116.786C400.668 114.785 400.654 112.778 400.594 110.82C400.578 110.269 400.116 109.837 399.567 109.853C399.008 109.873 398.584 110.33 398.602 110.88C398.659 112.809 398.673 114.785 398.643 116.756C398.635 117.306 399.074 117.758 399.624 117.768C399.666 117.769 399.706 117.766 399.746 117.762Z" fill="#ABDDE7"/>
<path d="M398.539 98.0598C397.992 98.1304 397.607 98.6318 397.678 99.1771C397.795 100.078 397.902 100.989 397.996 101.884C398.106 102.917 398.203 103.97 398.284 105.016C398.327 105.564 398.807 105.974 399.356 105.932C399.366 105.93 399.375 105.929 399.384 105.929C399.919 105.872 400.315 105.398 400.272 104.86C400.188 103.796 400.091 102.725 399.979 101.674C399.884 100.764 399.775 99.8384 399.655 98.9198C399.586 98.3824 399.099 98.0011 398.562 98.0571C398.555 98.0584 398.546 98.0584 398.539 98.0598" fill="#ABDDE7"/>
<path d="M389.875 71.041C390.056 71.4464 390.472 71.6704 390.89 71.6264C390.992 71.6157 391.094 71.5891 391.192 71.5451C391.695 71.3197 391.92 70.7304 391.695 70.2277C390.883 68.4117 390.004 66.601 389.08 64.8477C388.824 64.3597 388.223 64.173 387.734 64.429C387.247 64.685 387.06 65.2877 387.316 65.7757C388.219 67.4931 389.079 69.2637 389.875 71.041" fill="#ABDDE7"/>
<path d="M346.091 25.3863C347.803 26.2596 349.531 27.213 351.227 28.217C351.419 28.3303 351.632 28.3716 351.838 28.3503C352.142 28.3183 352.426 28.149 352.594 27.8677C352.874 27.393 352.718 26.7823 352.243 26.501C350.511 25.477 348.747 24.5037 346.999 23.6103C346.508 23.3597 345.907 23.5543 345.658 24.0437C345.407 24.5343 345.602 25.1343 346.091 25.3863" fill="#ABDDE7"/>
<path d="M360.949 34.7745C361.161 34.9345 361.415 34.9985 361.661 34.9731C361.923 34.9451 362.174 34.8131 362.347 34.5865C362.681 34.1491 362.598 33.5238 362.161 33.1891C360.581 31.9838 358.947 30.8105 357.301 29.6998C356.843 29.3931 356.226 29.5118 355.917 29.9691C355.609 30.4251 355.729 31.0451 356.186 31.3531C357.799 32.4411 359.402 33.5918 360.949 34.7745" fill="#ABDDE7"/>
<path d="M377.703 51.0986C377.923 51.3733 378.261 51.5013 378.587 51.4666C378.77 51.4479 378.95 51.3773 379.105 51.2533C379.534 50.9093 379.605 50.2826 379.259 49.8519C378.021 48.3053 376.714 46.7733 375.377 45.3013C375.005 44.8933 374.375 44.8626 373.967 45.2333C373.561 45.6039 373.53 46.2346 373.899 46.6426C375.211 48.084 376.49 49.5839 377.703 51.0986Z" fill="#ABDDE7"/>
<path d="M369.827 42.4292C370.047 42.6438 370.343 42.7359 370.627 42.7052C370.851 42.6825 371.067 42.5839 371.236 42.4092C371.62 42.0145 371.612 41.3838 371.218 40.9998C369.799 39.6198 368.315 38.2598 366.804 36.9585C366.388 36.5985 365.758 36.6465 365.399 37.0638C365.039 37.4798 365.086 38.1105 365.504 38.4692C366.983 39.7452 368.438 41.0772 369.827 42.4292" fill="#ABDDE7"/>
<path d="M384.427 60.6825C384.634 61.0225 385.013 61.1945 385.383 61.1545C385.526 61.1398 385.667 61.0931 385.798 61.0145C386.268 60.7278 386.415 60.1131 386.128 59.6438C385.094 57.9491 383.991 56.2638 382.85 54.6385C382.535 54.1878 381.914 54.0785 381.462 54.3945C381.01 54.7118 380.902 55.3331 381.219 55.7838C382.335 57.3745 383.414 59.0238 384.427 60.6825" fill="#ABDDE7"/>
<path d="M341.267 16.1597L345.63 -0.000358916L292.167 0.458365L341.267 16.1597Z" fill="#3D89D1"/>
<path d="M292.167 0.457065L338.673 20.0611L338.795 20.1144L340.795 23.4277L341.267 16.1597L292.167 0.457065Z" fill="#385DB4"/>
<path d="M340.795 23.4277L336.46 22.7451L338.795 20.1144L340.795 23.4277Z" fill="#385DB4"/>
<path d="M332.945 17.6478L338.797 20.1144L326.743 33.6931L292.167 0.458482L332.945 17.6478" fill="#3D89D1"/>
<path d="M587.109 441.313V442.286C587.109 447.906 582.551 452.462 576.929 452.462H48.998C43.3761 452.462 38.8225 447.906 38.8225 442.286V441.313C38.8225 435.694 43.3761 431.137 48.998 431.137H576.929C582.551 431.137 587.109 435.694 587.109 441.313" fill="#373D9C"/>
<path d="M587.109 441.313V441.8H38.8225V441.313C38.8225 435.694 43.3761 431.137 48.998 431.137H576.929C582.551 431.137 587.109 435.694 587.109 441.313" fill="#385DB4"/>
<path d="M393.759 399.124H227.913C223.95 399.124 220.737 395.912 220.737 391.949V305.18C220.737 301.217 223.95 298.005 227.913 298.005H393.759C397.722 298.005 400.934 301.217 400.934 305.18V391.949C400.934 395.912 397.722 399.124 393.759 399.124" fill="#2F335D"/>
<path d="M324.788 430.822H296.882V399.009H324.788V430.822Z" fill="#1C1A2C"/>
<path d="M324.375 349.804C324.375 357.453 318.173 363.654 310.525 363.654C302.874 363.654 296.673 357.453 296.673 349.804C296.673 342.154 302.874 335.953 310.525 335.953C318.173 335.953 324.375 342.154 324.375 349.804Z" fill="#35527F"/>
<path d="M346.382 430.822H274.398V428.397C274.398 423.504 278.365 419.536 283.258 419.536H337.521C342.414 419.536 346.382 423.504 346.382 428.397V430.822" fill="#2F335D"/>
</svg>
