<svg width="346" height="255" viewBox="0 0 346 255" fill="none" xmlns="http://www.w3.org/2000/svg">
<path d="M38.5442 66.2991H306.885" stroke="#DED8D5" stroke-width="1.9678" stroke-miterlimit="10"/>
<path d="M303.376 214.734H42.0485C40.114 214.734 38.5449 213.164 38.5449 211.23V52.2096C38.5449 50.2751 40.114 48.7061 42.0485 48.7061H303.382C305.316 48.7061 306.885 50.2751 306.885 52.2096V211.225C306.885 213.164 305.316 214.734 303.376 214.734Z" stroke="#DED8D5" stroke-width="1.9678" stroke-miterlimit="10"/>
<path d="M56.2277 57.6798C56.2277 59.034 55.1315 60.1356 53.772 60.1356C52.4179 60.1356 51.3163 59.034 51.3163 57.6798C51.3163 56.3257 52.4125 55.2241 53.772 55.2241C55.1262 55.2295 56.2277 56.3257 56.2277 57.6798Z" fill="#FFB1A5"/>
<path d="M65.7661 57.6798C65.7661 59.034 64.6645 60.1356 63.3103 60.1356C61.9562 60.1356 60.8546 59.034 60.8546 57.6798C60.8546 56.3257 61.9562 55.2241 63.3103 55.2241C64.6645 55.2295 65.7661 56.3257 65.7661 57.6798Z" fill="#EAD254"/>
<path d="M75.3038 57.6798C75.3038 59.034 74.2022 60.1356 72.8481 60.1356C71.4939 60.1356 70.3923 59.034 70.3923 57.6798C70.3923 56.3257 71.4885 55.2241 72.8481 55.2241C74.2076 55.2241 75.3038 56.3257 75.3038 57.6798Z" fill="#00857B"/>
<path d="M341.744 125.548H278.679C276.901 125.548 275.461 124.108 275.461 122.329V63.9993C275.461 62.2206 276.901 60.7805 278.679 60.7805H341.744C343.522 60.7805 344.963 62.2206 344.963 63.9993V122.324C344.963 124.103 343.522 125.548 341.744 125.548Z" fill="#EDEDED"/>
<path d="M341.744 125.548H278.679C276.901 125.548 275.461 124.108 275.461 122.329V63.9993C275.461 62.2206 276.901 60.7805 278.679 60.7805H341.744C343.522 60.7805 344.963 62.2206 344.963 63.9993V122.324C344.963 124.103 343.522 125.548 341.744 125.548Z" stroke="#DED8D5" stroke-width="1.9678" stroke-miterlimit="10"/>
<path d="M293.924 108.697H326.703C328.493 108.697 329.938 107.246 329.938 105.462V78.5994C329.938 76.81 328.487 75.3645 326.703 75.3645H293.924C292.135 75.3645 290.689 76.8154 290.689 78.5994V105.462C290.689 107.251 292.135 108.697 293.924 108.697Z" fill="#C98BD2"/>
<path d="M319.267 97.5735H303.926H301.153V85.4292H319.267V88.4653V97.5735Z" stroke="white" stroke-width="1.6466" stroke-miterlimit="10" stroke-linecap="round" stroke-linejoin="round"/>
<path d="M301.153 85.4292L310.213 92.5653L319.267 85.4292" stroke="white" stroke-width="1.6466" stroke-miterlimit="10" stroke-linecap="round" stroke-linejoin="round"/>
<path d="M64.2148 174.383H4.06831C2.37026 174.383 1 173.008 1 171.315V118.88C1 117.182 2.37564 115.811 4.06831 115.811H64.2148C65.9128 115.811 67.2831 117.187 67.2831 118.88V171.315C67.2831 173.013 65.9075 174.383 64.2148 174.383Z" fill="#EDEDED"/>
<path d="M64.2148 174.383H4.06831C2.37026 174.383 1 173.008 1 171.315V118.88C1 117.182 2.37564 115.811 4.06831 115.811H64.2148C65.9128 115.811 67.2831 117.187 67.2831 118.88V171.315C67.2831 173.013 65.9075 174.383 64.2148 174.383Z" stroke="#DED8D5" stroke-width="1.9678" stroke-miterlimit="10"/>
<path d="M49.5827 163.099H18.3891C16.417 163.099 14.821 161.503 14.821 159.531V129.406C14.821 127.434 16.417 125.838 18.3891 125.838H49.5827C51.5548 125.838 53.1508 127.434 53.1508 129.406V159.531C53.1508 161.503 51.5548 163.099 49.5827 163.099Z" fill="#FFB1A5"/>
<path d="M26.5576 137.155C22.3501 141.363 22.3501 148.273 26.5576 152.481C30.7651 156.688 37.6755 156.688 41.8831 152.481C46.0906 148.273 46.0906 141.363 41.8831 137.155C37.6755 132.948 30.7651 132.948 26.5576 137.155ZM41.8562 138.719H38.401C38.0571 137.633 37.6111 136.548 37.0576 135.462C38.976 136.043 40.6418 137.193 41.8562 138.719ZM30.2439 144.184C30.2439 142.781 30.4105 141.384 30.7597 139.982H37.6917C38.0356 141.384 38.2022 142.781 38.2075 144.184H30.2439ZM38.1592 145.452C38.0624 146.854 37.8099 148.252 37.4122 149.654H31.0284C30.6308 148.252 30.3782 146.854 30.2815 145.452H38.1592ZM34.2203 135.043C34.7416 135.043 35.2521 135.086 35.7518 135.162C36.4181 136.349 36.934 137.531 37.3209 138.719H31.1144C31.5013 137.531 32.0225 136.349 32.6835 135.162C33.1886 135.081 33.6991 135.043 34.2203 135.043ZM31.3777 135.462C30.8296 136.548 30.3836 137.633 30.0343 138.719H26.5791C27.8043 137.193 29.4647 136.043 31.3777 135.462ZM25.7247 139.982H29.6797C29.3304 141.384 29.153 142.781 29.1262 144.184H24.4673C24.564 142.663 25.01 141.239 25.7247 139.982ZM25.7247 149.654C25.01 148.402 24.564 146.973 24.4673 145.452H29.1423C29.2122 146.854 29.4325 148.252 29.8033 149.654H25.7247ZM26.5845 150.922H30.1794C30.5394 152.018 30.9854 153.12 31.5174 154.216C29.5453 153.647 27.8312 152.481 26.5845 150.922ZM34.2203 154.592C33.7851 154.592 33.3606 154.566 32.9414 154.512C32.345 153.313 31.8345 152.121 31.4261 150.922H37.02C36.6116 152.121 36.1011 153.319 35.5046 154.512C35.0801 154.566 34.6556 154.592 34.2203 154.592ZM36.9286 154.216C37.4606 153.12 37.9066 152.018 38.2666 150.922H41.8616C40.6095 152.481 38.9007 153.647 36.9286 154.216ZM42.7213 149.654H38.6428C39.0136 148.252 39.2339 146.854 39.3037 145.452H43.9788C43.8767 146.973 43.436 148.402 42.7213 149.654ZM43.9788 144.184H39.3199C39.293 142.781 39.1103 141.384 38.7664 139.982H42.7213C43.436 141.239 43.8767 142.663 43.9788 144.184Z" fill="white"/>
<path d="M60.6316 33.3862H6.14352C5.02044 33.3862 4.10693 32.4727 4.10693 31.3496C4.10693 30.2265 5.02044 29.313 6.14352 29.313H60.6316C61.7547 29.313 62.6682 30.2265 62.6682 31.3496C62.6682 32.4727 61.7547 33.3862 60.6316 33.3862Z" fill="#C98BD2"/>
<path d="M343.963 166.484H317.515C316.392 166.484 315.478 165.571 315.478 164.448C315.478 163.325 316.392 162.411 317.515 162.411H343.963C345.086 162.411 346 163.325 346 164.448C346 165.571 345.086 166.484 343.963 166.484Z" fill="#56DFED"/>
<path d="M325.44 190.058H322.211C321.362 190.058 320.674 189.37 320.674 188.521V185.485C320.674 184.636 321.362 183.948 322.211 183.948H325.44C326.289 183.948 326.977 184.636 326.977 185.485V188.521C326.977 189.37 326.289 190.058 325.44 190.058Z" fill="#C98BD2"/>
<path d="M19.121 204.18H15.8915C15.0424 204.18 14.3546 203.492 14.3546 202.643V199.607C14.3546 198.758 15.0424 198.07 15.8915 198.07H19.121C19.97 198.07 20.6578 198.758 20.6578 199.607V202.643C20.6578 203.492 19.97 204.18 19.121 204.18Z" fill="#FFB1A5"/>
<path d="M266.456 31.2795H212.672C211.78 31.2795 211.054 30.5541 211.054 29.6621V16.5344C211.054 15.6424 211.78 14.917 212.672 14.917H266.45C267.342 14.917 268.068 15.6424 268.068 16.5344V29.6621C268.073 30.5595 267.348 31.2795 266.456 31.2795Z" fill="#FFB1A5"/>
<path d="M218.825 20.7473H257.068" stroke="white" stroke-width="1.1803" stroke-miterlimit="10"/>
<path d="M218.825 24.6699H234.403" stroke="white" stroke-width="1.1803" stroke-miterlimit="10"/>
<path d="M217.266 29.4309V35.8093L225.289 29.4309H217.266Z" fill="#FFB1A5"/>
<path d="M134.324 32.2576H108.289C105.759 32.2576 103.711 30.2103 103.711 27.6793V3.47133C103.711 1.55296 105.264 0 107.183 0H134.324C136.243 0 137.796 1.55296 137.796 3.47133V28.7809C137.79 30.6993 136.237 32.2576 134.324 32.2576Z" fill="#56DFED"/>
<path d="M128.703 18.5118L126.763 16.572C126.419 16.1905 125.968 15.9809 125.517 15.9809C125.065 15.9809 124.614 16.1905 124.27 16.5344L123.163 17.6413C123.093 17.6091 123.023 17.5715 122.954 17.5392C122.814 17.4694 122.712 17.4371 122.61 17.3673C121.573 16.7063 120.632 15.8412 119.735 14.7342C119.321 14.213 119.009 13.7294 118.832 13.3156C119.111 13.0738 119.353 12.7944 119.595 12.5526C119.697 12.4505 119.805 12.343 119.907 12.2409C120.288 11.8594 120.498 11.408 120.498 10.9566C120.498 10.5052 120.288 10.0538 119.907 9.67231L118.934 8.6997C118.832 8.5976 118.725 8.49012 118.622 8.35579C118.413 8.14622 118.171 7.9044 117.961 7.69484C117.618 7.35093 117.166 7.14136 116.715 7.14136C116.263 7.14136 115.85 7.31331 115.468 7.69484L114.254 8.90927C113.802 9.36065 113.528 9.94637 113.458 10.6073C113.389 11.6444 113.668 12.617 113.91 13.2404C114.463 14.8363 115.328 16.2549 116.613 17.781C118.171 19.6188 120.009 21.075 122.158 22.1121C122.954 22.4937 124.066 22.9451 125.275 23.0472C125.345 23.0472 125.415 23.0472 125.517 23.0472C126.35 23.0472 127.043 22.7355 127.596 22.1444C127.596 22.1444 127.596 22.1444 127.629 22.1121C127.8 21.9026 128.01 21.6984 128.252 21.4888C128.392 21.3491 128.564 21.1771 128.703 21.0374C129.434 20.2798 129.434 19.2427 128.703 18.5118ZM127.908 20.3174C127.768 20.4571 127.629 20.5968 127.494 20.7311C127.252 20.9407 127.043 21.1825 126.801 21.4243C126.457 21.7736 126.076 21.9456 125.554 21.9456C125.484 21.9456 125.452 21.9456 125.382 21.9456C124.345 21.8757 123.373 21.4619 122.679 21.1127C120.702 20.14 118.972 18.7913 117.515 17.0556C116.339 15.637 115.538 14.2828 114.985 12.8642C114.635 12.0313 114.501 11.3757 114.571 10.7148C114.603 10.3333 114.743 9.98935 115.054 9.70993L116.231 8.53311C116.333 8.43102 116.511 8.2913 116.715 8.2913C116.924 8.2913 117.059 8.3934 117.198 8.53311C117.408 8.74268 117.612 8.94688 117.822 9.15645C117.924 9.25855 118.031 9.39826 118.171 9.50573L119.144 10.4783C119.246 10.5804 119.385 10.79 119.385 10.962C119.385 11.1715 119.246 11.3435 119.144 11.4456C119.042 11.5477 118.934 11.6552 118.832 11.7573C118.52 12.0689 118.241 12.3484 117.967 12.6224C117.967 12.6224 117.967 12.6224 117.935 12.6546C117.591 12.9986 117.655 13.3156 117.725 13.5198V13.552C117.967 14.1754 118.348 14.7289 118.87 15.422C119.842 16.6365 120.879 17.5715 122.024 18.2969C122.164 18.399 122.336 18.4689 122.475 18.5387C122.615 18.6086 122.717 18.6408 122.819 18.7107L122.851 18.7429C123.195 18.9149 123.545 18.845 123.824 18.571L125.038 17.3565C125.141 17.2544 125.318 17.1147 125.522 17.1147C125.694 17.1147 125.866 17.2544 125.973 17.3565L127.913 19.2964C128.22 19.6242 128.22 19.9681 127.908 20.3174Z" fill="white"/>
<path d="M247.564 154.372L227.951 151.761L228.107 153.706L211.336 155.941C211.336 155.941 200.524 183.062 210.051 242.703H223.695L228.606 182.224H230.348L235.103 242.703H248.747C258.269 183.062 247.564 154.372 247.564 154.372Z" fill="#8E716C"/>
<path d="M222.367 182.229H236.597" stroke="#282828" stroke-width="1.2333" stroke-miterlimit="10" stroke-linecap="round" stroke-linejoin="round"/>
<path d="M259.02 125.763C257.343 123.087 247.918 123.179 247.418 123.12C244.871 122.819 249.052 143.098 254.356 160.826C255.371 164.222 259.111 165.995 262.379 164.609C262.416 164.593 262.448 164.577 262.486 164.566C265.071 163.47 266.538 160.729 266.022 157.973C263.491 144.598 260.96 128.858 259.02 125.763Z" fill="#FFB1A5"/>
<path d="M261.266 133.098L249.229 137.768L248.1 132.056L260.567 128.95L261.266 133.098Z" fill="#F3978E"/>
<path d="M263.539 144.522C263.539 144.522 257.838 152.18 258.112 151.825C258.386 151.47 262.583 139.45 262.583 139.45L263.539 144.522Z" fill="#F3978E"/>
<path d="M271.691 134.227L255.35 155.399C253.206 158.177 253.889 162.196 256.833 164.109C259.773 166.017 263.717 165.012 265.388 161.933L278.988 136.838L271.691 134.227Z" fill="#FFB1A5"/>
<path d="M275.92 139.665C272.379 138.52 270.434 134.721 271.578 131.18C272.723 127.639 276.522 125.694 280.063 126.838C283.604 127.983 285.55 131.782 284.405 135.323C283.266 138.864 279.461 140.809 275.92 139.665Z" fill="#FFB1A5"/>
<path d="M282.907 129.197C282.907 129.197 284.75 127.284 281.478 125.941C278.205 124.597 274.159 124.904 271.574 131.18L282.907 129.197Z" fill="#FFB1A5"/>
<path d="M286.297 115.817L293.137 118.783C293.519 118.95 293.658 119.401 293.449 119.794L284.448 136.608C284.239 137 283.76 137.183 283.379 137.016L276.538 134.05C276.157 133.883 276.017 133.432 276.227 133.04L285.227 116.226C285.437 115.839 285.921 115.651 286.297 115.817Z" fill="#372F5F"/>
<path d="M285.646 115.521L292.486 118.488C292.868 118.654 293.008 119.106 292.798 119.498L283.797 136.312C283.588 136.704 283.109 136.887 282.728 136.72L275.887 133.754C275.506 133.587 275.366 133.136 275.576 132.744L284.576 115.93C284.786 115.537 285.264 115.355 285.646 115.521Z" fill="#261B43"/>
<path d="M284.873 117.23L290.886 119.836L283.551 133.539L277.538 130.933L284.873 117.23Z" fill="#E6E6E6"/>
<path d="M290.886 119.836L277.538 130.933L284.873 117.23L290.886 119.836Z" fill="white"/>
<path d="M279.515 125.382C279.515 125.382 281.041 125.677 282.412 126.457C283.019 126.8 283.325 127.499 283.159 128.176C283.008 128.794 282.487 129.251 281.858 129.331L278.301 129.777C278.301 129.777 276.447 132.975 274.018 133.335L276.243 127.719L279.515 125.382Z" fill="#FFB1A5"/>
<path d="M234.087 99.0996C233.695 99.0996 259.316 102.646 263.54 131.852L250.246 133.888L247.564 155.941H210.476L203.114 115.199C203.114 115.199 211.33 103.425 226.586 99.0996H234.087Z" fill="#56DFED"/>
<path d="M250.245 133.894L251.401 121.137" stroke="#282828" stroke-width="1.2333" stroke-miterlimit="10" stroke-linecap="round" stroke-linejoin="round"/>
<path d="M236.521 99.5189V89.3735H224.63V99.6371C224.022 99.8198 223.007 100.185 221.438 100.932L230.713 106.456L240.192 100.932C240.192 100.932 238.687 100.056 236.521 99.5189Z" fill="#FFB1A5"/>
<path d="M224.522 90.6094C224.522 90.6094 226.655 96.2785 232.357 95.7895C237.596 95.3381 236.763 87.4819 236.763 87.4819L224.522 90.6094Z" fill="#282828"/>
<path d="M219.337 83.0702C217.472 84.7629 213.307 78.3468 215.108 76.5467C216.908 74.7465 218.283 77.5731 218.283 77.5731L219.089 79.486L219.697 82.0761L219.842 82.7532L219.337 83.0702Z" fill="#F3978E"/>
<path d="M215.973 78.8196C215.973 78.8196 217.386 78.1856 218.638 80.2275" stroke="#282828" stroke-width="0.9928" stroke-miterlimit="10" stroke-linecap="round" stroke-linejoin="round"/>
<path d="M241.374 82.8767C243.088 84.7199 247.785 78.68 246.14 76.7347C244.496 74.7895 242.889 77.487 242.889 77.487L241.927 79.3248L241.105 81.8558L240.906 82.5221L241.374 82.8767Z" fill="#F3978E"/>
<path d="M245.082 78.9272C245.082 78.9272 243.728 78.1749 242.309 80.1094" stroke="#282828" stroke-width="0.9928" stroke-miterlimit="10" stroke-linecap="round" stroke-linejoin="round"/>
<path d="M216.064 70.4316C216.064 78.9165 222.534 82.9413 230.519 82.9413C238.504 82.9413 244.974 78.9165 244.974 70.4316C244.974 61.9468 238.504 56.1702 230.519 56.1702C222.534 56.1702 216.064 61.9468 216.064 70.4316Z" fill="#282828"/>
<path d="M218.03 71.0226C218.03 76.235 218.767 80.7273 219.503 83.9192C220.223 87.0413 222.249 89.2283 225.107 90.9855L225.629 91.3079C228.654 93.1672 232.566 93.2102 235.64 91.4208C238.74 89.6152 240.911 87.2294 241.577 83.8763C242.792 77.7772 242.926 71.028 242.926 71.028C242.926 71.028 244.081 57.8735 230.658 58.1314C217.23 58.384 218.03 71.0226 218.03 71.0226Z" fill="#FFB1A5"/>
<path d="M229.664 78.5295V80.3512C229.664 80.4587 229.686 80.5607 229.723 80.6575C229.874 81.0283 230.304 81.2056 230.69 81.1035L231.523 80.8832" stroke="#282828" stroke-width="1.2316" stroke-miterlimit="10" stroke-linecap="round" stroke-linejoin="round"/>
<path d="M227.531 71.4742L220.857 73.0379C220.857 73.0379 221.158 71.3398 223.888 70.7219C226.618 70.1039 227.531 71.4742 227.531 71.4742Z" fill="#282828"/>
<path d="M233.453 71.4742L239.896 73.0379C239.896 73.0379 239.605 71.3398 236.967 70.7219C234.329 70.1039 233.453 71.4742 233.453 71.4742Z" fill="#282828"/>
<path d="M224.995 77.4979C225.615 77.4979 226.118 76.995 226.118 76.3748C226.118 75.7545 225.615 75.2517 224.995 75.2517C224.375 75.2517 223.872 75.7545 223.872 76.3748C223.872 76.995 224.375 77.4979 224.995 77.4979Z" fill="#282828"/>
<path d="M236.784 76.3748C236.784 76.9927 236.279 77.4979 235.661 77.4979C235.038 77.4979 234.538 76.9927 234.538 76.3748C234.538 75.7568 235.043 75.2517 235.661 75.2517C236.284 75.2517 236.784 75.7514 236.784 76.3748Z" fill="#282828"/>
<path d="M226.117 83.2207H234.796C234.796 83.2207 230.948 87.9011 226.117 83.2207Z" fill="white"/>
<path d="M227.901 80.1915C229.769 78.3239 229.769 75.2958 227.901 73.4281C226.034 71.5605 223.005 71.5605 221.138 73.4281C219.27 75.2958 219.27 78.3239 221.138 80.1915C223.005 82.0592 226.034 82.0592 227.901 80.1915Z" stroke="#C98BD2" stroke-width="1.3423" stroke-miterlimit="10"/>
<path d="M239.654 80.1937C241.521 78.326 241.521 75.298 239.654 73.4303C237.786 71.5627 234.758 71.5626 232.89 73.4303C231.023 75.298 231.023 78.3261 232.89 80.1937C234.758 82.0614 237.786 82.0614 239.654 80.1937Z" stroke="#C98BD2" stroke-width="1.3423" stroke-miterlimit="10"/>
<path d="M229.304 76.8101C229.304 76.8101 230.438 75.7515 231.491 76.8101" stroke="#C98BD2" stroke-width="1.3423" stroke-miterlimit="10"/>
<path d="M219.735 76.8101L218.23 76.7725" stroke="#C98BD2" stroke-width="1.3423" stroke-miterlimit="10"/>
<path d="M241.062 76.8101L242.578 76.7725" stroke="#C98BD2" stroke-width="1.3423" stroke-miterlimit="10"/>
<path d="M242.755 75.3859C242.755 75.3859 237.387 68.1316 238.623 60.7751C238.623 60.7751 242.604 62.7795 243.647 67.9542C244.684 73.129 242.755 75.3859 242.755 75.3859Z" fill="#282828"/>
<path d="M218.02 75.8749C218.02 75.8749 224.253 67.6318 223.017 60.2808C223.017 60.2808 218.692 62.7795 217.655 67.9542C216.617 73.129 218.02 75.8749 218.02 75.8749Z" fill="#282828"/>
<path d="M242.303 63.6716C242.303 63.6716 235.409 71.2161 216.553 69.9265C216.553 69.9265 219.438 58.8515 228.579 57.6747C228.579 57.6747 239.133 56.4119 242.303 63.6716Z" fill="#282828"/>
<path d="M250.719 56.2948C251.512 51.3845 248.174 46.7612 243.264 45.9683C238.354 45.1755 233.73 48.5133 232.938 53.4236C232.145 58.3339 235.483 62.9572 240.393 63.75C245.303 64.5429 249.926 61.2051 250.719 56.2948Z" fill="#282828"/>
<path d="M131.906 154.351L115.135 152.115L115.291 150.165L95.6771 152.776C95.6771 152.776 84.973 181.466 94.5003 241.107H108.144L112.899 180.628H114.641L119.552 241.107H133.195C142.717 181.471 131.906 154.351 131.906 154.351Z" fill="#282828"/>
<path d="M130.573 72.7582C128.306 70.0876 126.484 66.9709 124.942 62.6022C123.281 57.911 117.854 59.8187 117.854 59.8187C117.854 59.8187 113.329 53.9991 106.521 56.0249C99.7127 58.0508 97.3483 62.8977 97.2086 68.6582C97.0689 74.4187 92.539 75.3161 89.0515 81.9793C82.8934 93.7421 93.259 103.651 112.136 100.9L112.163 100.717C114.023 101.281 116.301 101.528 119.079 101.362C141.75 100.018 139.563 83.3388 130.573 72.7582Z" fill="#282828"/>
<path d="M123.147 81.4796C125.011 83.1723 129.176 76.7563 127.376 74.9561C125.576 73.156 124.2 75.9825 124.2 75.9825L123.394 77.8955L122.787 80.4855L122.642 81.1626L123.147 81.4796Z" fill="#F3978E"/>
<path d="M126.504 77.2291C126.504 77.2291 125.091 76.595 123.839 78.6369" stroke="#282828" stroke-width="0.9928" stroke-miterlimit="10" stroke-linecap="round" stroke-linejoin="round"/>
<path d="M101.11 81.2862C99.3956 83.1293 94.6991 77.0894 96.3434 75.1442C97.9877 73.1989 99.5944 75.8965 99.5944 75.8965L100.556 77.7342L101.378 80.2652L101.577 80.9315L101.11 81.2862Z" fill="#F3978E"/>
<path d="M97.4034 77.3366C97.4034 77.3366 98.7576 76.5843 100.176 78.5188" stroke="#282828" stroke-width="0.9928" stroke-miterlimit="10" stroke-linecap="round" stroke-linejoin="round"/>
<path d="M126.414 68.8464C126.414 77.3313 119.944 81.3561 111.959 81.3561C103.98 81.3561 97.5044 77.3313 97.5044 68.8464C97.5044 60.3616 103.974 54.585 111.959 54.585C119.944 54.585 126.414 60.3562 126.414 68.8464Z" fill="#282828"/>
<path d="M117.854 87.783H105.962V103.178H117.854V87.783Z" fill="#FFB1A5"/>
<path d="M104.226 86.821C104.226 86.821 107.536 93.4252 111.609 94.4569C112.695 94.731 113.861 94.6396 114.908 94.2688C116.44 93.7261 118.385 91.4423 118.713 88.9114L118.869 87.4659C118.863 87.4659 111.62 91.4101 104.226 86.821Z" fill="#282828"/>
<path d="M124.453 69.4321C124.453 74.6444 123.717 79.1367 122.981 82.3287C122.261 85.4507 120.235 87.6378 117.376 89.3949L116.855 89.7173C113.83 91.5766 109.918 91.6196 106.844 89.8302C103.744 88.0247 101.573 85.6388 100.906 82.2857C99.692 76.1867 99.5576 69.4374 99.5576 69.4374C99.5576 69.4374 98.4023 56.2829 111.826 56.5409C125.249 56.7988 124.453 69.4321 124.453 69.4321Z" fill="#FFB1A5"/>
<path d="M111.068 77.6538V78.7339C111.068 78.8414 111.089 78.9435 111.127 79.0402C111.277 79.411 111.707 79.5883 112.094 79.4862L112.927 79.2659" stroke="#282828" stroke-width="1.2298" stroke-miterlimit="10" stroke-linecap="round" stroke-linejoin="round"/>
<path d="M113.862 70.5231L121.003 72.2158C121.003 72.2158 120.681 70.378 117.758 69.7117C114.84 69.0453 113.862 70.5231 113.862 70.5231Z" fill="#282828"/>
<path d="M110.117 70.5231L102.884 72.2158C102.884 72.2158 103.212 70.378 106.172 69.7117C109.128 69.0453 110.117 70.5231 110.117 70.5231Z" fill="#282828"/>
<path d="M107.52 74.9563C107.52 75.5743 107.015 76.074 106.397 76.074C105.774 76.074 105.274 75.5743 105.274 74.9563C105.274 74.3384 105.779 73.8386 106.397 73.8386C107.015 73.8386 107.52 74.3384 107.52 74.9563Z" fill="#282828"/>
<path d="M118.188 74.9563C118.188 75.5743 117.683 76.074 117.065 76.074C116.441 76.074 115.942 75.5743 115.942 74.9563C115.942 74.3384 116.447 73.8386 117.065 73.8386C117.688 73.8386 118.188 74.3384 118.188 74.9563Z" fill="#282828"/>
<path d="M106.779 81.3562H116.656C116.656 81.3562 115.957 84.0699 111.481 84.0699C108.069 84.0699 106.779 81.3562 106.779 81.3562Z" fill="white"/>
<path d="M99.7293 73.7956C99.7293 73.7956 105.098 66.5412 103.862 59.1848C103.862 59.1848 99.8798 61.1892 98.8373 66.3639C97.8002 71.544 99.7293 73.7956 99.7293 73.7956Z" fill="#282828"/>
<path d="M124.458 73.5537C124.458 73.5537 118.225 66.0469 119.461 58.6958C119.461 58.6958 123.787 61.1945 124.824 66.3693C125.861 71.544 124.458 73.5537 124.458 73.5537Z" fill="#282828"/>
<path d="M100.18 62.081C100.18 62.081 106.338 70.3617 125.199 69.0667C125.199 69.0667 123.045 57.2609 113.904 56.0841C113.904 56.0841 103.35 54.8213 100.18 62.081Z" fill="#282828"/>
<path d="M82.9905 190.768C82.7165 191.198 98.6868 121.282 93.9473 122.341C93.512 122.437 85.2098 123.206 83.9793 125.715C80.4005 132.991 77.8373 190.236 77.8373 190.236L82.9905 190.768Z" fill="#FFB1A5"/>
<path d="M77.8314 190.241C77.8314 190.241 75.2575 202.181 84.989 203.487C85.6285 203.573 86.2518 203.197 86.4614 202.584L86.4882 202.503C86.7193 201.826 86.3808 201.106 85.7306 200.816C84.1454 200.107 81.6843 198.312 82.9041 194.244C82.9041 194.244 84.3119 194.072 85.0857 196.695C85.2846 197.372 86.0422 197.71 86.6709 197.393C87.1008 197.178 87.3426 196.716 87.2835 196.238C87.0525 194.4 86.1282 189.978 82.5817 188.79L77.8314 190.241Z" fill="#FFB1A5"/>
<path d="M81.1036 142.518C81.1036 142.518 90.3032 155.474 90.3516 155.227C90.3999 154.974 93.5703 137.032 93.5703 137.032L82.4041 132.196L81.1036 142.518Z" fill="#F3978E"/>
<path d="M106.672 100.642C107.064 100.642 83.9308 101.056 79.7018 130.261L92.996 132.298L95.6774 154.351H132.766L140.128 113.608C140.128 113.608 134.894 104.78 119.638 100.459L106.672 100.642Z" fill="#00857B"/>
<path d="M95.3666 104.172C95.3666 104.172 98.6337 108.514 112.03 108.514C125.303 108.514 128.694 103.947 128.694 103.947C128.694 103.947 120.87 99.578 111.794 98.1594C111.794 98.1648 103.685 99.6049 95.3666 104.172Z" fill="#FFB1A5"/>
<path d="M140.874 196.711L140.906 254.96H169.725L171.938 196.711H140.874Z" fill="#005683"/>
<path d="M203.449 196.711L203.417 254.96H174.598L172.384 196.711H203.449Z" fill="#005683"/>
<path d="M187.711 196.711H157.915V216.948H187.711V196.711Z" fill="#005683"/>
<path d="M162.073 216.948H182.627" stroke="#282828" stroke-width="1.3968" stroke-miterlimit="10" stroke-linecap="round" stroke-linejoin="round"/>
<path d="M221.655 145.871C223.444 165.608 221.558 179.993 222.079 216.313L204.879 217.033L202.315 149.047L221.655 145.871Z" fill="#FFB1A5"/>
<path d="M204.433 161.277C204.433 161.277 215.083 160.304 222.364 155.5L222.171 151.271L204.422 153.69L204.433 161.277Z" fill="#F3978E"/>
<path d="M187.345 100.427C187.345 100.427 221.178 108.933 227.309 151.879C227.309 151.879 210.753 159.058 194.159 155.968L197.894 141.604L187.345 100.427Z" fill="#C98BD2"/>
<path d="M86.2897 118.283L111.481 148.031L103.775 169.741C103.775 169.741 84.6292 143.12 76.0261 122.544L86.2897 118.283Z" fill="#FFB1A5"/>
<path d="M87.1175 119.353C87.1175 119.353 78.2726 124.35 76.021 122.545C72.0876 119.385 68.8419 107.821 68.8419 107.821C68.8419 107.821 85.3818 101.588 85.226 101.829C85.0755 102.071 87.1175 119.353 87.1175 119.353Z" fill="#FFB1A5"/>
<path d="M87.1162 119.353C86.9604 118.461 90.3941 108.858 91.5763 105.252C91.8611 104.382 91.2593 103.431 90.3189 103.248C89.7063 103.13 88.7337 103.205 88.2716 104.086L84.1232 111.179L87.1162 119.353Z" fill="#FFB1A5"/>
<path d="M86.8159 108.971L83.9679 94.8006C83.8013 93.8602 82.8502 93.21 81.9044 93.3874C81.0876 93.5432 80.5449 94.2686 80.6416 95.0908L81.8829 105.644L86.8159 108.971Z" fill="#FFB1A5"/>
<path d="M81.1528 103.742L77.2838 93.6239C76.9614 92.7373 75.9673 92.2483 75.086 92.5438C74.323 92.8017 73.8931 93.5702 74.0758 94.3601L76.9453 106.053L81.1528 103.742Z" fill="#FFB1A5"/>
<path d="M76.9938 106.725L72.0985 96.7836C71.6471 95.8594 70.5294 95.4349 69.6159 95.8325C68.7561 96.2087 68.3746 97.1813 68.74 98.0733L72.6412 107.461L76.9938 106.725Z" fill="#FFB1A5"/>
<path d="M68.8413 107.821L64.9992 101.727C64.6821 101.012 64.9723 100.206 65.6709 99.8893C66.3372 99.583 67.1593 99.8249 67.5892 100.448L72.6404 107.455L68.8413 107.821Z" fill="#FFB1A5"/>
<path d="M86.0426 107.907C86.0426 107.907 80.2768 107.3 79.6803 114.989" stroke="#282828" stroke-width="1.5317" stroke-miterlimit="10" stroke-linecap="round" stroke-linejoin="round"/>
<path d="M98.6655 159.585C98.6655 159.585 103.405 175.979 112.846 173.803C122.288 171.621 137.001 151.46 137.001 151.46L133.707 117.031L107.21 149.644L98.6655 159.585Z" fill="#FFB1A5"/>
<path d="M115.425 139.509C115.425 139.509 124.372 153.002 132.003 157.763L137 151.46L117.731 136.553L115.425 139.509Z" fill="#F3978E"/>
<path d="M154.567 99.6799C154.567 99.6799 128.301 105.602 114.302 136.129C114.302 136.129 122.761 148.87 136.318 154.533L145.394 143.415L154.567 99.6799Z" fill="#C98BD2"/>
<path d="M154.567 99.5887C144.309 104.849 137.855 111.83 137.855 111.83L139.881 201.063H204.541L204.332 112.292C204.332 112.292 196.18 104.317 187.346 100.427C179.844 97.1222 161.864 95.8486 154.567 99.5887Z" fill="#C98BD2"/>
<path d="M185.164 143.066C180.199 143.066 176.168 139.041 176.168 134.071V125.075H194.154V134.071C194.159 139.041 190.129 143.066 185.164 143.066Z" stroke="#282828" stroke-width="1.3968" stroke-miterlimit="10" stroke-linecap="round" stroke-linejoin="round"/>
<path d="M204.433 156.301L205.272 127.107" stroke="#282828" stroke-width="1.3968" stroke-miterlimit="10" stroke-linecap="round" stroke-linejoin="round"/>
<path d="M138.849 151.433L137.452 126.129" stroke="#282828" stroke-width="1.3968" stroke-miterlimit="10" stroke-linecap="round" stroke-linejoin="round"/>
<path d="M155.323 66.9925L152.625 53.6607C152.475 52.5752 152.05 50.8986 152.566 49.3242C153.421 46.718 156.559 41.7152 161.922 44.0043L163.082 49.2812C163.082 49.2812 157.515 50.4043 155.28 57.6908L155.323 66.9925Z" fill="#282828"/>
<path d="M161.529 46.7556C161.432 48.5074 159.885 56.1755 154.447 58.9644C154.452 58.9698 149.686 48.7546 161.529 46.7556Z" fill="#282828"/>
<path d="M180.605 97.133V74.4888H159.729V97.133L153.517 99.9649C153.517 99.9649 154.973 109.347 170.385 109.557C185.796 109.766 187.344 100.427 187.344 100.427L180.605 97.133Z" fill="#FFB1A5"/>
<path d="M161.927 44.0043C161.927 44.0043 165.758 33.8966 177.569 39.2702C184.721 42.5212 186.72 46.8792 187.575 49.969C187.859 50.9954 187.972 52.6128 187.892 53.5747L185.033 66.9925L173.877 48.4268L163.082 49.2812L161.927 44.0043Z" fill="#282828"/>
<path d="M185.034 66.9926C185.034 66.9926 186.441 64.7518 189.343 65.8534C192.245 66.955 190.934 74.0051 186.581 74.9025C186.581 74.9025 185.023 75.241 183.798 74.1717C183.798 74.1771 184.867 68.9701 185.034 66.9926Z" fill="#F3978E"/>
<path d="M188.768 68.3466C188.768 68.3466 186.339 67.5351 184.609 71.1139" stroke="#282828" stroke-width="1.3968" stroke-miterlimit="10" stroke-linecap="round" stroke-linejoin="round"/>
<path d="M155.323 66.9926C155.323 66.9926 153.915 64.7518 151.014 65.8534C148.112 66.955 149.423 74.0051 153.776 74.9025C153.776 74.9025 155.334 75.241 156.559 74.1717C156.564 74.1771 155.495 68.9701 155.323 66.9926Z" fill="#F3978E"/>
<path d="M151.589 68.3466C151.589 68.3466 154.017 67.5351 155.748 71.1139" stroke="#282828" stroke-width="1.3968" stroke-miterlimit="10" stroke-linecap="round" stroke-linejoin="round"/>
<path d="M185.323 60.3078C185.323 64.5583 184.909 73.4462 182.293 78.723C179.842 83.6775 175.785 86.3428 170.465 86.504C165.145 86.6652 161.185 84.6125 158.009 78.1803C154.834 71.7481 154.984 60.383 154.984 60.383C154.984 60.383 154.984 45.2026 169.987 45.2026C185.796 45.2026 185.323 60.3078 185.323 60.3078Z" fill="#FFB1A5"/>
<path d="M159.886 81.3506C159.886 81.3506 161.632 90.2224 169.354 91.238C178.237 92.4094 180.601 81.5763 180.601 81.5763C180.601 81.5763 176.678 86.4931 170.466 86.5038C163.545 86.5092 159.886 81.3506 159.886 81.3506Z" fill="#282828"/>
<path d="M169.091 66.6055V70.1198C169.091 70.2702 169.117 70.4153 169.171 70.5497C169.381 71.0709 169.977 71.3181 170.52 71.173L171.686 70.8613" stroke="#282828" stroke-width="1.3968" stroke-miterlimit="10" stroke-linecap="round" stroke-linejoin="round"/>
<path d="M164.657 64.9289C164.657 65.6812 164.044 66.2937 163.292 66.2937C162.54 66.2937 161.927 65.6812 161.927 64.9289C161.927 64.1766 162.54 63.564 163.292 63.564C164.044 63.564 164.657 64.1766 164.657 64.9289Z" fill="#282828"/>
<path d="M177.462 64.9289C177.462 65.6812 176.85 66.2937 176.097 66.2937C175.345 66.2937 174.732 65.6812 174.732 64.9289C174.732 64.1766 175.345 63.564 176.097 63.564C176.85 63.564 177.462 64.1766 177.462 64.9289Z" fill="#282828"/>
<path d="M172.6 58.1367L181.783 60.5065C181.783 60.5065 181.364 57.9325 177.608 56.9922C173.852 56.0572 172.6 58.1367 172.6 58.1367Z" fill="#282828"/>
<path d="M166.898 58.1367L157.715 60.5065C157.715 60.5065 158.134 57.9325 161.89 56.9922C165.641 56.0572 166.898 58.1367 166.898 58.1367Z" fill="#282828"/>
<path d="M165.071 73.6609C165.071 73.6609 166.425 74.698 169.988 74.698C173.228 74.698 175.249 73.6609 175.249 73.6609" stroke="#282828" stroke-width="1.3968" stroke-miterlimit="10" stroke-linecap="round" stroke-linejoin="round"/>
<path d="M162.928 71.1301C166.133 71.1301 168.731 68.5318 168.731 65.3267C168.731 62.1215 166.133 59.5232 162.928 59.5232C159.723 59.5232 157.125 62.1215 157.125 65.3267C157.125 68.5318 159.723 71.1301 162.928 71.1301Z" stroke="white" stroke-width="1.9514" stroke-miterlimit="10"/>
<path d="M177.184 71.1301C180.389 71.1301 182.987 68.5318 182.987 65.3267C182.987 62.1215 180.389 59.5232 177.184 59.5232C173.979 59.5232 171.38 62.1215 171.38 65.3267C171.38 68.5318 173.979 71.1301 177.184 71.1301Z" stroke="white" stroke-width="1.9514" stroke-miterlimit="10"/>
<path d="M168.731 65.3267C168.731 65.3267 170.107 64.0424 171.38 65.3267" stroke="white" stroke-width="1.9514" stroke-miterlimit="10"/>
<path d="M157.124 65.3267L155.174 65.2783" stroke="white" stroke-width="1.9514" stroke-miterlimit="10"/>
<path d="M182.987 65.3267L185.158 65.2944" stroke="white" stroke-width="1.9514" stroke-miterlimit="10"/>
<path d="M159.886 47.1048C159.886 47.1048 162.675 55.0255 175.249 54.7783C183.793 54.6117 185.835 60.7967 185.835 60.7967C185.835 60.7967 184.346 46.9705 183.954 47.1048C183.562 47.2338 170.95 43.741 170.95 43.741L159.886 47.1048Z" fill="#282828"/>
</svg>
