<svg width="846" height="484" viewBox="0 0 846 484" fill="none" xmlns="http://www.w3.org/2000/svg">
<g filter="url(#filter0_d_3_430)">
<path d="M238.007 20.4102C241.417 18.9796 243.844 15.4609 243.864 11.3156C243.887 5.88489 239.777 1.46355 234.684 1.43955C229.593 1.41555 225.447 5.79954 225.424 11.2302C225.407 15.4142 227.851 18.9742 231.3 20.4102C217.111 22.5476 217.753 37.9689 217.753 37.9689L251.305 38.1235C251.305 38.1235 252.072 22.5342 238.007 20.4102Z" fill="#DADBD8"/>
<path d="M782.743 101.534L767.171 84.7835L772.212 80.0955L782.963 91.6595L805.536 69.4502L810.364 74.3568L782.743 101.534Z" fill="#385DB4"/>
<path d="M545.536 203.03C537.293 207.824 528.939 198.964 533.457 190.221C534.059 189.058 534.979 188.081 536.076 187.444C544.319 182.65 552.675 191.51 548.155 200.253C547.553 201.417 546.633 202.393 545.536 203.03ZM557.057 193.069C557.057 181.622 545.029 174.372 532.768 180.109C529.999 181.405 527.707 183.598 526.316 186.293C523.231 192.269 524.592 199.093 527.391 204.76L536.933 228.945C538.308 232.432 543.251 232.41 544.596 228.913L553.953 204.601C557.193 197.196 557.057 193.069 557.057 193.069Z" fill="#E7E8E5"/>
<path d="M698.857 359.231C673.16 335.763 671.692 298.563 677.277 266.073C678.211 260.647 678.391 254.819 681.671 250.401C684.952 245.979 691.525 243.555 696.155 246.53C699.992 248.998 701.137 253.951 702.899 258.161C705.241 263.758 709.2 268.672 714.176 272.146C717.445 274.43 721.643 276.129 725.373 274.715C730.491 272.777 731.94 266.361 732.647 260.934C733.965 250.826 735.283 240.717 736.6 230.606C737.307 225.182 738.047 219.647 740.46 214.737C742.871 209.827 747.297 205.569 752.717 204.842C758.139 204.115 764.193 207.977 764.571 213.433C764.727 215.703 763.957 217.933 763.803 220.202C763.647 222.471 764.368 225.109 766.448 226.034C768.552 226.97 770.959 225.734 772.819 224.376C779.235 219.681 784.044 213.16 788.597 206.643C793.151 200.128 797.621 193.43 803.58 188.167C809.537 182.906 817.3 179.154 825.221 179.794C833.145 180.435 840.868 186.378 841.813 194.271C842.761 202.185 837.184 209.317 831.423 214.826C822.879 223.002 813.143 229.931 802.623 235.33C800.724 236.303 798.669 237.357 797.732 239.273C796.047 242.722 799.025 246.789 802.473 248.473C806.385 250.379 810.883 250.571 815.095 251.657C819.309 252.743 823.695 255.243 824.768 259.461C826.257 265.31 820.769 270.47 815.631 273.638C805.341 279.982 793.956 284.549 782.135 287.073C777.895 287.978 773.471 288.673 769.829 291.026C766.191 293.381 763.557 297.981 765.003 302.067C766.448 306.161 771.333 308.075 775.669 307.883C780.007 307.69 784.104 305.943 788.341 304.995C796.272 303.222 805.945 305.074 809.899 312.175C812.496 316.842 811.971 322.773 809.673 327.595C807.377 332.418 803.527 336.314 799.519 339.846C785.508 352.189 768.483 361.337 750.159 364.922C731.835 368.507 715.395 367.901 698.857 359.231Z" fill="#E7E8E5"/>
<path d="M700.9 372.454C703.873 359.693 703.12 355.757 710.273 339.974C717.397 324.176 726.663 307.501 736.959 290.385C739.548 286.118 742.107 281.901 744.631 277.742C747.156 273.597 749.661 269.492 752.363 265.624C757.735 257.862 763.497 250.808 769.181 244.278C774.864 237.745 780.5 231.752 785.812 226.181C791.136 220.622 796.196 215.533 801.011 211.09C810.613 202.166 819.205 195.888 825.281 191.812C828.319 189.764 830.724 188.25 832.368 187.242C833.168 186.76 833.791 186.384 834.245 186.109C834.669 185.858 834.899 185.748 834.899 185.748C834.899 185.748 834.7 185.906 834.289 186.181C833.848 186.472 833.239 186.872 832.457 187.382C830.844 188.436 828.467 189.99 825.464 192.076C819.451 196.23 810.936 202.561 801.409 211.518C796.632 215.977 791.604 221.081 786.307 226.654C781.023 232.24 775.413 238.245 769.756 244.78C764.099 251.306 758.365 258.352 753.028 266.082C750.344 269.937 747.861 274.017 745.332 278.173C742.809 282.328 740.253 286.544 737.665 290.81C727.377 307.914 718.112 324.546 710.968 340.29C703.793 356.015 704.507 359.884 701.467 372.589" fill="#DADBD8"/>
<path d="M752.58 265.572C752.523 265.573 752.46 264.722 752.397 263.185C752.325 261.646 752.289 259.42 752.28 256.67C752.259 251.168 752.479 243.569 752.744 235.189C753.008 226.806 753.096 219.222 752.956 213.734C752.893 210.989 752.816 208.768 752.74 207.234C752.673 205.701 752.661 204.848 752.719 204.842C752.776 204.837 752.895 205.681 753.06 207.21C753.236 208.74 753.403 210.964 753.539 213.713C753.832 219.212 753.835 226.825 753.571 235.214C753.297 243.52 753.049 251.036 752.864 256.677C752.805 259.306 752.756 261.494 752.719 263.184C752.684 264.718 752.637 265.57 752.58 265.572Z" fill="#DADBD8"/>
<path d="M824.956 262.25C824.953 262.28 824.696 262.284 824.213 262.268C823.632 262.24 822.936 262.202 822.099 262.16C820.264 262.057 817.613 261.904 814.331 261.821C807.772 261.602 798.696 261.629 788.691 262.102C778.683 262.594 769.645 263.43 763.131 264.233C759.869 264.612 757.24 264.99 755.419 265.244C754.589 265.356 753.897 265.45 753.321 265.528C752.841 265.584 752.585 265.6 752.58 265.572C752.576 265.542 752.82 265.472 753.293 265.362C753.861 265.244 754.545 265.1 755.365 264.928C757.171 264.574 759.795 264.106 763.053 263.653C769.564 262.702 778.619 261.77 788.651 261.278C798.681 260.802 807.783 260.869 814.356 261.238C817.641 261.396 820.296 261.637 822.125 261.84C822.959 261.944 823.651 262.029 824.228 262.101C824.707 262.172 824.96 262.221 824.956 262.25Z" fill="#DADBD8"/>
<path d="M711.237 338.776C711.209 338.784 711.089 338.465 710.889 337.854C710.668 337.154 710.388 336.262 710.041 335.162C709.313 332.824 708.345 329.413 707.2 325.185C704.903 316.733 702.088 304.961 699.149 291.929C696.207 278.896 693.487 267.116 691.337 258.633C690.265 254.473 689.388 251.07 688.751 248.597C688.467 247.48 688.236 246.574 688.056 245.866C687.905 245.24 687.839 244.905 687.865 244.897C687.893 244.889 688.013 245.206 688.216 245.82C688.435 246.518 688.715 247.409 689.061 248.51C689.789 250.849 690.756 254.258 691.901 258.486C694.2 266.941 697.015 278.713 699.955 291.748C702.896 304.777 705.616 316.556 707.765 325.038C708.839 329.197 709.715 332.602 710.352 335.074C710.637 336.192 710.867 337.097 711.047 337.808C711.197 338.434 711.264 338.768 711.237 338.776Z" fill="#DADBD8"/>
<path d="M809.129 321.826C809.133 321.852 808.793 321.933 808.143 322.058C807.405 322.189 806.46 322.358 805.293 322.566C802.712 323.01 799.153 323.622 794.801 324.369C785.947 325.902 773.74 328.169 760.26 330.706C746.777 333.242 734.544 335.422 725.659 336.808C721.215 337.505 717.616 338.033 715.121 338.352C713.943 338.498 712.989 338.617 712.248 338.708C711.588 338.78 711.241 338.804 711.237 338.776C711.232 338.746 711.573 338.669 712.224 338.542C712.96 338.41 713.904 338.242 715.073 338.034C717.652 337.59 721.209 336.981 725.563 336.234C734.419 334.701 746.625 332.43 760.109 329.894C773.588 327.357 785.82 325.18 794.705 323.793C799.149 323.098 802.751 322.569 805.244 322.249C806.421 322.102 807.373 321.985 808.119 321.893C808.777 321.821 809.124 321.797 809.129 321.826Z" fill="#DADBD8"/>
<path d="M6.72915 195.6C6.72915 195.6 14.6719 186.561 32.7802 206.516C50.888 226.468 58.9948 238.612 58.9948 238.612C58.9948 238.612 63.4364 242.617 65.9068 238.537C68.3781 234.457 70.4964 224.214 76.6041 224.294C82.938 224.376 86.6584 230.408 88.1593 240.352C89.6609 250.296 93.7494 271.96 94.126 273.917C94.4969 275.838 96.3302 278.32 98.4584 275.81C100.587 273.301 111.083 252.436 120.686 258.009C130.289 263.581 129.92 291.969 129.939 295.073C129.958 298.178 130.86 299.26 132.431 299.602C134.002 299.945 136.868 292.598 140.096 286.786C143.325 280.974 148.087 274.8 153.359 278.48C158.629 282.16 165.277 301.576 155.201 338.793L149.404 355.732L131.816 359.482C93.6901 365.219 75.165 356.385 72.115 350.726C69.065 345.068 75.7448 341.045 81.8896 338.506C88.0338 335.966 95.6598 333.962 95.5005 332.362C95.3412 330.764 94.3693 329.742 91.2874 329.366C88.2062 328.992 59.964 326.098 55.5306 315.92C51.0969 305.74 73.0302 297.709 75.7672 295.884C78.5036 294.057 76.25 291.952 74.3833 291.362C72.4822 290.764 51.4306 284.214 41.726 281.58C32.0202 278.948 26.4552 274.56 27.101 268.257C27.724 262.182 38.1412 261.253 42.4781 259.268C46.814 257.281 43.3458 252.409 43.3458 252.409C43.3458 252.409 32.214 242.962 14.4719 222.682C-3.27033 202.404 6.9031 195.428 6.9031 195.428" fill="#E7E8E5"/>
<path d="M22.9766 213.441C22.9861 213.434 23.1042 213.55 23.3266 213.788C23.5703 214.053 23.8933 214.405 24.3027 214.852C25.1755 215.826 26.4173 217.212 28.0027 218.982C31.2293 222.613 35.8517 227.813 41.5517 234.228C53.0651 247.081 68.9255 264.792 86.4454 284.352C104.021 303.897 119.851 321.665 131.198 334.622C136.83 341.097 141.395 346.349 144.583 350.014C146.125 351.82 147.333 353.236 148.184 354.23C148.572 354.694 148.877 355.062 149.108 355.338C149.312 355.59 149.413 355.724 149.404 355.732C149.395 355.739 149.277 355.622 149.053 355.385C148.811 355.12 148.488 354.768 148.079 354.322C147.205 353.348 145.964 351.961 144.379 350.19C141.152 346.561 136.531 341.36 130.831 334.946C119.39 322.074 103.505 304.361 85.9293 284.814C68.3594 265.276 52.5318 247.509 41.1839 234.553C35.5527 228.077 30.987 222.825 27.7995 219.16C26.2558 217.353 25.0474 215.938 24.1974 214.942C23.8094 214.478 23.5037 214.112 23.2735 213.834C23.0683 213.582 22.9678 213.449 22.9766 213.441Z" fill="#DADBD8"/>
<path d="M74.2181 238.741C74.3192 238.742 74.3739 240.581 74.4556 243.55C74.5545 246.706 74.6801 250.717 74.8192 255.152C74.9692 259.685 75.0764 263.794 75.0629 266.77C75.054 268.258 75.0196 269.462 74.9712 270.296C74.9181 271.128 74.8655 271.586 74.8176 271.585C74.7176 271.581 74.6868 269.745 74.5712 266.778C74.4504 263.622 74.2963 259.612 74.1249 255.176C73.9749 250.64 73.9212 246.529 73.9644 243.554C73.9895 242.066 74.0228 240.862 74.0744 240.03C74.1207 239.2 74.1696 238.74 74.2181 238.741Z" fill="#DADBD8"/>
<path d="M73.3145 272.324C73.3119 272.516 64.8297 272.549 54.3702 272.4C43.9083 272.249 35.4317 271.973 35.4343 271.781C35.4374 271.589 43.9182 271.556 54.3802 271.705C64.839 271.854 73.3177 272.132 73.3145 272.324Z" fill="#DADBD8"/>
<path d="M105.94 305.344C105.954 305.389 105.52 305.573 104.721 305.864C103.923 306.16 102.757 306.549 101.309 307.012C98.4109 307.922 94.3724 309.085 89.8516 310.129C85.3317 311.182 81.1948 311.924 78.1896 312.374C76.6875 312.604 75.4677 312.758 74.6219 312.849C73.7765 312.937 73.3063 312.962 73.2989 312.916C73.2839 312.817 75.1292 312.465 78.1063 311.892C81.0839 311.317 85.1907 310.502 89.6948 309.452C94.1989 308.412 98.2432 307.329 101.171 306.54C104.097 305.742 105.909 305.246 105.94 305.344Z" fill="#DADBD8"/>
<path d="M113.442 275.148C113.534 275.172 113.179 276.872 112.529 279.6C111.878 282.329 110.934 286.085 109.849 290.225C108.764 294.364 107.744 298.102 106.973 300.798C106.201 303.496 105.677 305.152 105.585 305.128C105.492 305.102 105.847 303.404 106.497 300.676C107.148 297.946 108.092 294.188 109.177 290.049C110.263 285.909 111.282 282.173 112.053 279.476C112.826 276.78 113.349 275.124 113.442 275.148Z" fill="#DADBD8"/>
<path d="M145.947 300.638C145.993 300.652 145.891 301.2 145.667 302.181C145.392 303.3 145.055 304.682 144.655 306.316C143.771 309.8 142.504 314.601 141.063 319.893C139.621 325.185 138.279 329.966 137.275 333.417C136.791 335.029 136.381 336.392 136.049 337.496C135.745 338.454 135.555 338.978 135.509 338.965C135.463 338.953 135.565 338.405 135.789 337.424C136.063 336.305 136.401 334.922 136.801 333.289C137.684 329.804 138.952 325.004 140.393 319.71C141.833 314.418 143.176 309.638 144.181 306.186C144.665 304.576 145.075 303.213 145.405 302.109C145.711 301.15 145.9 300.626 145.947 300.638Z" fill="#DADBD8"/>
<path d="M135.5 337.978C135.513 338.025 134.949 338.222 133.919 338.537C132.89 338.857 131.388 339.282 129.529 339.785C125.807 340.78 120.635 342.052 114.87 343.219C109.107 344.397 103.849 345.254 100.033 345.788C98.1254 346.057 96.5775 346.245 95.5056 346.357C94.4338 346.467 93.8379 346.508 93.8311 346.461C93.825 346.412 94.4078 346.284 95.4676 346.089C96.6666 345.879 98.1696 345.615 99.9572 345.302C103.748 344.646 108.981 343.713 114.732 342.54C120.484 341.374 125.662 340.181 129.409 339.308C131.176 338.898 132.663 338.552 133.849 338.277C134.901 338.041 135.488 337.933 135.5 337.978Z" fill="#DADBD8"/>
<path d="M70.2155 226.501C70.1917 226.434 70.9879 226.582 72.101 225.833C72.627 225.448 73.1973 224.8 73.4421 223.868C73.5745 223.406 73.565 222.89 73.5655 222.32C73.5693 221.752 73.5723 221.149 73.5754 220.512C73.6229 215.365 73.6906 207.984 73.7739 198.878C73.7994 196.594 73.8259 194.202 73.8541 191.71C73.8687 190.464 73.8827 189.193 73.8978 187.897C73.8879 187.25 73.9614 186.578 73.8437 186.001C73.7234 185.405 73.4317 184.842 73.003 184.4C72.5723 183.961 72.0098 183.648 71.3978 183.534C70.8103 183.437 70.0723 183.5 69.3921 183.484C68.0035 183.486 66.5953 183.489 65.1645 183.492C62.3041 183.497 59.3598 183.502 56.3411 183.508C44.2609 183.517 30.9869 183.526 17.0525 183.537C15.4577 183.508 14.0572 184.901 13.951 186.466C13.9218 188.178 13.8926 189.88 13.864 191.568C13.814 194.961 13.7645 198.305 13.7156 201.59C13.615 208.161 13.5182 214.5 13.4249 220.54C13.4135 221.294 13.4015 222.044 13.39 222.789C13.3504 223.504 13.515 224.165 13.8661 224.742C14.2192 225.309 14.7478 225.766 15.3645 225.994C15.9666 226.258 16.6541 226.186 17.3874 226.2C20.2478 226.205 23.0254 226.212 25.7109 226.216C31.0786 226.232 36.0806 226.245 40.651 226.258C49.7557 226.304 57.1363 226.341 62.2833 226.366C64.8073 226.394 66.7811 226.416 68.1645 226.432C68.8098 226.445 69.3155 226.457 69.6947 226.465C70.039 226.477 70.2155 226.489 70.2155 226.501C70.2155 226.513 70.039 226.525 69.6947 226.537C69.3155 226.545 68.8098 226.557 68.1645 226.572C66.7811 226.586 64.8073 226.609 62.2833 226.637C57.1363 226.664 49.7557 226.701 40.651 226.749C36.0806 226.762 31.0786 226.776 25.7109 226.792C23.0254 226.797 20.2478 226.804 17.3879 226.81C16.7046 226.797 15.9015 226.888 15.1432 226.573C14.3963 226.296 13.7583 225.75 13.3333 225.073C12.9093 224.398 12.7135 223.554 12.7572 222.78C12.7661 222.034 12.776 221.285 12.7859 220.529C12.865 214.49 12.9484 208.152 13.0359 201.581C13.0807 198.296 13.127 194.95 13.1734 191.557C13.202 189.852 13.2312 188.134 13.2603 186.405C13.3874 184.513 15.0796 182.812 17.0525 182.844C30.9869 182.852 44.2609 182.86 56.3411 182.868C59.3598 182.873 62.3041 182.877 65.1645 182.881C66.5953 182.884 68.0035 182.886 69.3921 182.889C70.0958 182.913 70.7442 182.84 71.5073 182.96C72.2395 183.1 72.9098 183.477 73.4166 184C73.9213 184.525 74.2609 185.19 74.3983 185.889C74.5333 186.612 74.4447 187.261 74.4541 187.905C74.4322 189.201 74.4109 190.472 74.3895 191.718C74.3463 194.21 74.3046 196.601 74.265 198.885C74.0885 207.989 73.9458 215.369 73.8458 220.516C73.8311 221.153 73.8177 221.756 73.8046 222.322C73.7926 222.88 73.7921 223.436 73.6411 223.922C73.3593 224.904 72.7417 225.566 72.1806 225.948C71.6046 226.325 71.0827 226.45 70.7395 226.49C70.3937 226.533 70.2155 226.501 70.2155 226.501Z" fill="#33535F"/>
<path d="M45.9083 201.164L53.1906 205.584L45.7521 209.949L38.313 214.314L38.4693 205.529L38.6254 196.744L45.9083 201.164Z" fill="#33535F"/>
<path d="M720.368 73.7157C725.036 71.7583 728.357 66.9437 728.384 61.2703C728.415 53.8397 722.791 47.7877 715.821 47.757C708.857 47.7237 703.181 53.7223 703.151 61.1543C703.128 66.8783 706.472 71.7503 711.191 73.7157C691.775 76.641 692.655 97.7437 692.655 97.7437L738.568 97.9543C738.568 97.9543 739.615 76.6223 720.368 73.7157Z" fill="#3948A5"/>
<path d="M453.047 76.377L378.593 83.4397L373.833 33.2557L448.285 26.193L453.047 76.377Z" fill="white"/>
<path d="M453.047 76.3769C453.047 76.3769 452.996 76.0529 452.928 75.4489C452.861 74.8169 452.767 73.9303 452.644 72.7863C452.405 70.4329 452.057 67.0263 451.615 62.6783C450.751 53.9489 449.515 41.4449 448.009 26.2196L448.312 26.4689C427.76 28.4382 401.895 30.9156 373.871 33.6009C373.797 33.6822 374.457 32.8862 374.179 33.2302L374.18 33.2436L374.183 33.2689L374.188 33.3209L374.197 33.4262L374.217 33.6356L374.257 34.0543L374.336 34.8916L374.495 36.5609C374.6 37.6716 374.705 38.7796 374.809 39.8823C375.019 42.0903 375.225 44.2822 375.432 46.4569C375.843 50.8062 376.247 55.0876 376.643 59.2876C377.432 67.6876 378.192 75.7623 378.909 83.4103L378.563 83.1236C400.451 81.1116 419.024 79.4036 432.159 78.1956C438.717 77.6102 443.917 77.1462 447.511 76.8262C449.276 76.6756 450.647 76.5583 451.608 76.4756C452.056 76.4409 452.407 76.4142 452.672 76.3929C452.915 76.3769 453.04 76.3716 453.047 76.3769C453.053 76.3823 452.941 76.3996 452.712 76.4262C452.456 76.4569 452.12 76.4943 451.688 76.5436C450.743 76.6423 449.396 76.7822 447.66 76.9649C444.087 77.3236 438.917 77.8422 432.397 78.4982C419.219 79.7862 400.584 81.6089 378.624 83.7556L378.307 83.7876L378.277 83.4689C377.544 75.8236 376.772 67.7503 375.967 59.3529C375.567 55.1529 375.159 50.8716 374.744 46.5222C374.537 44.3476 374.329 42.1556 374.119 39.9489C374.015 38.8449 373.909 37.7382 373.804 36.6262L373.645 34.9569L373.565 34.1209L373.527 33.7022L373.505 33.4929L373.496 33.3876L373.492 33.3342L373.489 33.3089L373.488 33.2956C373.207 33.6289 373.868 32.8263 373.805 32.9103C401.835 30.2769 427.703 27.8476 448.259 25.9156L448.537 25.8902L448.563 26.1662C449.953 41.4769 451.096 54.0476 451.893 62.8262C452.273 67.1529 452.572 70.5436 452.777 72.8849C452.869 74.0089 452.943 74.8809 452.993 75.5009C453.039 76.0876 453.047 76.3769 453.047 76.3769Z" fill="#33535F"/>
<path d="M448.285 26.193C448.304 26.209 448.104 26.4624 447.709 26.9357C447.265 27.453 446.683 28.1317 445.955 28.9784C444.359 30.793 442.129 33.3237 439.389 36.4357C433.741 42.7517 425.996 51.413 417.363 61.0664L417.167 61.2864L416.919 61.1264C416.291 60.7277 415.615 60.297 414.936 59.8637C403.583 52.581 393.307 45.9904 385.793 41.1704C382.129 38.781 379.143 36.833 377.004 35.437C376.02 34.7784 375.232 34.2504 374.633 33.849C374.096 33.4797 373.82 33.2757 373.833 33.2557C373.845 33.2357 374.147 33.3997 374.709 33.7317C375.324 34.1037 376.136 34.5957 377.149 35.2104C379.317 36.5597 382.344 38.4437 386.056 40.7557C393.599 45.5317 403.913 52.0624 415.309 59.2784C415.988 59.7117 416.664 60.1424 417.292 60.5424L416.848 60.6024C425.543 51.0064 433.344 42.3944 439.032 36.1144C441.84 33.0637 444.124 30.5824 445.759 28.8024C446.527 27.9904 447.14 27.3397 447.608 26.8437C448.036 26.4024 448.268 26.177 448.285 26.193Z" fill="#33535F"/>
<path d="M282.759 86.0796C282.648 86.0889 282.777 84.3062 282.005 81.2595C281.644 79.7329 280.917 77.9329 279.781 76.0289C278.637 74.1315 276.992 72.1529 274.759 70.4756C272.532 68.8142 269.729 67.4036 266.497 66.8382C263.287 66.2929 259.665 66.3982 256.22 67.7116C254.485 68.3156 252.813 69.2276 251.277 70.3782C249.723 71.5076 248.312 72.9089 247.149 74.5316C244.745 77.7302 243.391 81.8409 243.352 86.0769C243.389 90.3142 244.744 94.4262 247.148 97.6262C248.311 99.2489 249.721 100.65 251.276 101.78C252.812 102.932 254.485 103.844 256.22 104.448C259.667 105.761 263.288 105.866 266.499 105.321C269.731 104.754 272.533 103.345 274.76 101.684C276.993 100.006 278.637 98.0262 279.783 96.1289C280.917 94.2249 281.644 92.4249 282.005 90.8996C282.777 87.8529 282.648 86.0689 282.759 86.0796C282.771 86.0796 282.777 86.1889 282.777 86.4022C282.775 86.6569 282.769 86.9689 282.764 87.3502C282.764 87.7689 282.743 88.2849 282.641 88.8889C282.561 89.4942 282.484 90.1982 282.268 90.9649C281.943 92.5209 281.243 94.3662 280.116 96.3275C278.98 98.2822 277.327 100.329 275.057 102.074C272.796 103.801 269.927 105.278 266.604 105.886C263.304 106.474 259.569 106.388 256.001 105.049C254.207 104.432 252.473 103.498 250.881 102.313C249.271 101.15 247.807 99.7049 246.6 98.0275C244.105 94.7235 242.695 90.4622 242.657 86.0769C242.696 81.6916 244.108 77.4315 246.601 74.1289C247.808 72.4529 249.272 71.0076 250.883 69.8462C252.475 68.6622 254.208 67.7276 256.001 67.1102C259.568 65.7716 263.303 65.6849 266.603 66.2716C269.925 66.8809 272.795 68.3569 275.056 70.0849C277.325 71.8289 278.98 73.8769 280.115 75.8302C281.243 77.7915 281.941 79.6369 282.268 81.1929C282.484 81.9595 282.56 82.6649 282.641 83.2689C282.743 83.8742 282.764 84.3902 282.764 84.8089C282.769 85.1902 282.775 85.5022 282.777 85.7569C282.777 85.9702 282.771 86.0796 282.759 86.0796Z" fill="#17282F"/>
<path d="M309.464 119.261C309.356 119.42 302.324 114.888 293.757 109.137C285.188 103.386 278.329 98.5955 278.436 98.4355C278.543 98.2769 285.575 102.809 294.144 108.561C302.711 114.31 309.571 119.102 309.464 119.261Z" fill="#17282F"/>
<path d="M368.405 155.921L352.833 139.17L357.876 134.484L368.625 146.046L391.2 123.837L396.028 128.744L368.405 155.921Z" fill="#3948A5"/>
<path d="M805.305 139.88C805.305 139.88 805.56 139.87 806.06 139.885C806.316 139.894 806.627 139.905 806.991 139.916C807.36 139.95 807.785 140.022 808.271 140.088C810.179 140.404 813.088 141.181 816.067 143.505C818.992 145.776 821.973 149.769 822.619 155.17C822.751 156.513 822.755 157.9 822.749 159.318C822.752 160.742 822.756 162.212 822.76 163.725C822.768 166.754 822.776 169.96 822.785 173.332C822.792 176.704 822.8 180.242 822.807 183.937C822.809 185.784 822.813 187.67 822.816 189.594C822.867 191.5 822.764 193.541 822.231 195.492C821.221 199.414 818.724 203.126 815.115 205.568C813.315 206.785 811.255 207.684 809.067 208.16C806.867 208.673 804.577 208.564 802.332 208.581C784.215 208.593 764.141 208.606 742.815 208.621L743.059 208.52C738.777 212.802 734.235 217.348 729.628 221.956L729.035 222.548V221.71C729.035 219.79 729.035 217.718 729.035 215.638C729.035 213.117 729.035 210.608 729.035 208.277L729.381 208.624C727.929 208.628 726.448 208.656 724.968 208.461C723.493 208.284 722.057 207.888 720.687 207.35C717.94 206.268 715.545 204.437 713.669 202.23C711.843 199.974 710.564 197.305 709.991 194.505C709.736 193.105 709.631 191.664 709.645 190.276C709.645 188.888 709.647 187.506 709.647 186.129C709.651 180.626 709.653 175.225 709.656 169.938C709.659 167.296 709.66 164.681 709.663 162.097C709.713 159.516 709.524 156.965 709.901 154.402C710.296 151.866 711.251 149.457 712.637 147.377C714.028 145.298 715.856 143.568 717.909 142.281C719.965 140.99 722.256 140.157 724.581 139.809C726.927 139.47 729.205 139.632 731.437 139.597C740.381 139.612 748.703 139.626 756.296 139.638C771.46 139.685 783.705 139.722 792.187 139.748C796.399 139.776 799.671 139.797 801.917 139.812C803.012 139.825 803.852 139.837 804.444 139.845C805.015 139.856 805.305 139.88 805.305 139.88C805.305 139.88 805.015 139.904 804.444 139.914C803.852 139.922 803.012 139.933 801.917 139.948C799.671 139.962 796.399 139.984 792.187 140.012C783.705 140.037 771.46 140.074 756.296 140.12C748.703 140.133 740.381 140.148 731.437 140.162C729.204 140.201 726.905 140.053 724.669 140.386C722.423 140.728 720.212 141.54 718.229 142.789C716.249 144.037 714.487 145.712 713.148 147.72C711.816 149.73 710.901 152.054 710.525 154.5C710.167 156.933 710.352 159.52 710.307 162.097C710.308 164.681 710.311 167.296 710.312 169.938C710.315 175.225 710.319 180.626 710.321 186.129C710.383 188.88 710.139 191.685 710.66 194.372C711.213 197.061 712.444 199.625 714.199 201.792C716.005 203.91 718.305 205.67 720.944 206.709C722.26 207.224 723.639 207.605 725.056 207.774C726.461 207.96 727.909 207.934 729.381 207.93L729.729 207.929V208.277C729.729 210.608 729.729 213.117 729.729 215.638C729.729 217.718 729.729 219.79 729.729 221.71L729.137 221.465C733.745 216.858 738.291 212.316 742.572 208.034L742.673 207.934H742.815C764.141 207.948 784.215 207.961 802.332 207.973C804.605 207.961 806.827 208.07 808.94 207.58C811.056 207.125 813.048 206.262 814.792 205.09C818.289 202.738 820.717 199.152 821.708 195.354C822.231 193.448 822.339 191.529 822.297 189.594C822.3 187.67 822.304 185.784 822.305 183.937C822.313 180.242 822.321 176.704 822.328 173.332C822.337 169.96 822.345 166.754 822.352 163.725C822.357 162.212 822.361 160.742 822.364 159.318C822.38 157.89 822.384 156.517 822.263 155.21C821.667 149.918 818.775 145.969 815.913 143.7C813.001 141.377 810.136 140.568 808.249 140.213C807.769 140.138 807.348 140.057 806.981 140.013C806.62 139.988 806.312 139.966 806.056 139.95C805.56 139.914 805.305 139.88 805.305 139.88Z" fill="#33535F"/>
<path d="M752.424 176.368C752.364 176.37 752.352 176.028 752.173 175.465C751.999 174.914 751.599 174.118 750.763 173.518C749.953 172.916 748.647 172.594 747.397 173.072C746.157 173.51 745.096 174.83 745.109 176.368C745.095 177.905 746.157 179.226 747.397 179.665C748.647 180.142 749.953 179.821 750.763 179.218C751.599 178.618 751.999 177.822 752.173 177.27C752.352 176.709 752.364 176.366 752.424 176.368C752.46 176.366 752.541 176.712 752.436 177.337C752.331 177.948 751.971 178.872 751.06 179.609C750.183 180.346 748.673 180.796 747.18 180.268C745.697 179.788 744.397 178.214 744.416 176.368C744.397 174.521 745.699 172.949 747.18 172.469C748.673 171.941 750.183 172.39 751.06 173.128C751.971 173.865 752.331 174.789 752.435 175.4C752.541 176.025 752.46 176.37 752.424 176.368Z" fill="#385DB4"/>
<path d="M770.101 176.196C770.041 176.197 770.028 175.854 769.851 175.293C769.676 174.741 769.276 173.945 768.44 173.345C767.631 172.742 766.324 172.421 765.075 172.898C763.835 173.337 762.773 174.658 762.787 176.194C762.773 177.733 763.835 179.053 765.075 179.493C766.324 179.97 767.632 179.648 768.44 179.045C769.276 178.445 769.676 177.65 769.851 177.098C770.028 176.536 770.041 176.194 770.101 176.196C770.137 176.193 770.219 176.538 770.113 177.164C770.008 177.774 769.647 178.698 768.737 179.436C767.861 180.173 766.351 180.624 764.857 180.094C763.376 179.614 762.075 178.042 762.092 176.194C762.075 174.349 763.376 172.777 764.857 172.296C766.351 171.768 767.86 172.217 768.737 172.956C769.647 173.692 770.008 174.616 770.113 175.228C770.219 175.852 770.137 176.198 770.101 176.196Z" fill="#385DB4"/>
<path d="M787.779 176.196C787.719 176.197 787.705 175.854 787.528 175.293C787.353 174.741 786.953 173.945 786.117 173.345C785.307 172.742 784.001 172.421 782.752 172.898C781.512 173.337 780.451 174.658 780.464 176.194C780.451 177.733 781.512 179.053 782.752 179.493C784.003 179.97 785.308 179.648 786.117 179.045C786.953 178.445 787.353 177.65 787.528 177.098C787.705 176.536 787.719 176.194 787.779 176.196C787.813 176.193 787.896 176.538 787.791 177.164C787.685 177.774 787.324 178.698 786.416 179.436C785.537 180.173 784.028 180.624 782.533 180.094C781.053 179.614 779.751 178.042 779.769 176.194C779.752 174.349 781.053 172.777 782.533 172.296C784.028 171.768 785.537 172.217 786.415 172.956C787.324 173.692 787.685 174.616 787.791 175.228C787.896 175.852 787.813 176.198 787.779 176.196Z" fill="#385DB4"/>
<path d="M178.677 124.168L178.687 124.165H178.688C178.688 124.165 178.752 124.316 178.853 124.605C178.956 124.912 179.101 125.338 179.289 125.894C179.671 127.053 180.227 128.736 180.952 130.936C182.397 135.381 184.516 141.894 187.239 150.265L187.324 150.528L187.051 150.478C179.628 149.12 170.553 147.457 160.181 145.558L159.996 145.524V145.336V145.334L160.359 145.516C152.317 151.598 141.675 156.634 129.275 158.341C126.184 158.76 122.997 158.996 119.745 158.976C116.502 158.777 113.17 158.801 109.846 158.146C106.481 157.778 103.177 156.777 99.7969 155.898C98.1547 155.298 96.4995 154.694 94.8307 154.085C93.9828 153.813 93.1849 153.414 92.3797 153.022C91.5729 152.634 90.7636 152.245 89.9505 151.854C83.5131 148.614 77.3797 144.262 72.0073 138.849C66.6136 133.454 62.1421 126.892 58.8197 119.649C52.1683 105.176 50.6751 87.5476 55.8469 71.2396C60.5677 56.3836 70.4943 43.8823 82.5973 35.677C94.8317 27.617 109.133 23.781 122.566 24.449C136.052 24.845 148.484 29.565 158.307 36.313C168.053 43.2383 175.456 51.993 179.935 61.1156C184.531 70.1956 186.576 79.3476 187.057 87.3743C187.696 95.433 186.587 102.397 185.232 107.885C183.839 113.39 182.087 117.46 180.808 120.149C180.155 121.49 179.635 122.508 179.259 123.148C178.931 123.724 178.776 123.994 178.677 124.168C178.764 123.994 178.9 123.725 179.188 123.15C179.548 122.453 180.052 121.438 180.681 120.089C181.917 117.386 183.623 113.313 184.971 107.82C186.279 102.344 187.343 95.4103 186.671 87.3996C186.155 79.4196 184.088 70.3383 179.497 61.3396C175.025 52.297 167.655 43.633 157.979 36.7863C148.225 30.117 135.903 25.4623 122.542 25.0876C109.234 24.4423 95.0833 28.2583 82.976 36.2423C71.0005 44.3743 61.1803 56.749 56.5084 71.4503C51.3912 87.5876 52.862 105.038 59.4355 119.368C62.7193 126.538 67.1401 133.041 72.476 138.388C77.7907 143.756 83.8599 148.073 90.2323 151.292C91.0369 151.681 91.8385 152.068 92.6375 152.453C93.4339 152.842 94.224 153.24 95.064 153.51C96.7156 154.116 98.3547 154.717 99.9812 155.314C103.328 156.189 106.601 157.189 109.935 157.56C113.229 158.216 116.531 158.197 119.748 158.401C122.972 158.429 126.133 158.201 129.199 157.793C141.5 156.13 152.077 151.166 160.087 145.153L160.448 144.881V145.334V145.336L160.264 145.113C170.627 147.058 179.695 148.761 187.111 150.153L186.923 150.366C184.265 141.976 182.197 135.446 180.785 130.988C180.096 128.778 179.568 127.085 179.204 125.921C179.033 125.36 178.903 124.929 178.809 124.62C178.723 124.325 178.687 124.165 178.687 124.165H178.688L178.677 124.168Z" fill="#385DB4"/>
<path d="M610.959 68.2104C610.888 68.2091 610.797 67.3877 610.691 65.8411C610.656 65.0651 610.585 64.1104 610.372 62.9957C610.199 61.8771 610.04 60.5824 609.625 59.1731C608.999 56.3131 607.703 52.9304 605.655 49.3371C603.589 45.7597 600.6 42.0117 596.511 38.8037C592.431 35.6251 587.275 32.8891 581.291 31.7064C575.345 30.5624 568.613 30.6051 562.161 32.8997C558.916 33.9477 555.771 35.5691 552.869 37.6397C551.372 38.6184 550.056 39.8571 548.676 41.0451C547.427 42.3691 546.113 43.6597 545.028 45.1677C540.427 50.9984 537.735 58.5624 537.471 66.4197C537.351 74.2837 539.672 81.9717 543.984 88.0211C544.996 89.5811 546.245 90.9344 547.429 92.3171C548.749 93.5704 550.004 94.8717 551.453 95.9237C554.252 98.133 557.312 99.9051 560.504 101.109C566.839 103.714 573.561 104.084 579.556 103.229C585.591 102.337 590.873 99.8557 595.101 96.8784C599.343 93.8717 602.511 90.2744 604.748 86.7997C606.967 83.3117 608.424 79.9957 609.189 77.1704C609.672 75.7824 609.893 74.4984 610.12 73.389C610.387 72.2864 610.504 71.3357 610.576 70.5624C610.757 69.0224 610.888 68.2091 610.959 68.2104C611.029 68.2117 611.037 69.0304 610.987 70.5984C610.98 71.3864 610.927 72.3557 610.721 73.4877C610.555 74.6264 610.389 75.9477 609.957 77.3837C609.295 80.3024 607.913 83.7544 605.716 87.4104C603.504 91.0504 600.305 94.8504 595.952 98.0517C591.613 101.224 586.133 103.897 579.827 104.906C573.565 105.878 566.509 105.556 559.817 102.868C556.451 101.624 553.212 99.7784 550.252 97.4664C548.72 96.3651 547.387 95.0051 545.992 93.6864C544.733 92.2357 543.415 90.8104 542.339 89.1704C537.768 82.8051 535.289 74.6731 535.421 66.3704C535.695 58.0731 538.567 50.0744 543.44 43.9411C544.593 42.3544 545.98 40.9944 547.307 39.6077C548.764 38.3584 550.161 37.0651 551.745 36.0384C554.813 33.8757 558.137 32.1891 561.561 31.1104C568.372 28.7504 575.436 28.7691 581.643 30.0437C587.892 31.3597 593.237 34.2944 597.416 37.6731C601.608 41.0824 604.62 45.0317 606.653 48.7757C608.671 52.5344 609.883 56.0491 610.404 58.9971C610.765 60.4531 610.865 61.781 610.977 62.925C611.129 64.0664 611.136 65.0384 611.103 65.8237C611.077 67.3944 611.029 68.2117 610.959 68.2104Z" fill="#33535F"/>
<path d="M603.504 44.9276C603.585 45.0436 602.915 45.6262 601.616 46.5929C600.905 47.1022 600.108 47.6742 599.219 48.3142C598.744 48.6382 598.247 49.0076 597.693 49.3529C597.105 49.6596 596.493 49.9796 595.857 50.3129C590.871 53.1942 582.971 56.1369 573.948 55.8302C572.829 55.7796 571.723 55.7316 570.633 55.6822C569.556 55.5142 568.493 55.3476 567.449 55.1836C566.929 55.0969 566.411 55.0262 565.904 54.9249C565.404 54.7916 564.908 54.6596 564.417 54.5289C563.44 54.2582 562.473 54.0276 561.552 53.7329C557.896 52.4622 554.737 50.9796 552.256 49.4502C547.263 46.4316 544.832 43.6836 545.021 43.5076C545.223 43.2769 547.937 45.5769 552.968 48.1876C555.467 49.5142 558.577 50.8049 562.117 51.9316C563.009 52.1902 563.941 52.3862 564.881 52.6289C565.353 52.7449 565.829 52.8636 566.309 52.9822C566.8 53.0569 567.293 53.1316 567.792 53.2062C568.789 53.3529 569.804 53.5022 570.832 53.6542C571.872 53.6956 572.927 53.7382 573.993 53.7809C582.571 54.0769 590.168 51.5062 595.208 49.0169C595.852 48.7382 596.472 48.4689 597.064 48.2116C597.631 47.9156 598.143 47.5982 598.637 47.3262C599.581 46.8062 600.425 46.3409 601.18 45.9249C602.593 45.1769 603.421 44.8129 603.504 44.9276Z" fill="#33535F"/>
<path d="M543.887 90.2355C543.805 90.1209 544.476 89.5369 545.773 88.5715C546.485 88.0609 547.281 87.4902 548.172 86.8502C548.647 86.5249 549.144 86.1569 549.697 85.8102C550.284 85.5036 550.896 85.1836 551.533 84.8516C556.52 81.9702 564.42 79.0275 573.441 79.3342C574.561 79.3835 575.667 79.4329 576.757 79.4809C577.835 79.6502 578.896 79.8169 579.94 79.9796C580.461 80.0676 580.98 80.1369 581.486 80.2382C581.986 80.3715 582.482 80.5049 582.973 80.6342C583.95 80.9062 584.919 81.1355 585.839 81.4315C589.495 82.7022 592.652 84.1862 595.133 85.7142C600.128 88.7329 602.557 91.4809 602.368 91.6569C602.168 91.8875 599.453 89.5876 594.422 86.9769C591.924 85.6502 588.813 84.3582 585.273 83.2329C584.381 82.9729 583.449 82.7769 582.509 82.5355C582.037 82.4182 581.561 82.3009 581.081 82.1809C580.59 82.1076 580.097 82.0329 579.599 81.9569C578.601 81.8102 577.587 81.6609 576.557 81.5102C575.519 81.4676 574.464 81.4262 573.397 81.3822C564.82 81.0876 557.223 83.6569 552.183 86.1462C551.537 86.4262 550.919 86.6942 550.325 86.9529C549.76 87.2476 549.248 87.5649 548.753 87.8382C547.808 88.3582 546.965 88.8235 546.211 89.2395C544.796 89.9875 543.969 90.3515 543.887 90.2355Z" fill="#33535F"/>
<path d="M610.937 69.0757C610.924 69.641 594.231 69.6943 573.657 69.1943C553.079 68.6943 536.411 67.8317 536.424 67.265C536.437 66.701 553.128 66.6464 573.706 67.1464C594.281 67.6464 610.952 68.5104 610.937 69.0757Z" fill="#33535F"/>
<path d="M571.964 104.528C571.397 104.514 571.344 87.8262 571.844 67.2596C572.343 46.6862 573.205 30.0249 573.772 30.0383C574.337 30.0529 574.391 46.7356 573.892 67.3103C573.392 87.8769 572.529 104.541 571.964 104.528Z" fill="#33535F"/>
<path d="M571.965 104.472C571.824 104.688 567.719 101.905 562.98 95.6024C560.639 92.4544 558.18 88.4051 556.32 83.5104C554.471 78.6238 553.31 72.8718 553.437 66.8131C553.544 60.7358 555.073 55.0478 557.199 50.2851C559.325 45.5024 561.994 41.5984 564.476 38.5651C569.494 32.5011 573.633 29.8131 573.772 30.0277C573.973 30.2611 570.224 33.3117 565.617 39.4571C563.34 42.5291 560.88 46.3984 558.931 51.0344C556.98 55.6571 555.588 61.0771 555.485 66.8531C555.367 72.6318 556.412 78.1317 558.093 82.8611C559.784 87.5997 562.029 91.5931 564.163 94.7651C568.475 101.116 572.172 104.246 571.965 104.472Z" fill="#33535F"/>
<path d="M574.607 30.0477C574.748 29.8317 578.853 32.6157 583.591 38.917C585.933 42.065 588.392 46.1143 590.251 51.0103C592.1 55.8957 593.259 61.6477 593.135 67.7077C593.027 73.785 591.499 79.4716 589.372 84.2356C587.247 89.017 584.576 92.9223 582.095 95.9543C577.077 102.02 572.937 104.708 572.799 104.492C572.597 104.26 576.347 101.209 580.953 95.0623C583.232 91.9903 585.691 88.121 587.64 83.4863C589.589 78.8637 590.983 73.4436 591.085 67.6676C591.204 61.8876 590.159 56.389 588.477 51.6596C586.787 46.9196 584.541 42.9263 582.409 39.7543C578.095 33.4037 574.4 30.2743 574.607 30.0477Z" fill="#33535F"/>
<path d="M536.453 122.804L536.456 122.814C536.456 122.814 536.3 122.865 536.001 122.94C535.688 123.016 535.251 123.121 534.679 123.26C533.492 123.537 531.765 123.941 529.511 124.468C524.953 125.513 518.277 127.044 509.697 129.012L509.428 129.073L509.503 128.805C511.516 121.533 513.977 112.641 516.792 102.48L516.841 102.298L517.029 102.314H517.031L516.817 102.66C511.473 94.1103 507.404 83.061 506.807 70.5596C506.664 67.4436 506.712 64.2476 507.021 61.0116C507.507 57.7983 507.78 54.4783 508.727 51.225C509.392 47.905 510.684 44.7036 511.86 41.4156C512.601 39.833 513.352 38.2383 514.107 36.6303C514.453 35.8103 514.92 35.0503 515.383 34.2836C515.841 33.5143 516.301 32.7423 516.763 31.9676C520.563 25.8436 525.441 20.121 531.311 15.2503C537.164 10.3583 544.097 6.48766 551.607 3.82098C566.615 -1.51634 584.307 -1.43637 600.089 5.16496C614.467 11.1863 626.036 22.1836 633.133 34.969C640.073 47.8716 642.624 62.4583 640.764 75.7783C639.172 89.1756 633.364 101.138 625.771 110.322C618.007 119.414 608.629 126.01 599.143 129.66C589.692 133.432 580.395 134.654 572.356 134.421C564.272 134.341 557.435 132.617 552.088 130.78C546.729 128.902 542.832 126.796 540.267 125.282C538.988 124.513 538.023 123.905 537.417 123.473C536.872 123.096 536.617 122.917 536.453 122.804C536.617 122.905 536.875 123.065 537.421 123.402C538.085 123.824 539.049 124.416 540.337 125.162C542.92 126.633 546.825 128.694 552.177 130.524C557.515 132.314 564.327 133.99 572.365 134.033C580.36 134.229 589.588 132.977 598.96 129.205C608.364 125.553 617.649 118.984 625.328 109.954C632.839 100.832 638.571 88.9716 640.131 75.697C641.956 62.4996 639.413 48.065 632.536 35.2956C625.501 22.645 614.048 11.765 599.821 5.80363C584.201 -0.727036 566.691 -0.813705 551.833 4.45963C544.399 7.09429 537.529 10.9196 531.728 15.7583C525.911 20.5743 521.071 26.237 517.299 32.2983C516.84 33.065 516.383 33.829 515.928 34.5903C515.469 35.349 515.003 36.101 514.659 36.913C513.908 38.505 513.163 40.0836 512.424 41.6503C511.255 44.9063 509.969 48.077 509.304 51.3663C508.357 54.5876 508.083 57.8796 507.593 61.065C507.279 64.2743 507.224 67.4423 507.36 70.533C507.921 82.933 511.925 93.9103 517.203 102.421L517.443 102.806L516.991 102.765H516.989L517.227 102.602C514.368 112.75 511.867 121.632 509.821 128.894L509.627 128.688C518.22 126.788 524.907 125.308 529.473 124.298C531.736 123.806 533.469 123.432 534.659 123.173C535.235 123.053 535.675 122.961 535.992 122.896C536.293 122.834 536.456 122.813 536.456 122.813L536.455 122.814L536.453 122.804Z" fill="#17282F"/>
<path d="M592.627 154.857C586.108 156.374 581.931 162.981 580.539 169.526C579.147 176.073 579.825 182.87 579.201 189.534C578.577 196.197 576.243 203.28 570.635 206.932C572.495 207.47 574.357 208.009 576.217 208.546C575.139 212.016 572.761 215.062 569.66 216.95C571.819 218.63 574.549 219.562 577.285 219.549C574.001 220.421 573.092 225.106 574.908 227.981C576.721 230.853 580.172 232.206 583.467 233.045C587.349 234.032 591.492 234.549 595.332 233.405C600.739 231.793 604.773 227.045 606.844 221.797C608.913 216.549 609.289 210.804 609.449 205.165C609.851 191.04 609.027 176.774 605.423 163.11C604.551 159.805 603.345 156.296 600.535 154.35C597.725 152.405 592.917 153.192 592.075 156.505" fill="#17282F"/>
<path d="M740.008 358.673C738.461 352.773 729.443 319.582 721.387 297.897C712.444 273.828 693.993 268.864 693.993 268.864C652.461 254.69 615.139 254.61 575.284 268.425C574.008 268.821 572.769 269.244 571.581 269.708L571.451 269.753V269.754C541.892 281.357 538.841 312.58 538.841 312.58L526.421 388.35C526.287 388.955 526.191 389.562 526.124 390.169L526.005 390.888L526.057 390.882C525.581 398.014 529.672 404.981 536.213 407.993C553.573 415.982 570.139 414.086 584.372 408.208L574.029 423.276H638.457H697.211L688.975 403.361L691.713 391.386L710.795 414.348C713.08 417.096 716.14 419.091 719.577 420.074C741.573 422.63 745.135 389.867 740.996 370.808L740.999 370.807" fill="#385DB4"/>
<path d="M661.956 260.599C661.956 260.599 642.088 360.573 635.081 359.831C628.075 359.089 595.243 262.489 595.243 262.489C595.243 262.489 637.215 251.294 661.956 260.599Z" fill="#F8A58D"/>
<path d="M605.587 267.982C605.481 256.473 605.16 244.358 605.16 244.358C605.16 244.358 590.317 241.988 587.129 222.661C584.087 204.23 586.867 161.608 586.867 161.608C608.155 152.776 633.471 158.416 648.792 175.404L648.107 268.894C648.028 279.746 638.632 288.322 627.011 288.149C615.275 287.973 605.688 278.948 605.587 267.982Z" fill="#F8A58D"/>
<path d="M591.788 193.86C591.751 195.17 592.828 196.284 594.195 196.349C595.561 196.413 596.7 195.406 596.74 194.097C596.777 192.786 595.699 191.672 594.335 191.606C592.967 191.541 591.827 192.55 591.788 193.86Z" fill="#17282F"/>
<path d="M588.519 192.098C588.828 192.42 590.699 191.017 593.368 191.008C596.035 190.961 598.003 192.322 598.291 191.993C598.432 191.847 598.116 191.266 597.257 190.65C596.416 190.037 594.979 189.443 593.316 189.461C591.652 189.479 590.257 190.101 589.459 190.732C588.64 191.368 588.365 191.954 588.519 192.098Z" fill="#17282F"/>
<path d="M618.788 195.156C618.751 196.466 619.828 197.58 621.195 197.645C622.561 197.71 623.7 196.704 623.74 195.393C623.777 194.082 622.699 192.968 621.333 192.902C619.967 192.837 618.825 193.846 618.788 195.156Z" fill="#17282F"/>
<path d="M616.38 192.898C616.691 193.22 618.564 191.818 621.232 191.809C623.897 191.761 625.865 193.122 626.153 192.794C626.295 192.648 625.98 192.066 625.12 191.45C624.277 190.837 622.841 190.244 621.179 190.261C619.516 190.281 618.121 190.901 617.32 191.533C616.505 192.168 616.229 192.754 616.38 192.898Z" fill="#17282F"/>
<path d="M606.812 212.756C606.823 212.604 605.163 212.328 602.472 212C601.789 211.934 601.143 211.802 601.025 211.338C600.861 210.846 601.141 210.109 601.468 209.314C602.099 207.66 602.759 205.928 603.453 204.11C606.207 196.704 608.196 190.613 607.897 190.505C607.599 190.397 605.123 196.313 602.368 203.721C601.705 205.548 601.072 207.289 600.469 208.956C600.215 209.732 599.777 210.613 600.132 211.633C600.317 212.141 600.82 212.508 601.257 212.622C601.695 212.753 602.08 212.758 602.417 212.777C605.124 212.906 606.803 212.908 606.812 212.756Z" fill="#17282F"/>
<path d="M605.16 244.358C605.16 244.358 618.18 245.12 631.025 237.29C631.025 237.29 624.821 250.618 605.449 248.925L605.16 244.358Z" fill="#F68260"/>
<path d="M607.98 219.184C608.932 217.908 610.611 217.201 612.281 217.37C613.441 217.488 614.615 218.04 615.324 218.978C616.033 219.917 616.191 221.256 615.556 222.16C614.841 223.177 613.337 223.42 612.061 223.066C610.784 222.712 609.683 221.878 608.637 221.049C608.347 220.821 608.051 220.581 607.868 220.265C607.688 219.949 607.645 219.536 607.867 219.27" fill="#F68260"/>
<path d="M614.68 214.554C614.247 214.532 614.257 217.43 611.791 219.502C609.327 221.581 606.236 221.273 606.215 221.68C606.176 221.861 606.907 222.238 608.211 222.265C609.489 222.301 611.356 221.878 612.864 220.612C614.371 219.341 615.011 217.654 615.103 216.464C615.205 215.253 614.877 214.537 614.68 214.554Z" fill="#17282F"/>
<path d="M638.367 159.821C631.469 170.04 612.916 180.748 599.541 183.393C601.072 181.304 609.224 176.077 610.752 173.988C604.751 178.636 596.155 184.865 588.095 185.418C587.14 185.484 586.108 185.5 585.313 185.034C584.232 184.402 583.992 183.14 583.849 182.021C583.244 177.302 583.428 169.189 584.097 164.485C584.768 159.778 586.841 155.073 590.857 151.856C595.956 147.772 603.337 146.656 610.305 146.365C616.147 146.121 622.181 146.36 627.561 148.376C632.943 150.39 637.587 154.48 638.457 159.478" fill="#17282F"/>
<path d="M661.236 206.605C662.123 201.582 662.813 196.818 662.94 193.642C663.333 183.652 666.323 147.59 631.963 151.162L633.908 160.86C633.908 160.86 627.501 183.308 642.255 198.453C642.255 198.453 638.052 230.085 648.316 240.305C648.316 240.305 659.333 217.39 661.236 206.605Z" fill="#17282F"/>
<path d="M641.816 196.784C643.881 196.37 646.069 196.414 648.045 197.145C650.023 197.874 651.765 199.33 652.629 201.253C653.493 203.18 653.423 205.444 652.72 207.436C652.016 209.428 650.723 211.168 649.228 212.66C648.153 213.732 646.931 214.712 645.487 215.174C644.043 215.638 642.339 215.506 641.175 214.533" fill="#F8A58D"/>
<path d="M643.035 209.317C642.8 209.396 643.707 210.642 645.595 210.121C646.504 209.876 647.387 209.07 647.919 208.066C648.455 207.046 648.8 205.93 648.928 204.626C649.052 203.334 648.751 201.964 648.031 200.99C647.348 199.998 646.235 199.416 645.305 199.402C643.359 199.37 642.764 200.721 642.984 200.76C643.14 200.916 643.892 200.217 645.168 200.516C646.389 200.732 647.597 202.406 647.348 204.497C647.129 206.628 646.323 208.581 645.195 209.073C644.019 209.681 643.164 209.145 643.035 209.317Z" fill="#F68260"/>
<path d="M574.029 361.11C573.839 361.11 573.684 353.255 573.684 343.569C573.684 333.88 573.839 326.026 574.029 326.026C574.223 326.026 574.377 333.88 574.377 343.569C574.377 353.255 574.223 361.11 574.029 361.11Z" fill="#17282F"/>
<path d="M624.095 325.302C624.095 325.302 606.803 325.493 605.711 329.321C603.9 335.677 607.136 370.509 607.136 370.509L623.065 375.8C623.065 375.8 630.749 374.026 627.201 359.25C623.656 344.476 616.671 332.656 616.671 332.656C616.671 332.656 637.84 333.246 637.251 328.518C636.659 323.79 624.095 325.302 624.095 325.302Z" fill="#F8A58D"/>
<path d="M617.213 335.58C618.167 335.4 639.328 333.646 637.999 337.03C636.669 340.414 617.213 341.26 617.213 341.26V335.58Z" fill="#F8A58D"/>
<path d="M685.199 284.349L682.584 350.436L672.931 375.8L613.623 377.027L611.227 295.176L685.199 284.349Z" fill="#17282F"/>
<path d="M604.339 348.593C604.348 348.615 604.096 348.743 603.612 348.969C603.056 349.217 602.349 349.531 601.477 349.921C599.528 350.755 596.85 351.902 593.578 353.302C586.805 356.127 577.593 359.97 567.414 364.217C562.297 366.321 557.424 368.322 552.977 370.15C548.529 371.95 544.533 373.574 541.449 375.452C538.337 377.281 536.215 379.338 535 380.938C533.781 382.541 533.34 383.588 533.267 383.55C533.247 383.54 533.354 383.282 533.584 382.794C533.8 382.303 534.195 381.613 534.783 380.777C535.948 379.101 538.069 376.941 541.195 375.033C544.289 373.074 548.308 371.388 552.733 369.558C557.173 367.715 562.039 365.697 567.149 363.576C577.36 359.402 586.599 355.626 593.391 352.849C596.697 351.531 599.405 350.455 601.373 349.672C602.265 349.331 602.989 349.057 603.558 348.84C604.061 348.657 604.329 348.572 604.339 348.593Z" fill="#17282F"/>
<path d="M623.944 374.489C623.98 374.521 623.517 375.085 622.648 376.078C621.777 377.07 620.481 378.474 618.813 380.142C615.501 383.505 610.7 387.922 605.181 392.541C599.655 397.155 594.48 401.121 590.668 403.896C588.765 405.288 587.201 406.381 586.111 407.121C585.017 407.857 584.4 408.246 584.372 408.208C584.345 408.169 584.909 407.705 585.952 406.901C587.096 406.021 588.584 404.878 590.373 403.502C594.105 400.63 599.221 396.613 604.736 392.009C610.243 387.401 615.08 383.055 618.471 379.793C620.177 378.174 621.523 376.825 622.452 375.894C623.379 374.96 623.909 374.457 623.944 374.489Z" fill="#17282F"/>
<path d="M713.272 416.782C713.127 416.906 704.424 406.936 693.84 394.517C683.251 382.09 674.787 371.921 674.933 371.796C675.08 371.673 683.779 381.64 694.367 394.066C704.953 406.486 713.417 416.658 713.272 416.782Z" fill="#17282F"/>
<path d="M730.035 368.765C730.016 368.809 729.331 368.564 728.107 368.079C726.88 367.601 725.128 366.857 722.98 365.893C718.687 363.968 712.848 361.085 706.624 357.491C700.404 353.891 694.991 350.269 691.18 347.509C689.273 346.127 687.753 344.981 686.728 344.157C685.697 343.337 685.143 342.867 685.172 342.827C685.2 342.791 685.811 343.188 686.889 343.939C688.072 344.758 689.611 345.824 691.463 347.106C695.336 349.758 700.772 353.302 706.972 356.891C713.173 360.472 718.956 363.413 723.188 365.448C725.223 366.413 726.915 367.214 728.215 367.832C729.404 368.391 730.053 368.721 730.035 368.765Z" fill="#17282F"/>
<path d="M699.34 354.265C699.149 354.289 698.109 347.234 697.016 338.51C695.921 329.782 695.189 322.69 695.38 322.666C695.571 322.642 696.611 329.696 697.704 338.422C698.799 347.148 699.529 354.239 699.34 354.265Z" fill="#17282F"/>
<path d="M649.171 209.19C649.196 209.21 649.005 209.504 648.623 210.034C648.171 210.644 647.611 211.397 646.935 212.305C645.368 214.337 643.271 217.057 640.793 220.272L640.743 219.845C643.699 222.168 647.12 224.854 650.756 227.712C651.061 227.953 651.364 228.193 651.663 228.429L651.176 228.485C654.372 224.48 657.333 220.769 659.84 217.629L659.887 218.032C657.248 215.88 655.028 214.073 653.361 212.714C652.653 212.114 652.063 211.614 651.576 211.202C651.169 210.846 650.963 210.645 650.981 210.622C651 210.6 651.243 210.754 651.683 211.066C652.195 211.445 652.819 211.906 653.567 212.457C655.272 213.766 657.54 215.509 660.243 217.582L660.468 217.756L660.289 217.985C657.809 221.146 654.881 224.881 651.72 228.916L651.505 229.189L651.232 228.973C650.933 228.737 650.631 228.497 650.325 228.256C646.708 225.374 643.305 222.665 640.364 220.322L640.124 220.13L640.315 219.894C642.872 216.742 645.037 214.074 646.653 212.082C647.383 211.216 647.985 210.498 648.473 209.917C648.904 209.424 649.144 209.17 649.171 209.19Z" fill="#43A1F6"/>
<path d="M674.612 370.807C664.923 370.625 652.009 368.702 645.979 367.739C634.759 365.946 634.88 364.929 635.279 363.646C636.352 360.201 655.119 366.048 651.752 362.438C648.384 358.832 628.037 357.972 629.307 354.42C630.96 349.794 650.504 356.276 652.195 356.702C653.839 357.115 654.497 354.682 652.951 354.38C650.729 353.945 627.495 348.802 629.076 344.241C629.952 341.712 634.328 343.831 634.328 343.831C634.328 343.831 655.753 350.256 656.428 348.074C657.113 345.862 644.649 341.665 640.355 340.546C636.111 339.442 634.859 336.962 636.859 335.476C638.223 334.462 651.451 337.572 655.673 338.777C659.896 339.98 671.429 343.491 667.029 337.11L666.841 336.809C662.337 330.642 660.911 324.401 661.727 322.313C662.523 320.278 665.391 320.41 666.472 322.328C666.669 322.625 666.835 322.953 666.908 323.349C666.937 323.513 667.021 323.724 667.068 323.904C667.852 325.95 669.557 328.646 670.957 330.689C672.284 332.625 673.917 334.332 675.815 335.71C678.007 337.304 683.531 343.145 685.199 344.184" fill="#F8A58D"/>
<path d="M277.817 292.202C265.336 291.977 255.227 281.991 254.851 269.516C254.537 259.122 254.3 249.116 254.3 249.116C254.3 249.116 235.221 247.344 233.821 228.464C232.423 209.582 233.021 165.994 233.021 165.994C254.313 155.245 279.755 156.86 299.516 170.217L302.449 172.2L301.639 269.002C301.529 282.014 290.828 292.437 277.817 292.202Z" fill="#C0776A"/>
<path d="M253.823 216.828C253.828 216.624 252.199 216.397 249.56 216.196C248.875 216.165 248.331 216.044 248.259 215.681C248.111 215.276 248.331 214.533 248.627 213.701C249.189 211.938 249.76 210.156 250.357 208.286C252.736 200.577 254.347 194.232 253.955 194.11C253.563 193.99 251.319 200.14 248.941 207.849C248.381 209.729 247.848 211.524 247.32 213.298C247.119 214.101 246.703 215.049 247.123 216.15C247.345 216.701 247.907 217.074 248.363 217.165C248.823 217.273 249.207 217.25 249.533 217.245C252.179 217.177 253.819 217.033 253.823 216.828Z" fill="#17282F"/>
<path d="M262.455 219.182C257.197 221.63 254.764 222.362 249.921 223.677C249.921 223.677 253.26 228.346 258.584 226.016C264.112 223.597 262.455 219.182 262.455 219.182Z" fill="white"/>
<path d="M254.252 248.845C254.252 248.845 266.253 249.08 278.453 240.325C278.453 240.325 273.469 254.282 254.511 253.742L254.252 248.845Z" fill="#AC584F"/>
<path d="M301.401 195.546C301.412 194.021 302.603 192.73 304.128 192.688C307.653 192.59 313.42 193.989 313.961 203.718C314.736 217.618 301.367 214.15 301.32 213.753C301.284 213.442 301.364 200.949 301.401 195.546Z" fill="#C0776A"/>
<path d="M304.383 208.29C304.441 208.242 304.635 208.446 305.055 208.612C305.464 208.772 306.156 208.86 306.865 208.548C308.304 207.928 309.411 205.528 309.339 203.018C309.304 201.752 308.972 200.561 308.468 199.589C307.987 198.597 307.291 197.922 306.544 197.832C305.799 197.704 305.3 198.176 305.152 198.576C304.987 198.974 305.091 199.248 305.019 199.274C304.981 199.312 304.707 199.06 304.787 198.478C304.829 198.2 304.973 197.862 305.285 197.577C305.604 197.288 306.087 197.122 306.605 197.149C307.68 197.164 308.7 198.096 309.253 199.162C309.867 200.232 310.269 201.568 310.308 202.99C310.376 205.796 309.088 208.497 307.111 209.189C306.148 209.498 305.316 209.249 304.876 208.945C304.427 208.626 304.336 208.318 304.383 208.29Z" fill="#AC584F"/>
<path d="M238.935 198.001C238.983 199.356 240.169 200.432 241.585 200.408C243 200.382 244.108 199.268 244.06 197.912C244.012 196.558 242.825 195.48 241.412 195.504C239.996 195.528 238.887 196.646 238.935 198.001Z" fill="#17282F"/>
<path d="M234.581 195.43C234.923 195.741 236.759 194.169 239.515 193.981C242.263 193.753 244.385 195.025 244.66 194.666C244.796 194.508 244.429 193.928 243.504 193.35C242.592 192.773 241.071 192.258 239.356 192.386C237.64 192.518 236.243 193.253 235.46 193.958C234.659 194.668 234.415 195.292 234.581 195.43Z" fill="#17282F"/>
<path d="M266.311 197.525C266.36 198.88 267.547 199.957 268.963 199.933C270.376 199.908 271.484 198.793 271.436 197.437C271.388 196.082 270.2 195.004 268.787 195.029C267.372 195.053 266.263 196.17 266.311 197.525Z" fill="#17282F"/>
<path d="M262.537 195.43C262.879 195.741 264.719 194.169 267.471 193.981C270.219 193.753 272.341 195.025 272.616 194.666C272.751 194.508 272.389 193.928 271.46 193.35C270.548 192.773 269.027 192.258 267.312 192.386C265.597 192.518 264.199 193.253 263.416 193.958C262.616 194.668 262.371 195.292 262.537 195.43Z" fill="#17282F"/>
<path d="M280.759 159.468C278.181 165.293 279.48 172.62 283.904 177.202C285.767 179.132 288.108 180.597 289.719 182.738C293.059 187.178 292.515 193.281 293.036 198.813C293.277 201.372 293.877 204.09 295.763 205.837C297.648 207.584 301.167 207.702 302.479 205.493C302.877 204.824 303.028 204.04 303.171 203.273C304.329 197.116 305.487 190.957 306.645 184.8C307.513 180.181 308.384 175.442 307.584 170.81C306.649 165.404 303.349 160.449 298.719 157.505C294.088 154.562 288.201 153.674 282.909 155.122" fill="#17282F"/>
<path d="M283.656 155.566C277.247 154.338 273.645 152.29 269.111 150.245C264.576 148.201 259.449 147.249 254.661 148.604C251.435 149.517 248.379 151.456 245.052 151.424C241.753 151.392 238.793 149.428 235.637 148.432C231.36 147.081 226.589 147.569 222.588 149.766C219.484 151.47 216.695 154.525 216.433 158.253C216.172 161.981 219.5 165.845 222.837 164.785C219.351 165.997 217.931 171.132 219.673 174.566C221.417 178.001 225.453 179.561 229.072 178.988C232.691 178.414 235.897 176.06 238.484 173.25C238.568 177.406 242.735 180.332 246.596 180.206C250.457 180.081 253.957 177.768 257.147 175.382C260.335 172.997 263.561 170.398 267.352 169.554C269.992 168.966 272.723 169.28 275.4 168.962C278.077 168.645 280.932 167.48 282.225 164.924C283.52 162.368 288.649 159.44 285.96 159.368" fill="#17282F"/>
<path d="M245.695 176.03C245.74 175.974 246.16 176.41 247.119 176.792C248.073 177.162 249.619 177.309 251.396 176.778C252.281 176.522 253.224 176.129 254.152 175.565C255.084 175.004 256.029 174.293 257.041 173.557C258.052 172.822 259.139 172.048 260.388 171.42C261.631 170.796 263.089 170.381 264.576 170.369C267.545 170.317 270.231 171.118 272.661 170.898C275.104 170.766 277.019 169.412 278.103 167.944C279.227 166.476 279.608 164.966 279.721 163.946C279.827 162.913 279.723 162.329 279.791 162.321C279.815 162.317 279.853 162.458 279.908 162.736C279.969 163.01 280.005 163.429 279.991 163.965C279.957 165.03 279.637 166.64 278.499 168.234C277.933 169.022 277.181 169.814 276.193 170.417C275.215 171.028 274 171.436 272.716 171.536C270.131 171.793 267.404 171.002 264.597 171.064C261.755 171.06 259.42 172.648 257.415 174.077C256.395 174.796 255.428 175.498 254.443 176.062C253.457 176.63 252.461 177.016 251.524 177.252C249.644 177.749 247.991 177.514 247.015 177.041C246.524 176.804 246.183 176.552 245.979 176.356C245.775 176.158 245.679 176.048 245.695 176.03Z" fill="#17282F"/>
<path d="M281.715 148.976C281.92 149.017 281.487 151.03 282.1 153.404C282.673 155.788 284.001 157.361 283.84 157.493C283.739 157.641 282.056 156.156 281.427 153.572C280.769 150.996 281.556 148.893 281.715 148.976Z" fill="#17282F"/>
<path d="M288.82 148.685C288.965 148.837 287.247 150.465 285.96 153.014C284.641 155.548 284.325 157.894 284.116 157.865C283.943 157.876 283.956 155.374 285.341 152.697C286.704 150.01 288.727 148.538 288.82 148.685Z" fill="#17282F"/>
<path d="M377.973 346.385L406.997 421.069H362.569L341.864 367.903L377.973 346.385Z" fill="#C0776A"/>
<path d="M220.645 285.748C220.645 285.748 182.399 325.152 165.831 325.152C160.419 325.152 156.175 259.528 156.111 240.61C157.584 237.137 158.239 235.817 159.833 233.816C161.329 231.938 162.756 230.002 164.639 228.505C166.924 226.689 170.053 224.398 172.144 223.662C174.732 222.753 174.945 219.213 172.593 218.508C170.241 217.805 163.053 220.138 156.624 226.237C150.196 232.337 152.12 218.689 152.732 213.706C153.344 208.724 154.513 193.236 153.128 191.873C151.095 189.878 148.516 191.732 148.02 196.718C147.519 201.768 144.984 216.588 142.363 216.206C139.781 215.83 143.244 190.494 143.244 190.494C143.244 190.494 144.861 185.177 141.851 184.636C136.419 183.658 134.725 210.809 134.627 213.396C134.56 215.194 131.695 214.882 131.871 212.953C132.053 210.968 135.913 187.746 130.396 186.7C126.159 185.896 128.792 209.026 125.314 213.468C121.834 217.909 125.114 195.678 121.032 195.077C119.513 194.853 118.343 194.897 118.305 207.886C118.284 214.868 120.966 225.414 119.934 238.861C121.7 278.536 119.75 389.972 163.905 376.761C212.461 362.234 245.632 330.43 245.632 330.43L220.645 285.748Z" fill="#C0776A"/>
<path d="M327.811 321.063C327.859 321.053 328.009 321.613 328.245 322.631C328.483 323.649 328.787 325.13 329.131 326.967C329.821 330.641 330.628 335.745 331.256 341.415C331.881 347.089 332.208 352.247 332.337 355.983C332.403 357.85 332.428 359.362 332.419 360.407C332.413 361.454 332.387 362.031 332.339 362.033C332.291 362.034 332.225 361.459 332.149 360.418C332.068 359.234 331.967 357.758 331.847 356.009C331.593 352.288 331.189 347.15 330.567 341.493C329.94 335.838 329.212 330.738 328.647 327.05C328.381 325.317 328.159 323.854 327.979 322.681C327.827 321.647 327.764 321.073 327.811 321.063Z" fill="#17282F"/>
<path d="M214.161 421.069L336.459 421.691L332.339 395.873C334.227 378.106 332.157 359.054 332.157 359.054L338.349 375.845L388.897 350.573C388.897 350.573 370.521 301.573 355.14 284.98C335.704 264.01 300.741 266.096 300.741 266.096L277.112 282.146L255.364 266.832C255.364 266.832 238.084 268.404 221.76 276.605L220.641 276.93L220.651 277.164C207.824 283.869 189.528 300.196 172.095 316.048L192.215 335.634L214.501 356.393C214.501 356.393 218.264 355.967 218.309 356.229C218.688 358.422 214.161 421.069 214.161 421.069Z" fill="#385DB4"/>
<path d="M338.349 375.845L332.42 359.767L338.349 375.845L343.881 373.079V373.081L338.349 375.845Z" fill="#C3C5C2"/>
<path d="M343.881 373.081V373.08L345.023 372.509V372.51L343.881 373.081Z" fill="#915C52"/>
<path d="M338.349 375.845L332.42 359.767L332.157 359.054C332.157 359.054 326.14 323.916 328.405 313.239L345.023 372.51L343.881 373.079L338.349 375.845Z" fill="#263F48"/>
<path d="M254.013 266.548V260.148C254.013 260.148 273.111 258.668 276.977 281.226C276.977 281.226 283.201 260.148 301.731 258.036L304.372 267.89C304.372 267.89 295.593 295.34 294.319 295.573C293.045 295.808 276.977 300.501 276.977 300.501L267.672 298.39L257.332 286.622L254.013 266.548Z" fill="#385DB4"/>
<path d="M304.811 267.136C304.843 267.173 304.461 267.566 303.755 268.25C303.059 268.948 302.043 269.942 300.844 271.226C298.452 273.792 295.343 277.541 292.565 282.117C291.979 283.07 291.44 284.024 290.932 284.944L290.625 285.498L290.329 284.945C288.213 280.981 286.34 277.472 284.897 274.772C284.533 274.169 284.12 273.685 283.676 273.381C283.232 273.077 282.769 272.945 282.393 272.912C281.623 272.854 281.253 273.178 281.228 273.12C281.2 273.117 281.536 272.69 282.401 272.669C282.82 272.665 283.344 272.773 283.867 273.084C284.389 273.398 284.865 273.909 285.277 274.528C286.784 277.044 288.705 280.581 290.931 284.618H290.329C290.837 283.685 291.38 282.718 291.972 281.754C294.781 277.128 297.989 273.382 300.491 270.885C301.744 269.634 302.819 268.688 303.573 268.05C304.339 267.424 304.78 267.1 304.811 267.136Z" fill="#17282F"/>
<path d="M252.777 268.273C252.816 268.242 253.139 268.586 253.689 269.234C254.24 269.881 255.019 270.832 255.969 272.016C257.869 274.381 260.459 277.68 263.283 281.348C263.437 281.549 263.591 281.749 263.733 281.936L263.156 281.98C264.172 280.093 264.256 277.924 264.728 276.033C265.159 274.138 266.043 272.425 267.367 271.585C268.681 270.765 270.04 270.822 270.807 271.145C271.203 271.296 271.453 271.52 271.612 271.664C271.757 271.829 271.821 271.921 271.805 271.937C271.76 271.989 271.464 271.618 270.72 271.394C270 271.173 268.771 271.205 267.633 271.985C266.504 272.77 265.723 274.341 265.343 276.177C264.913 277.997 264.876 280.213 263.764 282.313L263.513 282.786L263.184 282.358C263.041 282.173 262.888 281.972 262.732 281.772C259.908 278.102 257.381 274.757 255.58 272.314C254.679 271.093 253.96 270.097 253.475 269.4C252.991 268.701 252.74 268.301 252.777 268.273Z" fill="#17282F"/>
<path d="M266.353 421.069C266.34 421.068 266.337 420.945 266.343 420.705C266.353 420.426 266.367 420.077 266.384 419.645C266.437 418.661 266.512 417.298 266.607 415.572C266.833 411.98 267.157 406.877 267.555 400.595C268.425 387.905 269.624 370.462 270.947 351.196C272.349 331.928 273.619 314.489 274.543 301.802C275.032 295.525 275.431 290.428 275.711 286.84C275.861 285.116 275.979 283.756 276.064 282.774C276.109 282.344 276.144 281.996 276.173 281.718C276.201 281.48 276.223 281.358 276.233 281.358C276.247 281.36 276.249 281.484 276.244 281.722C276.233 282.001 276.22 282.35 276.204 282.784C276.149 283.768 276.076 285.129 275.98 286.857C275.753 290.449 275.431 295.552 275.032 301.834C274.161 314.522 272.963 331.965 271.639 351.238C270.237 370.5 268.968 387.936 268.045 400.622C267.555 406.9 267.156 411.997 266.876 415.585C266.725 417.31 266.608 418.67 266.523 419.653C266.479 420.084 266.443 420.432 266.413 420.709C266.385 420.948 266.364 421.069 266.353 421.069Z" fill="#17282F"/>
<path d="M222.457 302.456C222.505 302.461 222.461 303.217 222.34 304.574C222.223 306.057 222.068 307.996 221.883 310.333C221.516 315.196 221.147 321.925 220.731 329.36C220.313 336.797 219.867 343.531 219.375 348.394C219.139 350.825 218.893 352.789 218.695 354.14C218.492 355.491 218.357 356.236 218.309 356.229C218.261 356.224 218.305 355.467 218.427 354.109C218.545 352.627 218.699 350.689 218.885 348.352C219.251 343.489 219.62 336.758 220.037 329.321C220.455 321.886 220.901 315.152 221.392 310.292C221.628 307.858 221.873 305.897 222.072 304.544C222.276 303.192 222.411 302.449 222.457 302.456Z" fill="#17282F"/>
<path d="M275.623 278.012C275.623 278.012 269.067 286.577 270.027 287.862C270.985 289.149 275.623 295.333 275.623 295.333H279.605C279.605 295.333 283.341 284.853 282.38 283.524C281.419 282.193 275.623 278.012 275.623 278.012Z" fill="#F03D5F"/>
<path d="M285.691 275.694L278.453 281.358L281.228 286.672L288.675 281.184L285.691 275.694Z" fill="#F03D5F"/>
<path d="M264.429 279.269L271.028 284.781L274.688 279.269L266.353 272.937L264.429 279.269Z" fill="#F03D5F"/>
<path d="M275.623 295.333L265.549 385.534L275.46 416.905L288.675 385.819L279.977 294.258L275.623 295.333Z" fill="#F03D5F"/>
<path d="M346.055 278.561C346.005 278.61 345.657 278.12 344.749 277.668C343.864 277.218 342.328 276.893 340.607 277.433C338.877 277.957 337.113 279.316 335.444 281.074C333.745 282.808 332.104 284.938 330.725 287.38C327.963 292.282 326.912 297.389 326.727 301.052C326.507 304.74 326.981 307.016 326.833 307.033C326.787 307.041 326.665 306.478 326.487 305.449C326.337 304.416 326.189 302.905 326.237 301.032C326.297 297.305 327.292 292.057 330.12 287.038C331.529 284.542 333.227 282.372 334.991 280.625C336.712 278.861 338.593 277.462 340.468 276.961C342.347 276.442 343.976 276.877 344.877 277.429C345.337 277.702 345.641 277.993 345.823 278.204C346 278.42 346.072 278.548 346.055 278.561Z" fill="#17282F"/>
<path d="M441.347 166.952C432.808 172.189 426.876 180.954 423.351 190.332C419.827 199.708 418.497 209.749 417.455 219.712C414.703 246.018 413.779 272.516 414.692 298.95C447.008 303.038 479.568 307.136 512.065 304.924C506.432 267.816 502.861 230.752 507.376 193.49" fill="#17282F"/>
<path d="M513.927 475.357L490.404 427.777L499.384 392.979C500.439 400.353 501.377 406.754 501.377 406.754L551.848 404.084C553.724 403.985 555.112 402.297 554.849 400.437L544.985 330.828C544.985 330.828 541.831 298.538 511.261 286.54L511.263 286.537L511.128 286.49C509.9 286.012 508.617 285.573 507.3 285.164C466.081 270.876 427.484 270.961 384.532 285.618C384.532 285.618 365.451 290.75 356.204 315.641C346.956 340.533 337.512 377.127 337.512 377.127L380.363 392.258L380.645 385.025L390.116 421.236L369.345 473.981L441.811 475.772L513.927 475.357Z" fill="#3D89D1"/>
<path d="M337.604 376.693L332.796 399.421C328.663 418.958 343.125 439.012 362.968 441.255L468.44 452.082C491.853 454.731 512.848 437.565 514.903 414.091L381.917 401.412L382.751 388.652L337.604 376.693Z" fill="#3D89D1"/>
<path d="M469.502 399.888L477.694 398.37C477.694 398.37 497.113 377.131 500.753 376.829C503.75 376.578 520.269 376.739 526.022 376.805C527.12 376.817 527.998 377.71 527.998 378.807C527.998 379.882 527.149 380.765 526.074 380.807L506.558 381.565L506.466 383.134L526.009 383.396C527.998 383.548 529.274 386.7 522.905 387.267L506.558 387.849V388.865L523.133 391.182C523.972 391.298 526.174 391.727 526.194 392.573C526.194 392.573 527.197 394.65 522.474 395.239C520.854 395.442 506.466 394.964 506.466 394.964L507.02 396.258L521.917 399.472C523.001 399.707 523.721 400.738 523.566 401.837C523.409 402.957 522.4 403.754 521.273 403.65L505.357 402.174L489.738 414.65H468.852L469.502 399.888Z" fill="#F8A58D"/>
<path d="M417.665 275.398C417.665 275.398 438.211 380.461 445.459 379.693C452.704 378.926 486.659 279.024 486.659 279.024C486.659 279.024 443.251 265.774 417.665 275.398Z" fill="#FAFAF9"/>
<path d="M508.595 377.098C508.403 377.098 508.248 369.852 508.248 360.915C508.248 351.977 508.403 344.734 508.595 344.734C508.787 344.734 508.941 351.977 508.941 360.915C508.941 369.852 508.787 377.098 508.595 377.098Z" fill="#17282F"/>
<path d="M382.456 377.777C382.361 377.765 382.532 375.986 382.887 373.119C383.24 370.252 383.777 366.296 384.413 361.934C385.048 357.57 385.663 353.625 386.14 350.774C386.619 347.924 386.963 346.17 387.057 346.184C387.152 346.198 386.98 347.979 386.627 350.846C386.272 353.713 385.736 357.667 385.1 362.027C384.465 366.389 383.852 370.331 383.373 373.182C382.895 376.03 382.551 377.789 382.456 377.777Z" fill="#17282F"/>
<path d="M441.811 475.772C441.787 475.772 441.765 475.437 441.748 474.798C441.736 474.091 441.72 473.165 441.7 472.008C441.683 469.584 441.696 466.076 441.789 461.743C441.949 453.078 442.417 441.117 443.013 427.91C443.608 414.701 444.153 402.746 444.44 394.09C444.568 389.819 444.673 386.337 444.748 383.838C444.783 382.682 444.811 381.754 444.832 381.049C444.86 380.412 444.884 380.077 444.909 380.077C444.932 380.077 444.953 380.412 444.972 381.05C444.983 381.755 444.999 382.684 445.019 383.841C445.037 386.264 445.023 389.772 444.931 394.103C444.769 402.769 444.303 414.733 443.707 427.942C443.112 441.146 442.565 453.101 442.28 461.757C442.151 466.027 442.047 469.512 441.972 472.01C441.936 473.166 441.909 474.093 441.888 474.798C441.861 475.437 441.835 475.772 441.811 475.772Z" fill="#17282F"/>
<path d="M486.485 278.816C486.52 278.813 486.555 279.269 486.711 280.121C486.861 280.972 487.161 282.22 487.761 283.748C488.351 285.284 489.261 287.081 490.423 289.114C491.565 291.156 493.017 293.418 494.203 296.154C495.359 298.857 496.407 302.142 495.803 305.698C495.527 307.464 494.732 309.184 493.66 310.724C492.589 312.276 491.265 313.68 489.896 315.073C487.165 317.854 484.265 320.764 481.901 324.252C479.535 327.7 477.792 331.88 477.773 336.322C477.761 338.538 478.28 340.674 479.187 342.645C480.052 344.636 481.139 346.536 481.773 348.627C482.087 349.669 482.276 350.768 482.195 351.864C482.113 352.958 481.756 354.024 481.185 354.929C480.023 356.749 478.3 357.932 476.751 359.091C470.472 363.719 464.813 367.888 460.044 371.402C455.309 374.858 451.463 377.669 448.748 379.652C447.44 380.588 446.407 381.327 445.655 381.866C445.324 382.093 445.057 382.278 444.84 382.428C444.653 382.552 444.555 382.61 444.548 382.601C444.54 382.59 444.625 382.514 444.797 382.372C445.004 382.207 445.257 382.003 445.572 381.753C446.305 381.189 447.311 380.414 448.585 379.434C451.269 377.409 455.072 374.54 459.752 371.008C464.496 367.46 470.124 363.249 476.368 358.578C477.919 357.412 479.573 356.244 480.623 354.578C481.139 353.753 481.452 352.803 481.524 351.815C481.595 350.826 481.423 349.813 481.123 348.825C480.517 346.837 479.441 344.952 478.553 342.924C477.623 340.909 477.061 338.624 477.08 336.322C477.097 331.693 478.917 327.384 481.337 323.87C483.759 320.316 486.699 317.393 489.441 314.625C492.171 311.906 494.695 309.005 495.236 305.597C495.837 302.23 494.863 299.02 493.751 296.349C492.615 293.645 491.199 291.372 490.084 289.304C488.951 287.245 488.064 285.41 487.509 283.845C486.94 282.282 486.68 281.009 486.573 280.142C486.504 279.712 486.499 279.377 486.483 279.154C486.472 278.93 486.472 278.816 486.485 278.816Z" fill="#17282F"/>
<path d="M445.377 378.622C445.375 378.633 445.265 378.622 445.052 378.585C444.8 378.538 444.489 378.481 444.111 378.409C443.285 378.241 442.077 377.938 440.555 377.436C437.537 376.402 433.205 374.468 428.829 370.708C426.644 368.844 424.492 366.5 422.6 363.69C420.724 360.874 419.124 357.581 418.073 353.919C416.996 350.266 416.483 346.244 416.681 342.101C416.767 340.034 417.103 337.92 417.52 335.852C417.887 333.794 418.244 331.629 417.695 329.618C417.423 328.622 416.841 327.75 416.077 327.101C415.293 326.461 414.332 326.057 413.34 325.729C412.349 325.394 411.32 325.121 410.327 324.709C409.328 324.305 408.401 323.693 407.625 322.958C406.099 321.428 405.268 319.414 404.881 317.448C404.473 315.466 404.449 313.49 404.557 311.588C405.255 304.012 407.008 297.373 408.929 291.98C410.865 286.585 412.971 282.44 414.532 279.652C415.324 278.261 415.961 277.196 416.425 276.493C416.637 276.172 416.809 275.908 416.951 275.693C417.073 275.516 417.14 275.426 417.151 275.433C417.16 275.44 417.113 275.54 417.011 275.732C416.887 275.956 416.733 276.229 416.545 276.566C416.12 277.292 415.523 278.376 414.769 279.781C413.285 282.6 411.259 286.758 409.393 292.142C407.543 297.516 405.849 304.15 405.195 311.628C405.099 313.489 405.132 315.417 405.531 317.313C405.907 319.202 406.704 321.077 408.101 322.472C408.819 323.144 409.648 323.696 410.588 324.074C411.528 324.462 412.54 324.732 413.56 325.073C414.576 325.409 415.625 325.84 416.519 326.566C417.393 327.302 418.06 328.316 418.361 329.426C418.965 331.668 418.565 333.898 418.199 335.977C417.776 338.069 417.452 340.096 417.361 342.136C417.156 346.198 417.645 350.149 418.688 353.741C420.715 360.988 424.893 366.63 429.152 370.338C433.427 374.095 437.679 376.077 440.644 377.181C442.14 377.719 443.331 378.064 444.141 378.274C444.516 378.372 444.819 378.452 445.067 378.517C445.275 378.574 445.38 378.61 445.377 378.622Z" fill="#17282F"/>
<path d="M500.865 400.033L412.515 397.179L412.649 426.496L471.145 439.358L512.305 445.929C537.887 445.929 558.349 422.452 554.387 397.179L554.279 397.208L500.865 400.033Z" fill="#3D89D1"/>
<path d="M525.189 399.472C525.189 399.496 524.795 399.522 524.044 399.552C523.232 399.574 522.137 399.606 520.759 399.645C517.84 399.698 513.731 399.773 508.68 399.864C498.479 400.014 484.385 400.185 468.816 400.038C453.243 399.884 439.148 399.322 428.965 398.632C423.875 398.293 419.757 397.964 416.919 397.678C415.548 397.537 414.459 397.425 413.649 397.344C412.904 397.258 412.512 397.202 412.515 397.18C412.517 397.156 412.912 397.165 413.663 397.203C414.473 397.254 415.565 397.322 416.94 397.408C419.784 397.612 423.904 397.865 428.995 398.142C439.177 398.705 453.257 399.189 468.823 399.344C484.383 399.491 498.473 399.397 508.676 399.373C513.727 399.374 517.837 399.374 520.757 399.376C522.136 399.391 523.231 399.403 524.043 399.412C524.795 399.428 525.189 399.449 525.189 399.472Z" fill="#17282F"/>
<path d="M411.765 399.888L403.575 398.37C403.575 398.37 384.156 377.131 380.515 376.829C377.519 376.578 361 376.739 355.247 376.805C354.149 376.817 353.269 377.71 353.269 378.807C353.269 379.882 354.119 380.765 355.195 380.807L374.711 381.565L374.803 383.134L355.26 383.396C353.269 383.548 351.995 386.7 358.364 387.267L374.711 387.849V388.865L358.136 391.182C357.297 391.298 355.095 391.727 355.075 392.573C355.075 392.573 354.071 394.65 358.793 395.239C360.415 395.442 374.803 394.964 374.803 394.964L374.249 396.258L359.352 399.472C358.268 399.707 357.548 400.738 357.701 401.837C357.86 402.957 358.868 403.754 359.995 403.65L375.912 402.174L391.531 414.65H412.417L411.765 399.888Z" fill="#F8A58D"/>
<path d="M510.74 445.465C510.737 445.489 510.391 445.468 509.737 445.406C509.016 445.327 508.065 445.226 506.877 445.098C504.395 444.822 500.809 444.366 496.387 443.753C487.54 442.532 475.352 440.595 461.976 437.976C448.599 435.349 436.58 432.538 427.927 430.33C423.6 429.227 420.108 428.296 417.705 427.614C416.557 427.284 415.639 427.019 414.943 426.819C414.313 426.627 413.985 426.517 413.992 426.496C413.999 426.472 414.337 426.537 414.979 426.684C415.683 426.85 416.612 427.073 417.775 427.352C420.273 427.961 423.763 428.81 428.044 429.853C436.721 431.938 448.747 434.67 462.111 437.294C475.472 439.909 487.636 441.922 496.459 443.268C500.816 443.919 504.368 444.45 506.913 444.83C508.093 445.012 509.037 445.157 509.753 445.266C510.404 445.373 510.743 445.441 510.74 445.465Z" fill="#17282F"/>
<path d="M413.44 426.629C413.349 426.642 413.031 425.052 412.675 422.454C412.319 419.855 411.945 416.25 411.739 412.254C411.533 408.255 411.533 404.63 411.621 402.012C411.708 399.39 411.861 397.774 411.952 397.778C412.053 397.781 412.073 399.401 412.112 402.015C412.149 404.627 412.228 408.237 412.432 412.219C412.639 416.198 412.932 419.794 413.163 422.4C413.392 425.003 413.54 426.617 413.44 426.629Z" fill="#17282F"/>
<path d="M423.101 427.777C423.055 427.788 422.919 427.391 422.713 426.664C422.504 425.936 422.249 424.872 421.973 423.548C421.42 420.902 420.852 417.198 420.599 413.074C420.349 408.95 420.465 405.203 420.693 402.51C420.807 401.162 420.931 400.076 421.051 399.329C421.167 398.581 421.252 398.172 421.3 398.177C421.405 398.188 421.284 399.852 421.184 402.538C421.083 405.226 421.045 408.941 421.291 413.033C421.543 417.124 422.029 420.805 422.456 423.461C422.881 426.115 423.204 427.752 423.101 427.777Z" fill="#17282F"/>
<path d="M414.94 402.472C415.015 402.553 414.504 402.919 414.523 403.758C414.533 404.156 414.685 404.653 415.061 404.949C415.421 405.253 416.023 405.264 416.532 404.972C417.04 404.68 417.332 404.153 417.249 403.686C417.181 403.214 416.827 402.833 416.489 402.626C415.772 402.188 415.199 402.446 415.167 402.341C415.085 402.296 415.704 401.767 416.713 402.188C417.173 402.394 417.716 402.833 417.879 403.574C418.057 404.329 417.591 405.181 416.879 405.573C416.181 405.993 415.209 405.969 414.648 405.437C414.087 404.924 413.98 404.234 414.032 403.733C414.173 402.649 414.943 402.38 414.94 402.472Z" fill="#17282F"/>
<path d="M431.004 432.114C431.001 432.138 430.689 432.148 430.095 432.143C429.501 432.129 428.627 432.134 427.5 432.153C425.251 432.194 421.995 432.417 418.019 433.042C414.043 433.67 409.364 434.734 404.215 436.108C399.061 437.466 393.425 439.119 387.391 440.433C381.359 441.736 375.468 442.491 370.092 442.308C364.72 442.142 359.932 441.091 356.139 439.64C352.344 438.173 349.549 436.369 347.793 434.939C346.919 434.217 346.261 433.633 345.855 433.196C345.435 432.773 345.223 432.543 345.24 432.526C345.297 432.466 346.161 433.376 347.959 434.726C349.749 436.076 352.547 437.791 356.311 439.181C360.075 440.553 364.805 441.54 370.111 441.669C375.416 441.814 381.245 441.049 387.244 439.754C393.245 438.448 398.881 436.817 404.053 435.489C409.223 434.146 413.937 433.126 417.945 432.557C421.955 431.99 425.237 431.842 427.5 431.882C428.631 431.906 429.508 431.945 430.101 432.005C430.695 432.053 431.005 432.09 431.004 432.114Z" fill="#17282F"/>
<path d="M469.867 287.772C471.968 276.056 474.393 263.76 474.393 263.76C474.393 263.76 489.936 263.912 496.535 244.76C502.829 226.494 507.376 182.557 507.376 182.557C487.201 169.865 460.415 171.232 441.852 185.898L426.357 281.336C424.559 292.416 432.652 302.786 444.531 304.622C456.528 306.474 467.864 298.933 469.867 287.772Z" fill="#F8A58D"/>
<path d="M495.816 215.465C495.629 216.808 494.337 217.756 492.931 217.586C491.528 217.416 490.54 216.192 490.728 214.849C490.916 213.506 492.208 212.556 493.611 212.726C495.017 212.897 496.005 214.124 495.816 215.465Z" fill="#17282F"/>
<path d="M500.413 213.357C500.04 213.632 498.376 211.878 495.654 211.406C492.945 210.897 490.703 211.944 490.467 211.558C490.348 211.386 490.77 210.848 491.752 210.368C492.717 209.888 494.285 209.533 495.977 209.838C497.669 210.146 498.984 211.02 499.692 211.802C500.415 212.592 500.592 213.238 500.413 213.357Z" fill="#17282F"/>
<path d="M467.896 211.044C467.708 212.385 466.417 213.333 465.011 213.164C463.608 212.993 462.62 211.769 462.807 210.426C462.995 209.084 464.288 208.133 465.692 208.304C467.096 208.474 468.084 209.7 467.896 211.044Z" fill="#17282F"/>
<path d="M471.865 209.349C471.494 209.622 469.828 207.869 467.109 207.397C464.399 206.886 462.156 207.934 461.92 207.549C461.802 207.377 462.223 206.837 463.205 206.358C464.172 205.88 465.738 205.524 467.43 205.828C469.124 206.136 470.437 207.01 471.144 207.793C471.865 208.581 472.045 209.228 471.865 209.349Z" fill="#17282F"/>
<path d="M478.183 231.252C478.196 231.094 479.938 231.101 482.74 231.233C483.446 231.284 484.128 231.261 484.328 230.808C484.581 230.334 484.421 229.536 484.228 228.668C483.87 226.873 483.497 224.992 483.105 223.02C481.58 214.99 480.605 208.436 480.929 208.378C481.253 208.32 482.752 214.78 484.278 222.81C484.638 224.788 484.982 226.672 485.308 228.476C485.432 229.31 485.726 230.285 485.189 231.264C484.91 231.749 484.334 232.037 483.868 232.077C483.4 232.134 483.008 232.073 482.66 232.034C479.877 231.697 478.165 231.408 478.183 231.252Z" fill="#17282F"/>
<path d="M474.393 263.76C474.393 263.76 460.988 262.28 449.247 252.073C449.247 252.073 453.264 266.736 473.308 268.364L474.393 263.76Z" fill="#F68260"/>
<path d="M475.879 237.602C475.129 236.137 473.54 235.126 471.807 235.009C470.604 234.928 469.312 235.288 468.425 236.122C467.539 236.956 467.149 238.294 467.639 239.325C468.192 240.485 469.683 240.994 471.045 240.853C472.409 240.714 473.676 240.057 474.887 239.392C475.221 239.208 475.564 239.016 475.805 238.725C476.044 238.434 476.157 238.018 475.979 237.712" fill="#F68260"/>
<path d="M469.849 231.722C470.296 231.776 469.781 234.728 471.939 237.268C474.089 239.813 477.296 240.036 477.247 240.453C477.253 240.645 476.444 240.904 475.109 240.705C473.8 240.52 471.971 239.766 470.651 238.213C469.336 236.657 468.975 234.826 469.087 233.597C469.192 232.344 469.649 231.67 469.849 231.722Z" fill="#17282F"/>
<path d="M455.179 171.816C460.441 183.429 477.504 197.56 490.681 202.573C489.483 200.178 482.077 193.437 480.879 191.042C486.195 196.822 493.877 204.661 502.001 206.621C502.963 206.853 504.012 207.048 504.903 206.712C506.115 206.254 506.579 205.008 506.917 203.893C508.352 199.186 509.569 190.882 509.701 185.969C509.833 181.056 508.535 175.9 504.997 171.924C500.507 166.877 493.175 164.46 486.121 162.957C480.205 161.696 474.013 160.896 468.177 162.018C462.343 163.141 456.9 166.505 455.145 171.452" fill="#17282F"/>
<path d="M423.759 215.556C423.725 210.28 423.845 205.302 424.267 202.044C425.596 191.789 428.793 154.504 463.208 164.097L459.545 173.646C459.545 173.646 462.189 197.644 444.524 210.53C444.524 210.53 444.6 234.481 432.364 243.124C432.364 243.124 423.832 226.88 423.759 215.556Z" fill="#17282F"/>
<path d="M445.26 208.905C443.225 208.126 440.987 207.792 438.847 208.193C436.704 208.596 434.675 209.778 433.463 211.588C432.247 213.402 431.925 215.725 432.299 217.877C432.671 220.029 433.689 222.028 434.955 223.808C435.863 225.086 436.94 226.297 438.332 227.02C439.724 227.742 441.485 227.902 442.84 227.112" fill="#F8A58D"/>
<path d="M441.847 221.472C442.073 221.593 440.932 222.706 439.097 221.849C438.213 221.439 437.452 220.466 437.084 219.35C436.713 218.218 436.556 217.021 436.649 215.669C436.748 214.33 437.295 212.986 438.195 212.117C439.064 211.223 440.3 210.823 441.251 210.969C443.24 211.274 443.612 212.756 443.38 212.756C443.195 212.888 442.549 212.045 441.196 212.129C439.915 212.138 438.391 213.634 438.284 215.812C438.139 218.021 438.621 220.151 439.689 220.85C440.78 221.673 441.745 221.274 441.847 221.472Z" fill="#F68260"/>
<path d="M441.809 227.068C436.465 258.952 440.821 291.54 441.775 323.854C441.865 326.952 441.893 330.197 440.485 332.958C438.357 337.132 433.405 339.16 428.727 339.448C424.049 339.736 419.408 338.642 414.737 338.261C414.233 335.161 413.731 332.061 413.227 328.961C411.671 332.533 410.115 336.105 408.559 339.677C410.615 317.001 412.865 294.344 415.309 271.705" fill="#17282F"/>
</g>
<defs>
<filter id="filter0_d_3_430" x="0" y="0" width="845.919" height="483.772" filterUnits="userSpaceOnUse" color-interpolation-filters="sRGB">
<feFlood flood-opacity="0" result="BackgroundImageFix"/>
<feColorMatrix in="SourceAlpha" type="matrix" values="0 0 0 0 0 0 0 0 0 0 0 0 0 0 0 0 0 0 127 0" result="hardAlpha"/>
<feOffset dy="4"/>
<feGaussianBlur stdDeviation="2"/>
<feComposite in2="hardAlpha" operator="out"/>
<feColorMatrix type="matrix" values="0 0 0 0 0 0 0 0 0 0 0 0 0 0 0 0 0 0 0.25 0"/>
<feBlend mode="normal" in2="BackgroundImageFix" result="effect1_dropShadow_3_430"/>
<feBlend mode="normal" in="SourceGraphic" in2="effect1_dropShadow_3_430" result="shape"/>
</filter>
</defs>
</svg>
