<svg width="2244" height="1423" viewBox="0 0 2244 1423" fill="none" xmlns="http://www.w3.org/2000/svg">
<path d="M1124.52 264.94C1126.41 269.7 1127.96 274.833 1129.03 280.313C1131.07 290.766 1128.95 307.273 1124.23 316.833C1123.72 317.873 1123.2 318.859 1122.68 319.859C1090.12 380.313 1004.77 368.286 990.72 300.086C988.894 291.166 990.027 278.193 993.214 268.233C993.987 265.94 994.814 263.779 995.76 261.953C1000.11 253.273 1005.49 246.006 1011.64 240.1C1046.69 206.433 1105.25 217.46 1124.52 264.94V264.94ZM911.627 359.433L944.907 355.686C947.68 355.406 950.374 356.7 951.894 359.033C953.814 362.02 955.88 364.953 958.08 367.819C962.174 373.153 966.56 378.086 971.254 382.526C973.454 384.619 974.187 387.793 973.067 390.593L960.307 423.166C958.907 426.633 960.44 430.619 963.854 432.286L992.52 446.486C995.774 448.086 999.667 446.993 1001.63 443.966L1018.97 416.806C1020.6 414.126 1023.84 412.886 1026.96 413.713C1040.13 417.193 1053.84 418.553 1067.55 417.753C1070.85 417.566 1073.93 419.713 1074.92 422.859L1080.8 441.566C1081.95 445.113 1085.57 447.299 1089.25 446.593L1120.4 440.3C1121.04 440.166 1121.63 439.993 1122.19 439.7C1124.89 438.406 1126.55 435.473 1126.17 432.406L1123.4 407.54L1122.72 401.486C1127.89 398.566 1132.97 395.233 1137.81 391.513C1144.33 386.513 1150.28 380.993 1155.53 375.113C1157.55 372.873 1160.71 372.059 1163.49 373.193L1189.73 383.5C1193.33 384.886 1197.39 383.339 1199.07 379.886L1209.93 357.966L1213.03 351.673C1214.73 348.246 1213.59 344.059 1210.36 342.019L1187.68 327.513C1185.03 325.86 1183.72 322.726 1184.48 319.74C1186.59 310.793 1187.77 301.646 1187.93 292.5C1188.01 291.7 1188 290.966 1188 290.193C1187.99 289.926 1188.03 289.673 1188.05 289.419C1188.33 286.486 1190.37 284.033 1193.2 283.166L1223.55 273.553C1223.91 273.473 1224.24 273.313 1224.53 273.166C1227.49 271.726 1229.17 268.406 1228.55 265.113L1222.31 234.073C1221.56 230.326 1218.08 227.779 1214.25 228.193L1179.55 232.113C1176.61 232.486 1173.79 230.966 1172.39 228.353C1169.25 222.659 1165.63 217.099 1161.52 211.726C1159.33 208.886 1157.07 206.166 1154.69 203.566C1152.79 201.433 1152.23 198.42 1153.28 195.766L1165.53 164.446C1166.89 161.006 1165.39 157.046 1162.03 155.38L1133.65 141.38C1130.23 139.673 1126.07 140.793 1123.96 144.059L1110.24 165.553C1108.4 168.433 1104.88 169.673 1101.67 168.593C1089.05 164.219 1075.84 161.886 1062.51 161.553C1059.36 161.539 1056.56 159.446 1055.6 156.406L1046.96 129.046C1045.8 125.38 1042.05 123.193 1038.28 123.926L1007.35 130.113C1003.63 130.846 1001.11 134.339 1001.56 138.059L1001.71 139.5L1004.93 168.393C1005.28 171.486 1003.69 174.406 1000.93 175.833L1000.91 175.859C994.267 179.286 987.854 183.339 981.707 188.059C978.427 190.566 975.347 193.206 972.347 195.966C970.294 197.913 967.334 198.486 964.707 197.459L938.067 186.993C934.427 185.553 930.28 187.166 928.574 190.646L914.614 218.9C914.214 219.713 914 220.566 913.894 221.393C913.614 224.086 914.867 226.859 917.24 228.393L935.4 239.926C937.6 241.366 938.894 243.886 938.787 246.446C938.747 247.126 938.627 247.806 938.414 248.486C932.894 264.699 930.68 281.819 931.88 298.913C932.12 301.806 930.507 304.513 927.987 305.846C927.627 306.033 927.24 306.193 926.84 306.326L902.254 314.086C898.694 315.206 896.547 318.833 897.267 322.526L897.4 323.246L903.454 353.513C904.254 357.313 907.774 359.86 911.627 359.433" fill="#E9E9E9"/>
<path d="M1968.2 242.886C1936.25 178.499 1825.65 222.579 1825.65 222.579C1825.65 222.579 1771.35 357.139 1749.23 364.486C1727.11 371.819 1773.19 240.366 1773.19 240.366C1728.4 244.846 1627.11 320.953 1627.11 320.953C1627.11 320.953 1661.8 458.473 1638.56 460.153C1615.31 461.819 1614.05 336.819 1614.05 336.819C1574.05 358.019 1544.23 415.526 1544.23 415.526C1510.65 506.179 1628.81 544.606 1628.81 544.606C1628.81 544.606 1639.8 592.513 1621.01 653.713V653.726C1621.01 653.726 1616.32 665.26 1612.93 683.966L1624.53 681.673C1624.87 678.366 1625.31 675.153 1625.89 672.046L1625.91 671.993L1625.93 671.846C1626.37 669.899 1627 667.126 1627.81 663.739V663.726V663.713C1629.99 656.073 1631.36 650.473 1632.13 646.473L1632.15 646.433C1638.43 622.566 1648.08 591.166 1657.11 583.193C1657.11 583.193 1655.45 581.633 1653.56 578.366C1654.69 579.9 1655.87 581.499 1657.11 583.193C1685.4 621.766 1786.04 609.153 1839.07 586.819C1892.11 564.499 1864.91 553.7 1830.11 534.3C1795.31 514.9 1734.27 533.966 1713.87 527.7C1693.47 521.446 1718.43 506.166 1755.85 501.686C1793.27 497.193 1819.01 530.393 1879.68 524.233C1940.35 518.073 1963.47 397.073 1963.47 397.073C1924.89 417.993 1846.67 409.966 1841.01 396.353C1835.36 382.739 1944.8 362.473 1960.97 354.833C1977.13 347.206 2000.15 307.273 1968.2 242.886" fill="#E9E9E9"/>
<path d="M143.32 737.74C130.32 667.06 245.28 636.073 245.28 636.073C245.28 636.073 369.387 711.26 391.493 703.886C413.6 696.513 297.933 618.873 297.933 618.873C336.48 595.62 463.173 595.873 463.173 595.873C463.173 595.873 517.813 726.753 537.413 714.153C557.027 701.566 483.133 600.74 483.133 600.74C527.853 593.753 586.2 621.913 586.2 621.913C667.4 674.38 595.827 775.94 595.827 775.94C595.827 775.94 615.733 820.886 667.453 858.62C667.453 858.62 678.12 865.06 692.04 878.006L681.373 883.1C679.133 880.66 676.853 878.353 674.52 876.22L674.48 876.18L674.373 876.086C672.853 874.78 670.693 872.94 668.013 870.713L668 870.7H667.987C661.68 865.873 657.227 862.22 654.2 859.486L654.173 859.46C634.84 844.113 608.293 824.766 596.293 823.78C596.293 823.78 596.68 821.553 596.24 817.793C596.253 819.7 596.28 821.7 596.293 823.78C596.76 871.62 508.627 921.82 452.787 935.726C396.96 949.633 412.253 924.686 428.493 888.313C444.733 851.926 505.027 830.606 517.613 813.366C530.187 796.14 501.053 798.86 468.4 817.7C435.76 836.526 435.027 878.526 382.773 909.953C330.52 941.38 239.507 858.353 239.507 858.353C282.92 851.993 340.733 798.686 337.093 784.406C333.467 770.113 233.707 819.46 216.187 823.046C198.68 826.62 156.32 808.433 143.32 737.74" fill="#E9E9E9"/>
<path d="M2036.4 1191.45C2092.96 1147.11 2027.37 1047.74 2027.37 1047.74C2027.37 1047.74 1884.59 1021.86 1872.91 1001.69C1861.24 981.513 1999.32 999.98 1999.32 999.98C1985.84 957.033 1890.77 873.286 1890.77 873.286C1890.77 873.286 1763.15 935.14 1756.8 912.713C1750.44 890.286 1872.6 863.713 1872.6 863.713C1843.72 828.846 1781.36 811.3 1781.36 811.3C1685.77 796.82 1672.12 920.3 1672.12 920.3C1672.12 920.3 1627.43 940.78 1563.69 934.793H1563.68C1563.68 934.793 1551.43 932.54 1532.43 933.02L1537.04 943.913C1540.33 943.566 1543.57 943.353 1546.73 943.286H1546.79H1546.93C1548.93 943.326 1551.77 943.38 1555.25 943.486H1555.27H1555.29C1563.2 944.06 1568.96 944.273 1573.04 944.22H1573.08C1597.73 945.526 1630.44 948.62 1640.07 955.833C1640.07 955.833 1641.25 953.913 1644.08 951.393C1642.8 952.806 1641.47 954.286 1640.07 955.833C1608.03 991.366 1640.8 1087.35 1673.41 1134.75C1706.03 1182.17 1711.09 1153.34 1723.03 1115.33C1734.96 1077.33 1703.92 1021.41 1705.91 1000.17C1707.91 978.913 1727.93 1000.26 1739.91 1035.99C1751.89 1071.73 1724.61 1103.67 1742.95 1161.83C1761.28 1219.99 1884.45 1218.09 1884.45 1218.09C1856.13 1184.55 1848.15 1106.33 1860.33 1098.03C1872.51 1089.74 1914.55 1192.79 1925.31 1207.07C1936.05 1221.35 1979.83 1235.79 2036.4 1191.45" fill="#E9E9E9"/>
<path d="M1522.85 359.3C1522.85 359.3 1529.48 226.86 1591.39 143.833C1594.43 139.78 1598.72 137.953 1602.97 137.953C1610.27 137.953 1617.44 143.326 1617.85 152.006C1617.87 152.233 1617.87 152.473 1617.88 152.7C1618.63 176.193 1550.07 280.233 1522.85 359.3Z" fill="#F4F4F4"/>
<path d="M1517.25 397.473C1517.25 397.473 1573.03 228.673 1682.59 148.166C1685.41 146.086 1688.76 145.059 1692.07 145.059C1696.57 145.059 1701.01 146.953 1703.99 150.7C1707.35 154.926 1709.19 161.766 1706.52 172.833C1699.37 202.34 1578.31 308.353 1517.25 397.473Z" fill="#F4F4F4"/>
<path d="M568.8 574.433C518.147 525.433 426.92 473.486 418.507 455.566C418.427 455.38 418.347 455.206 418.267 455.033C414.347 446.326 421.187 437.473 429.52 437.473C431.32 437.473 433.173 437.873 435.027 438.793C513.227 477.499 568.8 574.433 568.8 574.433" fill="#F4F4F4"/>
<path d="M587.587 600.953C507.693 557.34 376.267 523.98 359.64 504.54C353.4 497.26 352.173 491.406 353.08 486.953C354.32 480.833 359.907 476.686 366 476.686C366.72 476.686 367.453 476.753 368.187 476.873C481.213 495.486 587.587 600.953 587.587 600.953" fill="#F4F4F4"/>
<path d="M1795.91 364.886V1205.74C1795.91 1220.45 1785.29 1232.38 1772.2 1232.38H559.04C545.947 1232.38 535.333 1220.45 535.333 1205.74V364.886C535.333 350.166 545.947 338.246 559.04 338.246H1772.2C1785.29 338.246 1795.91 350.166 1795.91 364.886Z" fill="#B8C0C7"/>
<path d="M1735.95 316.886V385.073H382.067V316.886C382.067 302.819 393.467 291.419 407.534 291.419H1710.48C1724.53 291.419 1735.95 302.819 1735.95 316.886Z" fill="#43A1F6"/>
<path d="M423.48 338.246C423.48 331.699 428.787 326.393 435.333 326.393C441.88 326.393 447.187 331.699 447.187 338.246C447.187 344.793 441.88 350.099 435.333 350.099C428.787 350.099 423.48 344.793 423.48 338.246Z" fill="#E9E9E9"/>
<path d="M470.2 338.246C470.2 331.699 475.507 326.393 482.054 326.393C488.6 326.393 493.907 331.699 493.907 338.246C493.907 344.793 488.6 350.099 482.054 350.099C475.507 350.099 470.2 344.793 470.2 338.246Z" fill="#E9E9E9"/>
<path d="M518.093 338.246C518.093 331.699 523.4 326.393 529.947 326.393C536.507 326.393 541.813 331.699 541.813 338.246C541.813 344.793 536.507 350.099 529.947 350.099C523.4 350.099 518.093 344.793 518.093 338.246Z" fill="#E9E9E9"/>
<path d="M1362.84 171.953C1363.77 174.273 1364.52 176.766 1365.04 179.433C1366.04 184.526 1365 192.566 1362.69 197.22C1362.45 197.726 1362.2 198.206 1361.95 198.7C1346.09 228.14 1304.52 222.286 1297.68 189.073C1296.8 184.726 1297.35 178.406 1298.91 173.553C1299.28 172.433 1299.68 171.393 1300.13 170.5C1302.25 166.273 1304.88 162.726 1307.88 159.86C1324.95 143.46 1353.47 148.82 1362.84 171.953V171.953ZM1259.17 217.966L1275.37 216.14C1276.72 216.006 1278.04 216.633 1278.77 217.766C1279.71 219.233 1280.72 220.66 1281.79 222.06C1283.79 224.646 1285.92 227.046 1288.2 229.22C1289.28 230.233 1289.63 231.78 1289.08 233.14L1282.87 249.006C1282.19 250.7 1282.93 252.633 1284.6 253.446L1298.56 260.366C1300.15 261.14 1302.04 260.606 1303 259.14L1311.44 245.913C1312.24 244.606 1313.81 243.993 1315.33 244.406C1321.75 246.1 1328.43 246.766 1335.09 246.366C1336.71 246.273 1338.21 247.326 1338.69 248.86L1341.55 257.966C1342.11 259.7 1343.88 260.766 1345.67 260.42L1360.84 257.353C1361.15 257.286 1361.44 257.206 1361.71 257.06C1363.03 256.433 1363.84 255.006 1363.65 253.513L1362.31 241.406L1361.96 238.446C1364.49 237.033 1366.96 235.406 1369.32 233.593C1372.49 231.153 1375.39 228.46 1377.95 225.606C1378.93 224.513 1380.47 224.126 1381.83 224.673L1394.6 229.686C1396.36 230.366 1398.33 229.606 1399.15 227.926L1404.44 217.26L1405.95 214.193C1406.77 212.526 1406.23 210.486 1404.65 209.486L1393.6 202.42C1392.31 201.62 1391.68 200.086 1392.04 198.646C1393.08 194.286 1393.65 189.833 1393.73 185.366C1393.77 184.98 1393.76 184.633 1393.76 184.246C1393.76 184.126 1393.77 183.993 1393.79 183.873C1393.92 182.446 1394.92 181.246 1396.29 180.82L1411.07 176.14C1411.24 176.1 1411.4 176.02 1411.56 175.953C1412.99 175.26 1413.81 173.633 1413.51 172.033L1410.47 156.913C1410.11 155.086 1408.41 153.86 1406.55 154.06L1389.64 155.966C1388.21 156.14 1386.84 155.406 1386.16 154.126C1384.63 151.353 1382.87 148.646 1380.87 146.033C1379.8 144.66 1378.69 143.326 1377.55 142.06C1376.61 141.02 1376.33 139.553 1376.85 138.26L1382.81 123.006C1383.48 121.326 1382.75 119.406 1381.12 118.593L1367.29 111.78C1365.63 110.94 1363.6 111.486 1362.57 113.086L1355.89 123.553C1355 124.953 1353.28 125.553 1351.71 125.033C1345.57 122.9 1339.13 121.766 1332.64 121.606C1331.11 121.593 1329.75 120.58 1329.28 119.086L1325.07 105.766C1324.51 103.98 1322.68 102.913 1320.84 103.273L1305.77 106.286C1303.97 106.646 1302.73 108.353 1302.96 110.153L1303.03 110.86L1304.6 124.926C1304.77 126.433 1304 127.86 1302.65 128.553L1302.64 128.566C1299.41 130.233 1296.28 132.206 1293.29 134.5C1291.69 135.726 1290.2 137.02 1288.73 138.366C1287.73 139.313 1286.29 139.593 1285.01 139.086L1272.04 133.993C1270.27 133.286 1268.25 134.073 1267.41 135.766L1260.61 149.526C1260.43 149.926 1260.32 150.34 1260.27 150.74C1260.13 152.06 1260.73 153.406 1261.89 154.153L1270.73 159.766C1271.81 160.473 1272.44 161.7 1272.39 162.94C1272.37 163.273 1272.32 163.606 1272.21 163.94C1269.52 171.833 1268.45 180.166 1269.03 188.5C1269.15 189.9 1268.36 191.22 1267.13 191.873C1266.96 191.966 1266.77 192.046 1266.57 192.1L1254.6 195.886C1252.87 196.433 1251.83 198.193 1252.17 199.993L1252.24 200.34L1255.19 215.086C1255.57 216.94 1257.29 218.18 1259.17 217.966" fill="#E9E9E9"/>
<path d="M316.027 978.74C316.027 978.74 317.827 959.073 295.84 959.073C295.84 959.073 302.507 960.873 305.96 964.486C305.96 964.486 291.933 956.26 276.667 968.913C261.413 981.553 270.894 1013.29 266.254 1019.3C261.614 1025.33 243.533 1026.54 245.747 1046.01C247.96 1065.49 303.107 1089.89 299.56 1105.99C299.56 1105.99 321.174 1074.23 305.72 1059.73C305.72 1059.73 313.253 1066.83 314.013 1075.26C314.013 1075.26 316.067 1058.79 305.587 1053.53C296.307 1048.87 288.72 1031.82 289.52 1028.78C290.32 1025.73 316.027 978.74 316.027 978.74Z" fill="#151F2C"/>
<path d="M294.387 1073.22C294.387 1073.22 310.8 1141.18 326.933 1154.77C336.627 1162.93 365.44 1181.66 365.44 1181.66L353.453 1186.01C353.453 1186.01 313.48 1172.51 304.533 1161.99C295.587 1151.47 271.093 1098.75 271.093 1098.75L294.387 1073.22" fill="#EE805F"/>
<path d="M140.014 1192.61C140.147 1192.86 140.307 1193.14 140.454 1193.41C144.054 1199.65 152.307 1214.95 161.387 1231.71C165.68 1239.66 170.173 1247.93 174.44 1255.71C181.8 1269.15 188.48 1281.11 192.387 1287.43C196.36 1293.87 199.28 1298.38 200.454 1300.19L200.467 1300.21C200.827 1300.75 200.894 1301.41 200.854 1302.06C200.44 1307.74 200.547 1313.37 201.107 1318.91C206.587 1373.41 243.334 1402.62 243.334 1402.62L254.267 1404.23C254.267 1404.23 238.8 1346.94 234.254 1314.55C233.48 1309.07 233.147 1304.62 233.414 1301.73C234.214 1293.29 232.72 1280.9 229.88 1266.67C224.84 1241.39 215.587 1210.38 207.547 1185.54C207.027 1183.95 191.667 1128.37 191.667 1128.37C178.774 1139.65 131.72 1144.3 131.72 1144.3C131.72 1144.3 123.747 1163.69 140.014 1192.61" fill="#384152"/>
<path d="M277.2 1418.06H231.6C231.6 1418.06 230.507 1411.11 232.88 1405.83C235.16 1400.78 238.413 1400.62 233.293 1392.69C236.2 1395.67 245.507 1396.9 252.107 1396.02C252.907 1397.33 257.307 1406.11 260.013 1408.05C262.987 1410.19 276.28 1409.43 277.2 1418.06" fill="#151F2C"/>
<path d="M140.013 1192.61C140.147 1192.86 140.307 1193.14 140.454 1193.41C144.054 1199.65 163.493 1235.55 172.573 1252.3C162.053 1209.01 169.373 1165.71 169.373 1165.71L140.013 1192.61Z" fill="#151F2C"/>
<path d="M309.8 975.98C310.107 974.78 283.76 987.886 282.427 989.366C270.067 1003.07 273.587 1020.95 280.667 1021.13C285.2 1021.23 284.32 1028.78 284.32 1028.78L334.827 1007.41C334.827 1007.41 328.747 971.94 309.8 975.98" fill="#151F2C"/>
<path d="M292.827 1063.02C292.827 1063.02 300.52 1078.38 299.56 1090.83C299.56 1090.83 290.293 1105.47 266.253 1109.17C266.253 1109.17 286.92 1063.01 292.827 1063.02Z" fill="#43A1F6"/>
<path d="M175.56 1147.69L175.72 1139.17C158.72 1141.3 117.12 1118.85 117.12 1118.85C117.12 1118.85 99.3467 1130.67 96.9067 1164.45C95.72 1180.93 88.2 1250.63 87.3734 1271.45C87.0667 1278.99 86.9734 1284.38 86.9334 1286.53V1286.55C86.9334 1287.21 86.6133 1287.79 86.2133 1288.3C82.6933 1292.78 79.6533 1297.51 77.0133 1302.42C51.08 1350.67 64.64 1416.22 64.64 1416.22L70.6533 1414.7C70.6533 1414.7 92.5867 1346.74 106.92 1317.34C109.347 1312.35 111.56 1308.47 113.4 1306.23C118.787 1299.69 124.48 1288.57 130.08 1275.19C140.667 1249.91 175.56 1147.69 175.56 1147.69" fill="#384152"/>
<path d="M100.907 1418.06H55.2934C55.2934 1418.06 54.2001 1411.11 56.5868 1405.83C58.8668 1400.78 62.4401 1398.47 61.5868 1392.35C64.4801 1395.34 69.2135 1398.67 75.8002 1397.79C76.6135 1399.1 81.0134 1406.11 83.7201 1408.05C86.6934 1410.19 99.9868 1409.43 100.907 1418.06Z" fill="#151F2C"/>
<path d="M263.173 1118.97C257.04 1120.01 264.173 1124.89 255.747 1125.79C243.76 1127.1 231.373 1128.01 224.893 1130.58C222.52 1131.53 220.947 1132.7 220.453 1134.18C217.64 1142.63 199.827 1157.17 199.827 1157.17C120.427 1153.55 115.307 1118.15 115.307 1118.15C166.84 1068.1 210.693 1040.82 246.933 1037.45C255.747 1036.62 267.64 1037.73 273.213 1040.21C285.88 1045.85 292.827 1063.02 292.827 1063.02C292.827 1063.02 286.453 1114.99 263.173 1118.97" fill="#43A1F6"/>
<path d="M255.747 1125.79C243.76 1127.1 231.373 1128.01 224.893 1130.58C222.24 1090.98 240.934 1061.19 240.934 1061.19C240.934 1061.19 253.12 1110.81 255.747 1125.79" fill="#2B6EB2"/>
<path d="M272.534 1043.47C274.8 1050.58 282.36 1070.81 292.827 1063.02C292.48 1061.51 294.68 1057.11 297.267 1052.66C300.587 1046.97 304.534 1041.14 304.534 1041.14L287.467 1026.18L286.454 1025.29C281.987 1033.09 277.6 1036.83 273.76 1039.7C272.587 1040.58 272.094 1042.09 272.534 1043.47" fill="#EE805F"/>
<path d="M304.533 1041.14C304.533 1041.14 300.587 1046.95 297.267 1052.66C286.667 1046.11 286.653 1032.99 287.467 1026.18L304.533 1041.14" fill="#DE6B4D"/>
<path d="M305.013 1048.63C305.013 1048.63 279.253 1034.3 288.427 1018.39C297.6 1002.5 300.453 989.94 317.28 998.42C334.12 1006.89 333.787 1014.79 332.013 1020.85C330.24 1026.89 311.947 1051.95 305.013 1048.63" fill="#EE805F"/>
<path d="M336.36 1011.57C335.187 1004.5 331.6 1003.83 329.093 1004.3C319.587 988.566 304.04 994.713 304.04 994.713C295.747 1005.13 283.733 1006.9 283.733 1006.9C283.733 1006.9 286.733 1012.46 299.04 1015.91C302.8 1016.95 307.08 1016.33 311.2 1014.94C302.653 1019.7 293.72 1021.53 293.72 1021.53C309.947 1023.01 325.387 1008.17 326.987 1006.58C327.733 1008.89 329.053 1013.7 328.267 1017.22C327.2 1022.01 322.947 1030.66 325.547 1031.78C325.547 1031.78 338.133 1022.15 336.36 1011.57" fill="#151F2C"/>
<path d="M568.427 1359.87L376.227 1266.17L400.8 1215.77L593 1309.46L568.427 1359.87Z" fill="#43A1F6"/>
<path d="M316.12 1276.71C298.467 1268.11 285.933 1252.17 281.72 1232.98C280.013 1225.19 284.933 1217.5 292.72 1215.78C300.52 1214.07 308.213 1218.99 309.933 1226.78C312.24 1237.3 319.106 1246.03 328.773 1250.75C346.106 1259.21 367.08 1251.97 375.533 1234.63C383.987 1217.3 376.76 1196.33 359.427 1187.87C351.547 1184.03 342.6 1183.29 334.2 1185.77C326.56 1188.02 318.52 1183.66 316.267 1176.01C314 1168.35 318.373 1160.33 326.027 1158.06C341.347 1153.54 357.707 1154.9 372.08 1161.91C403.733 1177.34 416.933 1215.65 401.493 1247.3C386.066 1278.94 347.76 1292.14 316.12 1276.71Z" fill="#43A1F6"/>
<path d="M588.013 1409.27C556.36 1393.83 543.16 1355.54 558.6 1323.89C574.027 1292.23 612.333 1279.03 643.973 1294.47C658.346 1301.47 669.506 1313.51 675.373 1328.38C678.306 1335.81 674.68 1344.19 667.253 1347.13C659.84 1350.05 651.453 1346.42 648.52 1338.99C645.307 1330.86 639.2 1324.27 631.32 1320.43C613.987 1311.98 593.013 1319.21 584.56 1336.54C576.106 1353.87 583.333 1374.86 600.667 1383.3C610.333 1388.02 621.44 1388.05 631.146 1383.39C638.346 1379.94 646.973 1382.98 650.413 1390.17C653.866 1397.35 650.84 1405.98 643.64 1409.43C625.933 1417.93 605.653 1417.87 588.013 1409.27" fill="#43A1F6"/>
<path d="M523.827 1315.19L422.573 1265.83C419.68 1264.42 418.453 1260.89 419.867 1257.98L422.44 1252.7C423.867 1249.79 427.4 1248.58 430.293 1249.99L531.547 1299.35C534.453 1300.77 535.68 1304.3 534.253 1307.21L531.68 1312.49C530.267 1315.39 526.733 1316.61 523.827 1315.19Z" fill="#2B6EB2"/>
<path d="M290.267 1225.51C290.267 1225.51 290.813 1230.31 292.84 1232.79C294.88 1235.26 300.774 1241.26 300.88 1244.78C300.88 1244.78 300.587 1246.33 299.32 1246.05C298.054 1245.77 293.654 1241.41 291.4 1241.73C291.4 1241.73 292.6 1248.77 293.8 1250.74C294.987 1252.73 297.187 1260.19 296.467 1261.9C295.747 1263.61 283.814 1253.66 280.187 1248.79C276.574 1243.93 280.134 1224.19 280.134 1224.19L290.267 1225.51" fill="#EE805F"/>
<path d="M266.093 1054.49C266.093 1054.49 235.933 1052.85 230.573 1071.78C225.227 1090.7 240.627 1166.27 243.96 1174.07C250 1188.27 279.44 1228.81 279.44 1228.81L290.267 1225.51C290.267 1225.51 270.627 1163.59 266.254 1157.47C259.374 1147.85 275.12 1062.73 266.093 1054.49Z" fill="#EE805F"/>
<path d="M224.627 1097.09C224.707 1097.54 253.173 1102.33 270.973 1093.29C270.973 1093.29 285.84 1046.71 264.587 1048.94C243.334 1051.17 230.76 1057.86 230.213 1068.03C229.68 1078.21 224.627 1097.09 224.627 1097.09" fill="#43A1F6"/>
<path d="M350.627 1151.37C349.2 1151.43 346.573 1151.9 345.627 1152.63C343.987 1153.9 342.133 1156.1 345.813 1157.94C351.347 1160.69 362.4 1159.47 361.96 1157.81C360.6 1152.59 358.613 1150.99 350.627 1151.37Z" fill="#EE805F"/>
<path d="M702.054 409.793C700.6 411.46 700.414 413.313 701.134 415.3L701.147 415.326C702.48 419.006 706.867 423.113 711.974 427.22C712.627 427.74 713.214 428.22 713.72 428.673C713.854 428.78 713.987 428.9 714.107 429.02L714.414 429.286C719.174 433.673 717.374 434.686 725.934 443.593C735.694 453.74 742.4 453.926 744.32 453.006C745.934 452.206 742.654 446.833 739.014 440.78C738.84 440.486 738.667 440.193 738.48 439.9C738 439.086 737.52 438.273 737.027 437.46C732.774 430.18 733.867 426.766 734.88 415.926C735.694 407.126 748.574 366.726 748.574 366.726L729.88 363.5C729.88 363.5 724.254 395.673 718.04 400.62C714.734 403.273 711.014 403.3 707.827 405.26C707.6 405.393 707.387 405.526 707.16 405.673C705.347 406.873 703.507 408.113 702.054 409.793" fill="#EE805F"/>
<path d="M702.054 409.793C700.6 411.46 700.414 413.313 701.134 415.3L701.147 415.326C702.774 419.006 707.054 423.086 712 427.18C712.64 427.713 713.214 428.206 713.72 428.673C713.854 428.78 713.987 428.9 714.107 429.02L714.414 429.286C719.174 433.673 717.374 434.686 725.934 443.593C735.694 453.74 742.4 453.926 744.32 453.006C745.934 452.206 742.654 446.833 739.014 440.78C737.107 440.086 728.294 436.5 721.627 427.966C715.747 420.473 711.827 410.833 707.827 405.26C707.6 405.393 707.387 405.526 707.16 405.673C705.347 406.873 703.507 408.113 702.054 409.793" fill="#151F2C"/>
<path d="M852.8 398.113C853.96 403.886 862.187 402.913 871.373 400.673C880.56 398.433 878.374 401.099 891.454 399.646C904.534 398.206 908.493 393.326 908.893 391.379C909.253 389.659 902.787 389.046 895.854 388.246C894.987 388.153 894.107 388.046 893.24 387.926C885.413 386.953 879.68 381.899 872.573 377.753C865.84 373.819 855.787 357.819 855.787 357.819L837.854 359.233C837.854 359.233 847.267 373.539 850.907 379.753C853.04 383.406 852.933 388.246 852.667 391.979C852.52 394.006 852.387 396.073 852.8 398.113" fill="#EE805F"/>
<path d="M871.373 400.673C880.56 398.433 878.373 401.099 891.453 399.646C904.533 398.206 908.493 393.326 908.893 391.379C909.253 389.659 902.787 389.046 895.853 388.246L895.8 388.379C895.8 388.379 887.947 393.939 877.067 394.206C868.187 394.419 858.787 391.873 852.667 391.979C852.52 394.006 852.387 396.073 852.8 398.113C853.96 403.886 862.187 402.913 871.373 400.673" fill="#151F2C"/>
<path d="M784.054 283.406L767.294 328.54L745.4 387.446C745.4 387.446 739.454 388.019 733.76 386.393C728.534 384.873 722.521 380.913 722.521 380.913C722.521 380.913 728.6 317.66 739.934 281.34C742.84 272.02 746.094 264.473 749.694 260.233C767.28 239.46 784.054 283.406 784.054 283.406Z" fill="#151F2C"/>
<path d="M767.013 211.753C756.027 208.206 724.693 212.753 693.213 218.913L686.627 208.046L618.64 202.739C618.64 202.739 596.2 252.486 608.493 284.193C610.293 288.846 613.88 291.833 620 291.939H620.987C620.987 291.939 661.453 291.913 674.587 291.913C708.4 291.913 746.147 268.673 751.027 267.699C759.013 266.099 762.213 282.073 770.2 298.859C778.2 315.646 845.333 373.179 845.333 373.179C845.333 373.179 855.64 373.286 859.907 371.686C864.493 369.966 866.173 367.739 866.173 367.739C866.173 367.739 791.787 219.739 767.013 211.753" fill="#384152"/>
<path d="M664.093 1.08605C654.573 -1.36728 641.533 1.07272 639.373 1.28605C613.506 3.83272 604.813 32.6861 608.733 55.0728C612.333 75.7394 601.853 81.4594 589.72 97.7794C565.36 130.499 581.28 158.086 600.493 165.193C612.026 169.459 628.026 158.699 628.026 158.699C628.32 158.819 678.32 125.939 698.826 107.406C732.96 94.0461 688.373 7.32605 664.093 1.08605" fill="#151F2C"/>
<path d="M667.92 95.7261C668.6 98.1261 657.28 102.526 648.64 100.9C640.52 99.3929 631.413 89.8728 633.293 88.9795C636.4 87.4995 638.493 83.8328 636.787 63.9528L638.333 64.1395L664.333 67.0996C664.333 67.0996 664.413 75.2061 665.013 82.7928C665.52 89.1528 666.813 91.8194 667.92 95.7261Z" fill="#EE805F"/>
<path d="M664.333 67.0995C664.333 67.0995 664.413 75.2061 665.013 82.7928C650.667 83.5528 642.027 71.1129 638.333 64.1395L664.333 67.0995" fill="#DE6B4D"/>
<path d="M669.707 73.8862C669.707 73.8862 635.88 77.2328 634.134 56.1262C632.374 35.0328 626.827 21.2596 648.347 18.2329C669.867 15.2063 674.747 22.9129 677.04 29.8063C679.334 36.7129 678.454 72.4729 669.707 73.8862" fill="#EE805F"/>
<path d="M666.08 14.8996C666.08 14.8996 661.827 40.6728 642.56 46.7928C628.507 51.2595 622.134 48.3129 622.134 48.3129C622.134 48.3129 628.907 39.3396 631.307 26.8729C632.014 23.1929 634.627 20.1661 638.187 18.9928C648.174 15.7128 660.28 6.72625 666.08 14.8996" fill="#151F2C"/>
<path d="M659.707 20.4062C659.707 20.4062 666.08 21.8195 671.733 30.0461C674.813 34.5395 678.4 45.8728 677.787 50.8861C677.787 50.8861 683.707 27.0329 675.067 18.1662C665.92 8.75286 659.707 20.4062 659.707 20.4062" fill="#151F2C"/>
<path d="M607.014 165.033C607.614 167.593 608.134 169.953 608.547 172.126C609.24 175.633 609.707 178.66 610.04 181.326C611.08 189.646 610.774 194.58 611.467 199.966C611.854 202.98 612.56 206.14 614 210.113C615.4 213.98 652.147 217.42 673.067 216.033C679.707 215.606 684.76 214.673 686.56 213.126C694.027 206.646 693.28 220.886 694.307 152.7C694.8 119.446 666.08 89.8196 666.08 89.8196C666.08 89.8196 663.787 104.033 635.307 87.1262C634.294 86.5262 623.08 103.14 612.28 123.593C600.387 146.18 603.654 150.966 607.014 165.033" fill="#43A1F6"/>
<path d="M767.294 328.54L745.4 387.446C745.4 387.446 739.454 388.019 733.76 386.393C728.534 384.873 722.521 380.913 722.521 380.913C722.521 380.913 728.6 317.66 739.934 281.34L767.294 328.54Z" fill="#384152"/>
<path d="M666.08 89.8196C666.08 89.8196 695.387 94.793 698.827 107.406C702.267 120.02 726.04 190.58 726.04 190.58C726.04 190.58 707.627 196.873 700.733 189.993C693.853 183.1 676.787 126.14 676.787 126.14L666.08 89.8196Z" fill="#43A1F6"/>
<path d="M661.907 61.4462C661.907 61.4462 663.32 64.9261 667.067 64.9261C670.814 64.9261 671.827 64.3663 672.534 63.5663C673.24 62.7796 673.947 61.2462 673.947 61.2462C673.947 61.2462 667.733 60.0195 661.907 61.4462Z" fill="white"/>
<path d="M610.04 181.326C611.08 189.646 610.774 194.58 611.467 199.966C638.08 200.06 673.654 179.419 673.654 179.419L610.04 181.326" fill="#2B6EB2"/>
<path d="M673.654 161.966C673.654 161.966 632.2 160.74 625.214 137.18C617.534 111.286 608.934 147.82 608.934 147.82L613.507 171.126H658.987L673.654 161.966" fill="#2B6EB2"/>
<path d="M745.907 98.0329L743.667 92.4862C741.267 86.5395 735.494 82.6462 729.08 82.6462H687.76V108.873V220.806H858.694V108.873H761.96C754.907 108.873 748.547 104.58 745.907 98.0329" fill="#B8C0C7"/>
<path d="M713.547 166.659V156.7L748.467 141.406V151.579L724.08 161.606L748.467 171.646V181.966L713.547 166.659" fill="white"/>
<path d="M784.773 129.499H794.08L762.107 196.326H752.8L784.773 129.499Z" fill="white"/>
<path d="M832.907 156.7V166.659L797.974 181.966V171.793L822.374 161.753L797.974 151.726V141.406L832.907 156.7" fill="white"/>
<path d="M673.64 167.433L676.64 162.726C676.64 162.726 679.014 161.953 682.347 159.606C686.307 156.833 685.787 152.673 687.76 153.113L687.787 162.26L687.573 162.286C696.067 164.566 706 162.1 706.2 164.206C706.747 170.033 702.24 172.646 698.467 174.473C695.587 175.86 692.307 177.953 687.094 176.34C683.28 175.153 677.28 173.94 677.28 173.94L673.64 167.433" fill="#EE805F"/>
<path d="M635.307 87.1262C635.307 87.1262 608.4 88.8863 601.667 99.3796C594.947 109.873 586.6 163.153 590.107 181.46C593.6 199.753 679.76 177.953 679.76 177.953L677.013 162.073C677.013 162.073 627.294 162.366 624.454 155.886C620.694 147.273 635.307 87.1262 635.307 87.1262" fill="#43A1F6"/>
<path d="M765.187 108.806C764.96 109.513 769.24 116.553 775.347 115.326C779.16 114.566 784.107 106.366 779.76 104.553C772.493 101.54 765.8 106.953 765.187 108.806Z" fill="#EE805F"/>
<path d="M1028.27 478.886L1027.36 478.406L1127.25 291.179L1128.16 291.659L1028.27 478.886Z" fill="#151F2C"/>
<path d="M1493.23 412.966L1380.89 291.766L1381.65 291.073L1493.99 412.259L1493.23 412.966" fill="#151F2C"/>
<path d="M1563.43 447.993C1565.09 460.126 1561.76 471.833 1555.04 480.913C1548.33 489.98 1538.24 496.42 1526.37 498.06L1024.13 567.06C998.507 570.593 974.8 553.606 971.467 529.326C969.8 517.193 973.52 505.433 980.88 496.273C988.213 487.113 999.187 480.553 1012.01 478.793L1514.25 409.78C1537.96 406.526 1560.08 423.713 1563.43 447.993" fill="#E9E9E9"/>
<path d="M1563.43 447.993C1565.09 460.126 1561.76 471.833 1555.04 480.913C1548.33 489.98 1538.24 496.42 1526.37 498.06L1435.49 510.54L1423.36 422.26L1514.25 409.78C1537.96 406.526 1560.08 423.713 1563.43 447.993Z" fill="#43A1F6"/>
<path d="M1491.71 435.886C1484.23 443.193 1484.09 455.219 1491.4 462.699C1494.95 466.326 1499.68 468.353 1504.75 468.406C1509.8 468.473 1514.6 466.553 1518.23 463.006C1525.71 455.699 1525.84 443.673 1518.53 436.193C1511.23 428.713 1499.19 428.566 1491.71 435.886V435.886ZM1508.11 471.939C1506.99 472.086 1505.85 472.166 1504.71 472.153C1498.64 472.086 1492.96 469.659 1488.72 465.313C1479.97 456.366 1480.15 441.953 1489.09 433.206C1498.05 424.459 1512.45 424.619 1521.2 433.579C1529.96 442.526 1529.79 456.939 1520.84 465.686C1517.32 469.126 1512.89 471.286 1508.11 471.939" fill="white"/>
<path d="M1469.2 487.006L1466.59 484.326L1488.76 462.673L1491.37 465.34L1469.2 487.006Z" fill="white"/>
<path d="M1460.2 493.193C1458.91 491.873 1458.93 489.753 1460.25 488.473L1473.31 475.713C1474.63 474.42 1476.73 474.446 1478.03 475.766C1479.32 477.086 1479.29 479.206 1477.97 480.486L1464.92 493.246C1463.6 494.54 1461.48 494.513 1460.2 493.193Z" fill="white"/>
<path d="M720.014 927.646H615.094C612.907 927.646 611.134 925.886 611.134 923.7V922.033C611.134 919.846 612.907 918.073 615.094 918.073H720.014C722.2 918.073 723.974 919.846 723.974 922.033V923.7C723.974 925.886 722.2 927.646 720.014 927.646Z" fill="#43A1F6"/>
<path d="M666.174 960.566H614.4C612.6 960.566 611.134 959.113 611.134 957.3C611.134 955.5 612.6 954.033 614.4 954.033H666.174C667.974 954.033 669.44 955.5 669.44 957.3C669.44 959.113 667.974 960.566 666.174 960.566Z" fill="#151F2C"/>
<path d="M705.814 946.873H614.174C612.494 946.873 611.134 945.5 611.134 943.833V943.38C611.134 941.7 612.494 940.34 614.174 940.34H705.814C707.494 940.34 708.854 941.7 708.854 943.38V943.833C708.854 945.5 707.494 946.873 705.814 946.873Z" fill="#151F2C"/>
<path d="M806.08 946.873H720.707C719.08 946.873 717.76 945.553 717.76 943.926V943.273C717.76 941.646 719.08 940.34 720.707 940.34H806.08C807.707 940.34 809.014 941.646 809.014 943.273V943.926C809.014 945.553 807.707 946.873 806.08 946.873Z" fill="#151F2C"/>
<path d="M730.747 960.566H678.974C677.174 960.566 675.707 959.113 675.707 957.3C675.707 955.5 677.174 954.033 678.974 954.033H730.747C732.547 954.033 734.014 955.5 734.014 957.3C734.014 959.113 732.547 960.566 730.747 960.566Z" fill="#151F2C"/>
<path d="M847.787 927.646H742.854C740.68 927.646 738.907 925.886 738.907 923.7V922.033C738.907 919.846 740.68 918.073 742.854 918.073H847.787C849.974 918.073 851.747 919.846 851.747 922.033V923.7C851.747 925.886 849.974 927.646 847.787 927.646Z" fill="#43A1F6"/>
<path d="M720.014 999.726H615.094C612.907 999.726 611.134 997.966 611.134 995.78V994.113C611.134 991.926 612.907 990.153 615.094 990.153H720.014C722.2 990.153 723.974 991.926 723.974 994.113V995.78C723.974 997.966 722.2 999.726 720.014 999.726Z" fill="#43A1F6"/>
<path d="M666.174 1032.65H614.4C612.6 1032.65 611.134 1031.19 611.134 1029.38C611.134 1027.58 612.6 1026.11 614.4 1026.11H666.174C667.974 1026.11 669.44 1027.58 669.44 1029.38C669.44 1031.19 667.974 1032.65 666.174 1032.65Z" fill="#151F2C"/>
<path d="M705.814 1018.95H614.174C612.494 1018.95 611.134 1017.59 611.134 1015.91V1015.46C611.134 1013.78 612.494 1012.42 614.174 1012.42H705.814C707.494 1012.42 708.854 1013.78 708.854 1015.46V1015.91C708.854 1017.59 707.494 1018.95 705.814 1018.95Z" fill="#151F2C"/>
<path d="M806.08 1018.95H720.707C719.08 1018.95 717.76 1017.63 717.76 1016.01V1015.35C717.76 1013.73 719.08 1012.42 720.707 1012.42H806.08C807.707 1012.42 809.014 1013.73 809.014 1015.35V1016.01C809.014 1017.63 807.707 1018.95 806.08 1018.95Z" fill="#151F2C"/>
<path d="M730.747 1032.65H678.974C677.174 1032.65 675.707 1031.19 675.707 1029.38C675.707 1027.58 677.174 1026.11 678.974 1026.11H730.747C732.547 1026.11 734.014 1027.58 734.014 1029.38C734.014 1031.19 732.547 1032.65 730.747 1032.65Z" fill="#151F2C"/>
<path d="M847.787 999.726H742.854C740.68 999.726 738.907 997.966 738.907 995.78V994.113C738.907 991.926 740.68 990.153 742.854 990.153H847.787C849.974 990.153 851.747 991.926 851.747 994.113V995.78C851.747 997.966 849.974 999.726 847.787 999.726Z" fill="#43A1F6"/>
<path d="M1265.41 561.633L1205.49 575.58L1175.85 629.5L1153.23 506.606L1265.41 561.633Z" fill="#384152"/>
<path d="M1240.49 614.246L1231.77 620.859L1193.49 570.353L1202.23 563.74L1240.49 614.246Z" fill="#384152"/>
<path d="M1226.19 815.646H1078.83C1072.87 815.646 1068.03 810.806 1068.03 804.846V657.486C1068.03 651.526 1072.87 646.686 1078.83 646.686H1226.19C1232.15 646.686 1236.99 651.526 1236.99 657.486V804.846C1236.99 810.806 1232.15 815.646 1226.19 815.646Z" fill="#E9E9E9"/>
<path d="M1089.61 780.3L1122.45 721.113C1126.27 714.22 1135.95 713.606 1140.6 719.966L1159.53 745.793C1163.56 751.286 1171.61 751.726 1176.21 746.7C1180.99 741.486 1189.4 742.18 1193.24 748.113L1213.68 779.673C1218.33 786.86 1213.17 796.34 1204.61 796.34H1099.07C1090.83 796.34 1085.63 787.5 1089.61 780.3" fill="#2B6EB2"/>
<path d="M1154.41 693.446C1154.41 686.313 1160.19 680.54 1167.32 680.54C1174.45 680.54 1180.24 686.313 1180.24 693.446C1180.24 700.58 1174.45 706.366 1167.32 706.366C1160.19 706.366 1154.41 700.58 1154.41 693.446Z" fill="#2B6EB2"/>
<path d="M1442.33 820.193L1296.33 840.113C1290.41 840.913 1284.97 836.78 1284.17 830.873L1264.25 684.86C1263.44 678.953 1267.59 673.513 1273.49 672.7L1419.49 652.793C1425.4 651.98 1430.85 656.113 1431.65 662.033L1451.57 808.033C1452.37 813.94 1448.24 819.393 1442.33 820.193Z" fill="#E9E9E9"/>
<path d="M1302.24 803.633L1326.77 740.553C1329.63 733.206 1339.12 731.3 1344.6 736.966L1366.85 759.993C1371.59 764.9 1379.63 764.246 1383.49 758.633C1387.52 752.82 1395.96 752.38 1400.56 757.74L1425.08 786.246C1430.65 792.726 1426.83 802.82 1418.35 803.98L1313.76 818.246C1305.61 819.366 1299.25 811.3 1302.24 803.633" fill="#2B6EB2"/>
<path d="M1354.69 708.82C1353.73 701.753 1358.68 695.246 1365.75 694.286C1372.81 693.326 1379.32 698.26 1380.29 705.34C1381.25 712.406 1376.31 718.913 1369.24 719.873C1362.17 720.833 1355.67 715.886 1354.69 708.82Z" fill="#2B6EB2"/>
<path d="M1013.03 1415.15H927.88V1342.15H1013.03V1415.15Z" fill="#43A1F6"/>
<path d="M1015.91 1344.66H924.44V1339.02H1015.91V1344.66Z" fill="#384152"/>
<path d="M1013.03 1385.09H927.88V1361.9H1013.03V1385.09Z" fill="#384152"/>
<path d="M1116.63 1415.21H1036.23C1033.28 1415.21 1030.89 1412.82 1030.89 1409.87V1400.95C1030.89 1397.78 1033.65 1395.31 1036.81 1395.66L1117.21 1404.58C1119.91 1404.87 1121.95 1407.17 1121.95 1409.87C1121.95 1412.82 1119.56 1415.21 1116.63 1415.21Z" fill="#43A1F6"/>
<path d="M2241.17 1422.42L2.73333 1421.65C1.22667 1421.65 0 1420.42 0 1418.93V1417.53C0 1416.02 1.24 1414.79 2.73333 1414.79L2241.17 1415.57C2242.67 1415.57 2243.89 1416.79 2243.89 1418.3V1419.7C2243.89 1421.19 2242.67 1422.42 2241.17 1422.42Z" fill="#944B34"/>
<path d="M673.4 618.153H664.187C663.347 618.153 662.667 617.46 662.667 616.62C662.667 615.78 663.347 615.1 664.187 615.1H673.4C674.24 615.1 674.92 615.78 674.92 616.62C674.92 617.46 674.24 618.153 673.4 618.153ZM691.8 618.153H682.6C681.76 618.153 681.067 617.46 681.067 616.62C681.067 615.78 681.76 615.1 682.6 615.1H691.8C692.64 615.1 693.32 615.78 693.32 616.62C693.32 617.46 692.64 618.153 691.8 618.153ZM710.2 618.153H701C700.16 618.153 699.48 617.46 699.48 616.62C699.48 615.78 700.16 615.1 701 615.1H710.2C711.04 615.1 711.733 615.78 711.733 616.62C711.733 617.46 711.04 618.153 710.2 618.153ZM728.613 618.153H719.4C718.56 618.153 717.88 617.46 717.88 616.62C717.88 615.78 718.56 615.1 719.4 615.1H728.613C729.453 615.1 730.133 615.78 730.133 616.62C730.133 617.46 729.453 618.153 728.613 618.153ZM747.013 618.153H737.813C736.973 618.153 736.293 617.46 736.293 616.62C736.293 615.78 736.973 615.1 737.813 615.1H747.013C747.853 615.1 748.533 615.78 748.533 616.62C748.533 617.46 747.853 618.153 747.013 618.153ZM765.413 618.153H756.213C755.373 618.153 754.693 617.46 754.693 616.62C754.693 615.78 755.373 615.1 756.213 615.1H765.413C766.267 615.1 766.947 615.78 766.947 616.62C766.947 617.46 766.267 618.153 765.413 618.153ZM783.827 618.153H774.627C773.787 618.153 773.093 617.46 773.093 616.62C773.093 615.78 773.787 615.1 774.627 615.1H783.827C784.667 615.1 785.347 615.78 785.347 616.62C785.347 617.46 784.667 618.153 783.827 618.153ZM802.227 618.153H793.027C792.187 618.153 791.507 617.46 791.507 616.62C791.507 615.78 792.187 615.1 793.027 615.1H802.227C803.067 615.1 803.76 615.78 803.76 616.62C803.76 617.46 803.067 618.153 802.227 618.153ZM820.64 618.153H811.427C810.587 618.153 809.907 617.46 809.907 616.62C809.907 615.78 810.587 615.1 811.427 615.1H820.64C821.48 615.1 822.16 615.78 822.16 616.62C822.16 617.46 821.48 618.153 820.64 618.153ZM839.04 618.153H829.84C829 618.153 828.32 617.46 828.32 616.62C828.32 615.78 829 615.1 829.84 615.1H839.04C839.88 615.1 840.56 615.78 840.56 616.62C840.56 617.46 839.88 618.153 839.04 618.153ZM857.44 618.153H848.24C847.4 618.153 846.72 617.46 846.72 616.62C846.72 615.78 847.4 615.1 848.24 615.1H857.44C858.293 615.1 858.973 615.78 858.973 616.62C858.973 617.46 858.293 618.153 857.44 618.153ZM875.853 618.153H866.653C865.813 618.153 865.12 617.46 865.12 616.62C865.12 615.78 865.813 615.1 866.653 615.1H875.853C876.693 615.1 877.373 615.78 877.373 616.62C877.373 617.46 876.693 618.153 875.853 618.153ZM894.253 618.153H885.053C884.213 618.153 883.533 617.46 883.533 616.62C883.533 615.78 884.213 615.1 885.053 615.1H894.253C895.093 615.1 895.773 615.78 895.773 616.62C895.773 617.46 895.093 618.153 894.253 618.153ZM912.667 618.153H903.453C902.613 618.153 901.933 617.46 901.933 616.62C901.933 615.78 902.613 615.1 903.453 615.1H912.667C913.507 615.1 914.187 615.78 914.187 616.62C914.187 617.46 913.507 618.153 912.667 618.153ZM931.067 618.153H921.867C921.027 618.153 920.347 617.46 920.347 616.62C920.347 615.78 921.027 615.1 921.867 615.1H931.067C931.907 615.1 932.587 615.78 932.587 616.62C932.587 617.46 931.907 618.153 931.067 618.153ZM949.467 618.153H940.267C939.427 618.153 938.747 617.46 938.747 616.62C938.747 615.78 939.427 615.1 940.267 615.1H949.467C950.307 615.1 951 615.78 951 616.62C951 617.46 950.307 618.153 949.467 618.153ZM967.88 618.153H958.68C957.84 618.153 957.147 617.46 957.147 616.62C957.147 615.78 957.84 615.1 958.68 615.1H967.88C968.72 615.1 969.4 615.78 969.4 616.62C969.4 617.46 968.72 618.153 967.88 618.153ZM646.32 620.806C645.84 620.806 645.36 620.566 645.067 620.14C644.587 619.446 644.773 618.486 645.467 618.02C648.28 616.113 651.573 615.113 654.987 615.1C655.827 615.1 656.507 615.78 656.507 616.62C656.52 617.46 655.827 618.14 654.987 618.153C652.187 618.153 649.493 618.98 647.173 620.54C646.92 620.726 646.613 620.806 646.32 620.806ZM985.573 621.353C985.24 621.353 984.92 621.246 984.64 621.033C982.427 619.34 979.773 618.34 976.987 618.166C976.147 618.126 975.507 617.393 975.56 616.566C975.613 615.726 976.347 615.073 977.173 615.126C980.573 615.34 983.8 616.553 986.493 618.62C987.16 619.14 987.293 620.086 986.773 620.753C986.48 621.153 986.027 621.353 985.573 621.353V621.353ZM639.48 636.9C638.64 636.9 637.96 636.22 637.96 635.38V632.166C637.96 629.953 638.373 627.793 639.2 625.753C639.52 624.98 640.4 624.593 641.187 624.913C641.96 625.233 642.347 626.126 642.027 626.9C641.347 628.566 641 630.34 641 632.166V635.38C641 636.22 640.32 636.9 639.48 636.9V636.9ZM991.653 637.846C990.813 637.846 990.133 637.153 990.133 636.326V632.166C990.133 630.633 989.88 629.126 989.4 627.686C989.133 626.9 989.56 626.033 990.36 625.766C991.16 625.486 992.013 625.926 992.293 626.726C992.88 628.473 993.173 630.3 993.173 632.166V636.326C993.173 637.153 992.493 637.846 991.653 637.846V637.846ZM639.48 655.313C638.64 655.313 637.96 654.633 637.96 653.793V644.58C637.96 643.74 638.64 643.06 639.48 643.06C640.32 643.06 641 643.74 641 644.58V653.793C641 654.633 640.32 655.313 639.48 655.313ZM991.653 656.246C990.813 656.246 990.133 655.566 990.133 654.726V645.526C990.133 644.686 990.813 643.993 991.653 643.993C992.493 643.993 993.173 644.686 993.173 645.526V654.726C993.173 655.566 992.493 656.246 991.653 656.246ZM639.48 673.713C638.64 673.713 637.96 673.033 637.96 672.193V662.993C637.96 662.153 638.64 661.473 639.48 661.473C640.32 661.473 641 662.153 641 662.993V672.193C641 673.033 640.32 673.713 639.48 673.713ZM991.653 674.66C990.813 674.66 990.133 673.966 990.133 673.126V663.926C990.133 663.086 990.813 662.406 991.653 662.406C992.493 662.406 993.173 663.086 993.173 663.926V673.126C993.173 673.966 992.493 674.66 991.653 674.66ZM639.48 692.126C638.64 692.126 637.96 691.433 637.96 690.593V681.393C637.96 680.553 638.64 679.873 639.48 679.873C640.32 679.873 641 680.553 641 681.393V690.593C641 691.433 640.32 692.126 639.48 692.126ZM991.653 693.06C990.813 693.06 990.133 692.38 990.133 691.54V682.326C990.133 681.486 990.813 680.806 991.653 680.806C992.493 680.806 993.173 681.486 993.173 682.326V691.54C993.173 692.38 992.493 693.06 991.653 693.06ZM639.48 710.526C638.64 710.526 637.96 709.846 637.96 709.006V699.806C637.96 698.953 638.64 698.273 639.48 698.273C640.32 698.273 641 698.953 641 699.806V709.006C641 709.846 640.32 710.526 639.48 710.526ZM991.653 711.46C990.813 711.46 990.133 710.78 990.133 709.94V700.74C990.133 699.9 990.813 699.206 991.653 699.206C992.493 699.206 993.173 699.9 993.173 700.74V709.94C993.173 710.78 992.493 711.46 991.653 711.46ZM639.48 728.926C638.64 728.926 637.96 728.246 637.96 727.406V718.206C637.96 717.366 638.64 716.686 639.48 716.686C640.32 716.686 641 717.366 641 718.206V727.406C641 728.246 640.32 728.926 639.48 728.926ZM991.653 729.873C990.813 729.873 990.133 729.193 990.133 728.34V719.14C990.133 718.3 990.813 717.62 991.653 717.62C992.493 717.62 993.173 718.3 993.173 719.14V728.34C993.173 729.193 992.493 729.873 991.653 729.873ZM639.48 747.34C638.64 747.34 637.96 746.66 637.96 745.82V736.606C637.96 735.766 638.64 735.086 639.48 735.086C640.32 735.086 641 735.766 641 736.606V745.82C641 746.66 640.32 747.34 639.48 747.34ZM991.653 748.273C990.813 748.273 990.133 747.593 990.133 746.753V737.553C990.133 736.7 990.813 736.02 991.653 736.02C992.493 736.02 993.173 736.7 993.173 737.553V746.753C993.173 747.593 992.493 748.273 991.653 748.273ZM639.48 765.74C638.64 765.74 637.96 765.06 637.96 764.22V755.02C637.96 754.18 638.64 753.5 639.48 753.5C640.32 753.5 641 754.18 641 755.02V764.22C641 765.06 640.32 765.74 639.48 765.74ZM991.653 766.673C990.813 766.673 990.133 765.993 990.133 765.153V755.953C990.133 755.113 990.813 754.433 991.653 754.433C992.493 754.433 993.173 755.113 993.173 755.953V765.153C993.173 765.993 992.493 766.673 991.653 766.673ZM639.48 784.153C638.64 784.153 637.96 783.46 637.96 782.62V773.42C637.96 772.58 638.64 771.9 639.48 771.9C640.32 771.9 641 772.58 641 773.42V782.62C641 783.46 640.32 784.153 639.48 784.153ZM991.653 785.086C990.813 785.086 990.133 784.406 990.133 783.566V774.353C990.133 773.513 990.813 772.833 991.653 772.833C992.493 772.833 993.173 773.513 993.173 774.353V783.566C993.173 784.406 992.493 785.086 991.653 785.086ZM639.48 802.553C638.64 802.553 637.96 801.873 637.96 801.033V791.833C637.96 790.993 638.64 790.3 639.48 790.3C640.32 790.3 641 790.993 641 791.833V801.033C641 801.873 640.32 802.553 639.48 802.553ZM991.653 803.486C990.813 803.486 990.133 802.806 990.133 801.966V792.766C990.133 791.926 990.813 791.233 991.653 791.233C992.493 791.233 993.173 791.926 993.173 792.766V801.966C993.173 802.806 992.493 803.486 991.653 803.486ZM645.533 819.06C645.213 819.06 644.88 818.953 644.613 818.74C641.907 816.66 639.907 813.846 638.827 810.633C638.56 809.833 639 808.966 639.8 808.7C640.587 808.433 641.453 808.86 641.72 809.66C642.6 812.313 644.24 814.606 646.467 816.326C647.133 816.833 647.253 817.793 646.747 818.46C646.44 818.846 646 819.06 645.533 819.06V819.06ZM984.84 819.606C984.347 819.606 983.867 819.366 983.573 818.94C983.107 818.233 983.28 817.286 983.973 816.82C986.293 815.246 988.08 813.046 989.12 810.46C989.427 809.673 990.32 809.3 991.107 809.606C991.88 809.926 992.253 810.806 991.947 811.593C990.68 814.74 988.507 817.42 985.693 819.34C985.427 819.513 985.133 819.606 984.84 819.606V819.606ZM663.227 822.286H655.013C654.653 822.286 654.293 822.273 653.92 822.246C653.08 822.193 652.453 821.473 652.507 820.633C652.56 819.793 653.28 819.14 654.12 819.206C654.413 819.22 654.72 819.233 655.013 819.233H663.227C664.067 819.233 664.747 819.913 664.747 820.753C664.747 821.593 664.067 822.286 663.227 822.286ZM681.627 822.286H672.427C671.587 822.286 670.907 821.593 670.907 820.753C670.907 819.913 671.587 819.233 672.427 819.233H681.627C682.467 819.233 683.147 819.913 683.147 820.753C683.147 821.593 682.467 822.286 681.627 822.286ZM700.04 822.286H690.827C689.987 822.286 689.307 821.593 689.307 820.753C689.307 819.913 689.987 819.233 690.827 819.233H700.04C700.88 819.233 701.56 819.913 701.56 820.753C701.56 821.593 700.88 822.286 700.04 822.286ZM718.44 822.286H709.24C708.4 822.286 707.707 821.593 707.707 820.753C707.707 819.913 708.4 819.233 709.24 819.233H718.44C719.28 819.233 719.96 819.913 719.96 820.753C719.96 821.593 719.28 822.286 718.44 822.286ZM736.84 822.286H727.64C726.8 822.286 726.12 821.593 726.12 820.753C726.12 819.913 726.8 819.233 727.64 819.233H736.84C737.68 819.233 738.373 819.913 738.373 820.753C738.373 821.593 737.68 822.286 736.84 822.286ZM755.253 822.286H746.04C745.2 822.286 744.52 821.593 744.52 820.753C744.52 819.913 745.2 819.233 746.04 819.233H755.253C756.093 819.233 756.773 819.913 756.773 820.753C756.773 821.593 756.093 822.286 755.253 822.286ZM773.653 822.286H764.453C763.613 822.286 762.933 821.593 762.933 820.753C762.933 819.913 763.613 819.233 764.453 819.233H773.653C774.493 819.233 775.173 819.913 775.173 820.753C775.173 821.593 774.493 822.286 773.653 822.286ZM792.067 822.286H782.853C782.013 822.286 781.333 821.593 781.333 820.753C781.333 819.913 782.013 819.233 782.853 819.233H792.067C792.907 819.233 793.587 819.913 793.587 820.753C793.587 821.593 792.907 822.286 792.067 822.286ZM810.467 822.286H801.267C800.427 822.286 799.733 821.593 799.733 820.753C799.733 819.913 800.427 819.233 801.267 819.233H810.467C811.307 819.233 811.987 819.913 811.987 820.753C811.987 821.593 811.307 822.286 810.467 822.286ZM828.867 822.286H819.667C818.827 822.286 818.147 821.593 818.147 820.753C818.147 819.913 818.827 819.233 819.667 819.233H828.867C829.707 819.233 830.387 819.913 830.387 820.753C830.387 821.593 829.707 822.286 828.867 822.286ZM847.28 822.286H838.067C837.227 822.286 836.547 821.593 836.547 820.753C836.547 819.913 837.227 819.233 838.067 819.233H847.28C848.12 819.233 848.8 819.913 848.8 820.753C848.8 821.593 848.12 822.286 847.28 822.286ZM865.68 822.286H856.48C855.64 822.286 854.96 821.593 854.96 820.753C854.96 819.913 855.64 819.233 856.48 819.233H865.68C866.52 819.233 867.2 819.913 867.2 820.753C867.2 821.593 866.52 822.286 865.68 822.286ZM884.08 822.286H874.88C874.04 822.286 873.36 821.593 873.36 820.753C873.36 819.913 874.04 819.233 874.88 819.233H884.08C884.92 819.233 885.613 819.913 885.613 820.753C885.613 821.593 884.92 822.286 884.08 822.286ZM902.493 822.286H893.293C892.453 822.286 891.76 821.593 891.76 820.753C891.76 819.913 892.453 819.233 893.293 819.233H902.493C903.333 819.233 904.013 819.913 904.013 820.753C904.013 821.593 903.333 822.286 902.493 822.286ZM920.893 822.286H911.693C910.853 822.286 910.173 821.593 910.173 820.753C910.173 819.913 910.853 819.233 911.693 819.233H920.893C921.733 819.233 922.413 819.913 922.413 820.753C922.413 821.593 921.733 822.286 920.893 822.286ZM939.307 822.286H930.093C929.253 822.286 928.573 821.593 928.573 820.753C928.573 819.913 929.253 819.233 930.093 819.233H939.307C940.147 819.233 940.827 819.913 940.827 820.753C940.827 821.593 940.147 822.286 939.307 822.286ZM957.707 822.286H948.507C947.667 822.286 946.987 821.593 946.987 820.753C946.987 819.913 947.667 819.233 948.507 819.233H957.707C958.547 819.233 959.227 819.913 959.227 820.753C959.227 821.593 958.547 822.286 957.707 822.286ZM976.173 822.286H966.907C966.067 822.286 965.387 821.593 965.387 820.753C965.387 819.913 966.067 819.233 966.907 819.233H976.107C976.947 819.233 977.667 819.913 977.667 820.753C977.667 821.593 977.013 822.286 976.173 822.286Z" fill="#151F2C"/>
<path d="M1352.75 1026.39H1344.63C1343.88 1026.39 1343.27 1025.79 1343.27 1025.05C1343.27 1024.3 1343.85 1023.7 1344.6 1023.7H1352.75C1353.49 1023.7 1354.09 1024.3 1354.09 1025.05C1354.09 1025.79 1353.49 1026.39 1352.75 1026.39V1026.39ZM1369.05 1026.39H1360.91C1360.16 1026.39 1359.55 1025.79 1359.55 1025.05C1359.55 1024.3 1360.16 1023.7 1360.91 1023.7H1369.05C1369.8 1023.7 1370.4 1024.3 1370.4 1025.05C1370.4 1025.79 1369.8 1026.39 1369.05 1026.39ZM1385.36 1026.39H1377.2C1376.45 1026.39 1375.85 1025.79 1375.85 1025.05C1375.85 1024.3 1376.45 1023.7 1377.2 1023.7H1385.36C1386.11 1023.7 1386.71 1024.3 1386.71 1025.05C1386.71 1025.79 1386.11 1026.39 1385.36 1026.39ZM1401.67 1026.39H1393.51C1392.76 1026.39 1392.16 1025.79 1392.16 1025.05C1392.16 1024.3 1392.76 1023.7 1393.51 1023.7H1401.67C1402.4 1023.7 1403.01 1024.3 1403.01 1025.05C1403.01 1025.79 1402.4 1026.39 1401.67 1026.39ZM1417.96 1026.39H1409.81C1409.07 1026.39 1408.47 1025.79 1408.47 1025.05C1408.47 1024.3 1409.07 1023.7 1409.81 1023.7H1417.96C1418.71 1023.7 1419.32 1024.3 1419.32 1025.05C1419.32 1025.79 1418.71 1026.39 1417.96 1026.39ZM1434.27 1026.39H1426.12C1425.37 1026.39 1424.77 1025.79 1424.77 1025.05C1424.77 1024.3 1425.37 1023.7 1426.12 1023.7H1434.27C1435.01 1023.7 1435.61 1024.3 1435.61 1025.05C1435.61 1025.79 1435.01 1026.39 1434.27 1026.39ZM1450.57 1026.39H1442.43C1441.68 1026.39 1441.07 1025.79 1441.07 1025.05C1441.07 1024.3 1441.68 1023.7 1442.43 1023.7H1450.57C1451.32 1023.7 1451.92 1024.3 1451.92 1025.05C1451.92 1025.79 1451.32 1026.39 1450.57 1026.39ZM1466.88 1026.39H1458.73C1457.99 1026.39 1457.37 1025.79 1457.37 1025.05C1457.37 1024.3 1457.99 1023.7 1458.73 1023.7H1466.88C1467.63 1023.7 1468.23 1024.3 1468.23 1025.05C1468.23 1025.79 1467.63 1026.39 1466.88 1026.39ZM1483.19 1026.39H1475.03C1474.28 1026.39 1473.68 1025.79 1473.68 1025.05C1473.68 1024.3 1474.28 1023.7 1475.03 1023.7H1483.19C1483.93 1023.7 1484.53 1024.3 1484.53 1025.05C1484.53 1025.79 1483.93 1026.39 1483.19 1026.39ZM1499.49 1026.41H1499.43L1499.24 1026.39H1491.33C1490.59 1026.39 1489.99 1025.79 1489.99 1025.05C1489.99 1024.3 1490.59 1023.7 1491.33 1023.7H1499.24L1499.55 1023.71C1500.29 1023.74 1500.87 1024.37 1500.84 1025.11C1500.8 1025.83 1500.21 1026.41 1499.49 1026.41V1026.41ZM1339.29 1039.69C1338.55 1039.69 1337.95 1039.09 1337.95 1038.34V1030.39V1030.13C1337.97 1029.39 1338.57 1028.79 1339.35 1028.83C1340.09 1028.87 1340.67 1029.5 1340.64 1030.23V1030.39V1038.34C1340.64 1039.09 1340.04 1039.69 1339.29 1039.69V1039.69ZM1504.57 1039.9C1503.83 1039.9 1503.23 1039.3 1503.23 1038.55V1030.41C1503.23 1029.66 1503.83 1029.06 1504.57 1029.06C1505.32 1029.06 1505.92 1029.66 1505.92 1030.41V1038.55C1505.92 1039.3 1505.32 1039.9 1504.57 1039.9ZM1339.29 1055.99C1338.55 1055.99 1337.95 1055.39 1337.95 1054.65V1046.49C1337.95 1045.74 1338.55 1045.14 1339.29 1045.14C1340.04 1045.14 1340.64 1045.74 1340.64 1046.49V1054.65C1340.64 1055.39 1340.04 1055.99 1339.29 1055.99V1055.99ZM1504.57 1056.21C1503.83 1056.21 1503.23 1055.61 1503.23 1054.86V1046.71C1503.23 1045.97 1503.83 1045.35 1504.57 1045.35C1505.32 1045.35 1505.92 1045.97 1505.92 1046.71V1054.86C1505.92 1055.61 1505.32 1056.21 1504.57 1056.21ZM1339.29 1072.3C1338.55 1072.3 1337.95 1071.69 1337.95 1070.95V1062.79C1337.95 1062.05 1338.55 1061.45 1339.29 1061.45C1340.04 1061.45 1340.64 1062.05 1340.64 1062.79V1070.95C1340.64 1071.69 1340.04 1072.3 1339.29 1072.3ZM1504.57 1072.51H1504.53C1503.79 1072.49 1503.2 1071.86 1503.23 1071.13V1070.99V1063.01C1503.23 1062.27 1503.83 1061.66 1504.57 1061.66C1505.32 1061.66 1505.92 1062.27 1505.92 1063.01V1071.21C1505.89 1071.94 1505.29 1072.51 1504.57 1072.51V1072.51ZM1352.49 1077.67H1344.28C1343.53 1077.63 1342.96 1077.01 1343 1076.26C1343.04 1075.51 1343.64 1074.95 1344.41 1074.98H1344.63H1352.49C1353.24 1074.98 1353.85 1075.58 1353.85 1076.33C1353.85 1077.07 1353.24 1077.67 1352.49 1077.67ZM1368.8 1077.67H1360.65C1359.91 1077.67 1359.31 1077.07 1359.31 1076.33C1359.31 1075.58 1359.91 1074.98 1360.65 1074.98H1368.8C1369.55 1074.98 1370.15 1075.58 1370.15 1076.33C1370.15 1077.07 1369.55 1077.67 1368.8 1077.67ZM1385.11 1077.67H1376.96C1376.21 1077.67 1375.6 1077.07 1375.6 1076.33C1375.6 1075.58 1376.21 1074.98 1376.96 1074.98H1385.11C1385.85 1074.98 1386.45 1075.58 1386.45 1076.33C1386.45 1077.07 1385.85 1077.67 1385.11 1077.67ZM1401.41 1077.67H1393.27C1392.52 1077.67 1391.91 1077.07 1391.91 1076.33C1391.91 1075.58 1392.52 1074.98 1393.27 1074.98H1401.41C1402.16 1074.98 1402.76 1075.58 1402.76 1076.33C1402.76 1077.07 1402.16 1077.67 1401.41 1077.67ZM1417.72 1077.67H1409.56C1408.81 1077.67 1408.21 1077.07 1408.21 1076.33C1408.21 1075.58 1408.81 1074.98 1409.56 1074.98H1417.72C1418.47 1074.98 1419.07 1075.58 1419.07 1076.33C1419.07 1077.07 1418.47 1077.67 1417.72 1077.67ZM1434.03 1077.67H1425.87C1425.12 1077.67 1424.52 1077.07 1424.52 1076.33C1424.52 1075.58 1425.12 1074.98 1425.87 1074.98H1434.03C1434.76 1074.98 1435.37 1075.58 1435.37 1076.33C1435.37 1077.07 1434.76 1077.67 1434.03 1077.67ZM1450.32 1077.67H1442.17C1441.43 1077.67 1440.83 1077.07 1440.83 1076.33C1440.83 1075.58 1441.43 1074.98 1442.17 1074.98H1450.32C1451.07 1074.98 1451.68 1075.58 1451.68 1076.33C1451.68 1077.07 1451.07 1077.67 1450.32 1077.67ZM1466.63 1077.67H1458.48C1457.73 1077.67 1457.13 1077.07 1457.13 1076.33C1457.13 1075.58 1457.73 1074.98 1458.48 1074.98H1466.63C1467.37 1074.98 1467.97 1075.58 1467.97 1076.33C1467.97 1077.07 1467.37 1077.67 1466.63 1077.67ZM1482.93 1077.67H1474.79C1474.04 1077.67 1473.43 1077.07 1473.43 1076.33C1473.43 1075.58 1474.04 1074.98 1474.79 1074.98H1482.93C1483.68 1074.98 1484.28 1075.58 1484.28 1076.33C1484.28 1077.07 1483.68 1077.67 1482.93 1077.67ZM1499.29 1077.67H1491.09C1490.35 1077.67 1489.73 1077.07 1489.73 1076.33C1489.73 1075.58 1490.35 1074.98 1491.09 1074.98H1499.24C1499.99 1074.98 1500.61 1075.58 1500.61 1076.33C1500.61 1077.07 1500.04 1077.67 1499.29 1077.67" fill="#151F2C"/>
<path d="M803.506 469.553H794.52C793.667 469.553 792.973 468.86 792.973 468.02C792.973 467.18 793.64 466.5 794.48 466.5H803.506C804.346 466.5 805.026 467.18 805.026 468.02C805.026 468.86 804.346 469.553 803.506 469.553ZM821.547 469.553H812.52C811.68 469.553 811 468.86 811 468.02C811 467.18 811.68 466.5 812.52 466.5H821.547C822.387 466.5 823.067 467.18 823.067 468.02C823.067 468.86 822.387 469.553 821.547 469.553ZM839.587 469.553H830.573C829.733 469.553 829.04 468.86 829.04 468.02C829.04 467.18 829.733 466.5 830.573 466.5H839.587C840.427 466.5 841.12 467.18 841.12 468.02C841.12 468.86 840.427 469.553 839.587 469.553ZM857.626 469.553H848.613C847.773 469.553 847.093 468.86 847.093 468.02C847.093 467.18 847.773 466.5 848.613 466.5H857.626C858.466 466.5 859.16 467.18 859.16 468.02C859.16 468.86 858.466 469.553 857.626 469.553ZM875.68 469.553H866.653C865.813 469.553 865.133 468.86 865.133 468.02C865.133 467.18 865.813 466.5 866.653 466.5H875.68C876.52 466.5 877.2 467.18 877.2 468.02C877.2 468.86 876.52 469.553 875.68 469.553ZM893.72 469.553H884.693C883.853 469.553 883.173 468.86 883.173 468.02C883.173 467.18 883.853 466.5 884.693 466.5H893.72C894.56 466.5 895.24 467.18 895.24 468.02C895.24 468.86 894.56 469.553 893.72 469.553ZM911.76 469.553H902.733C901.893 469.553 901.213 468.86 901.213 468.02C901.213 467.18 901.893 466.5 902.733 466.5H911.76C912.6 466.5 913.28 467.18 913.28 468.02C913.28 468.86 912.6 469.553 911.76 469.553ZM924.44 478.126C923.6 478.126 922.92 477.433 922.92 476.593V475.526C922.92 473.366 921.747 471.366 919.867 470.313C919.133 469.9 918.88 468.966 919.293 468.233C919.693 467.5 920.626 467.246 921.36 467.659C924.2 469.246 925.96 472.259 925.96 475.526V476.593C925.96 477.433 925.28 478.126 924.44 478.126V478.126ZM787.013 483.34C786.173 483.34 785.493 482.66 785.493 481.82V475.526C785.493 474.419 785.693 473.34 786.08 472.313C786.387 471.526 787.267 471.126 788.053 471.433C788.84 471.726 789.227 472.606 788.933 473.393C788.68 474.073 788.547 474.793 788.547 475.526V481.82C788.547 482.66 787.867 483.34 787.013 483.34V483.34ZM924.44 496.166C923.6 496.166 922.92 495.486 922.92 494.633V485.62C922.92 484.78 923.6 484.1 924.44 484.1C925.28 484.1 925.96 484.78 925.96 485.62V494.633C925.96 495.486 925.28 496.166 924.44 496.166ZM787.013 501.38C786.173 501.38 785.493 500.699 785.493 499.859V490.833C785.493 489.993 786.173 489.313 787.013 489.313C787.867 489.313 788.547 489.993 788.547 490.833V499.859C788.547 500.699 787.867 501.38 787.013 501.38ZM924.44 514.206C923.6 514.206 922.92 513.526 922.92 512.686V503.659C922.92 502.819 923.6 502.14 924.44 502.14C925.28 502.14 925.96 502.819 925.96 503.659V512.686C925.96 513.526 925.28 514.206 924.44 514.206ZM787.013 519.42C786.173 519.42 785.493 518.74 785.493 517.9V508.873C785.493 508.033 786.173 507.353 787.013 507.353C787.867 507.353 788.547 508.033 788.547 508.873V517.9C788.547 518.74 787.867 519.42 787.013 519.42ZM924.44 532.246C923.6 532.246 922.92 531.566 922.92 530.726V521.7C922.92 520.86 923.6 520.18 924.44 520.18C925.28 520.18 925.96 520.86 925.96 521.7V530.726C925.96 531.566 925.28 532.246 924.44 532.246ZM787.013 537.459C786.173 537.459 785.493 536.78 785.493 535.94V526.926C785.493 526.073 786.173 525.393 787.013 525.393C787.867 525.393 788.547 526.073 788.547 526.926V535.94C788.547 536.78 787.867 537.459 787.013 537.459ZM924.44 550.286C923.6 550.286 922.92 549.606 922.92 548.766V539.74C922.92 538.9 923.6 538.22 924.44 538.22C925.28 538.22 925.96 538.9 925.96 539.74V548.766C925.96 549.606 925.28 550.286 924.44 550.286ZM787.013 555.5C786.173 555.5 785.493 554.82 785.493 553.98V544.966C785.493 544.126 786.173 543.433 787.013 543.433C787.867 543.433 788.547 544.126 788.547 544.966V553.98C788.547 554.82 787.867 555.5 787.013 555.5ZM924.44 568.326C923.6 568.326 922.92 567.646 922.92 566.806V557.793C922.92 556.939 923.6 556.259 924.44 556.259C925.28 556.259 925.96 556.939 925.96 557.793V566.806C925.96 567.646 925.28 568.326 924.44 568.326ZM787.013 573.553C786.173 573.553 785.493 572.86 785.493 572.02V563.006C785.493 562.166 786.173 561.486 787.013 561.486C787.867 561.486 788.547 562.166 788.547 563.006V572.02C788.547 572.86 787.867 573.553 787.013 573.553ZM923.96 586.313C923.786 586.313 923.6 586.286 923.426 586.22C922.64 585.926 922.24 585.046 922.533 584.259C922.787 583.579 922.92 582.873 922.92 582.153V575.833C922.92 574.993 923.6 574.3 924.44 574.3C925.28 574.3 925.96 574.993 925.96 575.833V582.153C925.96 583.246 925.773 584.313 925.387 585.326C925.16 585.939 924.573 586.313 923.96 586.313V586.313ZM790.826 590.193C790.56 590.193 790.307 590.14 790.067 590.006C787.253 588.393 785.493 585.393 785.493 582.153V581.046C785.493 580.206 786.173 579.526 787.013 579.526C787.867 579.526 788.547 580.206 788.547 581.046V582.153C788.547 584.3 789.706 586.286 791.573 587.353C792.306 587.766 792.56 588.7 792.147 589.42C791.867 589.926 791.346 590.193 790.826 590.193ZM808.693 591.166H799.68C798.827 591.166 798.147 590.486 798.147 589.646C798.147 588.806 798.827 588.126 799.68 588.126H808.693C809.533 588.126 810.213 588.806 810.213 589.646C810.213 590.486 809.533 591.166 808.693 591.166ZM826.733 591.166H817.72C816.88 591.166 816.187 590.486 816.187 589.646C816.187 588.806 816.88 588.126 817.72 588.126H826.733C827.573 588.126 828.267 588.806 828.267 589.646C828.267 590.486 827.573 591.166 826.733 591.166ZM844.773 591.166H835.76C834.92 591.166 834.24 590.486 834.24 589.646C834.24 588.806 834.92 588.126 835.76 588.126H844.773C845.626 588.126 846.306 588.806 846.306 589.646C846.306 590.486 845.626 591.166 844.773 591.166ZM862.826 591.166H853.8C852.96 591.166 852.28 590.486 852.28 589.646C852.28 588.806 852.96 588.126 853.8 588.126H862.826C863.666 588.126 864.347 588.806 864.347 589.646C864.347 590.486 863.666 591.166 862.826 591.166ZM880.867 591.166H871.84C871 591.166 870.32 590.486 870.32 589.646C870.32 588.806 871 588.126 871.84 588.126H880.867C881.707 588.126 882.387 588.806 882.387 589.646C882.387 590.486 881.707 591.166 880.867 591.166ZM898.906 591.166H889.88C889.04 591.166 888.36 590.486 888.36 589.646C888.36 588.806 889.04 588.126 889.88 588.126H898.906C899.746 588.126 900.426 588.806 900.426 589.646C900.426 590.486 899.746 591.166 898.906 591.166ZM917 591.166H907.92C907.08 591.166 906.4 590.486 906.4 589.646C906.4 588.806 907.08 588.126 907.92 588.126H916.947C917.787 588.126 918.493 588.806 918.493 589.646C918.493 590.486 917.84 591.166 917 591.166Z" fill="#151F2C"/>
<path d="M1352.75 1101.63H1344.63C1343.88 1101.63 1343.27 1101.03 1343.27 1100.29C1343.27 1099.54 1343.85 1098.94 1344.6 1098.94H1352.75C1353.49 1098.94 1354.09 1099.54 1354.09 1100.29C1354.09 1101.03 1353.49 1101.63 1352.75 1101.63V1101.63ZM1369.05 1101.63H1360.91C1360.16 1101.63 1359.55 1101.03 1359.55 1100.29C1359.55 1099.54 1360.16 1098.94 1360.91 1098.94H1369.05C1369.8 1098.94 1370.4 1099.54 1370.4 1100.29C1370.4 1101.03 1369.8 1101.63 1369.05 1101.63ZM1385.36 1101.63H1377.2C1376.45 1101.63 1375.85 1101.03 1375.85 1100.29C1375.85 1099.54 1376.45 1098.94 1377.2 1098.94H1385.36C1386.11 1098.94 1386.71 1099.54 1386.71 1100.29C1386.71 1101.03 1386.11 1101.63 1385.36 1101.63ZM1401.67 1101.63H1393.51C1392.76 1101.63 1392.16 1101.03 1392.16 1100.29C1392.16 1099.54 1392.76 1098.94 1393.51 1098.94H1401.67C1402.4 1098.94 1403.01 1099.54 1403.01 1100.29C1403.01 1101.03 1402.4 1101.63 1401.67 1101.63ZM1417.96 1101.63H1409.81C1409.07 1101.63 1408.47 1101.03 1408.47 1100.29C1408.47 1099.54 1409.07 1098.94 1409.81 1098.94H1417.96C1418.71 1098.94 1419.32 1099.54 1419.32 1100.29C1419.32 1101.03 1418.71 1101.63 1417.96 1101.63ZM1434.27 1101.63H1426.12C1425.37 1101.63 1424.77 1101.03 1424.77 1100.29C1424.77 1099.54 1425.37 1098.94 1426.12 1098.94H1434.27C1435.01 1098.94 1435.61 1099.54 1435.61 1100.29C1435.61 1101.03 1435.01 1101.63 1434.27 1101.63ZM1450.57 1101.63H1442.43C1441.68 1101.63 1441.07 1101.03 1441.07 1100.29C1441.07 1099.54 1441.68 1098.94 1442.43 1098.94H1450.57C1451.32 1098.94 1451.92 1099.54 1451.92 1100.29C1451.92 1101.03 1451.32 1101.63 1450.57 1101.63ZM1466.88 1101.63H1458.73C1457.99 1101.63 1457.37 1101.03 1457.37 1100.29C1457.37 1099.54 1457.99 1098.94 1458.73 1098.94H1466.88C1467.63 1098.94 1468.23 1099.54 1468.23 1100.29C1468.23 1101.03 1467.63 1101.63 1466.88 1101.63ZM1483.19 1101.63H1475.03C1474.28 1101.63 1473.68 1101.03 1473.68 1100.29C1473.68 1099.54 1474.28 1098.94 1475.03 1098.94H1483.19C1483.93 1098.94 1484.53 1099.54 1484.53 1100.29C1484.53 1101.03 1483.93 1101.63 1483.19 1101.63ZM1499.49 1101.65H1499.43L1499.24 1101.63H1491.33C1490.59 1101.63 1489.99 1101.03 1489.99 1100.29C1489.99 1099.54 1490.59 1098.94 1491.33 1098.94H1499.24L1499.55 1098.95C1500.29 1098.98 1500.87 1099.61 1500.84 1100.35C1500.8 1101.07 1500.21 1101.65 1499.49 1101.65V1101.65ZM1339.29 1114.93C1338.55 1114.93 1337.95 1114.33 1337.95 1113.58V1105.62V1105.37C1337.97 1104.62 1338.57 1104.05 1339.35 1104.07C1340.09 1104.1 1340.67 1104.74 1340.64 1105.47V1105.62V1113.58C1340.64 1114.33 1340.04 1114.93 1339.29 1114.93V1114.93ZM1504.57 1115.14C1503.83 1115.14 1503.23 1114.54 1503.23 1113.79V1105.65C1503.23 1104.9 1503.83 1104.29 1504.57 1104.29C1505.32 1104.29 1505.92 1104.9 1505.92 1105.65V1113.79C1505.92 1114.54 1505.32 1115.14 1504.57 1115.14ZM1339.29 1131.23C1338.55 1131.23 1337.95 1130.62 1337.95 1129.89V1121.73C1337.95 1120.98 1338.55 1120.38 1339.29 1120.38C1340.04 1120.38 1340.64 1120.98 1340.64 1121.73V1129.89C1340.64 1130.62 1340.04 1131.23 1339.29 1131.23ZM1504.57 1131.45C1503.83 1131.45 1503.23 1130.85 1503.23 1130.1V1121.95C1503.23 1121.21 1503.83 1120.59 1504.57 1120.59C1505.32 1120.59 1505.92 1121.21 1505.92 1121.95V1130.1C1505.92 1130.85 1505.32 1131.45 1504.57 1131.45ZM1339.29 1147.54C1338.55 1147.54 1337.95 1146.93 1337.95 1146.18V1138.03C1337.95 1137.29 1338.55 1136.69 1339.29 1136.69C1340.04 1136.69 1340.64 1137.29 1340.64 1138.03V1146.18C1340.64 1146.93 1340.04 1147.54 1339.29 1147.54ZM1504.57 1147.75H1504.53C1503.79 1147.73 1503.2 1147.1 1503.23 1146.35V1146.23V1138.25C1503.23 1137.5 1503.83 1136.9 1504.57 1136.9C1505.32 1136.9 1505.92 1137.5 1505.92 1138.25V1146.45C1505.89 1147.18 1505.29 1147.75 1504.57 1147.75V1147.75ZM1352.49 1152.91H1344.28C1343.53 1152.87 1342.96 1152.23 1343 1151.5C1343.04 1150.75 1343.64 1150.17 1344.41 1150.21L1344.63 1150.22H1352.49C1353.24 1150.22 1353.85 1150.82 1353.85 1151.57C1353.85 1152.31 1353.24 1152.91 1352.49 1152.91V1152.91ZM1368.8 1152.91H1360.65C1359.91 1152.91 1359.31 1152.31 1359.31 1151.57C1359.31 1150.82 1359.91 1150.22 1360.65 1150.22H1368.8C1369.55 1150.22 1370.15 1150.82 1370.15 1151.57C1370.15 1152.31 1369.55 1152.91 1368.8 1152.91ZM1385.11 1152.91H1376.96C1376.21 1152.91 1375.6 1152.31 1375.6 1151.57C1375.6 1150.82 1376.21 1150.22 1376.96 1150.22H1385.11C1385.85 1150.22 1386.45 1150.82 1386.45 1151.57C1386.45 1152.31 1385.85 1152.91 1385.11 1152.91ZM1401.41 1152.91H1393.27C1392.52 1152.91 1391.91 1152.31 1391.91 1151.57C1391.91 1150.82 1392.52 1150.22 1393.27 1150.22H1401.41C1402.16 1150.22 1402.76 1150.82 1402.76 1151.57C1402.76 1152.31 1402.16 1152.91 1401.41 1152.91ZM1417.72 1152.91H1409.56C1408.81 1152.91 1408.21 1152.31 1408.21 1151.57C1408.21 1150.82 1408.81 1150.22 1409.56 1150.22H1417.72C1418.47 1150.22 1419.07 1150.82 1419.07 1151.57C1419.07 1152.31 1418.47 1152.91 1417.72 1152.91ZM1434.03 1152.91H1425.87C1425.12 1152.91 1424.52 1152.31 1424.52 1151.57C1424.52 1150.82 1425.12 1150.22 1425.87 1150.22H1434.03C1434.76 1150.22 1435.37 1150.82 1435.37 1151.57C1435.37 1152.31 1434.76 1152.91 1434.03 1152.91ZM1450.32 1152.91H1442.17C1441.43 1152.91 1440.83 1152.31 1440.83 1151.57C1440.83 1150.82 1441.43 1150.22 1442.17 1150.22H1450.32C1451.07 1150.22 1451.68 1150.82 1451.68 1151.57C1451.68 1152.31 1451.07 1152.91 1450.32 1152.91ZM1466.63 1152.91H1458.48C1457.73 1152.91 1457.13 1152.31 1457.13 1151.57C1457.13 1150.82 1457.73 1150.22 1458.48 1150.22H1466.63C1467.37 1150.22 1467.97 1150.82 1467.97 1151.57C1467.97 1152.31 1467.37 1152.91 1466.63 1152.91ZM1482.93 1152.91H1474.79C1474.04 1152.91 1473.43 1152.31 1473.43 1151.57C1473.43 1150.82 1474.04 1150.22 1474.79 1150.22H1482.93C1483.68 1150.22 1484.28 1150.82 1484.28 1151.57C1484.28 1152.31 1483.68 1152.91 1482.93 1152.91ZM1499.29 1152.91H1491.09C1490.35 1152.91 1489.73 1152.31 1489.73 1151.57C1489.73 1150.82 1490.35 1150.22 1491.09 1150.22H1499.24C1499.99 1150.22 1500.61 1150.82 1500.61 1151.57C1500.61 1152.31 1500.04 1152.91 1499.29 1152.91" fill="#151F2C"/>
<path d="M615.04 892.1H606.987C606.24 892.1 605.627 891.499 605.627 890.753C605.627 890.006 606.213 889.406 606.96 889.406H615.04C615.787 889.406 616.387 890.006 616.387 890.753C616.387 891.499 615.787 892.1 615.04 892.1V892.1ZM631.2 892.1H623.12C622.373 892.1 621.773 891.499 621.773 890.753C621.773 890.006 622.373 889.406 623.12 889.406H631.2C631.947 889.406 632.547 890.006 632.547 890.753C632.547 891.499 631.947 892.1 631.2 892.1ZM647.36 892.1H639.28C638.533 892.1 637.933 891.499 637.933 890.753C637.933 890.006 638.533 889.406 639.28 889.406H647.36C648.107 889.406 648.72 890.006 648.72 890.753C648.72 891.499 648.107 892.1 647.36 892.1ZM663.533 892.1H655.453C654.707 892.1 654.093 891.499 654.093 890.753C654.093 890.006 654.707 889.406 655.453 889.406H663.533C664.28 889.406 664.88 890.006 664.88 890.753C664.88 891.499 664.28 892.1 663.533 892.1ZM679.693 892.1H671.613C670.867 892.1 670.267 891.499 670.267 890.753C670.267 890.006 670.867 889.406 671.613 889.406H679.693C680.44 889.406 681.04 890.006 681.04 890.753C681.04 891.499 680.44 892.1 679.693 892.1ZM695.853 892.1H687.773C687.027 892.1 686.427 891.499 686.427 890.753C686.427 890.006 687.027 889.406 687.773 889.406H695.853C696.6 889.406 697.213 890.006 697.213 890.753C697.213 891.499 696.6 892.1 695.853 892.1ZM712.027 892.1H703.933C703.2 892.1 702.587 891.499 702.587 890.753C702.587 890.006 703.2 889.406 703.933 889.406H712.027C712.773 889.406 713.373 890.006 713.373 890.753C713.373 891.499 712.773 892.1 712.027 892.1ZM728.187 892.1H720.107C719.36 892.1 718.76 891.499 718.76 890.753C718.76 890.006 719.36 889.406 720.107 889.406H728.187C728.933 889.406 729.533 890.006 729.533 890.753C729.533 891.499 728.933 892.1 728.187 892.1ZM744.347 892.1H736.267C735.52 892.1 734.92 891.499 734.92 890.753C734.92 890.006 735.52 889.406 736.267 889.406H744.347C745.093 889.406 745.693 890.006 745.693 890.753C745.693 891.499 745.093 892.1 744.347 892.1ZM760.507 892.1H752.427C751.68 892.1 751.08 891.499 751.08 890.753C751.08 890.006 751.68 889.406 752.427 889.406H760.507C761.253 889.406 761.867 890.006 761.867 890.753C761.867 891.499 761.253 892.1 760.507 892.1ZM776.68 892.1H768.6C767.853 892.1 767.24 891.499 767.24 890.753C767.24 890.006 767.853 889.406 768.6 889.406H776.68C777.427 889.406 778.027 890.006 778.027 890.753C778.027 891.499 777.427 892.1 776.68 892.1ZM792.84 892.1H784.76C784.013 892.1 783.413 891.499 783.413 890.753C783.413 890.006 784.013 889.406 784.76 889.406H792.84C793.587 889.406 794.187 890.006 794.187 890.753C794.187 891.499 793.587 892.1 792.84 892.1ZM809 892.1H800.92C800.173 892.1 799.573 891.499 799.573 890.753C799.573 890.006 800.173 889.406 800.92 889.406H809C809.747 889.406 810.347 890.006 810.347 890.753C810.347 891.499 809.747 892.1 809 892.1ZM825.173 892.1H817.08C816.347 892.1 815.733 891.499 815.733 890.753C815.733 890.006 816.347 889.406 817.08 889.406H825.173C825.907 889.406 826.52 890.006 826.52 890.753C826.52 891.499 825.907 892.1 825.173 892.1ZM841.333 892.1H833.253C832.507 892.1 831.907 891.499 831.907 890.753C831.907 890.006 832.507 889.406 833.253 889.406H841.333C842.08 889.406 842.68 890.006 842.68 890.753C842.68 891.499 842.08 892.1 841.333 892.1ZM857.493 892.193L857.333 892.179C856.853 892.126 856.373 892.1 855.893 892.1H849.413C848.667 892.1 848.067 891.499 848.067 890.753C848.067 890.006 848.667 889.406 849.413 889.406H855.893C856.48 889.406 857.067 889.433 857.64 889.5C858.387 889.593 858.92 890.259 858.827 890.993C858.747 891.686 858.173 892.193 857.493 892.193ZM594.28 900.566C594.107 900.566 593.92 900.539 593.76 900.459C593.067 900.179 592.747 899.38 593.027 898.7C594.173 895.94 596.107 893.606 598.587 891.953C599.213 891.539 600.04 891.699 600.467 892.326C600.88 892.939 600.707 893.779 600.093 894.193C598.04 895.553 596.467 897.473 595.52 899.74C595.307 900.26 594.8 900.566 594.28 900.566ZM869.12 902.046C868.533 902.046 868 901.673 867.827 901.073C867.147 898.726 865.8 896.633 863.92 895.046C863.36 894.566 863.28 893.713 863.76 893.14C864.253 892.58 865.107 892.499 865.667 892.993C867.96 894.926 869.6 897.459 870.427 900.326C870.627 901.046 870.213 901.793 869.507 901.993C869.373 902.033 869.253 902.046 869.12 902.046V902.046ZM593.213 916.593C592.467 916.593 591.867 915.98 591.867 915.233V907.153C591.867 906.406 592.467 905.806 593.213 905.806C593.96 905.806 594.56 906.406 594.56 907.153V915.233C594.56 915.98 593.96 916.593 593.213 916.593ZM869.667 918.166C868.92 918.166 868.307 917.566 868.307 916.819V908.726C868.307 907.993 868.92 907.379 869.667 907.379C870.413 907.379 871.013 907.993 871.013 908.726V916.819C871.013 917.566 870.413 918.166 869.667 918.166ZM593.213 932.753C592.467 932.753 591.867 932.153 591.867 931.406V923.326C591.867 922.579 592.467 921.966 593.213 921.966C593.96 921.966 594.56 922.579 594.56 923.326V931.406C594.56 932.153 593.96 932.753 593.213 932.753ZM869.667 934.326C868.92 934.326 868.307 933.726 868.307 932.979V924.9C868.307 924.153 868.92 923.553 869.667 923.553C870.413 923.553 871.013 924.153 871.013 924.9V932.979C871.013 933.726 870.413 934.326 869.667 934.326ZM593.213 948.913C592.467 948.913 591.867 948.313 591.867 947.566V939.486C591.867 938.739 592.467 938.14 593.213 938.14C593.96 938.14 594.56 938.739 594.56 939.486V947.566C594.56 948.313 593.96 948.913 593.213 948.913ZM869.667 950.486C868.92 950.486 868.307 949.886 868.307 949.14V941.059C868.307 940.313 868.92 939.713 869.667 939.713C870.413 939.713 871.013 940.313 871.013 941.059V949.14C871.013 949.886 870.413 950.486 869.667 950.486ZM593.213 965.086C592.467 965.086 591.867 964.473 591.867 963.726V955.646C591.867 954.899 592.467 954.3 593.213 954.3C593.96 954.3 594.56 954.899 594.56 955.646V963.726C594.56 964.473 593.96 965.086 593.213 965.086ZM869.667 966.659C868.92 966.659 868.307 966.046 868.307 965.3V957.219C868.307 956.473 868.92 955.873 869.667 955.873C870.413 955.873 871.013 956.473 871.013 957.219V965.3C871.013 966.046 870.413 966.659 869.667 966.659ZM593.213 981.246C592.467 981.246 591.867 980.646 591.867 979.9V971.819C591.867 971.073 592.467 970.459 593.213 970.459C593.96 970.459 594.56 971.073 594.56 971.819V979.9C594.56 980.646 593.96 981.246 593.213 981.246ZM869.667 982.819C868.92 982.819 868.307 982.22 868.307 981.473V973.393C868.307 972.646 868.92 972.033 869.667 972.033C870.413 972.033 871.013 972.646 871.013 973.393V981.473C871.013 982.22 870.413 982.819 869.667 982.819ZM593.213 997.406C592.467 997.406 591.867 996.806 591.867 996.059V987.979C591.867 987.233 592.467 986.633 593.213 986.633C593.96 986.633 594.56 987.233 594.56 987.979V996.059C594.56 996.806 593.96 997.406 593.213 997.406ZM869.667 998.979C868.92 998.979 868.307 998.379 868.307 997.633V989.553C868.307 988.806 868.92 988.206 869.667 988.206C870.413 988.206 871.013 988.806 871.013 989.553V997.633C871.013 998.379 870.413 998.979 869.667 998.979V998.979ZM593.213 1013.57C592.467 1013.57 591.867 1012.97 591.867 1012.22V1004.14C591.867 1003.39 592.467 1002.79 593.213 1002.79C593.96 1002.79 594.56 1003.39 594.56 1004.14V1012.22C594.56 1012.97 593.96 1013.57 593.213 1013.57ZM869.667 1015.14C868.92 1015.14 868.307 1014.54 868.307 1013.79V1005.71C868.307 1004.97 868.92 1004.37 869.667 1004.37C870.413 1004.37 871.013 1004.97 871.013 1005.71V1013.79C871.013 1014.54 870.413 1015.14 869.667 1015.14ZM593.213 1029.74C592.467 1029.74 591.867 1029.13 591.867 1028.39V1020.3C591.867 1019.55 592.467 1018.95 593.213 1018.95C593.96 1018.95 594.56 1019.55 594.56 1020.3V1028.39C594.56 1029.13 593.96 1029.74 593.213 1029.74ZM869.667 1031.31C868.92 1031.31 868.307 1030.71 868.307 1029.97V1021.87C868.307 1021.14 868.92 1020.53 869.667 1020.53C870.413 1020.53 871.013 1021.14 871.013 1021.87V1029.97C871.013 1030.71 870.413 1031.31 869.667 1031.31ZM593.213 1045.9C592.467 1045.9 591.867 1045.3 591.867 1044.55V1036.47C591.867 1035.73 592.467 1035.11 593.213 1035.11C593.96 1035.11 594.56 1035.73 594.56 1036.47V1044.55C594.56 1045.3 593.96 1045.9 593.213 1045.9ZM869.667 1047.47C868.92 1047.47 868.307 1046.87 868.307 1046.13V1038.05C868.307 1037.3 868.92 1036.7 869.667 1036.7C870.413 1036.7 871.013 1037.3 871.013 1038.05V1046.13C871.013 1046.87 870.413 1047.47 869.667 1047.47ZM593.213 1062.06C592.467 1062.06 591.867 1061.46 591.867 1060.71V1052.63C591.867 1051.89 592.467 1051.29 593.213 1051.29C593.96 1051.29 594.56 1051.89 594.56 1052.63V1060.71C594.56 1061.46 593.96 1062.06 593.213 1062.06ZM869.667 1063.63C868.92 1063.63 868.307 1063.03 868.307 1062.29V1054.21C868.307 1053.46 868.92 1052.86 869.667 1052.86C870.413 1052.86 871.013 1053.46 871.013 1054.21V1062.29C871.013 1063.03 870.413 1063.63 869.667 1063.63ZM593.213 1078.22C592.467 1078.22 591.867 1077.62 591.867 1076.87V1068.79C591.867 1068.05 592.467 1067.45 593.213 1067.45C593.96 1067.45 594.56 1068.05 594.56 1068.79V1076.87C594.56 1077.62 593.96 1078.22 593.213 1078.22ZM869.667 1079.81C868.92 1079.81 868.307 1079.19 868.307 1078.45V1070.37C868.307 1069.62 868.92 1069.02 869.667 1069.02C870.413 1069.02 871.013 1069.62 871.013 1070.37V1078.45C871.013 1079.19 870.413 1079.81 869.667 1079.81ZM598.067 1092.95C597.747 1092.95 597.44 1092.85 597.187 1092.63C594.907 1090.69 593.267 1088.14 592.44 1085.29C592.24 1084.57 592.653 1083.82 593.373 1083.61C594.093 1083.41 594.84 1083.82 595.04 1084.54C595.72 1086.89 597.067 1088.98 598.933 1090.58C599.507 1091.06 599.573 1091.91 599.093 1092.47C598.827 1092.79 598.44 1092.95 598.067 1092.95V1092.95ZM863.56 1093.9C863.133 1093.9 862.707 1093.7 862.44 1093.3C862.027 1092.69 862.187 1091.85 862.813 1091.43C864.853 1090.06 866.427 1088.14 867.373 1085.87C867.653 1085.19 868.44 1084.86 869.133 1085.15C869.813 1085.43 870.147 1086.22 869.853 1086.91C868.72 1089.67 866.8 1092.01 864.32 1093.67C864.08 1093.83 863.827 1093.9 863.56 1093.9ZM613.44 1096.23H606.987C606.387 1096.23 605.787 1096.21 605.2 1096.13C604.453 1096.05 603.933 1095.37 604.013 1094.63C604.107 1093.89 604.773 1093.37 605.52 1093.45C606 1093.5 606.493 1093.54 606.987 1093.54H613.44C614.187 1093.54 614.787 1094.14 614.787 1094.89C614.787 1095.63 614.187 1096.23 613.44 1096.23V1096.23ZM629.6 1096.23H621.52C620.773 1096.23 620.173 1095.63 620.173 1094.89C620.173 1094.14 620.773 1093.54 621.52 1093.54H629.6C630.347 1093.54 630.947 1094.14 630.947 1094.89C630.947 1095.63 630.347 1096.23 629.6 1096.23ZM645.76 1096.23H637.68C636.933 1096.23 636.333 1095.63 636.333 1094.89C636.333 1094.14 636.933 1093.54 637.68 1093.54H645.76C646.507 1093.54 647.12 1094.14 647.12 1094.89C647.12 1095.63 646.507 1096.23 645.76 1096.23ZM661.933 1096.23H653.84C653.107 1096.23 652.493 1095.63 652.493 1094.89C652.493 1094.14 653.107 1093.54 653.84 1093.54H661.933C662.68 1093.54 663.28 1094.14 663.28 1094.89C663.28 1095.63 662.68 1096.23 661.933 1096.23ZM678.093 1096.23H670.013C669.267 1096.23 668.653 1095.63 668.653 1094.89C668.653 1094.14 669.267 1093.54 670.013 1093.54H678.093C678.84 1093.54 679.44 1094.14 679.44 1094.89C679.44 1095.63 678.84 1096.23 678.093 1096.23ZM694.253 1096.23H686.173C685.427 1096.23 684.827 1095.63 684.827 1094.89C684.827 1094.14 685.427 1093.54 686.173 1093.54H694.253C695 1093.54 695.6 1094.14 695.6 1094.89C695.6 1095.63 695 1096.23 694.253 1096.23ZM710.413 1096.23H702.333C701.587 1096.23 700.987 1095.63 700.987 1094.89C700.987 1094.14 701.587 1093.54 702.333 1093.54H710.413C711.16 1093.54 711.773 1094.14 711.773 1094.89C711.773 1095.63 711.16 1096.23 710.413 1096.23ZM726.587 1096.23H718.507C717.76 1096.23 717.147 1095.63 717.147 1094.89C717.147 1094.14 717.76 1093.54 718.507 1093.54H726.587C727.333 1093.54 727.933 1094.14 727.933 1094.89C727.933 1095.63 727.333 1096.23 726.587 1096.23ZM742.747 1096.23H734.667C733.92 1096.23 733.32 1095.63 733.32 1094.89C733.32 1094.14 733.92 1093.54 734.667 1093.54H742.747C743.493 1093.54 744.093 1094.14 744.093 1094.89C744.093 1095.63 743.493 1096.23 742.747 1096.23ZM758.907 1096.23H750.827C750.08 1096.23 749.48 1095.63 749.48 1094.89C749.48 1094.14 750.08 1093.54 750.827 1093.54H758.907C759.653 1093.54 760.253 1094.14 760.253 1094.89C760.253 1095.63 759.653 1096.23 758.907 1096.23ZM775.067 1096.23H766.987C766.24 1096.23 765.64 1095.63 765.64 1094.89C765.64 1094.14 766.24 1093.54 766.987 1093.54H775.067C775.813 1093.54 776.427 1094.14 776.427 1094.89C776.427 1095.63 775.813 1096.23 775.067 1096.23ZM791.24 1096.23H783.16C782.413 1096.23 781.8 1095.63 781.8 1094.89C781.8 1094.14 782.413 1093.54 783.16 1093.54H791.24C791.987 1093.54 792.587 1094.14 792.587 1094.89C792.587 1095.63 791.987 1096.23 791.24 1096.23ZM807.4 1096.23H799.32C798.573 1096.23 797.973 1095.63 797.973 1094.89C797.973 1094.14 798.573 1093.54 799.32 1093.54H807.4C808.147 1093.54 808.747 1094.14 808.747 1094.89C808.747 1095.63 808.147 1096.23 807.4 1096.23ZM823.56 1096.23H815.48C814.733 1096.23 814.133 1095.63 814.133 1094.89C814.133 1094.14 814.733 1093.54 815.48 1093.54H823.56C824.307 1093.54 824.92 1094.14 824.92 1094.89C824.92 1095.63 824.307 1096.23 823.56 1096.23ZM839.733 1096.23H831.653C830.907 1096.23 830.293 1095.63 830.293 1094.89C830.293 1094.14 830.907 1093.54 831.653 1093.54H839.733C840.48 1093.54 841.08 1094.14 841.08 1094.89C841.08 1095.63 840.48 1096.23 839.733 1096.23ZM855.947 1096.23H847.813C847.067 1096.23 846.467 1095.63 846.467 1094.89C846.467 1094.14 847.067 1093.54 847.813 1093.54H855.893C856.64 1093.54 857.267 1094.14 857.267 1094.89C857.267 1095.63 856.693 1096.23 855.947 1096.23" fill="#151F2C"/>
<path d="M934.507 848.513H607.853C600.813 848.513 595.093 842.793 595.093 835.753V657.14C595.093 650.1 600.813 644.379 607.853 644.379H934.507C941.56 644.379 947.267 650.1 947.267 657.14V835.753C947.267 842.793 941.56 848.513 934.507 848.513Z" fill="#E9E9E9"/>
<path d="M731.44 705.953V786.94C731.44 792.006 737.067 795.033 741.293 792.26L802.84 751.766C806.667 749.246 806.667 743.646 802.84 741.126L741.293 700.646C737.067 697.86 731.44 700.886 731.44 705.953" fill="#43A1F6"/>
<path d="M613.4 830.1C613.4 826.606 616.227 823.78 619.72 823.78C623.214 823.78 626.04 826.606 626.04 830.1C626.04 833.593 623.214 836.42 619.72 836.42C616.227 836.42 613.4 833.593 613.4 830.1Z" fill="#AEC3FF"/>
<path d="M907.293 831.806H621.427C620.48 831.806 619.72 831.046 619.72 830.1C619.72 829.166 620.48 828.393 621.427 828.393H907.293C908.24 828.393 909 829.166 909 830.1C909 831.046 908.24 831.806 907.293 831.806Z" fill="#AEC3FF"/>
<path d="M1106.64 1162.73H924.44V890.753H1106.64V1162.73Z" fill="#E9E9E9"/>
<path d="M1033.03 978.14H1030.53V966.926C1030.53 962.913 1033.81 959.633 1037.83 959.633H1068.65C1070.83 959.633 1072.73 958.166 1073.29 956.059L1078.17 937.526C1078.55 936.073 1078.24 934.566 1077.33 933.38C1076.41 932.193 1075.03 931.513 1073.53 931.513H1033.31V929.019H1073.53C1075.81 929.019 1077.91 930.046 1079.31 931.859C1080.69 933.659 1081.16 935.953 1080.57 938.166L1075.71 956.7C1074.87 959.9 1071.96 962.126 1068.65 962.126H1037.83C1035.19 962.126 1033.03 964.286 1033.03 966.926V978.14" fill="#384152"/>
<path d="M1062.01 940.78H1009.04C1004.56 940.78 1000.95 937.153 1000.95 932.686V927.846C1000.95 923.366 1004.56 919.753 1009.04 919.753H1062.01C1066.48 919.753 1070.11 923.366 1070.11 927.846V932.686C1070.11 937.153 1066.48 940.78 1062.01 940.78Z" fill="#43A1F6"/>
<path d="M1031.79 1024.66C1028 1024.66 1024.93 1021.59 1024.93 1017.81V976.273C1024.93 972.486 1028 969.406 1031.79 969.406C1035.57 969.406 1038.64 972.486 1038.64 976.273V1017.81C1038.64 1021.59 1035.57 1024.66 1031.79 1024.66Z" fill="#384152"/>
<path d="M1294.07 1114.73C1294.07 1114.73 1298.79 1129.26 1298.39 1132.58C1297.97 1135.9 1295.01 1147.25 1292.91 1150.15C1290.79 1153.06 1289.75 1138.33 1288.07 1136.1C1286.4 1133.89 1287.73 1141.65 1286.55 1142.37C1285.37 1143.09 1282.91 1136.66 1281.85 1134.39C1280.79 1132.11 1284.44 1123.75 1284.45 1117.93C1284.45 1112.09 1294.07 1114.73 1294.07 1114.73Z" fill="#EE805F"/>
<path d="M1183.17 999.379C1181.87 982.726 1199.96 971.3 1214.24 979.966C1214.53 980.14 1214.83 980.326 1215.11 980.513C1236.49 994.273 1282.64 1058.5 1285.81 1064.93C1288.99 1071.37 1298.36 1122.55 1298.36 1122.55C1298.36 1122.55 1286.77 1126.79 1281.36 1122.39C1281.36 1122.39 1262.57 1073.85 1259.8 1071.42C1257.03 1068.99 1184.67 1028.39 1184.05 1013.18C1183.88 1009.15 1183.56 1004.31 1183.17 999.379Z" fill="#151F2C"/>
<path d="M1312.29 1375.3C1312.29 1375.3 1320.91 1383.17 1319.23 1388.75C1317.55 1394.34 1309.77 1398.07 1308.72 1404.9C1307.67 1411.74 1303.45 1415.46 1299.68 1415.46C1295.89 1415.46 1281.63 1415.46 1281.63 1415.46C1281.63 1415.46 1278.84 1410.66 1285.57 1409.21C1292.31 1407.75 1294.84 1399.73 1294.41 1392.27C1294 1384.82 1295.05 1374.89 1295.05 1374.89L1309.35 1371.57L1312.29 1375.3" fill="#2A4A7C"/>
<path d="M1206.52 1395.65C1206.52 1395.65 1208.07 1413.55 1204.28 1415.42L1155.84 1415.31C1155.84 1415.31 1155.84 1409.73 1163.61 1408.49C1171.4 1407.25 1185.07 1402.69 1187.39 1392.54C1189.69 1382.39 1206.52 1395.65 1206.52 1395.65Z" fill="#2A4A7C"/>
<path d="M1165.61 1142.7C1165.61 1142.7 1168.17 1174.09 1171.17 1211.82C1175.25 1263.07 1180.17 1326.03 1180.65 1337.95C1181.49 1358.67 1184.87 1391.79 1184.87 1391.79C1184.87 1391.79 1192.85 1399.66 1208.84 1396.35C1208.84 1396.35 1223.08 1349.06 1227.15 1299.02C1227.21 1298.21 1227.28 1297.38 1227.33 1296.55C1231.12 1245.61 1237.01 1138.35 1237.01 1138.35L1165.61 1142.7" fill="#43A1F6"/>
<path d="M1165.61 1142.7C1165.61 1142.7 1168.17 1174.09 1171.17 1211.82L1227.15 1299.02C1227.21 1298.21 1227.28 1297.38 1227.33 1296.55C1231.12 1245.61 1237.01 1138.35 1237.01 1138.35L1165.61 1142.7Z" fill="#2B6EB2"/>
<path d="M1177.29 1146.43C1177.29 1146.43 1223.35 1260.1 1253.63 1313.53C1283.91 1366.95 1293.36 1381.86 1293.36 1381.86C1293.36 1381.86 1310.72 1375.02 1312.29 1370.37C1312.29 1370.37 1300.71 1267.23 1280.43 1242.09C1268.97 1227.89 1255.52 1185.25 1254.88 1170.34C1254.25 1155.43 1250.79 1125.93 1250.79 1125.93L1177.29 1146.43" fill="#43A1F6"/>
<path d="M1217 975.913C1217 975.913 1186.15 991.553 1168.07 986.339C1168.07 986.339 1172.39 980.673 1180.04 976.366C1179.35 972.78 1178.8 969.659 1178.47 967.006C1177.59 960.899 1177.52 957.433 1177.52 957.433L1189.35 947.74L1200.57 938.473C1200.17 963.926 1217 975.913 1217 975.913" fill="#EE805F"/>
<path d="M1247.64 1134.93C1235.19 1142.46 1223.4 1148.13 1209.59 1151.31C1193.31 1155.18 1173.31 1154.05 1166.6 1155.06C1165.92 1155.15 1165.27 1154.97 1164.65 1154.57C1164.13 1154.3 1161.17 1134.43 1158.21 1109.37C1158.08 1108.37 1157.95 1107.34 1157.89 1106.33L1157.85 1105.99C1156.69 1096.19 1155.69 1085.9 1154.81 1075.58C1154.09 1067.55 1153.51 1059.61 1153.11 1052.15C1152.59 1042.82 1152.37 1034.25 1152.59 1027.19C1152.68 1023.98 1152.87 1021.09 1153.16 1018.57C1154.92 1003.93 1161.91 993.46 1168.48 985.673L1173.93 979.459C1180.27 979.859 1186.72 978.673 1192.81 974.646C1199.48 970.259 1206.67 965.539 1208.03 966.326C1218.24 971.926 1226.56 986.393 1232.49 1005.51C1235.89 1016.53 1238.51 1029.02 1240.19 1042.25C1240.72 1046.34 1241.17 1050.55 1241.52 1054.75C1241.6 1055.53 1241.65 1056.3 1241.72 1057.06C1242.52 1068.53 1243.83 1079.27 1245.28 1088.86C1247.23 1101.81 1249.45 1112.63 1251.01 1120.27C1251.8 1124.15 1252.41 1127.17 1252.76 1129.31C1253.08 1131.19 1249.32 1133.89 1247.64 1134.93" fill="#384152"/>
<path d="M1200.97 948.193C1200.97 948.193 1193.37 962.7 1178.47 967.006C1177.59 960.9 1177.52 957.433 1177.52 957.433L1189.35 947.74L1200.97 948.193" fill="#DE6B4D"/>
<path d="M1172.03 957.126C1172.03 957.126 1201.84 961.393 1204.27 943.073C1206.69 924.753 1212.19 912.953 1193.25 909.459C1174.32 905.953 1169.68 912.473 1167.36 918.393C1165.04 924.313 1164.33 955.539 1172.03 957.126Z" fill="#EE805F"/>
<path d="M1214.36 906.846C1214.63 906.526 1215.24 906.273 1216.63 906.166C1216.63 906.166 1215.51 905.5 1214.03 905.486C1213.69 903.566 1212.6 900.18 1209.27 899.42C1209.27 899.42 1211.07 900.34 1211.35 902.38C1207.43 898.513 1199.15 895.806 1176.4 898.06C1146.44 901.02 1156.71 920.046 1160.64 922.26C1164.57 924.473 1174.23 917.993 1181.48 918.42C1188.73 918.86 1190.32 929.286 1192.8 930.673C1195.29 932.06 1194.27 929.54 1197.56 927.98C1200.85 926.406 1201.28 931.913 1200.4 935.513C1199.51 939.113 1204.16 943.74 1204.16 943.74C1204.16 943.74 1204.16 943.74 1208.68 938.686C1213.2 933.62 1217.13 912.486 1214.95 908.033C1214.75 907.646 1214.56 907.246 1214.36 906.846" fill="#151F2C"/>
<path d="M1204.89 1028.83C1204.89 1028.83 1179.75 1047.95 1153.11 1052.15C1152.59 1042.82 1152.37 1034.25 1152.59 1027.19L1204.89 1028.83" fill="#151F2C"/>
<path d="M1050.51 1004.15C1050.11 1003.73 1044.99 986.593 1036.12 987.833C1030.33 988.659 1020.88 992.006 1023.39 999.619C1024.37 1002.62 1042 1012.94 1042 1012.94L1050.51 1004.15" fill="#EE805F"/>
<path d="M1208 991.873C1222.33 1000.45 1221.17 1021.81 1205.84 1028.45C1205.53 1028.58 1205.21 1028.71 1204.89 1028.83C1181.29 1038.3 1102.21 1038.74 1095.13 1037.61C1088.04 1036.47 1040.88 1014.49 1040.88 1014.49C1040.88 1014.49 1044.13 1002.58 1050.85 1000.71C1050.85 1000.71 1101.31 1013.5 1104.89 1012.63C1108.48 1011.78 1183.47 976.286 1196.24 984.593C1199.61 986.793 1203.75 989.326 1208 991.873" fill="#384152"/>
<path d="M1739.99 429.259H1677.04C1674.4 429.259 1672.23 427.1 1672.23 424.446C1672.23 421.806 1674.4 419.646 1677.04 419.646H1739.99C1742.64 419.646 1744.8 421.806 1744.8 424.446C1744.8 427.1 1742.64 429.259 1739.99 429.259Z" fill="#EBF3FA"/>
<path d="M1739.99 448.059H1677.04C1674.4 448.059 1672.23 445.886 1672.23 443.246C1672.23 440.606 1674.4 438.433 1677.04 438.433H1739.99C1742.64 438.433 1744.8 440.606 1744.8 443.246C1744.8 445.886 1742.64 448.059 1739.99 448.059Z" fill="#EBF3FA"/>
<path d="M1739.99 467.34H1677.04C1674.4 467.34 1672.23 465.166 1672.23 462.526C1672.23 459.886 1674.4 457.713 1677.04 457.713H1739.99C1742.64 457.713 1744.8 459.886 1744.8 462.526C1744.8 465.166 1742.64 467.34 1739.99 467.34Z" fill="#EBF3FA"/>
<path d="M1493.48 921.233H1343.61C1340.11 921.233 1337.24 918.353 1337.24 914.846C1337.24 911.34 1340.11 908.473 1343.61 908.473H1493.48C1496.99 908.473 1499.85 911.34 1499.85 914.846C1499.85 918.353 1496.99 921.233 1493.48 921.233Z" fill="#EBF3FA"/>
<path d="M760.92 483.379H611.054C607.547 483.379 604.68 480.499 604.68 476.993C604.68 473.486 607.547 470.619 611.054 470.619H760.92C764.427 470.619 767.293 473.486 767.293 476.993C767.293 480.499 764.427 483.379 760.92 483.379Z" fill="#EBF3FA"/>
<path d="M1493.48 984.513H1343.61C1340.11 984.513 1337.24 981.646 1337.24 978.14C1337.24 974.633 1340.11 971.753 1343.61 971.753H1493.48C1496.99 971.753 1499.85 974.633 1499.85 978.14C1499.85 981.646 1496.99 984.513 1493.48 984.513Z" fill="#EBF3FA"/>
<path d="M1493.48 952.873H1314.24C1310.73 952.873 1307.85 950.006 1307.85 946.486C1307.85 942.98 1310.73 940.113 1314.24 940.113H1493.48C1496.99 940.113 1499.85 942.98 1499.85 946.486C1499.85 950.006 1496.99 952.873 1493.48 952.873Z" fill="#EBF3FA"/>
<path d="M716.427 523.486H631.867C629.2 523.486 627.014 521.3 627.014 518.633V515.593C627.014 512.913 629.2 510.726 631.867 510.726H716.427C719.107 510.726 721.294 512.913 721.294 515.593V518.633C721.294 521.3 719.107 523.486 716.427 523.486Z" fill="#EBF3FA"/>
<path d="M599.014 517.113C599.014 513.593 601.867 510.726 605.387 510.726C608.907 510.726 611.774 513.593 611.774 517.113C611.774 520.633 608.907 523.486 605.387 523.486C601.867 523.486 599.014 520.633 599.014 517.113Z" fill="#EBF3FA"/>
<path d="M732.48 548.873H632.28C629.387 548.873 627.014 546.513 627.014 543.62V541.38C627.014 538.486 629.387 536.126 632.28 536.126H732.48C735.374 536.126 737.747 538.486 737.747 541.38V543.62C737.747 546.513 735.374 548.873 732.48 548.873Z" fill="#EBF3FA"/>
<path d="M599.014 542.5C599.014 538.98 601.867 536.126 605.387 536.126C608.907 536.126 611.774 538.98 611.774 542.5C611.774 546.02 608.907 548.873 605.387 548.873C601.867 548.873 599.014 546.02 599.014 542.5Z" fill="#EBF3FA"/>
<path d="M716.427 576.433H631.867C629.2 576.433 627.014 574.246 627.014 571.579V568.54C627.014 565.86 629.2 563.673 631.867 563.673H716.427C719.107 563.673 721.294 565.86 721.294 568.54V571.579C721.294 574.246 719.107 576.433 716.427 576.433Z" fill="#EBF3FA"/>
<path d="M599.014 570.059C599.014 566.539 601.867 563.673 605.387 563.673C608.907 563.673 611.774 566.539 611.774 570.059C611.774 573.579 608.907 576.433 605.387 576.433C601.867 576.433 599.014 573.579 599.014 570.059Z" fill="#EBF3FA"/>
<path d="M854 502.033C846.587 509.273 846.454 521.206 853.694 528.62C857.2 532.206 861.907 534.22 866.921 534.273C871.947 534.34 876.68 532.433 880.28 528.926C887.694 521.686 887.827 509.753 880.587 502.34C873.347 494.926 861.414 494.793 854 502.033ZM870.254 537.78C869.147 537.926 868.014 538.006 866.88 537.993C860.867 537.913 855.24 535.513 851.04 531.206C842.374 522.34 842.534 508.06 851.414 499.38C860.294 490.713 874.56 490.873 883.24 499.753C891.907 508.633 891.747 522.913 882.867 531.58C879.387 534.98 874.987 537.126 870.254 537.78" fill="#151F2C"/>
<path d="M831.693 552.7L829.106 550.059L851.08 528.593L853.667 531.246L831.693 552.7Z" fill="#151F2C"/>
<path d="M822.76 558.846C821.493 557.526 821.52 555.433 822.827 554.166L835.76 541.526C837.067 540.246 839.16 540.259 840.44 541.579C841.72 542.886 841.694 544.979 840.387 546.259L827.44 558.9C826.133 560.166 824.04 560.153 822.76 558.846Z" fill="#151F2C"/>
<path d="M1919.49 1415.89C1916.61 1415.9 1913.6 1413.83 1912.76 1411.26L1739.84 884.753C1738.99 882.166 1740.63 880.073 1743.51 880.059C1746.37 880.033 1749.39 882.113 1750.23 884.686L1923.15 1411.19C1924 1413.77 1922.36 1415.87 1919.49 1415.89Z" fill="#151F2C"/>
<path d="M2058.85 1415.09C2055.99 1415.1 2052.97 1413.02 2052.12 1410.45L1879.2 883.94C1878.36 881.366 1880 879.26 1882.87 879.246C1885.73 879.233 1888.75 881.299 1889.6 883.886L2062.52 1410.39C2063.36 1412.97 2061.72 1415.06 2058.85 1415.09" fill="#151F2C"/>
<path d="M1908.8 957.3L1768.85 958.113C1766.15 958.126 1763.29 956.166 1762.49 953.74C1761.71 951.313 1763.25 949.326 1765.96 949.313L1905.91 948.5C1908.6 948.486 1911.45 950.446 1912.25 952.873C1913.05 955.3 1911.49 957.286 1908.8 957.3" fill="#151F2C"/>
<path d="M1938.99 1049.23L1799.04 1050.05C1796.35 1050.06 1793.48 1048.09 1792.69 1045.67C1791.89 1043.25 1793.45 1041.25 1796.15 1041.23L1936.09 1040.42C1938.79 1040.41 1941.65 1042.38 1942.45 1044.79C1943.24 1047.22 1941.68 1049.22 1938.99 1049.23" fill="#151F2C"/>
<path d="M1968.07 1137.77L1828.12 1138.58C1825.43 1138.59 1822.56 1136.62 1821.76 1134.21C1820.97 1131.78 1822.53 1129.78 1825.23 1129.77L1965.17 1128.95C1967.87 1128.94 1970.73 1130.91 1971.52 1133.34C1972.32 1135.75 1970.76 1137.75 1968.07 1137.77" fill="#151F2C"/>
<path d="M2000.8 1237.43L1860.85 1238.25C1858.16 1238.26 1855.29 1236.3 1854.51 1233.87C1853.71 1231.45 1855.27 1229.46 1857.96 1229.45L1997.91 1228.63C2000.6 1228.62 2003.47 1230.58 2004.25 1233.01C2005.05 1235.43 2003.49 1237.42 2000.8 1237.43Z" fill="#151F2C"/>
<path d="M2035.07 1341.77L1895.12 1342.57C1892.41 1342.59 1889.56 1340.62 1888.76 1338.19C1887.97 1335.78 1889.52 1333.78 1892.23 1333.77L2032.17 1332.95C2034.87 1332.94 2037.73 1334.91 2038.52 1337.33C2039.32 1339.75 2037.76 1341.74 2035.07 1341.77" fill="#151F2C"/>
<path d="M1733.8 643.606C1732.71 643.82 1731.63 643.1 1731.43 641.993L1729.19 630.433C1728.97 629.326 1729.69 628.26 1730.79 628.046C1731.88 627.833 1732.96 628.566 1733.17 629.66L1735.41 641.22C1735.63 642.326 1734.89 643.393 1733.8 643.606" fill="#151F2C"/>
<path d="M1730.93 625.126L1729.56 625.393L1726.32 608.673L1727.69 608.406L1730.93 625.126Z" fill="#151F2C"/>
<path d="M1727.71 514.286C1727.71 514.286 1726.39 502.766 1723.59 498.366C1720.8 493.966 1710.25 491.14 1709.59 491.793C1707.52 493.793 1715.68 500.86 1716 503.473C1716.32 506.073 1711.85 504.273 1714 509.353C1715.81 513.646 1721.79 519.206 1721.79 519.206L1727.71 514.286" fill="#EE805F"/>
<path d="M1722.61 513.006C1726.47 509.993 1727.28 510.046 1727.28 510.046C1727.28 510.046 1762.87 540.873 1766.33 543.62C1769.8 546.366 1823.24 561.859 1823.24 561.859L1831.73 605.313C1831.73 605.313 1759.41 570.38 1750.77 563.246C1736.49 551.473 1718.48 518.5 1718.48 518.5C1718.48 518.5 1719.6 515.38 1722.61 513.006" fill="#2B6EB2"/>
<path d="M1824.39 930.566C1824.39 930.566 1823.77 945.42 1820.92 949.02L1781.25 949.26C1781.53 947.726 1781.71 944.18 1787.19 943.22C1794.12 942.02 1802.25 937.18 1806.45 928.02C1810.87 918.38 1824.39 930.566 1824.39 930.566Z" fill="#151F2C"/>
<path d="M1902.23 928.419C1902.23 928.419 1905 948.153 1901.24 948.5C1900.75 948.54 1885.25 948.793 1878.55 948.9C1870.67 949.033 1857.71 948.753 1857.71 948.753C1856.08 948.819 1855.01 947.059 1855.84 945.659C1856.75 944.113 1858.49 942.473 1861.8 941.833C1868.71 940.5 1880.21 935.433 1884.25 926.193C1888.51 916.486 1902.23 928.419 1902.23 928.419Z" fill="#151F2C"/>
<path d="M1803.76 726.273C1803.76 726.273 1814.79 764.86 1846.4 831.886C1878.01 898.913 1879.39 931.206 1879.39 931.206C1879.39 931.206 1884.17 932.9 1890.52 932.22C1897.39 931.486 1902.23 928.42 1902.23 928.42C1902.23 928.42 1900.19 848.646 1885.25 814.833C1870.32 781.006 1867.28 688.46 1867.28 688.46L1803.76 726.273" fill="#151F2C"/>
<path d="M1786.05 693.06C1786.05 693.06 1785.17 752.82 1795.52 826.206C1805.85 899.58 1801.03 933.7 1801.03 933.7C1801.03 933.7 1803.76 935.7 1812.2 935.673C1822.07 935.633 1827.12 931.553 1827.12 931.553C1827.12 931.553 1841.92 858.14 1837.68 821.42C1833.43 784.686 1857.95 695.393 1857.95 695.393L1786.05 693.06Z" fill="#384152"/>
<path d="M1834.92 553.206L1823.24 561.859L1806.36 558.313C1806.6 556.766 1807.71 550.393 1808.72 544.606C1808.79 544.273 1808.84 543.926 1808.91 543.593C1809.77 538.673 1810.52 534.459 1810.52 534.459L1826.29 526.593L1832.17 523.673C1832.15 523.766 1831.71 529.126 1831.65 529.9C1830.55 543.78 1834.92 553.206 1834.92 553.206Z" fill="#EE805F"/>
<path d="M1868.37 700.446C1864.56 717.913 1782.81 710.246 1783.88 699.58C1783.93 699.22 1784.15 694.286 1784.44 687.633C1785.05 673.246 1786 650.766 1786.12 649.006L1786.13 648.913C1787.6 634.073 1789.01 619.553 1789.11 610.059C1789.19 601.833 1790.32 593.433 1791.83 585.793C1793.21 578.739 1794.92 572.34 1796.41 567.366C1797.45 563.846 1799.4 560.753 1801.99 558.326C1803.83 556.606 1805.97 555.22 1808.35 554.273C1809 553.993 1809.67 553.766 1810.33 553.58C1819.95 550.793 1833.27 547.339 1836.87 548.393C1846.64 551.259 1853.89 568.473 1859.04 590.393C1868.65 631.433 1870.88 689.06 1868.37 700.446" fill="#43A1F6"/>
<path d="M1830.47 530.153C1827 536.779 1814.11 542.5 1808.72 544.606C1808.79 544.273 1808.84 543.926 1808.91 543.593C1809.77 538.673 1810.52 534.459 1810.52 534.459L1826.29 526.593C1829.77 526.539 1831.89 527.419 1830.47 530.153Z" fill="#DE6B4D"/>
<path d="M1802.87 533.526C1802.87 533.526 1831.31 542.406 1836.56 524.606C1841.81 506.806 1849.03 495.966 1831.08 489.553C1813.15 483.126 1807.6 488.873 1804.4 494.393C1801.2 499.9 1795.6 530.766 1802.87 533.526" fill="#EE805F"/>
<path d="M1805.52 492.673C1805.52 492.673 1807.33 513.393 1811.61 512.486C1815.89 511.593 1819.77 510.926 1819.15 517.166C1818.52 523.406 1812.59 530.62 1825.79 531.726C1838.99 532.833 1857.96 498.78 1854.33 492.34C1843.87 473.74 1790.39 469.993 1805.52 492.673" fill="#151F2C"/>
<path d="M1784.44 687.633C1785.05 673.246 1786 650.766 1786.12 649.006L1786.13 648.913L1834.41 620.046C1834.41 620.046 1836.29 687.446 1784.44 687.633" fill="#2B6EB2"/>
<path d="M1746.05 627.22C1746.05 627.22 1736.24 620.58 1734.37 620.006C1732.52 619.42 1726.41 618.793 1726.13 619.273C1725.85 619.766 1725.01 621.233 1726.08 621.726C1727.15 622.233 1728.47 622.06 1728.07 622.406C1727.68 622.753 1723.67 620.846 1722.73 622.886C1721.81 624.94 1721 631.94 1725.71 634.073C1730.41 636.193 1742.03 634.273 1742.87 634.513C1749.97 636.58 1746.05 627.22 1746.05 627.22" fill="#EE805F"/>
<path d="M1745.96 625.433C1745.96 625.433 1793.85 633.566 1798.11 631.5C1804.88 628.206 1795.47 579.606 1795.47 579.606C1795.47 579.606 1795.07 568.593 1807.93 565.993C1819.12 563.74 1829.91 572.113 1829.91 572.113C1829.91 572.113 1839.71 580.886 1838.45 590.633C1835.68 612.206 1831.36 656.1 1816.92 662.833C1798.31 671.5 1744.44 638.766 1744.44 638.766C1744.44 638.766 1742.64 636.566 1742.89 632.486C1743.12 628.886 1745.96 625.433 1745.96 625.433" fill="#43A1F6"/>
<path d="M1713.77 508.78C1713.77 508.78 1710.71 502.686 1710.23 501.54C1709.73 500.393 1710.92 500.646 1712.11 501.273C1713.28 501.913 1714.89 505.46 1716.71 505.033C1718.16 504.686 1713.77 508.78 1713.77 508.78" fill="#EE805F"/>
</svg>
