<svg width="231" height="171" viewBox="0 0 231 171" fill="none" xmlns="http://www.w3.org/2000/svg">
<path opacity="0.3" d="M215.939 132.52H188.647C191.566 129.135 193.432 124.006 193.432 118.263V114.043C193.432 101.826 200.474 91.9179 209.158 91.9179C218.061 91.9179 225.28 81.762 225.28 69.238C225.28 56.714 218.061 46.5581 209.158 46.5581H206.515C197.831 46.5581 190.789 36.6498 190.789 24.4326C190.789 14.2337 184.915 5.96687 177.665 5.96687H75.1207C67.0519 5.96687 60.5156 15.1701 60.5156 26.5154C60.5156 34.2763 63.57 41.0254 68.084 44.5237H50.0699C42.5588 44.5237 36.4655 52.4514 36.4655 62.236C36.4655 73.958 29.1681 83.4573 20.1663 83.4573H17.4297C8.19856 83.4573 0.71875 93.1988 0.71875 105.211C0.71875 117.23 8.19856 126.966 17.4297 126.966C26.4316 126.966 33.729 136.465 33.729 148.187V152.234C33.729 162.013 39.8171 169.946 47.3334 169.946H110.628C111.107 170.006 111.587 170.038 112.077 170.038H215.939C224.154 170.038 230.81 161.637 230.81 151.276C230.81 140.921 224.149 132.52 215.939 132.52Z" fill="#A0BFE4"/>
<path d="M90.9404 117.114L88.7178 116.679L79.0656 169.266L81.2882 169.701L90.9404 117.114Z" fill="#194655"/>
<path d="M155.022 169.952H157.696L147.73 116.681L145.51 117.117L155.022 169.952Z" fill="#194655"/>
<path d="M106.077 169.952H108.751L98.7849 116.681L96.5645 117.117L106.077 169.952Z" fill="#194655"/>
<path d="M130.666 169.952L128.492 169.979L138.047 116.917L140.267 117.353L130.666 169.952Z" fill="#194655"/>
<path d="M120.963 44.9381C129.767 45.9123 141.156 46.9402 152.587 66.9721C165.086 88.8716 158.503 121.578 148.641 130.668C138.779 139.759 106.561 150.98 79.4829 134.178C79.4829 134.178 63.1316 123.995 71.5236 107.095C84.4399 81.0892 82.6104 75.6695 88.3857 65.4759C94.1663 55.2878 102.282 42.8714 120.963 44.9381Z" fill="#F9E0B2"/>
<path d="M152.593 66.9722C144.79 53.2964 137.008 48.4795 130.049 46.4882C132.739 49.3622 135.465 53.0596 138.196 57.8442C150.696 79.7437 144.112 112.45 134.251 121.541C125.504 129.603 99.1763 139.339 74.4434 129.721C76.987 132.628 79.4838 134.183 79.4838 134.183C106.562 150.986 138.78 139.764 148.642 130.674C158.509 121.578 165.087 88.8716 152.593 66.9722Z" fill="#F8CC7F"/>
<path d="M92.7065 78.2206L90.4443 85.228L97.3403 82.4293L92.7065 78.2206Z" fill="#F79C8D"/>
<path d="M99.8179 57.3652C99.3592 57.3868 98.0978 57.8173 96.2578 61.4018C93.907 65.9765 90.4668 79.7921 90.4668 79.7921L100.725 83.7264L102.044 80.8417L104.217 58.6408C104.217 58.6408 99.943 57.3599 99.8179 57.3652Z" fill="#022A44"/>
<path d="M113.38 55.3739C110.445 55.3793 103.184 56.2565 99.8168 57.3652C99.8168 57.3652 97.3409 79.2593 102.048 95.8952C103.101 99.6195 101.177 111.331 101.177 111.331L131.581 110.916C131.581 110.916 127.979 82.6016 129.335 78.0268C130.69 73.4521 130.726 57.5106 130.726 57.5106C130.726 57.5106 130.518 57.4783 123.898 56.2996C120.802 55.756 116.512 55.3739 113.38 55.3739Z" fill="#12355A"/>
<path d="M116.925 151.965C116.925 151.965 116.253 159.952 115.017 162.164C113.782 164.376 115.08 168.138 115.148 168.655C115.215 169.172 117.749 169.909 121.788 169.468C125.823 169.026 125.76 168.068 125.432 166.518C125.109 164.968 122.956 162.977 122.831 161.502C122.7 160.027 124.066 154.715 124.066 154.715L116.925 151.965Z" fill="#F8A491"/>
<path d="M104.603 104.738C104.603 104.738 83.6182 103.538 78.927 106.46C74.2411 109.383 79.7767 115.378 79.7767 115.378C79.7767 115.378 96.863 123.021 125.469 124.721C132.245 125.125 132.829 106.546 131.562 105.007C130.295 103.473 104.603 104.738 104.603 104.738Z" fill="#32806C"/>
<path d="M122.289 170.086C126.443 169.629 125.932 167.53 125.594 165.937C125.385 164.936 124.191 163.763 123.482 162.648C123.112 162.955 122.508 163.488 120.704 164.037C118.828 164.608 116.263 163.477 114.627 162.772C114.043 165.006 114.017 167.858 114.069 168.289C114.131 168.822 118.129 170.544 122.289 170.086Z" fill="#34548A"/>
<path d="M119.996 120.19C119.157 126.718 115.008 159.22 115.008 159.22L124.64 160.447C124.64 160.447 136.488 118.021 135.878 111.535C135.268 105.045 130.838 104.501 130.838 104.501C130.838 104.501 122.211 102.908 119.996 120.19Z" fill="#3C8F7C"/>
<path d="M110.763 27.7533C110.763 27.7533 113.963 24.2711 116.538 28.5068C116.538 28.5068 118.519 27.355 119.911 29.4056C119.911 29.4056 123.492 28.2915 124.362 33.8242C124.362 33.8242 126.207 33.4636 126.447 35.7295C126.692 37.9899 125.577 39.5023 125.577 39.5023C125.577 39.5023 126.614 40.3042 126.14 42.387C125.738 44.1577 124.32 44.4268 124.32 44.4268C124.32 44.4268 123.94 47.4085 122.684 48.3073C121.433 49.2061 119.728 48.7755 119.728 48.7755C119.728 48.7755 119.275 50.3901 117.815 50.2502C116.356 50.1049 114.547 48.6679 112.91 49.3137C111.274 49.9595 107.031 49.276 107.031 49.276C107.031 49.276 102.267 47.0855 103.69 42.0534C103.69 42.0534 101.182 39.7175 103.377 36.9189C103.377 36.9189 101.777 32.5379 104.941 29.9492C108.12 27.3604 110.763 27.7533 110.763 27.7533Z" fill="#12355A"/>
<path d="M111.306 51.4127L110.727 55.8529C110.727 55.8529 109.429 62.2467 111.097 63.4792C112.765 64.7117 118.197 55.6699 118.197 55.6699L117.623 44.4215L111.306 51.4127Z" fill="#F8A491"/>
<path d="M117.81 48.0651C116.428 51.9025 113.144 54.2598 110.814 55.1748L111.304 51.4127L117.622 44.4215L117.81 48.0651Z" fill="#F37458"/>
<path d="M113.766 32.6079C110.378 31.4023 106.765 33.7274 106.249 37.3333C106.025 38.8995 105.822 40.8747 105.785 43.0275C105.697 48.2104 108.293 53.2534 110.57 53.2534C112.848 53.2534 119.15 49.9004 119.379 42.5377C119.52 37.9953 117.32 33.8673 113.766 32.6079Z" fill="#F8A491"/>
<path d="M117.695 43.1244C117.695 44.2654 118.43 45.1965 119.337 45.1965C120.244 45.1965 120.979 44.2707 120.979 43.1244C120.979 41.9834 120.244 41.0523 119.337 41.0523C118.43 41.0523 117.695 41.978 117.695 43.1244Z" fill="#F8A491"/>
<path d="M103.889 30.0245C101.533 31.9513 100.71 34.8791 102.044 36.5637C103.378 38.2483 106.375 38.0491 108.726 36.1278C111.077 34.2064 111.906 31.2732 110.571 29.5886C109.237 27.904 106.245 28.1031 103.889 30.0245Z" fill="#12355A"/>
<path d="M131.05 59.9486C128.21 58.8507 126.818 85.2065 126.432 96.0566C121.397 96.5572 112.625 96.062 110.441 95.8898C109.414 95.8091 107.042 94.9157 106.02 94.7811C104.973 94.6412 104.024 94.5658 103.508 94.6573C103.32 94.6896 98.0715 96.9016 97.6232 97.386C97.0655 97.9888 95.5591 99.5011 95.8145 100.158C96.0699 100.814 98.7074 98.3332 98.7074 98.3332L100 97.5905C98.3947 99.2051 95.3297 101.331 95.7728 102.106C96.2054 102.86 98.968 100.701 100.938 99.232C99.2495 100.804 97.1489 103.613 97.6336 104.049C98.0663 104.442 100.454 101.191 103.008 100.255C103.951 99.9048 104.895 100.868 105.64 100.987C106.187 101.073 107.032 101.256 107.568 101.1L110.331 100.292C111.275 100.378 111.295 100.954 112.244 101.159C113.349 101.401 115.158 101.654 116.565 102.009C124.655 104.044 127.355 104.991 129.831 104.985C137.337 104.975 137.769 62.5428 131.05 59.9486Z" fill="#F8A491"/>
<path d="M136.447 84.6952C136.978 73.5813 136.9 59.884 130.849 57.5482C128.461 56.6279 124.25 62.1714 125.006 84.9212C128.242 85.1957 132.986 85.4164 136.447 84.6952Z" fill="#12355A"/>
<path d="M102.58 79.9213H103.2L112.473 103.376L111.837 103.274L102.58 79.9213Z" fill="#F79C8D"/>
<path d="M88.7506 158.8C88.7506 158.8 89.5898 161.572 88.0886 163.407C86.5822 165.243 80.3273 167.04 79.509 168.036C78.6906 169.032 78.7479 169.877 78.7479 169.877L96.3034 169.381L96.1105 163.924L95.3026 160.006L88.7506 158.8Z" fill="#F8A491"/>
<path d="M87.0002 164.322C87.0002 164.322 91.5089 166.201 93.6877 165.087C95.8665 163.972 95.7988 163.666 96.4295 164.08C97.0602 164.495 97.2843 169.607 97.2843 169.607L77.5449 170.205C76.1688 170.173 75.4756 169.134 76.591 168.24C77.3572 167.627 78.2381 167.218 78.7437 166.922C80.2918 166.018 87.0002 164.322 87.0002 164.322Z" fill="#34548A"/>
<path d="M89.4184 109.862C88.0632 106.923 84.9775 103.096 79.5461 105.4C74.3702 107.596 72.9785 112.999 74.61 118.527C76.2414 124.054 86.9999 156.561 87.3752 161.034L95.96 161.093C95.96 161.093 94.4015 135.351 94.0158 129.129C93.6509 123.144 91.7692 114.942 89.4184 109.862Z" fill="#3C8F7C"/>
<path d="M75.4796 79.9213H104.184C104.945 79.9213 105.628 80.3949 105.915 81.1215L114.755 103.382H130.58C131.023 103.382 131.383 103.753 131.383 104.21C131.383 104.668 131.023 105.039 130.58 105.039H85.5395C84.299 105.039 83.1783 104.291 82.6727 103.123L73.7751 82.6554C73.2122 81.3637 74.1191 79.9213 75.4796 79.9213Z" fill="#F37458"/>
<path d="M90.9359 92.8812C91.1288 93.8823 91.9732 94.5496 92.8229 94.372C93.6725 94.1944 94.1989 93.2472 94.0061 92.2461C93.8132 91.2451 92.9688 90.5777 92.1192 90.7553C91.2696 90.9275 90.7379 91.8802 90.9359 92.8812Z" fill="white"/>
<path opacity="0.3" d="M171.635 48.4364C179.463 48.4364 185.808 41.8702 185.808 33.7704C185.808 25.6706 179.463 19.1044 171.635 19.1044C163.808 19.1044 157.463 25.6706 157.463 33.7704C157.463 41.8702 163.808 48.4364 171.635 48.4364Z" fill="#A0BFE4"/>
<path d="M161.615 33.4798H156.393V33.8942H161.615V33.4798Z" fill="#194655"/>
<path d="M186.904 33.4798H181.682V33.8942H186.904V33.4798Z" fill="#194655"/>
<path d="M171.815 18.1087H171.414V23.5177H171.815V18.1087Z" fill="#194655"/>
<path d="M171.815 44.1739H171.414V49.5828H171.815V44.1739Z" fill="#194655"/>
<path d="M172.066 33.7704C172.066 34.018 171.874 34.2171 171.634 34.2171C171.394 34.2171 171.201 34.018 171.201 33.7704C171.201 33.5229 171.394 33.3237 171.634 33.3237C171.874 33.3237 172.066 33.5229 172.066 33.7704Z" fill="#194655"/>
<path d="M171.636 33.9696C171.589 33.9696 171.537 33.948 171.5 33.9104L163.729 25.8696C163.656 25.7889 163.656 25.6651 163.729 25.5844C163.802 25.5036 163.927 25.5036 164 25.5844L171.771 33.6251C171.844 33.7058 171.844 33.8296 171.771 33.9104C171.735 33.948 171.688 33.9696 171.636 33.9696Z" fill="#194655"/>
<path d="M174.135 41.8973C174.104 41.8811 174.077 41.8488 174.067 41.8112L171.555 33.9588C171.529 33.8834 171.57 33.8027 171.643 33.7758C171.716 33.7489 171.794 33.792 171.821 33.8673L174.333 41.7197C174.359 41.795 174.317 41.8758 174.244 41.9027C174.203 41.9134 174.166 41.9134 174.135 41.8973Z" fill="#194655"/>
<path d="M194.224 66.8484L195.491 64.7279L194.474 64.3027C194.25 64.2112 194.146 63.9475 194.235 63.716C194.323 63.4846 194.579 63.377 194.803 63.4685L195.976 63.9582L197.107 62.053L196.023 61.6009C195.798 61.5094 195.694 61.2457 195.783 61.0143C195.871 60.7828 196.127 60.6752 196.351 60.7667L197.591 61.2887L198.905 59.109C199.014 58.926 199.244 58.8507 199.437 58.9314L199.624 59.0121C199.875 59.1144 199.974 59.4266 199.833 59.6634L198.613 61.7247L200.411 62.4782L201.725 60.2984C201.834 60.1154 202.064 60.0401 202.257 60.1208L202.465 60.207C202.715 60.3092 202.814 60.6214 202.674 60.8582L201.454 62.9195L202.47 63.3447C202.694 63.4362 202.799 63.6999 202.71 63.9313C202.621 64.1627 202.366 64.2704 202.142 64.1789L200.969 63.6891L199.854 65.5997L200.938 66.0518C201.162 66.1433 201.266 66.407 201.178 66.6385C201.089 66.8699 200.834 66.9775 200.609 66.8861L199.369 66.364L198.029 68.6137C197.92 68.802 197.69 68.8774 197.498 68.7967L197.274 68.7052C197.023 68.6029 196.924 68.2908 197.065 68.0539L198.332 65.9334L196.533 65.1799L195.194 67.4296C195.084 67.618 194.855 67.6933 194.662 67.6126L194.443 67.5211C194.183 67.392 194.084 67.0852 194.224 66.8484ZM198.811 65.1476L199.942 63.2424L198.144 62.4889L197.013 64.3942L198.811 65.1476Z" fill="#12355A"/>
<path d="M83.2423 9.13688L84.535 6.12294L82.8618 3.31352C82.669 2.99598 82.9192 2.58695 83.2788 2.62462L86.4532 2.96369L88.5225 0.455671C88.7571 0.170423 89.2106 0.288825 89.2835 0.654803L89.9507 3.87864L92.9009 5.13803C93.2345 5.28335 93.2658 5.76235 92.9531 5.95073L90.1905 7.603L89.9455 10.8914C89.9194 11.2682 89.4868 11.4458 89.2158 11.1928L86.8389 8.99157L83.7323 9.76658C83.3935 9.84731 83.0964 9.47595 83.2423 9.13688Z" fill="#F58D80"/>
<path d="M176.939 9.13148L177.908 6.87104L176.652 4.76128C176.512 4.51908 176.694 4.2177 176.965 4.24461L179.347 4.49756L180.9 2.61385C181.078 2.39857 181.416 2.49006 181.474 2.76455L181.974 5.18107L184.189 6.12293C184.44 6.23057 184.466 6.59117 184.231 6.7311L182.157 7.96898L181.974 10.4339C181.953 10.7138 181.63 10.8484 181.427 10.66L179.644 9.0077L177.314 9.58896C177.054 9.6643 176.829 9.38982 176.939 9.13148Z" fill="#F8CC7F"/>
<path d="M167.312 73.7374L167.161 71.8644L165.581 70.9333C165.399 70.8257 165.414 70.5566 165.607 70.4705L167.286 69.7385L167.656 67.8979C167.697 67.688 167.953 67.618 168.088 67.7794L169.277 69.2003L171.086 68.9958C171.294 68.9743 171.435 69.2003 171.325 69.3887L170.382 70.9979L171.132 72.7094C171.216 72.9031 171.049 73.1184 170.846 73.0646L169.074 72.6394L167.729 73.9042C167.572 74.0495 167.327 73.9473 167.312 73.7374Z" fill="#F58D80"/>
<path d="M77.2579 43.1997L77.972 41.5421L77.0546 39.9974C76.9504 39.8198 77.0859 39.5992 77.284 39.6207L79.0301 39.809L80.1717 38.4312C80.302 38.2752 80.547 38.3398 80.5939 38.5389L80.9639 40.3096L82.585 41.0039C82.7674 41.0846 82.7883 41.3483 82.6163 41.4506L81.0943 42.3601L80.9587 44.1685C80.9431 44.373 80.7033 44.4753 80.5574 44.3353L79.2491 43.1244L77.5394 43.5496C77.3413 43.5872 77.1797 43.3881 77.2579 43.1997Z" fill="#51C0A5"/>
<path d="M43.7948 93.5432L45.9266 91.5949L49.346 94.7919L52.807 92.3377L55.7416 94.3021L56.7059 92.7682L52.7758 90.1418L49.4972 92.4668L45.9423 89.1407L42.7314 92.0739L43.7948 93.5432Z" fill="#12355A"/>
<path d="M10.2838 95.9544L12.0769 92.9512L10.6383 92.3484C10.3255 92.2193 10.1744 91.8479 10.2995 91.5196C10.4246 91.1967 10.7842 91.0406 11.1022 91.1698L12.7597 91.864L14.36 89.1676L12.8223 88.5272C12.5095 88.398 12.3584 88.0267 12.4835 87.6983C12.6086 87.3754 12.9682 87.2193 13.2862 87.3485L15.0428 88.0859L16.9036 84.9966C17.06 84.7329 17.3779 84.6252 17.6542 84.7436L17.92 84.8566C18.2745 85.002 18.41 85.4433 18.2119 85.777L16.4814 88.6886L19.0251 89.7543L20.8859 86.665C21.0423 86.4013 21.3602 86.2936 21.6365 86.4121L21.9284 86.5358C22.2828 86.6811 22.4183 87.1225 22.2203 87.4562L20.4897 90.3678L21.9284 90.9706C22.2411 91.0998 22.3923 91.4711 22.2672 91.7994C22.1421 92.1224 21.7824 92.2784 21.4645 92.1493L19.8069 91.455L18.2328 94.1622L19.7704 94.8026C20.0832 94.9318 20.2343 95.3031 20.1092 95.6315C19.9841 95.9544 19.6245 96.1105 19.3065 95.9813L17.5499 95.2439L15.6526 98.4301C15.4963 98.6938 15.1783 98.8015 14.8968 98.6831L14.5841 98.5539C14.2296 98.4086 14.0941 97.9673 14.2922 97.6336L16.0853 94.6304L13.5416 93.5648L11.6443 96.7509C11.4879 97.0146 11.17 97.1223 10.8885 97.0039L10.5757 96.8747C10.2213 96.7294 10.0858 96.2881 10.2838 95.9544ZM16.7733 93.5486L18.3735 90.8522L15.8299 89.7866L14.2296 92.483L16.7733 93.5486Z" fill="#51C0A5"/>
<path d="M172.938 133.946C172.755 132.283 172.541 130.588 171.791 129.102C170.884 127.299 169.289 126.002 167.897 124.571C165.296 121.896 163.289 118.597 162.091 115.012C161.163 112.24 160.699 109.286 159.417 106.665C158.635 105.066 157.566 103.635 156.68 102.095C154.579 98.457 153.438 94.1568 150.587 91.1159C150.039 94.808 151.124 98.7261 153.474 101.557C154.178 102.402 154.991 103.161 155.523 104.13C156.492 105.884 156.404 108.026 156.518 110.045C156.732 113.839 157.769 117.579 159.526 120.916C161.392 124.458 164.092 127.617 165.093 131.513C165.843 134.436 165.619 137.719 167.214 140.248C167.386 140.523 167.584 140.797 167.626 141.126C167.652 141.309 167.621 141.492 167.595 141.675C167.558 141.912 167.522 142.143 167.485 142.38C167.121 144.775 166.745 147.816 168.736 149.608C170.118 150.851 171.895 150.878 172.885 149.226C173.881 147.568 173.798 145.135 173.719 143.268C173.6 140.157 173.276 137.035 172.938 133.946Z" fill="#3C8F7C"/>
<path d="M176.525 132.019C175.748 129.248 174.549 126.61 173.945 123.796C173.361 121.067 173.356 118.241 173.356 115.443C173.356 112.38 173.351 109.313 173.351 106.25C173.351 104.34 173.345 102.424 173.043 100.54C172.386 96.4926 170.348 92.7467 170.004 88.6564C169.853 86.8857 170.03 85.0988 169.837 83.3335C169.728 82.3271 169.478 81.2937 169.029 80.4003C168.545 79.4369 167.2 79.48 166.762 80.4649C165.772 82.6769 165.146 85.0719 165.542 87.4454C165.782 88.8663 166.382 90.1956 166.825 91.568C168.811 97.6659 167.758 104.415 169.29 110.653C169.754 112.536 170.452 114.382 170.536 116.32C170.729 120.965 167.372 125.206 167.679 129.845C167.93 133.645 170.578 136.793 171.693 140.426C172.313 142.46 172.449 144.629 173.116 146.648C173.632 148.214 174.836 150.119 176.707 149.646C178.485 149.193 177.948 147.697 177.865 146.266C177.593 141.433 177.844 136.745 176.525 132.019Z" fill="#32806C"/>
<path d="M180.584 134.56C180.505 133.123 180.271 131.675 180.464 130.243C180.63 129.038 181.094 127.902 181.423 126.734C182.043 124.544 182.199 122.246 182.351 119.974C182.627 115.836 182.898 111.697 183.174 107.563C183.601 101.132 184.029 94.6842 185.191 88.3496C185.514 86.5896 185.879 84.6844 185.113 83.0806C184.952 82.7415 184.634 82.3809 184.284 82.4939C184.034 82.5747 183.914 82.8545 183.826 83.1075C181.282 90.2494 180.318 97.9403 177.477 104.964C176.794 106.648 176.007 108.301 175.653 110.088C175.23 112.235 175.46 114.452 175.517 116.637C175.595 119.775 175.298 122.94 174.459 125.959C174.021 127.536 173.432 129.081 173.192 130.706C172.89 132.73 173.145 134.796 173.333 136.836C173.693 140.76 173.818 144.705 173.698 148.639C173.63 150.953 175.522 150.894 176.773 149.473C177.649 148.478 177.644 147.385 177.941 146.147C178.931 142.089 180.823 138.968 180.584 134.56Z" fill="#3C8F7C"/>
<path d="M168.761 140.835C167.088 138.058 163.752 136.481 162.683 133.403C162.412 132.617 162.303 131.777 161.974 131.018C161.234 129.334 159.556 128.381 157.903 127.606C157.674 127.498 157.414 127.671 157.408 127.929C157.403 128.343 157.591 128.736 157.924 128.968C159.196 129.85 160.16 131.201 160.593 132.724C161.104 134.527 160.88 136.508 161.516 138.268C162.047 139.748 163.142 140.959 163.658 142.444C164.127 143.801 164.08 145.286 164.299 146.712C164.518 148.139 165.133 149.651 166.4 150.254C170.987 152.433 169.84 142.627 168.761 140.835Z" fill="#32806C"/>
<path d="M187.828 139.92C187.756 141.26 187.954 142.67 187.448 143.908C187.125 144.699 186.536 145.34 186.056 146.04C184.367 148.504 183.758 151.997 181.162 153.386C180.99 153.478 180.802 153.558 180.609 153.521C180.343 153.467 180.171 153.203 180.062 152.95C179.426 151.422 180.14 149.699 180.562 148.09C180.635 147.81 180.698 147.498 180.568 147.24C180.427 146.954 180.098 146.831 179.88 146.61C179.437 146.163 179.478 145.431 179.567 144.796C179.786 143.214 180.093 141.648 180.489 140.109C180.714 139.231 180.974 138.354 181.459 137.601C181.996 136.772 182.778 136.158 183.507 135.507C186.734 132.638 189.21 128.871 190.596 124.705C190.893 123.806 191.164 122.854 191.785 122.149C192.405 121.444 193.505 121.078 194.261 121.627C194.797 122.014 192.598 125.663 192.342 126.105C191.613 127.353 191.602 128.446 191.185 129.834C190.174 133.23 188.021 136.271 187.828 139.92Z" fill="#3C8F7C"/>
<path d="M185.277 141.47C185.757 140.189 186.241 138.892 186.398 137.531C186.575 136.013 186.34 134.463 186.591 132.961C186.914 131.029 188.003 129.328 188.545 127.445C188.936 126.088 189.03 124.657 189.265 123.263C189.937 119.269 191.751 115.367 191.23 111.352C191.115 110.48 190.734 109.458 189.895 109.313C189.134 109.178 188.441 109.894 188.243 110.669C188.045 111.438 188.191 112.257 188.248 113.048C188.399 115.27 187.784 117.536 186.544 119.35C185.35 121.094 183.614 122.407 182.541 124.237C181.222 126.476 181.045 129.21 180.372 131.74C179.033 136.766 175.681 141.158 175.066 146.336C174.821 148.397 175.29 150.9 177.13 151.723C182.462 154.096 184.068 144.694 185.277 141.47Z" fill="#32806C"/>
<path d="M175.959 147.853H175.11H163.736C162.902 147.853 162.282 148.661 162.475 149.5L166.931 168.902C167.072 169.505 167.593 169.93 168.193 169.93H175.11H175.959H182.876C183.476 169.93 183.997 169.505 184.138 168.902L188.594 149.5C188.787 148.661 188.172 147.853 187.333 147.853H175.959Z" fill="#F37458"/>
<path d="M171.637 16.6394C162.494 16.6394 155.082 24.3088 155.082 33.765C155.082 43.2266 162.494 50.8907 171.637 50.8907C180.779 50.8907 188.191 43.2213 188.191 33.765C188.191 24.3088 180.779 16.6394 171.637 16.6394ZM172.528 48.4041C164.715 48.9101 157.985 42.7692 157.495 34.6854C157.005 26.6016 162.942 19.6372 170.756 19.1313C178.569 18.6254 185.298 24.7663 185.788 32.8501C186.273 40.9339 180.336 47.8982 172.528 48.4041Z" fill="#194655"/>
</svg>
