<svg width="38" height="38" viewBox="0 0 38 38" fill="none" xmlns="http://www.w3.org/2000/svg">
<g clip-path="url(#clip0)">
<path d="M33.9209 6.76662L19.69 0.923169C19.3335 0.776826 18.9328 0.776754 18.5764 0.923169L4.34551 6.76662C3.8035 6.98922 3.4502 7.51255 3.4502 8.09297V15.1965C3.4502 24.9776 9.42781 33.7759 18.5844 37.4721C18.9361 37.6141 19.3302 37.6141 19.682 37.4721C28.8384 33.7759 34.8162 24.9776 34.8162 15.1965V8.09297C34.8162 7.51255 34.463 6.98922 33.9209 6.76662ZM31.9119 15.1965C31.9119 23.5114 26.9747 31.1658 19.1332 34.5826C11.5012 31.2571 6.35445 23.7367 6.35445 15.1965V9.05174L19.1332 3.8045L31.9119 9.05174V15.1965ZM17.5282 20.0373L23.7697 13.8645C24.3368 13.3037 25.2562 13.3037 25.8233 13.8645C26.3904 14.4254 26.3904 15.3347 25.8232 15.8955L18.555 23.0838C17.9878 23.6447 17.0683 23.6445 16.5014 23.0838L12.4431 19.0702C11.876 18.5093 11.876 17.6 12.4431 17.0392C13.0102 16.4784 13.9296 16.4783 14.4967 17.0392L17.5282 20.0373Z" fill="#324CDD"/>
</g>
<defs>
<clipPath id="clip0">
<rect width="37.1745" height="36.7653" fill="white" transform="translate(0.545898 0.813293)"/>
</clipPath>
</defs>
</svg>
