<svg width="601" height="401" viewBox="0 0 601 401" fill="none" xmlns="http://www.w3.org/2000/svg">
<path opacity="0.32" d="M524.418 301.773C548.231 310.535 574.162 322.238 572.96 332.41C571.653 343.53 539.082 342.979 488.211 356.765C407.188 378.701 403.371 403.485 362.627 399.977C315.723 395.933 316.594 362.724 260.931 353.625C240.003 350.209 210 354.743 149.98 363.842C109.536 369.969 77.9107 376.939 59.0708 358.343C58.1393 357.424 48.6593 348.08 49.1851 341.554C50.7777 321.84 145.878 303.06 524.418 301.773Z" fill="#E3ECF7"/>
<g filter="url(#filter0_d_1272_46020)">
<path d="M369.491 201.883L247.332 202.512C244.027 202.527 241.278 199.907 241.173 196.675L238.333 107.233C238.228 103.986 240.827 101.412 244.132 101.489L366.516 104.476C369.581 104.553 372.135 107.141 372.24 110.266L374.87 196.216C374.945 199.325 372.541 201.868 369.491 201.883Z" fill="#D8DEE8"/>
<path d="M371.671 201.164L249.512 201.792C246.207 201.807 243.458 199.188 243.352 195.956L240.513 106.514C240.408 103.266 243.007 100.693 246.312 100.769L368.696 103.756C371.761 103.833 374.315 106.422 374.42 109.546L377.049 195.496C377.124 198.606 374.736 201.148 371.671 201.164Z" fill="#F4F7FA"/>
<path d="M377.111 168.644L242.438 168.016L242.513 170.604L377.186 171.141L377.111 168.644Z" fill="white"/>
<path d="M321.357 101.964L323.476 170.19L326 170.206L323.881 102.025L321.357 101.964Z" fill="white"/>
<path d="M307.036 183.64L259.396 183.624C259.17 183.624 258.99 183.44 258.975 183.226L258.84 178.86C258.84 178.646 259.005 178.462 259.23 178.462L306.871 178.538C307.081 178.538 307.262 178.707 307.277 178.937L307.412 183.241C307.427 183.456 307.247 183.64 307.036 183.64Z" fill="#AE84BB"/>
<path d="M320.032 193.274L259.696 193.443C259.471 193.443 259.291 193.259 259.276 193.045L259.141 188.679C259.141 188.465 259.306 188.281 259.531 188.281L319.867 188.204C320.077 188.204 320.257 188.373 320.273 188.587L320.408 192.876C320.423 193.106 320.257 193.274 320.032 193.274Z" fill="#D8DEE8"/>
<path d="M367.973 126.458L331.48 125.814L331.029 111.277L367.522 112.074L367.973 126.458Z" fill="#D8DEE8"/>
<path d="M369.026 161.076L332.564 160.816L331.662 132.018L368.155 132.584L369.026 161.076Z" fill="#D8DEE8"/>
<path d="M281.153 125.707C286.877 125.799 291.655 130.501 291.835 136.169C291.88 137.762 291.55 139.263 290.949 140.596L303.193 146.371C304.545 143.338 305.252 139.952 305.146 136.368C304.741 123.424 293.833 112.656 280.748 112.38C280.718 112.38 280.688 112.38 280.643 112.38L281.063 125.722C281.093 125.707 281.123 125.707 281.153 125.707Z" fill="white"/>
<path d="M290.947 140.58C289.385 144.012 285.914 146.355 281.798 146.309C276.059 146.248 271.236 141.561 271.056 135.847C270.876 130.18 275.368 125.645 281.047 125.691L280.626 112.349C267.48 112.12 257.069 122.551 257.474 135.648C257.895 148.776 269.028 159.529 282.204 159.621C291.669 159.682 299.646 154.229 303.177 146.325L290.947 140.58Z" fill="url(#paint0_linear_1272_46020)"/>
<path d="M538.345 316.233C538.51 321.962 534.288 326.849 528.925 327.094L61.6243 350.546C48.178 351.388 42.0933 344.066 41.868 337.418L33.1992 77.7923L34.8669 53.7736C34.6415 47.0796 37.6312 34.4882 44.7976 34.7946L521.052 54.708C526.431 54.9378 530.953 59.8243 531.118 65.5838L538.345 316.233Z" fill="#D8DEE8"/>
<path d="M531.915 92.5905L531.134 65.5694C530.968 59.8099 526.446 54.9234 527.062 52.6717L51.1829 33.2178C34.4764 33.9224 31.7871 43.8025 32.0125 50.4965L33.1843 77.7626L42.1235 76.1849L531.915 92.5905Z" fill="#11A4EF"/>
<path d="M552.422 317.244C552.588 323.035 548.321 327.982 542.927 328.227L64.4941 350.316C57.2827 350.653 51.168 345.414 50.9426 338.69L42.1387 76.1995L44.7077 45.5021C44.4824 38.7469 47.412 35.1011 54.6685 35.4075L534.92 52.9314C540.343 53.1611 544.911 58.1089 545.076 63.9297L552.422 317.244Z" fill="white"/>
<path d="M545.886 91.2262L545.09 63.9141C544.924 58.0932 540.357 53.1455 534.934 52.9158L53.8711 32.7265C46.6146 32.4202 40.8455 37.7049 41.0708 44.4602L42.1375 76.1839L545.886 91.2262Z" fill="#11A4EF"/>
<path d="M74.0785 55.9641C74.1837 59.3034 71.3742 61.9229 67.7986 61.8003C64.2079 61.6778 61.2031 58.8592 61.0829 55.5045C60.9778 52.1499 63.8022 49.5304 67.3929 49.6683C70.9836 49.8062 73.9733 52.6247 74.0785 55.9641Z" fill="#E9ECEF"/>
<path d="M101.979 56.9602C102.084 60.2842 99.3197 62.873 95.7891 62.7505C92.2585 62.6279 89.2989 59.8247 89.1787 56.5006C89.0735 53.1613 91.8529 50.5725 95.3835 50.7103C98.9291 50.8482 101.874 53.6514 101.979 56.9602Z" fill="#E9ECEF"/>
<path d="M129.442 57.9395C129.548 61.2329 126.828 63.8063 123.358 63.6838C119.872 63.5612 116.958 60.7887 116.853 57.48C116.747 54.1713 119.482 51.5979 122.967 51.7358C126.438 51.8736 129.337 54.6462 129.442 57.9395Z" fill="#E9ECEF"/>
<path d="M247.681 202.833C243.985 202.833 240.89 199.876 240.785 196.231L237.945 106.789C237.885 105.042 238.516 103.403 239.718 102.163C240.965 100.876 242.723 100.187 244.541 100.233L366.925 103.22C370.38 103.312 373.295 106.237 373.4 109.776L376.029 195.725C376.074 197.441 375.473 199.065 374.316 200.29C373.16 201.515 371.582 202.189 369.899 202.205L247.741 202.833C247.696 202.833 247.696 202.833 247.681 202.833ZM244.36 101.81C242.993 101.81 241.731 102.331 240.8 103.281C239.898 104.2 239.433 105.425 239.478 106.743L242.317 196.185C242.407 198.988 244.811 201.27 247.681 201.27C247.696 201.27 247.696 201.27 247.711 201.27L369.869 200.642C371.146 200.642 372.318 200.121 373.19 199.218C374.061 198.299 374.512 197.088 374.467 195.786L371.838 109.837C371.747 107.126 369.524 104.874 366.865 104.813L244.481 101.826C244.451 101.81 244.406 101.81 244.36 101.81Z" fill="#F4F7FA"/>
<path d="M510.478 201.256L398.716 201.838C395.696 201.853 393.187 199.356 393.082 196.246L390.483 110.772C390.393 107.662 392.767 105.211 395.786 105.288L507.744 108.03C510.553 108.091 512.897 110.573 512.987 113.56L515.391 195.833C515.481 198.805 513.288 201.24 510.478 201.256Z" fill="#D8DEE8"/>
<path d="M512.461 200.428L400.698 201.01C397.679 201.026 395.17 198.529 395.064 195.419L392.465 109.945C392.375 106.835 394.749 104.384 397.769 104.461L509.726 107.203C512.536 107.264 514.879 109.745 514.97 112.732L517.373 195.006C517.464 197.993 515.27 200.413 512.461 200.428Z" fill="#F4F7FA"/>
<path d="M394.24 168.674L394.315 171.155L517.751 171.646L517.676 169.256L394.24 168.674Z" fill="white"/>
<path d="M439.94 183.655H409.066C408.856 183.655 408.69 183.487 408.69 183.272L408.57 179.106C408.57 178.891 408.721 178.723 408.931 178.723L439.805 178.769C440 178.769 440.165 178.937 440.18 179.152L440.301 183.287C440.301 183.487 440.135 183.655 439.94 183.655Z" fill="#FEC245"/>
<path d="M477.425 192.846L409.367 193.029C409.157 193.029 408.991 192.861 408.991 192.646L408.871 188.48C408.871 188.266 409.021 188.097 409.232 188.097L477.305 188.021C477.5 188.021 477.665 188.189 477.665 188.388L477.785 192.478C477.77 192.677 477.62 192.846 477.425 192.846Z" fill="#D8DEE8"/>
<path d="M410.642 156.236C410.447 156.236 410.251 156.19 410.071 156.083C409.515 155.761 409.32 155.041 409.635 154.475C417.583 140.305 426.672 132.646 436.648 131.696C442.958 131.099 447.826 133.412 452.528 135.649C456.765 137.671 461.152 139.754 466.831 139.907C477.287 140.167 487.924 133.611 498.426 120.33C498.832 119.825 499.553 119.748 500.049 120.147C500.544 120.56 500.619 121.295 500.229 121.801C489.261 135.679 478.024 142.572 466.786 142.251C460.626 142.082 456.029 139.892 451.567 137.762C446.939 135.557 442.582 133.473 436.888 134.009C427.709 134.883 419.22 142.143 411.664 155.608C411.438 156.022 411.047 156.236 410.642 156.236Z" fill="url(#paint1_linear_1272_46020)"/>
<path d="M472.751 141.18C472.826 143.784 470.888 145.867 468.409 145.837C465.93 145.806 463.857 143.677 463.781 141.057C463.706 138.453 465.659 136.37 468.138 136.401C470.602 136.447 472.675 138.591 472.751 141.18Z" fill="white"/>
<path d="M468.468 146.433C468.452 146.433 468.422 146.433 468.407 146.433C465.613 146.402 463.284 143.997 463.194 141.087C463.149 139.632 463.66 138.284 464.621 137.288C465.538 136.338 466.755 135.817 468.062 135.817C468.092 135.817 468.107 135.817 468.137 135.817C470.916 135.863 473.245 138.253 473.335 141.163C473.38 142.619 472.869 143.967 471.908 144.962C470.991 145.912 469.775 146.433 468.468 146.433ZM468.062 137.012C467.07 137.012 466.139 137.41 465.463 138.115C464.727 138.881 464.336 139.923 464.366 141.041C464.441 143.323 466.259 145.207 468.422 145.238C469.429 145.269 470.376 144.855 471.082 144.12C471.818 143.354 472.208 142.312 472.178 141.194C472.103 138.912 470.3 137.027 468.137 136.997C468.107 137.012 468.077 137.012 468.062 137.012Z" fill="#9380BB"/>
<path d="M447.12 120.698L407.667 119.917L407.457 112.947L446.91 113.805L447.12 120.698Z" fill="#D8DEE8"/>
<path d="M490.615 151.932L475.08 151.779L474.93 146.556L490.464 146.739L490.615 151.932Z" fill="#AE84BB"/>
<path d="M218.145 318.837L84.2376 324.045C80.6168 324.183 77.582 321.548 77.4768 318.147L74.3669 224.508C74.2467 221.107 77.1163 218.32 80.737 218.289L214.9 217.048C218.25 217.017 221.059 219.637 221.165 222.9L224.034 312.709C224.124 315.957 221.495 318.699 218.145 318.837Z" fill="#D8DEE8"/>
<path d="M220.127 318.009L86.22 323.218C82.5993 323.355 79.5645 320.721 79.4593 317.32L76.3493 223.681C76.2292 220.28 79.0987 217.492 82.7194 217.462L216.882 216.221C220.232 216.19 223.042 218.81 223.147 222.072L226.017 311.882C226.107 315.13 223.478 317.887 220.127 318.009Z" fill="#F4F7FA"/>
<path d="M225.973 282.364L78.3789 286.577L78.469 289.303L226.063 284.968L225.973 282.364Z" fill="white"/>
<path d="M212.603 255.91L93.9753 258.376L92.9688 228.368L211.672 226.897L212.603 255.91Z" fill="#D8DEE8"/>
<path d="M213.115 271.763L94.5168 274.766L94.1562 264.181L212.784 261.516L213.115 271.763Z" fill="#D8DEE8"/>
<path d="M133.171 301.114L95.551 302.354C95.3106 302.37 95.1003 302.186 95.1003 301.956L94.95 297.391C94.935 297.162 95.1303 296.962 95.3857 296.962L133.005 295.768C133.246 295.768 133.441 295.936 133.456 296.166L133.606 300.685C133.591 300.914 133.411 301.114 133.171 301.114Z" fill="url(#paint2_linear_1272_46020)"/>
<path d="M168.434 310.028L95.8987 312.647C95.6583 312.663 95.4479 312.479 95.4479 312.249L95.2977 307.684C95.2827 307.455 95.478 307.256 95.7334 307.256L168.283 304.759C168.524 304.743 168.719 304.927 168.719 305.157L168.869 309.63C168.854 309.829 168.674 310.013 168.434 310.028Z" fill="#D8DEE8"/>
<path d="M220.111 196.736C220.217 199.999 217.587 202.664 214.222 202.68L80.0294 203.369C76.3936 203.384 73.3588 200.642 73.2536 197.242L70.1286 103.403C70.0085 99.9875 72.878 97.3069 76.5138 97.3988L210.962 100.677C214.327 100.753 217.137 103.48 217.242 106.743L220.111 196.736Z" fill="#D8DEE8"/>
<path d="M222.305 196.017C222.41 199.279 219.781 201.945 216.415 201.96L82.2227 202.649C78.5869 202.665 75.5521 199.923 75.447 196.522L72.322 102.684C72.2018 99.2678 75.0714 96.5871 78.7071 96.6791L213.155 99.9571C216.521 100.034 219.33 102.76 219.435 106.023L222.305 196.017Z" fill="#F4F7FA"/>
<path d="M222.29 167.97L74.3652 167.28L74.4554 169.992L222.365 170.589L222.29 167.97Z" fill="white"/>
<path d="M143.145 97.583L145.488 169.455L148.283 169.471L145.939 97.6443L143.145 97.583Z" fill="white"/>
<path d="M131.995 140.871L90.0481 140.35L88.9062 105.977L130.883 106.896L131.995 140.871Z" fill="#D8DEE8"/>
<path d="M132.597 159.406L90.681 159.115L90.2754 146.998L132.207 147.427L132.597 159.406Z" fill="#D8DEE8"/>
<path d="M112.256 183.608H91.6135C91.3731 183.608 91.1628 183.425 91.1628 183.195L91.0125 178.615C90.9975 178.385 91.1928 178.201 91.4482 178.201L112.106 178.232C112.346 178.232 112.557 178.416 112.557 178.645L112.707 183.195C112.692 183.425 112.497 183.608 112.256 183.608Z" fill="url(#paint3_linear_1272_46020)"/>
<path d="M142.636 193.749L91.9455 193.902C91.7051 193.902 91.4948 193.718 91.4948 193.488L91.3446 188.908C91.3295 188.678 91.5248 188.494 91.7802 188.494L142.471 188.464C142.711 188.464 142.906 188.648 142.906 188.877L143.057 193.35C143.057 193.565 142.876 193.749 142.636 193.749Z" fill="#D8DEE8"/>
<path d="M171.357 158.84L159.683 158.748L158.016 107.479L169.704 107.739L171.357 158.84Z" fill="white"/>
<path d="M190.751 158.979L179.198 158.902L177.561 107.908L189.114 108.169L190.751 158.979Z" fill="white"/>
<path d="M209.922 159.115L198.503 159.039L196.881 108.336L208.299 108.581L209.922 159.115Z" fill="white"/>
<path d="M171.357 158.84L159.684 158.748L158.812 132.141L170.501 132.309L171.357 158.84Z" fill="url(#paint4_linear_1272_46020)"/>
<path d="M190.753 158.978L179.199 158.901L177.938 119.748L189.491 119.963L190.753 158.978Z" fill="url(#paint5_linear_1272_46020)"/>
<path d="M209.922 159.116L198.504 159.039L197.393 124.589L208.826 124.788L209.922 159.116Z" fill="url(#paint6_linear_1272_46020)"/>
<path d="M513.588 307.348L402.051 311.683C399.046 311.806 396.522 309.386 396.432 306.291L393.848 220.985C393.758 217.891 396.117 215.348 399.137 215.317L510.869 214.276C513.678 214.245 516.007 216.65 516.097 219.622L518.501 301.742C518.576 304.744 516.382 307.241 513.588 307.348Z" fill="#D8DEE8"/>
<path d="M515.57 306.537L404.034 310.872C401.029 310.994 398.505 308.574 398.415 305.48L395.831 220.173C395.74 217.079 398.099 214.536 401.119 214.506L512.851 213.464C515.661 213.434 517.989 215.838 518.079 218.81L520.483 300.93C520.573 303.917 518.38 306.414 515.57 306.537Z" fill="#F4F7FA"/>
<path d="M397.559 277.463L397.634 279.929L520.829 276.329L520.754 273.939L397.559 277.463Z" fill="white"/>
<path d="M433.347 291.173L412.343 291.862C412.133 291.862 411.968 291.709 411.968 291.495L411.848 287.328C411.848 287.114 411.998 286.945 412.208 286.93L433.212 286.271C433.407 286.271 433.587 286.425 433.587 286.639L433.707 290.775C433.707 290.989 433.542 291.173 433.347 291.173Z" fill="#11CDEF"/>
<path d="M455.567 299.69L412.629 301.237C412.418 301.237 412.253 301.084 412.253 300.869L412.133 296.703C412.133 296.488 412.283 296.32 412.493 296.304L455.431 294.818C455.627 294.818 455.792 294.972 455.807 295.186L455.927 299.291C455.927 299.506 455.762 299.674 455.567 299.69Z" fill="#D8DEE8"/>
<path d="M415.513 268.196L409.023 268.365L407.73 225.52L414.221 225.443L415.513 268.196Z" fill="white"/>
<path d="M425.128 267.95L418.683 268.119L417.391 225.397L423.851 225.32L425.128 267.95Z" fill="white"/>
<path d="M434.699 267.706L428.284 267.859L426.992 225.275L433.422 225.198L434.699 267.706Z" fill="white"/>
<path d="M444.194 267.46L437.824 267.613L436.547 225.152L442.932 225.075L444.194 267.46Z" fill="white"/>
<path d="M453.643 267.216L447.303 267.369L446.041 225.045L452.381 224.953L453.643 267.216Z" fill="white"/>
<path d="M463.047 266.971L456.737 267.124L455.475 224.923L461.785 224.831L463.047 266.971Z" fill="white"/>
<path d="M472.377 266.726L466.112 266.894L464.865 224.8L471.13 224.724L472.377 266.726Z" fill="white"/>
<path d="M481.664 266.481L475.429 266.65L474.197 224.678L480.432 224.602L481.664 266.481Z" fill="white"/>
<path d="M490.904 266.251L484.699 266.404L483.467 224.555L489.657 224.479L490.904 266.251Z" fill="white"/>
<path d="M500.066 266.005L493.906 266.174L492.674 224.448L498.849 224.371L500.066 266.005Z" fill="white"/>
<path d="M509.2 265.775L503.07 265.929L501.854 224.325L507.983 224.248L509.2 265.775Z" fill="white"/>
<path d="M415.514 268.195L409.024 268.364L408.348 246.122L414.853 245.999L415.514 268.195Z" fill="#11CDEF"/>
<path d="M425.128 267.951L418.683 268.119L417.691 235.308L424.152 235.216L425.128 267.951Z" fill="#11CDEF"/>
<path d="M434.697 267.705L428.282 267.859L427.41 238.923L433.825 238.815L434.697 267.705Z" fill="#11CDEF"/>
<path d="M444.193 267.46L437.823 267.614L436.951 238.448L443.321 238.341L444.193 267.46Z" fill="#11CDEF"/>
<path d="M453.643 267.215L447.303 267.368L446.342 234.863L452.682 234.756L453.643 267.215Z" fill="#11CDEF"/>
<path d="M463.049 266.97L456.739 267.123L455.883 238.448L462.193 238.341L463.049 266.97Z" fill="#11CDEF"/>
<path d="M472.379 266.725L466.114 266.893L465.197 235.905L471.462 235.798L472.379 266.725Z" fill="#11CDEF"/>
<path d="M481.663 266.479L475.428 266.648L474.617 238.846L480.837 238.738L481.663 266.479Z" fill="#11CDEF"/>
<path d="M490.904 266.25L484.699 266.403L483.857 237.972L490.062 237.865L490.904 266.25Z" fill="#11CDEF"/>
<path d="M500.069 266.005L493.909 266.173L492.963 234.128L499.138 234.036L500.069 266.005Z" fill="#11CDEF"/>
<path d="M509.204 265.775L503.074 265.928L502.188 235.813L508.317 235.721L509.204 265.775Z" fill="#11CDEF"/>
<path d="M373.07 312.802L251.167 317.535C247.877 317.658 245.112 315.146 245.022 311.914L242.183 222.656C242.078 219.408 244.677 216.758 247.967 216.728L370.095 215.594C373.16 215.563 375.714 218.076 375.805 221.185L378.419 306.966C378.524 310.076 376.12 312.695 373.07 312.802Z" fill="#D8DEE8"/>
<path d="M375.068 311.99L253.165 316.723C249.875 316.846 247.11 314.334 247.02 311.101L244.181 221.843C244.076 218.596 246.675 215.946 249.965 215.915L372.094 214.782C375.158 214.751 377.712 217.263 377.803 220.373L380.417 306.154C380.507 309.248 378.118 311.867 375.068 311.99Z" fill="#F4F7FA"/>
<path d="M380.477 277.969L246.074 281.814L246.164 284.402L380.552 280.466L380.477 277.969Z" fill="white"/>
<path d="M303.436 295.477L262.962 296.825C262.737 296.825 262.556 296.657 262.541 296.442L262.406 292.092C262.406 291.877 262.571 291.694 262.797 291.678L303.271 290.392C303.481 290.392 303.677 290.56 303.677 290.775L303.812 295.079C303.827 295.293 303.662 295.477 303.436 295.477Z" fill="#AE84BB"/>
<path d="M336.186 303.979L263.29 306.598C263.065 306.614 262.885 306.43 262.87 306.216L262.734 301.865C262.734 301.651 262.9 301.467 263.125 301.452L336.036 298.939C336.246 298.939 336.426 299.093 336.426 299.307L336.561 303.565C336.561 303.795 336.396 303.979 336.186 303.979Z" fill="#D8DEE8"/>
<path d="M258.048 256.799C257.883 256.799 257.702 256.768 257.552 256.676C256.981 256.385 256.741 255.68 257.011 255.098C261.263 246.137 266.206 241.251 271.675 240.592C275.055 240.194 277.594 241.465 280.058 242.706C282.672 244.023 285.136 245.264 288.757 244.805C291.521 244.452 292.843 243.395 294.511 242.047C296.224 240.669 298.162 239.106 301.918 238.08C306.004 236.946 308.543 237.483 311.488 238.095C313.636 238.54 316.085 239.06 319.691 238.968C324.784 238.861 327.488 237.712 330.929 236.257C333.437 235.2 336.292 233.99 340.559 233.01C347.996 231.294 356.003 231.172 364.372 232.642C365.003 232.749 365.423 233.362 365.318 234.005C365.213 234.649 364.612 235.078 363.981 234.97C355.913 233.546 348.206 233.668 341.07 235.307C336.998 236.242 334.234 237.406 331.815 238.432C328.299 239.918 325.265 241.205 319.751 241.327C315.89 241.404 313.321 240.868 311.037 240.408C308.273 239.842 306.094 239.382 302.534 240.362C299.243 241.266 297.576 242.614 295.953 243.916C294.15 245.371 292.453 246.735 289.042 247.164C284.73 247.7 281.711 246.183 279.036 244.835C276.678 243.656 274.649 242.629 271.945 242.951C267.303 243.518 262.976 247.96 259.1 256.14C258.889 256.554 258.469 256.799 258.048 256.799Z" fill="url(#paint7_linear_1272_46020)"/>
<path d="M365.74 267.752L324.259 268.809L323.703 251.147L365.199 250.305L365.74 267.752Z" fill="#D8DEE8"/>
<path d="M282.642 230.314L260.872 230.605C260.647 230.605 260.467 230.437 260.452 230.207L260.316 225.841C260.316 225.627 260.482 225.443 260.707 225.443L282.477 225.183C282.702 225.183 282.882 225.351 282.882 225.566L283.017 229.9C283.032 230.146 282.867 230.314 282.642 230.314Z" fill="#D8DEE8"/>
</g>
<path d="M415.373 215.486L292.584 208.946C289.173 208.762 286.995 205.913 287.746 202.589L308.268 111.523C309.005 108.245 312.325 105.886 315.675 106.238L436.031 119.12C438.961 119.427 440.793 122.169 440.147 125.232L421.999 210.156C421.308 213.265 418.363 215.655 415.373 215.486Z" fill="#D8DEE8"/>
<path d="M416.905 215.9L294.251 209.343C290.841 209.16 288.677 206.356 289.413 203.063L309.816 113.361C310.552 110.129 313.857 107.8 317.207 108.152L437.428 120.958C440.358 121.265 442.19 123.961 441.544 126.978L423.486 210.63C422.84 213.709 419.88 216.068 416.905 215.9Z" fill="url(#paint8_linear_1272_46020)"/>
<path d="M429.21 184.406L295.814 174.894L295.213 177.498L428.684 186.842L429.21 184.406Z" fill="white"/>
<path d="M391.758 116.117L377.125 182.49L379.619 182.659L394.207 116.378L391.758 116.117Z" fill="white"/>
<path d="M357.381 194.73L309.139 191.697C308.914 191.682 308.764 191.498 308.824 191.268L309.815 186.887C309.86 186.673 310.086 186.504 310.311 186.52L358.493 189.69C358.703 189.706 358.853 189.89 358.793 190.104L357.847 194.378C357.817 194.577 357.606 194.745 357.381 194.73Z" fill="#AE84BB"/>
<path d="M367.956 205.1L306.915 201.577C306.689 201.561 306.539 201.378 306.584 201.148L307.576 196.751C307.621 196.537 307.846 196.368 308.087 196.384L369.068 200.075C369.279 200.091 369.414 200.275 369.369 200.489L368.422 204.748C368.377 204.947 368.167 205.1 367.956 205.1Z" fill="#D8DEE8"/>
<path d="M431.314 142.848L395.979 139.524L399.088 125.324L434.334 128.909L431.314 142.848Z" fill="#D8DEE8"/>
<path d="M424.029 176.548L388.438 173.867L394.642 145.59L430.038 148.791L424.029 176.548Z" fill="#D8DEE8"/>
<path d="M346.051 135.603C351.76 136.139 355.366 141.117 354.119 146.724C353.773 148.301 353.067 149.757 352.121 151.028L362.908 157.599C365.011 154.72 366.559 151.426 367.355 147.888C370.179 135.143 362.021 123.747 349.011 122.429C348.981 122.429 348.936 122.429 348.906 122.414L345.961 135.587C345.991 135.603 346.021 135.588 346.051 135.603Z" fill="white"/>
<path d="M352.122 151.013C349.688 154.291 345.616 156.359 341.485 156.022C335.716 155.547 332.035 150.538 333.312 144.87C334.574 139.249 340.253 135.113 345.962 135.587L348.907 122.414C335.746 121.143 322.54 130.64 319.595 143.66C316.635 156.757 325.199 168.261 338.51 169.272C348.02 169.992 357.395 165.151 362.894 157.584L352.122 151.013Z" fill="url(#paint9_linear_1272_46020)"/>
<path opacity="0.47" d="M298.156 154.352C296.473 155.899 302.573 169.409 313.57 180.009C324.718 190.747 333.101 190.992 341.815 203.768C346.021 209.941 344.504 210.523 347.779 214.965C360.625 232.351 394.443 237.605 408.07 224.202C409.497 222.793 412.682 216.589 419.052 204.166C419.773 202.757 423.079 196.262 426.309 187.347C429.118 179.611 430.651 175.23 429.133 173.989C426.023 171.447 415.236 185.279 408.07 182.108C403.548 180.101 405.846 172.534 399.852 167.188C395.014 162.853 388.404 163.068 386.691 163.129C371.757 163.619 370.075 180.392 356.072 183.548C344.429 186.167 332.109 177.604 314.081 165.09C304.451 158.396 299.387 153.218 298.156 154.352Z" fill="#D8DEE8"/>
<path d="M300.592 159.973L297.512 156.833C297.512 156.833 295.199 153.785 296.746 149.465C298.293 145.145 300.412 146.325 300.412 146.325L299.841 149.373C299.841 149.373 299.45 151.334 301.283 153.785C302.921 156.726 303.206 158.993 303.206 158.993L300.592 159.973Z" fill="url(#paint10_linear_1272_46020)"/>
<path d="M428.88 172.227L432.35 169.026L433.898 163.205C433.898 163.205 438.135 164.905 435.821 170.405C434.349 172.243 430.713 174.985 429.18 177.665C427.618 180.346 428.88 172.227 428.88 172.227Z" fill="url(#paint11_linear_1272_46020)"/>
<path d="M394.714 211.304C394.714 211.304 411.345 200.827 415.386 197.105C419.608 193.214 430.696 178.248 431.657 176.487C432.619 174.725 428.667 171.187 428.667 171.187C428.667 171.187 409.347 195.803 385.068 188.526C388.945 197.365 394.714 211.304 394.714 211.304Z" fill="#324CDD"/>
<path d="M397.137 355.937C397.137 355.937 400.187 363.765 399.39 367.227C402.665 367.166 404.784 366.737 404.784 366.737C404.784 366.737 403.462 363.168 403.206 361.406C402.861 359.016 402.891 355.156 402.891 355.156L397.137 355.937Z" fill="url(#paint12_linear_1272_46020)"/>
<path d="M363.511 374.242C363.706 374.487 364.052 374.993 364.082 375.682C364.097 376.05 364.007 376.356 363.902 376.647C363.376 378.041 362.564 378.225 361.678 379.711C361.137 380.615 361.242 380.89 360.747 381.304C360.101 381.84 359.304 381.871 358.628 381.886C357.471 381.901 355.819 381.856 353.73 381.61C354.827 380.171 355.984 378.715 357.231 377.229C357.772 376.586 358.313 375.958 358.854 375.33L362.069 374.227C362.564 374.212 363.03 374.227 363.511 374.242Z" fill="#26274F"/>
<path d="M360.837 358.312C360.837 358.312 359.004 368.1 361.333 370.842C363.331 373.584 360.372 371.623 360.372 371.623L356.841 374.763L354.723 378.501C354.723 378.501 356.676 368.927 356.15 365.128C355.624 361.329 355.369 358.771 355.369 358.771L360.837 358.312Z" fill="url(#paint13_linear_1272_46020)"/>
<path d="M369.939 188.449C360.985 186.902 348.17 191.528 333.341 183.532C318.753 175.674 310.145 164.063 305.127 156.634C302.948 157.737 300.77 158.84 298.576 159.927C302.287 166.453 311.016 180.423 322.584 190.15C337.142 202.404 351.4 203.109 359.152 213.111C362.803 209.45 374.311 189.215 369.939 188.449Z" fill="#324CDD"/>
<path d="M353.896 251.269C353.896 251.269 348.953 255.773 348.953 274.338C348.953 292.904 351.297 333.206 351.297 333.206L355.038 362.065C355.038 362.065 358.929 362.203 361.528 361.406C363.872 350.53 367.688 332.149 365.87 316.754C365.089 300.042 372.375 279.102 372.375 279.102C372.375 279.102 378.61 300.318 383.042 310.918C387.474 321.518 395.888 354.758 396.669 357.148C401.837 357.623 404.045 356.229 404.045 356.229C404.045 356.229 400.725 320.461 397.6 306.95C394.475 293.425 394.746 260.812 389.532 251.53C377.829 246.75 353.896 251.269 353.896 251.269Z" fill="url(#paint14_linear_1272_46020)"/>
<path d="M353.896 251.269C353.896 251.269 348.953 255.773 348.953 274.338C348.953 292.904 351.297 333.206 351.297 333.206L355.038 362.065C355.038 362.065 358.914 362.203 361.528 361.406C363.872 350.53 367.688 332.149 365.87 316.754C365.089 300.042 372.375 279.102 372.375 279.102C372.375 279.102 378.61 300.318 383.042 310.918C387.459 321.518 395.888 354.758 396.669 357.148C401.837 357.623 404.045 356.229 404.045 356.229C404.045 356.229 400.725 320.461 397.6 306.95C394.475 293.425 394.746 260.812 389.532 251.53C377.829 246.75 353.896 251.269 353.896 251.269Z" fill="#163088"/>
<path opacity="0.25" d="M379.571 285.275C381.118 295.492 384.198 300.991 391.906 308.053C398.065 312.771 393.453 322.972 395.752 330.831C396.518 333.19 398.832 335.549 399.598 337.908C402.467 343.759 399.793 350.913 401.085 357.101C403.113 356.81 404.03 356.243 404.03 356.243C404.03 356.243 400.71 320.476 397.585 306.965C394.46 293.439 394.73 260.827 389.517 251.544C377.813 246.765 353.88 251.284 353.88 251.284C353.88 251.284 348.938 255.787 348.938 274.353C348.938 275.854 348.953 277.508 348.983 279.27C354.106 283.896 364.607 284.922 371.083 279.791C371.473 279.485 371.894 279.316 372.315 279.224C372.33 279.163 372.345 279.132 372.345 279.132C372.345 279.132 372.36 279.163 372.375 279.224C375.334 278.657 378.895 282.548 379.571 285.275Z" fill="#3150BC"/>
<path d="M398.575 370.198C398.575 370.198 397.809 370.198 397.884 371.194C397.959 372.19 397.539 375.636 401.4 375.805C405.261 375.973 405.862 375.529 405.982 375.529C406.102 375.529 404.975 372.236 404.975 372.236L403.743 370.627L400.423 370.275L398.575 370.198Z" fill="#26274F"/>
<path d="M407.138 373.66C407.063 372.833 406.598 371.516 406.147 370.474C405.471 368.912 406.027 368.33 405.366 366.905C405.14 366.415 404.915 365.94 404.449 365.481C404.344 365.373 403.277 364.362 401.715 364.424C401.414 364.439 400.934 364.454 400.438 364.73C399.837 365.052 399.536 365.542 399.281 365.971C398.875 366.645 398.965 366.859 398.349 368.789C398.304 368.942 398.184 369.279 398.109 369.754C398.049 370.107 398.019 370.413 398.004 370.612C399.011 370.612 402.917 370.781 403.743 371.393C404.569 372.006 404.975 373.048 404.975 374.074C404.975 375.1 405.486 375.59 405.982 375.56C406.432 375.499 407.334 374.641 407.138 373.66Z" fill="#454C8D"/>
<path d="M360.341 369.463C361.212 369.478 361.843 370.183 362.324 371.883C362.805 373.584 365.118 375.085 362.414 374.732C359.725 374.365 357.757 378.271 356.795 379.711C355.834 381.151 353.25 382.437 353.31 381.028C353.37 379.619 354.512 378.96 354.842 377.52C355.173 376.065 358.358 369.432 360.341 369.463Z" fill="#454C8D"/>
<path d="M378.671 187.868C374.299 187.73 363.197 186.504 357.998 191.789C352.68 197.196 358.058 203.706 357.112 212.622C356.466 218.672 356.691 222.241 355.564 232.121C355.339 234.143 354.964 236.395 354.333 239.137C352.845 245.586 350.261 258.269 348.879 261.425C353.326 263.753 364.789 267.92 378.446 265.852C384.681 264.902 389.669 262.788 393.184 260.904C389.638 249.967 390.3 234.986 391.622 229.594C394.206 218.948 394.792 214.766 402.123 199.448C404.136 195.22 399.344 197.595 396.279 193.888C391.562 188.205 383.073 188.005 378.671 187.868Z" fill="#324CDD"/>
<path d="M372.314 174.694C372.945 169.715 376.806 166.529 377.647 165.855C381.163 163.006 381.884 162.715 383.101 162.485L384.753 162.225C384.753 162.225 384.843 162.225 384.934 162.24C385.895 162.301 388.795 163.45 389.321 163.833C391.003 165.043 389.771 173.591 384.663 184.221C384.468 185.125 384.258 186.029 384.062 186.917C388.509 187.714 389.606 188.526 389.651 189.184C389.726 190.594 384.859 192.401 380.336 192.524C374.672 192.677 368.663 190.18 368.783 188.327C368.828 187.576 369.895 186.657 374.011 185.738C374.657 184.819 375.288 183.9 375.934 182.981C375.348 182.261 371.848 178.355 372.314 174.694Z" fill="url(#paint15_linear_1272_46020)"/>
<path d="M383.102 158.977C381.329 160.739 380.893 163.818 381.419 166.039C381.735 167.372 382.14 167.509 382.08 168.367C381.915 170.803 377.558 171.86 377.798 173.101C377.979 173.974 380.232 173.652 380.623 174.755C381.044 175.965 378.565 177.007 377.498 180.04C377.333 180.515 376.326 183.379 377.618 185.079C378.835 186.657 381.539 186.289 384.604 185.876C387.985 185.432 390.403 184.405 391.11 184.099C393.348 183.103 395.737 182.031 397.735 179.549C398.201 178.967 400.98 175.414 400.74 170.466C400.439 163.956 395.091 158.395 389.607 157.507C388.706 157.354 385.28 156.802 383.102 158.977Z" fill="black"/>
<path d="M379.314 172.825C380.591 172.044 381.582 173.729 380.966 175.199C380.365 176.67 378.322 177.589 377.09 176.716C375.873 175.827 377.586 173.866 379.314 172.825Z" fill="url(#paint16_linear_1272_46020)"/>
<path d="M366.379 188.066L369.504 187.086C369.504 187.086 370.315 191.406 380.381 191.942C385.97 191.942 389.576 188.756 389.576 188.756L391.979 189.889C391.979 189.889 387.022 196.323 379.555 196.169C369.94 195.97 366.379 188.066 366.379 188.066Z" fill="#525F7F"/>
<defs>
<filter id="filter0_d_1272_46020" x="0" y="0.713867" width="600.428" height="397.898" filterUnits="userSpaceOnUse" color-interpolation-filters="sRGB">
<feFlood flood-opacity="0" result="BackgroundImageFix"/>
<feColorMatrix in="SourceAlpha" type="matrix" values="0 0 0 0 0 0 0 0 0 0 0 0 0 0 0 0 0 0 127 0" result="hardAlpha"/>
<feOffset dx="8" dy="8"/>
<feGaussianBlur stdDeviation="20"/>
<feColorMatrix type="matrix" values="0 0 0 0 0 0 0 0 0 0 0 0 0 0 0 0 0 0 0.06 0"/>
<feBlend mode="normal" in2="BackgroundImageFix" result="effect1_dropShadow_1272_46020"/>
<feBlend mode="normal" in="SourceGraphic" in2="effect1_dropShadow_1272_46020" result="shape"/>
</filter>
<linearGradient id="paint0_linear_1272_46020" x1="257.475" y1="136.003" x2="303.189" y2="136.003" gradientUnits="userSpaceOnUse">
<stop stop-color="#F58F86"/>
<stop offset="1" stop-color="#ED72AC"/>
</linearGradient>
<linearGradient id="paint1_linear_1272_46020" x1="409.486" y1="138.075" x2="500.469" y2="138.075" gradientUnits="userSpaceOnUse">
<stop stop-color="#F58F86"/>
<stop offset="1" stop-color="#ED72AC"/>
</linearGradient>
<linearGradient id="paint2_linear_1272_46020" x1="94.9395" y1="299.066" x2="133.589" y2="299.066" gradientUnits="userSpaceOnUse">
<stop stop-color="#F58F86"/>
<stop offset="1" stop-color="#ED72AC"/>
</linearGradient>
<linearGradient id="paint3_linear_1272_46020" x1="91.0014" y1="180.896" x2="112.687" y2="180.896" gradientUnits="userSpaceOnUse">
<stop stop-color="#F58F86"/>
<stop offset="1" stop-color="#ED72AC"/>
</linearGradient>
<linearGradient id="paint4_linear_1272_46020" x1="147.256" y1="129.401" x2="199.612" y2="174.949" gradientUnits="userSpaceOnUse">
<stop stop-color="#F58F86"/>
<stop offset="1" stop-color="#ED72AC"/>
</linearGradient>
<linearGradient id="paint5_linear_1272_46020" x1="159.178" y1="116.665" x2="211.048" y2="161.79" gradientUnits="userSpaceOnUse">
<stop stop-color="#F58F86"/>
<stop offset="1" stop-color="#ED72AC"/>
</linearGradient>
<linearGradient id="paint6_linear_1272_46020" x1="166.895" y1="108.655" x2="218.42" y2="153.48" gradientUnits="userSpaceOnUse">
<stop stop-color="#F58F86"/>
<stop offset="1" stop-color="#ED72AC"/>
</linearGradient>
<linearGradient id="paint7_linear_1272_46020" x1="256.891" y1="244.213" x2="365.326" y2="244.213" gradientUnits="userSpaceOnUse">
<stop stop-color="#F58F86"/>
<stop offset="1" stop-color="#ED72AC"/>
</linearGradient>
<linearGradient id="paint8_linear_1272_46020" x1="250.364" y1="162.021" x2="445.056" y2="162.021" gradientUnits="userSpaceOnUse">
<stop stop-color="#E3E7EF"/>
<stop offset="1" stop-color="#FAFCFE"/>
</linearGradient>
<linearGradient id="paint9_linear_1272_46020" x1="319.405" y1="144.411" x2="363.428" y2="155.516" gradientUnits="userSpaceOnUse">
<stop stop-color="#F58F86"/>
<stop offset="1" stop-color="#ED72AC"/>
</linearGradient>
<linearGradient id="paint10_linear_1272_46020" x1="300.042" y1="153.672" x2="291.435" y2="162.792" gradientUnits="userSpaceOnUse">
<stop stop-color="#FFC546"/>
<stop offset="0.9964" stop-color="#F36F56"/>
</linearGradient>
<linearGradient id="paint11_linear_1272_46020" x1="430.67" y1="171.413" x2="417.694" y2="185.163" gradientUnits="userSpaceOnUse">
<stop stop-color="#FFC546"/>
<stop offset="0.9964" stop-color="#F36F56"/>
</linearGradient>
<linearGradient id="paint12_linear_1272_46020" x1="400.95" y1="369.066" x2="400.95" y2="354.824" gradientUnits="userSpaceOnUse">
<stop stop-color="#FFC546"/>
<stop offset="0.9964" stop-color="#F36F56"/>
</linearGradient>
<linearGradient id="paint13_linear_1272_46020" x1="358.373" y1="373.124" x2="358.373" y2="355.961" gradientUnits="userSpaceOnUse">
<stop stop-color="#FFC546"/>
<stop offset="0.9964" stop-color="#F36F56"/>
</linearGradient>
<linearGradient id="paint14_linear_1272_46020" x1="348.955" y1="305.703" x2="404.029" y2="305.703" gradientUnits="userSpaceOnUse">
<stop stop-color="#321944"/>
<stop offset="1" stop-color="#8A3A77"/>
</linearGradient>
<linearGradient id="paint15_linear_1272_46020" x1="387.06" y1="171.061" x2="370.743" y2="196.949" gradientUnits="userSpaceOnUse">
<stop stop-color="#FFC546"/>
<stop offset="0.9964" stop-color="#F36F56"/>
</linearGradient>
<linearGradient id="paint16_linear_1272_46020" x1="381.374" y1="167.518" x2="371.995" y2="195.715" gradientUnits="userSpaceOnUse">
<stop stop-color="#FFC546"/>
<stop offset="0.9964" stop-color="#F36F56"/>
</linearGradient>
</defs>
</svg>
