<svg width="116" height="116" viewBox="0 0 151 118" fill="none" xmlns="http://www.w3.org/2000/svg">
<path d="M64.1368 35.3233C58.7279 15.7054 34.3587 9.38642 20.3919 24.0488C20.1912 24.2599 19.9905 24.4744 19.7898 24.6925C-0.233017 46.4593 9.22468 100.094 51.0109 113.688C92.7971 127.281 136.262 102.458 138.701 80.2655C141.144 58.073 121.866 51.0999 91.9492 57.3082C75.0479 60.8103 67.5039 47.539 64.1368 35.3233Z" fill="#95C0D1"/>
<path d="M98.8935 38.6801C93.3013 39.5902 91.7544 44.5422 96.0697 48.0582C97.4955 49.2209 99.5337 50.1864 102.437 50.6674C113.497 52.5015 119.363 47.6083 114.93 41.2651C112.196 37.3512 104.437 37.7769 98.8935 38.6801Z" fill="#95C0D1"/>
<path d="M9.75328 78.3172C6.27888 73.8462 1.18841 74.8566 0.167548 80.3278C-0.168126 82.1376 -0.0400855 84.387 0.925409 87.1658C4.60744 97.7517 11.712 100.562 15.1621 93.6336C17.2869 89.3598 13.1965 82.7502 9.75328 78.3172Z" fill="#95C0D1"/>
<path d="M142.645 82.8437C142.13 85.5395 144.358 87.4497 146.877 86.4115C147.711 86.0689 148.552 85.4045 149.3 84.2417C152.151 79.8088 150.705 76.0056 146.739 76.3932C144.289 76.6355 143.154 80.1721 142.645 82.8437Z" fill="#95C0D1"/>
<path d="M128.512 54.3911C131.197 54.9517 133.145 52.7577 132.149 50.2177C131.82 49.3768 131.173 48.5255 130.02 47.7572C125.636 44.8331 121.808 46.2104 122.13 50.1866C122.331 52.6401 125.847 53.8374 128.512 54.3911Z" fill="#95C0D1"/>
<path d="M63.2018 25.5405C65.3301 27.2743 68.0674 26.2223 68.3511 23.5092C68.4446 22.6129 68.2612 21.5574 67.5933 20.3462C65.0463 15.7299 61.0148 15.1935 59.4713 18.872C58.5197 21.1422 61.0943 23.8206 63.2018 25.5405Z" fill="#95C0D1"/>
<path d="M40.214 33.6021L37.508 29.2062C38.9851 26.5913 39.4309 23.5185 38.7577 20.5916C38.0845 17.6647 36.341 15.0954 33.8699 13.3886C31.3988 11.6818 28.3787 10.9608 25.403 11.3674C22.4274 11.774 19.7114 13.2787 17.7887 15.5859C15.8661 17.8931 14.8758 20.8359 15.0125 23.8361C15.1491 26.8363 16.4029 29.6768 18.5274 31.7997C20.6518 33.9225 23.4934 35.174 26.4937 35.3084C29.494 35.4427 32.436 34.4502 34.7417 32.5257V32.5257L40.214 33.6021Z" fill="#F5F5F5"/>
<path d="M32.9098 27.8149C32.8396 27.8209 32.7691 27.8209 32.6989 27.8149L32.0963 27.8286L29.8779 27.8505L22.5678 27.8834H21.9707V27.8149C21.9707 25.076 21.9707 22.6302 21.9899 20.8472C21.9899 19.9707 22.0063 19.2614 22.0118 18.7519C22.0118 18.5164 22.0118 18.3274 22.0118 18.185C22.0042 18.1195 22.0042 18.0533 22.0118 17.9878C22.0158 18.0535 22.0158 18.1193 22.0118 18.185C22.0118 18.3274 22.0118 18.5164 22.0118 18.7519C22.0118 19.2614 22.0118 19.9707 22.0337 20.8472C22.0337 22.6302 22.0337 25.0815 22.0556 27.8149L21.9871 27.7464H22.5678L29.8833 27.7656L32.1018 27.7875H32.7044C32.7736 27.7892 32.8425 27.7984 32.9098 27.8149V27.8149Z" fill="#263238"/>
<path d="M22.5679 27.9519H21.9708C21.9535 27.9514 21.9369 27.9445 21.9243 27.9327C21.9175 27.9264 21.912 27.9188 21.9082 27.9103C21.9045 27.9018 21.9025 27.8927 21.9023 27.8834L21.9243 20.8472L21.9599 18.185C21.9599 17.955 21.9599 17.9111 22.042 17.9111C22.1242 17.9111 22.116 17.9467 22.1242 18.185L22.1406 19.3381L22.1571 20.85L22.179 27.6807H22.5679L29.8834 27.6999L32.7072 27.7355C32.951 27.7355 32.9811 27.7355 32.9811 27.8177C32.9811 27.8998 32.9483 27.8916 32.7072 27.8998L32.1047 27.9135L29.8862 27.9354L22.5679 27.9519ZM22.0475 27.6396V27.678V27.6396Z" fill="#009CF8"/>
<path d="M31.7025 20.3735C31.6017 20.4837 31.4937 20.5871 31.3793 20.683L30.4618 21.4883C29.6812 22.162 28.5993 23.0905 27.3997 24.1066L27.219 24.26L27.1724 24.2984L27.1258 24.2573L25.7564 22.9919H25.855L23.8556 24.6352L23.275 25.0981C23.209 25.1582 23.1364 25.2106 23.0586 25.2542C23.1165 25.1862 23.1807 25.1239 23.2503 25.068L23.7981 24.575L25.7646 22.8878L25.8084 22.8522L25.8495 22.8906L27.219 24.1477H27.1286L27.3093 23.9943C28.5117 22.9782 29.6018 22.0634 30.3988 21.4088L31.3328 20.6419C31.4478 20.5416 31.5715 20.4518 31.7025 20.3735V20.3735Z" fill="#263238"/>
<path d="M23.0457 25.3364C23.0293 25.3364 23.0156 25.3364 22.9992 25.3063C22.9828 25.2762 22.9773 25.2214 23.1964 25.0324L23.7442 24.5394L25.7545 22.8167C25.7674 22.8055 25.784 22.7993 25.8011 22.7993C25.8182 22.7993 25.8347 22.8055 25.8476 22.8167L27.176 24.0355L27.2636 23.9588C28.4277 22.9755 29.5232 22.0416 30.3531 21.3705L31.298 20.5982C31.6924 20.2832 31.7006 20.2805 31.7527 20.3243C31.8047 20.3845 31.7965 20.39 31.4212 20.7269L30.5037 21.5486C29.6821 22.2497 28.6057 23.1919 27.4417 24.1669L27.2143 24.3587C27.2018 24.3696 27.1858 24.3757 27.1691 24.3757C27.1525 24.3757 27.1364 24.3696 27.1239 24.3587L25.8011 23.1316L23.3114 25.1721C23.1526 25.2844 23.0868 25.3364 23.0457 25.3364ZM27.2746 24.1176L27.3513 24.0519L27.9429 23.548L27.3513 24.0492L27.2746 24.1176ZM27.0226 24.0683L27.0719 24.1149L27.0226 24.0683Z" fill="#009CF8"/>
<path d="M31.7015 22.6495C31.6625 22.4253 31.6469 22.1977 31.6549 21.9703C31.6412 21.5512 31.633 20.9678 31.633 20.3269L31.7015 20.3954H31.5837C30.9072 20.3954 30.2964 20.3954 29.8527 20.3762C29.6141 20.3795 29.3757 20.3602 29.1406 20.3187C29.3777 20.2796 29.618 20.2631 29.8582 20.2694C30.3019 20.2694 30.9127 20.2502 31.5892 20.2502H31.7754V20.3187C31.7754 20.9678 31.7754 21.5512 31.7535 21.962C31.7603 22.1924 31.7429 22.4228 31.7015 22.6495V22.6495Z" fill="#263238"/>
<path d="M31.7012 22.7178C31.6245 22.7178 31.6081 22.7178 31.5862 21.9729C31.5725 21.5675 31.567 21.0334 31.5643 20.4555C30.9179 20.4555 30.3099 20.4555 29.8497 20.4364C29.0664 20.4144 29.0664 20.398 29.0664 20.3186C29.0664 20.2392 29.0664 20.2227 29.8497 20.2008C30.3153 20.2008 30.9453 20.1816 31.5834 20.1816H31.7697C31.7878 20.1822 31.8052 20.189 31.819 20.2008C31.8254 20.2073 31.8304 20.215 31.8337 20.2234C31.837 20.2319 31.8385 20.241 31.8382 20.2501V20.3186C31.8382 20.9485 31.8382 21.5346 31.8162 21.9619C31.7971 22.7178 31.7806 22.7178 31.7012 22.7178Z" fill="#009CF8"/>
<path d="M73.6971 15.1805L88.7007 12.8881C89.1799 16.0238 88.6649 19.2308 87.228 22.0588C85.791 24.8868 83.5043 27.1936 80.6891 28.6554C77.8738 30.1171 74.6714 30.6602 71.5316 30.2086C68.3919 29.7569 65.4724 28.3331 63.1833 26.1371C60.8943 23.9411 59.3506 21.0832 58.769 17.9648C58.1875 14.8465 58.5973 11.6243 59.941 8.75085C61.2847 5.87738 63.4947 3.49697 66.2606 1.94395C69.0266 0.390929 72.2095 -0.256694 75.3624 0.0920375L73.6971 15.1805Z" fill="#18315B"/>
<path d="M78.5636 0.141357L76.7422 11.7734L88.1606 9.62884C88.1606 9.62884 86.4817 3.1103 78.5636 0.141357Z" fill="#009CF8"/>
<path d="M108.253 21.7839C108.227 19.7012 108.819 17.6575 109.954 15.9111C111.089 14.1646 112.716 12.7935 114.629 11.971C116.543 11.1485 118.657 10.9115 120.706 11.2898C122.754 11.6682 124.644 12.6449 126.137 14.0968C127.631 15.5486 128.661 17.4104 129.097 19.4471C129.533 21.4838 129.356 23.604 128.588 25.5401C127.82 27.4761 126.495 29.1412 124.781 30.3251C123.068 31.5089 121.042 32.1584 118.959 32.1916C116.16 32.2267 113.462 31.151 111.455 29.2001C109.448 27.2492 108.297 24.5823 108.253 21.7839V21.7839ZM123.829 21.5319C123.808 20.5364 123.493 19.5693 122.923 18.7527C122.353 17.9362 121.554 17.3067 120.627 16.9438C119.7 16.5808 118.686 16.5007 117.713 16.7135C116.741 16.9263 115.853 17.4225 115.162 18.1394C114.471 18.8563 114.008 19.7619 113.831 20.7418C113.654 21.7217 113.772 22.732 114.168 23.6452C114.565 24.5584 115.224 25.3336 116.061 25.8729C116.898 26.4122 117.876 26.6915 118.871 26.6755C120.21 26.6489 121.484 26.0925 122.413 25.1283C123.342 24.1641 123.852 22.8708 123.829 21.5319V21.5319Z" fill="#F5F5F5"/>
<path d="M108.254 21.784C108.204 18.9834 109.268 16.2778 111.212 14.2608C113.155 12.2438 115.82 11.0803 118.62 11.0256L118.702 16.55C117.359 16.5714 116.078 17.1258 115.143 18.0912C114.208 19.0565 113.695 20.3539 113.716 21.6977C113.738 23.0415 114.292 24.3218 115.257 25.2569C116.223 26.192 117.52 26.7052 118.864 26.6838L118.952 32.2081C116.151 32.2418 113.452 31.1631 111.447 29.2087C109.441 27.2544 108.293 24.5841 108.254 21.784V21.784Z" fill="#009CF8"/>
<path d="M117.676 10.1765C124.474 10.0669 129.897 15.342 130.001 22.1728L123.567 22.2769C123.515 19.0094 121.031 16.9552 117.78 17.0072L117.676 10.1765Z" fill="#18315B"/>
<path d="M86.196 103.915C86.196 103.915 86.0234 113.454 86.0234 116.993H116.118V106.93L115.165 104.284L114.823 102.137L86.196 103.915Z" fill="#263238"/>
<path d="M94.1293 116.609C94.0262 115.77 93.9705 114.925 93.9622 114.079C93.9077 113.234 93.8995 112.386 93.9376 111.54C94.0404 112.381 94.0961 113.226 94.1046 114.073C94.1591 114.918 94.1674 115.764 94.1293 116.609V116.609Z" fill="#455A64"/>
<path d="M95.1595 107.253C95.1595 107.253 95.2143 107.212 95.3348 107.196C95.5066 107.175 95.6808 107.204 95.836 107.281C95.9565 107.336 96.0615 107.42 96.1413 107.526C96.2212 107.631 96.2735 107.755 96.2934 107.886C96.3161 108.047 96.2908 108.21 96.2206 108.357C96.1504 108.503 96.0385 108.625 95.899 108.708C95.7495 108.78 95.5803 108.802 95.4172 108.77C95.2541 108.738 95.106 108.654 94.9952 108.53C94.8963 108.421 94.8416 108.279 94.8418 108.133C94.8415 108.008 94.8787 107.886 94.9486 107.782C94.9945 107.707 95.0554 107.642 95.1275 107.592C95.1996 107.541 95.2814 107.506 95.3677 107.489C95.4909 107.473 95.5566 107.503 95.5539 107.508C95.5512 107.514 95.4854 107.508 95.3813 107.544C95.2333 107.594 95.1092 107.697 95.0335 107.834C94.9756 107.928 94.9501 108.038 94.961 108.148C94.9719 108.258 95.0185 108.361 95.0938 108.442C95.1861 108.54 95.3071 108.606 95.4395 108.632C95.5718 108.657 95.7087 108.639 95.8305 108.582C95.9368 108.517 96.0239 108.425 96.083 108.315C96.142 108.205 96.171 108.082 96.1668 107.958C96.1626 107.833 96.1255 107.712 96.0592 107.607C95.9929 107.501 95.8998 107.415 95.7894 107.357C95.593 107.266 95.3751 107.23 95.1595 107.253V107.253Z" fill="#455A64"/>
<path d="M111.73 107.9C111.524 107.812 111.329 107.698 111.149 107.563C110.804 107.336 110.328 107.001 109.846 106.607C109.364 106.213 108.928 105.826 108.632 105.539C108.461 105.394 108.308 105.228 108.178 105.046C108.365 105.168 108.54 105.309 108.701 105.465C109.013 105.739 109.446 106.103 109.933 106.495C110.421 106.886 110.878 107.232 111.207 107.481C111.394 107.604 111.569 107.744 111.73 107.9V107.9Z" fill="#455A64"/>
<path d="M114.816 111.033C114.776 111.064 114.732 111.089 114.685 111.107L114.29 111.296L114.017 111.43C113.913 111.477 113.792 111.518 113.666 111.564C113.414 111.655 113.118 111.775 112.801 111.86L112.286 112.005C112.108 112.055 111.916 112.085 111.721 112.129C111.332 112.222 110.9 112.268 110.462 112.329C108.509 112.531 106.536 112.31 104.677 111.679C104.274 111.543 103.878 111.386 103.491 111.208C103.31 111.126 103.13 111.052 102.965 110.967L102.497 110.713C102.228 110.567 101.968 110.407 101.716 110.233C101.604 110.159 101.497 110.094 101.401 110.028C101.305 109.962 101.229 109.894 101.152 109.833L100.81 109.56C100.733 109.497 100.695 109.464 100.697 109.458C100.743 109.481 100.786 109.507 100.826 109.538L101.185 109.787L101.44 109.968C101.536 110.031 101.645 110.094 101.76 110.165C101.99 110.302 102.242 110.474 102.546 110.62L103.015 110.866C103.179 110.948 103.357 111.017 103.538 111.099C103.896 111.269 104.299 111.4 104.718 111.551C106.558 112.159 108.506 112.374 110.434 112.183C110.878 112.129 111.3 112.088 111.686 112C111.88 111.959 112.069 111.931 112.247 111.885L112.759 111.748C113.088 111.671 113.37 111.559 113.625 111.474C113.751 111.43 113.871 111.392 113.978 111.351L114.269 111.23L114.671 111.066C114.718 111.049 114.767 111.038 114.816 111.033V111.033Z" fill="#455A64"/>
<path d="M91.6218 39.7673C91.1506 39.7922 90.6867 39.6424 90.319 39.3466C89.9513 39.0508 89.7056 38.6298 89.629 38.1642C89.5523 37.6985 89.6501 37.221 89.9036 36.8229C90.1571 36.4249 90.5485 36.1343 91.0028 36.0068C90.7252 35.6931 90.5537 35.2999 90.5125 34.883C90.4713 34.4662 90.5627 34.047 90.7735 33.6851C90.9844 33.3231 91.304 33.0369 91.6869 32.8671C92.0698 32.6973 92.4965 32.6526 92.9063 32.7394C92.9444 32.3287 93.0882 31.9349 93.3239 31.5964C93.5595 31.2579 93.8789 30.9863 94.2508 30.8081C94.6227 30.6298 95.0345 30.5511 95.4459 30.5795C95.8574 30.6078 96.2544 30.7424 96.5983 30.97C97.0807 30.6158 97.6678 30.4333 98.266 30.4517C98.8642 30.4701 99.439 30.6882 99.8987 31.0714C100.301 31.0247 100.708 31.1067 101.061 31.3056C101.414 31.5044 101.694 31.8099 101.863 32.1783C102.031 32.5466 102.079 32.9588 101.999 33.3558C101.918 33.7529 101.714 34.1142 101.416 34.3882" fill="#18315B"/>
<path d="M91.3316 40.0194C91.5969 37.9928 92.6162 36.1406 94.1862 34.832C95.7562 33.5234 97.7617 32.8545 99.803 32.9586L100.225 32.9805C104.744 33.468 106.853 37.5818 106.237 42.0845L104.832 57.1484L104.755 57.8796L94.1937 59.4572L94.3991 55.6228C94.3991 55.6228 90.0635 54.7107 90.2169 50.3532C90.3045 48.247 90.8194 43.925 91.3316 40.0194Z" fill="#FFA681"/>
<path d="M94.352 55.598C96.3749 55.7004 98.3847 55.2194 100.142 54.2122C100.142 54.2122 98.6438 57.2797 94.3164 56.6772L94.352 55.598Z" fill="#5E483F"/>
<path d="M92.0537 43.4429C92.0446 43.6046 92.0985 43.7635 92.2043 43.8862C92.3101 44.0088 92.4594 44.0856 92.6207 44.1002C92.6996 44.1105 92.7798 44.105 92.8565 44.0838C92.9332 44.0627 93.005 44.0265 93.0675 43.9772C93.13 43.928 93.1821 43.8667 93.2206 43.7971C93.2591 43.7274 93.2833 43.6508 93.2917 43.5716C93.3009 43.4092 93.2466 43.2496 93.1403 43.1264C93.034 43.0032 92.884 42.9262 92.722 42.9116C92.6432 42.902 92.5632 42.9083 92.4868 42.9299C92.4104 42.9515 92.339 42.9881 92.2768 43.0375C92.2147 43.087 92.1629 43.1483 92.1246 43.2178C92.0863 43.2874 92.0622 43.3639 92.0537 43.4429V43.4429Z" fill="#263238"/>
<path d="M92.162 42.1996C92.2359 42.2845 92.7098 41.9585 93.3945 41.9942C94.0792 42.0298 94.5366 42.3858 94.6133 42.3091C94.6516 42.2735 94.5804 42.1229 94.3723 41.9585C94.0936 41.7429 93.7547 41.6194 93.4027 41.6052C93.0533 41.5893 92.7078 41.6852 92.4167 41.8791C92.2031 42.0161 92.1346 42.1612 92.162 42.1996Z" fill="#263238"/>
<path d="M98.3763 44.0453C98.3657 44.2074 98.4192 44.3671 98.5253 44.49C98.6313 44.613 98.7814 44.6894 98.9433 44.7027C99.0221 44.7126 99.1022 44.7068 99.1788 44.6855C99.2553 44.6642 99.3269 44.6279 99.3894 44.5787C99.4518 44.5295 99.5038 44.4684 99.5424 44.399C99.5811 44.3295 99.6055 44.2531 99.6143 44.1741C99.6242 44.0118 99.57 43.8521 99.4635 43.7292C99.3571 43.6063 99.2067 43.53 99.0446 43.5167C98.9658 43.5064 98.8858 43.512 98.8092 43.5332C98.7327 43.5543 98.6611 43.5906 98.5988 43.6399C98.5365 43.6892 98.4847 43.7505 98.4465 43.8201C98.4083 43.8897 98.3844 43.9663 98.3763 44.0453V44.0453Z" fill="#263238"/>
<path d="M98.7341 42.6595C98.8081 42.7444 99.2983 42.4212 99.9666 42.4568C100.635 42.4924 101.109 42.8485 101.185 42.7718C101.224 42.7362 101.153 42.5856 100.947 42.4212C100.667 42.2055 100.328 42.082 99.9748 42.0679C99.6255 42.0531 99.2804 42.1489 98.9888 42.3418C98.7779 42.4678 98.7067 42.6129 98.7341 42.6595Z" fill="#263238"/>
<path d="M96.0577 47.4936C96.0577 47.4553 95.6496 47.3622 94.9813 47.2444C94.8115 47.217 94.6499 47.1759 94.628 47.0582C94.6215 46.8806 94.6703 46.7055 94.7677 46.5569C94.9485 46.1516 95.1375 45.7353 95.3374 45.2806C96.1317 43.462 96.7068 41.9638 96.6411 41.931C96.5754 41.8981 95.866 43.3497 95.0717 45.1656L94.524 46.4529C94.4059 46.6533 94.3632 46.8893 94.4034 47.1184C94.4233 47.183 94.4586 47.2417 94.5063 47.2894C94.5541 47.3371 94.6128 47.3725 94.6773 47.3923C94.77 47.4244 94.8669 47.4428 94.9649 47.4471C95.6332 47.5073 96.055 47.532 96.0577 47.4936Z" fill="#263238"/>
<path d="M98.0064 48.0552C97.8996 48.0552 97.8612 48.7701 97.2121 49.2548C96.563 49.7396 95.7961 49.6218 95.7852 49.7232C95.7852 49.767 95.9522 49.8711 96.2782 49.8957C96.703 49.9236 97.124 49.8004 97.4668 49.5479C97.7959 49.3047 98.0177 48.9434 98.0858 48.54C98.1296 48.236 98.0557 48.0525 98.0064 48.0552Z" fill="#263238"/>
<path d="M98.707 40.0193C98.7645 40.2028 99.4355 40.1508 100.216 40.2932C100.997 40.4356 101.621 40.6712 101.733 40.5123C101.785 40.4384 101.684 40.2603 101.435 40.0714C101.104 39.8379 100.724 39.6832 100.325 39.6192C99.925 39.5551 99.5159 39.5833 99.1288 39.7016C98.822 39.7947 98.6686 39.9207 98.707 40.0193Z" fill="#263238"/>
<path d="M92.5039 40.2739C92.6135 40.4301 93.0846 40.2959 93.6378 40.315C94.1911 40.3342 94.6567 40.4684 94.7745 40.315C94.8238 40.2411 94.758 40.085 94.5608 39.9316C94.2938 39.7449 93.9772 39.6419 93.6515 39.6356C93.3257 39.6292 93.0054 39.7199 92.7313 39.896C92.5286 40.0439 92.4574 40.1945 92.5039 40.2739Z" fill="#263238"/>
<path d="M91.8595 38.0446C91.8595 38.0446 93.144 35.3715 94.4915 34.8018C96.1212 34.1088 96.721 35.8973 98.2602 35.544C99.7995 35.1907 101.355 34.5306 102.848 35.7796C104.491 37.149 103.642 38.009 103.65 39.9481C103.686 47.806 105.006 50.082 105.598 46.4228C105.663 46.0202 106.8 45.7546 107.052 44.0537C107.378 41.8489 107.6 39.1621 107.181 37.5653C106.83 36.2205 106.118 35.2674 104.814 34.191C102.755 32.4902 99.8187 32.3094 97.8138 32.4135C95.8089 32.5175 91.8376 34.6183 91.8595 38.0446Z" fill="#18315B"/>
<path d="M105.316 46.2887C105.329 46.1289 105.374 45.9735 105.449 45.8318C105.524 45.6902 105.627 45.5652 105.752 45.4646C105.877 45.3639 106.021 45.2896 106.175 45.2463C106.329 45.2029 106.491 45.1913 106.65 45.2123C107.458 45.3301 108.339 45.8368 108.202 47.513C107.959 50.4874 105.023 49.6301 105.025 49.5452C105.028 49.4603 105.203 47.5321 105.316 46.2887Z" fill="#FFA681"/>
<path d="M105.763 48.4769C105.777 48.4769 105.813 48.5179 105.897 48.5645C106.016 48.6272 106.154 48.6419 106.284 48.6056C106.607 48.5152 106.914 48.0386 106.971 47.51C107 47.2558 106.971 46.9982 106.886 46.7568C106.866 46.6616 106.824 46.5726 106.762 46.4977C106.699 46.4227 106.62 46.3641 106.53 46.3268C106.472 46.308 106.409 46.3093 106.351 46.3307C106.293 46.3521 106.245 46.3922 106.212 46.4446C106.166 46.524 106.18 46.5843 106.163 46.587C106.147 46.5898 106.103 46.5322 106.138 46.4117C106.16 46.3397 106.207 46.2776 106.27 46.2364C106.357 46.1809 106.462 46.1622 106.563 46.1844C106.683 46.2182 106.793 46.2823 106.881 46.3706C106.969 46.4588 107.033 46.5682 107.067 46.6884C107.173 46.9561 107.211 47.246 107.177 47.5319C107.111 48.129 106.757 48.6658 106.317 48.7535C106.235 48.7705 106.151 48.7688 106.07 48.7483C105.989 48.7279 105.914 48.6894 105.851 48.6357C105.763 48.5508 105.752 48.4823 105.763 48.4769Z" fill="#5E483F"/>
<path d="M105.553 40.5178C105.173 40.7951 104.73 40.973 104.263 41.0355C103.795 41.0601 103.275 40.7616 103.22 40.2987C103.195 40.0906 103.258 39.8523 103.13 39.6852C103.001 39.5182 102.672 39.5319 102.423 39.5455C101.984 39.558 101.554 39.4196 101.206 39.1534C100.857 38.8872 100.61 38.5094 100.506 38.083C100.267 38.4034 99.7552 38.3569 99.4293 38.1323C99.1323 37.8666 98.8741 37.5605 98.6624 37.223C98.4159 36.9107 98.0626 36.6259 97.6654 36.6615C97.4523 36.7241 97.2326 36.7618 97.0108 36.7738C96.6219 36.719 96.4631 36.2507 96.4138 35.859C96.3645 35.4673 96.3508 35.0127 96.0303 34.7854C95.7099 34.558 95.3292 34.6676 94.9649 34.7032C94.6006 34.7388 94.1432 34.632 94.0693 34.2732C94.0581 34.1785 94.0664 34.0825 94.0937 33.9911C94.121 33.8997 94.1668 33.8149 94.2281 33.7419C94.4882 33.3936 94.858 33.1431 95.2779 33.0308C95.6978 32.9185 96.1433 32.9509 96.5425 33.1229C96.713 32.6343 97.0245 32.2073 97.4377 31.8958C97.851 31.5843 98.3473 31.4024 98.8639 31.3731C99.3806 31.3438 99.8943 31.4684 100.34 31.7311C100.786 31.9938 101.144 32.3828 101.368 32.849C101.7 32.5803 102.091 32.3953 102.508 32.3095C102.926 32.2236 103.358 32.2395 103.769 32.3558C104.179 32.4721 104.555 32.6853 104.866 32.9775C105.177 33.2698 105.412 33.6324 105.553 34.0349C105.924 33.9532 106.31 33.9831 106.663 34.1208C107.016 34.2586 107.321 34.4979 107.538 34.8086C107.755 35.1194 107.875 35.4875 107.883 35.8666C107.891 36.2456 107.787 36.6185 107.583 36.9381C108.103 37.2723 108.536 37.8255 108.517 38.4445C108.498 39.0635 107.865 39.6441 107.279 39.4524C107.383 39.7006 107.39 39.9791 107.298 40.2321C107.206 40.485 107.021 40.6939 106.782 40.8168C106.542 40.9397 106.265 40.9676 106.006 40.8949C105.747 40.8222 105.524 40.6543 105.384 40.4247" fill="#18315B"/>
<path d="M96.2776 33.9883C96.2747 34.0064 96.2747 34.0249 96.2776 34.0431C96.2776 34.0787 96.2776 34.1334 96.2776 34.2047C96.3084 34.4081 96.3722 34.6052 96.4666 34.788C96.6154 35.0783 96.8291 35.3304 97.091 35.5248C97.4366 35.7882 97.8588 35.9315 98.2934 35.9329L98.2468 35.8644C98.1464 36.1304 98.1532 36.4251 98.266 36.6861C98.3862 36.9598 98.5458 37.2145 98.7398 37.442C98.8315 37.5726 98.9371 37.6929 99.0548 37.8008C99.1937 37.9062 99.3564 37.9758 99.5286 38.0035C99.703 38.0368 99.8828 38.0274 100.053 37.9758C100.222 37.9243 100.377 37.8323 100.504 37.7077L100.394 37.6693C100.42 37.9808 100.511 38.2833 100.661 38.5574C100.811 38.8316 101.017 39.0711 101.265 39.2606C101.538 39.4843 101.876 39.6139 102.229 39.6304C102.56 39.6311 102.889 39.5755 103.201 39.466L103.125 39.4277C103.262 39.7961 103.489 40.1246 103.785 40.3836C103.92 40.5116 104.081 40.6081 104.258 40.6659C104.435 40.7237 104.622 40.7414 104.806 40.7177C105.123 40.6659 105.417 40.5227 105.653 40.3056C105.889 40.0885 106.057 39.8072 106.135 39.4962L106.066 39.5236C106.37 39.7065 106.729 39.7772 107.08 39.7235C107.342 39.6923 107.593 39.5983 107.811 39.4496C107.948 39.3556 108.066 39.2378 108.162 39.1018C108.196 39.0555 108.223 39.0048 108.244 38.9511C108.12 39.131 107.964 39.2861 107.784 39.4085C107.569 39.5467 107.325 39.6329 107.072 39.6605C106.738 39.7032 106.4 39.6308 106.113 39.4551L106.061 39.4195L106.044 39.4825C105.967 39.7723 105.808 40.0335 105.585 40.2343C105.362 40.4351 105.086 40.5669 104.79 40.6136C104.622 40.6336 104.451 40.6156 104.29 40.5611C104.13 40.5066 103.983 40.417 103.862 40.2987C103.584 40.0532 103.371 39.7426 103.243 39.3948L103.223 39.3373L103.166 39.3537C102.866 39.4576 102.552 39.5104 102.235 39.5099C101.909 39.496 101.596 39.3757 101.345 39.1675C101.111 38.9883 100.917 38.7622 100.775 38.5038C100.634 38.2453 100.548 37.9602 100.523 37.6666L100.509 37.5242L100.411 37.6283C100.243 37.7897 100.024 37.8872 99.7915 37.9038C99.5593 37.9203 99.3286 37.8548 99.1397 37.7186C99.029 37.6167 98.929 37.5039 98.8412 37.3818C98.6529 37.1632 98.497 36.9188 98.3783 36.656C98.324 36.5395 98.2936 36.4133 98.2889 36.2849C98.2842 36.1564 98.3053 36.0284 98.3509 35.9082L98.3783 35.8398H98.3016C97.8871 35.8435 97.4825 35.7128 97.1485 35.4673C96.8919 35.2837 96.6795 35.045 96.5268 34.7689C96.3982 34.5255 96.3138 34.2612 96.2776 33.9883V33.9883Z" fill="#455A64"/>
<path d="M110.781 78.8319L114.736 82.6471L113.457 75.359L121.482 72.8228C121.482 72.8228 123.613 82.8224 123.985 85.1888C124.648 89.4341 123.832 95.4678 119.877 95.8923C115.599 96.3497 112.367 92.1291 110.31 89.3601C108.73 87.232 106.18 83.5099 106.18 83.5099L110.781 78.8373" fill="#E0E0E0"/>
<path d="M80.2092 72.3518C78.9219 76.4054 77.1225 77.0079 76.4104 88.6345C76.2707 90.8995 77.9715 93.8027 79.9956 94.8271C82.0196 95.8514 85.55 94.5943 86.6949 92.636L87.8315 84.0441L80.2092 72.3518Z" fill="#E0E0E0"/>
<path d="M85.5269 89.3165C85.2947 88.734 85.0314 88.1644 84.7381 87.6102C84.4006 87.0797 84.0349 86.5677 83.6426 86.0764C83.7992 86.1791 83.9387 86.3058 84.0562 86.4516C84.6677 87.1185 85.1274 87.9099 85.4037 88.7715C85.4735 88.9454 85.5151 89.1294 85.5269 89.3165V89.3165Z" fill="#263238"/>
<path d="M78.2695 77.0244C78.338 76.7862 82.2984 66.0059 83.5611 63.645C85.0729 60.8212 88.25 59.575 90.222 59.4518C92.194 59.3285 113.305 61.0102 113.305 61.0102C113.305 61.0102 119.219 62.4947 120.413 67.8574C121.914 74.5649 123.121 81.1821 123.121 81.1821L112.541 83.469L111.306 80.3221L91.4244 84.759L86.5711 77.5777L78.2695 77.0244Z" fill="#E0E0E0"/>
<path d="M114.823 102.123L114.319 84.1536L114.71 61.6263L106.455 57.9973L105.53 54.4368L95.9051 58.986L93.8893 56.7593L93.0457 59.2682L90.9368 59.9584L86.7874 68.1312L86.6066 82.4829C86.6066 82.4829 85.6014 99.3982 86.1958 103.904C86.1958 103.904 87.7514 106.484 92.5335 106.599C102.229 106.832 114.823 102.112 114.823 102.112" fill="#E0E0E0"/>
<path d="M106.447 77.5366C106.447 77.5749 105.959 77.5366 105.181 77.4818L102.149 77.2271L99.1146 77.0025C98.3367 76.9423 97.8574 76.8957 97.8574 76.8573C98.2761 76.7941 98.7005 76.7776 99.1228 76.808C99.9034 76.808 100.982 76.8601 102.171 76.9559C103.36 77.0518 104.431 77.1751 105.203 77.2874C105.975 77.3996 106.449 77.4982 106.447 77.5366Z" fill="white"/>
<path d="M106.314 79.0127C106.314 79.051 105.826 79.0127 105.048 78.9579L102.016 78.7059L98.9818 78.4786C98.2039 78.4183 97.7246 78.3745 97.7246 78.3334C98.1433 78.2702 98.5677 78.2536 98.99 78.2841C99.7706 78.2841 100.85 78.3389 102.038 78.432C103.227 78.5251 104.298 78.6511 105.07 78.7634C105.493 78.8001 105.91 78.8837 106.314 79.0127V79.0127Z" fill="white"/>
<path d="M106.179 80.489C106.179 80.5274 105.691 80.4891 104.914 80.4343L101.882 80.1823L98.847 79.955C98.0691 79.8975 97.5898 79.8509 97.5898 79.8125C97.5898 79.7742 98.0746 79.7523 98.8552 79.7605C99.6358 79.7687 100.715 79.8153 101.904 79.9084C103.092 80.0015 104.163 80.1275 104.936 80.2426C105.358 80.2772 105.775 80.3599 106.179 80.489Z" fill="white"/>
<path d="M106.044 81.9652C106.044 82.0035 105.556 81.9652 104.778 81.9104L101.747 81.6584L98.7064 81.4311C97.9285 81.3736 97.4492 81.327 97.4492 81.2887C97.4492 81.2504 97.934 81.2284 98.7146 81.2394C99.4952 81.2503 100.574 81.2914 101.763 81.3846C102.952 81.4777 104.023 81.6037 104.795 81.7187C105.219 81.7529 105.638 81.8356 106.044 81.9652V81.9652Z" fill="white"/>
<path d="M92.5258 107.07C92.515 107.032 92.5095 106.994 92.5094 106.955C92.5094 106.862 92.4929 106.749 92.482 106.612C92.4655 106.287 92.4409 105.848 92.408 105.292C92.356 104.123 92.2848 102.471 92.1944 100.442C92.041 96.3334 91.8466 90.6776 91.9205 84.4138C91.9588 81.2805 92.0629 78.2924 92.3642 75.5864C92.6655 72.8804 93.1393 70.4839 93.5584 68.4653C93.9774 66.4468 94.38 64.8472 94.6539 63.7325C94.7881 63.1847 94.8977 62.7684 94.9744 62.4535C95.0127 62.3193 95.0401 62.2124 95.0647 62.1221C95.0723 62.0827 95.0862 62.0448 95.1058 62.0098C95.109 62.049 95.109 62.0883 95.1058 62.1275C95.0866 62.2207 95.0647 62.3302 95.0401 62.4644C94.9716 62.7821 94.8785 63.2121 94.7662 63.7572C94.5252 64.8774 94.1636 66.4961 93.761 68.5037C93.3584 70.5113 92.9202 72.916 92.6244 75.6056C92.3286 78.2952 92.241 81.2805 92.2026 84.4056C92.1369 90.6612 92.3039 96.3252 92.4108 100.425C92.4655 102.458 92.5121 104.109 92.5422 105.279C92.5559 105.826 92.5641 106.276 92.5696 106.601V106.944C92.5637 106.988 92.5488 107.031 92.5258 107.07V107.07Z" fill="#263238"/>
<path d="M98.7293 71.8285C98.9121 71.8217 99.0951 71.8272 99.2771 71.845L100.904 71.9436L106.839 72.3489H106.951V72.4612C106.746 75.1809 106.502 78.4347 106.237 81.9514V82.0144L106.187 82.05C105.913 82.2527 105.609 82.4554 105.3 82.6553C104.762 83.0077 104.205 83.3305 103.632 83.6222C103.072 83.933 102.457 84.1312 101.822 84.2055C101.198 84.2238 100.58 84.0804 100.028 83.7892C99.5093 83.5208 99.0225 83.1956 98.576 82.8197C98.3596 82.6389 98.1487 82.4554 97.9488 82.2719C97.8367 82.1771 97.7437 82.0619 97.6749 81.9323C97.6058 81.806 97.5525 81.6717 97.516 81.5324C97.4015 81.0193 97.3528 80.4938 97.3709 79.9685C97.3975 79.0404 97.4808 78.1147 97.6201 77.1967C97.8666 75.5151 98.1679 74.184 98.3678 73.25C98.4719 72.7871 98.5623 72.4283 98.6253 72.1901C98.6519 72.0652 98.6904 71.9433 98.7403 71.8258C98.7305 71.9523 98.7104 72.0778 98.68 72.201C98.628 72.4749 98.5568 72.8282 98.4719 73.2719C98.2939 74.2004 98.0337 75.5479 97.8146 77.2241C97.6877 78.1319 97.6155 79.0465 97.5982 79.963C97.5846 80.4668 97.6352 80.9702 97.7488 81.4612C97.8033 81.7036 97.935 81.9217 98.1241 82.0829C98.3213 82.2664 98.5294 82.4444 98.7458 82.6307C99.1781 82.9924 99.6493 83.3047 100.151 83.5619C100.662 83.8315 101.235 83.9637 101.813 83.9453C102.411 83.8739 102.99 83.6879 103.517 83.3976C104.082 83.111 104.631 82.7928 105.16 82.4444C105.464 82.2472 105.766 82.0446 106.037 81.8474L105.979 81.9487C106.253 78.4347 106.527 75.1809 106.743 72.464L106.847 72.5845L100.986 72.0696L99.3429 71.9134L98.9046 71.8641C98.8449 71.8599 98.786 71.8479 98.7293 71.8285V71.8285Z" fill="#263238"/>
<path d="M105.529 54.4368C105.529 54.4368 104.453 54.749 101.695 56.2225C98.9887 57.6659 95.9102 58.986 95.9102 58.986L96.1457 63.3327L106.375 58.1918" fill="#E0E0E0"/>
<path d="M93.8905 56.7593L95.9063 58.986L94.8299 63.6448L93.0332 59.4352" fill="#E0E0E0"/>
<path d="M106.778 74.9208C106.778 74.9975 104.847 74.9071 102.478 74.7236C100.109 74.5401 98.1918 74.3264 98.1973 74.2525C98.2028 74.1785 100.128 74.2525 102.497 74.4497C104.866 74.6469 106.784 74.8468 106.778 74.9208Z" fill="#263238"/>
<g opacity="0.3">
<path opacity="0.3" d="M97.7871 81.9106C98.25 82.6748 98.6827 83.721 99.3154 84.351C99.931 85.0099 100.763 85.425 101.66 85.5205C102.452 85.5346 103.229 85.303 103.884 84.8577C104.96 84.1839 105.623 83.124 106.102 81.949C106.171 81.8613 104.563 82.935 103.689 83.4006C102.948 83.8429 102.082 84.0287 101.224 83.9292C99.9317 83.8251 98.7731 82.7597 97.7926 81.9106" fill="black"/>
</g>
<g opacity="0.3">
<path opacity="0.3" d="M95.8698 59.468C95.7794 59.5337 95.2207 64.8444 95.2207 64.8444L105.486 58.6409L96.141 63.3326L95.8698 59.468Z" fill="black"/>
</g>
<path d="M94.113 64.6475C92.4088 72.0217 91.2607 79.5135 90.6785 87.0597C90.2841 92.2965 89.9883 99.2368 89.9883 99.2368L92.3245 102.129L95.9043 98.9602C95.9043 98.9602 95.7509 84.2195 95.9371 79.284C96.0905 75.2223 95.4496 64.8611 95.4496 64.8611L94.113 64.6475Z" fill="#006BDE"/>
<path d="M112.262 71.2014C112.305 71.3383 112.337 71.4784 112.358 71.6205C112.41 71.919 112.481 72.3079 112.566 72.7735C112.738 73.7732 112.966 75.1071 113.22 76.5806C113.475 78.0541 113.7 79.4181 113.845 80.3958C113.919 80.8834 113.974 81.2805 114.009 81.5544C114.034 81.6964 114.048 81.8402 114.05 81.9844C114.005 81.8471 113.973 81.7059 113.954 81.5626C113.9 81.2668 113.831 80.8779 113.746 80.4123C113.571 79.4126 113.338 78.0788 113.078 76.6052C112.818 75.1317 112.612 73.7678 112.467 72.79C112.399 72.3189 112.344 71.93 112.303 71.6314C112.276 71.4896 112.262 71.3457 112.262 71.2014V71.2014Z" fill="#263238"/>
<path d="M115.312 62.2563C115.328 62.2755 115.038 62.5056 114.619 62.9329C113.528 64.0534 112.77 65.4548 112.428 66.9809C112.302 67.5643 112.272 67.934 112.247 67.934C112.233 67.8433 112.233 67.7509 112.247 67.6602C112.26 67.4221 112.288 67.1851 112.332 66.9508C112.475 66.1735 112.739 65.4232 113.113 64.7268C113.486 64.0303 113.966 63.3971 114.537 62.8507C114.709 62.684 114.892 62.5293 115.085 62.3878C115.154 62.3333 115.23 62.289 115.312 62.2563V62.2563Z" fill="#263238"/>
<path d="M95.938 61.0648L95.0204 60.7061L94.1522 62.1987L93.9961 64.6473L95.2204 64.8445L96.1406 63.3326L95.938 61.0648Z" fill="#407BFF"/>
<path d="M86.0224 68.3503C86.0607 68.3503 86.0936 74.3759 86.0936 81.8256C86.0936 89.2754 86.0607 95.3037 86.0224 95.3037C85.984 95.3037 85.9512 89.2781 85.9512 81.8256C85.9512 74.3731 85.9813 68.3503 86.0224 68.3503Z" fill="#263238"/>
<path d="M96.0042 58.9478C96.0206 58.9614 95.8042 59.2901 95.481 59.8352C95.0553 60.5453 94.6659 61.2766 94.3143 62.0263L94.2184 62.2344L94.1527 62.3741L94.087 62.2371C93.7523 61.5338 93.4668 60.8081 93.2324 60.0652C93.142 59.7913 93.079 59.553 93.0407 59.3942C93.011 59.3135 92.9952 59.2282 92.9941 59.1422C93.0133 59.1422 93.1229 59.4818 93.3228 60.0351C93.5227 60.5883 93.8213 61.3498 94.2157 62.1742H94.087L94.1855 61.9633C94.538 61.2063 94.9416 60.4743 95.3934 59.7722C95.5687 59.4983 95.7166 59.2956 95.8234 59.1532C95.874 59.0768 95.9348 59.0077 96.0042 58.9478Z" fill="#263238"/>
<path d="M106.455 57.9973C106.41 58.0306 106.363 58.0591 106.312 58.0822L105.899 58.2986L104.368 59.0929C103.078 59.7639 101.308 60.7198 99.35 61.766C98.1559 62.4014 97.0274 62.9903 96.0442 63.4833L95.9538 63.5299V63.4285C95.9538 62.1522 95.9319 61.0786 95.9237 60.3007C95.9237 59.9364 95.9237 59.6434 95.9237 59.4215C95.919 59.3163 95.9235 59.2109 95.9374 59.1066C95.9542 59.2098 95.9624 59.3142 95.962 59.4188C95.962 59.6406 95.9812 59.9364 95.9949 60.3007C96.0168 61.0786 96.0442 62.1522 96.077 63.4258L95.9867 63.371C96.9644 62.8698 98.0901 62.2754 99.2733 61.64C101.232 60.5938 103.009 59.6516 104.313 59.0025C104.965 58.6766 105.496 58.4218 105.866 58.2493L106.293 58.0576C106.345 58.032 106.399 58.0118 106.455 57.9973V57.9973Z" fill="#263238"/>
<path d="M87.2613 61.3414C87.2805 61.3414 87.1216 61.6153 86.9135 62.0918C86.6443 62.6967 86.4467 63.331 86.3246 63.9817C86.2089 64.6331 86.1675 65.2956 86.2013 65.9564C86.2315 66.4631 86.2835 66.7781 86.2616 66.7781C86.2279 66.7101 86.2057 66.637 86.1959 66.5617C86.1531 66.3628 86.122 66.1616 86.1028 65.9591C86.0347 65.2894 86.0623 64.6134 86.1849 63.9515C86.3062 63.2856 86.5211 62.6401 86.8231 62.0343C86.9114 61.8515 87.0121 61.6749 87.1243 61.5057C87.2038 61.3989 87.2531 61.3359 87.2613 61.3414Z" fill="#263238"/>
<path d="M94.995 65.0006C94.9731 65.0362 94.7403 64.9266 94.4746 64.7568C94.209 64.587 94.009 64.4254 94.0309 64.3925C94.0529 64.3597 94.2857 64.4692 94.5513 64.6363C94.817 64.8034 95.0169 64.9677 94.995 65.0006Z" fill="#263238"/>
<path d="M95.437 64.4036C95.1862 64.013 94.9769 63.5971 94.8125 63.1629C94.6052 62.749 94.4409 62.3149 94.3223 61.8674C94.5715 62.2586 94.7799 62.6743 94.944 63.1081C95.1514 63.5223 95.3166 63.9563 95.437 64.4036V64.4036Z" fill="#263238"/>
<path d="M121.127 89.1111C121.111 89.0924 121.098 89.0711 121.089 89.0481C121.064 89.0016 121.034 88.9386 120.993 88.8619C120.952 88.7852 120.9 88.6756 120.84 88.5579C120.779 88.4401 120.678 88.3114 120.579 88.1662C119.977 87.3507 119.288 86.6023 118.525 85.934C117.567 85.0548 116.353 84.0634 114.987 82.9213C114.307 82.3488 113.584 81.7518 112.861 81.0835C112.094 80.3996 111.379 79.6579 110.725 78.865H110.829L106.707 83.1951C106.518 83.3923 106.329 83.5868 106.159 83.7703V83.6799C107.718 85.9587 109.136 88.1635 110.626 90.0122C111.326 90.8892 112.075 91.7259 112.869 92.5183C113.547 93.2229 114.28 93.8723 115.061 94.4602C116.485 95.5365 117.914 95.9967 118.909 95.972C119.035 95.972 119.152 95.972 119.262 95.972L119.566 95.9392L119.84 95.9118L120.054 95.8625L120.344 95.7995L120.442 95.783C120.412 95.7962 120.379 95.8063 120.347 95.8132L120.059 95.8899L119.845 95.9446L119.571 95.9802L119.265 96.0186C119.152 96.0186 119.035 96.0186 118.909 96.0186C117.904 96.0624 116.444 95.605 115 94.5314C114.22 93.944 113.487 93.2956 112.809 92.5922C112.009 91.8001 111.255 90.9634 110.55 90.0862C109.049 88.2347 107.624 86.0271 106.066 83.7511L106.033 83.7046L106.074 83.6635L106.622 83.0883L110.73 78.7855L110.785 78.728L110.834 78.791C111.483 79.5808 112.189 80.3205 112.949 81.004C113.669 81.6696 114.39 82.2721 115.066 82.8446C116.435 83.9812 117.635 84.9836 118.585 85.8738C119.348 86.551 120.03 87.3127 120.62 88.1443C120.716 88.2922 120.799 88.4182 120.872 88.5414L121.018 88.8564L121.103 89.0481C121.112 89.0687 121.12 89.0897 121.127 89.1111V89.1111Z" fill="#263238"/>
<g opacity="0.3">
<path opacity="0.3" d="M101.236 86.0874C101.209 85.8548 101.095 85.6408 100.918 85.4876C100.578 85.2658 100.151 85.5588 99.8034 85.7615C98.8858 86.3093 97.7519 86.2901 96.6838 86.2436C93.4654 86.1372 90.2567 85.8326 87.0758 85.3315C85.5228 85.0713 83.9534 84.7317 82.5648 83.9867C81.1762 83.2417 79.9629 82.0448 79.5165 80.533L78.7715 80.1304C79.3494 81.3601 79.2891 84.8385 79.4946 86.1778C79.7 87.5171 80.297 88.4757 81.5871 88.8921C82.1162 89.0277 82.6655 89.0667 83.2085 89.0071C88.5027 88.7332 93.8436 88.9824 99.1378 88.7332C99.8965 88.6949 100.781 88.5908 101.178 87.9526C101.521 87.4076 101.384 86.7064 101.236 86.0874Z" fill="black"/>
</g>
<path d="M104.577 74.069C104.577 74.069 102.068 71.1987 101.619 71.5164C101.17 71.8341 100.524 72.0066 101.145 73.1597C101.767 74.3128 102.816 74.9756 103.013 75.9643C103.211 76.9531 102.989 79.3359 104.092 80.1439C105.196 80.9518 106.733 83.0498 106.733 83.0498L110.567 79.0511L109.05 77.9089C109.05 77.9089 109.967 75.6192 109.959 74.4223C109.951 73.2255 109.138 71.73 109.138 71.73C109.039 71.1348 108.751 70.5873 108.316 70.1689C108.247 69.6545 108.145 69.1449 108.012 68.6433C107.806 67.8846 105.057 65.2334 105.057 65.2334C104.807 65.4084 104.636 65.6732 104.578 65.972C104.521 66.2709 104.581 66.5805 104.747 66.8356C105.124 67.4473 105.544 68.0312 106.004 68.583L103.493 68.2818C103.449 68.4579 103.442 68.6411 103.473 68.82C103.503 68.9988 103.57 69.1694 103.67 69.3212C103.769 69.4729 103.899 69.6024 104.051 69.7016C104.203 69.8008 104.374 69.8676 104.553 69.8977C105.936 70.251 106.262 70.7577 106.262 70.7577L104.55 71.3247C104.55 71.3247 104.629 72.3353 105.372 72.36L106.119 72.3819L104.577 74.069Z" fill="#FFA681"/>
<path d="M105.229 72.3519L106.889 72.2971H106.924L106.941 72.3163C107.27 72.6933 107.496 73.149 107.598 73.6392C107.687 74.2398 107.567 74.8529 107.258 75.3756C106.895 75.9033 106.453 76.3717 105.946 76.7642C105.549 77.0859 105.216 77.4788 104.963 77.9228C104.803 78.226 104.728 78.5664 104.744 78.9088C104.76 79.1525 104.821 79.2785 104.807 79.284C104.793 79.2895 104.788 79.2539 104.76 79.1936C104.725 79.1057 104.701 79.0137 104.689 78.9197C104.65 78.5642 104.713 78.2047 104.873 77.8844C105.119 77.4204 105.454 77.0092 105.859 76.6739C106.349 76.282 106.779 75.8207 107.135 75.3044C107.427 74.8095 107.544 74.2305 107.466 73.6611C107.374 73.1913 107.165 72.7523 106.858 72.3848L106.902 72.4039C105.867 72.4122 105.226 72.3902 105.229 72.3519Z" fill="#5E483F"/>
<path d="M108.729 71.6918C108.707 71.6918 108.636 71.5576 108.474 71.3632C108.257 71.1148 107.971 70.9373 107.652 70.8537C107.332 70.7736 107.001 70.7422 106.672 70.7606C106.532 70.7795 106.39 70.7795 106.25 70.7606C106.38 70.7001 106.52 70.6657 106.664 70.6593C107.006 70.6104 107.355 70.63 107.691 70.7168C107.878 70.7702 108.054 70.8544 108.214 70.966C108.342 71.059 108.453 71.1729 108.542 71.3029C108.639 71.413 108.704 71.5475 108.729 71.6918V71.6918Z" fill="#5E483F"/>
<path d="M108.045 69.8101C108.015 69.8402 107.642 69.465 107.089 69.1418C106.536 68.8186 106.026 68.6707 106.037 68.6296C106.434 68.6833 106.815 68.8154 107.16 69.018C107.504 69.2207 107.805 69.49 108.045 69.8101Z" fill="#5E483F"/>
<path d="M77.38 73.6089L80.6804 86.0763C80.7692 86.4118 80.9682 86.7079 81.2453 86.9169C81.5224 87.126 81.8616 87.236 82.2087 87.2294L99.2966 86.8925C99.5245 86.8881 99.7487 86.8334 99.9532 86.7324C100.158 86.6314 100.337 86.4865 100.479 86.3081C100.621 86.1298 100.722 85.9222 100.775 85.7004C100.828 85.4785 100.831 85.2477 100.784 85.0246L98.2667 73.083C98.1932 72.7351 98.0023 72.423 97.7261 72.1991C97.4498 71.9752 97.105 71.8531 96.7494 71.8533H78.733C78.5189 71.8534 78.3077 71.9025 78.1156 71.9971C77.9235 72.0916 77.7557 72.2289 77.625 72.3985C77.4943 72.5681 77.4043 72.7654 77.3618 72.9752C77.3193 73.1851 77.3256 73.4018 77.38 73.6089V73.6089Z" fill="#263238"/>
<path d="M75.9443 76.4218C75.7704 76.2014 75.6758 75.9288 75.6758 75.6481C75.6758 75.3673 75.7704 75.0947 75.9443 74.8743C76.1231 74.6588 76.347 74.4851 76.6001 74.3654C76.8533 74.2457 77.1296 74.1829 77.4096 74.1814C77.9746 74.1835 78.5334 74.299 79.053 74.521C79.6976 74.7682 80.3167 75.0773 80.9017 75.444C81.3153 75.7042 81.7425 76.0411 81.822 76.5204C81.9014 76.9997 81.381 77.5502 80.9565 77.3092C81.2538 77.4348 81.517 77.6292 81.7246 77.8763C81.9322 78.1234 82.0782 78.4162 82.1506 78.7307C82.241 79.3415 81.9151 79.6674 81.329 79.8427C81.5465 79.934 81.7206 80.1055 81.8149 80.3218C81.9093 80.5381 81.9167 80.7824 81.8357 81.004C81.6193 81.4613 80.9893 81.5873 80.5183 81.4066C80.0609 81.1854 79.6656 80.8541 79.3679 80.4425C79.7055 81.0259 79.8222 81.7112 79.6966 82.3734C79.0478 82.1408 78.4751 81.7351 78.0405 81.2001C77.606 80.6651 77.3262 80.0214 77.2316 79.3387C76.9182 79.0896 76.6998 78.7403 76.6131 78.3495C76.5263 77.9586 76.5764 77.5498 76.755 77.1914C76.2319 77.0298 75.6376 76.2273 75.6787 75.6796" fill="#FFA681"/>
<path d="M81.2969 79.8482C81.098 79.7196 80.9094 79.5758 80.7327 79.4182C80.3014 79.0581 79.7952 78.7989 79.2509 78.6595C78.9532 78.5936 78.6448 78.5936 78.3471 78.6595C78.106 78.7196 77.8815 78.8328 77.6898 78.9909C77.5169 79.1483 77.3716 79.3334 77.2598 79.5387C77.263 79.4726 77.2808 79.4081 77.3118 79.3497C77.3849 79.187 77.4912 79.0415 77.624 78.9224C77.8203 78.7421 78.057 78.6116 78.3142 78.5417C78.6308 78.4601 78.9623 78.4554 79.2811 78.528C79.8472 78.6698 80.3682 78.9524 80.7957 79.3497C80.9836 79.4935 81.152 79.6611 81.2969 79.8482Z" fill="#5E483F"/>
<path d="M81.1503 77.3694C80.9131 77.3049 80.6843 77.213 80.4683 77.0955C80.2316 76.9761 79.9884 76.87 79.7398 76.7778C79.4347 76.6714 79.1214 76.5899 78.8031 76.5341C78.4898 76.4767 78.1687 76.4767 77.8554 76.5341C77.6009 76.5811 77.3603 76.685 77.1515 76.8381C76.9627 76.9877 76.8062 77.1741 76.6914 77.3859C76.6914 77.3859 76.6914 77.3092 76.7462 77.1914C76.8255 77.0219 76.9426 76.8729 77.0885 76.7559C77.3028 76.58 77.5566 76.4588 77.828 76.4026C78.1582 76.3381 78.4976 76.3381 78.8277 76.4026C79.1546 76.4598 79.4754 76.5469 79.7863 76.6628C80.0361 76.7628 80.2786 76.8799 80.5121 77.0134C80.7335 77.1158 80.9469 77.2348 81.1503 77.3694V77.3694Z" fill="#5E483F"/>
<g opacity="0.3">
<path opacity="0.3" d="M114.545 94.6105C114.408 94.1175 114.586 94.1148 114.195 93.7888C112.749 92.5261 111.424 91.1314 110.237 89.623C109.021 88.1002 107.123 85.0107 107.123 85.0107L106.674 84.8738C107.063 87.1005 108.183 89.119 109.287 91.0938C109.847 92.1902 110.524 93.2232 111.305 94.175C112.127 95.098 113.184 95.8567 114.395 96.0922C114.517 95.8675 114.593 95.6208 114.619 95.3665C114.645 95.1121 114.62 94.8552 114.545 94.6105Z" fill="black"/>
</g>
<path d="M29.8567 65.6143C29.8711 65.7048 29.8775 65.7965 29.8759 65.8881C29.8759 66.089 29.8814 66.3519 29.8923 66.6769C29.8923 66.8495 29.8923 67.0412 29.8923 67.2466C29.8923 67.452 29.9252 67.6794 29.9416 67.9231C29.9827 68.4052 30.0046 68.9584 30.0977 69.5665C30.1388 69.8705 30.1799 70.1882 30.2237 70.5196C30.2676 70.851 30.3388 71.1906 30.399 71.5439C30.5141 72.256 30.6893 73.0038 30.8592 73.7953C31.2262 75.3702 31.6808 77.082 32.1766 78.8978C32.6723 80.7137 33.1105 82.431 33.4529 84.0168C33.609 84.8166 33.7733 85.5698 33.8692 86.2873C33.9212 86.6434 33.9815 86.9885 34.0198 87.3199C34.0582 87.6513 34.0856 87.9745 34.1157 88.2812C34.1896 88.8893 34.1896 89.448 34.2088 89.9246C34.2088 90.1683 34.228 90.3957 34.2252 90.6038C34.2225 90.812 34.2088 91.001 34.2006 91.1762C34.1842 91.5031 34.1705 91.766 34.1595 91.965C34.1568 92.0569 34.1477 92.1484 34.1321 92.2389C34.123 92.1479 34.123 92.0561 34.1321 91.965C34.1321 91.7651 34.1321 91.5022 34.1321 91.1762C34.1321 91.0037 34.1321 90.8147 34.1321 90.6066C34.1321 90.3984 34.1102 90.1738 34.0993 89.93C34.0691 89.4453 34.0609 88.892 33.976 88.2867C33.9431 87.9818 33.9075 87.6641 33.8692 87.3336C33.8281 87.0022 33.7624 86.6626 33.7076 86.3065C33.6063 85.5944 33.4337 84.8439 33.2776 84.0497C32.9243 82.4721 32.4778 80.7466 31.9876 78.9417C31.4973 77.1367 31.0591 75.4167 30.6893 73.8336C30.525 73.0394 30.3525 72.2862 30.2456 71.5713C30.1881 71.2153 30.1224 70.8729 30.0786 70.5415C30.0348 70.2101 30.0019 69.8896 29.9663 69.5829C29.8786 68.9749 29.8677 68.4189 29.8376 67.9396C29.8376 67.6958 29.8074 67.4685 29.8047 67.2603V66.6879C29.8047 66.3592 29.8184 66.099 29.8239 65.8991C29.8248 65.8033 29.8358 65.7078 29.8567 65.6143Z" fill="#263238"/>
<path d="M67.5195 78.7389L71.3951 64.9541L76.1634 65.8223C76.1634 65.8223 75.0213 67.1233 75.0213 68.3202C75.0213 69.5171 74.2271 80.7985 74.2271 80.7985C74.2271 80.7985 69.4861 82.1899 67.5688 78.9799" fill="#FFA681"/>
<path d="M71.3944 64.954C71.3944 64.954 70.8631 63.516 71.2821 62.2726C71.7012 61.0291 73.1336 60.0651 73.0432 59.3173C72.9528 58.5696 73.7142 56.7811 74.4126 56.9208C75.1111 57.0605 75.6013 57.7425 75.0234 58.8873C74.6526 59.6396 74.3466 60.4221 74.1086 61.2263C74.1086 61.2263 81.2297 57.5152 81.8131 57.4357C82.3965 57.3563 82.9771 57.2741 83.1278 57.7397C83.2784 58.2054 81.8569 58.797 81.8569 58.797L79.9397 61.2866C79.6217 62.2361 79.1747 63.1374 78.6113 63.9652C77.7897 65.0772 76.171 65.8222 76.171 65.8222L74.0949 68.32C74.0949 68.32 70.937 67.2464 71.3944 64.954Z" fill="#FFA681"/>
<path d="M81.7275 58.8957C81.7275 58.8957 81.6645 58.8547 81.5523 58.7999C81.3935 58.7285 81.2167 58.7075 81.0456 58.7396C80.4782 58.9061 79.9773 59.2461 79.6131 59.7119C79.2323 60.1769 78.9095 60.6864 78.6518 61.2293C78.5549 61.4636 78.4298 61.6853 78.2793 61.8893C78.3281 61.6391 78.411 61.3967 78.5258 61.169C78.7549 60.5949 79.0718 60.0599 79.4652 59.5832C79.9418 59.0354 80.5279 58.6575 81.0291 58.6027C81.226 58.5785 81.425 58.6251 81.5906 58.7342C81.7002 58.8191 81.7275 58.8903 81.7275 58.8957Z" fill="#EB996E"/>
<path d="M79.1133 59.8297C79.1407 59.8763 78.6806 60.1885 78.089 60.5281C77.4974 60.8677 76.9934 61.106 76.966 61.0595C76.9386 61.0129 77.396 60.6979 77.9904 60.3583C78.5847 60.0187 79.0859 59.7804 79.1133 59.8297Z" fill="#EB996E"/>
<path d="M75.3387 61.4291C75.314 61.3825 75.8864 61.1935 76.5355 61.4291C77.1847 61.6646 77.5298 62.1384 77.4832 62.1603C77.4366 62.1822 77.0751 61.8098 76.4726 61.6126C75.87 61.4154 75.3469 61.4866 75.3387 61.4291Z" fill="#EB996E"/>
<path d="M60.458 79.5358C60.4224 79.7412 65.8536 87.0704 67.6147 88.4453C71.9367 91.8169 75.1138 87.2567 74.7961 83.3976C74.4784 79.5385 63.2517 61.4016 63.2517 61.4016L59.6172 69.9661L60.458 79.5358Z" fill="#006BDE"/>
<path d="M32.0332 59.4599L41.9096 57.14L42.8408 55.5652L52.7474 55.724L55.048 58.1863L61.6487 61.4291L56.108 84.6904L37.5164 85.6463L32.0332 59.4599Z" fill="#263238"/>
<path d="M43.3341 55.2585L39.6393 57.551L31.8801 59.2409L34.3451 90.4148C34.3451 90.4148 27.0651 104.583 25.9531 116.883H45.5471C45.5471 116.883 47.4013 101.236 47.2068 94.9723C47.0124 88.7085 47.1329 77.7174 47.1329 77.7174L42.0769 58.8191L43.3341 55.2585Z" fill="#006BDE"/>
<path d="M53.4376 57.5673L52.7474 55.4392L55.3274 58.0357C55.3274 58.0357 56.8557 58.567 57.1844 58.6875C59.7507 59.6461 63.251 61.4018 63.251 61.4018L58.8688 89.111C58.8688 89.111 64.7464 104.756 64.2671 116.883C64.2671 116.883 50.8466 117.105 45.5469 116.883L46.9793 77.101C46.9793 77.101 51.6354 71.6041 52.4105 66.0715C53.1856 60.539 53.4376 57.5673 53.4376 57.5673Z" fill="#006BDE"/>
<path d="M46.7428 81.4833C46.6803 81.4319 46.6226 81.375 46.5702 81.3135L46.1019 80.8068L44.3736 78.8895L38.5371 72.3162L38.4987 72.2751L38.5152 72.2231C38.811 71.1522 39.1232 70.032 39.4436 68.8789C39.5806 68.3805 39.7175 67.8875 39.8545 67.3999L39.9476 67.5287L36.0748 67.3808H35.9434L35.9899 67.2575C37.0389 64.4282 37.94 62.0071 38.5836 60.2706C38.9041 59.4271 39.1615 58.7533 39.3478 58.2685C39.4327 58.0494 39.5039 57.8741 39.5559 57.7372C39.5774 57.6739 39.6058 57.6133 39.6408 57.5564C39.6283 57.6218 39.6099 57.6859 39.5861 57.7481L39.4053 58.2959L38.6959 60.3172C38.066 62.0619 37.1896 64.494 36.1679 67.3315L36.083 67.2027L39.9558 67.3397H40.0845L40.0489 67.4629C39.9147 67.9477 39.7751 68.4434 39.6381 68.9419C39.3177 70.0923 39.0054 71.2152 38.7069 72.2834L38.685 72.193L44.4805 78.8129C45.1843 79.6345 45.754 80.2946 46.1621 80.7657L46.6058 81.297C46.6579 81.3541 46.7038 81.4165 46.7428 81.4833Z" fill="#263238"/>
<path d="M45.5757 116.883C45.5209 116.883 45.7784 107.902 46.1536 96.8318C46.5288 85.7612 46.8767 76.7832 46.9314 76.7859C46.9862 76.7886 46.7288 85.7639 46.3563 96.8372C45.9838 107.911 45.6332 116.883 45.5757 116.883Z" fill="#263238"/>
<path d="M55.304 57.9316C55.3245 58.0043 55.3392 58.0785 55.3478 58.1535C55.3724 58.3178 55.4026 58.5315 55.4409 58.7999C55.5176 59.3832 55.6244 60.1967 55.7586 61.2046C56.0133 63.2752 56.3666 66.1346 56.772 69.4212L56.7884 69.5527L56.657 69.5308L54.5097 69.1611L54.622 69.0186L55.0301 69.9334L55.8353 71.7356L55.86 71.7931L55.8189 71.8424L49.8673 78.7444L48.0843 80.7767C47.8843 81.0012 47.7227 81.182 47.5968 81.3244C47.4708 81.4669 46.7477 82.0009 46.7422 81.9982C46.7367 81.9955 47.4653 81.4312 47.5639 81.2998L48.0404 80.7301L49.7769 78.6568L55.6765 71.711L55.66 71.8178L54.8548 70.0183L54.4467 69.1008L54.3673 68.9283L54.5562 68.9611L56.7035 69.3336L56.5858 69.4432C56.2078 66.1565 55.8791 63.2862 55.6408 61.2265C55.534 60.2131 55.4464 59.3969 55.3834 58.8108C55.3587 58.5369 55.3396 58.3288 55.3231 58.1644C55.3072 58.0879 55.3008 58.0097 55.304 57.9316V57.9316Z" fill="#263238"/>
<path d="M44.3427 104.216C43.9483 103.693 43.1513 103.37 42.7432 103.882H42.7569C42.5547 104.039 42.4056 104.255 42.3297 104.5C42.2538 104.745 42.2547 105.007 42.3324 105.251C42.3934 105.401 42.4838 105.538 42.5984 105.652C42.713 105.767 42.8494 105.857 42.9995 105.918C43.1496 105.979 43.3104 106.01 43.4724 106.008C43.6344 106.005 43.7944 105.971 43.9428 105.906C44.0866 105.827 44.2123 105.72 44.3117 105.589C44.4111 105.459 44.482 105.31 44.5197 105.15C44.5574 104.991 44.5612 104.825 44.5307 104.664C44.5002 104.503 44.4361 104.351 44.3427 104.216V104.216Z" fill="#263238"/>
<path d="M44.953 93.6794C44.5586 93.159 43.7588 92.8359 43.3507 93.348H43.3672C43.1643 93.5051 43.0148 93.7208 42.9388 93.9658C42.8629 94.2108 42.8642 94.4732 42.9426 94.7175C43.0034 94.8675 43.0936 95.0038 43.2079 95.1183C43.3222 95.2329 43.4583 95.3233 43.6082 95.3844C43.7581 95.4454 43.9187 95.4757 44.0805 95.4736C44.2424 95.4715 44.4021 95.437 44.5504 95.3721C44.6945 95.2936 44.8205 95.1857 44.9202 95.0554C45.0199 94.925 45.091 94.7751 45.129 94.6155C45.167 94.4559 45.1709 94.29 45.1406 94.1287C45.1103 93.9675 45.0463 93.8144 44.953 93.6794V93.6794Z" fill="#263238"/>
<g opacity="0.3">
<path opacity="0.3" d="M36.0762 67.2875C36.1419 67.4984 37.5333 67.7121 37.777 68.2982C38.0208 68.8843 37.9003 69.5553 37.7277 70.1688C37.5552 70.7823 37.3306 71.3959 37.3744 72.0313C37.4511 73.1679 38.3467 74.0553 39.1875 74.8277C41.532 76.9832 44.3914 79.3249 46.7414 81.4832C44.6626 78.8319 41.9538 76.0876 39.6559 73.6253C39.2927 73.2859 39.0117 72.8681 38.8342 72.4038C38.6535 71.804 38.8342 71.1631 39.0095 70.566L39.7161 68.1859C39.7764 67.9805 39.9079 67.6381 39.938 67.5258C39.6513 67.465 39.3599 67.4293 39.067 67.419C39.067 67.419 36.9992 67.1999 36.0899 67.2875" fill="black"/>
</g>
<path d="M62.8855 66.0935C62.8886 66.1726 62.8812 66.2518 62.8636 66.3291C62.8362 66.5043 62.8006 66.7262 62.7595 67.0028C62.6554 67.6108 62.5158 68.4489 62.3459 69.4678C61.9926 71.5767 61.5243 74.4444 60.9765 77.616C60.4287 80.7876 59.9385 83.6744 59.5523 85.7532C59.3578 86.794 59.1962 87.6321 59.0757 88.2182C59.0191 88.4903 58.9726 88.7121 58.936 88.8837C58.9251 88.9628 58.9039 89.0402 58.873 89.1138C58.8738 89.0338 58.882 88.954 58.8977 88.8755C58.9251 88.703 58.958 88.4784 59.0018 88.2045C59.1031 87.5965 59.2428 86.7584 59.4153 85.7395L60.7848 77.5941C61.3189 74.4115 61.8228 71.5357 62.209 69.4569C62.4035 68.4161 62.5651 67.5752 62.6828 66.9919C62.7403 66.718 62.7869 66.4989 62.8253 66.3263C62.8367 66.2467 62.8569 66.1687 62.8855 66.0935V66.0935Z" fill="#263238"/>
<path d="M32.0175 59.2107C30.5593 59.7026 29.3065 60.6663 28.457 61.9496C26.8137 64.3762 23.9762 87.9169 24.0748 89.5493C24.1734 91.1817 25.6085 95.3228 29.4156 94.7778C33.2226 94.2328 43.351 87.1582 43.351 87.1582L39.8672 80.4096L32.4722 83.8935L33.4773 72.2396L32.0175 59.2107Z" fill="#006BDE"/>
<g opacity="0.3">
<path opacity="0.3" d="M54.4642 92.5071C54.2232 91.4472 52.9113 91.1076 51.8349 90.9706L34.2787 88.7302L32.7559 93.6602C32.912 94.7914 33.0708 95.9444 33.5529 96.9797C34.0349 98.015 34.8922 98.938 36.0014 99.2092C36.982 99.4475 38.0063 99.1599 38.9731 98.8723L51.8842 95.0379C52.5392 94.8881 53.16 94.6158 53.7138 94.2354C54.2396 93.8547 54.6121 93.17 54.4642 92.5071Z" fill="black"/>
</g>
<g opacity="0.3">
<path opacity="0.3" d="M32.8507 72.1465C32.6398 71.3248 32.3194 70.3662 31.5169 70.0513C30.6624 69.7171 29.6709 70.3388 29.2902 71.1742C28.9095 72.0096 28.9916 72.9764 29.1259 73.883C29.5915 77.0381 30.7034 80.5384 31.7333 83.5567L35.3349 82.2338C34.8583 78.8924 33.6806 75.4195 32.8507 72.1465Z" fill="black"/>
</g>
<path d="M70.0519 69.2732L66.5078 79.9548L71.1091 83.2963L74.8176 84.7862C74.8176 84.767 75.5105 79.4509 75.3352 81.3078L76.1569 70.3386L70.0519 69.2732Z" fill="#006BDE"/>
<path d="M70.0519 69.2732C70.038 69.4334 70.0096 69.592 69.967 69.747C69.9068 70.051 69.8027 70.4865 69.663 71.0206C69.3891 72.0942 68.918 73.5513 68.3483 75.1289C67.7787 76.7065 67.2966 78.1636 66.9953 79.2372C66.8447 79.7686 66.7214 80.1986 66.6475 80.4999C66.6147 80.6571 66.568 80.8111 66.5078 80.96C66.5252 80.8003 66.5536 80.642 66.5927 80.4862C66.6557 80.1822 66.7598 79.7467 66.8995 79.2099C67.1734 78.139 67.6445 76.6819 68.2141 75.1015C68.7838 73.5212 69.2631 72.0669 69.5671 70.9932C69.7178 70.4619 69.841 70.0291 69.915 69.7306C69.9496 69.575 69.9954 69.4222 70.0519 69.2732V69.2732Z" fill="#263238"/>
<path d="M68.8956 85.3616C68.7268 85.1905 68.5788 85.0002 68.4546 84.7946C68.1286 84.3179 67.8295 83.8232 67.559 83.3129C67.2892 82.8031 67.0469 82.2792 66.8332 81.7435C66.735 81.5248 66.6606 81.2961 66.6113 81.0615C66.7346 81.2657 66.84 81.4801 66.9263 81.7024C67.1098 82.1023 67.37 82.6528 67.685 83.2472C67.9999 83.8415 68.3094 84.3646 68.5395 84.7398C68.6747 84.9372 68.7938 85.1451 68.8956 85.3616Z" fill="#263238"/>
<path d="M32.0185 83.195C31.6351 83.1055 31.2603 82.9827 30.8983 82.828C30.5213 82.7204 30.1546 82.5792 29.8027 82.4062C30.1985 82.4434 30.5864 82.5404 30.9531 82.6938C31.3315 82.8061 31.6907 82.9751 32.0185 83.195V83.195Z" fill="#263238"/>
<path d="M33.1318 68.0491C33.083 67.9769 33.046 67.8973 33.0223 67.8135C32.9593 67.6574 32.8771 67.4301 32.7867 67.1425C32.3184 65.647 32.0801 64.0891 32.0801 62.522C32.0801 62.2235 32.0801 61.9742 32.102 61.8126C32.1008 61.7255 32.1128 61.6387 32.1376 61.5552C32.1595 61.5552 32.1568 61.9249 32.1814 62.522C32.2381 64.0751 32.4743 65.6163 32.8853 67.1151C33.0387 67.6903 33.1537 68.0436 33.1318 68.0491Z" fill="#263238"/>
<g opacity="0.3">
<path opacity="0.3" d="M55.7551 70.2237L57.0506 70.3113C56.7716 69.9448 56.3949 69.6645 55.9636 69.5026C55.5324 69.3408 55.0642 69.304 54.613 69.3965C54.6431 70.1771 55.4566 70.7851 55.4073 71.5657C55.3336 71.9799 55.1359 72.362 54.8403 72.6613L52.4219 75.6384L52.5917 77.1284C53.5804 75.7179 54.5774 74.3895 55.5661 72.9927C55.8966 72.5821 56.1381 72.1074 56.2755 71.5986C56.385 71.0809 56.2152 70.4757 55.7551 70.2237Z" fill="black"/>
</g>
<g opacity="0.3">
<path opacity="0.3" d="M68.6118 74.1814L69.0034 73.0283C68.3434 75.0085 66.103 76.5286 65.3662 78.4814C65.0673 79.3094 64.9858 80.2003 65.1297 81.0687C65.2736 81.9372 65.6379 82.7542 66.1879 83.4415C66.4426 83.7538 66.8808 84.0551 67.2149 83.8277C67.3406 83.7538 67.4392 83.6416 67.4964 83.5075C67.5535 83.3734 67.5663 83.2246 67.5327 83.0828C67.4286 82.8089 66.659 81.2121 66.522 80.9601C66.4207 80.7684 66.6507 80.2179 66.9575 79.1881C67.4861 77.3694 68.0695 75.9973 68.6118 74.1814Z" fill="black"/>
</g>
<path d="M40.097 42.865C40.0569 44.6241 40.3904 46.3718 41.0754 47.9926C41.7605 49.6134 42.7815 51.0704 44.0711 52.2676L45.8486 47.1212" fill="#263238"/>
<path d="M53.4799 32.6298C51.9543 31.8081 50.1138 31.6767 48.4102 32.0163C46.7067 32.3559 45.1236 33.131 43.6145 33.9992C42.7681 34.4895 41.9273 35.0263 41.322 35.7877C40.2128 37.1818 39.1309 39.4688 39.0131 41.2463C38.9255 42.6815 39.476 46.2776 40.084 47.5813C40.6318 48.7782 43.2474 49.6903 44.5347 49.9861L56.3448 36.2533C56.1311 35.4897 55.7679 34.7761 55.276 34.154C54.7842 33.5319 54.1737 33.0138 53.4799 32.6298V32.6298Z" fill="#18315B"/>
<path d="M55.5136 34.4813L52.6953 33.9746C54.2428 37.6611 54.6618 46.0887 55.5465 49.9861C56.59 48.4715 59.0139 43.8592 58.8852 42.0269C58.7565 40.1946 58.877 34.1691 55.5136 34.4813Z" fill="#18315B"/>
<path d="M57.134 40.4905C56.9505 37.6612 55.0689 34.191 52.2506 34.5005L45.7321 36.163C44.7293 36.4189 43.835 36.9895 43.1804 37.791C42.5257 38.5925 42.1453 39.5828 42.0948 40.6164C42.0948 40.7233 42.0757 40.5918 42.0784 40.674L43.5327 57.5537L48.4271 67.2658L52.7463 57.0799C52.7463 55.7104 52.7463 54.6149 52.7463 54.6149C52.7463 54.6149 56.3589 54.0068 57.0957 49.2905C57.4654 46.946 57.3531 43.632 57.134 40.4905Z" fill="#FFA681"/>
<path d="M55.997 44.0509C55.9992 44.2089 55.9393 44.3614 55.8302 44.4756C55.7211 44.5899 55.5715 44.6567 55.4136 44.6617C55.3364 44.6677 55.2589 44.6581 55.1854 44.6337C55.112 44.6092 55.0442 44.5703 54.986 44.5193C54.9279 44.4682 54.8805 44.4061 54.8467 44.3365C54.8128 44.2669 54.7933 44.1912 54.7891 44.1139C54.7869 43.9564 54.8464 43.8043 54.9549 43.6902C55.0634 43.576 55.2124 43.5089 55.3698 43.5032C55.4471 43.4968 55.525 43.5061 55.5988 43.5304C55.6725 43.5546 55.7406 43.5935 55.7991 43.6445C55.8576 43.6956 55.9052 43.7579 55.9392 43.8277C55.9732 43.8975 55.9928 43.9734 55.997 44.0509V44.0509Z" fill="#263238"/>
<path d="M56.4274 42.3363C56.3535 42.4158 55.8796 42.0789 55.2442 42.0816C54.6088 42.0844 54.1158 42.4103 54.0446 42.3309C54.0117 42.2953 54.0857 42.1528 54.2938 42.0022C54.5753 41.8069 54.9099 41.7027 55.2524 41.7037C55.5906 41.7012 55.9206 41.8068 56.1946 42.0049C56.3946 42.1583 56.463 42.3007 56.4274 42.3363Z" fill="#263238"/>
<path d="M50.3524 44.0509C50.3547 44.2089 50.2948 44.3614 50.1857 44.4756C50.0766 44.5899 49.927 44.6567 49.7691 44.6617C49.6919 44.6677 49.6143 44.6581 49.5409 44.6337C49.4675 44.6092 49.3997 44.5703 49.3415 44.5193C49.2833 44.4682 49.2359 44.4061 49.2021 44.3365C49.1683 44.2669 49.1487 44.1912 49.1446 44.1139C49.1423 43.9564 49.2019 43.8043 49.3104 43.6902C49.4189 43.576 49.5678 43.5089 49.7252 43.5032C49.8026 43.4968 49.8805 43.5061 49.9542 43.5304C50.028 43.5546 50.0961 43.5935 50.1546 43.6445C50.213 43.6956 50.2607 43.7579 50.2947 43.8277C50.3287 43.8975 50.3483 43.9734 50.3524 44.0509V44.0509Z" fill="#263238"/>
<path d="M50.2477 42.3363C50.1738 42.4157 49.7137 42.0788 49.0645 42.0816C48.4154 42.0843 47.9361 42.4103 47.8649 42.3308C47.832 42.2952 47.906 42.1528 48.1141 42.0022C48.3956 41.8069 48.7302 41.7027 49.0728 41.7036C49.4107 41.7025 49.7403 41.808 50.0149 42.0049C50.2149 42.1583 50.2833 42.3007 50.2477 42.3363Z" fill="#263238"/>
<path d="M52.2824 47.447C52.2824 47.4087 52.6822 47.3375 53.3368 47.2526C53.5039 47.2362 53.66 47.2033 53.6874 47.0883C53.703 46.9174 53.6647 46.746 53.5779 46.598C53.419 46.1963 53.2538 45.7745 53.0821 45.3326C52.3974 43.5332 51.8989 42.046 51.9866 42.0268C52.0742 42.0076 52.674 43.4373 53.356 45.2368C53.5231 45.6805 53.6792 46.1023 53.8298 46.5076C53.935 46.7078 53.9661 46.9386 53.9175 47.1595C53.8933 47.2182 53.8561 47.2707 53.8086 47.3129C53.7612 47.3551 53.7047 47.386 53.6436 47.4032C53.5542 47.4271 53.4622 47.44 53.3697 47.4416C53.009 47.4895 52.6436 47.4914 52.2824 47.447Z" fill="#263238"/>
<path d="M46.4961 52.9387C46.4961 52.9387 48.0299 56.1761 52.7462 55.7242V54.6286C50.5465 54.6555 48.3826 54.0704 46.4961 52.9387V52.9387Z" fill="#EB996E"/>
<path d="M50.0418 39.9864C49.9788 40.1616 49.3297 40.0795 48.5655 40.1753C47.8014 40.2712 47.1961 40.4766 47.0838 40.3178C47.04 40.2438 47.1468 40.0767 47.396 39.9042C47.728 39.6939 48.1033 39.5618 48.4938 39.5176C48.8843 39.4735 49.2796 39.5186 49.6501 39.6495C49.9295 39.7618 50.0692 39.9014 50.0418 39.9864Z" fill="#263238"/>
<path d="M56.2133 40.3481C56.101 40.496 55.6518 40.3481 55.1178 40.3481C54.5837 40.3481 54.1235 40.4494 54.0222 40.2933C53.9784 40.2194 54.0496 40.0715 54.2468 39.9318C54.5145 39.7641 54.8259 39.6793 55.1417 39.6881C55.4574 39.6969 55.7636 39.7988 56.0216 39.9811C56.2024 40.1235 56.2571 40.2741 56.2133 40.3481Z" fill="#263238"/>
<path d="M55.8544 36.1849C55.6874 35.8389 55.4278 35.5459 55.1043 35.3385C54.7809 35.131 54.4063 35.0173 54.0221 35.0099C53.2513 35.0094 52.4966 35.2299 51.8474 35.6454C49.0401 37.2668 47.5967 41.1861 44.8222 42.8651C44.1402 43.2786 43.2528 42.9007 42.6722 43.4484C42.0915 43.9962 41.7163 44.8672 42.0367 45.5985C41.6401 45.105 41.3163 44.5571 41.0754 43.9716C40.9558 43.6776 40.9008 43.3614 40.914 43.0443C40.9273 42.7273 41.0085 42.4167 41.1521 42.1338C41.3931 41.7175 41.8149 41.3998 41.9327 40.9341C42.034 40.5233 41.8724 40.0961 41.8916 39.6743C41.9376 39.2451 42.085 38.8329 42.3216 38.4719C43.4171 36.5547 44.9044 34.81 46.8298 33.7309C48.0852 33.0041 49.5151 32.6338 50.9655 32.66C52.4218 32.6935 53.818 33.2473 54.9013 34.2212C55.523 34.8018 56.1749 35.3989 55.8544 36.1849" fill="#18315B"/>
<path d="M42.7412 44.0291C42.6919 43.8949 40.2324 43.0075 40.1995 45.6204C40.1667 48.1594 42.7303 47.6581 42.7357 47.5869C42.7412 47.5157 42.7412 44.0291 42.7412 44.0291Z" fill="#FFA681"/>
<path d="M41.9599 46.6201C41.9599 46.6201 41.9161 46.6502 41.8394 46.6831C41.7339 46.7254 41.6162 46.7254 41.5107 46.6831C41.2368 46.5817 41.0204 46.1545 41.0122 45.6943C41.0076 45.4774 41.0516 45.2621 41.141 45.0644C41.1656 44.9851 41.2092 44.9131 41.2678 44.8544C41.3265 44.7957 41.3986 44.7522 41.4778 44.7275C41.5306 44.7106 41.5878 44.7138 41.6384 44.7366C41.689 44.7594 41.7293 44.8 41.7517 44.8507C41.7846 44.922 41.7682 44.9713 41.7818 44.9767C41.7955 44.9822 41.8366 44.9357 41.8175 44.8288C41.8042 44.766 41.7693 44.7097 41.7189 44.67C41.6495 44.6168 41.5618 44.5931 41.4751 44.6042C41.3704 44.6232 41.2725 44.6689 41.1909 44.7371C41.1092 44.8053 41.0467 44.8935 41.0095 44.9932C40.899 45.2121 40.8435 45.4546 40.8479 45.6998C40.8616 46.2092 41.1218 46.6913 41.4833 46.7954C41.5512 46.8165 41.623 46.8218 41.6933 46.8109C41.7636 46.8 41.8304 46.7731 41.8887 46.7324C41.9544 46.6803 41.9681 46.6255 41.9599 46.6201Z" fill="#EB996E"/>
<path d="M41.7402 42.7253C41.7947 42.7035 41.8462 42.675 41.8936 42.6404C41.9895 42.5801 42.1401 42.498 42.3181 42.3665C42.8181 42.0016 43.2773 41.5838 43.6876 41.1203C44.2866 40.4264 44.8462 39.6995 45.3638 38.9429C45.9884 38.0161 46.6893 37.1431 47.459 36.3327C47.8699 35.9287 48.3236 35.5705 48.812 35.2646C49.2693 34.984 49.7597 34.7614 50.2718 34.6018C51.1396 34.3232 52.052 34.2107 52.9614 34.2704C53.5751 34.3079 54.1812 34.4267 54.7636 34.6237C54.9718 34.6867 55.1279 34.7579 55.2347 34.799C55.2874 34.8236 55.3425 34.8428 55.399 34.8565C55.3492 34.8259 55.297 34.7994 55.2429 34.7771C55.0928 34.7028 54.9382 34.6379 54.78 34.5826C54.1972 34.3667 53.5868 34.2339 52.9669 34.1882C52.0424 34.1146 51.1123 34.2206 50.228 34.5004C49.7067 34.66 49.2072 34.8836 48.7408 35.166C48.2459 35.4804 47.7868 35.8478 47.3714 36.2615C46.596 37.0752 45.8931 37.955 45.2707 38.8909C44.7623 39.65 44.2138 40.3814 43.6273 41.082C43.2242 41.5464 42.7765 41.9702 42.2907 42.3473C42.1155 42.4788 41.9703 42.5664 41.8772 42.6349C41.8294 42.6617 41.7836 42.6919 41.7402 42.7253Z" fill="#455A64"/>
<path d="M41.6722 47.0693C41.5462 47.0449 41.4157 47.0694 41.3072 47.1379C41.1987 47.2063 41.1205 47.3136 41.0883 47.4378C41.0562 47.562 41.0726 47.6938 41.1343 47.8063C41.196 47.9188 41.2982 48.0035 41.4202 48.0432C41.5422 48.0829 41.6747 48.0746 41.7908 48.02C41.9069 47.9654 41.9978 47.8685 42.0449 47.7492C42.0921 47.6299 42.0919 47.4971 42.0446 47.3779C41.9972 47.2587 41.9061 47.162 41.7899 47.1076" fill="white"/>
<path d="M41.7894 47.1075C41.8986 47.1943 41.9781 47.313 42.0167 47.4471C42.0348 47.5167 42.0352 47.5897 42.018 47.6595C42.0008 47.7293 41.9665 47.7938 41.9181 47.847C41.8614 47.9139 41.7862 47.9624 41.7019 47.9866C41.6177 48.0108 41.5282 48.0094 41.4446 47.9828C41.3611 47.9561 41.2874 47.9053 41.2327 47.8368C41.1781 47.7683 41.1449 47.6851 41.1375 47.5977C41.1283 47.5263 41.1372 47.4537 41.1636 47.3867C41.1899 47.3196 41.2328 47.2603 41.2881 47.2143C41.3975 47.1268 41.5317 47.076 41.6716 47.0691C41.6716 47.0691 41.6305 47.0417 41.5511 47.0417C41.479 47.0427 41.4079 47.0583 41.3421 47.0878C41.2763 47.1172 41.2172 47.1598 41.1685 47.2129C41.1197 47.266 41.0824 47.3285 41.0587 47.3965C41.035 47.4646 41.0255 47.5368 41.0307 47.6087C41.0389 47.7174 41.0794 47.8212 41.147 47.9067C41.2145 47.9923 41.3061 48.0557 41.4099 48.089C41.5137 48.1222 41.6251 48.1237 41.7298 48.0933C41.8345 48.0629 41.9277 48.0019 41.9975 47.9182C42.0554 47.8517 42.095 47.7712 42.1123 47.6848C42.1296 47.5983 42.124 47.5088 42.0961 47.4252C42.0628 47.3152 41.9945 47.219 41.9017 47.1513C41.8359 47.1075 41.7921 47.0993 41.7894 47.1075Z" fill="#263238"/>
<path d="M42.3675 43.4457C42.3291 44.1387 42.2963 44.87 42.6167 45.4862C42.9372 46.1024 43.7451 46.5242 44.3477 46.1791C44.8407 45.9052 44.9886 45.2671 45.0708 44.7056C45.3118 43.0897 45.4213 41.4546 45.6761 39.8386L42.3675 43.4457Z" fill="#18315B"/>
<path d="M50.6836 48.685C50.5602 48.8456 50.4775 49.0338 50.4426 49.2334C50.4077 49.4329 50.4217 49.638 50.4833 49.831C50.5449 50.024 50.6524 50.1992 50.7965 50.3416C50.9406 50.484 51.1171 50.5894 51.3108 50.6488C51.4645 50.7007 51.631 50.7007 51.7847 50.6488C51.9084 50.5792 52.0168 50.4853 52.1034 50.3729C52.19 50.2604 52.253 50.1316 52.2886 49.9942L52.5625 49.3368C52.5882 49.3031 52.6037 49.2627 52.6072 49.2204C52.6107 49.1781 52.602 49.1357 52.5821 49.0983C52.5622 49.0608 52.532 49.0298 52.495 49.009C52.458 48.9881 52.4159 48.9784 52.3735 48.9808L50.7439 48.5891" fill="#EB996E"/>
<path d="M51.7482 50.575C51.4978 50.6087 51.2429 50.5766 51.0087 50.4819C50.734 50.3927 50.5025 50.2042 50.3596 49.9533C50.2762 49.7992 50.2409 49.6237 50.2582 49.4493C50.2705 49.2694 50.315 49.0931 50.3897 48.9289C50.4621 48.7688 50.5654 48.6245 50.6937 48.5044L50.7375 48.4661L50.7923 48.4852C51.8714 48.8659 52.7095 49.0577 52.7095 49.1042C52.7095 49.1508 51.8331 49.033 50.732 48.666L50.8279 48.6441C50.7194 48.7495 50.6312 48.8739 50.5677 49.0111C50.4995 49.143 50.4601 49.2879 50.4521 49.4361C50.4441 49.5844 50.4676 49.7326 50.5211 49.8711C50.6415 50.0911 50.8354 50.2618 51.0689 50.3532C51.4633 50.5175 51.7564 50.5394 51.7482 50.575Z" fill="#263238"/>
<path d="M55.227 34.9906C55.227 35.0043 55.0051 34.9468 54.597 34.9358C54.0216 34.9252 53.4499 35.0295 52.9153 35.2426C52.5458 35.3862 52.1931 35.5699 51.8636 35.7904C51.4817 36.0412 51.1158 36.3157 50.7681 36.612C49.9716 37.2896 49.2582 38.0591 48.6427 38.9045C48.3195 39.3591 48.0347 39.8247 47.7252 40.2548C47.433 40.6761 47.0909 41.0605 46.7063 41.3996C46.0484 41.9581 45.3289 42.4396 44.5618 42.8348C43.9126 43.1799 43.3676 43.4182 42.9951 43.5852L42.5624 43.755C42.5126 43.7791 42.4602 43.7975 42.4062 43.8098C42.4516 43.7774 42.5003 43.7499 42.5514 43.7277L42.9732 43.5195C43.3402 43.336 43.877 43.084 44.5152 42.7307C45.2691 42.3275 45.9764 41.8426 46.6241 41.2846C46.9976 40.9485 47.3303 40.5697 47.6156 40.1562C47.9196 39.7316 48.2045 39.2633 48.5304 38.8059C49.1509 37.9503 49.8749 37.1747 50.6859 36.497C51.0342 36.2013 51.4 35.9269 51.7814 35.6753C52.1251 35.4526 52.4926 35.2689 52.877 35.1276C53.4241 34.9176 54.009 34.8243 54.5943 34.8537C54.7519 34.8629 54.9085 34.8849 55.0626 34.9194C55.1209 34.934 55.1765 34.958 55.227 34.9906V34.9906Z" fill="#455A64"/>
<path d="M42.2885 41.8763C42.2195 41.9347 42.1442 41.9852 42.064 42.0269L41.4203 42.4049L41.2039 42.5309C41.1201 42.58 41.0267 42.6108 40.9301 42.6212C40.8696 42.6271 40.8089 42.6126 40.7575 42.5802C40.7299 42.5616 40.7071 42.5368 40.6909 42.5078C40.6747 42.4788 40.6656 42.4463 40.6644 42.4131C40.6704 42.2964 40.7125 42.1844 40.7849 42.0926L41.5299 40.8985L41.6312 40.9916C41.3828 41.1738 41.1048 41.3118 40.8096 41.3997C40.5146 41.4861 40.2072 41.5222 39.9002 41.5065C39.8219 41.5044 39.7444 41.4905 39.6702 41.4654C39.6265 41.4532 39.5861 41.4314 39.552 41.4015C39.5179 41.3716 39.4909 41.3345 39.473 41.2929C39.4588 41.2501 39.4553 41.2045 39.4629 41.16C39.4706 41.1156 39.4891 41.0737 39.5168 41.0382C39.5587 40.9805 39.6064 40.9272 39.6592 40.8793C39.9948 40.5539 40.2858 40.1856 40.5247 39.7838C40.734 39.407 40.9171 39.0163 41.0725 38.6143C41.0606 38.7304 41.0339 38.8445 40.9931 38.9539C40.8951 39.2591 40.7666 39.5536 40.6096 39.8331C40.3771 40.2492 40.0877 40.6309 39.7496 40.967C39.6537 41.0573 39.5606 41.1614 39.599 41.2408C39.6373 41.3203 39.7715 41.3586 39.9057 41.3614C40.4932 41.392 41.0733 41.2199 41.549 40.8738L41.8503 40.652L41.6476 40.967L40.8862 42.1529C40.8286 42.2237 40.7917 42.309 40.7794 42.3994C40.7794 42.4733 40.8424 42.5144 40.9246 42.5089C41.0878 42.4761 41.2432 42.4119 41.382 42.32L42.0448 41.9803C42.1217 41.9362 42.2035 41.9012 42.2885 41.8763Z" fill="#455A64"/>
<path d="M29.6376 71.4177L34.2553 95.6979C34.299 95.9291 34.3879 96.1493 34.517 96.3461C34.6461 96.5428 34.8128 96.712 35.0075 96.8441C35.2022 96.9762 35.4211 97.0685 35.6515 97.1158C35.882 97.163 36.1196 97.1642 36.3506 97.1194L54.0848 93.7067C54.3163 93.6621 54.5366 93.5722 54.7333 93.4423C54.9299 93.3124 55.099 93.1449 55.2308 92.9495C55.3626 92.7541 55.4545 92.5346 55.5013 92.3035C55.5482 92.0725 55.5489 91.8346 55.5036 91.6032L50.6174 66.8985C50.5708 66.6651 50.4782 66.4432 50.3451 66.2459C50.2119 66.0486 50.0407 65.8797 49.8417 65.7492C49.6426 65.6187 49.4195 65.5291 49.1854 65.4857C48.9514 65.4422 48.711 65.4458 48.4783 65.4962L31.0125 69.3307C30.5565 69.4308 30.1577 69.705 29.9009 70.0948C29.6441 70.4846 29.5496 70.9592 29.6376 71.4177V71.4177Z" fill="#E0E0E0"/>
<path d="M41.4668 80.3794L42.9431 79.6481C42.9431 79.6481 43.4224 77.1174 44.2002 76.2245C44.978 75.3316 46.1174 74.3073 46.1174 74.0635C46.1174 73.8197 46.479 72.1463 46.479 72.1463C46.479 72.1463 47.1664 71.5465 47.3006 72.7461C47.3845 73.4429 47.3845 74.1473 47.3006 74.8441L51.9184 73.6938C52.3977 73.5732 52.9975 73.6198 52.9372 74.0991C52.877 74.5784 52.6195 74.8277 52.2525 75.1262C52.1208 75.2358 51.9718 75.3228 51.8116 75.3837C51.8116 75.3837 52.5812 76.093 52.5812 76.7887C52.5812 77.4844 53.37 79.1003 52.6524 79.8782C51.9348 80.656 48.6372 82.995 46.9007 83.2935C45.1643 83.5921 44.737 84.1152 43.9318 85.1395L41.4668 80.3794Z" fill="#FFA681"/>
<path d="M47.6806 74.762C47.6998 74.8003 47.152 75.1208 46.5331 75.5973C45.9141 76.0739 45.4594 76.5121 45.4375 76.4847C46.0347 75.7328 46.8092 75.1408 47.6916 74.762H47.6806Z" fill="#EB996E"/>
<path d="M52.0799 75.2522C51.7355 75.4595 51.3615 75.6129 50.9706 75.7069C50.597 75.8448 50.2121 75.9502 49.8203 76.0218C50.1651 75.8161 50.5391 75.6637 50.9296 75.5699C51.3039 75.4334 51.6886 75.3272 52.0799 75.2522V75.2522Z" fill="#EB996E"/>
<path d="M31.1719 83.8442L41.3413 79.5332L45.1566 87.1391L31.1719 94.2711V83.8442Z" fill="#006BDE"/>
<path d="M41.1461 79.7687C41.1625 79.807 38.4072 80.9382 35.0083 82.2994C31.6093 83.6606 28.8321 84.7315 28.8184 84.6959C28.8047 84.6603 31.5573 83.5264 34.9562 82.1652C38.3552 80.804 41.1324 79.7331 41.1461 79.7687Z" fill="#263238"/>
<g opacity="0.3">
<path opacity="0.3" d="M31.8421 83.3757C30.6054 83.6235 29.3956 83.9904 28.2296 84.4713C27.746 84.646 27.2938 84.8976 26.8902 85.2163C26.6893 85.3769 26.5221 85.5758 26.3985 85.8015C26.2749 86.0272 26.1972 86.2751 26.1699 86.5309C26.5036 86.3878 26.8183 86.2038 27.1066 85.9831C28.2624 84.8246 30.2536 84.1508 31.9407 83.5182L31.8421 83.3757Z" fill="black"/>
</g>
</svg>
