<svg width="272" height="253" viewBox="0 0 272 253" fill="none" xmlns="http://www.w3.org/2000/svg">
<g clip-path="url(#clip0_1272_47018)">
<path d="M272 0H0V253H272V0Z" fill="white"/>
<path d="M20.3995 190.435C20.104 188.515 19.829 186.58 19.5925 184.681C19.4598 183.718 19.3519 182.761 19.2343 181.795L19.2322 181.785C17.3842 165.838 17.3694 150.456 19.5564 136.563L19.5543 136.553C19.7335 135.387 19.9396 134.237 20.1628 133.094C21.8787 123.955 24.602 115.527 28.4505 108.118C28.7929 107.446 29.1469 106.793 29.5052 106.161C32.9547 99.9951 37.2306 94.576 42.4032 90.0938C43.0094 89.5619 43.6199 89.0507 44.2475 88.5467C44.2475 88.5467 44.2475 88.5467 44.255 88.5452C56.3061 78.9763 72.8889 74.179 94.8088 76.1093C94.8239 76.1062 94.8486 76.112 94.8637 76.1089C95.6217 76.1702 96.3701 76.2227 97.1026 76.2354C117.223 77.0354 129.358 63.6625 142.333 49.9466C142.805 49.4526 143.27 48.9601 143.751 48.4646C159.409 31.9985 176.754 15.7603 211.077 23.5432C264.04 35.5792 269.42 112.264 262.088 169.205C261.976 170.12 261.852 171.017 261.73 171.924C260.101 183.81 257.929 194.763 255.543 203.962C253.635 211.342 252.453 218.899 251.753 226.507C251.658 227.506 251.577 228.501 251.499 229.507C248.411 269.695 257.679 310.559 241.723 330.507C241.319 331.03 240.896 331.536 240.452 332.013C238.143 334.558 235.359 336.694 232.017 338.406C223.107 342.958 214.594 342.233 206.5 338.238C205.747 337.853 205.001 337.467 204.26 337.026C186.913 327.077 171.447 302.619 157.758 283.514C157.259 282.798 156.759 282.114 156.267 281.429C145.423 266.48 135.739 255.427 127.144 258.399C125.408 259.009 123.633 259.542 121.839 260.024C121.214 260.194 120.593 260.342 119.972 260.49C104.365 264.217 86.9475 263.32 71.027 257.192C70.3656 256.95 69.7076 256.685 69.0626 256.407C54.4316 250.329 41.217 239.746 32.0331 224.159C31.6279 223.477 31.2356 222.782 30.8434 222.087C25.9085 213.126 22.2801 202.598 20.3995 190.435Z" fill="#E4EBF7"/>
<path opacity="0.62" d="M158.909 171.483C158.898 171.483 158.881 171.478 158.871 171.478C158.353 171.378 157.842 171.283 157.336 171.209C153.725 163.175 148.488 155.085 141.369 152.173C136.516 150.184 131.203 150.823 125.577 154.08C109.086 163.629 96.3297 169.018 87.7195 164.263C79.4908 159.72 76.2213 145.86 77.7072 121.876C78.6495 106.673 76.4031 94.6624 71.0122 86.0368C71.2174 85.5757 71.4118 85.1146 71.6062 84.6485C77.5039 93.5407 79.9749 106.041 78.9858 121.943C77.531 145.431 80.5981 158.937 88.3745 163.229C96.8975 167.943 110.971 161.123 124.894 153.06C130.9 149.58 136.615 148.909 141.877 151.068C149.661 154.257 155.199 163.009 158.909 171.483Z" fill="white"/>
<path opacity="0.62" d="M122.309 179.36C121.913 179.548 121.522 179.737 121.12 179.925C120.274 177.297 118.873 174.761 116.583 173.083C113.268 170.654 108.561 170.366 102.594 172.221C89.3878 176.331 79.3009 175.983 72.6055 171.187C65.114 165.827 61.8917 154.841 63.0319 138.555C63.8594 126.656 60.4216 118.09 55.8711 112.047C56.0765 111.627 56.2874 111.216 56.4982 110.801C61.403 117.05 65.1957 126.029 64.316 138.632C63.2016 154.493 66.2651 165.13 73.3913 170.238C79.7214 174.778 89.4165 175.066 102.183 171.084C108.59 169.09 113.699 169.454 117.38 172.149C119.861 173.968 121.387 176.62 122.309 179.36Z" fill="white"/>
<path opacity="0.62" d="M181.952 128.111C179.829 143.409 182.342 155.297 189.423 163.452C191.847 166.248 194.574 168.289 197.201 169.788C196.706 169.982 196.212 170.166 195.706 170.344C195.706 170.344 195.706 170.344 195.701 170.344C193.243 168.839 190.729 166.853 188.446 164.224C181.119 155.807 178.508 143.611 180.684 127.963C183.503 107.649 192.55 95.4761 200.622 88.4628C201.047 88.6386 201.467 88.8245 201.875 89.0155C193.884 95.816 184.777 107.817 181.952 128.111Z" fill="white"/>
<path opacity="0.62" d="M200.627 133.25C198.808 144.863 200.381 153.602 205.327 159.213C206.615 160.671 208.022 161.78 209.385 162.606C209.054 162.89 208.718 163.164 208.381 163.429C207.018 162.557 205.622 161.433 204.334 159.97C199.147 154.086 197.476 145.044 199.353 133.077C201.268 120.916 209.433 112.182 223.063 107.651C223.249 108.01 223.424 108.374 223.599 108.738C210.214 113.116 202.488 121.353 200.627 133.25Z" fill="white"/>
<path opacity="0.62" d="M226.193 127.386C226.151 127.852 226.092 128.312 226.039 128.778L226.039 128.783C223.329 130.041 221.316 131.844 220.029 134.176C217.4 138.92 218.143 145.096 219.518 150.04C219.513 150.045 219.513 150.045 219.518 150.045C219.232 150.578 218.929 151.1 218.615 151.617C216.955 146.309 215.812 139.173 218.879 133.628C220.421 130.855 222.868 128.768 226.193 127.386Z" fill="white"/>
<path opacity="0.62" d="M167.137 82.3394C166.46 85.1852 165.48 88.4065 164.076 91.5987C158.901 103.369 150.287 109.57 139.119 109.605C138.673 109.606 138.238 109.603 137.786 109.584C122.579 108.979 113.768 86.965 105.253 65.6688C101.075 55.2329 97.0282 45.1206 92.4472 38.0206C92.8001 37.812 93.164 37.6135 93.5387 37.4302C98.2127 44.6564 102.27 54.7991 106.454 65.2501C114.826 86.1824 123.49 107.822 137.848 108.389C156.041 109.111 163.096 93.1451 165.771 82.3892C166.234 82.3675 166.685 82.356 167.137 82.3394Z" fill="white"/>
<path opacity="0.62" d="M144.883 69.0962C143.784 69.2869 142.571 69.4071 141.282 69.4111C138.595 69.4196 135.579 68.9028 132.593 67.3284C124.725 63.1786 119.819 53.2207 117.959 37.667C118.428 37.9185 118.891 38.1701 119.343 38.4469C121.228 53.0696 125.881 62.416 133.227 66.2891C137.068 68.3162 141.034 68.4303 144.139 67.9752C144.385 68.359 144.637 68.7276 144.883 69.0962Z" fill="white"/>
<path opacity="0.62" d="M189.859 71.7432C189.386 71.8814 188.913 72.0093 188.446 72.1171C185.041 68.8286 181.348 62.2065 180.425 48.8459C180.077 43.7566 179.079 39.5195 177.719 36.002C178.263 36.2381 178.808 36.4742 179.348 36.7204C180.539 40.1221 181.389 44.1067 181.714 48.771C182.654 62.4757 186.515 68.8139 189.859 71.7432Z" fill="white"/>
<path d="M135.042 231.696C163.926 231.605 187.335 229.341 187.326 226.639C187.318 223.936 163.895 221.819 135.011 221.91C106.126 222.001 82.7178 224.265 82.7263 226.967C82.7348 229.67 106.157 231.787 135.042 231.696Z" fill="#E4EBF7"/>
<path d="M72.1776 110.655C72.1776 110.655 73.0933 111.234 74.7335 112.11C74.9129 108.613 76.5178 105.152 77.8108 102.881L75.0719 102.075C75.0665 102.08 71.6518 104.322 72.1776 110.655Z" fill="#FAFCFF" stroke="#0C6BF4" stroke-width="1.1813" stroke-miterlimit="10"/>
<path opacity="0.47" d="M109.044 121.003C109.555 120.982 110.072 120.96 110.583 120.923C111.965 120.822 113.346 120.661 114.738 120.439L116.503 107.546L111.722 107.778L110.412 107.843C110.062 109.129 109.756 110.512 109.516 112.01C109.009 115.205 108.888 118.216 109.044 121.003Z" fill="#3150BC"/>
<path d="M98.1449 102.378L81.0234 104.983L84.7533 126.251L101.875 123.646L98.1449 102.378Z" fill="#BAC1CC"/>
<path d="M100.088 103.519L82.7402 103.573L82.808 125.124L100.156 125.069L100.088 103.519Z" fill="#EDF1F9"/>
<path d="M86.758 109.719C87.7104 109.716 88.4802 108.996 88.4774 108.11C88.4746 107.224 87.7003 106.508 86.7479 106.511C85.7955 106.514 85.0257 107.235 85.0285 108.121C85.0313 109.006 85.8056 109.722 86.758 109.719Z" fill="#F4D242"/>
<path d="M95.2707 113.179L85.5495 113.209C85.2666 113.21 85.0375 112.999 85.0367 112.735C85.0358 112.472 85.2636 112.259 85.5465 112.258L95.2677 112.228C95.5506 112.227 95.7798 112.439 95.7806 112.702C95.776 112.965 95.5482 113.178 95.2707 113.179Z" fill="#BAC1CC"/>
<path d="M97.547 115.661L85.5573 115.699C85.2744 115.7 85.0453 115.488 85.0445 115.225C85.0436 114.962 85.2714 114.748 85.5543 114.747L97.544 114.71C97.8269 114.709 98.056 114.921 98.0569 115.184C98.0523 115.447 97.8299 115.66 97.547 115.661Z" fill="#BAC1CC"/>
<path d="M97.5548 117.974L85.5651 118.011C85.2823 118.012 85.0531 117.8 85.0523 117.537C85.0514 117.274 85.2793 117.061 85.5621 117.06L97.5518 117.022C97.8347 117.021 98.0639 117.233 98.0647 117.496C98.0601 117.759 97.8377 117.973 97.5548 117.974Z" fill="#BAC1CC"/>
<path d="M97.5607 120.144L85.571 120.182C85.2881 120.183 85.059 119.971 85.0581 119.708C85.0573 119.445 85.2851 119.232 85.568 119.231L97.5577 119.193C97.8406 119.192 98.0697 119.404 98.0705 119.667C98.0659 119.93 97.8436 120.144 97.5607 120.144Z" fill="#BAC1CC"/>
<path d="M98.3841 149.733L91.719 147.639L92.4902 145.511C92.7869 144.696 93.7375 144.257 94.6142 144.533L98.1047 145.63C98.9814 145.906 99.452 146.79 99.1554 147.605L98.3841 149.733ZM92.838 147.124L97.8314 148.692L98.3223 147.345C98.4625 146.96 98.2381 146.541 97.8243 146.41L94.3338 145.313C93.9199 145.183 93.469 145.392 93.3288 145.777L92.838 147.124Z" fill="#593131"/>
<path d="M97.3186 162.371L83.2205 157.947C81.8646 157.522 81.1367 156.153 81.5952 154.891L84.5885 146.654L103.598 152.621L100.605 160.858C100.147 162.119 98.6745 162.797 97.3186 162.371Z" fill="#593131"/>
<path d="M102.336 153.849L93.2917 152.881C92.9761 152.846 92.6657 152.751 92.3932 152.6L84.5678 148.273C84.17 148.052 83.9945 147.607 84.1401 147.202L84.8844 145.155C85.057 144.679 85.611 144.424 86.1229 144.584L103.51 150.04C104.022 150.201 104.296 150.716 104.123 151.192L103.379 153.239C103.228 153.644 102.793 153.898 102.336 153.849Z" fill="#754343"/>
<path opacity="0.47" d="M110.142 124.3C109.897 124.376 109.642 124.458 109.386 124.54C110.137 129.886 111.794 134.192 113.245 137.122L117.235 136.204L120.502 135.445L116.339 122.797C116.339 122.797 114.936 123.004 112.756 123.563C111.973 123.757 111.093 124.003 110.142 124.3Z" fill="#3150BC"/>
<path d="M169.398 133.894L162.558 135.237C161.862 135.37 161.181 134.958 161.038 134.315L157.943 120.643C157.794 119.996 158.238 119.362 158.934 119.228L165.773 117.886C166.469 117.747 167.15 118.165 167.294 118.807L170.389 132.48C170.538 133.122 170.088 133.756 169.398 133.894Z" fill="#23406D"/>
<path d="M168.839 131.028L161.826 132.406L159.288 121.211C159.189 120.761 159.497 120.325 159.976 120.227L165.244 119.193C165.728 119.101 166.197 119.388 166.301 119.833L168.839 131.028Z" fill="#A8AFBA"/>
<path d="M183.337 160.015C183.518 160.409 183.323 160.86 182.899 161.029L174.168 164.522L173.511 163.102L182.242 159.609C182.666 159.441 183.156 159.626 183.337 160.015Z" fill="#A1A7AF"/>
<path d="M163.211 168.063C164.52 170.898 168.05 172.202 171.092 170.989C174.135 169.775 175.539 166.486 174.23 163.657C172.921 160.827 169.392 159.523 166.354 160.737C163.312 161.956 161.908 165.239 163.211 168.063ZM173.149 164.09C174.2 166.369 173.066 169.004 170.621 169.983C168.176 170.962 165.344 169.914 164.287 167.635C163.235 165.361 164.37 162.721 166.815 161.742C169.26 160.763 172.097 161.817 173.149 164.09Z" fill="#BAC1CC"/>
<path opacity="0.47" d="M156.127 124.155C156.372 124.23 156.628 124.31 156.883 124.391C156.166 129.741 154.537 134.058 153.104 136.997L149.108 136.104L145.837 135.365L149.92 122.692C149.92 122.692 151.325 122.89 153.508 123.435C154.292 123.625 155.174 123.865 156.127 124.155Z" fill="#3150BC"/>
<path opacity="0.47" d="M117.142 106.693L125.606 96.056L122.793 94.3292L121.556 93.5691L120.837 93.1311C118.387 94.419 114.599 97.2949 111.937 103.436C114.897 105.567 117.142 106.693 117.142 106.693Z" fill="#3150BC"/>
<path d="M106.493 71.1649C104.915 69.1863 101.911 68.7707 99.783 70.2398C97.6551 71.7088 97.207 74.5185 98.7963 76.4971C99.5827 77.4762 100.722 78.0697 101.93 78.238C102.871 78.3666 103.759 78.718 104.501 79.2672L105.662 80.1238L108.192 78.3802L107.682 77.1624C107.326 76.3235 107.23 75.4079 107.38 74.5169C107.572 73.3778 107.291 72.1693 106.493 71.1649Z" fill="#F4D242"/>
<path d="M102.41 75.2406C102.134 75.4337 102.075 75.7982 102.282 76.0556C102.49 76.313 102.882 76.3675 103.159 76.1743C103.267 76.1031 103.338 76.0017 103.381 75.8903L106.368 79.6354L106.58 79.488L103.287 75.3593C103.079 75.1018 102.687 75.0525 102.41 75.2406ZM102.995 75.9724C102.837 76.0843 102.609 76.0496 102.494 75.9032C102.379 75.7568 102.411 75.5492 102.569 75.4374C102.726 75.3307 102.949 75.3603 103.069 75.5067C103.19 75.6581 103.152 75.8657 102.995 75.9724Z" fill="white"/>
<path d="M104.225 74.6175C103.948 74.8107 103.889 75.1752 104.097 75.4275L107.041 79.1678L107.252 79.0204L104.614 75.6637C104.74 75.6633 104.865 75.6225 104.968 75.5513C105.244 75.3581 105.303 74.9936 105.096 74.7362C104.894 74.4788 104.502 74.4294 104.225 74.6175ZM104.815 75.3494C104.657 75.4612 104.429 75.4265 104.314 75.2801C104.199 75.1337 104.231 74.9262 104.389 74.8144C104.546 74.7076 104.775 74.7372 104.889 74.8836C105.004 75.0351 104.972 75.2426 104.815 75.3494Z" fill="white"/>
<path d="M108.009 80.5924C107.281 81.0956 106.258 80.9521 105.717 80.2758L105.488 79.9881L108.121 78.1734L108.35 78.4611C108.885 79.1324 108.736 80.0892 108.009 80.5924Z" fill="#383838"/>
<path d="M108.579 78.7336L105.924 80.5636C105.87 80.6042 105.788 80.5893 105.75 80.5388C105.706 80.4884 105.722 80.4124 105.777 80.3768L108.431 78.5469C108.485 78.5062 108.567 78.5211 108.611 78.5716C108.643 78.6221 108.633 78.698 108.579 78.7336Z" fill="#838689"/>
<path d="M108.918 79.1213L106.264 80.9513C106.21 80.9919 106.128 80.977 106.09 80.9265C106.046 80.8761 106.062 80.8001 106.116 80.7645L108.771 78.9346C108.825 78.8939 108.907 78.9088 108.945 78.9593C108.983 79.0098 108.973 79.0807 108.918 79.1213Z" fill="#838689"/>
<path d="M97.8337 76.8954L96.8241 77.5918C96.7155 77.6681 96.5631 77.6432 96.4866 77.5473C96.4047 77.4464 96.4315 77.3046 96.5346 77.2335L97.5443 76.5371C97.6528 76.4608 97.8052 76.4856 97.8817 76.5815C97.9636 76.6774 97.9423 76.8192 97.8337 76.8954Z" fill="#F4D242"/>
<path d="M96.7993 74.9952L95.5541 75.1762C95.4236 75.1968 95.2982 75.1112 95.276 74.9899C95.2539 74.8685 95.346 74.7518 95.4765 74.7312L96.7217 74.5502C96.8522 74.5295 96.9776 74.6151 96.9997 74.7365C97.0219 74.8629 96.9352 74.9745 96.7993 74.9952Z" fill="#F4D242"/>
<path d="M99.2468 77.9326L98.6953 78.9868C98.6358 79.0983 98.6852 79.2348 98.805 79.2901C98.9249 79.3454 99.0716 79.2994 99.1311 79.1828L99.6826 78.1286C99.7421 78.0171 99.6927 77.8806 99.5675 77.8254C99.4476 77.7751 99.3009 77.8211 99.2468 77.9326Z" fill="#F4D242"/>
<path d="M96.7822 72.8503L95.5359 72.6771C95.4053 72.6573 95.3125 72.5462 95.3339 72.4197C95.3552 72.2981 95.4746 72.2118 95.6107 72.2316L96.857 72.4048C96.9876 72.4246 97.0805 72.5356 97.0591 72.6622C97.0377 72.7837 96.9129 72.865 96.7822 72.8503Z" fill="#F4D242"/>
<path d="M97.3152 71.1075L96.2632 70.4631C96.1487 70.3926 96.1211 70.2561 96.1915 70.1496C96.2673 70.0431 96.4141 70.0174 96.5286 70.0828L97.5805 70.7272C97.695 70.7976 97.7226 70.9342 97.6522 71.0407C97.5764 71.1472 97.4242 71.178 97.3152 71.1075Z" fill="#F4D242"/>
<path d="M107.138 70.2925L108.147 69.5961C108.256 69.5199 108.277 69.3832 108.201 69.2822C108.119 69.1813 107.967 69.1615 107.863 69.2377L106.854 69.9341C106.745 70.0104 106.724 70.1471 106.8 70.248C106.877 70.3439 107.029 70.3637 107.138 70.2925Z" fill="#F4D242"/>
<path d="M105.485 68.8208L106.036 67.7666C106.096 67.6551 106.047 67.5186 105.927 67.4633C105.807 67.408 105.66 67.454 105.606 67.5655L105.054 68.6197C104.995 68.7312 105.044 68.8677 105.17 68.923C105.284 68.9833 105.425 68.9323 105.485 68.8208Z" fill="#F4D242"/>
<path d="M107.795 71.8493L109.04 71.6683C109.171 71.6477 109.296 71.7333 109.318 71.8547C109.34 71.976 109.248 72.0927 109.118 72.1134L107.872 72.2944C107.742 72.315 107.617 72.2294 107.594 72.108C107.572 71.9867 107.664 71.87 107.795 71.8493Z" fill="#F4D242"/>
<path d="M103.279 68.1799L103.466 67.0206C103.487 66.8991 103.395 66.783 103.264 66.7632C103.133 66.7434 103.009 66.8298 102.987 66.9513L102.8 68.1106C102.779 68.2321 102.872 68.3482 103.002 68.368C103.139 68.3878 103.263 68.3014 103.279 68.1799Z" fill="#F4D242"/>
<path d="M101.338 68.1502L100.981 67.028C100.943 66.9067 100.806 66.8414 100.681 66.8772C100.551 66.913 100.481 67.0397 100.519 67.156L100.871 68.2782C100.909 68.3995 101.045 68.4649 101.17 68.4291C101.301 68.3932 101.377 68.2665 101.338 68.1502Z" fill="#F4D242"/>
<path d="M98.844 69.4384L98.0958 68.4996C98.0139 68.3987 98.0406 68.2569 98.1438 68.1857C98.2523 68.1095 98.4047 68.1343 98.4812 68.2302L99.2294 69.169C99.3113 69.27 99.2846 69.4117 99.1814 69.4829C99.0729 69.5591 98.9205 69.5394 98.844 69.4384Z" fill="#F4D242"/>
<path opacity="0.47" d="M149.016 106.593L140.486 96.0092L143.287 94.2648L144.52 93.4969L145.237 93.0544C147.694 94.3268 151.5 97.1789 154.201 103.303C151.254 105.453 149.016 106.593 149.016 106.593Z" fill="#3150BC"/>
<path d="M158.244 95.1746C161.104 95.1656 163.416 93.0016 163.408 90.3412C163.4 87.6808 161.074 85.5314 158.214 85.5404C155.354 85.5494 153.042 87.7133 153.05 90.3737C153.059 93.0341 155.384 95.1835 158.244 95.1746Z" fill="#EFA245"/>
<path d="M158.213 84.9377C154.998 84.9478 152.394 87.3798 152.404 90.3753C152.413 93.3708 155.027 95.7863 158.247 95.7762C161.467 95.7661 164.066 93.3342 164.056 90.3387C164.047 87.3432 161.428 84.9276 158.213 84.9377ZM158.244 94.8553C157.744 94.8569 157.259 94.7876 156.807 94.6574C155.294 94.2219 154.088 93.1125 153.616 91.7073C153.473 91.2827 153.395 90.8377 153.394 90.3722C153.393 90.2153 153.404 90.0635 153.42 89.9116C153.615 88.0995 154.97 86.5924 156.786 86.0605C157.237 85.9275 157.721 85.8552 158.221 85.8536C160.892 85.8452 163.069 87.8573 163.077 90.3418C163.074 92.8212 160.91 94.8469 158.244 94.8553Z" fill="#F4D242"/>
<path d="M158.614 90.0114L158.61 88.7059C159.274 88.8101 159.275 89.1946 159.276 89.3313L160.054 89.3288C160.051 88.5648 159.517 88.0756 158.608 87.9722L158.606 87.451L157.828 87.4535L157.83 87.9747C156.916 88.0838 156.39 88.5763 156.393 89.3403C156.395 90.1044 156.93 90.5935 157.838 90.6969L157.843 92.0024C157.179 91.8982 157.177 91.5137 157.177 91.377L156.399 91.3795C156.401 92.1435 156.936 92.6327 157.845 92.7361L157.847 93.2573L158.624 93.2548L158.623 92.7337C159.536 92.6245 160.063 92.132 160.06 91.368C160.058 90.6039 159.529 90.1148 158.614 90.0114ZM157.171 89.3379C157.17 89.2013 157.169 88.8167 157.832 88.7084L157.836 89.9632C157.172 89.859 157.171 89.4796 157.171 89.3379ZM158.621 92L158.617 90.7451C159.281 90.8493 159.282 91.2338 159.282 91.3704C159.283 91.5071 159.284 91.8916 158.621 92Z" fill="#F4D242"/>
<path d="M135.602 217.778L122.355 217.82C122.355 217.82 118.436 174.389 119.662 136.453L136.391 136.401L138.949 169.264C138.955 169.264 135.898 201.081 135.602 217.778Z" fill="#1B3151"/>
<path d="M132.541 217.81C130.993 198.396 135.127 157.98 135.167 157.574L135.863 157.638C135.823 158.044 131.695 198.404 133.237 217.764L132.541 217.81Z" fill="#23406D"/>
<path d="M135.278 225.178C135.286 225.864 135.241 226.397 135.106 226.644C134.466 227.832 112.857 227.631 111.582 227.58C110.467 227.54 110.621 224.224 115.861 222.303C116.622 222.021 117.488 221.771 118.479 221.565C123.704 220.467 123.518 217.822 123.518 217.822L134.382 217.815C134.388 217.81 135.235 222.593 135.278 225.178Z" fill="url(#paint0_linear_1272_47018)"/>
<path d="M135.278 225.179C135.286 225.865 135.241 226.397 135.106 226.645C134.466 227.832 112.856 227.631 111.582 227.58C110.466 227.54 110.621 224.224 115.861 222.303C117.136 222.524 118.514 223.447 119.071 226.185C119.077 226.185 130.313 226.264 135.278 225.179Z" fill="#9EB2EF"/>
<path d="M159.6 226.535C157.962 227.215 152.351 227.441 149.028 227.1C147.924 226.994 147.073 226.816 146.707 226.575C145.217 225.608 146.762 217.771 146.762 217.771L154.775 217.746C154.775 217.746 154.613 220.639 156.711 221.527C157.396 221.816 158.171 222.351 158.828 222.98C158.869 223.019 158.911 223.057 158.946 223.095C159.414 223.544 159.663 223.894 159.663 223.894C160.474 224.968 160.726 226.07 159.6 226.535Z" fill="url(#paint1_linear_1272_47018)"/>
<path d="M159.6 226.534C157.961 227.215 152.35 227.441 149.027 227.1C148.667 223.248 152.06 221.371 154.869 221.362C156.68 221.357 158.028 222.253 158.827 222.98C158.869 223.018 158.91 223.057 158.946 223.095C159.413 223.544 159.662 223.894 159.662 223.894C160.474 224.967 160.725 226.07 159.6 226.534Z" fill="#9EB2EF"/>
<path d="M132.632 137.972L144.318 217.752L156.698 217.713L153.861 148.504C153.861 148.504 154.863 142.584 154.637 136.344L132.632 137.972Z" fill="#23406D"/>
<path d="M153.625 217.733L152.928 217.714C153.672 195.405 149.385 149.171 149.342 148.71C150.01 141.677 148.925 137.926 148.913 137.888L149.585 137.716C149.632 137.869 150.718 141.604 150.038 148.714C150.081 149.12 154.369 195.387 153.625 217.733Z" fill="#38659B"/>
<path d="M116.095 118.636C116.095 118.636 113.614 125.126 107.331 121.743C101.047 118.36 108.246 103.337 108.246 103.337L116.095 118.636Z" fill="url(#paint2_linear_1272_47018)"/>
<path d="M110.921 100.128C110.921 100.128 110.307 98.2257 113.268 97.6511C116.228 97.0765 117.496 98.8124 118.286 100.473L110.921 100.128Z" fill="#FEB19E"/>
<path d="M155.048 112.884C152.804 118.116 152.967 119.219 152.967 119.219L154.637 136.344C154.637 136.344 128.239 144.693 119.663 136.454L118.782 122.63L118.335 115.595L118.251 115.217L114.87 100.309L118.287 100.469C117.693 99.219 116.816 97.9099 115.151 97.5968C116.217 95.0906 118.691 89.9235 121.659 87.8888C125.645 85.1649 133.866 81.8568 145.908 85.0189C157.938 88.192 157.279 107.651 155.048 112.884Z" fill="url(#paint3_linear_1272_47018)"/>
<path d="M152.966 119.219C152.966 119.219 152.635 128.358 143.697 130.867C134.759 133.376 127.582 123.464 126.069 122.668C124.81 122.019 120.297 122.461 118.781 122.63L118.334 115.595L118.25 115.217L125.787 113.876L137.231 123.857L152.966 119.219Z" fill="#3150BC"/>
<path d="M145.002 102.766C145.002 102.766 135.433 105.552 122.23 102.838L122.269 114.968C122.269 114.968 136.681 117.76 147.365 114.889L145.002 102.766Z" fill="#A9D0FF"/>
<path opacity="0.47" d="M147.302 95.2129C147.302 95.2129 140.791 118.802 129.886 111.317L126.846 114.482L142.062 123.205L147.302 95.2129Z" fill="#3150BC"/>
<path d="M138.591 81.4404C138.591 81.4404 141.964 76.7315 140.507 71.3901C139.051 66.0487 135.833 67.2718 135.833 67.2718C135.833 67.2718 138.176 63.7791 134.158 62.0903C130.146 60.4014 127.33 61.7879 130.171 62.7504C130.171 62.7504 124.318 62.7688 120.929 66.1825C117.541 69.5961 115.093 66.1185 114.134 66.8515C113.18 67.5845 114.969 69.9335 116.499 70.1647C116.499 70.1647 112.838 69.4462 112.574 70.177C112.317 70.9078 114.668 75.5164 119.979 75.4174C119.979 75.4174 119.31 78.4109 124.719 81.4785C130.128 84.5462 138.591 81.4404 138.591 81.4404Z" fill="url(#paint4_linear_1272_47018)"/>
<path d="M140.551 85.6492C140.551 85.6492 140.353 86.3578 139.919 87.3307C138.917 89.5842 136.657 93.3016 132.638 93.1716C131.263 93.132 130.806 92.0576 130.666 90.6859C130.459 88.8149 130.811 86.3933 130.177 85.2756L134.068 80.587L136.649 77.4723L137.084 76.944C137.084 76.9495 138.136 81.2054 140.551 85.6492Z" fill="#FEB19E"/>
<path d="M139.921 87.3306C138.919 89.5841 136.659 93.3015 132.64 93.1715C131.265 93.1319 130.807 92.0575 130.667 90.6858C130.46 88.8148 130.813 86.3932 130.178 85.2755L134.07 80.5869L137.041 79.6171C137.041 79.6171 136.975 85.1444 132.295 88.6279C132.295 88.6279 134.693 89.4107 137.876 86.4094C138.541 85.7871 139.239 86.3448 139.921 87.3306Z" fill="#FF856A"/>
<path d="M138.936 82.2851L139.364 83.2662C139.364 83.2662 138.029 88.4572 133.325 90.0088L133.783 94.9527C133.783 94.9527 140.689 91.8134 141.936 85.0419C141.942 85.0419 140.559 82.1921 138.936 82.2851Z" fill="#23406D"/>
<path d="M131.453 89.795L130.897 94.8957C130.897 94.8957 126.757 92.1479 128.114 86.4464C128.114 86.4464 129.681 87.3361 130.854 87.1293C130.849 87.1294 130.273 88.1356 131.453 89.795Z" fill="#23406D"/>
<path d="M121.624 75.0114C122.872 79.8924 124.344 84.5752 128.7 86.7624C129.823 87.3242 131.163 87.2926 132.246 86.6635C134.349 85.4493 137.55 82.6675 137.096 77.1253C137.096 77.1253 138.538 77.6093 138.765 74.9576C138.987 72.3113 138.012 71.8533 136.957 72.0707C135.901 72.2881 136.012 75.8279 136.012 75.8279C136.012 75.8279 132.293 75.0986 131.452 70.4798C131.452 70.4798 129.889 72.554 128.539 73.0851C127.19 73.6163 127.707 71.2655 127.707 71.2655C127.707 71.2655 126.732 74.6331 121.624 75.0114Z" fill="#FEB19E"/>
<path d="M123.143 118.741L111.845 119.523C110.931 119.586 110.138 118.952 110.07 118.102L108.762 101.618C108.694 100.767 109.376 100.03 110.291 99.9663L121.589 99.1843C122.503 99.1211 123.296 99.7553 123.363 100.606L124.672 117.09C124.74 117.94 124.057 118.678 123.143 118.741Z" fill="#BAC1CC"/>
<path d="M122.494 118.743L111.197 119.525C110.282 119.588 109.49 118.954 109.422 118.104L108.113 101.62C108.046 100.769 108.728 100.031 109.642 99.9682L120.94 99.1863C121.855 99.123 122.647 99.7572 122.715 100.608L124.024 117.092C124.091 117.942 123.403 118.68 122.494 118.743Z" fill="#E1E7F4"/>
<path d="M115.709 111.526C116.557 111.467 117.171 110.486 117.079 109.334C116.988 108.182 116.226 107.296 115.378 107.355C114.529 107.413 113.916 108.395 114.007 109.546C114.099 110.698 114.86 111.584 115.709 111.526Z" fill="#F8FBFF"/>
<path d="M127.934 110.554C127.934 110.554 127.195 106.319 123.807 106.17L123.813 107.877C123.813 107.877 121.601 108.373 120.245 106.955C118.89 105.543 117.447 104.467 117.813 108.39C118.173 112.313 121.142 114.209 124.322 113.995L125.546 114.963L129.023 111.659L127.934 110.554Z" fill="#FEB19E"/>
<path d="M145.201 127.947C137.038 130.904 129.6 122.727 126.193 118.133C124.948 116.457 124.248 115.257 124.248 115.257L129.227 110.812L132.03 112.917L140.66 119.421C140.66 119.421 142.133 113.044 143.39 105.581C144.641 98.118 146.727 93.4077 151.131 93.9976C159.85 95.1557 156.341 123.911 145.201 127.947Z" fill="url(#paint5_linear_1272_47018)"/>
<path d="M132.03 112.917C131.173 114.199 129.403 116.29 126.199 118.128C124.954 116.452 124.254 115.253 124.254 115.253L129.232 110.808L132.03 112.917Z" fill="#9EB2EF"/>
</g>
<defs>
<linearGradient id="paint0_linear_1272_47018" x1="125.791" y1="228.967" x2="122.142" y2="220.032" gradientUnits="userSpaceOnUse">
<stop stop-color="#3855E1"/>
<stop offset="1" stop-color="#5C7EF7"/>
</linearGradient>
<linearGradient id="paint1_linear_1272_47018" x1="146.051" y1="222.525" x2="160.349" y2="222.48" gradientUnits="userSpaceOnUse">
<stop stop-color="#3855E1"/>
<stop offset="1" stop-color="#5C7EF7"/>
</linearGradient>
<linearGradient id="paint2_linear_1272_47018" x1="114.573" y1="115.245" x2="107.585" y2="112.065" gradientUnits="userSpaceOnUse">
<stop stop-color="#3855E1"/>
<stop offset="1" stop-color="#5C7EF7"/>
</linearGradient>
<linearGradient id="paint3_linear_1272_47018" x1="138.905" y1="135.638" x2="134.723" y2="85.6753" gradientUnits="userSpaceOnUse">
<stop stop-color="#3855E1"/>
<stop offset="1" stop-color="#5C7EF7"/>
</linearGradient>
<linearGradient id="paint4_linear_1272_47018" x1="128.522" y1="78.2388" x2="125.544" y2="65.6123" gradientUnits="userSpaceOnUse">
<stop stop-color="#1F3A65"/>
<stop offset="1" stop-color="#294A7A"/>
</linearGradient>
<linearGradient id="paint5_linear_1272_47018" x1="142.649" y1="135.325" x2="138.467" y2="85.3614" gradientUnits="userSpaceOnUse">
<stop stop-color="#3855E1"/>
<stop offset="1" stop-color="#5C7EF7"/>
</linearGradient>
<clipPath id="clip0_1272_47018">
<rect width="272" height="253" fill="white"/>
</clipPath>
</defs>
</svg>
