<svg width="116" height="116" viewBox="0 0 116 116" fill="none" xmlns="http://www.w3.org/2000/svg">
<path d="M91.2584 70.2552C91.3805 70.543 91.433 70.8518 91.4122 71.1603C91.4922 70.7966 91.6438 70.4495 91.8594 70.1363C91.9382 70.0207 92.067 69.8952 92.2172 69.9282C92.3675 69.9613 92.4104 70.1297 92.414 70.2585C92.4284 70.6414 92.336 71.0213 92.1457 71.3618C92.4138 71.049 92.76 70.8008 93.1546 70.6384C93.1873 70.6206 93.2239 70.6098 93.2617 70.6069C93.2995 70.6041 93.3375 70.6092 93.3729 70.6219C93.4054 70.6506 93.4287 70.6872 93.44 70.7274C93.4514 70.7677 93.4505 70.81 93.4373 70.8498C93.3809 71.1713 93.2352 71.4739 93.0145 71.728C92.7938 71.9821 92.5056 72.1791 92.1779 72.2999L91.9668 72.3296C91.5065 72.2128 91.1106 71.9404 90.8581 71.5664C90.6055 71.1924 90.5146 70.7444 90.6036 70.3114C90.6358 70.1495 90.736 69.9613 90.9149 69.9579C91.0938 69.9546 91.1975 70.1198 91.2584 70.2552Z" fill="#006BDE"/>
<path d="M96.0459 79.092C95.4251 78.7282 94.7376 78.4719 94.0173 78.3356C94.4457 76.9856 94.4655 75.5531 94.0745 74.1935C93.9389 73.6519 93.6804 73.143 93.316 72.7005C93.1332 72.4806 92.9038 72.2975 92.6417 72.1624C92.3796 72.0272 92.0905 71.9428 91.7918 71.9143C91.4681 71.9095 91.1474 71.9724 90.8537 72.0983C90.56 72.2241 90.3009 72.4097 90.0959 72.641L89.3482 74.2397C89.3042 74.4725 89.2744 74.7074 89.2587 74.9433C89.1697 76.4999 89.5486 78.0488 90.3535 79.419C89.57 80.2118 88.7256 81.5826 88.9796 83.1714H97.8778C98.0352 81.6486 97.4055 79.9971 96.0459 79.092Z" fill="#455A64"/>
<path d="M89.957 79.9276C89.9747 79.8948 89.9976 79.8648 90.025 79.8384C90.0917 79.7556 90.1646 79.6772 90.2433 79.6039C90.5319 79.3263 90.865 79.0913 91.2308 78.9069C91.7722 78.6287 92.3681 78.4524 92.9839 78.3883C93.7427 78.2968 94.5143 78.396 95.2171 78.6757C95.9198 78.9553 96.5278 79.405 96.9768 79.9771C97.35 80.4342 97.6212 80.9552 97.7747 81.5098C97.8781 81.8828 97.9215 82.2679 97.9035 82.6526C97.8973 82.7555 97.8853 82.8581 97.8677 82.9598C97.8654 82.9971 97.8569 83.0339 97.8426 83.0688C97.8762 82.5522 97.8219 82.034 97.6816 81.5329C97.5186 80.9945 97.2453 80.4899 96.8766 80.0465C96.4358 79.4956 95.8445 79.0626 95.1631 78.7916C94.4817 78.5206 93.7347 78.4213 92.9982 78.5039C92.3967 78.5607 91.8126 78.7233 91.2773 78.9829C90.7873 79.2334 90.342 79.552 89.957 79.9276Z" fill="#263238"/>
<path d="M89.2098 75.5304C89.1827 75.3496 89.1827 75.1662 89.2098 74.9854C89.2243 74.5443 89.3063 74.1073 89.4531 73.6873C89.6012 73.2616 89.8619 72.8768 90.2117 72.5675C90.3511 72.4335 90.5245 72.3336 90.7161 72.2769C90.7161 72.2934 90.5265 72.3958 90.2796 72.6303C89.9577 72.9435 89.7135 73.3177 89.5641 73.7269C89.4246 74.1384 89.3334 74.5625 89.2921 74.992C89.284 75.1736 89.2564 75.3539 89.2098 75.5304Z" fill="#263238"/>
<path d="M94.3594 82.1263C94.9019 81.5935 95.4652 81.0789 96.0481 80.5837C95.5984 81.1938 95.025 81.7177 94.3594 82.1263Z" fill="#263238"/>
<path d="M93.3652 81.6477C93.3692 81.3707 93.4175 81.0958 93.5083 80.8318C93.5589 80.5589 93.6517 80.2942 93.7838 80.0457C93.7798 80.3226 93.7316 80.5975 93.6407 80.8615C93.5921 81.1348 93.4993 81.3999 93.3652 81.6477Z" fill="#263238"/>
<path d="M90.7207 80.7358C90.9452 80.9475 91.1184 81.2009 91.2288 81.479C91.3809 81.7385 91.4734 82.0241 91.5007 82.318C91.3444 82.0657 91.2115 81.8016 91.1035 81.5286C90.9542 81.2737 90.8262 81.0087 90.7207 80.7358Z" fill="#263238"/>
<path d="M93.5801 76.8986C93.9426 76.3155 94.3838 75.7772 94.8931 75.2966C94.7304 75.5985 94.5272 75.8804 94.2885 76.1356C94.0867 76.4155 93.8488 76.6717 93.5801 76.8986Z" fill="#263238"/>
<path d="M92.9512 74.3278C93.3695 73.6233 93.8633 72.9594 94.4253 72.3459C94.2389 72.7098 94.011 73.0541 93.7455 73.3732C93.5174 73.7161 93.2512 74.036 92.9512 74.3278Z" fill="#263238"/>
<path d="M91.9471 75.0029C92.0338 75.2867 92.0771 75.5802 92.0759 75.875C92.1223 76.1663 92.1223 76.4623 92.0759 76.7536C91.9485 76.178 91.9088 75.5887 91.9578 75.0029H91.9471Z" fill="#263238"/>
<path d="M87.9531 76.1709C88.3994 76.321 88.8236 76.5219 89.2161 76.7688C89.6319 76.9795 90.0187 77.2357 90.3682 77.5318C89.9445 77.3375 89.5357 77.1168 89.1446 76.8712C88.7302 76.6636 88.3321 76.4296 87.9531 76.1709Z" fill="#263238"/>
<g opacity="0.3">
<path opacity="0.3" d="M91.1524 78.3842C91.5942 78.1707 92.0848 78.0574 92.5835 78.0539C93.1023 78.0308 93.6819 78.0803 94.0326 78.4338V78.4503C92.7184 78.3768 91.4209 78.7518 90.3867 79.504C90.3992 79.2723 90.4762 79.0475 90.6103 78.8513C90.7444 78.6551 90.9312 78.4942 91.1524 78.3842Z" fill="black"/>
</g>
<path d="M95.3959 62.2491C95.6516 62.1859 95.9195 62.1769 96.1795 62.2227C95.8785 62.1307 95.5984 61.9885 95.353 61.8032C95.26 61.7338 95.1669 61.6314 95.2099 61.529C95.2528 61.4266 95.3995 61.4101 95.5176 61.42C95.8424 61.4463 96.1543 61.5498 96.4228 61.7206C96.1848 61.4956 96.0082 61.2216 95.9075 60.9212C95.8935 60.8968 95.8861 60.8696 95.8861 60.842C95.8861 60.8143 95.8935 60.7871 95.9075 60.7627C95.9505 60.7131 96.0364 60.7197 96.1043 60.7363C96.3709 60.8057 96.6136 60.9372 96.8091 61.1183C97.0046 61.2994 97.1463 61.5239 97.2206 61.7701V61.9254C97.0791 62.2445 96.8133 62.5031 96.4756 62.6504C96.138 62.7977 95.7528 62.8231 95.3959 62.7214C95.26 62.6818 95.1097 62.5893 95.124 62.4605C95.1383 62.3317 95.26 62.2788 95.3959 62.2491Z" fill="#006BDE"/>
<path d="M113.334 51.7476C113.378 51.9921 113.362 52.2428 113.287 52.4809C113.41 52.2122 113.586 51.967 113.806 51.7575C113.888 51.6782 114.01 51.6022 114.114 51.6485C114.217 51.6947 114.228 51.8335 114.207 51.9425C114.151 52.239 114.014 52.5175 113.81 52.7517C114.07 52.5496 114.379 52.409 114.711 52.3421C114.739 52.3321 114.77 52.3286 114.8 52.332C114.83 52.3355 114.858 52.3458 114.883 52.362C114.901 52.3892 114.911 52.4207 114.911 52.4528C114.911 52.4849 114.901 52.5164 114.883 52.5436C114.786 52.7829 114.625 52.9953 114.414 53.1602C114.202 53.325 113.949 53.4369 113.677 53.485H113.505C113.175 53.3248 112.92 53.0579 112.79 52.7352C112.665 52.4137 112.672 52.0609 112.811 51.7443C112.865 51.622 112.972 51.4899 113.112 51.5163C113.251 51.5428 113.309 51.632 113.334 51.7476Z" fill="#006BDE"/>
<path d="M100.836 73.2322C100.968 73.2322 101.094 73.252 101.219 73.2619C101.448 70.9134 100.679 68.5318 101.455 66.289L101.351 66.4112C100.416 66.5472 99.4583 66.4678 98.5641 66.18C98.1182 66.0338 97.7093 65.8052 97.3624 65.5081C97.0154 65.2111 96.7377 64.8519 96.5462 64.4525C96.3608 64.0502 96.3028 63.6077 96.3788 63.1763C96.4548 62.7448 96.6617 62.3421 96.9755 62.0147C97.8557 61.1658 99.4049 61.2088 100.507 61.7934C101.609 62.3781 102.321 63.3063 103.011 64.2411C103.377 63.9642 103.788 63.7413 104.228 63.5804C103.001 62.0214 101.813 60.3863 101.426 58.5002C101.015 56.4457 101.838 54.0146 103.92 53.1426C105.684 52.4093 107.895 53.0732 109.14 54.4407C109.237 54.5464 109.319 54.662 109.405 54.771L109.366 54.6587C109.671 53.9334 110.272 53.3476 111.04 53.0269C111.425 52.8744 111.842 52.8049 112.26 52.8238C112.677 52.8427 113.085 52.9495 113.452 53.136C113.812 53.3298 114.112 53.6081 114.319 53.9427C114.526 54.2773 114.634 54.6564 114.632 55.0419C114.596 55.4756 114.435 55.8926 114.166 56.2497C113.896 56.6068 113.529 56.8911 113.101 57.0733C112.272 57.414 111.344 57.4941 110.46 57.3012C110.579 58.026 110.579 58.763 110.46 59.4879C110.126 61.1224 109.443 62.6795 108.453 64.0693C108.711 64.2304 108.951 64.4152 109.169 64.6209C110.768 66.1668 110.872 68.6474 110.031 70.6392C109.19 72.631 106.926 74.1009 105.351 75.6699C105.996 76.755 106.407 77.9451 106.561 79.1745C106.837 78.6431 107.269 78.1931 107.806 77.8746C108.344 77.5562 108.967 77.3818 109.605 77.371C110.292 77.371 111.062 77.6584 111.276 78.2595C111.462 78.7913 111.147 79.3661 110.736 79.779C110.218 80.2584 109.577 80.6095 108.873 80.8C108.169 80.9905 107.424 81.0143 106.707 80.869V80.4792C106.763 81.3724 106.74 82.2683 106.639 83.1581H96.471C96.471 83.1581 93.7483 72.991 100.836 73.2322Z" fill="#455A64"/>
<path d="M84.8203 87.1008H108.846V83.1701H84.8203V87.1008Z" fill="#006BDE"/>
<path d="M107.054 86.322L104.131 98.0712H89.8119L86.6133 86.322H107.054Z" fill="#006BDE"/>
<path d="M84.8359 87.1076C84.8359 87.1505 90.2528 87.1836 96.9363 87.1836C103.62 87.1836 109.04 87.1505 109.04 87.1076C109.04 87.0647 103.623 87.0283 96.9363 87.0283C90.2492 87.0283 84.8359 87.0647 84.8359 87.1076Z" fill="#263238"/>
<path d="M98.9551 73.6211C98.9982 73.5916 99.045 73.5672 99.0946 73.5484C99.2304 73.4822 99.3715 73.4259 99.5168 73.3799C100.055 73.2159 100.624 73.1563 101.188 73.2049C102.027 73.2739 102.835 73.535 103.538 73.9646C104.391 74.5033 105.085 75.2284 105.56 76.0753C106.04 76.9129 106.368 77.818 106.529 78.7541C106.65 79.5197 106.704 80.2929 106.69 81.0663C106.69 81.7269 106.665 82.2488 106.651 82.6155C106.651 82.7872 106.651 82.926 106.63 83.0383C106.636 83.0866 106.636 83.1353 106.63 83.1836C106.625 83.1353 106.625 83.0866 106.63 83.0383C106.63 82.926 106.63 82.7872 106.63 82.6155V81.0531C106.627 80.2889 106.562 79.526 106.436 78.7706C106.275 77.8469 105.95 76.9541 105.474 76.1281C105.009 75.2992 104.332 74.5873 103.503 74.0538C102.817 73.629 102.03 73.3649 101.209 73.2841C100.656 73.2305 100.097 73.2765 99.5633 73.4196C99.1554 73.5319 98.9765 73.6211 98.9551 73.6211Z" fill="#263238"/>
<path d="M101.102 68.6398C101.091 68.6044 101.085 68.5678 101.084 68.5308C101.084 68.4582 101.066 68.3492 101.084 68.2005C101.096 67.212 101.392 66.2441 101.943 65.3962C102.133 65.0961 102.361 64.8178 102.623 64.5671C102.899 64.2911 103.22 64.0561 103.574 63.8701C103.928 63.6838 104.311 63.5479 104.708 63.4671C105.079 63.4 105.458 63.3745 105.836 63.3912C106.472 63.427 107.096 63.5645 107.682 63.7975C108.078 63.9488 108.456 64.1381 108.809 64.3623C108.934 64.4383 109.023 64.5076 109.088 64.5539C109.152 64.6001 109.181 64.6232 109.177 64.6265C109.04 64.5591 108.907 64.4841 108.78 64.4019C108.419 64.1974 108.039 64.0217 107.646 63.8767C107.067 63.6609 106.452 63.5359 105.828 63.5068C105.461 63.4946 105.094 63.5212 104.734 63.5861C104.35 63.6671 103.981 63.7996 103.639 63.9791C103.298 64.156 102.989 64.3786 102.719 64.6398C102.463 64.8841 102.237 65.1544 102.047 65.4457C101.722 65.9388 101.481 66.4745 101.331 67.0345C101.227 67.4133 101.164 67.8005 101.141 68.1906C101.123 68.4879 101.123 68.6398 101.102 68.6398Z" fill="#263238"/>
<path d="M110.54 58.7252C110.489 58.4767 110.46 58.2249 110.454 57.9721C110.436 57.7376 110.407 57.4634 110.354 57.1629C110.301 56.8361 110.205 56.5165 110.067 56.2116C109.812 55.654 109.501 55.1199 109.137 54.6161C108.862 54.2264 108.65 54.015 108.665 54.0018C108.679 53.9885 108.733 54.0414 108.833 54.1372C108.97 54.2728 109.098 54.4163 109.216 54.5666C109.608 55.0614 109.935 55.5969 110.193 56.162C110.336 56.4786 110.431 56.8121 110.475 57.1529C110.518 57.4255 110.543 57.7001 110.55 57.9754C110.568 58.2252 110.565 58.476 110.54 58.7252Z" fill="#263238"/>
<path d="M109.229 79.8013C109.717 80.0834 110.154 80.4345 110.524 80.8418C110.269 80.7164 110.035 80.5573 109.83 80.3694C109.598 80.2108 109.395 80.019 109.229 79.8013Z" fill="#263238"/>
<path d="M110.068 79.0182C110.347 78.9325 110.637 78.8847 110.931 78.8762C111.22 78.8329 111.515 78.8329 111.804 78.8762C111.237 79.009 110.652 79.0613 110.068 79.0314V79.0182Z" fill="#263238"/>
<path d="M109.436 77.6353C109.58 77.4197 109.741 77.2144 109.919 77.0209C110.062 76.804 110.225 76.5985 110.405 76.4065C110.34 76.6596 110.212 76.895 110.029 77.0936C109.883 77.3165 109.679 77.5025 109.436 77.6353Z" fill="#263238"/>
<path d="M108.299 77.0012C108.289 77.309 108.236 77.6144 108.141 77.9096C108.087 78.213 107.99 78.5084 107.852 78.7882C107.859 78.4802 107.912 78.1746 108.009 77.8799C108.06 77.5758 108.158 77.2799 108.299 77.0012Z" fill="#263238"/>
<path d="M107.538 80.1683C107.513 80.1452 107.674 79.9735 107.896 79.7885C108.117 79.6035 108.321 79.4747 108.346 79.4978C108.371 79.5209 108.21 79.696 107.989 79.881C107.767 80.0659 107.563 80.1948 107.538 80.1683Z" fill="#263238"/>
<path d="M104.006 79.5663C104.115 79.3715 104.263 79.1977 104.442 79.0543C104.711 78.8 104.947 78.6084 104.975 78.6315C104.867 78.8263 104.719 79.0001 104.539 79.1435C104.274 79.3912 104.034 79.5663 104.006 79.5663Z" fill="#263238"/>
<path d="M103.242 76.5448C103.31 76.3257 103.42 76.1198 103.568 75.937C103.678 75.7315 103.827 75.5458 104.008 75.3887C103.941 75.6091 103.831 75.8163 103.682 75.9998C103.574 76.2052 103.425 76.3901 103.242 76.5448Z" fill="#263238"/>
<path d="M100.995 74.093C101.064 74.3488 101.091 74.6127 101.074 74.8759C101.099 75.138 101.08 75.4022 101.016 75.6587C100.948 75.404 100.921 75.1412 100.938 74.8792C100.91 74.616 100.93 74.3505 100.995 74.093Z" fill="#263238"/>
<path d="M96.2754 74.9426C96.5213 75.1658 96.7463 75.4078 96.948 75.666C97.1829 75.8974 97.3971 76.1459 97.5885 76.4092C97.2994 76.2321 97.0473 76.0083 96.8443 75.7486C96.6057 75.5123 96.4132 75.2396 96.2754 74.9426Z" fill="#263238"/>
<path d="M95.6699 79.2041C95.9534 79.1913 96.2372 79.2203 96.5107 79.29C96.7926 79.3204 97.0677 79.3906 97.3265 79.4981C97.043 79.5129 96.7588 79.4838 96.4857 79.4122C96.2034 79.3836 95.928 79.3134 95.6699 79.2041Z" fill="#263238"/>
<path d="M100.566 80.6936C100.61 80.3907 100.721 80.0995 100.892 79.8381C101.02 79.5571 101.209 79.3031 101.447 79.0916C101.158 79.6278 100.865 80.1618 100.566 80.6936Z" fill="#263238"/>
<path d="M98.9332 78.6429C98.8625 78.4382 98.8346 78.223 98.851 78.0087C98.823 77.7963 98.84 77.5809 98.901 77.3745C98.9741 77.5787 99.0033 77.7942 98.9869 78.0087C99.0124 78.2214 98.9942 78.4365 98.9332 78.6429Z" fill="#263238"/>
<path d="M104.197 82.2592C104.229 82.0198 104.328 81.7921 104.483 81.5986C104.601 81.3832 104.776 81.199 104.992 81.0635C104.882 81.2751 104.75 81.4765 104.598 81.6646C104.485 81.874 104.351 82.0731 104.197 82.2592Z" fill="#263238"/>
<path d="M98.619 82.5565C98.4631 82.3742 98.3421 82.1686 98.2612 81.9487C98.1397 81.7433 98.0585 81.5196 98.0215 81.2881C98.3045 81.6724 98.5094 82.1011 98.6261 82.5532L98.619 82.5565Z" fill="#263238"/>
<path d="M107.295 73.021C107.603 72.9674 107.917 72.9551 108.229 72.9847C108.541 72.9734 108.853 73.0045 109.155 73.0771C108.847 73.1286 108.533 73.1397 108.222 73.1102C107.91 73.1196 107.598 73.0896 107.295 73.021Z" fill="#263238"/>
<path d="M109.322 69.8193C109.588 69.5657 109.888 69.3438 110.213 69.1587C110.514 68.9382 110.84 68.7499 111.186 68.5972C110.918 68.8498 110.618 69.0716 110.292 69.2578C109.993 69.4786 109.668 69.667 109.322 69.8193Z" fill="#263238"/>
<path d="M109.113 65.6942C109.339 65.53 109.578 65.382 109.829 65.2516C110.054 65.0857 110.293 64.9366 110.544 64.8057C110.169 65.233 109.661 65.5432 109.088 65.6942H109.113Z" fill="#263238"/>
<path d="M106.85 64.2548C106.936 63.5768 107.113 62.9111 107.376 62.2729C107.354 62.6095 107.288 62.9423 107.179 63.2639C107.118 63.6063 107.007 63.9396 106.85 64.2548Z" fill="#263238"/>
<path d="M103.049 63.2197C103.234 63.3942 103.384 63.5978 103.492 63.8209C103.639 64.0228 103.748 64.2461 103.814 64.4815C103.632 64.3056 103.483 64.1023 103.374 63.8804C103.227 63.6781 103.117 63.4549 103.049 63.2197Z" fill="#263238"/>
<path d="M99.7812 70.1527C99.8063 70.1263 100.239 70.4335 100.808 70.7539C101.377 71.0743 101.864 71.3022 101.849 71.3352C101.451 71.239 101.074 71.078 100.737 70.8596C100.374 70.6798 100.05 70.4402 99.7812 70.1527Z" fill="#263238"/>
<path d="M105.078 71.7164C105.484 71.3851 105.949 71.1203 106.452 70.9336C106.043 71.2619 105.579 71.5264 105.078 71.7164Z" fill="#263238"/>
<path d="M105.967 68.3964C105.938 68.3699 106.281 68.0661 106.6 67.6069C106.918 67.1478 107.094 66.7415 107.133 66.7547C107.075 67.0874 106.932 67.4024 106.714 67.673C106.534 67.9674 106.277 68.216 105.967 68.3964Z" fill="#263238"/>
<path d="M104.228 67.6484C104.173 67.3828 104.163 67.1108 104.199 66.8424C104.191 66.5736 104.227 66.3051 104.307 66.0464C104.362 66.3109 104.372 66.5818 104.335 66.849C104.343 67.119 104.307 67.3884 104.228 67.6484Z" fill="#263238"/>
<path d="M103.27 70.9257C103.17 70.6642 103.113 70.3903 103.102 70.1131C103.044 69.8412 103.032 69.5627 103.066 69.2874C103.164 69.5494 103.221 69.823 103.234 70.0999C103.29 70.372 103.302 70.6503 103.27 70.9257Z" fill="#263238"/>
<path d="M100.579 61.0498C100.695 61.3498 100.79 61.6566 100.862 61.9681C100.977 62.2674 101.073 62.5729 101.148 62.883C100.948 62.6175 100.806 62.3176 100.733 62.0011C100.615 61.6963 100.563 61.3731 100.579 61.0498Z" fill="#263238"/>
<path d="M98.6855 66.8069C98.9313 66.6149 99.1907 66.4384 99.4619 66.2783C99.7089 66.0878 99.9708 65.9145 100.245 65.7598C100.054 66.0083 99.8105 66.2194 99.5299 66.3807C99.2824 66.5738 98.9952 66.7187 98.6855 66.8069Z" fill="#263238"/>
<path d="M96.1133 65.033C96.4236 64.9498 96.7406 64.8902 97.0614 64.8546C97.374 64.78 97.6921 64.727 98.0131 64.696C97.4207 64.954 96.7667 65.0677 96.1133 65.0264V65.033Z" fill="#263238"/>
<path d="M98.6187 63.0513C98.6366 63.0215 98.8799 63.1305 99.159 63.2957C99.438 63.4609 99.6491 63.626 99.6277 63.6491C99.4305 63.6029 99.2464 63.5185 99.0874 63.4014C98.8083 63.2495 98.5972 63.0942 98.6187 63.0513Z" fill="#263238"/>
<path d="M97.3711 60.9312C97.6147 61.0386 97.826 61.1997 97.9865 61.4002C98.1789 61.5751 98.3225 61.7904 98.4051 62.0278C98.2124 61.8621 98.0375 61.6795 97.8827 61.4828C97.6931 61.3147 97.5218 61.13 97.3711 60.9312Z" fill="#263238"/>
<path d="M95.668 62.9648C95.9649 63.006 96.2572 63.0723 96.541 63.163C96.8376 63.2164 97.1285 63.2938 97.4104 63.3943C97.1049 63.4157 96.798 63.3786 96.5088 63.2852C96.2086 63.2301 95.9229 63.1212 95.668 62.9648Z" fill="#263238"/>
<path d="M107.46 60.2265C107.432 60.2067 107.818 59.7409 108.226 59.1464C108.466 58.7767 108.728 58.4194 109.01 58.0762C108.843 58.4819 108.618 58.8652 108.341 59.2158C108.1 59.5892 107.804 59.9294 107.46 60.2265Z" fill="#263238"/>
<path d="M106.7 57.7404C106.678 57.4286 106.699 57.1155 106.764 56.8089C106.784 56.4978 106.852 56.1909 106.964 55.8972C106.986 56.2079 106.965 56.5199 106.9 56.8254C106.878 57.1372 106.81 57.4449 106.7 57.7404Z" fill="#263238"/>
<path d="M104.08 58.1257C104.119 58.1257 104.23 58.5981 104.488 59.1464C104.746 59.6947 105.046 60.0977 105.014 60.1208C104.727 59.86 104.504 59.5443 104.363 59.1959C104.183 58.8632 104.086 58.4975 104.08 58.1257Z" fill="#263238"/>
<path d="M101.004 58.7285C101.033 58.7053 101.415 59.1248 101.945 59.5807C102.474 60.0365 102.947 60.3701 102.925 60.3998C102.525 60.2156 102.162 59.9699 101.852 59.6731C101.512 59.4061 101.225 59.0864 101.004 58.7285Z" fill="#263238"/>
<path d="M102.195 53.5679C102.235 53.5679 102.353 54.0865 102.553 54.7141C102.753 55.3417 102.982 55.8371 102.947 55.8536C102.707 55.5149 102.53 55.1422 102.421 54.7504C102.277 54.37 102.201 53.9707 102.195 53.5679Z" fill="#263238"/>
<path d="M105.743 51.8704C105.828 52.1701 105.87 52.4788 105.868 52.7886C105.912 53.0956 105.912 53.4066 105.868 53.7135C105.778 53.4145 105.735 53.1054 105.739 52.7952C105.693 52.4884 105.694 52.1769 105.743 51.8704Z" fill="#263238"/>
<path d="M113.059 56.2343C113.314 56.2292 113.569 56.2458 113.821 56.2839C114.076 56.2826 114.332 56.3047 114.583 56.3499C114.335 56.4286 114.069 56.4491 113.81 56.4094C113.547 56.4118 113.289 56.3514 113.059 56.2343Z" fill="#263238"/>
<path d="M112.844 54.5292C113.169 54.3 113.521 54.104 113.892 53.9445C114.242 53.7503 114.614 53.5919 115.001 53.4722C114.676 53.7014 114.324 53.8974 113.953 54.0568C113.603 54.251 113.231 54.4094 112.844 54.5292Z" fill="#263238"/>
<path d="M110.865 54.5931C110.968 54.0045 111.162 53.4326 111.441 52.8953C111.41 53.1921 111.335 53.4834 111.216 53.7607C111.139 54.0513 111.022 54.3312 110.865 54.5931Z" fill="#263238"/>
<g opacity="0.3">
<path opacity="0.3" d="M105.325 75.6924C105.307 75.2395 105.175 74.7966 104.939 74.3988C104.704 74.001 104.372 73.6591 103.969 73.4C103.171 72.9013 101.729 72.855 101.164 73.225C102.052 73.2483 102.911 73.5214 103.626 74.0078C104.298 74.4699 104.874 75.0407 105.325 75.6924Z" fill="black"/>
</g>
<g opacity="0.3">
<path opacity="0.3" d="M108.454 64.2548C108.271 63.9005 108.001 63.5904 107.666 63.3491C107.33 63.1077 106.939 62.9417 106.522 62.8642C105.699 62.7254 104.536 63.1482 104.229 63.6239C104.942 63.3584 105.726 63.3008 106.475 63.4587C107.181 63.6131 107.851 63.8827 108.454 64.2548Z" fill="black"/>
</g>
<g opacity="0.3">
<path opacity="0.3" d="M110.524 57.4525C110.685 57.1916 110.781 56.9006 110.804 56.601C110.827 56.3014 110.777 56.0009 110.657 55.7217C110.538 55.4689 110.355 55.2466 110.122 55.074C109.89 54.9014 109.615 54.7835 109.322 54.7307C109.959 55.5829 110.46 56.4516 110.507 57.4855" fill="black"/>
</g>
<path d="M97.708 74.1567C97.708 74.1567 97.6007 74.2459 97.4326 74.4276C97.2002 74.6896 96.9976 74.973 96.8279 75.2732C96.3242 76.2847 96.0259 77.3729 95.9477 78.4838C95.8705 79.5964 95.9305 80.7134 96.1266 81.8134C96.1982 82.2362 96.2662 82.5797 96.3163 82.8043C96.3461 82.9261 96.3664 83.0498 96.3771 83.1743C96.3236 83.0597 96.284 82.9401 96.259 82.8175C96.1946 82.583 96.1087 82.2428 96.0229 81.8266C95.7949 80.7212 95.7203 79.5934 95.801 78.4706C95.8767 77.3415 96.1954 76.2377 96.7384 75.2237C96.9216 74.9264 97.1439 74.6512 97.4004 74.4045C97.4848 74.3045 97.5893 74.2204 97.708 74.1567Z" fill="#263238"/>
<path d="M108.847 83.1712H108.775H108.561H107.734L104.7 83.2009L94.7001 83.2207L84.818 83.2042L84.8645 83.158C84.8645 84.3669 84.8645 85.3479 84.8645 86.0383C84.8645 86.3708 84.8645 86.6318 84.8645 86.8211C84.8645 86.9037 84.8645 86.9731 84.8645 87.0259C84.8645 87.0788 84.8645 87.0953 84.8645 87.0953C84.8645 87.0953 84.8645 87.0722 84.8645 87.0259V86.8211C84.8645 86.6329 84.8645 86.3719 84.8467 86.0383C84.8467 85.3479 84.8288 84.3669 84.8145 83.158V83.115H84.8645L94.7466 83.0952L104.747 83.115L107.777 83.1349H108.604H108.818C108.829 83.1462 108.839 83.1584 108.847 83.1712Z" fill="#006BDE"/>
<path d="M26.2978 25.5981C26.2985 25.8675 26.2125 26.1311 26.0508 26.3554C25.8891 26.5797 25.6589 26.7546 25.3894 26.858C25.1199 26.9614 24.8233 26.9887 24.537 26.9363C24.2507 26.8839 23.9877 26.7542 23.7814 26.5637C23.575 26.3731 23.4345 26.1303 23.3778 25.8661C23.321 25.6018 23.3505 25.3279 23.4625 25.0791C23.5745 24.8303 23.764 24.6177 24.007 24.4685C24.2499 24.3192 24.5354 24.2398 24.8273 24.2405C25.0204 24.2405 25.2116 24.2756 25.39 24.3438C25.5684 24.412 25.7305 24.512 25.8671 24.6381C26.0036 24.7642 26.1119 24.9138 26.1858 25.0785C26.2597 25.2433 26.2978 25.4198 26.2978 25.5981Z" fill="white"/>
<path d="M26.2984 25.5987C26.2984 25.5987 26.2984 25.4797 26.2197 25.2683C26.1273 24.9849 25.9377 24.7369 25.6795 24.5615C25.4724 24.4197 25.2267 24.3339 24.9698 24.3135C24.713 24.2931 24.455 24.339 24.2247 24.446C23.9945 24.5531 23.8009 24.7171 23.6657 24.9197C23.5305 25.1223 23.4588 25.3557 23.4588 25.5937C23.4588 25.8317 23.5305 26.065 23.6657 26.2677C23.8009 26.4703 23.9945 26.6343 24.2247 26.7413C24.455 26.8484 24.713 26.8943 24.9698 26.8739C25.2267 26.8535 25.4724 26.7677 25.6795 26.6259C25.9387 26.45 26.1284 26.2006 26.2197 25.9158C26.2841 25.7143 26.2841 25.5854 26.2984 25.5854C26.3287 25.6938 26.3287 25.8074 26.2984 25.9158C26.2317 26.2356 26.0393 26.5215 25.7582 26.7184C25.5551 26.8664 25.3146 26.9644 25.0593 27.0031C24.8039 27.0418 24.5421 27.02 24.2984 26.9397C23.9945 26.8422 23.731 26.6597 23.5445 26.4176C23.358 26.1755 23.2578 25.8858 23.2578 25.5887C23.2578 25.2917 23.358 25.002 23.5445 24.7599C23.731 24.5178 23.9945 24.3353 24.2984 24.2378C24.5425 24.1583 24.8044 24.1372 25.0596 24.1765C25.3149 24.2157 25.5553 24.3141 25.7582 24.4624C26.0316 24.6569 26.2197 24.9361 26.2877 25.2485C26.3264 25.362 26.3302 25.4833 26.2984 25.5987Z" fill="#263238"/>
<path d="M15.4157 27.2567C17.0749 27.1185 18.6524 26.529 19.9487 25.563C21.245 24.597 22.2019 23.2978 22.6983 21.8297C23.1947 20.3616 23.2084 18.7906 22.7376 17.3153C22.2668 15.84 21.3327 14.5267 20.0535 13.5416C18.7742 12.5564 17.2071 11.9437 15.5506 11.7808C13.8941 11.6179 12.2224 11.9122 10.7471 12.6265C9.27173 13.3408 8.05897 14.443 7.26218 15.7936C6.46538 17.1443 6.12035 18.6827 6.27071 20.2144C6.3696 21.2315 6.68469 22.2205 7.19795 23.125C7.71121 24.0295 8.41257 24.8317 9.26192 25.4858C10.1113 26.1398 11.092 26.6329 12.1479 26.9368C13.2038 27.2406 14.3143 27.3494 15.4157 27.2567Z" fill="white"/>
<path d="M15.4164 27.2563C15.372 27.2671 15.3264 27.2726 15.2805 27.2728L14.8797 27.296H14.5864C14.4754 27.296 14.3574 27.296 14.2286 27.296C13.9311 27.2923 13.6344 27.2669 13.3413 27.22C12.5305 27.1114 11.7425 26.8886 11.0049 26.5594C9.21897 25.7803 7.78469 24.4488 6.95082 22.7957C6.11694 21.1426 5.93606 19.2721 6.43955 17.5088C6.54016 17.1465 6.66808 16.7911 6.82238 16.4452C7.31304 15.3605 8.06854 14.3951 9.02993 13.6243C9.69022 13.0766 10.4416 12.6305 11.2554 12.3031C12.9429 11.6151 14.8287 11.4585 16.6222 11.8571C17.4863 12.0424 18.3126 12.3547 19.0694 12.782C19.8066 13.1833 20.4687 13.6919 21.0301 14.2882C21.3052 14.5734 21.5587 14.8758 21.7886 15.1933C22.0082 15.5104 22.2031 15.8416 22.3718 16.1842C23.0145 17.4571 23.2741 18.8662 23.1232 20.2636C23.0035 21.3692 22.6305 22.4386 22.0291 23.401C21.4277 24.3635 20.6115 25.1968 19.6347 25.8459C18.9726 26.2907 18.2401 26.6383 17.463 26.8765C17.1835 26.9709 16.8964 27.0449 16.6043 27.0978C16.4791 27.1242 16.3646 27.1539 16.2465 27.1704L15.9531 27.2068L15.5524 27.2497H15.4164L15.5524 27.2233L15.9459 27.1638L16.2358 27.1209C16.3431 27.1011 16.4576 27.0713 16.5935 27.0416C16.8816 26.9812 17.1649 26.9029 17.4415 26.8071C18.2099 26.5595 18.9336 26.2065 19.5882 25.76C20.4461 25.1738 21.1747 24.4417 21.7349 23.6031C22.4249 22.5879 22.8465 21.4372 22.9657 20.2438C23.1023 18.873 22.8404 17.4933 22.2072 16.247C22.0398 15.9146 21.8473 15.5934 21.6312 15.2858C21.4051 14.9755 21.1565 14.6797 20.887 14.4006C20.6101 14.1168 20.3137 13.8498 19.9997 13.6012C19.6725 13.3585 19.327 13.1377 18.9657 12.9406C18.2252 12.5229 17.4171 12.2174 16.5721 12.0355C15.7002 11.8561 14.8043 11.7971 13.9137 11.8605C13.0193 11.9414 12.1435 12.1475 11.3162 12.4715C10.5313 12.792 9.80672 13.2258 9.16946 13.7564C8.85393 14.0152 8.55637 14.2922 8.27857 14.5855C8.01967 14.8845 7.7807 15.1978 7.563 15.5236C7.13715 16.1516 6.81969 16.8369 6.62202 17.555C6.26247 18.7998 6.24769 20.1079 6.57905 21.3593C6.91041 22.6107 7.57727 23.765 8.51829 24.7162C9.23687 25.4489 10.1018 26.0467 11.0657 26.4768C11.7933 26.8029 12.5702 27.0257 13.3699 27.1374C13.6605 27.1876 13.9546 27.2185 14.25 27.2299C14.3753 27.2299 14.4933 27.2497 14.6078 27.2497H14.9012H15.3019L15.4164 27.2563Z" fill="#263238"/>
<path d="M14.6743 22.3083L11.2539 19.973L12.1376 18.8731L14.4311 20.4355L17.5617 16.9639L18.6995 17.8392L14.6743 22.3083Z" fill="#006BDE"/>
<path d="M17.2798 89.2019L15.4551 103.485H18.2566L23.2727 89.2019H17.2798Z" fill="#E0E0E0"/>
<path d="M27.5047 83.7324L25.6836 98.0151H28.4851L33.5012 83.7324H27.5047Z" fill="#E0E0E0"/>
<path d="M65.3789 89.2019L67.3682 103.485H64.3163L58.8457 89.2019H65.3789Z" fill="#E0E0E0"/>
<path d="M55.875 84.083L57.8643 98.3657H54.8124L49.3418 84.083H55.875Z" fill="#E0E0E0"/>
<path d="M25.6618 36.6796C25.6618 36.6796 18.0051 37.1783 12.8709 39.6161C8.84221 41.5319 6.88154 44.2173 6.07294 50.9689C5.26434 57.7205 0.140831 59.1045 0.00844993 61.4167C-0.120353 63.6727 1.1319 73.308 10.1338 92.6081C10.3364 93.0416 10.6721 93.4109 11.0993 93.6703C11.5266 93.9297 12.0268 94.068 12.5381 94.0681H43.7372V36.2271L25.6618 36.6796Z" fill="#455A64"/>
<path d="M55.3882 36.6796C55.3882 36.6796 63.0448 37.1783 68.1791 39.6161C72.2078 41.5319 74.1684 44.2173 74.977 50.9689C75.7856 57.7205 80.9091 59.1045 81.0415 61.4167C81.1703 63.6793 79.9109 73.3773 70.8267 92.7964C70.6508 93.1713 70.3599 93.4906 69.9899 93.7148C69.6199 93.939 69.187 94.0583 68.7444 94.0582H37.2949V36.2271L55.3882 36.6796Z" fill="#2F444F"/>
<path d="M63.1055 84.3671C63.287 84.3204 63.4725 84.2884 63.66 84.2713C64.1724 84.2221 64.6898 84.2443 65.1949 84.3374C65.9538 84.4853 66.6483 84.837 67.1914 85.3481C67.8322 85.9861 68.3113 86.7477 68.5939 87.5777C68.8854 88.3946 69.0856 89.2369 69.1914 90.0914C69.2988 90.8776 69.3417 91.5877 69.3632 92.1856C69.3846 92.7835 69.3632 93.2657 69.3632 93.5993C69.3709 93.7718 69.359 93.9445 69.3274 94.1146C69.3004 93.944 69.2885 93.7717 69.2916 93.5993C69.2916 93.269 69.2594 92.7835 69.2236 92.1922C69.1878 91.6009 69.1306 90.8908 69.0161 90.1145C68.8999 89.2719 68.6975 88.4413 68.4114 87.6339C68.1379 86.8277 67.6777 86.086 67.0626 85.4604C66.5441 84.9685 65.8834 84.6246 65.1592 84.4695C64.4834 84.3453 63.7918 84.3108 63.1055 84.3671Z" fill="#263238"/>
<path d="M66.2259 76.1455C66.2259 76.195 54.6408 76.2313 40.3579 76.2313C26.075 76.2313 14.4863 76.195 14.4863 76.1455C14.4863 76.0959 26.0679 76.0596 40.3579 76.0596C54.6479 76.0596 66.2259 76.0992 66.2259 76.1455Z" fill="#263238"/>
<path d="M16.7731 83.9567C16.5972 83.988 16.419 84.0068 16.24 84.0129C16.0683 84.0129 15.8643 84.0723 15.6246 84.1053C15.5065 84.1252 15.3849 84.1681 15.2668 84.1978C15.1251 84.2302 14.9873 84.2756 14.8554 84.3333C14.1962 84.58 13.6162 84.9779 13.1702 85.4894C12.63 86.1284 12.2423 86.8658 12.0324 87.6529C11.8198 88.4403 11.6999 89.2465 11.6746 90.0576C11.6475 90.7183 11.6595 91.3799 11.7104 92.0395C11.7533 92.6076 11.8106 93.0634 11.8535 93.3805C11.8838 93.5433 11.9029 93.7077 11.9108 93.8727C11.8468 93.7174 11.8035 93.5554 11.782 93.3904C11.7176 93.0766 11.6389 92.6208 11.5816 92.0494C11.5086 91.3833 11.4823 90.7136 11.5029 90.0444C11.5211 89.2197 11.6411 88.3996 11.8607 87.6001C12.0687 86.7915 12.4642 86.0342 13.0199 85.3804C13.494 84.8509 14.1111 84.4464 14.8088 84.2077C14.946 84.154 15.0886 84.1131 15.2346 84.0855C15.3616 84.0513 15.4906 84.0237 15.621 84.003C15.8643 83.9765 16.0754 83.9369 16.2507 83.9369C16.4251 83.9273 16.6001 83.9339 16.7731 83.9567Z" fill="#263238"/>
<path d="M16.7735 83.9575C16.7587 83.9334 16.7467 83.908 16.7377 83.8815C16.7127 83.8188 16.6805 83.7428 16.6447 83.6503C16.5624 83.4455 16.4444 83.1449 16.3191 82.7486C16.0508 81.9624 15.7109 80.8129 15.3066 79.3893C14.9023 77.9656 14.4336 76.2645 13.9112 74.385C13.3889 72.5056 12.7949 70.4213 12.0901 68.2875C11.7323 67.2206 11.3745 66.1735 10.9094 65.2056C10.8061 64.9634 10.6866 64.7273 10.5516 64.4988C10.43 64.2709 10.294 64.0463 10.1545 63.8382C9.87896 63.3955 9.6142 62.9628 9.34228 62.5499C8.85727 61.7539 8.19808 61.0599 7.40665 60.5119C6.68918 60.0704 5.87152 59.7867 5.01664 59.6828C3.77373 59.5187 2.50591 59.6872 1.36363 60.1684C0.948663 60.3517 0.551287 60.5672 0.175781 60.8125C0.175781 60.8125 0.197249 60.7894 0.240183 60.7563L0.451277 60.6011C0.726096 60.4103 1.02096 60.2454 1.33143 60.1089C2.48122 59.596 3.76864 59.4053 5.03453 59.5606C5.91217 59.6603 6.7532 59.9451 7.49252 60.393C8.30828 60.9465 8.98753 61.6535 9.4854 62.4674C9.76805 62.8803 10.0328 63.3163 10.3083 63.7556C10.4478 63.9736 10.5874 64.1982 10.7126 64.436C10.8469 64.6683 10.9663 64.9076 11.0704 65.1528C11.5232 66.1651 11.9197 67.1981 12.2582 68.2478C12.9738 70.4015 13.5499 72.4725 14.0686 74.3586C14.5874 76.2447 15.0454 77.9161 15.4318 79.3595C15.8182 80.803 16.1474 81.9393 16.3871 82.7287C16.5052 83.1284 16.6089 83.4323 16.6769 83.6371L16.7556 83.8749C16.7656 83.9016 16.7716 83.9293 16.7735 83.9575Z" fill="#263238"/>
<path d="M57.3632 69.8488C57.3632 69.8488 57.2559 69.8488 57.0448 69.8488H56.1038H52.4866H39.1912L30.0104 69.8323L24.912 69.8059C24.0318 69.8059 23.1409 69.8059 22.2429 69.8488C22.0232 69.8563 21.8044 69.8784 21.5881 69.9149C21.3785 69.9875 21.1752 70.0747 20.9799 70.1758C20.5792 70.374 20.1892 70.5953 19.7992 70.8364C19.0192 71.2956 18.25 71.7943 17.4986 72.3261C16.7321 72.8548 16.0065 73.432 15.3269 74.0537C14.9801 74.3587 14.6858 74.7106 14.4539 75.0975C14.4075 75.1903 14.3785 75.2897 14.368 75.3914C14.3813 75.4976 14.404 75.6026 14.436 75.7052L14.6113 76.3659C14.8474 77.2544 15.1014 78.1463 15.3555 79.048C15.6095 79.9498 15.885 80.8548 16.1533 81.7698C16.2965 82.2256 16.436 82.6815 16.5791 83.1406C16.6542 83.3685 16.7294 83.5964 16.8152 83.8012C16.8152 83.8309 16.8367 83.8409 16.8439 83.864C16.851 83.8871 16.8439 83.8871 16.8439 83.8871C16.8439 83.8871 16.9619 83.9036 17.0263 83.9069C17.1516 83.9069 17.2839 83.9267 17.4128 83.9333C19.4915 84.0258 21.6096 84.0423 23.7492 84.0754C32.3146 84.1679 40.4757 84.1778 47.8998 84.1613C51.61 84.1613 55.1378 84.1315 58.4366 84.0919C60.086 84.0688 61.6781 84.0456 63.2095 83.9928C63.5923 83.9928 63.9716 83.9631 64.3401 83.9366L64.6192 83.9135C64.6657 83.9135 64.705 83.9135 64.748 83.8937C64.782 83.8892 64.8128 83.8726 64.8338 83.8475C64.9442 83.7223 65.0301 83.5803 65.0879 83.428C65.3319 82.8132 65.5362 82.1856 65.6997 81.5485C66.0575 80.2933 66.3222 79.0877 66.5798 77.9448C66.6442 77.6574 66.7086 77.3766 66.7695 77.0992C66.8481 76.8354 66.8902 76.5635 66.8947 76.2899C66.778 75.7758 66.5078 75.3021 66.1147 74.9224C65.4208 74.2158 64.6552 73.572 63.8284 73C63.0771 72.455 62.3723 71.9826 61.739 71.5532C61.2025 71.1479 60.6304 70.7844 60.0288 70.4665C59.5749 70.2553 59.0941 70.0977 58.5976 69.9974C58.2925 69.9349 57.9828 69.8941 57.6709 69.8752H57.4312H57.3489C57.3489 69.8752 57.4598 69.8752 57.6709 69.8752C57.985 69.8849 58.2975 69.9203 58.6048 69.9809C59.1013 70.0761 59.5824 70.2305 60.0359 70.4401C60.6459 70.7502 61.2243 71.1107 61.764 71.5169C62.4009 71.943 63.1093 72.412 63.8678 72.9504C64.7012 73.5236 65.4739 74.1684 66.1755 74.8762C66.5844 75.2704 66.8658 75.7624 66.9877 76.2965C66.9874 76.5799 66.9465 76.862 66.8661 77.1355C66.8052 77.4163 66.7408 77.697 66.68 77.9811C66.4224 79.1273 66.1505 80.3362 65.8106 81.5947C65.6432 82.2421 65.4341 82.8796 65.1845 83.5039C65.1199 83.6737 65.023 83.8314 64.8982 83.9697C64.8592 84.0109 64.8063 84.0388 64.748 84.0489C64.7009 84.0599 64.6531 84.0676 64.6049 84.0721L64.3222 84.0985C63.9465 84.1249 63.5673 84.1414 63.1844 84.1547C61.6495 84.2108 60.0574 84.2372 58.4044 84.2637C55.1056 84.3099 51.5778 84.3363 47.8676 84.3495C40.4435 84.3727 32.2824 84.3694 23.7134 84.2769C21.5667 84.2438 19.4557 84.2273 17.3698 84.1348C17.2374 84.1348 17.1086 84.1348 16.9762 84.1084L16.7723 84.082C16.7413 84.0739 16.7114 84.0628 16.6829 84.0489C16.6614 84.0324 16.6614 84.0126 16.6471 83.9961C16.6266 83.9636 16.6099 83.9293 16.597 83.8937C16.504 83.6625 16.4288 83.4346 16.3573 83.2066C16.2142 82.7475 16.071 82.2884 15.9315 81.8325L15.1336 79.1075C14.876 78.2057 14.6256 77.3106 14.3894 76.422L14.2141 75.7614C14.177 75.6451 14.1531 75.5255 14.1426 75.4047C14.1522 75.2797 14.1874 75.1575 14.2463 75.0446C14.4854 74.6404 14.7908 74.2727 15.1515 73.9546C15.8398 73.3299 16.5725 72.7484 17.3448 72.2138C18.1033 71.682 18.8725 71.1833 19.6597 70.7208C20.0532 70.4896 20.4468 70.2683 20.8547 70.0602C21.0581 69.9554 21.2698 69.8649 21.4879 69.7893C21.7237 69.7455 21.9631 69.7212 22.2035 69.7167C23.123 69.6572 24.0175 69.6572 24.912 69.6572L30.0247 69.6969L39.2056 69.7332L52.5045 69.8026L56.1181 69.829H57.0591L57.3632 69.8488Z" fill="#263238"/>
<path d="M65.0957 83.9567C65.0976 83.9285 65.1036 83.9008 65.1136 83.8741C65.1351 83.8114 65.1565 83.7321 65.1887 83.6396C65.2531 83.4315 65.3569 83.1276 65.4571 82.7312C65.6861 81.9418 65.9544 80.7857 66.2728 79.3521C66.5913 77.9186 66.9562 76.2076 67.3641 74.3116C67.7719 72.4156 68.2478 70.3478 68.8668 68.1711C69.16 67.1146 69.5257 66.0764 69.9616 65.0628C70.0797 64.8184 70.2156 64.5872 70.3409 64.3526C70.4661 64.1181 70.6235 63.9067 70.7702 63.692C71.0575 63.2705 71.3692 62.8637 71.704 62.4732C72.3159 61.7387 73.0617 61.1082 73.908 60.6102C74.6549 60.1855 75.4919 59.914 76.3624 59.8142C77.6216 59.6644 78.9008 59.8561 80.044 60.3658C80.3511 60.5062 80.6443 60.6709 80.9206 60.8579L81.1281 61.0099C81.1711 61.0462 81.1961 61.066 81.1925 61.0693C80.8197 60.8191 80.4247 60.5981 80.0118 60.4087C78.8758 59.9317 77.6169 59.7611 76.3803 59.9165C75.5303 60.0242 74.7146 60.2966 73.9867 60.7159C73.162 61.2108 72.4358 61.8332 71.84 62.5557C71.5103 62.9433 71.2034 63.3468 70.9205 63.7647C70.7774 63.9794 70.6235 64.1941 70.4983 64.4253C70.3731 64.6565 70.2443 64.8811 70.1405 65.119C69.714 66.1259 69.3555 67.1562 69.0671 68.2041C68.4517 70.361 67.9938 72.442 67.5537 74.3347C67.1136 76.2274 66.7594 77.9351 66.4231 79.3654C66.0868 80.7956 65.797 81.9517 65.5501 82.7378C65.4356 83.1342 65.3211 83.4348 65.246 83.6396C65.2066 83.7321 65.178 83.8081 65.153 83.8708C65.138 83.9016 65.1188 83.9305 65.0957 83.9567Z" fill="#263238"/>
<path d="M65.9401 41.4556C65.9902 41.4556 64.3587 47.8372 62.2943 55.6855C60.2299 63.5337 58.5161 69.8889 58.466 69.8724C58.4159 69.8559 60.0474 63.4907 62.1118 55.6425C64.1762 47.7943 65.89 41.4457 65.9401 41.4556Z" fill="#263238"/>
<path d="M14.7109 43.4841C14.7541 43.5691 14.7889 43.6576 14.8147 43.7484C14.8755 43.9367 14.9614 44.1877 15.0687 44.5081C15.2906 45.1885 15.5982 46.1431 15.9775 47.3157C16.7324 49.6907 17.7664 52.9773 18.8398 56.6174C19.9132 60.2574 20.8756 63.5539 21.5482 65.9586C21.8738 67.1477 22.1386 68.1122 22.3282 68.7993C22.4105 69.1296 22.4785 69.3839 22.5286 69.5755C22.5562 69.6652 22.5753 69.7569 22.5858 69.8497C22.5464 69.7632 22.5153 69.6736 22.4928 69.5821C22.432 69.3938 22.3568 69.1395 22.2567 68.8158C22.0527 68.1321 21.7701 67.1642 21.4194 65.9916C20.7039 63.5903 19.7343 60.3003 18.6609 56.6636L15.8523 47.3488L15.0043 44.5279C14.9113 44.1976 14.8362 43.9466 14.7789 43.7583C14.7484 43.6687 14.7257 43.577 14.7109 43.4841Z" fill="#263238"/>
<path d="M28.6862 5.13123C28.7314 4.65252 28.9596 4.20427 29.3299 3.86661C29.7003 3.52895 30.1886 3.3239 30.7077 3.28809C30.0994 2.36652 30.6075 1.03535 31.6415 0.529976C32.1731 0.300673 32.7669 0.223435 33.3465 0.308198C33.9261 0.392962 34.4649 0.635852 34.8938 1.00563C35.1516 0.611212 35.544 0.306942 36.0093 0.140522C36.4746 -0.0258983 36.9866 -0.0450633 37.465 0.0860328C37.9434 0.217129 38.3611 0.491073 38.6527 0.864921C38.9443 1.23877 39.0933 1.69139 39.0763 2.15181C40.0244 1.87105 41.0978 2.59113 41.2838 3.49618C41.3491 3.95322 41.2733 4.41799 41.065 4.83699C40.8568 5.25598 40.5246 5.61216 40.1067 5.86452C40.5897 6.19484 40.5397 6.94134 40.1461 7.36745C39.7091 7.76463 39.1388 8.01275 38.5289 8.07101L34.7578 9.10489C33.8526 9.57063 32.7399 9.80846 31.7739 9.46493C30.8078 9.12141 30.1102 8.06771 30.4751 7.17256C29.9632 7.0834 29.5022 6.82916 29.1745 6.45525C28.8468 6.08133 28.6737 5.61206 28.6862 5.13123Z" fill="#18315B"/>
<path d="M28.7227 4.73813C28.7613 4.69454 28.8058 4.65569 28.855 4.62252C28.9983 4.52347 29.1594 4.44855 29.3309 4.40121C29.6052 4.32679 29.8951 4.31545 30.1753 4.36818C30.5564 4.43198 30.9003 4.61942 31.1449 4.89668L31.034 4.92971C31.069 4.45763 31.2787 4.01101 31.6279 3.66461C32.0291 3.2569 32.5582 2.97512 33.1413 2.85865C33.7939 2.74727 34.4676 2.8174 35.077 3.06014C35.7316 3.31541 36.3178 3.69986 36.7943 4.1865C37.0357 4.42286 37.2167 4.70617 37.3239 5.01559C37.3743 5.17225 37.3867 5.33727 37.3602 5.49886C37.3336 5.66046 37.2686 5.81463 37.17 5.95038C37.0774 6.09302 36.9419 6.20777 36.78 6.28069C36.6187 6.34947 36.4362 6.36351 36.2648 6.32032C36.1041 6.27762 35.9581 6.19698 35.8414 6.08634C35.7248 5.97571 35.6413 5.83891 35.5993 5.68943C35.5642 5.54959 35.561 5.40453 35.59 5.2635C35.6189 5.12246 35.6794 4.98854 35.7675 4.87025C35.9277 4.64806 36.1555 4.47453 36.4222 4.37148C36.8913 4.20258 37.4036 4.16355 37.8963 4.25917C38.6064 4.37941 39.2553 4.7085 39.7461 5.19726C39.8812 5.32734 40.0011 5.47016 40.1039 5.62336C40.1419 5.67428 40.172 5.72987 40.1933 5.78852C40.0426 5.5974 39.8789 5.41536 39.7031 5.24351C39.2071 4.78884 38.5711 4.48661 37.882 4.37808C37.4149 4.29603 36.9322 4.33842 36.4902 4.5003C36.2538 4.59347 36.0532 4.74995 35.9142 4.94953C35.8395 5.0509 35.7882 5.1654 35.7636 5.28589C35.7389 5.40638 35.7415 5.53025 35.7711 5.64979C35.8073 5.77069 35.8762 5.88111 35.9713 5.97067C36.0664 6.06023 36.1847 6.12599 36.3149 6.16178C36.4521 6.18974 36.5955 6.17665 36.7241 6.12439C36.8528 6.07213 36.9601 5.98341 37.0305 5.8711C37.114 5.75529 37.1685 5.62378 37.1902 5.4861C37.2119 5.34841 37.2001 5.208 37.1557 5.07504C37.0549 4.79156 36.8875 4.53213 36.6655 4.31532C35.7317 3.36072 34.365 2.80249 33.1843 3.02711C32.6356 3.13256 32.1357 3.39217 31.7531 3.77031C31.4207 4.09135 31.2163 4.50716 31.1735 4.94953V5.10147L31.0733 4.98256C30.8516 4.7197 30.5358 4.53823 30.1824 4.47057C29.9178 4.41194 29.642 4.41194 29.3774 4.47057C29.1445 4.52529 28.9231 4.61573 28.7227 4.73813Z" fill="#18315B"/>
<path d="M32.2218 8.33251C32.2146 8.36315 32.2012 8.39229 32.1824 8.41839C32.1335 8.49883 32.0679 8.56955 31.9892 8.62649C31.8619 8.71957 31.7122 8.78301 31.5527 8.81146C31.3317 8.85036 31.1029 8.81398 30.9087 8.70906L30.5509 8.51418L30.9373 8.62319L31.3452 8.73549L31.8533 8.87753L31.3237 8.84119C31.1293 8.82639 30.9435 8.76058 30.7882 8.65151C30.6329 8.54244 30.5147 8.39467 30.4474 8.2256C30.3801 8.05654 30.3665 7.87323 30.4083 7.69729C30.4501 7.52134 30.5455 7.3601 30.6833 7.23257L30.805 7.32505C30.5648 7.63426 30.2356 7.87522 29.8548 8.02065C29.474 8.16609 29.0566 8.2102 28.65 8.14798C28.2434 8.08576 27.8638 7.9197 27.5542 7.66861C27.2445 7.41751 27.0172 7.0914 26.8979 6.72719C26.796 6.46531 26.7569 6.1861 26.7835 5.9089C26.81 5.6317 26.9016 5.36315 27.0518 5.12187C27.1938 4.88415 27.4319 4.70798 27.7141 4.63185C27.9964 4.55572 28.2998 4.58583 28.5581 4.71559L28.4543 4.84441C28.1441 4.59122 27.955 4.23496 27.9284 3.85347C27.8927 3.51331 27.9767 3.1716 28.1681 2.87905C28.3388 2.61795 28.6054 2.42218 28.9194 2.32743C29.184 2.24846 29.4662 2.23367 29.7388 2.28448C30.1223 2.34934 30.4684 2.5378 30.7155 2.81629C30.803 2.91295 30.8676 3.02548 30.9051 3.1466C30.9051 3.1466 30.8407 3.02769 30.6726 2.84932C30.4216 2.59678 30.0844 2.43124 29.7173 2.38028C29.4645 2.34077 29.205 2.36007 28.9624 2.43643C28.68 2.52899 28.442 2.71021 28.2897 2.94841C28.1229 3.21888 28.0516 3.53063 28.0858 3.84026C28.1171 4.17919 28.2888 4.49391 28.5652 4.71889L28.4615 4.84441C28.2422 4.74141 27.988 4.72177 27.7533 4.78968C27.5186 4.85759 27.322 5.00767 27.2056 5.20775C27.0721 5.42838 26.9915 5.67292 26.9693 5.92481C26.9471 6.17671 26.9837 6.43007 27.0768 6.66774C27.1953 7.02061 27.4231 7.33374 27.7321 7.56852C28.0411 7.80331 28.4178 7.94947 28.8157 7.98899C29.1703 8.02046 29.5278 7.9671 29.8537 7.83404C30.1795 7.70098 30.4628 7.4927 30.6762 7.22927L30.7942 7.32175C30.6679 7.44044 30.5829 7.59136 30.5504 7.75505C30.5179 7.91873 30.5393 8.08766 30.6118 8.24002C30.6776 8.3691 30.7777 8.48071 30.9028 8.56446C31.0279 8.6482 31.174 8.70135 31.3273 8.71897L31.3023 8.82468L30.898 8.69916L30.9445 8.61328C31.114 8.71394 31.3181 8.75279 31.517 8.72228C31.6671 8.70338 31.8104 8.65249 31.9356 8.57364C32.0418 8.50495 32.138 8.4239 32.2218 8.33251Z" fill="#263238"/>
<path d="M42.9213 6.28333C43.0375 6.14562 43.1439 6.00107 43.2397 5.85062C43.4815 5.4354 43.5599 4.95563 43.4616 4.49303C43.3559 4.05882 43.0893 3.67232 42.7078 3.40031C42.3263 3.12831 41.8538 2.98789 41.3721 3.00333C41.2697 2.99873 41.1676 3.01568 41.0734 3.05287C40.9792 3.09006 40.8954 3.14654 40.8282 3.21803C40.7964 3.24989 40.7733 3.28834 40.7609 3.33016C40.7485 3.37198 40.7471 3.41594 40.7569 3.45834C40.7668 3.50074 40.7875 3.54034 40.8173 3.57382C40.8471 3.6073 40.8853 3.63368 40.9284 3.65073C41.144 3.71231 41.3768 3.69577 41.5796 3.60449C41.7966 3.52754 41.9948 3.41135 42.1625 3.26274C42.3303 3.11413 42.4642 2.93609 42.5564 2.73907C42.6348 2.55435 42.6672 2.35569 42.6511 2.15784C42.635 1.95998 42.5708 1.76802 42.4633 1.59619C42.2774 1.2975 42.0088 1.04984 41.685 0.878606C41.3612 0.707373 40.9939 0.61873 40.6207 0.621769C40.1089 0.625306 39.6138 0.79087 39.2182 1.09081C38.9391 1.30552 38.8318 1.47067 38.8175 1.45746C38.8032 1.44425 38.8175 1.41452 38.889 1.33855C38.971 1.23003 39.0658 1.13032 39.1717 1.04127C39.5677 0.7046 40.0826 0.512105 40.6207 0.499555C40.9927 0.49186 41.361 0.567813 41.6941 0.720864C42.0825 0.893187 42.4045 1.17094 42.6172 1.51692C42.7404 1.70915 42.8145 1.92483 42.8337 2.14752C42.853 2.3702 42.8168 2.59401 42.7281 2.80183C42.6287 3.02024 42.4823 3.21775 42.2978 3.38241C42.1133 3.54706 41.8945 3.67543 41.6547 3.75974C41.4062 3.86855 41.1219 3.8851 40.8605 3.80598C40.7904 3.7791 40.7287 3.73671 40.6806 3.68256C40.6326 3.6284 40.5997 3.56415 40.585 3.49549C40.5736 3.42973 40.5766 3.36253 40.5938 3.29786C40.611 3.23318 40.6421 3.17234 40.6851 3.11893C40.7682 3.02679 40.8729 2.95332 40.9913 2.9041C41.1097 2.85488 41.2387 2.8312 41.3685 2.83486C41.8888 2.82059 42.3978 2.9765 42.8057 3.27507C43.2135 3.57364 43.494 3.99566 43.5975 4.46661C43.6934 4.95472 43.5901 5.45832 43.3077 5.88035C43.2339 5.99377 43.1462 6.09905 43.0465 6.19414C43.009 6.22861 42.9669 6.25858 42.9213 6.28333Z" fill="#263238"/>
<path d="M31.5875 9.06917C32.0132 8.31936 33.1832 8.22357 34.0276 8.55718C33.9889 8.26542 34.042 7.96954 34.1804 7.70484C34.3189 7.44014 34.5368 7.21776 34.8083 7.06423C35.0798 6.91071 35.3934 6.8325 35.7117 6.83893C36.0301 6.84536 36.3397 6.93616 36.6036 7.1005C36.804 7.22602 37.0044 7.40109 37.2476 7.38457C37.4909 7.36806 37.677 7.15335 37.8595 6.9915C38.0248 6.8398 38.2225 6.72151 38.4401 6.64412C38.6576 6.56673 38.8902 6.53195 39.123 6.54197C39.3559 6.55199 39.584 6.6066 39.7928 6.70234C40.0015 6.79807 40.1865 6.93283 40.3358 7.09807C40.4852 7.26331 40.5957 7.45542 40.6604 7.66219C40.725 7.86896 40.7424 8.08589 40.7114 8.2992C40.6804 8.5125 40.6017 8.71753 40.4803 8.90126C40.3589 9.08498 40.1974 9.2434 40.0062 9.36645L39.8917 8.95356C38.4678 10.196 36.6638 11.0034 34.7252 11.2657C33.9199 11.4254 33.0796 11.3276 32.3424 10.9883C31.6447 10.6117 31.2082 9.7364 31.5875 9.06917Z" fill="#407BFF"/>
<path d="M29.5142 15.6951C29.172 15.2098 29.0013 14.6385 29.0257 14.0599C29.05 13.4813 29.2682 12.9239 29.6502 12.4646C29.958 12.1173 30.3554 11.847 30.8059 11.6785C30.853 10.9653 31.1436 10.2842 31.6359 9.73292C32.3873 8.95668 33.8292 8.70234 34.6521 9.40261C34.8192 9.10124 35.0502 8.83392 35.3313 8.61647C35.6124 8.39903 35.938 8.23588 36.2886 8.1367C36.6393 8.03752 37.0079 8.00432 37.3727 8.03907C37.7375 8.07382 38.0911 8.17581 38.4124 8.339C39.4858 7.16309 41.7863 7.23906 42.781 8.48103C43.1082 8.27556 43.4933 8.16292 43.889 8.15698C44.2846 8.15104 44.6736 8.25206 45.0078 8.44761C45.3421 8.64315 45.6071 8.92468 45.7702 9.25752C45.9333 9.59037 45.9875 9.95999 45.9259 10.3209C46.3105 10.2622 46.7051 10.2983 47.0698 10.4255C47.4345 10.5527 47.7563 10.7666 48.0028 11.0454C48.2493 11.3242 48.4116 11.6582 48.4735 12.0135C48.5354 12.3688 48.4947 12.733 48.3553 13.0691C48.6782 13.0886 48.9875 13.1961 49.2442 13.3781C49.5008 13.56 49.6932 13.8081 49.797 14.0911C49.9009 14.374 49.9114 14.679 49.8274 14.9675C49.7433 15.2559 49.5685 15.5149 49.3249 15.7116C49.522 15.9413 49.6661 16.2059 49.7483 16.489C49.8305 16.772 49.849 17.0677 49.8028 17.3576C49.7565 17.6476 49.6465 17.9257 49.4794 18.1749C49.3123 18.4241 49.0917 18.6391 48.8312 18.8066C48.9269 19.2362 48.8482 19.6832 48.61 20.0627C48.3719 20.4422 47.9909 20.7275 47.5396 20.8645L34.0116 24.5772C31.7397 24.4285 31.1243 23.0643 31.0313 21.7959C30.7476 21.7037 30.489 21.5558 30.2731 21.3625C30.0573 21.1692 29.8894 20.935 29.7809 20.676C29.6724 20.4171 29.626 20.1395 29.6448 19.8624C29.6637 19.5853 29.7473 19.3153 29.8899 19.0709C29.5862 18.8964 29.33 18.6597 29.1414 18.3792C28.9527 18.0986 28.8365 17.7817 28.8019 17.453C28.7673 17.1243 28.8152 16.7926 28.9418 16.4838C29.0685 16.1749 29.2705 15.8971 29.5321 15.6719L29.5142 15.6951Z" fill="#18315B"/>
<path d="M34.7962 12.8807L43.0933 11.1929C45.7409 11.0079 47.3868 14.0534 47.4905 16.501C47.5907 19.2228 47.5943 22.5457 47.1828 24.5639C46.3528 28.6069 42.9538 29.0297 42.9538 29.0297C42.9538 29.0297 42.9538 29.0892 42.8787 30.2981L42.8178 32.28C42.8077 33.075 42.4963 33.8417 41.9377 34.4469C40.6318 35.8077 38.4314 35.8606 35.9197 34.8168C34.4635 34.2123 34.553 33.4493 34.3741 31.5731L33.1934 13.8354C33.3709 13.5795 33.6059 13.3619 33.8824 13.1972C34.1589 13.0325 34.4706 12.9246 34.7962 12.8807Z" fill="#FFA681"/>
<path d="M45.7595 20.1599C45.7567 20.2966 45.6959 20.4268 45.5902 20.5226C45.4845 20.6183 45.3423 20.6719 45.1942 20.6719C45.1221 20.6759 45.0499 20.6664 44.982 20.6439C44.914 20.6214 44.8517 20.5864 44.7988 20.541C44.746 20.4956 44.7037 20.4407 44.6744 20.3798C44.6452 20.3188 44.6297 20.253 44.6289 20.1864C44.6317 20.0502 44.692 19.9205 44.7969 19.8249C44.9019 19.7292 45.0432 19.6752 45.1906 19.6744C45.2626 19.6713 45.3346 19.6814 45.4023 19.7042C45.4701 19.727 45.5322 19.7621 45.5851 19.8072C45.6381 19.8524 45.6807 19.9069 45.7107 19.9674C45.7406 20.028 45.7572 20.0934 45.7595 20.1599Z" fill="#263238"/>
<path d="M46.4566 18.5749C46.385 18.6409 45.9628 18.337 45.3546 18.3238C44.7463 18.3106 44.2812 18.5782 44.2275 18.5055C44.1739 18.4328 44.2705 18.3535 44.4708 18.228C44.7396 18.0667 45.0557 17.986 45.376 17.9968C45.6928 18.0042 45.9987 18.1048 46.249 18.2842C46.4315 18.4229 46.4923 18.5451 46.4566 18.5749Z" fill="#263238"/>
<path d="M40.4665 20.0023C40.4637 20.1384 40.4034 20.2681 40.2985 20.3638C40.1936 20.4594 40.0523 20.5134 39.9048 20.5142C39.8328 20.5173 39.7608 20.5072 39.6931 20.4844C39.6254 20.4616 39.5632 20.4266 39.5103 20.3814C39.4574 20.3362 39.4147 20.2817 39.3848 20.2212C39.3548 20.1606 39.3382 20.0952 39.3359 20.0287C39.3387 19.8923 39.3989 19.7622 39.5037 19.666C39.6086 19.5698 39.7499 19.5151 39.8977 19.5134C39.9701 19.5098 40.0425 19.5198 40.1107 19.5426C40.1789 19.5655 40.2414 19.6008 40.2945 19.6464C40.3476 19.692 40.3902 19.747 40.4197 19.8082C40.4493 19.8693 40.4652 19.9353 40.4665 20.0023Z" fill="#263238"/>
<path d="M40.6962 18.5748C40.6246 18.6409 40.206 18.337 39.5977 18.3237C38.9895 18.3105 38.5244 18.5781 38.4671 18.5054C38.4099 18.4328 38.5101 18.3535 38.7104 18.228C38.9794 18.0671 39.2954 17.9863 39.6156 17.9967C39.9324 18.0041 40.2383 18.1048 40.4886 18.2841C40.6568 18.4228 40.7319 18.5451 40.6962 18.5748Z" fill="#263238"/>
<path d="M42.418 22.343C42.7419 22.2583 43.0761 22.2117 43.4126 22.2043C43.57 22.2043 43.7167 22.1713 43.7454 22.0722C43.7638 21.9239 43.7325 21.7741 43.6559 21.6428C43.5199 21.2926 43.3804 20.9227 43.2301 20.5395C42.6398 18.9639 42.2176 17.6724 42.2892 17.6526C42.3607 17.6328 42.8902 18.8879 43.4806 20.4602C43.6201 20.85 43.7561 21.22 43.8849 21.5734C43.9774 21.7489 44.0002 21.9488 43.9493 22.1382C43.9247 22.1886 43.8881 22.2331 43.8423 22.2686C43.7964 22.304 43.7425 22.3295 43.6845 22.343C43.5976 22.3606 43.5088 22.3694 43.4198 22.3694C43.086 22.4001 42.7493 22.3912 42.418 22.343Z" fill="#263238"/>
<path d="M42.9735 29.0293C40.8942 29.0041 38.8637 28.4448 37.1094 27.4141C37.1094 27.4141 38.4797 30.3043 42.9091 30.0566L42.9735 29.0293Z" fill="#9B6D61"/>
<path d="M40.3565 23.4629C40.4396 23.3526 40.5511 23.2631 40.6811 23.2026C40.811 23.142 40.9552 23.1123 41.1007 23.1161C41.3059 23.1066 41.51 23.1485 41.6914 23.2375C41.8728 23.3265 42.0248 23.4592 42.1311 23.6214C42.2084 23.7701 42.22 23.9407 42.1633 24.0971C42.124 24.1797 42.1633 24.14 42.0846 24.1929C41.8488 24.4027 41.5616 24.5568 41.2474 24.6421C41.0786 24.676 40.9026 24.6627 40.742 24.6038C40.5814 24.545 40.4435 24.4433 40.3458 24.3118C40.2634 24.1829 40.2208 24.0356 40.2227 23.886C40.2246 23.7363 40.2709 23.59 40.3565 23.4629Z" fill="#C26F5A"/>
<path d="M40.5045 22.7005C40.6046 22.7005 40.5903 23.3083 41.1449 23.7542C41.6995 24.2001 42.4043 24.1473 42.4079 24.2331C42.4115 24.319 42.2469 24.3488 41.9499 24.3488C41.5567 24.3496 41.176 24.2208 40.8766 23.9854C40.5941 23.7619 40.417 23.4455 40.3828 23.1035C40.3828 22.8458 40.458 22.6972 40.5045 22.7005Z" fill="#263238"/>
<path d="M40.7838 16.1248C40.7301 16.28 40.1183 16.2239 39.4063 16.3229C38.6943 16.422 38.1218 16.6136 38.0217 16.4815C37.9787 16.4154 38.0753 16.2701 38.3043 16.1149C38.6078 15.923 38.9558 15.7997 39.3204 15.7548C39.6809 15.7082 40.0481 15.7388 40.3938 15.844C40.6729 15.9365 40.8088 16.0521 40.7838 16.1248Z" fill="#263238"/>
<path d="M46.3353 16.5699C46.2101 16.6921 45.7486 16.5368 45.1868 16.5005C44.6251 16.4642 44.1421 16.5335 44.0383 16.3948C43.9954 16.3287 44.0777 16.2032 44.2924 16.0942C44.5857 15.9592 44.9143 15.9031 45.2405 15.9324C45.5675 15.9519 45.8816 16.0573 46.1457 16.2363C46.3353 16.375 46.3819 16.5104 46.3353 16.5699Z" fill="#263238"/>
<path d="M43.1582 10.7422C43.1596 10.7719 43.1596 10.8017 43.1582 10.8314V10.7422Z" fill="#263238"/>
<path d="M34.3661 20.148C34.375 20.0209 34.3339 19.8952 34.2505 19.7938C34.167 19.6925 34.0467 19.6224 33.9117 19.5964C33.1961 19.4543 31.9367 19.4543 31.8115 21.1092C31.6361 23.3983 34.1621 23.0911 34.1728 23.0217C34.1836 22.9524 34.3088 21.0233 34.3661 20.148Z" fill="#FFA681"/>
<path d="M33.5005 22.092C33.5005 22.092 33.454 22.1151 33.3788 22.1416C33.2744 22.1807 33.1576 22.1807 33.0532 22.1416C32.9006 22.037 32.7807 21.8969 32.7059 21.7356C32.6311 21.5742 32.604 21.3975 32.6275 21.2233C32.6348 21.0259 32.6911 20.8327 32.7921 20.6585C32.8215 20.5875 32.8697 20.5243 32.9321 20.4748C32.9946 20.4252 33.0694 20.3907 33.1498 20.3744C33.2004 20.3657 33.2526 20.3734 33.2976 20.3963C33.3427 20.4192 33.3777 20.4558 33.3967 20.4999C33.4253 20.566 33.3967 20.6122 33.4182 20.6155C33.4396 20.6188 33.4754 20.5792 33.4611 20.4834C33.4508 20.4265 33.4207 20.3743 33.3752 20.3348C33.3112 20.2831 33.2276 20.257 33.1427 20.2621C33.0388 20.2747 32.9402 20.3116 32.8563 20.3695C32.7723 20.4273 32.7059 20.5041 32.6633 20.5924C32.5409 20.7842 32.4721 21.0009 32.4629 21.2233C32.4629 21.6857 32.6668 22.135 33.021 22.2539C33.0859 22.2759 33.1553 22.284 33.2241 22.2778C33.2929 22.2715 33.3592 22.2509 33.4182 22.2175C33.4718 22.1581 33.5005 22.1085 33.5005 22.092Z" fill="#6F4439"/>
<path d="M48.3652 17.8419C48.1335 17.8459 47.9039 17.8017 47.6933 17.7125C47.4827 17.6233 47.2966 17.4915 47.1488 17.3268C47.001 17.1621 46.8952 16.9687 46.8395 16.7611C46.7837 16.5535 46.7794 16.337 46.8267 16.1276C46.5763 16.1324 46.3282 16.0831 46.1021 15.9836C45.876 15.8841 45.6782 15.7372 45.5246 15.5546C45.3709 15.372 45.2656 15.1588 45.2172 14.9319C45.1687 14.7051 45.1783 14.4709 45.2453 14.2481C44.9755 14.3701 44.6793 14.4343 44.3789 14.4359C44.0784 14.4376 43.7815 14.3766 43.5101 14.2575C43.2388 14.1384 43 13.9644 42.8117 13.7483C42.6233 13.5322 42.4903 13.2796 42.4224 13.0094C42.417 13.1019 42.3855 13.1915 42.3308 13.2692C42.2762 13.3468 42.2004 13.4099 42.1111 13.452C41.9292 13.5344 41.7258 13.5677 41.5243 13.5478C41.1954 13.5232 40.8794 13.4185 40.6085 13.2444C40.3376 13.0703 40.1215 12.8331 39.9822 12.5569C39.7721 12.8633 39.4522 13.092 39.0782 13.2031C38.7043 13.3141 38.2999 13.3005 37.9357 13.1647C37.6709 13.059 37.4169 12.8343 37.4598 12.5701C37.4826 12.4758 37.5265 12.3869 37.5887 12.3092C38.3436 11.2555 39.7139 10.6576 41.0735 10.5651C42.4444 10.5046 43.814 10.7082 45.095 11.163C45.8737 11.3607 46.5933 11.72 47.1988 12.2134C47.8106 12.7749 48.1255 13.5346 48.4224 14.3042C48.6567 14.8446 48.8352 15.4042 48.9555 15.9756C49.073 16.552 49.0072 17.1474 48.7659 17.6899H48.5942" fill="#18315B"/>
<path d="M37.9339 12.5131C37.9154 13.0057 37.7146 13.4776 37.365 13.8503C37.0154 14.2229 36.5382 14.4737 36.0126 14.561C36.2854 14.6549 36.5097 14.8404 36.6407 15.0804C36.7717 15.3204 36.7998 15.5972 36.7194 15.8555C36.6389 16.1138 36.4559 16.3345 36.2068 16.4736C35.9577 16.6126 35.6609 16.6598 35.3758 16.6056C35.5503 16.9299 35.649 17.2844 35.6656 17.6461C35.6699 17.8267 35.6148 18.0042 35.5074 18.1552C35.4001 18.3062 35.2456 18.4235 35.0645 18.4917C35.1866 18.61 35.276 18.7537 35.3252 18.9107C35.3744 19.0677 35.3819 19.2332 35.3471 19.3935C35.3013 19.5822 35.1868 19.7507 35.0228 19.8709C34.8587 19.9911 34.655 20.0557 34.4455 20.0541C34.0877 20.0541 33.7836 19.6379 33.4222 19.5751C33.1504 19.5306 32.8709 19.546 32.6067 19.62C32.3424 19.694 32.1009 19.8247 31.9017 20.0012L31.4473 15.7303L32.0054 12.305L34.1736 10.845L38.3454 11.5221L37.9339 12.5131Z" fill="#18315B"/>
<path d="M30.9961 12.6326C31.1438 12.6264 31.2908 12.611 31.4362 12.5864C31.6207 12.5444 31.7918 12.4626 31.9355 12.3478C32.0791 12.233 32.1913 12.0883 32.2627 11.9257L32.3664 11.6714L32.4058 11.9422C32.4614 12.2743 32.6521 12.5743 32.9389 12.7812C33.1025 12.8996 33.294 12.9807 33.4979 13.018C33.7018 13.0553 33.9123 13.0477 34.1124 12.9959C34.3774 12.9338 34.6165 12.8005 34.7994 12.6128L34.8817 12.5269L34.9461 12.6227C35.173 12.9436 35.5052 13.189 35.8942 13.3229C36.2076 13.4291 36.5455 13.4575 36.8745 13.4055C37.1721 13.3456 37.458 13.2443 37.7225 13.1049C37.7225 13.1049 37.6724 13.1743 37.5364 13.2602C37.342 13.3804 37.1247 13.4656 36.896 13.5112C36.5472 13.5855 36.1829 13.5683 35.8441 13.4617C35.4128 13.327 35.0425 13.0631 34.7922 12.7119H34.9389C34.7334 12.9272 34.4631 13.0813 34.1625 13.1545C33.9339 13.2123 33.6936 13.219 33.4616 13.1742C33.2295 13.1294 33.0124 13.0344 32.828 12.8968C32.5116 12.6615 32.3074 12.3213 32.2591 11.9488L32.4022 11.9654C32.3209 12.1464 32.1913 12.3055 32.0256 12.428C31.8598 12.5504 31.6632 12.6321 31.4541 12.6656C31.3015 12.6999 31.141 12.6884 30.9961 12.6326Z" fill="#455A64"/>
<path d="M37.4896 8.15049C37.1732 8.28727 36.8661 8.4417 36.5701 8.61293C36.2659 8.81023 36.0299 9.08433 35.8903 9.40238C35.8061 9.58929 35.7795 9.79407 35.8136 9.99404C35.8477 10.194 35.9411 10.3814 36.0835 10.5353C36.1805 10.6382 36.3033 10.7176 36.4413 10.7666L36.5522 10.8029L36.4878 10.8954C36.3973 11.0513 36.3499 11.2255 36.3499 11.4024C36.3499 11.5793 36.3973 11.7535 36.4878 11.9094C36.6346 12.1688 36.8424 12.3945 37.096 12.5701C37.5325 12.8806 37.8366 13.0325 37.8116 13.0589C37.7865 13.0854 37.7257 13.0391 37.5862 12.9731C37.3837 12.8792 37.1909 12.7687 37.0101 12.6427C36.723 12.4662 36.4891 12.2252 36.3303 11.9425C36.2229 11.763 36.1665 11.5613 36.1665 11.3562C36.1665 11.1511 36.2229 10.9494 36.3303 10.7699L36.3769 10.8987C36.2091 10.8404 36.0592 10.7451 35.9404 10.6212C35.7707 10.4434 35.6603 10.2241 35.6222 9.9898C35.5841 9.75545 35.62 9.51595 35.7257 9.29998C35.881 8.95682 36.1471 8.66618 36.4878 8.46759C36.7098 8.33518 36.9506 8.23181 37.2033 8.1604C37.3822 8.1538 37.486 8.13728 37.4896 8.15049Z" fill="#455A64"/>
<path d="M50.9522 21.8254C50.9522 21.8254 50.9272 21.8452 50.8663 21.8683C50.7773 21.898 50.6849 21.918 50.5908 21.9278C50.2367 21.9538 49.8847 21.8572 49.6033 21.6569C49.4404 21.5313 49.3104 21.3732 49.2233 21.1944C49.1361 21.0157 49.094 20.821 49.1002 20.6251C49.1064 20.4292 49.1607 20.2371 49.259 20.0634C49.3574 19.8896 49.4971 19.7388 49.6677 19.6222C49.8101 19.525 49.981 19.4697 50.1579 19.4636C50.2536 19.463 50.3482 19.4826 50.4344 19.5209C50.5206 19.5593 50.5962 19.6154 50.6552 19.6849C50.7107 19.7594 50.743 19.8465 50.7487 19.9368C50.7544 20.027 50.7332 20.117 50.6874 20.1969C50.6072 20.3422 50.4829 20.4627 50.3297 20.5437C50.0463 20.6854 49.7163 20.7254 49.403 20.656C49.144 20.6039 48.9035 20.492 48.7039 20.3308C48.5043 20.1697 48.3522 19.9645 48.2616 19.7345C48.1429 19.4323 48.1108 19.1068 48.1686 18.7898C48.1796 18.6736 48.2174 18.561 48.2795 18.4595C48.2795 18.4595 48.2581 18.5817 48.2402 18.7898C48.2124 19.0947 48.2627 19.4013 48.3869 19.6849C48.4739 19.8758 48.6045 20.047 48.7697 20.187C48.9612 20.3423 49.1929 20.4493 49.4423 20.4975C49.713 20.5531 49.9963 20.5168 50.2402 20.3951C50.4763 20.2762 50.6695 19.9822 50.5085 19.784C50.466 19.7346 50.4114 19.6951 50.3493 19.6687C50.2871 19.6423 50.2191 19.6298 50.1508 19.6321C50.011 19.636 49.876 19.6799 49.7644 19.7576C49.5388 19.9075 49.3759 20.1244 49.3028 20.372C49.2346 20.5825 49.2337 20.8068 49.3004 21.0178C49.367 21.2288 49.4983 21.4174 49.6785 21.5611C49.9317 21.7548 50.2513 21.859 50.5801 21.8551C50.8234 21.8584 50.9486 21.8088 50.9522 21.8254Z" fill="#263238"/>
<path d="M31.4323 18.9441C31.3376 19.0164 31.2281 19.0703 31.1103 19.1026C30.7978 19.2092 30.4667 19.2619 30.1335 19.2579C29.6367 19.2603 29.1439 19.1762 28.6809 19.0101C28.5361 18.9567 28.4049 18.8759 28.2959 18.7729C28.1868 18.67 28.1023 18.5471 28.0476 18.4123C27.9855 18.2612 27.9855 18.0943 28.0476 17.9432C28.0842 17.8673 28.137 17.799 28.2028 17.7422C28.2685 17.6855 28.3459 17.6415 28.4304 17.6129C28.536 17.5799 28.6504 17.5799 28.756 17.6129L28.6916 17.7715C28.424 17.6442 28.2037 17.4461 28.059 17.2024C27.9143 16.9587 27.8518 16.6807 27.8795 16.404C27.9 16.162 27.9999 15.9316 28.1657 15.7433C28.3399 15.5525 28.5673 15.4091 28.8233 15.3288C29.0793 15.2485 29.3542 15.2342 29.6183 15.2875C29.7327 15.306 29.8399 15.3515 29.9296 15.4196C29.9296 15.4196 29.8151 15.3833 29.604 15.3536C29.3114 15.3139 29.0126 15.3589 28.7489 15.4824C28.5501 15.5641 28.3787 15.6937 28.2528 15.8576C28.1269 16.0215 28.0511 16.2136 28.0333 16.4139C28.0136 16.6563 28.0708 16.8988 28.1978 17.1117C28.3249 17.3246 28.5164 17.4988 28.7489 17.6129L28.6809 17.7715C28.6121 17.7519 28.5386 17.7519 28.4698 17.7715C28.3475 17.8156 28.2486 17.9022 28.1943 18.0126C28.1494 18.1256 28.1494 18.2497 28.1943 18.3627C28.2401 18.4766 28.3112 18.5804 28.403 18.6674C28.4948 18.7544 28.6053 18.8228 28.7274 18.8681C29.1663 19.0345 29.6342 19.1263 30.1085 19.1389C30.5589 19.1491 31.0076 19.0831 31.4323 18.9441Z" fill="#263238"/>
<path d="M48.4863 49.6172C48.5972 49.7725 52.5901 54.7238 52.5901 54.7238L57.4238 50.5817L54.329 43.3908L52.4649 40.4609L48.4863 49.6172Z" fill="#FFA681"/>
<g opacity="0.3">
<path opacity="0.3" d="M32.7616 94.0685L30.7472 94.0322L30.0317 77.8634L25.6523 76.1458L33.6095 71.6238L54.8227 85.4705L59.0589 94.0685H32.7616Z" fill="black"/>
</g>
<path d="M46.7363 88.5123L50.4788 95.0591L56.0388 92.2019L53.5951 85.0671L46.7363 88.5123Z" fill="#EFA793"/>
<path d="M49.8544 94.1694C49.8544 94.1694 55.579 94.3313 55.6935 90.9258L56.0012 91.6128L64.5379 96.7921C65.894 97.684 65.7866 98.7046 65.4288 99.2298C65.2977 99.4231 65.1095 99.5777 64.8864 99.6754C64.6632 99.7731 64.4145 99.8099 64.1694 99.7815C61.5146 99.471 51.7506 98.2752 51.2605 97.5485L50.7524 96.9143C49.9367 96.0258 49.6791 94.9325 49.9438 94.5361L49.8544 94.1694Z" fill="#263238"/>
<g opacity="0.6">
<path opacity="0.6" d="M65.2875 99.4063L50.7578 96.9158L51.0762 97.3122C51.3804 97.7746 51.7203 97.8043 52.1496 97.9331C53.4627 98.3064 56.7472 98.9043 64.1283 99.806C64.34 99.8317 64.5554 99.8086 64.7551 99.7389C64.9549 99.6692 65.1329 99.5549 65.2732 99.4063H65.2875Z" fill="white"/>
</g>
<g opacity="0.6">
<path opacity="0.6" d="M51.7677 95.2113C51.9609 95.2102 52.1477 95.2749 52.2923 95.3932C52.437 95.5115 52.5292 95.6749 52.5512 95.8521C52.5594 96.0306 52.4931 96.2051 52.3659 96.3397C52.2387 96.4744 52.0604 96.5588 51.8678 96.5755C51.6628 96.5756 51.465 96.5054 51.3129 96.3784C51.1609 96.2515 51.0653 96.0768 51.0449 95.8885C51.0578 95.7024 51.148 95.5282 51.2966 95.402C51.4452 95.2759 51.6409 95.2075 51.8428 95.2113" fill="white"/>
</g>
<path d="M58.4953 96.2653C58.574 96.2653 58.4094 95.6047 58.803 94.9243C59.1966 94.2438 59.8406 93.9829 59.8084 93.9168C59.7762 93.8507 59.6116 93.9168 59.3468 94.0357C59.0093 94.2183 58.7349 94.4858 58.5556 94.8068C58.3764 95.1279 58.2996 95.4894 58.3343 95.8491C58.3701 96.1233 58.4631 96.2752 58.4953 96.2653Z" fill="white"/>
<path d="M60.1168 96.8267C60.1991 96.8267 60.2814 96.3049 60.6928 95.8061C61.1043 95.3073 61.6231 95.0794 61.5945 95.01C61.5658 94.9407 60.9326 95.0761 60.471 95.6508C60.0095 96.2256 60.0452 96.8367 60.1168 96.8267Z" fill="white"/>
<path d="M56.6618 95.6438C56.7334 95.6438 56.8407 94.9501 57.3345 94.23C57.8282 93.5099 58.4579 93.1102 58.4078 93.0541C58.3577 92.9979 57.6386 93.3349 57.1198 94.1144C56.601 94.8939 56.601 95.6504 56.6618 95.6438Z" fill="white"/>
<path d="M56.8607 93.5591C56.8607 93.5591 56.764 93.4236 56.5208 93.2486C56.1719 93.0002 55.7729 92.8183 55.3472 92.7135C55.042 92.6114 54.709 92.6044 54.3991 92.6936C54.3006 92.7326 54.2173 92.7984 54.1604 92.8822C54.1035 92.966 54.0757 93.0639 54.0807 93.1627C54.1058 93.3543 54.2064 93.5306 54.3633 93.6582C54.6915 93.9099 55.1048 94.0476 55.5315 94.0476C55.9582 94.0476 56.3714 93.9099 56.6996 93.6582C57.0175 93.4032 57.2458 93.0665 57.3555 92.6911C57.4651 92.3157 57.451 91.9187 57.315 91.5508C57.2806 91.4576 57.2248 91.3725 57.1513 91.3012C57.0777 91.2299 56.9884 91.1742 56.8893 91.1379C56.7857 91.1113 56.6757 91.1155 56.5749 91.1499C56.4741 91.1843 56.3875 91.2471 56.3276 91.3295C56.1637 91.5821 56.076 91.8707 56.0735 92.1652C56.0379 92.5698 56.0816 92.9771 56.2023 93.3675C56.2359 93.5133 56.303 93.6507 56.3991 93.7705C56.2743 93.2481 56.2345 92.7115 56.281 92.1784C56.2948 91.9226 56.3772 91.6741 56.5208 91.455C56.5528 91.4099 56.5995 91.3753 56.6541 91.3563C56.7088 91.3373 56.7686 91.3349 56.8249 91.3493C56.8875 91.378 56.943 91.4184 56.9879 91.4678C57.0329 91.5173 57.0663 91.5747 57.0861 91.6367C57.1928 91.9577 57.1972 92.3002 57.0989 92.6235C57.0006 92.9468 56.8036 93.2372 56.5315 93.46C56.2542 93.6721 55.9073 93.7911 55.5473 93.7977C55.1873 93.8043 54.8355 93.6981 54.5494 93.4963C54.4396 93.4121 54.365 93.2954 54.3383 93.166C54.3322 93.1116 54.3452 93.0568 54.3755 93.0098C54.4058 92.9628 54.4517 92.9261 54.5064 92.9051C54.767 92.8275 55.0473 92.8275 55.3079 92.9051C55.8619 93.0401 56.387 93.2613 56.8607 93.5591Z" fill="white"/>
<path d="M34.5742 97.0732C34.6028 97.0732 34.6422 105.143 34.6422 105.143C34.6422 105.143 40.6995 106.018 40.6995 105.876C40.6995 105.734 42.4885 98.0245 42.4885 98.0245L34.5742 97.0732Z" fill="#EFA793"/>
<path d="M41.2996 103.681C41.2996 103.681 36.8953 106.746 34.7378 103.981L34.6555 104.718L30.6913 113.412C30.1009 114.852 30.8057 115.645 31.4068 115.896C31.6325 115.989 31.8824 116.021 32.1272 115.988C32.3719 115.955 32.6012 115.857 32.7879 115.707C34.8022 114.082 42.1869 108.067 42.1583 107.212L42.1977 106.422C42.3372 105.266 41.9007 104.222 41.4356 104.034L41.2996 103.681Z" fill="#263238"/>
<g opacity="0.6">
<path opacity="0.6" d="M31.6504 115.958L42.2123 106.415L42.1872 106.911C42.2123 107.449 41.9511 107.651 41.6577 107.984C40.7954 108.975 38.4376 111.159 32.8418 115.7C32.6818 115.831 32.4892 115.923 32.2813 115.968C32.0733 116.013 31.8566 116.009 31.6504 115.958Z" fill="white"/>
</g>
<g opacity="0.6">
<path opacity="0.6" d="M40.34 105.524C40.1788 105.622 40.0626 105.772 40.0138 105.944C39.9649 106.117 39.9868 106.3 40.0752 106.459C40.1758 106.611 40.3356 106.722 40.522 106.768C40.7083 106.815 40.9069 106.794 41.077 106.71C41.2471 106.605 41.3691 106.445 41.4193 106.262C41.4695 106.079 41.4445 105.886 41.3489 105.719C41.2259 105.57 41.0455 105.471 40.8454 105.443C40.6453 105.415 40.4411 105.459 40.2756 105.567" fill="white"/>
</g>
<path d="M35.3893 109.86C35.3177 109.886 35.0637 109.265 34.3159 108.902C33.5681 108.539 32.8848 108.654 32.8848 108.572C32.8848 108.489 33.0386 108.459 33.3356 108.433C33.7272 108.412 34.1173 108.494 34.4605 108.669C34.8037 108.845 35.0861 109.106 35.2748 109.424C35.4107 109.678 35.4215 109.85 35.3893 109.86Z" fill="white"/>
<path d="M34.3809 111.158C34.3201 111.204 33.9337 110.808 33.3075 110.606C32.6814 110.405 32.0946 110.481 32.0803 110.408C32.066 110.335 32.6671 110.124 33.397 110.365C34.1269 110.606 34.4489 111.128 34.3809 111.158Z" fill="white"/>
<path d="M36.5435 108.4C36.4898 108.446 35.9746 107.914 35.1123 107.571C34.2501 107.227 33.5023 107.217 33.5059 107.151C33.5095 107.085 34.3109 106.99 35.2125 107.369C36.1141 107.749 36.5971 108.374 36.5435 108.4Z" fill="white"/>
<path d="M35.1175 106.771C35.1149 106.622 35.1466 106.473 35.2105 106.335C35.351 105.95 35.5722 105.594 35.8617 105.288C36.0546 105.048 36.3271 104.871 36.6381 104.786C36.7436 104.768 36.8528 104.779 36.9508 104.82C37.0487 104.861 37.1307 104.929 37.1855 105.014C37.2807 105.185 37.3037 105.383 37.2499 105.569C37.1259 105.945 36.8638 106.27 36.5087 106.488C36.1535 106.706 35.7274 106.802 35.3035 106.761C34.8854 106.711 34.4928 106.547 34.1747 106.292C33.8565 106.036 33.6269 105.7 33.5146 105.325C33.4877 105.23 33.483 105.131 33.5009 105.035C33.5188 104.939 33.5588 104.847 33.6183 104.766C33.6881 104.69 33.782 104.637 33.8867 104.613C33.9915 104.589 34.1016 104.597 34.2015 104.634C34.4889 104.761 34.7356 104.954 34.9171 105.196C35.1913 105.514 35.401 105.876 35.5361 106.263C35.6007 106.399 35.6312 106.547 35.6255 106.695C35.4162 106.197 35.1267 105.73 34.7668 105.311C34.5995 105.107 34.3809 104.944 34.13 104.836C34.0759 104.814 34.0156 104.809 33.9582 104.821C33.9007 104.834 33.8493 104.863 33.8115 104.905C33.7768 104.961 33.7548 105.022 33.7468 105.086C33.7388 105.149 33.745 105.214 33.765 105.275C33.8704 105.597 34.0738 105.884 34.3511 106.102C34.6283 106.32 34.9677 106.459 35.3286 106.504C35.6874 106.537 36.0479 106.457 36.3513 106.278C36.6547 106.098 36.8832 105.828 36.9994 105.513C37.038 105.384 37.0279 105.246 36.9708 105.123C36.9418 105.075 36.8971 105.037 36.8431 105.014C36.7892 104.991 36.7287 104.984 36.6703 104.994C36.4075 105.065 36.175 105.209 36.0048 105.407C35.6247 105.81 35.3243 106.272 35.1175 106.771Z" fill="white"/>
<path d="M26.7559 33.2698L34.3087 30.5876C34.3087 30.5876 36.2122 33.6232 39.5682 33.359C42.9994 33.0881 42.8885 30.7759 42.8885 30.7759L52.3806 33.2632C52.3806 33.2632 53.0067 45.1115 52.3806 46.9612C51.7544 48.811 49.9762 51.2223 49.9762 51.2223C49.9762 51.2223 51.8546 55.2488 51.9011 56.3586C51.9476 57.4685 51.4217 57.191 51.4217 57.191L28.5233 57.4454L26.7559 33.2698Z" fill="#006BDE"/>
<g opacity="0.3">
<path opacity="0.3" d="M46.8983 45.4122C46.6049 45.1678 46.1434 45.3296 45.7927 45.5047C43.8213 46.4957 41.8571 47.4866 39.9715 48.6163C37.6066 50.0531 35.4277 51.7278 33.1128 53.2406C31.7484 54.1215 30.3423 54.9483 28.8945 55.7213L28.4043 56.5107C28.9231 57.2936 30.0036 57.647 30.9947 57.5776C31.9851 57.4575 32.9292 57.1175 33.7461 56.5867C37.6352 54.3141 40.3723 50.6411 44.2578 48.3652C45.2203 47.8037 46.2901 47.2917 46.8733 46.3833C47.07 46.0795 47.1774 45.6467 46.8983 45.4122Z" fill="black"/>
</g>
<path d="M47.7843 51.0252C47.4711 51.0628 47.1554 51.0783 46.8397 51.0714C46.2601 51.0714 45.4551 51.111 44.5713 51.1705C43.6876 51.23 42.8862 51.3191 42.3101 51.3852C41.9998 51.4391 41.6849 51.4667 41.3691 51.4678C41.6663 51.3679 41.9748 51.2992 42.2887 51.263C43.7907 51.02 45.3152 50.9149 46.8397 50.9492C47.1567 50.9405 47.4737 50.966 47.7843 51.0252Z" fill="#263238"/>
<path d="M23.3184 47.6229C23.3184 47.6229 25.4329 53.1325 26.3703 54.5364C27.3077 55.9402 27.7084 57.7503 30.7102 57.0137C33.7121 56.2771 35.2362 54.4637 38.51 51.983C41.7837 49.5024 43.909 47.6229 43.909 47.6229L41.5977 45.0399L32.0233 49.0697L29.7406 44.4453L23.3184 47.6229Z" fill="#FFA681"/>
<path d="M52.272 39.3511L45.6923 42.5716L40.2969 45.7195C40.2969 45.7195 42.9695 47.9062 43.7245 47.8533C44.4794 47.8005 45.5134 46.836 45.5134 46.836C45.5548 46.9257 45.6155 47.0068 45.6917 47.0743C45.768 47.1419 45.8582 47.1945 45.9571 47.229C46.2862 47.3347 46.6726 46.978 46.6726 46.978C46.9015 47.0601 47.143 47.108 47.3882 47.12C47.7174 47.12 48.1038 45.9573 48.2934 45.191C48.3622 45.0036 48.386 44.8045 48.3631 44.6077C48.3403 44.411 48.2713 44.2211 48.161 44.0514L48.4186 43.916L48.7764 44.5006L48.2147 46.3537C47.9177 47.3711 48.9839 47.2323 48.9839 47.2323C48.9839 47.2323 50.1539 45.3529 50.272 44.2859C50.39 43.219 49.238 42.5353 49.238 42.5353C49.238 42.5353 51.6709 40.603 52.2684 40.2231C52.8659 39.8432 52.272 39.3511 52.272 39.3511Z" fill="#FFA681"/>
<path d="M31.2376 53.1158C31.1234 52.9271 31.0505 52.7194 31.0229 52.5047C30.8228 51.469 31.0693 50.4021 31.7099 49.5319C31.8275 49.3462 31.9859 49.1853 32.175 49.0596C31.7414 49.6479 31.4229 50.3019 31.234 50.9919C31.1031 51.6948 31.1043 52.4133 31.2376 53.1158Z" fill="#6F4439"/>
<path d="M27.1448 33.1313C27.1448 33.1313 22.9122 34.2841 22.0964 38.4163C21.6098 40.8574 22.7869 48.8476 22.7869 48.8476L30.9624 46.04L27.1448 33.1313Z" fill="#006BDE"/>
<path d="M28.5195 38.6077C28.6548 38.9702 28.7624 39.3411 28.8415 39.7175C29.0347 40.4541 29.278 41.3856 29.5571 42.4162C29.8362 43.4467 30.1009 44.4179 30.3085 45.1016C30.4374 45.4648 30.5448 45.8342 30.6305 46.2082C30.5694 46.1221 30.5212 46.0287 30.4874 45.9307C30.4051 45.7457 30.3013 45.4716 30.1797 45.1346C29.9399 44.4575 29.6573 43.5095 29.3782 42.4558C29.0991 41.4021 28.8773 40.4409 28.727 39.7439C28.6245 39.371 28.5551 38.991 28.5195 38.6077Z" fill="#263238"/>
<path d="M28.7669 57.4354C28.7669 57.4354 23.3643 63.2919 23.4824 68.0055C23.5665 70.8558 24.3937 73.6453 25.8939 76.1377L33.0496 76.5275C33.0496 76.5275 33.6829 73.373 36.2446 73.373C36.7992 73.373 46.1374 89.8887 46.1374 89.8887L55.2861 86.0273C55.2861 86.0273 49.286 71.4407 47.8119 68.0055C46.3378 64.5702 44.9496 62.9219 42.9925 62.4331L40.8028 57.3132L28.7669 57.4354Z" fill="#263238"/>
<path d="M30.2812 63.0973C30.2812 63.127 29.9449 63.0411 29.401 63.0015C28.6972 62.9499 27.9893 63.0285 27.3187 63.2327C26.6477 63.4313 26.0354 63.7704 25.5298 64.2236C25.147 64.577 24.9681 64.8479 24.9394 64.8281C24.9108 64.8083 24.9645 64.7521 25.0432 64.6299C25.1542 64.4537 25.2849 64.2888 25.4332 64.1377C25.9282 63.6385 26.5542 63.2654 27.2507 63.0543C27.942 62.8438 28.6759 62.7805 29.3975 62.8693C29.7054 62.8908 30.0058 62.9683 30.2812 63.0973Z" fill="#455A64"/>
<path d="M39.0389 61.8681C38.9448 61.1161 38.9137 60.3585 38.9459 59.6021C38.9137 58.8457 38.9448 58.0882 39.0389 57.3362C39.131 58.0883 39.1621 58.8457 39.132 59.6021C39.1621 60.3585 39.131 61.1159 39.0389 61.8681Z" fill="#455A64"/>
<path d="M32.7274 57.3207C32.7137 57.4131 32.6822 57.5026 32.6344 57.5849C32.5243 57.8159 32.3914 58.0371 32.2373 58.2455C31.7321 58.9484 31.0429 59.5222 30.2336 59.9137C29.4243 60.3052 28.521 60.5017 27.6075 60.4851C27.3337 60.4822 27.0607 60.4568 26.7918 60.4091C26.6909 60.3986 26.5927 60.3718 26.502 60.3298C26.502 60.3001 26.9277 60.3794 27.6075 60.3661C28.4935 60.3492 29.3631 60.1425 30.1479 59.7625C30.9327 59.3825 31.6112 58.8395 32.1299 58.1762C32.5342 57.6708 32.6988 57.3074 32.7274 57.3207Z" fill="#455A64"/>
<path d="M51.6145 57.1912C53.5167 59.0888 54.796 61.4462 55.3033 63.989C56.0439 68.0816 56.0904 73.4194 54.8274 75.3947L51.2138 76.1445L48.0331 79.1173L43.5178 101.764L33.2923 100.465C33.2923 100.465 32.3334 80.792 32.6626 78.9191C32.9917 77.0463 33.0561 76.5343 33.0561 76.5343C33.0561 76.5343 32.8271 73.4492 35.2422 71.2195C37.0902 69.5855 39.0502 68.063 41.1099 66.6612L40.795 57.32L51.6145 57.1912Z" fill="#263238"/>
<path d="M53.8513 60.4095C53.7456 60.4655 53.6325 60.5088 53.5149 60.5383C53.2014 60.6315 52.8792 60.6978 52.5525 60.7365C51.461 60.8807 50.3479 60.7148 49.361 60.2608C49.0844 60.1239 48.8252 59.9588 48.5882 59.7687C48.3592 59.5903 48.1446 59.4119 47.9442 59.2369C47.5954 58.9237 47.2657 58.5929 46.9567 58.2459C46.6884 57.952 46.4844 57.7042 46.3449 57.5358C46.2645 57.4523 46.197 57.3589 46.1445 57.2583C46.4657 57.5439 46.7691 57.8461 47.0533 58.1634C47.3324 58.4474 47.6651 58.7777 48.0623 59.1213C48.4798 59.5023 48.9459 59.8351 49.4505 60.1122C50.4067 60.5485 51.4775 60.7249 52.5382 60.6209C53.3539 60.5449 53.8405 60.3732 53.8513 60.4095Z" fill="#455A64"/>
<path d="M33.0671 76.5345C33.0671 76.5345 33.0671 76.4255 33.1207 76.2042C33.1423 76.073 33.1758 75.9437 33.2209 75.8177C33.2727 75.6393 33.3421 75.4657 33.4284 75.2991C33.6553 74.8229 34.004 74.4046 34.4446 74.0803C35.0505 73.6388 35.7803 73.3661 36.5483 73.2941H36.577V73.3205C38.6951 76.954 42.1048 82.8005 46.2372 89.8362L46.1227 89.8031L55.2677 85.9352L55.2212 86.0442C54.7525 84.9442 54.2588 83.7782 53.7543 82.5957L48.8204 70.9786C48.0548 69.1685 47.3177 67.4344 46.6236 65.7894C46.3138 64.9891 45.7996 64.2696 45.1245 63.6919C44.4943 63.1501 43.7284 62.7608 42.8955 62.559C40.935 62.0354 38.8948 61.8122 36.856 61.8983C35.3081 61.9585 33.7738 62.1925 32.2871 62.5953C31.3443 62.8536 30.4234 63.176 29.5321 63.5598C29.228 63.6919 28.999 63.8075 28.8452 63.8901L28.6055 63.9958C28.6055 63.9958 28.6806 63.9496 28.8345 63.8736C28.9883 63.7976 29.1922 63.6787 29.5142 63.5433C30.4007 63.1446 31.3209 62.8132 32.2656 62.5523C35.7384 61.5749 39.4428 61.5428 42.9348 62.4599C43.7962 62.6638 44.5892 63.0622 45.2426 63.6193C45.9363 64.2105 46.4664 64.9468 46.7882 65.7663C47.5038 67.4179 48.2194 69.1454 48.9993 70.9522C50.5378 74.5856 52.2015 78.4899 53.9404 82.5759C54.4413 83.7584 54.9386 84.9244 55.4037 86.0244L55.4359 86.1003L55.3572 86.1334L46.205 89.9914L46.1299 90.0211L46.0941 89.9551C42.0117 82.893 38.6235 77.0266 36.5233 73.3899L36.5662 73.413C35.816 73.4793 35.1015 73.7404 34.5054 74.1661C34.0676 74.4804 33.718 74.8871 33.4857 75.352C33.397 75.5149 33.3251 75.6852 33.271 75.8606C33.221 75.9848 33.1839 76.1131 33.1601 76.2438C33.0957 76.4288 33.0671 76.5345 33.0671 76.5345Z" fill="#455A64"/>
<path d="M53.8513 64.3141C53.8298 64.3438 53.4363 64.0862 52.7314 63.8087C52.3183 63.6484 51.8909 63.5213 51.4541 63.4289C50.9176 63.323 50.3712 63.2655 49.8226 63.2571C49.2746 63.2589 48.728 63.3109 48.1911 63.4123C47.7528 63.4964 47.324 63.618 46.9102 63.7757C46.1947 64.0465 45.8047 64.2976 45.7832 64.2679C45.8641 64.1944 45.9542 64.1301 46.0515 64.0763C46.1595 64.0064 46.2718 63.9424 46.3879 63.8847C46.5238 63.8186 46.6777 63.7328 46.8566 63.6634C47.2735 63.4878 47.7086 63.3516 48.1553 63.2571C49.2543 63.0214 50.3979 63.0282 51.4935 63.2769C51.9392 63.3807 52.372 63.5268 52.7851 63.7129C52.9447 63.7806 53.1 63.8567 53.2502 63.9408C53.3672 63.9984 53.4796 64.0635 53.5865 64.1357C53.6813 64.1865 53.77 64.2463 53.8513 64.3141Z" fill="#455A64"/>
<g opacity="0.3">
<path opacity="0.3" d="M36.5488 73.3479C36.5488 73.3479 39.2573 84.0269 42.209 87.0162C45.1608 90.0056 45.9515 90.6332 45.9515 90.6332L46.1554 89.8966L36.5488 73.3479Z" fill="black"/>
</g>
<path d="M52.5176 54.6354C52.5176 54.6354 52.8145 52.9839 53.6947 52.0293C54.465 51.2782 55.3029 50.5887 56.1992 49.9681H56.65L57.8379 47.5073L61.176 47.3586C61.176 47.3586 60.4604 53.3637 58.8576 55.1904C57.2547 57.017 55.616 56.9212 54.9219 56.7362C54.2278 56.5512 52.5176 54.6354 52.5176 54.6354Z" fill="#FFA681"/>
<path d="M46.7664 31.4432L44.1295 43.4434C44.0963 43.5984 44.1006 43.7582 44.1421 43.9114C44.1837 44.0646 44.2614 44.2075 44.3699 44.3297C44.4783 44.4519 44.6147 44.5504 44.7692 44.6182C44.9238 44.686 45.0926 44.7213 45.2637 44.7217H63.3892C63.6518 44.7209 63.9064 44.6377 64.1111 44.4859C64.3159 44.3341 64.4587 44.1226 64.5162 43.886L67.4286 31.8858C67.4661 31.7299 67.4652 31.5683 67.426 31.4128C67.3868 31.2573 67.3103 31.1119 67.2022 30.9873C67.094 30.8627 66.957 30.7621 66.8011 30.693C66.6452 30.6238 66.4745 30.5878 66.3016 30.5877H47.897C47.6303 30.5869 47.3716 30.6718 47.1653 30.8279C46.959 30.984 46.818 31.2015 46.7664 31.4432Z" fill="#263238"/>
<path d="M46.7657 31.4436C46.7698 31.3871 46.7831 31.3314 46.8051 31.2785C46.8648 31.1206 46.9641 30.978 47.0949 30.8623C47.3114 30.6724 47.5977 30.565 47.8963 30.5617H49.077L56.6192 30.532H61.825H66.2436C66.5191 30.5216 66.7907 30.5952 67.0163 30.7415C67.242 30.8877 67.4093 31.0985 67.4923 31.3412C67.5562 31.5938 67.5439 31.8577 67.4565 32.1043C67.3993 32.3421 67.342 32.5832 67.2812 32.8276C67.1667 33.3132 67.0451 33.8186 66.9234 34.3008C66.6837 35.2918 66.4368 36.3058 66.19 37.3364L64.6407 43.7247C64.6148 43.8692 64.5692 44.0102 64.5048 44.1442C64.4355 44.2819 64.3355 44.4046 64.2114 44.5042C63.9671 44.7056 63.6479 44.8121 63.3205 44.8015H51.442H45.4669C45.223 44.8205 44.9776 44.7854 44.7514 44.6991C44.5287 44.6058 44.3417 44.4527 44.2147 44.2598C44.0862 44.0725 44.0225 43.8536 44.0322 43.6322C44.0578 43.4277 44.096 43.2248 44.1467 43.0244L44.6512 40.7651C45.2916 37.8913 45.814 35.5626 46.1754 33.9474C46.3578 33.148 46.5009 32.5271 46.6011 32.0943C46.6512 31.8896 46.687 31.731 46.7156 31.6154C46.7272 31.5605 46.7427 31.5065 46.7621 31.4535C46.7621 31.4535 46.7621 31.5097 46.7335 31.6187C46.7049 31.7277 46.6798 31.8962 46.6369 32.101C46.5475 32.5337 46.4151 33.158 46.2469 33.9606C45.8891 35.5791 45.399 37.9244 44.78 40.7882C44.6226 41.5083 44.458 42.2647 44.2898 43.0508C44.2399 43.2434 44.2029 43.4387 44.1789 43.6355C44.1723 43.8317 44.229 44.0253 44.3417 44.1917C44.4545 44.3581 44.6182 44.4899 44.8122 44.5703C45.018 44.649 45.2417 44.6797 45.4634 44.6594H51.4384H58.0432H63.3241C63.6068 44.6716 63.8833 44.5802 64.0933 44.4051C64.1971 44.3203 64.281 44.2169 64.3402 44.1012C64.3956 43.9779 64.4363 43.8494 64.4619 43.718C64.995 41.5314 65.5137 39.3943 66.0146 37.3298C66.2651 36.2992 66.512 35.2852 66.7517 34.2942C66.8733 33.7988 66.995 33.3033 67.1095 32.821C67.1667 32.5799 67.2275 32.3388 67.2848 32.0976C67.3674 31.8776 67.3798 31.6403 67.3206 31.4139C67.2563 31.1989 67.1154 31.0103 66.9206 30.8784C66.7259 30.7465 66.4886 30.6792 66.2472 30.6872H64.7302H61.8285H56.6227L49.0806 30.6608H47.8999C47.6128 30.6582 47.3354 30.7561 47.1235 30.935C46.9564 31.0713 46.8327 31.2472 46.7657 31.4436Z" fill="#455A64"/>
<path d="M57.5536 36.9134C57.5536 36.9134 59.7397 40.3486 59.9651 40.8044C60.1905 41.2603 60.8453 41.9605 60.8882 42.3933C60.9311 42.826 61.4535 45.3 61.407 46.1952C61.3271 46.886 61.1315 47.5613 60.8274 48.1968L57.822 47.5065C57.3512 47.1082 56.9706 46.6277 56.7021 46.0928C56.472 45.5225 56.0712 45.0242 55.5464 44.6559C55.1636 44.385 53.6537 43.5097 53.4749 43.1926C53.4087 43.0902 53.3737 42.9733 53.3737 42.854C53.3737 42.7348 53.4087 42.6178 53.4749 42.5155C53.4749 42.5155 52.7593 42.205 52.6591 41.8548C52.5589 41.5047 52.6591 40.9597 53.4498 41.2933C54.2405 41.6269 57.1457 43.5427 57.4391 43.3346C57.7325 43.1265 57.3712 42.6212 57.3712 42.6212C57.3712 42.6212 54.2834 40.0249 54.126 39.5658C53.9686 39.1066 54.4194 38.4625 55.1386 39.0241C55.8577 39.5856 58.2298 41.7921 58.4767 41.7921C58.7236 41.7921 58.4552 41.148 58.4552 41.148C58.4552 41.148 57.2388 38.7334 57.0241 38.0893C56.8094 37.4452 56.9454 36.5798 57.5536 36.9134Z" fill="#FFA681"/>
<path d="M67.5615 31.2948H67.472H67.2144L66.2162 31.3113L62.5489 31.3377L50.4557 31.3641H48.7061C48.5766 31.3516 48.4457 31.3648 48.3223 31.403C48.1988 31.4412 48.0857 31.5034 47.9905 31.5854C47.8982 31.6664 47.8272 31.7659 47.783 31.8761C47.7473 31.9818 47.7222 32.1239 47.69 32.2428C47.4431 33.2337 47.2141 34.2246 46.9995 35.1396C46.5773 36.9828 46.198 38.6475 45.8796 40.0514C45.5612 41.4552 45.2785 42.5749 45.0782 43.3545C44.978 43.731 44.8957 44.0151 44.8384 44.2463L44.7705 44.4775C44.7659 44.5053 44.7562 44.5321 44.7418 44.5568C44.7371 44.5295 44.7371 44.5016 44.7418 44.4742C44.7418 44.4115 44.7705 44.3355 44.7919 44.2397L44.9959 43.338L45.7401 40.0348C46.0478 38.631 46.4127 36.9629 46.8134 35.1165C47.0209 34.1916 47.2464 33.2205 47.4932 32.2163C47.529 32.0875 47.5433 31.9719 47.5934 31.8299C47.6453 31.6944 47.7311 31.5722 47.8439 31.4731C47.9571 31.3752 48.0915 31.3004 48.2383 31.2537C48.385 31.2071 48.5408 31.1895 48.6954 31.2023H50.445L62.5382 31.2287L66.2055 31.2551L67.2037 31.2716H67.4613C67.4959 31.2742 67.5297 31.282 67.5615 31.2948Z" fill="#455A64"/>
<path d="M52.9531 52.4526C52.9684 52.3583 52.9998 52.2669 53.0462 52.1817C53.1597 51.9483 53.3 51.7268 53.4648 51.5211C54.0156 50.8229 54.8063 50.3176 55.7081 50.0875C55.976 50.0225 56.2507 49.9837 56.5274 49.9719L56.4559 50.0116C56.8637 49.3245 57.1714 48.6705 57.4219 48.2279C57.5409 47.9833 57.6747 47.7451 57.8226 47.5144C57.7593 47.7779 57.6607 48.0331 57.5292 48.2741C57.311 48.7366 57.0283 49.3774 56.6097 50.1041L56.5882 50.1371H56.5346C56.2712 50.151 56.01 50.1886 55.7546 50.2494C54.8917 50.4757 54.1272 50.9458 53.5685 51.5938C53.1392 52.0859 52.9853 52.4823 52.9531 52.4526Z" fill="#6F4439"/>
<path d="M56.8437 44.3687C56.2408 44.1329 55.6644 43.843 55.1227 43.5033C54.5475 43.2156 54.0046 42.8759 53.502 42.4893C54.1031 42.7277 54.6782 43.0186 55.2193 43.358C55.7932 43.6482 56.3369 43.9866 56.8437 44.3687Z" fill="#6F4439"/>
<path d="M57.8287 34.1914C57.7808 34.2883 57.7036 34.3703 57.6064 34.4276C57.5091 34.4848 57.396 34.5149 57.2807 34.5141C57.1653 34.5133 57.0527 34.4818 56.9564 34.4232C56.8601 34.3646 56.7841 34.2816 56.7378 34.1841C56.6915 34.0866 56.6767 33.9788 56.6953 33.8737C56.7139 33.7686 56.765 33.6707 56.8425 33.5918C56.92 33.513 57.0206 33.4565 57.1321 33.4293C57.2436 33.402 57.3613 33.4051 57.4709 33.4383C57.6253 33.4957 57.7492 33.6067 57.8161 33.7475C57.883 33.8882 57.8875 34.0476 57.8287 34.1914Z" fill="#E0E0E0"/>
<path d="M30.9968 21.0486C30.9077 20.9518 30.8408 20.8395 30.8 20.7183C30.6718 20.3858 30.6422 20.0277 30.7141 19.6811C30.7674 19.4219 30.8777 19.1755 31.0384 18.9574C31.199 18.7392 31.4065 18.5538 31.6479 18.4127C31.9339 18.2433 32.2584 18.137 32.5961 18.1022C32.7787 18.0783 32.9646 18.0873 33.1435 18.1286C33.2468 18.1501 33.3416 18.1976 33.4174 18.2658C33.4931 18.334 33.547 18.4203 33.5728 18.5151C33.5841 18.5661 33.5843 18.6187 33.5732 18.6697C33.5622 18.7208 33.5401 18.7693 33.5084 18.8124C33.449 18.8919 33.3691 18.9566 33.2759 19.0006C33.1032 19.0798 32.9074 19.1052 32.7177 19.0733C32.5519 19.0469 32.3955 18.9837 32.2621 18.8891C32.1286 18.7945 32.0221 18.6713 31.9516 18.5302C31.8812 18.3891 31.849 18.2344 31.8578 18.0792C31.8666 17.9241 31.9161 17.7733 32.0021 17.6397C32.1267 17.4191 32.3267 17.2426 32.571 17.1377C32.753 17.0757 32.9474 17.0509 33.1408 17.0652C33.3342 17.0795 33.5219 17.1324 33.6909 17.2202C33.8173 17.2764 33.9257 17.3617 34.0058 17.468C34.0058 17.468 33.8913 17.3821 33.648 17.2797C33.4873 17.2088 33.3124 17.1696 33.1343 17.1645C32.9563 17.1594 32.7791 17.1885 32.614 17.25C32.3942 17.3436 32.2151 17.5031 32.1059 17.7025C32.0427 17.813 32.0058 17.9348 31.9978 18.0595C31.9897 18.1843 32.0107 18.3092 32.0594 18.4259C32.1215 18.5498 32.2151 18.658 32.3322 18.7414C32.4493 18.8247 32.5865 18.8808 32.732 18.9048C32.883 18.9294 33.0385 18.9086 33.1757 18.8454C33.2398 18.8221 33.294 18.7801 33.3302 18.7259C33.3663 18.6717 33.3824 18.6082 33.376 18.5448C33.356 18.4813 33.3179 18.4238 33.2657 18.3785C33.2135 18.3332 33.149 18.3017 33.0791 18.2872C32.9216 18.2557 32.7595 18.249 32.5997 18.2673C32.2894 18.2989 31.991 18.3949 31.7266 18.5481C31.4998 18.6752 31.3032 18.8435 31.1488 19.0428C30.9944 19.2421 30.8855 19.4682 30.8286 19.7075C30.7508 20.0349 30.7594 20.3748 30.8536 20.6984C30.9395 20.9231 30.9968 21.042 30.9968 21.0486Z" fill="#263238"/>
</svg>
