<svg width="51" height="60" viewBox="0 0 51 60" fill="none" xmlns="http://www.w3.org/2000/svg">
<g filter="url(#filter0_d_26_56)">
<path d="M28.4637 46.5174H5.87823C5.22676 45.5049 4.74902 44.4263 4.43755 43.3183C4.55172 42.0464 4.40901 40.7623 4.0144 39.5437C4.18441 36.0901 5.85962 32.7397 8.87374 30.5483C9.86522 29.8274 10.9014 29.2157 11.971 28.7131C11.9512 29.398 11.9934 30.0883 12.1026 30.7741C12.5642 33.6955 14.1662 36.3149 16.5586 38.0532C18.5391 39.4937 20.8335 40.1874 23.1068 40.1874C26.5527 40.1874 29.9515 38.5941 32.1343 35.5951C32.8056 34.6732 33.3131 33.6829 33.6655 32.6592C34.2885 33.2995 34.8717 33.9917 35.4127 34.7353L38.5819 39.0929C37.8709 38.6886 37.0854 38.4119 36.2627 38.2815C35.9053 38.2258 35.5467 38.1971 35.1894 38.1971C33.745 38.1971 32.3266 38.6528 31.144 39.5137C28.9278 41.1259 27.8979 43.8805 28.4637 46.5174" fill="#4B9ADA"/>
<path d="M39.473 40.3178L38.582 39.0929C39.0436 39.3551 39.4754 39.6688 39.8663 40.0313L39.473 40.3178" fill="#70D0E8"/>
<path d="M34.6248 46.5174H28.4638C27.8979 43.8805 28.9278 41.1259 31.1441 39.5137C32.3266 38.6528 33.745 38.1971 35.1894 38.1971C35.5468 38.1971 35.9054 38.2258 36.2628 38.2815C37.0855 38.4119 37.8709 38.6886 38.582 39.0929L39.473 40.3178L36.8373 42.2349C35.4115 43.2728 34.6459 44.8796 34.6248 46.5174" fill="#3977C5"/>
<path d="M4.43756 43.3183C4.09011 42.0798 3.95237 40.8045 4.01441 39.5438C4.40902 40.7623 4.55172 42.0464 4.43756 43.3183Z" fill="#3977C5"/>
<path d="M46.0062 10.3852C44.4725 10.3042 43.0132 9.54619 42.0713 8.25194C41.2598 7.13662 40.9247 5.74546 41.1394 4.38432C41.3541 3.0217 42.1024 1.80079 43.2167 0.987877C44.0468 0.384803 45.0184 0.0523685 46.0062 2.78801e-06V10.3852" fill="#B0E6F7"/>
<path d="M43.2154 42.7996C42.6335 42.7996 42.0552 42.6669 41.5291 42.4075C41.3268 41.9262 41.0674 41.4633 40.7523 41.0304C40.4879 40.6669 40.1901 40.3329 39.8663 40.0313L40.5612 39.5263C41.7586 38.6553 43.177 38.2122 44.604 38.2122C45.073 38.2122 45.5434 38.2592 46.0062 38.3561V41.4633C45.6352 41.6877 45.3026 41.9819 45.0284 42.3368C44.4588 42.6484 43.8346 42.7996 43.2154 42.7996" fill="#B0E6F7"/>
<path d="M42.8683 51.5174H39.9163C40.2103 50.1423 40.0763 48.7056 39.5291 47.4075C40.0552 47.6668 40.6335 47.7996 41.2155 47.7996C41.8347 47.7996 42.4589 47.6483 43.0284 47.3367C43.0073 47.3653 42.9862 47.393 42.9651 47.421C42.1102 48.5975 42.0469 50.1762 42.8063 51.4171L42.8683 51.5174" fill="#4185CD"/>
<path d="M41.529 42.4075C40.9955 42.1433 40.5152 41.7512 40.1417 41.2364L39.4729 40.3179L39.8663 40.0313C40.1901 40.3329 40.4879 40.6669 40.7522 41.0304C41.0674 41.4633 41.3268 41.9262 41.529 42.4075" fill="#58B5E2"/>
<path d="M41.9163 46.5174H34.6248C34.6459 44.8796 35.4115 43.2728 36.8373 42.2349L39.473 40.3178L40.1418 41.2363C40.5153 41.7512 40.9955 42.1433 41.5291 42.4075C42.0763 43.7056 42.2104 45.1423 41.9163 46.5174" fill="#3466BA"/>
<path d="M43.0284 47.3368C43.3027 46.9819 43.6352 46.6877 44.0063 46.4633V46.7352C43.8114 46.8306 43.6241 46.9437 43.4454 47.074C43.3101 47.1719 43.1711 47.2601 43.0284 47.3368Z" fill="#235190"/>
<path d="M44.0062 51.5174H42.8684L42.8063 51.4171C42.0469 50.1762 42.1102 48.5975 42.9651 47.421C42.9862 47.393 43.0073 47.3653 43.0284 47.3367C43.1711 47.2601 43.3101 47.1718 43.4454 47.0739C43.624 46.9436 43.8114 46.8306 44.0062 46.7352V51.5174" fill="#253873"/>
<path d="M33.6655 32.6591C30.0099 28.8929 25.0513 26.9113 20.0343 26.9113C17.2957 26.9113 14.5421 27.5007 11.971 28.7131C12.0355 26.4833 12.7689 24.3069 14.0991 22.4776L14.1004 22.4736C14.7047 21.6424 15.4145 20.908 16.2074 20.2822C16.2074 20.2812 16.2087 20.2812 16.2087 20.2812C16.7348 19.8644 17.2932 19.5008 17.8752 19.1916C18.9597 18.6148 20.1411 18.2139 21.3782 18.0191C21.9565 17.9275 22.5372 17.8823 23.1155 17.8823C23.2594 17.8823 23.4021 17.8853 23.5461 17.8911C25.6829 17.9706 27.8197 18.6657 29.6785 20.018C33.7363 22.97 35.2167 28.1474 33.6655 32.6591Z" fill="#4B9ADA"/>
<path d="M23.1068 40.1874C20.8335 40.1874 18.5391 39.4938 16.5586 38.0532C14.1662 36.315 12.5642 33.6956 12.1026 30.7741C11.9934 30.0883 11.9512 29.398 11.971 28.7131C14.5422 27.5008 17.2957 26.9114 20.0343 26.9114C25.0513 26.9114 30.0099 28.8929 33.6656 32.6592C33.3131 33.6829 32.8056 34.6733 32.1343 35.5951C29.9516 38.5941 26.5528 40.1874 23.1068 40.1874" fill="#3159B0"/>
</g>
<defs>
<filter id="filter0_d_26_56" x="0" y="0" width="50.0062" height="59.5174" filterUnits="userSpaceOnUse" color-interpolation-filters="sRGB">
<feFlood flood-opacity="0" result="BackgroundImageFix"/>
<feColorMatrix in="SourceAlpha" type="matrix" values="0 0 0 0 0 0 0 0 0 0 0 0 0 0 0 0 0 0 127 0" result="hardAlpha"/>
<feOffset dy="4"/>
<feGaussianBlur stdDeviation="2"/>
<feComposite in2="hardAlpha" operator="out"/>
<feColorMatrix type="matrix" values="0 0 0 0 0 0 0 0 0 0 0 0 0 0 0 0 0 0 0.25 0"/>
<feBlend mode="normal" in2="BackgroundImageFix" result="effect1_dropShadow_26_56"/>
<feBlend mode="normal" in="SourceGraphic" in2="effect1_dropShadow_26_56" result="shape"/>
</filter>
</defs>
</svg>
