<svg width="54" height="17" viewBox="0 0 54 17" fill="none" xmlns="http://www.w3.org/2000/svg">
<path d="M18.8981 14.665L19.0164 15.3883C18.7859 15.4369 18.5796 15.4611 18.3977 15.4611C18.1004 15.4611 17.8699 15.4141 17.7061 15.3201C17.5424 15.2261 17.4271 15.1032 17.3604 14.9516C17.2936 14.7969 17.2603 14.4739 17.2603 13.9825V11.2028H16.6597V10.5658H17.2603V9.36932L18.0746 8.87798V10.5658H18.8981V11.2028H18.0746V14.028C18.0746 14.2616 18.0883 14.4117 18.1156 14.4784C18.1459 14.5451 18.1929 14.5982 18.2566 14.6377C18.3234 14.6771 18.4174 14.6968 18.5387 14.6968C18.6297 14.6968 18.7495 14.6862 18.8981 14.665ZM22.8562 14.8014C22.5529 15.0592 22.2602 15.2412 21.9781 15.3474C21.6991 15.4535 21.3988 15.5066 21.0773 15.5066C20.5465 15.5066 20.1386 15.3777 19.8535 15.1199C19.5684 14.8591 19.4258 14.5269 19.4258 14.1236C19.4258 13.887 19.4789 13.6716 19.5851 13.4775C19.6943 13.2804 19.8353 13.1227 20.0082 13.0044C20.1841 12.8861 20.3812 12.7966 20.5996 12.736C20.7604 12.6935 21.003 12.6526 21.3275 12.6131C21.9887 12.5343 22.4755 12.4402 22.7879 12.3311C22.791 12.2188 22.7925 12.1476 22.7925 12.1172C22.7925 11.7836 22.7151 11.5485 22.5605 11.4121C22.3512 11.227 22.0403 11.1345 21.6278 11.1345C21.2426 11.1345 20.9575 11.2028 20.7725 11.3393C20.5905 11.4727 20.4556 11.7108 20.3676 12.0535L19.5669 11.9443C19.6397 11.6016 19.7595 11.3256 19.9263 11.1163C20.0931 10.904 20.3342 10.7418 20.6497 10.6295C20.9651 10.5143 21.3306 10.4567 21.7461 10.4567C22.1586 10.4567 22.4937 10.5052 22.7515 10.6022C23.0093 10.6993 23.1989 10.8221 23.3202 10.9708C23.4415 11.1163 23.5265 11.3013 23.575 11.5258C23.6023 11.6653 23.6159 11.917 23.6159 12.281V13.3729C23.6159 14.1342 23.6326 14.6164 23.666 14.8196C23.7024 15.0198 23.7721 15.2124 23.8753 15.3974H23.02C22.935 15.2276 22.8804 15.0289 22.8562 14.8014ZM22.7879 12.9725C22.4907 13.0939 22.0448 13.197 21.4504 13.2819C21.1137 13.3304 20.8756 13.385 20.7361 13.4457C20.5966 13.5063 20.4889 13.5958 20.4131 13.7141C20.3373 13.8294 20.2994 13.9583 20.2994 14.1008C20.2994 14.3192 20.3812 14.5012 20.545 14.6468C20.7118 14.7923 20.9545 14.8651 21.2729 14.8651C21.5884 14.8651 21.8689 14.7969 22.1146 14.6604C22.3603 14.5209 22.5407 14.3313 22.656 14.0917C22.744 13.9067 22.7879 13.6337 22.7879 13.2728V12.9725ZM24.3439 15.3974L26.1091 12.8861L24.4758 10.5658H25.4994L26.241 11.6987C26.3805 11.914 26.4928 12.0945 26.5777 12.2401C26.7111 12.0399 26.834 11.8625 26.9462 11.7078L27.7605 10.5658H28.7387L27.069 12.8406L28.8661 15.3974H27.8606L26.8688 13.8961L26.605 13.4912L25.3357 15.3974H24.3439ZM30.3037 15.3974H29.544V8.72784H30.3629V11.1072C30.7086 10.6735 31.1499 10.4567 31.6868 10.4567C31.984 10.4567 32.2646 10.5173 32.5284 10.6386C32.7953 10.7569 33.0137 10.9253 33.1836 11.1436C33.3564 11.359 33.4914 11.6198 33.5885 11.9261C33.6855 12.2325 33.7341 12.56 33.7341 12.9088C33.7341 13.7369 33.5293 14.3768 33.1199 14.8287C32.7104 15.2807 32.2191 15.5066 31.6458 15.5066C31.0756 15.5066 30.6283 15.2685 30.3037 14.7923V15.3974ZM30.2946 12.9452C30.2946 13.5245 30.3735 13.9431 30.5312 14.2009C30.789 14.6225 31.1378 14.8333 31.5776 14.8333C31.9355 14.8333 32.2448 14.6786 32.5057 14.3692C32.7665 14.0568 32.8969 13.5928 32.8969 12.9771C32.8969 12.3462 32.7711 11.8807 32.5193 11.5804C32.2706 11.2801 31.9688 11.13 31.614 11.13C31.2561 11.13 30.9467 11.2862 30.6859 11.5986C30.425 11.9079 30.2946 12.3568 30.2946 12.9452ZM34.4301 12.9816C34.4301 12.0869 34.6788 11.4242 35.1762 10.9935C35.5918 10.6356 36.0983 10.4567 36.6958 10.4567C37.36 10.4567 37.9029 10.675 38.3245 11.1118C38.7461 11.5455 38.9569 12.146 38.9569 12.9134C38.9569 13.5352 38.8629 14.025 38.6748 14.3829C38.4898 14.7377 38.2184 15.0137 37.8605 15.2109C37.5056 15.408 37.1174 15.5066 36.6958 15.5066C36.0194 15.5066 35.472 15.2898 35.0534 14.856C34.6379 14.4223 34.4301 13.7975 34.4301 12.9816ZM35.2718 12.9816C35.2718 13.6004 35.4068 14.0644 35.6767 14.3738C35.9466 14.6801 36.2863 14.8333 36.6958 14.8333C37.1022 14.8333 37.4404 14.6786 37.7103 14.3692C37.9803 14.0599 38.1152 13.5882 38.1152 12.9543C38.1152 12.3568 37.9787 11.9049 37.7058 11.5986C37.4358 11.2892 37.0992 11.1345 36.6958 11.1345C36.2863 11.1345 35.9466 11.2877 35.6767 11.594C35.4068 11.9004 35.2718 12.3629 35.2718 12.9816ZM43.0742 14.8014C42.7709 15.0592 42.4782 15.2412 42.1961 15.3474C41.9171 15.4535 41.6168 15.5066 41.2953 15.5066C40.7646 15.5066 40.3566 15.3777 40.0715 15.1199C39.7864 14.8591 39.6439 14.5269 39.6439 14.1236C39.6439 13.887 39.6969 13.6716 39.8031 13.4775C39.9123 13.2804 40.0533 13.1227 40.2262 13.0044C40.4021 12.8861 40.5993 12.7966 40.8176 12.736C40.9784 12.6935 41.221 12.6526 41.5456 12.6131C42.2068 12.5343 42.6936 12.4402 43.006 12.3311C43.009 12.2188 43.0105 12.1476 43.0105 12.1172C43.0105 11.7836 42.9332 11.5485 42.7785 11.4121C42.5692 11.227 42.2583 11.1345 41.8458 11.1345C41.4606 11.1345 41.1755 11.2028 40.9905 11.3393C40.8085 11.4727 40.6736 11.7108 40.5856 12.0535L39.7849 11.9443C39.8577 11.6016 39.9775 11.3256 40.1443 11.1163C40.3111 10.904 40.5523 10.7418 40.8677 10.6295C41.1831 10.5143 41.5486 10.4567 41.9641 10.4567C42.3766 10.4567 42.7118 10.5052 42.9696 10.6022C43.2274 10.6993 43.4169 10.8221 43.5382 10.9708C43.6596 11.1163 43.7445 11.3013 43.793 11.5258C43.8203 11.6653 43.834 11.917 43.834 12.281V13.3729C43.834 14.1342 43.8506 14.6164 43.884 14.8196C43.9204 15.0198 43.9902 15.2124 44.0933 15.3974H43.238C43.1531 15.2276 43.0985 15.0289 43.0742 14.8014ZM43.006 12.9725C42.7087 13.0939 42.2629 13.197 41.6684 13.2819C41.3317 13.3304 41.0936 13.385 40.9541 13.4457C40.8146 13.5063 40.7069 13.5958 40.6311 13.7141C40.5553 13.8294 40.5174 13.9583 40.5174 14.1008C40.5174 14.3192 40.5993 14.5012 40.763 14.6468C40.9299 14.7923 41.1725 14.8651 41.491 14.8651C41.8064 14.8651 42.087 14.7969 42.3326 14.6604C42.5783 14.5209 42.7588 14.3313 42.874 14.0917C42.962 13.9067 43.006 13.6337 43.006 13.2728V12.9725ZM45.0987 15.3974V10.5658H45.8357V11.2983C46.0238 10.9556 46.1967 10.7296 46.3544 10.6204C46.5151 10.5112 46.6911 10.4567 46.8821 10.4567C47.1581 10.4567 47.4387 10.5446 47.7238 10.7205L47.4417 11.4803C47.2415 11.362 47.0414 11.3029 46.8412 11.3029C46.6622 11.3029 46.5015 11.3575 46.3589 11.4666C46.2164 11.5728 46.1148 11.7214 46.0541 11.9125C45.9631 12.2037 45.9176 12.5221 45.9176 12.8679V15.3974H45.0987ZM51.3452 15.3974V14.7878C51.0389 15.267 50.5885 15.5066 49.994 15.5066C49.6088 15.5066 49.2539 15.4005 48.9294 15.1881C48.6079 14.9758 48.3577 14.6801 48.1787 14.301C48.0028 13.9188 47.9149 13.4806 47.9149 12.9862C47.9149 12.5039 47.9952 12.0672 48.156 11.6759C48.3167 11.2816 48.5579 10.9798 48.8794 10.7706C49.2009 10.5613 49.5603 10.4567 49.9576 10.4567C50.2488 10.4567 50.5081 10.5188 50.7356 10.6432C50.963 10.7645 51.1481 10.9237 51.2906 11.1209V8.72784H52.105V15.3974H51.3452ZM48.7565 12.9862C48.7565 13.6049 48.887 14.0674 49.1478 14.3738C49.4086 14.6801 49.7165 14.8333 50.0713 14.8333C50.4292 14.8333 50.7325 14.6877 50.9812 14.3965C51.233 14.1023 51.3589 13.655 51.3589 13.0544C51.3589 12.3932 51.2315 11.9079 50.9767 11.5986C50.7219 11.2892 50.408 11.1345 50.0349 11.1345C49.671 11.1345 49.3662 11.2831 49.1205 11.5804C48.8779 11.8776 48.7565 12.3462 48.7565 12.9862Z" fill="#303030"/>
<path d="M18.8981 14.665L18.98 14.6516L18.9669 14.5713L18.8864 14.5828L18.8981 14.665ZM19.0164 15.3883L19.0335 15.4695L19.1111 15.4532L19.0983 15.3749L19.0164 15.3883ZM17.3604 14.9516L17.2842 14.9844L17.2844 14.985L17.3604 14.9516ZM17.2603 11.2028H17.3433V11.1198H17.2603V11.2028ZM16.6597 11.2028H16.5768V11.2858H16.6597V11.2028ZM16.6597 10.5658V10.4829H16.5768V10.5658H16.6597ZM17.2603 10.5658V10.6488H17.3433V10.5658H17.2603ZM17.2603 9.36932L17.2174 9.29827L17.1773 9.32247V9.36932H17.2603ZM18.0746 8.87798H18.1576V8.73098L18.0318 8.80692L18.0746 8.87798ZM18.0746 10.5658H17.9917V10.6488H18.0746V10.5658ZM18.8981 10.5658H18.9811V10.4829H18.8981V10.5658ZM18.8981 11.2028V11.2858H18.9811V11.2028H18.8981ZM18.0746 11.2028V11.1198H17.9917V11.2028H18.0746ZM18.1156 14.4784L18.0387 14.5099L18.04 14.5128L18.1156 14.4784ZM18.2566 14.6377L18.2129 14.7082L18.2144 14.7091L18.2566 14.6377ZM18.8162 14.6783L18.9345 15.4017L19.0983 15.3749L18.98 14.6516L18.8162 14.6783ZM18.9993 15.3071C18.7729 15.3548 18.5725 15.3781 18.3977 15.3781V15.5441C18.5868 15.5441 18.7989 15.5189 19.0335 15.4695L18.9993 15.3071ZM18.3977 15.3781C18.1074 15.3781 17.8934 15.3319 17.7475 15.2481L17.6648 15.3921C17.8464 15.4963 18.0935 15.5441 18.3977 15.5441V15.3781ZM17.7475 15.2481C17.5968 15.1616 17.4949 15.0514 17.4363 14.9181L17.2844 14.985C17.3592 15.1551 17.4879 15.2905 17.6648 15.3921L17.7475 15.2481ZM17.4366 14.9187C17.4084 14.8533 17.3843 14.7441 17.3679 14.5848C17.3516 14.4271 17.3433 14.2266 17.3433 13.9825H17.1773C17.1773 14.2298 17.1857 14.4364 17.2028 14.6018C17.2197 14.7655 17.2457 14.8952 17.2842 14.9844L17.4366 14.9187ZM17.3433 13.9825V11.2028H17.1773V13.9825H17.3433ZM17.2603 11.1198H16.6597V11.2858H17.2603V11.1198ZM16.7427 11.2028V10.5658H16.5768V11.2028H16.7427ZM16.6597 10.6488H17.2603V10.4829H16.6597V10.6488ZM17.3433 10.5658V9.36932H17.1773V10.5658H17.3433ZM17.3032 9.44038L18.1175 8.94903L18.0318 8.80692L17.2174 9.29827L17.3032 9.44038ZM17.9917 8.87798V10.5658H18.1576V8.87798H17.9917ZM18.0746 10.6488H18.8981V10.4829H18.0746V10.6488ZM18.8151 10.5658V11.2028H18.9811V10.5658H18.8151ZM18.8981 11.1198H18.0746V11.2858H18.8981V11.1198ZM17.9917 11.2028V14.028H18.1576V11.2028H17.9917ZM17.9917 14.028C17.9917 14.1461 17.9951 14.2448 18.0022 14.3233C18.0092 14.3996 18.0202 14.4643 18.0388 14.5098L18.1924 14.447C18.1837 14.4258 18.1742 14.382 18.1675 14.3083C18.161 14.2367 18.1576 14.1435 18.1576 14.028H17.9917ZM18.04 14.5128C18.0773 14.5948 18.1356 14.6603 18.2129 14.7082L18.3003 14.5671C18.2503 14.5361 18.2145 14.4955 18.1911 14.4441L18.04 14.5128ZM18.2144 14.7091C18.2992 14.7592 18.4102 14.7798 18.5387 14.7798V14.6138C18.4246 14.6138 18.3475 14.595 18.2988 14.5662L18.2144 14.7091ZM18.5387 14.7798C18.6353 14.7798 18.7595 14.7686 18.9098 14.7471L18.8864 14.5828C18.7395 14.6038 18.6241 14.6138 18.5387 14.6138V14.7798ZM22.8562 14.8014L22.9387 14.7926L22.922 14.6365L22.8024 14.7382L22.8562 14.8014ZM21.9781 15.3474L21.9489 15.2697L21.9486 15.2698L21.9781 15.3474ZM19.8535 15.1199L19.7975 15.1811L19.7978 15.1815L19.8535 15.1199ZM19.5851 13.4775L19.5125 13.4373L19.5123 13.4377L19.5851 13.4775ZM20.0082 13.0044L19.9619 12.9355L19.9613 12.9359L20.0082 13.0044ZM20.5996 12.736L20.5784 12.6557L20.5774 12.656L20.5996 12.736ZM21.3275 12.6131L21.3177 12.5307L21.3175 12.5307L21.3275 12.6131ZM22.7879 12.3311L22.8153 12.4094L22.8693 12.3905L22.8709 12.3333L22.7879 12.3311ZM22.5605 11.4121L22.5055 11.4742L22.5056 11.4743L22.5605 11.4121ZM20.7725 11.3393L20.8216 11.4062L20.8218 11.406L20.7725 11.3393ZM20.3676 12.0535L20.3564 12.1358L20.4296 12.1457L20.448 12.0742L20.3676 12.0535ZM19.5669 11.9443L19.4857 11.9271L19.4671 12.0145L19.5557 12.0266L19.5669 11.9443ZM19.9263 11.1163L19.9912 11.1681L19.9915 11.1676L19.9263 11.1163ZM20.6497 10.6295L20.6775 10.7077L20.6781 10.7075L20.6497 10.6295ZM23.3202 10.9708L23.2559 11.0232L23.2565 11.0239L23.3202 10.9708ZM23.575 11.5258L23.6565 11.5099L23.6561 11.5083L23.575 11.5258ZM23.666 14.8196L23.5841 14.8331L23.5843 14.8345L23.666 14.8196ZM23.8753 15.3974V15.4804H24.0165L23.9478 15.357L23.8753 15.3974ZM23.02 15.3974L22.9457 15.4345L22.9687 15.4804H23.02V15.3974ZM22.7879 12.9725H22.8709V12.849L22.7566 12.8957L22.7879 12.9725ZM21.4504 13.2819L21.4386 13.1997L21.4385 13.1998L21.4504 13.2819ZM20.7361 13.4457L20.703 13.3696L20.7361 13.4457ZM20.4131 13.7141L20.4824 13.7597L20.483 13.7589L20.4131 13.7141ZM20.545 14.6468L20.4899 14.7088L20.4905 14.7093L20.545 14.6468ZM22.1146 14.6604L22.1549 14.733L22.1556 14.7326L22.1146 14.6604ZM22.656 14.0917L22.7308 14.1277L22.7309 14.1273L22.656 14.0917ZM22.8024 14.7382C22.5042 14.9917 22.2197 15.1678 21.9489 15.2697L22.0074 15.425C22.3007 15.3146 22.6015 15.1268 22.9099 14.8647L22.8024 14.7382ZM21.9486 15.2698C21.6797 15.3721 21.3895 15.4236 21.0773 15.4236V15.5896C21.4081 15.5896 21.7185 15.535 22.0076 15.4249L21.9486 15.2698ZM21.0773 15.4236C20.5592 15.4236 20.174 15.2979 19.9092 15.0583L19.7978 15.1815C20.1032 15.4576 20.5338 15.5896 21.0773 15.5896V15.4236ZM19.9095 15.0587C19.6424 14.8143 19.5088 14.5048 19.5088 14.1236H19.3429C19.3429 14.5491 19.4944 14.9038 19.7975 15.1811L19.9095 15.0587ZM19.5088 14.1236C19.5088 13.8999 19.5589 13.6984 19.6579 13.5173L19.5123 13.4377C19.399 13.6449 19.3429 13.8741 19.3429 14.1236H19.5088ZM19.6577 13.5177C19.7611 13.331 19.8936 13.1833 20.055 13.0729L19.9613 12.9359C19.777 13.062 19.6274 13.2298 19.5125 13.4373L19.6577 13.5177ZM20.0545 13.0732C20.2225 12.9603 20.4114 12.8744 20.6218 12.8159L20.5774 12.656C20.3511 12.7189 20.1457 12.8119 19.9619 12.9355L20.0545 13.0732ZM20.6208 12.8162C20.7759 12.7752 21.0139 12.7348 21.3376 12.6955L21.3175 12.5307C20.9921 12.5703 20.7449 12.6118 20.5784 12.6557L20.6208 12.8162ZM21.3374 12.6955C21.9998 12.6165 22.494 12.5217 22.8153 12.4094L22.7606 12.2527C22.457 12.3588 21.9777 12.452 21.3177 12.5307L21.3374 12.6955ZM22.8709 12.3333C22.8739 12.2214 22.8755 12.1489 22.8755 12.1172H22.7095C22.7095 12.1462 22.708 12.2162 22.705 12.3288L22.8709 12.3333ZM22.8755 12.1172C22.8755 11.7741 22.7964 11.5096 22.6154 11.3498L22.5056 11.4743C22.6339 11.5875 22.7095 11.793 22.7095 12.1172H22.8755ZM22.6154 11.3499C22.3852 11.1463 22.0511 11.0515 21.6278 11.0515V11.2175C22.0295 11.2175 22.3172 11.3078 22.5055 11.4742L22.6154 11.3499ZM21.6278 11.0515C21.2357 11.0515 20.9293 11.1205 20.7232 11.2725L20.8218 11.406C20.9857 11.2851 21.2495 11.2175 21.6278 11.2175V11.0515ZM20.7234 11.2723C20.5193 11.422 20.3774 11.6816 20.2872 12.0329L20.448 12.0742C20.5337 11.7401 20.6617 11.5234 20.8216 11.4062L20.7234 11.2723ZM20.3788 11.9713L19.5781 11.8621L19.5557 12.0266L20.3564 12.1358L20.3788 11.9713ZM19.6481 11.9616C19.719 11.6277 19.8345 11.3646 19.9912 11.1681L19.8614 11.0646C19.6845 11.2866 19.5604 11.5755 19.4857 11.9271L19.6481 11.9616ZM19.9915 11.1676C20.1466 10.9703 20.3733 10.816 20.6775 10.7077L20.6218 10.5513C20.2952 10.6676 20.0396 10.8378 19.861 11.0651L19.9915 11.1676ZM20.6781 10.7075C20.9826 10.5963 21.3381 10.5396 21.7461 10.5396V10.3737C21.3231 10.3737 20.9476 10.4323 20.6212 10.5516L20.6781 10.7075ZM21.7461 10.5396C22.1531 10.5396 22.4773 10.5877 22.7223 10.6799L22.7808 10.5246C22.5102 10.4227 22.1641 10.3737 21.7461 10.3737V10.5396ZM22.7223 10.6799C22.972 10.7739 23.1471 10.8898 23.2559 11.0232L23.3845 10.9183C23.2508 10.7544 23.0467 10.6247 22.7808 10.5246L22.7223 10.6799ZM23.2565 11.0239C23.3676 11.1572 23.4476 11.3292 23.4939 11.5433L23.6561 11.5083C23.6053 11.2735 23.5155 11.0755 23.384 10.9176L23.2565 11.0239ZM23.4936 11.5417C23.5191 11.6724 23.533 11.9166 23.533 12.281H23.6989C23.6989 11.9174 23.6855 11.6582 23.6564 11.5099L23.4936 11.5417ZM23.533 12.281V13.3729H23.6989V12.281H23.533ZM23.533 13.3729C23.533 14.132 23.5494 14.6218 23.5841 14.8331L23.7479 14.8062C23.7158 14.6111 23.6989 14.1364 23.6989 13.3729H23.533ZM23.5843 14.8345C23.6224 15.044 23.6954 15.2452 23.8028 15.4378L23.9478 15.357C23.8489 15.1796 23.7823 14.9956 23.7476 14.8048L23.5843 14.8345ZM23.8753 15.3144H23.02V15.4804H23.8753V15.3144ZM23.0942 15.3603C23.0145 15.2009 22.9621 15.0122 22.9387 14.7926L22.7737 14.8102C22.7988 15.0456 22.8556 15.2542 22.9457 15.4345L23.0942 15.3603ZM22.7566 12.8957C22.4689 13.0131 22.0311 13.1151 21.4386 13.1997L21.4621 13.3641C22.0586 13.2788 22.5125 13.1746 22.8193 13.0494L22.7566 12.8957ZM21.4385 13.1998C21.1013 13.2484 20.8536 13.3041 20.703 13.3696L20.7692 13.5218C20.8977 13.4659 21.1261 13.4125 21.4622 13.364L21.4385 13.1998ZM20.703 13.3696C20.5497 13.4362 20.4287 13.536 20.3432 13.6693L20.483 13.7589C20.5492 13.6556 20.6435 13.5765 20.7692 13.5218L20.703 13.3696ZM20.3438 13.6685C20.2587 13.7978 20.2164 13.9426 20.2164 14.1008H20.3823C20.3823 13.9739 20.4158 13.861 20.4824 13.7597L20.3438 13.6685ZM20.2164 14.1008C20.2164 14.343 20.3085 14.5475 20.4899 14.7088L20.6002 14.5847C20.454 14.4548 20.3823 14.2954 20.3823 14.1008H20.2164ZM20.4905 14.7093C20.6778 14.8728 20.9431 14.9481 21.2729 14.9481V14.7821C20.9659 14.7821 20.7458 14.7119 20.5996 14.5842L20.4905 14.7093ZM21.2729 14.9481C21.6007 14.9481 21.8955 14.8771 22.1549 14.7329L22.0743 14.5879C21.8424 14.7167 21.576 14.7821 21.2729 14.7821V14.9481ZM22.1556 14.7326C22.415 14.5853 22.6077 14.3835 22.7308 14.1277L22.5812 14.0557C22.4738 14.2791 22.3056 14.4565 22.0736 14.5882L22.1556 14.7326ZM22.7309 14.1273C22.8268 13.9257 22.8709 13.638 22.8709 13.2728H22.7049C22.7049 13.6294 22.6611 13.8877 22.581 14.0561L22.7309 14.1273ZM22.8709 13.2728V12.9725H22.7049V13.2728H22.8709ZM24.3439 15.3974L24.276 15.3497L24.1841 15.4804H24.3439V15.3974ZM26.1091 12.8861L26.177 12.9338L26.2105 12.8861L26.1769 12.8383L26.1091 12.8861ZM24.4758 10.5658V10.4829H24.3159L24.4079 10.6136L24.4758 10.5658ZM25.4994 10.5658L25.5689 10.5204L25.5443 10.4829H25.4994V10.5658ZM26.241 11.6987L26.3107 11.6535L26.3104 11.6532L26.241 11.6987ZM26.5777 12.2401L26.506 12.2819L26.573 12.3967L26.6467 12.2861L26.5777 12.2401ZM26.9462 11.7078L27.0134 11.7565L27.0138 11.756L26.9462 11.7078ZM27.7605 10.5658V10.4829H27.7178L27.693 10.5177L27.7605 10.5658ZM28.7387 10.5658L28.8056 10.6149L28.9026 10.4829H28.7387V10.5658ZM27.069 12.8406L27.0021 12.7915L26.9668 12.8395L27.0011 12.8883L27.069 12.8406ZM28.8661 15.3974V15.4804H29.0258L28.934 15.3497L28.8661 15.3974ZM27.8606 15.3974L27.7914 15.4432L27.816 15.4804H27.8606V15.3974ZM26.8688 13.8961L26.7993 13.9414L26.7996 13.9418L26.8688 13.8961ZM26.605 13.4912L26.6745 13.4459L26.6057 13.3403L26.5359 13.4452L26.605 13.4912ZM25.3357 15.3974V15.4804H25.3801L25.4047 15.4434L25.3357 15.3974ZM24.4118 15.4451L26.177 12.9338L26.0412 12.8384L24.276 15.3497L24.4118 15.4451ZM26.1769 12.8383L24.5437 10.5181L24.4079 10.6136L26.0412 12.9339L26.1769 12.8383ZM24.4758 10.6488H25.4994V10.4829H24.4758V10.6488ZM25.43 10.6113L26.1716 11.7441L26.3104 11.6532L25.5689 10.5204L25.43 10.6113ZM26.1714 11.7438C26.3105 11.9585 26.422 12.1378 26.506 12.2819L26.6494 12.1982C26.5635 12.0511 26.4506 11.8695 26.3107 11.6535L26.1714 11.7438ZM26.6467 12.2861C26.7797 12.0866 26.9019 11.9101 27.0134 11.7565L26.879 11.659C26.766 11.8148 26.6425 11.9932 26.5086 12.194L26.6467 12.2861ZM27.0138 11.756L27.8281 10.614L27.693 10.5177L26.8786 11.6596L27.0138 11.756ZM27.7605 10.6488H28.7387V10.4829H27.7605V10.6488ZM28.6718 10.5167L27.0021 12.7915L27.1359 12.8897L28.8056 10.6149L28.6718 10.5167ZM27.0011 12.8883L28.7982 15.4451L28.934 15.3497L27.1369 12.7929L27.0011 12.8883ZM28.8661 15.3144H27.8606V15.4804H28.8661V15.3144ZM27.9299 15.3517L26.9381 13.8503L26.7996 13.9418L27.7914 15.4432L27.9299 15.3517ZM26.9384 13.8508L26.6745 13.4459L26.5354 13.5365L26.7993 13.9414L26.9384 13.8508ZM26.5359 13.4452L25.2666 15.3514L25.4047 15.4434L26.674 13.5372L26.5359 13.4452ZM25.3357 15.3144H24.3439V15.4804H25.3357V15.3144ZM30.3037 15.3974V15.4804H30.3867V15.3974H30.3037ZM29.544 15.3974H29.461V15.4804H29.544V15.3974ZM29.544 8.72784V8.64485H29.461V8.72784H29.544ZM30.3629 8.72784H30.4459V8.64485H30.3629V8.72784ZM30.3629 11.1072H30.2799V11.3445L30.4278 11.159L30.3629 11.1072ZM32.5284 10.6386L32.4938 10.714L32.4948 10.7145L32.5284 10.6386ZM33.1836 11.1436L33.118 11.1946L33.1189 11.1956L33.1836 11.1436ZM33.5885 11.9261L33.6676 11.9011L33.5885 11.9261ZM30.3037 14.7923L30.3723 14.7456L30.2207 14.5232V14.7923H30.3037ZM30.5312 14.2009L30.602 14.1576L30.602 14.1576L30.5312 14.2009ZM32.5057 14.3692L32.5691 14.4227L32.5694 14.4224L32.5057 14.3692ZM32.5193 11.5804L32.4554 11.6333L32.4557 11.6337L32.5193 11.5804ZM30.6859 11.5986L30.7493 11.6521L30.7496 11.6518L30.6859 11.5986ZM30.3037 15.3144H29.544V15.4804H30.3037V15.3144ZM29.6269 15.3974V8.72784H29.461V15.3974H29.6269ZM29.544 8.81083H30.3629V8.64485H29.544V8.81083ZM30.2799 8.72784V11.1072H30.4459V8.72784H30.2799ZM30.4278 11.159C30.7584 10.7442 31.1762 10.5396 31.6868 10.5396V10.3737C31.1237 10.3737 30.6589 10.6028 30.298 11.0555L30.4278 11.159ZM31.6868 10.5396C31.9723 10.5396 32.241 10.5978 32.4938 10.714L32.5631 10.5632C32.2881 10.4368 31.9957 10.3737 31.6868 10.3737V10.5396ZM32.4948 10.7145C32.7499 10.8276 32.9571 10.9876 33.1181 11.1946L33.2491 11.0927C33.0703 10.8629 32.8408 10.6863 32.5621 10.5628L32.4948 10.7145ZM33.1189 11.1956C33.2844 11.4017 33.4149 11.6531 33.5094 11.9512L33.6676 11.9011C33.5679 11.5865 33.4285 11.3162 33.2483 11.0917L33.1189 11.1956ZM33.5094 11.9512C33.6036 12.2488 33.6511 12.5678 33.6511 12.9088H33.817C33.817 12.5523 33.7674 12.2162 33.6676 11.9011L33.5094 11.9512ZM33.6511 12.9088C33.6511 13.7237 33.4497 14.3411 33.0584 14.773L33.1814 14.8845C33.609 14.4125 33.817 13.75 33.817 12.9088H33.6511ZM33.0584 14.773C32.6635 15.2088 32.194 15.4236 31.6458 15.4236V15.5896C32.2441 15.5896 32.7573 15.3525 33.1814 14.8845L33.0584 14.773ZM31.6458 15.4236C31.1034 15.4236 30.6816 15.1994 30.3723 14.7456L30.2351 14.8391C30.5749 15.3376 31.0478 15.5896 31.6458 15.5896V15.4236ZM30.2207 14.7923V15.3974H30.3867V14.7923H30.2207ZM30.2116 12.9452C30.2116 13.5281 30.2903 13.9661 30.4604 14.2442L30.602 14.1576C30.4567 13.9201 30.3776 13.521 30.3776 12.9452H30.2116ZM30.4604 14.2442C30.7311 14.6868 31.1049 14.9163 31.5776 14.9163V14.7503C31.1707 14.7503 30.8469 14.5582 30.602 14.1576L30.4604 14.2442ZM31.5776 14.9163C31.9633 14.9163 32.2948 14.7481 32.5691 14.4227L32.4422 14.3157C32.1949 14.6091 31.9076 14.7503 31.5776 14.7503V14.9163ZM32.5694 14.4224C32.8477 14.0891 32.9799 13.6027 32.9799 12.9771H32.814C32.814 13.5829 32.6854 14.0246 32.442 14.316L32.5694 14.4224ZM32.9799 12.9771C32.9799 12.3379 32.8529 11.849 32.5829 11.5271L32.4557 11.6337C32.6893 11.9123 32.814 12.3546 32.814 12.9771H32.9799ZM32.5832 11.5274C32.3205 11.2103 31.9962 11.047 31.614 11.047V11.213C31.9415 11.213 32.2207 11.35 32.4554 11.6333L32.5832 11.5274ZM31.614 11.047C31.2279 11.047 30.8964 11.217 30.6222 11.5454L30.7496 11.6518C30.9971 11.3554 31.2842 11.213 31.614 11.213V11.047ZM30.6224 11.5451C30.3443 11.8749 30.2116 12.3459 30.2116 12.9452H30.3776C30.3776 12.3677 30.5058 11.941 30.7493 11.6521L30.6224 11.5451ZM35.1762 10.9935L35.1221 10.9306L35.1219 10.9308L35.1762 10.9935ZM38.3245 11.1118L38.2648 11.1694L38.265 11.1696L38.3245 11.1118ZM38.6748 14.3829L38.6014 14.3443L38.6012 14.3445L38.6748 14.3829ZM37.8605 15.2109L37.8204 15.1382L37.8202 15.1383L37.8605 15.2109ZM35.0534 14.856L34.9935 14.9134L34.9937 14.9137L35.0534 14.856ZM35.6767 14.3738L35.6142 14.4283L35.6144 14.4286L35.6767 14.3738ZM37.7058 11.5986L37.6432 11.6531L37.6438 11.6538L37.7058 11.5986ZM35.6767 11.594L35.739 11.6489L35.6767 11.594ZM34.5131 12.9816C34.5131 12.1019 34.7573 11.466 35.2306 11.0562L35.1219 10.9308C34.6004 11.3823 34.3471 12.0719 34.3471 12.9816H34.5131ZM35.2304 11.0564C35.6295 10.7127 36.1162 10.5396 36.6958 10.5396V10.3737C36.0803 10.3737 35.5541 10.5586 35.1221 10.9306L35.2304 11.0564ZM36.6958 10.5396C37.3398 10.5396 37.8604 10.7505 38.2648 11.1694L38.3842 11.0541C37.9454 10.5996 37.3802 10.3737 36.6958 10.3737V10.5396ZM38.265 11.1696C38.6678 11.584 38.8739 12.1616 38.8739 12.9134H39.0399C39.0399 12.1305 38.8244 11.507 38.384 11.0539L38.265 11.1696ZM38.8739 12.9134C38.8739 13.5283 38.7807 14.003 38.6014 14.3443L38.7483 14.4215C38.9451 14.047 39.0399 13.542 39.0399 12.9134H38.8739ZM38.6012 14.3445C38.4239 14.6846 38.1643 14.9488 37.8204 15.1382L37.9005 15.2836C38.2724 15.0787 38.5557 14.7909 38.7484 14.4212L38.6012 14.3445ZM37.8202 15.1383C37.4781 15.3284 37.1038 15.4236 36.6958 15.4236V15.5896C37.1309 15.5896 37.5331 15.4877 37.9008 15.2834L37.8202 15.1383ZM36.6958 15.4236C36.0389 15.4236 35.5141 15.2139 35.1131 14.7984L34.9937 14.9137C35.4299 15.3656 35.9999 15.5896 36.6958 15.5896V15.4236ZM35.1133 14.7986C34.7173 14.3852 34.5131 13.7839 34.5131 12.9816H34.3471C34.3471 13.8111 34.5585 14.4594 34.9935 14.9134L35.1133 14.7986ZM35.1888 12.9816C35.1888 13.6106 35.3258 14.0978 35.6142 14.4283L35.7392 14.3192C35.4878 14.031 35.3548 13.5901 35.3548 12.9816H35.1888ZM35.6144 14.4286C35.9002 14.7529 36.2626 14.9163 36.6958 14.9163V14.7503C36.3101 14.7503 35.9931 14.6073 35.739 14.3189L35.6144 14.4286ZM36.6958 14.9163C37.1265 14.9163 37.4873 14.751 37.7729 14.4238L37.6478 14.3147C37.3934 14.6062 37.078 14.7503 36.6958 14.7503V14.9163ZM37.7729 14.4238C38.0615 14.093 38.1982 13.5978 38.1982 12.9543H38.0322C38.0322 13.5786 37.899 14.0268 37.6478 14.3147L37.7729 14.4238ZM38.1982 12.9543C38.1982 12.3456 38.0593 11.8706 37.7677 11.5434L37.6438 11.6538C37.8982 11.9393 38.0322 12.3681 38.0322 12.9543H38.1982ZM37.7683 11.544C37.4829 11.217 37.1236 11.0515 36.6958 11.0515V11.2175C37.0747 11.2175 37.3887 11.3615 37.6432 11.6531L37.7683 11.544ZM36.6958 11.0515C36.2626 11.0515 35.9002 11.2149 35.6144 11.5392L35.739 11.6489C35.9931 11.3605 36.3101 11.2175 36.6958 11.2175V11.0515ZM35.6144 11.5392C35.3257 11.8668 35.1888 12.3528 35.1888 12.9816H35.3548C35.3548 12.373 35.4878 11.9339 35.739 11.6489L35.6144 11.5392ZM43.0742 14.8014L43.1567 14.7926L43.1401 14.6365L43.0204 14.7382L43.0742 14.8014ZM42.1961 15.3474L42.1669 15.2697L42.1666 15.2698L42.1961 15.3474ZM40.0715 15.1199L40.0155 15.1811L40.0159 15.1815L40.0715 15.1199ZM39.8031 13.4775L39.7305 13.4373L39.7303 13.4377L39.8031 13.4775ZM40.2262 13.0044L40.1799 12.9355L40.1793 12.9359L40.2262 13.0044ZM40.8176 12.736L40.7964 12.6557L40.7954 12.656L40.8176 12.736ZM41.5456 12.6131L41.5357 12.5307L41.5356 12.5307L41.5456 12.6131ZM43.006 12.3311L43.0333 12.4094L43.0874 12.3905L43.0889 12.3333L43.006 12.3311ZM42.7785 11.4121L42.7235 11.4742L42.7236 11.4743L42.7785 11.4121ZM40.9905 11.3393L41.0396 11.4062L41.0398 11.406L40.9905 11.3393ZM40.5856 12.0535L40.5744 12.1358L40.6476 12.1457L40.666 12.0742L40.5856 12.0535ZM39.7849 11.9443L39.7037 11.9271L39.6852 12.0145L39.7737 12.0266L39.7849 11.9443ZM40.1443 11.1163L40.2092 11.1681L40.2096 11.1676L40.1443 11.1163ZM40.8677 10.6295L40.8955 10.7077L40.8962 10.7075L40.8677 10.6295ZM43.5382 10.9708L43.474 11.0232L43.4745 11.0239L43.5382 10.9708ZM43.793 11.5258L43.8745 11.5099L43.8741 11.5083L43.793 11.5258ZM43.884 14.8196L43.8021 14.8331L43.8024 14.8345L43.884 14.8196ZM44.0933 15.3974V15.4804H44.2346L44.1658 15.357L44.0933 15.3974ZM43.238 15.3974L43.1638 15.4345L43.1867 15.4804H43.238V15.3974ZM43.006 12.9725H43.0889V12.849L42.9746 12.8957L43.006 12.9725ZM41.6684 13.2819L41.6567 13.1997L41.6566 13.1998L41.6684 13.2819ZM40.9541 13.4457L40.921 13.3696L40.9541 13.4457ZM40.6311 13.7141L40.7004 13.7597L40.701 13.7589L40.6311 13.7141ZM40.763 14.6468L40.7079 14.7088L40.7085 14.7093L40.763 14.6468ZM42.3326 14.6604L42.3729 14.733L42.3736 14.7326L42.3326 14.6604ZM42.874 14.0917L42.9488 14.1277L42.949 14.1273L42.874 14.0917ZM43.0204 14.7382C42.7222 14.9917 42.4377 15.1678 42.1669 15.2697L42.2254 15.425C42.5187 15.3146 42.8196 15.1268 43.1279 14.8647L43.0204 14.7382ZM42.1666 15.2698C41.8977 15.3721 41.6075 15.4236 41.2953 15.4236V15.5896C41.6261 15.5896 41.9365 15.535 42.2257 15.4249L42.1666 15.2698ZM41.2953 15.4236C40.7773 15.4236 40.3921 15.2979 40.1272 15.0583L40.0159 15.1815C40.3212 15.4576 40.7519 15.5896 41.2953 15.5896V15.4236ZM40.1275 15.0587C39.8605 14.8143 39.7269 14.5048 39.7269 14.1236H39.5609C39.5609 14.5491 39.7124 14.9038 40.0155 15.1811L40.1275 15.0587ZM39.7269 14.1236C39.7269 13.8999 39.7769 13.6984 39.8759 13.5173L39.7303 13.4377C39.617 13.6449 39.5609 13.8741 39.5609 14.1236H39.7269ZM39.8757 13.5177C39.9791 13.331 40.1116 13.1833 40.2731 13.0729L40.1793 12.9359C39.995 13.062 39.8455 13.2298 39.7305 13.4373L39.8757 13.5177ZM40.2725 13.0732C40.4405 12.9603 40.6295 12.8744 40.8399 12.8159L40.7954 12.656C40.5691 12.7189 40.3637 12.8119 40.1799 12.9355L40.2725 13.0732ZM40.8388 12.8162C40.9939 12.7752 41.2319 12.7348 41.5556 12.6955L41.5356 12.5307C41.2101 12.5703 40.9629 12.6118 40.7964 12.6557L40.8388 12.8162ZM41.5554 12.6955C42.2178 12.6165 42.712 12.5217 43.0333 12.4094L42.9786 12.2527C42.6751 12.3588 42.1957 12.452 41.5357 12.5307L41.5554 12.6955ZM43.0889 12.3333C43.0919 12.2214 43.0935 12.1489 43.0935 12.1172H42.9275C42.9275 12.1462 42.926 12.2162 42.923 12.3288L43.0889 12.3333ZM43.0935 12.1172C43.0935 11.7741 43.0144 11.5096 42.8334 11.3498L42.7236 11.4743C42.8519 11.5875 42.9275 11.793 42.9275 12.1172H43.0935ZM42.8334 11.3499C42.6032 11.1463 42.2691 11.0515 41.8458 11.0515V11.2175C42.2475 11.2175 42.5352 11.3078 42.7235 11.4742L42.8334 11.3499ZM41.8458 11.0515C41.4538 11.0515 41.1473 11.1205 40.9413 11.2725L41.0398 11.406C41.2038 11.2851 41.4675 11.2175 41.8458 11.2175V11.0515ZM40.9414 11.2723C40.7373 11.422 40.5954 11.6816 40.5052 12.0329L40.666 12.0742C40.7517 11.7401 40.8797 11.5234 41.0396 11.4062L40.9414 11.2723ZM40.5968 11.9713L39.7961 11.8621L39.7737 12.0266L40.5744 12.1358L40.5968 11.9713ZM39.8661 11.9616C39.937 11.6277 40.0525 11.3646 40.2092 11.1681L40.0794 11.0646C39.9025 11.2866 39.7784 11.5755 39.7037 11.9271L39.8661 11.9616ZM40.2096 11.1676C40.3646 10.9703 40.5913 10.816 40.8955 10.7077L40.8399 10.5513C40.5132 10.6676 40.2576 10.8378 40.0791 11.0651L40.2096 11.1676ZM40.8962 10.7075C41.2006 10.5963 41.5561 10.5396 41.9641 10.5396V10.3737C41.5411 10.3737 41.1656 10.4323 40.8392 10.5516L40.8962 10.7075ZM41.9641 10.5396C42.3711 10.5396 42.6953 10.5877 42.9403 10.6799L42.9988 10.5246C42.7282 10.4227 42.3821 10.3737 41.9641 10.3737V10.5396ZM42.9403 10.6799C43.19 10.7739 43.3651 10.8898 43.474 11.0232L43.6025 10.9183C43.4688 10.7544 43.2647 10.6247 42.9988 10.5246L42.9403 10.6799ZM43.4745 11.0239C43.5856 11.1572 43.6656 11.3292 43.7119 11.5433L43.8741 11.5083C43.8234 11.2735 43.7335 11.0755 43.602 10.9176L43.4745 11.0239ZM43.7116 11.5417C43.7371 11.6724 43.751 11.9166 43.751 12.281H43.917C43.917 11.9174 43.9035 11.6582 43.8745 11.5099L43.7116 11.5417ZM43.751 12.281V13.3729H43.917V12.281H43.751ZM43.751 13.3729C43.751 14.132 43.7674 14.6218 43.8021 14.8331L43.9659 14.8062C43.9339 14.6111 43.917 14.1364 43.917 13.3729H43.751ZM43.8024 14.8345C43.8405 15.044 43.9134 15.2452 44.0208 15.4378L44.1658 15.357C44.0669 15.1796 44.0004 14.9956 43.9657 14.8048L43.8024 14.8345ZM44.0933 15.3144H43.238V15.4804H44.0933V15.3144ZM43.3122 15.3603C43.2325 15.2009 43.1801 15.0122 43.1567 14.7926L42.9917 14.8102C43.0168 15.0456 43.0736 15.2542 43.1638 15.4345L43.3122 15.3603ZM42.9746 12.8957C42.6869 13.0131 42.2492 13.1151 41.6567 13.1997L41.6801 13.3641C42.2766 13.2788 42.7305 13.1746 43.0373 13.0494L42.9746 12.8957ZM41.6566 13.1998C41.3193 13.2484 41.0716 13.3041 40.921 13.3696L40.9872 13.5218C41.1157 13.4659 41.3442 13.4125 41.6802 13.364L41.6566 13.1998ZM40.921 13.3696C40.7677 13.4362 40.6467 13.536 40.5612 13.6693L40.701 13.7589C40.7672 13.6556 40.8615 13.5765 40.9872 13.5218L40.921 13.3696ZM40.5618 13.6685C40.4767 13.7978 40.4344 13.9426 40.4344 14.1008H40.6004C40.6004 13.9739 40.6338 13.861 40.7004 13.7597L40.5618 13.6685ZM40.4344 14.1008C40.4344 14.343 40.5265 14.5475 40.7079 14.7088L40.8182 14.5847C40.672 14.4548 40.6004 14.2954 40.6004 14.1008H40.4344ZM40.7085 14.7093C40.8959 14.8728 41.1611 14.9481 41.491 14.9481V14.7821C41.1839 14.7821 40.9639 14.7119 40.8176 14.5842L40.7085 14.7093ZM41.491 14.9481C41.8187 14.9481 42.1135 14.8771 42.3729 14.7329L42.2923 14.5879C42.0604 14.7167 41.7941 14.7821 41.491 14.7821V14.9481ZM42.3736 14.7326C42.633 14.5853 42.8258 14.3835 42.9488 14.1277L42.7992 14.0557C42.6918 14.2791 42.5236 14.4565 42.2916 14.5882L42.3736 14.7326ZM42.949 14.1273C43.0448 13.9257 43.0889 13.638 43.0889 13.2728H42.923C42.923 13.6294 42.8791 13.8877 42.7991 14.0561L42.949 14.1273ZM43.0889 13.2728V12.9725H42.923V13.2728H43.0889ZM45.0987 15.3974H45.0157V15.4804H45.0987V15.3974ZM45.0987 10.5658V10.4829H45.0157V10.5658H45.0987ZM45.8357 10.5658H45.9187V10.4829H45.8357V10.5658ZM45.8357 11.2983H45.7528V11.6221L45.9085 11.3382L45.8357 11.2983ZM46.3544 10.6204L46.3078 10.5518L46.3072 10.5522L46.3544 10.6204ZM47.7238 10.7205L47.8016 10.7494L47.8253 10.6856L47.7674 10.6499L47.7238 10.7205ZM47.4417 11.4803L47.3995 11.5517L47.485 11.6022L47.5195 11.5092L47.4417 11.4803ZM46.3589 11.4666L46.4085 11.5332L46.4094 11.5325L46.3589 11.4666ZM46.0541 11.9125L45.975 11.8874L45.9749 11.8877L46.0541 11.9125ZM45.9176 15.3974V15.4804H46.0006V15.3974H45.9176ZM45.1817 15.3974V10.5658H45.0157V15.3974H45.1817ZM45.0987 10.6488H45.8357V10.4829H45.0987V10.6488ZM45.7528 10.5658V11.2983H45.9187V10.5658H45.7528ZM45.9085 11.3382C46.0955 10.9974 46.2607 10.7862 46.4016 10.6887L46.3072 10.5522C46.1326 10.673 45.9521 10.9138 45.763 11.2584L45.9085 11.3382ZM46.401 10.6891C46.5483 10.5891 46.708 10.5396 46.8821 10.5396V10.3737C46.6741 10.3737 46.482 10.4334 46.3078 10.5518L46.401 10.6891ZM46.8821 10.5396C47.1398 10.5396 47.4054 10.6216 47.6802 10.7912L47.7674 10.6499C47.472 10.4676 47.1765 10.3737 46.8821 10.3737V10.5396ZM47.646 10.6916L47.3639 11.4514L47.5195 11.5092L47.8016 10.7494L47.646 10.6916ZM47.4839 11.4088C47.2731 11.2842 47.0585 11.2199 46.8412 11.2199V11.3859C47.0243 11.3859 47.21 11.4398 47.3995 11.5517L47.4839 11.4088ZM46.8412 11.2199C46.6439 11.2199 46.4655 11.2805 46.3085 11.4008L46.4094 11.5325C46.5375 11.4344 46.6806 11.3859 46.8412 11.3859V11.2199ZM46.3094 11.4001C46.1511 11.5179 46.0402 11.682 45.975 11.8874L46.1332 11.9376C46.1893 11.7609 46.2817 11.6277 46.4085 11.5332L46.3094 11.4001ZM45.9749 11.8877C45.8811 12.1879 45.8347 12.5148 45.8347 12.8679H46.0006C46.0006 12.5294 46.0452 12.2194 46.1333 11.9373L45.9749 11.8877ZM45.8347 12.8679V15.3974H46.0006V12.8679H45.8347ZM45.9176 15.3144H45.0987V15.4804H45.9176V15.3144ZM51.3452 15.3974H51.2622V15.4804H51.3452V15.3974ZM51.3452 14.7878H51.4282V14.5039L51.2753 14.7431L51.3452 14.7878ZM48.9294 15.1881L48.8837 15.2574L48.884 15.2576L48.9294 15.1881ZM48.1787 14.301L48.1034 14.3357L48.1037 14.3364L48.1787 14.301ZM48.156 11.6759L48.2328 11.7075L48.2328 11.7073L48.156 11.6759ZM50.7356 10.6432L50.6958 10.716L50.6965 10.7164L50.7356 10.6432ZM51.2906 11.1209L51.2234 11.1695L51.3736 11.3773V11.1209H51.2906ZM51.2906 8.72784V8.64485H51.2076V8.72784H51.2906ZM52.105 8.72784H52.188V8.64485H52.105V8.72784ZM52.105 15.3974V15.4804H52.188V15.3974H52.105ZM50.9812 14.3965L50.9182 14.3426L50.9181 14.3426L50.9812 14.3965ZM49.1205 11.5804L49.0565 11.5275L49.0562 11.5279L49.1205 11.5804ZM51.4282 15.3974V14.7878H51.2622V15.3974H51.4282ZM51.2753 14.7431C50.985 15.1972 50.5617 15.4236 49.994 15.4236V15.5896C50.6152 15.5896 51.0927 15.3368 51.4151 14.8325L51.2753 14.7431ZM49.994 15.4236C49.6251 15.4236 49.286 15.3222 48.9748 15.1187L48.884 15.2576C49.2219 15.4787 49.5926 15.5896 49.994 15.5896V15.4236ZM48.9751 15.1189C48.6674 14.9157 48.4268 14.6322 48.2538 14.2656L48.1037 14.3364C48.2885 14.728 48.5484 15.036 48.8837 15.2574L48.9751 15.1189ZM48.2541 14.2663C48.084 13.8968 47.9979 13.4707 47.9979 12.9862H47.8319C47.8319 13.4905 47.9216 13.9409 48.1034 14.3357L48.2541 14.2663ZM47.9979 12.9862C47.9979 12.5132 48.0767 12.0874 48.2328 11.7075L48.0792 11.6444C47.9138 12.047 47.8319 12.4946 47.8319 12.9862H47.9979ZM48.2328 11.7073C48.3879 11.3268 48.6189 11.0392 48.9246 10.8401L48.8341 10.701C48.4969 10.9205 48.2456 11.2364 48.0792 11.6446L48.2328 11.7073ZM48.9246 10.8401C49.2322 10.6399 49.5757 10.5396 49.9576 10.5396V10.3737C49.5448 10.3737 49.1696 10.4826 48.8341 10.701L48.9246 10.8401ZM49.9576 10.5396C50.2366 10.5396 50.4819 10.5991 50.6958 10.716L50.7754 10.5704C50.5343 10.4386 50.2609 10.3737 49.9576 10.3737V10.5396ZM50.6965 10.7164C50.9135 10.8321 51.0887 10.9832 51.2234 11.1695L51.3579 11.0723C51.2075 10.8643 51.0126 10.6969 50.7746 10.57L50.6965 10.7164ZM51.3736 11.1209V8.72784H51.2076V11.1209H51.3736ZM51.2906 8.81083H52.105V8.64485H51.2906V8.81083ZM52.022 8.72784V15.3974H52.188V8.72784H52.022ZM52.105 15.3144H51.3452V15.4804H52.105V15.3144ZM48.6735 12.9862C48.6735 13.6145 48.8057 14.1 49.0846 14.4276L49.211 14.32C48.9682 14.0349 48.8395 13.5953 48.8395 12.9862H48.6735ZM49.0846 14.4276C49.3589 14.7497 49.6887 14.9163 50.0713 14.9163V14.7503C49.7442 14.7503 49.4584 14.6106 49.211 14.32L49.0846 14.4276ZM50.0713 14.9163C50.4554 14.9163 50.7811 14.7586 51.0443 14.4504L50.9181 14.3426C50.6839 14.6168 50.4031 14.7503 50.0713 14.7503V14.9163ZM51.0443 14.4505C51.3143 14.1349 51.4418 13.6644 51.4418 13.0544H51.2759C51.2759 13.6456 51.1516 14.0698 50.9182 14.3426L51.0443 14.4505ZM51.4418 13.0544C51.4418 12.3855 51.3135 11.877 51.0408 11.5458L50.9126 11.6513C51.1494 11.9389 51.2759 12.4009 51.2759 13.0544H51.4418ZM51.0408 11.5458C50.7716 11.2189 50.4348 11.0515 50.0349 11.0515V11.2175C50.3812 11.2175 50.6723 11.3595 50.9126 11.6513L51.0408 11.5458ZM50.0349 11.0515C49.6446 11.0515 49.3169 11.2125 49.0565 11.5275L49.1845 11.6333C49.4154 11.3538 49.6974 11.2175 50.0349 11.2175V11.0515ZM49.0562 11.5279C48.7957 11.847 48.6735 12.3388 48.6735 12.9862H48.8395C48.8395 12.3536 48.96 11.9082 49.1848 11.6329L49.0562 11.5279Z" fill="#303030"/>
<path d="M2.25484 14.955H-7.62939e-06V7.20057L2.25484 9.07612V14.955Z" fill="url(#paint0_linear_26_70)"/>
<path d="M7.59379 14.8597L9.84857 14.8441L9.79461 8.08679L7.55288 9.73684L7.59379 14.8597Z" fill="url(#paint1_linear_26_70)"/>
<path d="M13.6477 9.19457H11.3929V14.8442H13.6477V9.19457Z" fill="url(#paint2_linear_26_70)"/>
<path d="M20.7825 1.49993L12.3019 8.61852L7.00187 4.13534L8.83304 2.63873L12.3874 5.54333L18.9514 0L20.7825 1.49993Z" fill="url(#paint3_linear_26_70)"/>
<path d="M9.3754 6.5359L5.30006 10.2802L-7.62939e-06 5.79701L1.66146 4.43112L5.30006 7.42213L7.71393 5.20657L9.3754 6.5359Z" fill="url(#paint4_linear_26_70)"/>
<path d="M10.0875 3.21257L11.6303 4.43112L13.4104 2.76945L11.7489 1.77245L10.0875 3.21257Z" fill="url(#paint5_linear_26_70)"/>
<defs>
<linearGradient id="paint0_linear_26_70" x1="-7.62939e-06" y1="11.0783" x2="2.25484" y2="11.0783" gradientUnits="userSpaceOnUse">
<stop offset="0.01" stop-color="#11BEEF"/>
<stop offset="0.984375" stop-color="#0781E6"/>
</linearGradient>
<linearGradient id="paint1_linear_26_70" x1="9.82159" y1="11.4659" x2="7.56683" y2="11.4839" gradientUnits="userSpaceOnUse">
<stop offset="0.01" stop-color="#11BEEF"/>
<stop offset="1" stop-color="#11BEEF"/>
</linearGradient>
<linearGradient id="paint2_linear_26_70" x1="188.443" y1="692.41" x2="237.666" y2="692.41" gradientUnits="userSpaceOnUse">
<stop offset="0.01" stop-color="#11BEEF"/>
<stop offset="1" stop-color="#067AE5"/>
</linearGradient>
<linearGradient id="paint3_linear_26_70" x1="616.785" y1="410.759" x2="2272.59" y2="410.759" gradientUnits="userSpaceOnUse">
<stop offset="0.01" stop-color="#11BEEF"/>
<stop offset="1" stop-color="#067AE5"/>
</linearGradient>
<linearGradient id="paint4_linear_26_70" x1="609.783" y1="412.42" x2="2265.59" y2="412.42" gradientUnits="userSpaceOnUse">
<stop offset="0.01" stop-color="#11BEEF"/>
</linearGradient>
<linearGradient id="paint5_linear_26_70" x1="461.329" y1="112.233" x2="765.542" y2="112.233" gradientUnits="userSpaceOnUse">
<stop offset="0.01" stop-color="#11BEEF"/>
<stop offset="1" stop-color="#067AE5"/>
</linearGradient>
</defs>
</svg>
