<svg width="75" height="75" viewBox="0 0 74 74" fill="none" xmlns="http://www.w3.org/2000/svg">
<mask id="path-1-outside-1_1333_29297" maskUnits="userSpaceOnUse" x="0" y="14.1619" width="74" height="60" fill="black">
<rect fill="white" y="14.1619" width="74" height="60"/>
<path d="M69.3307 73H4.66933C2.64897 73 1 71.6179 1 69.9153V25.6397H72.9951V69.9195C73 71.6179 71.351 73 69.3307 73ZM2.10921 26.5721V69.9195C2.10921 71.1059 3.25805 72.0717 4.66933 72.0717H69.3307C70.742 72.0717 71.8908 71.1059 71.8908 69.9195V26.5721H2.10921ZM66.8547 68.0088H53.3461V56.7359H66.8547V68.0088ZM54.4602 67.0763H65.7505V57.6683H54.4602V67.0763ZM51.296 68.0088H37.7874V56.7359H51.296V68.0088ZM38.8966 67.0763H50.1868V57.6683H38.8966V67.0763ZM35.7323 68.0088H22.2237V56.7359H35.7323V68.0088ZM23.3329 67.0763H34.6231V57.6683H23.3329V67.0763ZM20.1736 68.0088H6.66493V56.7359H20.1736V68.0088ZM7.77414 67.0763H19.0693V57.6683H7.77414V67.0763ZM66.8547 55.129H53.3461V43.8561H66.8547V55.129ZM54.4602 54.2007H65.7505V44.7928H54.4602V54.2007ZM51.296 55.129H37.7874V43.8561H51.296V55.129ZM38.8966 54.2007H50.1868V44.7928H38.8966V54.2007ZM35.7323 55.129H22.2237V43.8561H35.7323V55.129ZM23.3329 54.2007H34.6231V44.7928H23.3329V54.2007ZM20.1736 55.129H6.66493V43.8561H20.1736V55.129ZM7.77414 54.2007H19.0693V44.7928H7.77414V54.2007ZM66.8547 42.0786H53.3461V30.8057H66.8547V42.0786ZM54.4602 41.1461H65.7505V31.7382H54.4602V41.1461ZM51.296 42.0786H37.7874V30.8057H51.296V42.0786ZM38.8966 41.1461H50.1868V31.7382H38.8966V41.1461ZM35.7323 42.0786H22.2237V30.8057H35.7323V42.0786ZM23.3329 41.1461H34.6231V31.7382H23.3329V41.1461ZM20.1736 42.0786H6.66493V30.8057H20.1736V42.0786ZM7.77414 41.1461H19.0693V31.7382H7.77414V41.1461ZM73 22.9755H1V18.2465C1 16.5439 2.64402 15.1619 4.66933 15.1619H69.3307C71.351 15.1619 73 16.5439 73 18.2465V22.9755ZM2.10921 22.0472H71.8908V18.2507C71.8908 17.0643 70.742 16.0985 69.3307 16.0985H4.66933C3.25805 16.0985 2.10921 17.0643 2.10921 18.2507V22.0472Z"/>
</mask>
<path d="M69.3307 73H4.66933C2.64897 73 1 71.6179 1 69.9153V25.6397H72.9951V69.9195C73 71.6179 71.351 73 69.3307 73ZM2.10921 26.5721V69.9195C2.10921 71.1059 3.25805 72.0717 4.66933 72.0717H69.3307C70.742 72.0717 71.8908 71.1059 71.8908 69.9195V26.5721H2.10921ZM66.8547 68.0088H53.3461V56.7359H66.8547V68.0088ZM54.4602 67.0763H65.7505V57.6683H54.4602V67.0763ZM51.296 68.0088H37.7874V56.7359H51.296V68.0088ZM38.8966 67.0763H50.1868V57.6683H38.8966V67.0763ZM35.7323 68.0088H22.2237V56.7359H35.7323V68.0088ZM23.3329 67.0763H34.6231V57.6683H23.3329V67.0763ZM20.1736 68.0088H6.66493V56.7359H20.1736V68.0088ZM7.77414 67.0763H19.0693V57.6683H7.77414V67.0763ZM66.8547 55.129H53.3461V43.8561H66.8547V55.129ZM54.4602 54.2007H65.7505V44.7928H54.4602V54.2007ZM51.296 55.129H37.7874V43.8561H51.296V55.129ZM38.8966 54.2007H50.1868V44.7928H38.8966V54.2007ZM35.7323 55.129H22.2237V43.8561H35.7323V55.129ZM23.3329 54.2007H34.6231V44.7928H23.3329V54.2007ZM20.1736 55.129H6.66493V43.8561H20.1736V55.129ZM7.77414 54.2007H19.0693V44.7928H7.77414V54.2007ZM66.8547 42.0786H53.3461V30.8057H66.8547V42.0786ZM54.4602 41.1461H65.7505V31.7382H54.4602V41.1461ZM51.296 42.0786H37.7874V30.8057H51.296V42.0786ZM38.8966 41.1461H50.1868V31.7382H38.8966V41.1461ZM35.7323 42.0786H22.2237V30.8057H35.7323V42.0786ZM23.3329 41.1461H34.6231V31.7382H23.3329V41.1461ZM20.1736 42.0786H6.66493V30.8057H20.1736V42.0786ZM7.77414 41.1461H19.0693V31.7382H7.77414V41.1461ZM73 22.9755H1V18.2465C1 16.5439 2.64402 15.1619 4.66933 15.1619H69.3307C71.351 15.1619 73 16.5439 73 18.2465V22.9755ZM2.10921 22.0472H71.8908V18.2507C71.8908 17.0643 70.742 16.0985 69.3307 16.0985H4.66933C3.25805 16.0985 2.10921 17.0643 2.10921 18.2507V22.0472Z" fill="#1DA1F2"/>
<path d="M69.3307 73H4.66933C2.64897 73 1 71.6179 1 69.9153V25.6397H72.9951V69.9195C73 71.6179 71.351 73 69.3307 73ZM2.10921 26.5721V69.9195C2.10921 71.1059 3.25805 72.0717 4.66933 72.0717H69.3307C70.742 72.0717 71.8908 71.1059 71.8908 69.9195V26.5721H2.10921ZM66.8547 68.0088H53.3461V56.7359H66.8547V68.0088ZM54.4602 67.0763H65.7505V57.6683H54.4602V67.0763ZM51.296 68.0088H37.7874V56.7359H51.296V68.0088ZM38.8966 67.0763H50.1868V57.6683H38.8966V67.0763ZM35.7323 68.0088H22.2237V56.7359H35.7323V68.0088ZM23.3329 67.0763H34.6231V57.6683H23.3329V67.0763ZM20.1736 68.0088H6.66493V56.7359H20.1736V68.0088ZM7.77414 67.0763H19.0693V57.6683H7.77414V67.0763ZM66.8547 55.129H53.3461V43.8561H66.8547V55.129ZM54.4602 54.2007H65.7505V44.7928H54.4602V54.2007ZM51.296 55.129H37.7874V43.8561H51.296V55.129ZM38.8966 54.2007H50.1868V44.7928H38.8966V54.2007ZM35.7323 55.129H22.2237V43.8561H35.7323V55.129ZM23.3329 54.2007H34.6231V44.7928H23.3329V54.2007ZM20.1736 55.129H6.66493V43.8561H20.1736V55.129ZM7.77414 54.2007H19.0693V44.7928H7.77414V54.2007ZM66.8547 42.0786H53.3461V30.8057H66.8547V42.0786ZM54.4602 41.1461H65.7505V31.7382H54.4602V41.1461ZM51.296 42.0786H37.7874V30.8057H51.296V42.0786ZM38.8966 41.1461H50.1868V31.7382H38.8966V41.1461ZM35.7323 42.0786H22.2237V30.8057H35.7323V42.0786ZM23.3329 41.1461H34.6231V31.7382H23.3329V41.1461ZM20.1736 42.0786H6.66493V30.8057H20.1736V42.0786ZM7.77414 41.1461H19.0693V31.7382H7.77414V41.1461ZM73 22.9755H1V18.2465C1 16.5439 2.64402 15.1619 4.66933 15.1619H69.3307C71.351 15.1619 73 16.5439 73 18.2465V22.9755ZM2.10921 22.0472H71.8908V18.2507C71.8908 17.0643 70.742 16.0985 69.3307 16.0985H4.66933C3.25805 16.0985 2.10921 17.0643 2.10921 18.2507V22.0472Z" stroke="#1DA1F2" stroke-width="1.6" mask="url(#path-1-outside-1_1333_29297)"/>
<path d="M26.003 16.0281H26.403V15.6281V3.32701C26.403 1.76171 24.9131 0.6 23.2349 0.6C21.5567 0.6 20.0668 1.76171 20.0668 3.32701V15.6281V16.0281H20.4668H21.576H21.976V15.6281V3.32701C21.976 2.84005 22.4718 2.33247 23.2349 2.33247C23.9979 2.33247 24.4938 2.84005 24.4938 3.32701V15.6281V16.0281H24.8938H26.003Z" fill="#1DA1F2" stroke="#1DA1F2" stroke-width="0.8"/>
<path d="M50.4352 15.6281V16.0281H50.8352H51.9444V15.6281H52.3444V3.32701C52.3444 1.76171 50.8545 0.6 49.1763 0.6C47.4981 0.6 46.0082 1.76171 46.0082 3.32701V15.6281V16.0281H46.4082H47.5174H47.9174V15.6281V3.32701C47.9174 2.84005 48.4132 2.33247 49.1763 2.33247C49.9393 2.33247 50.4352 2.84005 50.4352 3.32701V15.6281Z" fill="#1DA1F2" stroke="#1DA1F2" stroke-width="0.8"/>
<path d="M15.266 20.755C15.532 20.923 16.029 21.077 16.617 21.077C17.772 21.077 18.479 20.489 18.479 19.684C18.479 19.089 18.038 18.676 17.492 18.578V18.564C18.052 18.368 18.325 17.99 18.325 17.507C18.325 16.884 17.786 16.373 16.813 16.373C16.225 16.373 15.679 16.541 15.406 16.716L15.623 17.486C15.812 17.374 16.204 17.213 16.575 17.213C17.023 17.213 17.247 17.416 17.247 17.689C17.247 18.074 16.792 18.207 16.435 18.214H16.022V18.977H16.456C16.925 18.977 17.373 19.18 17.373 19.628C17.373 19.971 17.093 20.237 16.54 20.237C16.106 20.237 15.672 20.055 15.483 19.957L15.266 20.755ZM24.8199 21H25.8629L25.6039 16.282H24.2109L23.7069 17.85C23.5529 18.375 23.3919 18.998 23.2589 19.544H23.2379C23.1329 18.991 22.9859 18.403 22.8389 17.857L22.3769 16.282H20.9559L20.6549 21H21.6419L21.7259 19.208C21.7609 18.62 21.7819 17.892 21.8099 17.255H21.8239C21.9359 17.871 22.0969 18.543 22.2509 19.096L22.7549 20.923H23.5879L24.1619 19.082C24.3439 18.529 24.5399 17.857 24.6869 17.255H24.7079C24.7079 17.941 24.7289 18.627 24.7499 19.194L24.8199 21ZM28.2963 17.5C27.1973 17.5 26.4693 18.207 26.4693 19.313C26.4693 20.419 27.2393 21.077 28.2403 21.077C29.1573 21.077 30.0463 20.503 30.0463 19.25C30.0463 18.221 29.3463 17.5 28.2963 17.5ZM28.2683 18.256C28.7513 18.256 28.9473 18.774 28.9473 19.285C28.9473 19.901 28.6813 20.314 28.2683 20.314C27.8133 20.314 27.5683 19.873 27.5683 19.285C27.5683 18.781 27.7573 18.256 28.2683 18.256ZM30.7053 21H31.7693V19.026C31.7693 18.928 31.7833 18.823 31.8113 18.76C31.8813 18.564 32.0563 18.361 32.3503 18.361C32.7353 18.361 32.8893 18.662 32.8893 19.103V21H33.9533V18.97C33.9533 17.962 33.4283 17.5 32.7283 17.5C32.1613 17.5 31.8113 17.829 31.6713 18.046H31.6503L31.6013 17.577H30.6773C30.6913 17.878 30.7053 18.242 30.7053 18.669V21ZM34.9129 16.835V17.577H34.4579V18.361H34.9129V19.761C34.9129 20.244 35.0109 20.573 35.2069 20.776C35.3749 20.951 35.6619 21.07 36.0049 21.07C36.3059 21.07 36.5579 21.035 36.6979 20.979L36.6909 20.174C36.6139 20.188 36.5089 20.202 36.3759 20.202C36.0539 20.202 35.9559 20.013 35.9559 19.6V18.361H36.7189V17.577H35.9559V16.597L34.9129 16.835ZM37.3362 21H38.4002V18.97C38.4002 18.893 38.4072 18.802 38.4352 18.732C38.5122 18.543 38.6872 18.361 38.9672 18.361C39.3662 18.361 39.5202 18.669 39.5202 19.117V21H40.5842V18.998C40.5842 17.969 40.0662 17.5 39.3872 17.5C39.1912 17.5 38.9882 17.549 38.8342 17.633C38.6662 17.724 38.5262 17.836 38.4142 17.983H38.4002V16.03H37.3362V21ZM42.8878 21H43.9448V19.313C44.0428 19.327 44.1688 19.334 44.3088 19.334C44.9388 19.334 45.4778 19.18 45.8418 18.837C46.1218 18.571 46.2758 18.179 46.2758 17.717C46.2758 17.255 46.0728 16.863 45.7718 16.625C45.4568 16.373 44.9878 16.247 44.3298 16.247C43.6788 16.247 43.2168 16.289 42.8878 16.345V21ZM43.9448 17.094C44.0218 17.073 44.1688 17.052 44.3858 17.052C44.9178 17.052 45.2188 17.311 45.2188 17.745C45.2188 18.228 44.8688 18.515 44.3018 18.515C44.1478 18.515 44.0358 18.508 43.9448 18.487V17.094ZM46.9202 21H47.9842V16.03H46.9202V21ZM51.7529 21C51.7179 20.811 51.7039 20.496 51.7039 20.167V18.977C51.7039 18.172 51.3399 17.5 50.1989 17.5C49.5759 17.5 49.1069 17.668 48.8689 17.801L49.0649 18.487C49.2889 18.347 49.6599 18.228 50.0099 18.228C50.5349 18.228 50.6329 18.487 50.6329 18.669V18.718C49.4219 18.711 48.6239 19.138 48.6239 20.027C48.6239 20.573 49.0369 21.077 49.7299 21.077C50.1359 21.077 50.4859 20.93 50.7099 20.657H50.7309L50.7939 21H51.7529ZM50.6679 19.754C50.6679 19.817 50.6609 19.88 50.6469 19.936C50.5769 20.153 50.3599 20.328 50.0939 20.328C49.8559 20.328 49.6739 20.195 49.6739 19.922C49.6739 19.509 50.1079 19.376 50.6679 19.383V19.754ZM52.5461 21H53.6101V19.026C53.6101 18.928 53.6241 18.823 53.6521 18.76C53.7221 18.564 53.8971 18.361 54.1911 18.361C54.5761 18.361 54.7301 18.662 54.7301 19.103V21H55.7941V18.97C55.7941 17.962 55.2691 17.5 54.5691 17.5C54.0021 17.5 53.6521 17.829 53.5121 18.046H53.4911L53.4421 17.577H52.5181C52.5321 17.878 52.5461 18.242 52.5461 18.669V21Z" fill="#1DA1F2"/>
</svg>
