<svg width="75" height="75" viewBox="0 0 55 66" fill="none" xmlns="http://www.w3.org/2000/svg">
<path d="M18.4375 15.8047H22.6406V21.5391C21.9531 21.763 21.2917 21.9219 20.6562 22.0156C20.026 22.1094 19.3438 22.1562 18.6094 22.1562C16.8802 22.1562 15.5469 21.6458 14.6094 20.625C13.6719 19.599 13.2031 18.1536 13.2031 16.2891C13.2031 14.4505 13.7318 13.013 14.7891 11.9766C15.8464 10.9349 17.3021 10.4141 19.1562 10.4141C20.349 10.4141 21.4792 10.6432 22.5469 11.1016L21.8906 12.6562C20.9635 12.2292 20.0365 12.0156 19.1094 12.0156C17.8906 12.0156 16.9271 12.3984 16.2188 13.1641C15.5104 13.9297 15.1562 14.9766 15.1562 16.3047C15.1562 17.7005 15.474 18.763 16.1094 19.4922C16.75 20.2161 17.6693 20.5781 18.8672 20.5781C19.4714 20.5781 20.1172 20.5026 20.8047 20.3516V17.4062H18.4375V15.8047ZM31.9766 18.8984C31.9766 19.9141 31.6094 20.7109 30.875 21.2891C30.1406 21.8672 29.1276 22.1562 27.8359 22.1562C26.5443 22.1562 25.487 21.9557 24.6641 21.5547V19.7891C25.1849 20.0339 25.737 20.2266 26.3203 20.3672C26.9089 20.5078 27.4557 20.5781 27.9609 20.5781C28.7005 20.5781 29.2448 20.4375 29.5938 20.1562C29.9479 19.875 30.125 19.4974 30.125 19.0234C30.125 18.5964 29.9635 18.2344 29.6406 17.9375C29.3177 17.6406 28.651 17.2891 27.6406 16.8828C26.599 16.4609 25.8646 15.9792 25.4375 15.4375C25.0104 14.8958 24.7969 14.2448 24.7969 13.4844C24.7969 12.5312 25.1354 11.7812 25.8125 11.2344C26.4896 10.6875 27.3984 10.4141 28.5391 10.4141C29.6328 10.4141 30.7214 10.6536 31.8047 11.1328L31.2109 12.6562C30.1953 12.2292 29.2891 12.0156 28.4922 12.0156C27.888 12.0156 27.4297 12.1484 27.1172 12.4141C26.8047 12.6745 26.6484 13.0208 26.6484 13.4531C26.6484 13.75 26.7109 14.0052 26.8359 14.2188C26.9609 14.4271 27.1667 14.625 27.4531 14.8125C27.7396 15 28.2552 15.2474 29 15.5547C29.8385 15.9036 30.4531 16.2292 30.8438 16.5312C31.2344 16.8333 31.5208 17.1745 31.7031 17.5547C31.8854 17.9349 31.9766 18.3828 31.9766 18.8984ZM38.1328 22H36.2656V12.1797H32.9062V10.5781H41.4922V12.1797H38.1328V22Z" fill="#1DA1F2"/>
<path d="M48.96 0H5.44C2.448 0 0 2.448 0 5.44V59.84C0 62.832 2.448 65.28 5.44 65.28H48.96C51.952 65.28 54.4 62.832 54.4 59.84V5.44C54.4 2.448 51.952 0 48.96 0ZM16.32 54.4C16.32 55.896 15.096 57.12 13.6 57.12H8.16C6.664 57.12 5.44 55.896 5.44 54.4V53.04C5.44 51.544 6.664 50.32 8.16 50.32H13.6C15.096 50.32 16.32 51.544 16.32 53.04V54.4ZM16.32 43.52C16.32 45.016 15.096 46.24 13.6 46.24H8.16C6.664 46.24 5.44 45.016 5.44 43.52V42.16C5.44 40.664 6.664 39.44 8.16 39.44H13.6C15.096 39.44 16.32 40.664 16.32 42.16V43.52ZM16.32 32.64C16.32 34.136 15.096 35.36 13.6 35.36H8.16C6.664 35.36 5.44 34.136 5.44 32.64V31.28C5.44 29.784 6.664 28.56 8.16 28.56H13.6C15.096 28.56 16.32 29.784 16.32 31.28V32.64ZM32.64 54.4C32.64 55.896 31.416 57.12 29.92 57.12H24.48C22.984 57.12 21.76 55.896 21.76 54.4V53.04C21.76 51.544 22.984 50.32 24.48 50.32H29.92C31.416 50.32 32.64 51.544 32.64 53.04V54.4ZM32.64 43.52C32.64 45.016 31.416 46.24 29.92 46.24H24.48C22.984 46.24 21.76 45.016 21.76 43.52V42.16C21.76 40.664 22.984 39.44 24.48 39.44H29.92C31.416 39.44 32.64 40.664 32.64 42.16V43.52ZM32.64 32.64C32.64 34.136 31.416 35.36 29.92 35.36H24.48C22.984 35.36 21.76 34.136 21.76 32.64V31.28C21.76 29.784 22.984 28.56 24.48 28.56H29.92C31.416 28.56 32.64 29.784 32.64 31.28V32.64ZM48.96 54.4C48.96 55.896 47.736 57.12 46.24 57.12H40.8C39.304 57.12 38.08 55.896 38.08 54.4V53.04C38.08 51.544 39.304 50.32 40.8 50.32H46.24C47.736 50.32 48.96 51.544 48.96 53.04V54.4ZM48.96 43.52C48.96 45.016 47.736 46.24 46.24 46.24H40.8C39.304 46.24 38.08 45.016 38.08 43.52V42.16C38.08 40.664 39.304 39.44 40.8 39.44H46.24C47.736 39.44 48.96 40.664 48.96 42.16V43.52ZM48.96 32.64C48.96 34.136 47.736 35.36 46.24 35.36H40.8C39.304 35.36 38.08 34.136 38.08 32.64V31.28C38.08 29.784 39.304 28.56 40.8 28.56H46.24C47.736 28.56 48.96 29.784 48.96 31.28V32.64ZM48.96 20.4C48.96 21.896 47.736 23.12 46.24 23.12H8.16C6.664 23.12 5.44 21.896 5.44 20.4V9.52C5.44 8.024 6.664 6.8 8.16 6.8H46.24C47.736 6.8 48.96 8.024 48.96 9.52V20.4Z" fill="#1DA1F2"/>
</svg>
