<svg width="75" height="75" viewBox="0 0 80 80" fill="none" xmlns="http://www.w3.org/2000/svg">
<path d="M80 40C80 62.0917 62.0917 80 40 80C17.9083 80 0 62.0917 0 40C0 17.9083 17.9083 0 40 0C62.0917 0 80 17.9083 80 40Z" fill="#4AE3A2"/>
<path d="M50.1562 8.19824H19.0625V61.6357H60.9375V18.9795L50.1562 8.19824Z" fill="white"/>
<path d="M60.9376 18.9795L50.1564 8.19824H39.9629V61.6357H60.9376V18.9795Z" fill="#E9EDF5"/>
<path d="M50.1562 18.9795H60.9375L50.1562 8.19824V18.9795Z" fill="#A3D4FF"/>
<path d="M33.8018 30.7812L29.8174 24.6875H13.7871V63.385H66.2139V30.7812H33.8018Z" fill="#FFD400"/>
<path d="M39.9629 30.7812H66.2135V63.385H39.9629V30.7812Z" fill="#FDBA12"/>
<path d="M34.1454 41.1505H21.0723V44.9554H25.7061V54.3964H29.5116V44.9554H34.1454V41.1505Z" fill="#414952"/>
<path d="M58.9279 41.3226H54.8306L52.9769 44.549L51.1233 41.3226L47.0254 41.3232L50.7815 47.8595L47.0254 54.3964H51.1233L52.9769 51.17L54.8306 54.3964H58.9279L55.1718 47.8595L58.9279 41.3226Z" fill="#333940"/>
<path d="M42.4387 54.3964H46.2437L42.634 41.3232H36.8778L33.2676 54.3964H37.0731L37.9905 51.0736H41.5214L42.4387 54.3964ZM38.7235 48.4192L39.7556 44.6796L40.7883 48.4192H38.7235Z" fill="#414952"/>
<path d="M42.6344 41.3232H39.9629V45.4279L40.7887 48.4192H39.9629V51.0736H41.5217L42.4391 54.3964H46.244L42.6344 41.3232Z" fill="#333940"/>
</svg>
