<svg width="73" height="20" viewBox="0 0 73 20" fill="none" xmlns="http://www.w3.org/2000/svg">
<rect width="73" height="20" fill="#2DCE89"/>
<path d="M7.97949 7.75977C7.30892 7.75977 6.78158 7.9974 6.39746 8.47266C6.01335 8.94792 5.82129 9.60384 5.82129 10.4404C5.82129 11.3161 6.00521 11.9785 6.37305 12.4277C6.74414 12.877 7.27962 13.1016 7.97949 13.1016C8.28223 13.1016 8.5752 13.0723 8.8584 13.0137C9.1416 12.9518 9.4362 12.8737 9.74219 12.7793V13.7803C9.18229 13.9919 8.54753 14.0977 7.83789 14.0977C6.79297 14.0977 5.99056 13.7819 5.43066 13.1504C4.87077 12.5156 4.59082 11.609 4.59082 10.4307C4.59082 9.68848 4.72591 9.03906 4.99609 8.48242C5.26953 7.92578 5.66341 7.49935 6.17773 7.20312C6.69206 6.9069 7.2959 6.75879 7.98926 6.75879C8.71842 6.75879 9.39225 6.91178 10.0107 7.21777L9.59082 8.18945C9.34993 8.07552 9.0944 7.97624 8.82422 7.8916C8.55729 7.80371 8.27572 7.75977 7.97949 7.75977ZM16.1482 11.29C16.1482 12.1722 15.922 12.8607 15.4695 13.3555C15.0171 13.8503 14.3872 14.0977 13.5799 14.0977C13.0753 14.0977 12.6294 13.9837 12.242 13.7559C11.8546 13.528 11.5568 13.2008 11.3484 12.7744C11.1401 12.348 11.0359 11.8532 11.0359 11.29C11.0359 10.4144 11.2605 9.73079 11.7098 9.23926C12.159 8.74772 12.7921 8.50195 13.6092 8.50195C14.3904 8.50195 15.0089 8.75423 15.4646 9.25879C15.9204 9.76009 16.1482 10.4372 16.1482 11.29ZM12.2176 11.29C12.2176 12.5368 12.6782 13.1602 13.5994 13.1602C14.5109 13.1602 14.9666 12.5368 14.9666 11.29C14.9666 10.0563 14.5076 9.43945 13.5896 9.43945C13.1079 9.43945 12.7579 9.59896 12.5398 9.91797C12.325 10.237 12.2176 10.6943 12.2176 11.29ZM22.2223 14H21.0699V10.6699C21.0699 10.2565 20.9918 9.94889 20.8355 9.74707C20.6793 9.54199 20.4352 9.43945 20.1031 9.43945C19.6604 9.43945 19.3349 9.58431 19.1266 9.87402C18.9215 10.1605 18.8189 10.639 18.8189 11.3096V14H17.6715V8.59961H18.5699L18.7311 9.30762H18.7896C18.9394 9.05046 19.1559 8.85189 19.4391 8.71191C19.7255 8.57194 20.0396 8.50195 20.3814 8.50195C21.2115 8.50195 21.7617 8.78516 22.0318 9.35156H22.11C22.2695 9.08464 22.4941 8.8763 22.7838 8.72656C23.0735 8.57682 23.4055 8.50195 23.7799 8.50195C24.4244 8.50195 24.8932 8.66471 25.1861 8.99023C25.4824 9.31576 25.6305 9.81217 25.6305 10.4795V14H24.483V10.6699C24.483 10.2565 24.4033 9.94889 24.2437 9.74707C24.0875 9.54199 23.8434 9.43945 23.5113 9.43945C23.0654 9.43945 22.7382 9.57943 22.5299 9.85938C22.3248 10.1361 22.2223 10.5625 22.2223 11.1387V14ZM28.5795 14H27.432V8.59961H28.5795V14ZM27.3637 7.16895C27.3637 6.96387 27.419 6.80599 27.5297 6.69531C27.6436 6.58464 27.8048 6.5293 28.0131 6.5293C28.2149 6.5293 28.3712 6.58464 28.4818 6.69531C28.5958 6.80599 28.6527 6.96387 28.6527 7.16895C28.6527 7.36426 28.5958 7.51888 28.4818 7.63281C28.3712 7.74349 28.2149 7.79883 28.0131 7.79883C27.8048 7.79883 27.6436 7.74349 27.5297 7.63281C27.419 7.51888 27.3637 7.36426 27.3637 7.16895ZM35.176 14H34.0236V10.6797C34.0236 10.263 33.939 9.95215 33.7697 9.74707C33.6037 9.54199 33.3384 9.43945 32.9738 9.43945C32.4888 9.43945 32.134 9.58268 31.9094 9.86914C31.6848 10.1556 31.5725 10.6357 31.5725 11.3096V14H30.425V8.59961H31.3234L31.4846 9.30762H31.5432C31.7059 9.05046 31.937 8.85189 32.2365 8.71191C32.536 8.57194 32.868 8.50195 33.2326 8.50195C34.5282 8.50195 35.176 9.16113 35.176 10.4795V14ZM41.5332 8.59961V9.22949L40.6104 9.40039C40.695 9.51432 40.765 9.6543 40.8203 9.82031C40.8757 9.98633 40.9033 10.1621 40.9033 10.3477C40.9033 10.9043 40.7113 11.3421 40.3271 11.6611C39.943 11.9801 39.4141 12.1396 38.7402 12.1396C38.5677 12.1396 38.4115 12.1266 38.2715 12.1006C38.0241 12.2536 37.9004 12.4326 37.9004 12.6377C37.9004 12.7614 37.9574 12.8542 38.0713 12.916C38.1885 12.9779 38.4017 13.0088 38.7109 13.0088H39.6533C40.249 13.0088 40.7015 13.1357 41.0107 13.3896C41.32 13.6436 41.4746 14.0098 41.4746 14.4883C41.4746 15.1003 41.2223 15.5723 40.7178 15.9043C40.2132 16.2363 39.484 16.4023 38.5303 16.4023C37.7946 16.4023 37.2331 16.2721 36.8457 16.0117C36.4583 15.7513 36.2646 15.3802 36.2646 14.8984C36.2646 14.5664 36.3688 14.2865 36.5771 14.0586C36.7887 13.834 37.0833 13.6777 37.4609 13.5898C37.3079 13.5247 37.181 13.4206 37.0801 13.2773C36.9824 13.1309 36.9336 12.9779 36.9336 12.8184C36.9336 12.6165 36.9906 12.4456 37.1045 12.3057C37.2184 12.1657 37.3877 12.0273 37.6123 11.8906C37.3324 11.7702 37.1045 11.5749 36.9287 11.3047C36.7562 11.0312 36.6699 10.7122 36.6699 10.3477C36.6699 9.76172 36.8538 9.30762 37.2217 8.98535C37.5928 8.66309 38.1201 8.50195 38.8037 8.50195C38.9567 8.50195 39.1162 8.51335 39.2822 8.53613C39.4515 8.55566 39.5785 8.57682 39.6631 8.59961H41.5332ZM37.29 14.8398C37.29 15.0872 37.4007 15.2777 37.6221 15.4111C37.8467 15.5446 38.1608 15.6113 38.5645 15.6113C39.1895 15.6113 39.6549 15.5218 39.9609 15.3428C40.2669 15.1637 40.4199 14.9261 40.4199 14.6299C40.4199 14.3955 40.3353 14.2279 40.166 14.127C40 14.0293 39.6891 13.9805 39.2334 13.9805H38.3643C38.0355 13.9805 37.7734 14.057 37.5781 14.21C37.3861 14.3662 37.29 14.5762 37.29 14.8398ZM37.7832 10.3477C37.7832 10.6862 37.8695 10.9466 38.042 11.1289C38.2178 11.3112 38.4684 11.4023 38.7939 11.4023C39.458 11.4023 39.79 11.0475 39.79 10.3379C39.79 9.98633 39.707 9.71615 39.541 9.52734C39.3783 9.33529 39.1292 9.23926 38.7939 9.23926C38.4619 9.23926 38.2096 9.33366 38.0371 9.52246C37.8678 9.71126 37.7832 9.98633 37.7832 10.3477ZM49.775 12.0615C49.775 12.6963 49.5455 13.1943 49.0865 13.5557C48.6275 13.917 47.9944 14.0977 47.1871 14.0977C46.3798 14.0977 45.719 13.9723 45.2047 13.7217V12.6182C45.5302 12.7712 45.8753 12.8916 46.2398 12.9795C46.6077 13.0674 46.9495 13.1113 47.2652 13.1113C47.7275 13.1113 48.0676 13.0234 48.2857 12.8477C48.5071 12.6719 48.6178 12.4359 48.6178 12.1396C48.6178 11.8727 48.5169 11.6465 48.315 11.4609C48.1132 11.2754 47.6966 11.0557 47.065 10.8018C46.414 10.5381 45.955 10.237 45.6881 9.89844C45.4212 9.5599 45.2877 9.15299 45.2877 8.67773C45.2877 8.08203 45.4993 7.61328 45.9225 7.27148C46.3456 6.92969 46.9137 6.75879 47.6266 6.75879C48.3102 6.75879 48.9905 6.90853 49.6676 7.20801L49.2965 8.16016C48.6617 7.89323 48.0953 7.75977 47.5973 7.75977C47.2197 7.75977 46.9332 7.84277 46.7379 8.00879C46.5426 8.17155 46.4449 8.38802 46.4449 8.6582C46.4449 8.84375 46.484 9.00326 46.5621 9.13672C46.6402 9.26693 46.7688 9.39062 46.9479 9.50781C47.1269 9.625 47.4492 9.77962 47.9146 9.97168C48.4387 10.1898 48.8229 10.3932 49.067 10.582C49.3111 10.7708 49.4902 10.984 49.6041 11.2217C49.718 11.4593 49.775 11.7393 49.775 12.0615ZM56.0248 11.29C56.0248 12.1722 55.7986 12.8607 55.3461 13.3555C54.8936 13.8503 54.2637 14.0977 53.4564 14.0977C52.9519 14.0977 52.5059 13.9837 52.1186 13.7559C51.7312 13.528 51.4333 13.2008 51.225 12.7744C51.0167 12.348 50.9125 11.8532 50.9125 11.29C50.9125 10.4144 51.1371 9.73079 51.5863 9.23926C52.0355 8.74772 52.6687 8.50195 53.4857 8.50195C54.267 8.50195 54.8855 8.75423 55.3412 9.25879C55.7969 9.76009 56.0248 10.4372 56.0248 11.29ZM52.0941 11.29C52.0941 12.5368 52.5548 13.1602 53.476 13.1602C54.3874 13.1602 54.8432 12.5368 54.8432 11.29C54.8432 10.0563 54.3842 9.43945 53.4662 9.43945C52.9844 9.43945 52.6345 9.59896 52.4164 9.91797C52.2016 10.237 52.0941 10.6943 52.0941 11.29ZM62.3381 11.29C62.3381 12.1722 62.1118 12.8607 61.6594 13.3555C61.2069 13.8503 60.577 14.0977 59.7697 14.0977C59.2652 14.0977 58.8192 13.9837 58.4318 13.7559C58.0445 13.528 57.7466 13.2008 57.5383 12.7744C57.3299 12.348 57.2258 11.8532 57.2258 11.29C57.2258 10.4144 57.4504 9.73079 57.8996 9.23926C58.3488 8.74772 58.982 8.50195 59.799 8.50195C60.5803 8.50195 61.1988 8.75423 61.6545 9.25879C62.1102 9.76009 62.3381 10.4372 62.3381 11.29ZM58.4074 11.29C58.4074 12.5368 58.868 13.1602 59.7893 13.1602C60.7007 13.1602 61.1564 12.5368 61.1564 11.29C61.1564 10.0563 60.6975 9.43945 59.7795 9.43945C59.2977 9.43945 58.9478 9.59896 58.7297 9.91797C58.5148 10.237 58.4074 10.6943 58.4074 11.29ZM68.6123 14H67.46V10.6797C67.46 10.263 67.3753 9.95215 67.2061 9.74707C67.04 9.54199 66.7747 9.43945 66.4102 9.43945C65.9251 9.43945 65.5703 9.58268 65.3457 9.86914C65.1211 10.1556 65.0088 10.6357 65.0088 11.3096V14H63.8613V8.59961H64.7598L64.9209 9.30762H64.9795C65.1423 9.05046 65.3734 8.85189 65.6729 8.71191C65.9723 8.57194 66.3044 8.50195 66.6689 8.50195C67.9645 8.50195 68.6123 9.16113 68.6123 10.4795V14Z" fill="white"/>
</svg>
