<svg width="20" height="20" viewBox="0 0 15 15" fill="none" xmlns="http://www.w3.org/2000/svg">
<g clip-path="url(#clip0)">
<path d="M14.7272 6.96061H10.8268C10.7016 6.96061 10.5933 6.87445 10.5642 6.75266C10.2906 5.60572 9.384 4.70197 8.23551 4.43241C8.11325 4.4037 8.02657 4.29518 8.02657 4.16962V0.270683C8.02657 0.109668 8.16646 -0.0149022 8.32656 0.00203138C10.0303 0.182588 11.609 0.933201 12.8377 2.16162C14.063 3.38719 14.8131 4.96139 14.9958 6.66023C15.013 6.82048 14.8883 6.96061 14.7272 6.96061Z" fill="white"/>
<path d="M8.02657 4.16962V3.36694C9.90432 3.59894 11.3936 5.08459 11.6314 6.96064H10.8268C10.7016 6.96064 10.5933 6.87448 10.5643 6.75269C10.2906 5.60575 9.38403 4.702 8.23554 4.43244C8.11325 4.40373 8.02657 4.29518 8.02657 4.16962Z" fill="white"/>
<path d="M14.9985 8.27356C14.8483 9.7128 14.2912 11.0632 13.3832 12.189C13.282 12.3145 13.0948 12.3255 12.9809 12.2115L10.7972 10.0279L10.2227 9.45328C10.1337 9.36437 10.1187 9.22632 10.1847 9.11933C10.3606 8.83456 10.4921 8.51962 10.5695 8.18414C10.5979 8.06127 10.7066 7.97388 10.8327 7.97388H14.7299C14.8908 7.97385 15.0152 8.11354 14.9985 8.27356Z" fill="white"/>
<path d="M11.6365 7.97388C11.547 8.74219 11.2477 9.44634 10.7972 10.0279L10.2227 9.45331C10.1337 9.36439 10.1187 9.22635 10.1847 9.11935C10.3606 8.83459 10.4921 8.51965 10.5695 8.18417C10.5979 8.0613 10.7066 7.97391 10.8327 7.97391H11.6365V7.97388Z" fill="white"/>
<path d="M12.2657 12.9292C12.3795 13.043 12.3688 13.2298 12.2438 13.3311C10.9102 14.4116 9.26047 14.9993 7.52003 14.9993C5.51162 14.9993 3.62311 14.2168 2.20263 12.7967C0.790171 11.3843 0.00885408 9.50907 6.50313e-05 7.51337C-0.00875331 5.50915 0.785425 3.57881 2.20266 2.16161C3.43119 0.933076 5.01011 0.182462 6.71405 0.00202293C6.87392 -0.0148813 7.01343 0.110011 7.01343 0.270763V4.16964C7.01343 4.29544 6.92639 4.40384 6.8039 4.43261C5.42214 4.75722 4.39034 5.99975 4.39034 7.47936C4.39034 9.20477 5.79424 10.609 7.51997 10.609C8.12674 10.609 8.69354 10.4352 9.17369 10.1352C9.28077 10.0683 9.41955 10.0831 9.50882 10.1724L12.2657 12.9292Z" fill="white"/>
<path d="M9.50886 10.1724L10.0846 10.7482C9.37767 11.3066 8.48409 11.6402 7.51281 11.6404C5.21252 11.6409 3.36545 9.79942 3.35936 7.49915C3.35367 5.36948 4.9514 3.61161 7.01348 3.36499V4.16969C7.01348 4.29549 6.92644 4.40388 6.80398 4.43265C5.42223 4.75726 4.39043 5.9998 4.39043 7.47941C4.39043 9.20481 5.79433 10.609 7.52005 10.609C8.12682 10.609 8.69362 10.4353 9.17377 10.1352C9.28082 10.0683 9.41957 10.0832 9.50886 10.1724Z" fill="white"/>
</g>
<defs>
<clipPath id="clip0">
<rect width="30" height="30" fill="black"/>
</clipPath>
</defs>
</svg>
