<svg width="20" height="20" viewBox="0 0 49 49" fill="none" xmlns="http://www.w3.org/2000/svg">
<path d="M35.5 9.94444C35.5 10.2513 35.7487 10.5 36.0556 10.5H47.3167C47.8522 10.5 48.0777 9.81681 47.6473 9.49802L36.3862 1.15647C36.0196 0.884881 35.5 1.14661 35.5 1.60289V9.94444Z" fill="black"/>
<path d="M34.4935 10.4228V1.42386C34.4935 1.18977 34.3037 1 34.0696 1H5.3679C2.50327 1 0 2.83318 0 5.05358V44.9464C0 47.1668 2.50348 49 5.3679 49H42.9783C45.8427 49 48 47.1668 48 44.9464V12.0547C48 11.8206 47.8102 11.6309 47.5761 11.6309H36.1211C35.2603 11.6309 34.4935 11.0901 34.4935 10.4228Z" fill="black"/>
<rect x="6" y="20" width="35.2801" height="2.35201" rx="1.176" fill="white"/>
<rect x="6" y="25.4883" width="35.2801" height="2.35" rx="1.175" fill="white"/>
<rect x="6" y="30.8384" width="35.2801" height="2.35" rx="1.175" fill="white"/>
<rect x="6" y="36.1885" width="35.2801" height="2.35201" rx="1.176" fill="white"/>
</svg>
