<svg width="15" height="15" viewBox="0 0 15 15" fill="none" xmlns="http://www.w3.org/2000/svg">
<g clip-path="url(#clip0)">
<path d="M14.6905 3.30298H5.94358C5.65878 3.30298 5.49666 3.52318 5.58113 3.79524L6.96486 7.84865C7.03303 8.06737 7.27427 8.2446 7.50336 8.2446H13.2381C13.4671 8.2446 13.7081 8.06737 13.7757 7.84865L14.9816 3.69952C15.0503 3.4805 14.9202 3.30298 14.6905 3.30298Z" fill="#292D43"/>
<path d="M6.73469 14.2226C7.45733 14.2226 8.04314 13.6368 8.04314 12.9142C8.04314 12.1915 7.45733 11.6057 6.73469 11.6057C6.01205 11.6057 5.42623 12.1915 5.42623 12.9142C5.42623 13.6368 6.01205 14.2226 6.73469 14.2226Z" fill="#292D43"/>
<path d="M12.2713 14.2387C12.994 14.2387 13.5798 13.6529 13.5798 12.9303C13.5798 12.2076 12.994 11.6218 12.2713 11.6218C11.5487 11.6218 10.9629 12.2076 10.9629 12.9303C10.9629 13.6529 11.5487 14.2387 12.2713 14.2387Z" fill="#292D43"/>
<path d="M13.8424 9.5761H6.18991L3.12637 0.760986H0.740913C0.33163 0.760986 -3.8147e-06 1.09262 -3.8147e-06 1.5019C-3.8147e-06 1.91118 0.33163 2.24282 0.740913 2.24282H2.07249L5.13603 11.0579H13.8424C14.2517 11.0579 14.5833 10.7263 14.5833 10.317C14.5833 9.90773 14.2517 9.5761 13.8424 9.5761Z" fill="#292D43"/>
</g>
<defs>
<clipPath id="clip0">
<rect width="15" height="15" fill="white"/>
</clipPath>
</defs>
</svg>
