<svg width="15" height="15" viewBox="0 0 15 15" fill="none" xmlns="http://www.w3.org/2000/svg">
<path d="M11.006 3.61256C11.006 4.60533 10.65 5.46467 9.94766 6.16711C9.24534 6.86943 8.38589 7.22546 7.39311 7.22546H7.3914C6.39988 7.22511 5.541 6.86909 4.83868 6.16711C4.13624 5.46467 3.78033 4.60533 3.78033 3.61256C3.78033 2.62012 4.13624 1.76067 4.83868 1.05835C5.54066 0.356255 6.39954 0.000343324 7.3914 0H7.39311C8.38554 0 9.245 0.356026 9.94766 1.05835C10.65 1.76067 11.006 2.62012 11.006 3.61256Z" fill="#292D43"/>
<path d="M13.7452 12.4202C13.7452 13.2034 13.496 13.8375 13.0053 14.3046C12.5203 14.7661 11.8789 14.9999 11.0989 14.9999H3.87634C3.09643 14.9999 2.45499 14.7661 1.97033 14.3046C1.47926 13.8372 1.23047 13.2032 1.23047 12.4202C1.23047 12.119 1.24043 11.821 1.26034 11.5344C1.28059 11.2414 1.32156 10.9226 1.38199 10.5863C1.44287 10.2472 1.52115 9.92661 1.61488 9.63364C1.71215 9.33038 1.84376 9.03123 2.00661 8.74467C2.17575 8.44724 2.37442 8.18814 2.59712 7.97482C2.83058 7.75155 3.116 7.57222 3.44593 7.44153C3.77472 7.31152 4.13921 7.24561 4.52923 7.24561C4.68224 7.24561 4.83044 7.3082 5.11608 7.49429C5.29484 7.6109 5.50083 7.74365 5.72823 7.88899C5.92461 8.01419 6.19057 8.13161 6.51936 8.23769C6.80832 8.33119 7.10163 8.38338 7.3914 8.39242C7.42332 8.39356 7.45525 8.39413 7.48718 8.39413C7.80899 8.39413 8.13446 8.34138 8.45535 8.23769C8.78414 8.13161 9.05045 8.01419 9.24671 7.88899C9.47651 7.74216 9.6825 7.60953 9.85863 7.49463C10.1445 7.3082 10.2925 7.24561 10.4458 7.24561C10.8355 7.24561 11.2 7.31152 11.529 7.44153C11.8589 7.57222 12.1444 7.75189 12.3776 7.97482C12.6006 8.18814 12.7993 8.44724 12.9683 8.74467C13.1313 9.03146 13.2631 9.33038 13.3601 9.6333C13.4539 9.92661 13.5324 10.2472 13.5933 10.5865C13.6534 10.9232 13.6945 11.242 13.7146 11.5342C13.7349 11.8198 13.7448 12.1178 13.7452 12.4202Z" fill="#292D43"/>
<path d="M13.7452 12.4202C13.7452 13.2034 13.496 13.8375 13.0053 14.3046C12.5203 14.7661 11.8789 14.9999 11.0989 14.9999H3.87634C3.09643 14.9999 2.45499 14.7661 1.97033 14.3046C1.47926 13.8372 1.23047 13.2032 1.23047 12.4202C1.23047 12.119 1.24043 11.821 1.26034 11.5344C1.28059 11.2414 1.32156 10.9226 1.38199 10.5863C1.44287 10.2472 1.52115 9.92661 1.61488 9.63364C1.71215 9.33038 1.84376 9.03123 2.00661 8.74467C2.17575 8.44724 2.37442 8.18814 2.59712 7.97482C2.83058 7.75155 3.116 7.57222 3.44593 7.44153C3.77472 7.31152 4.13921 7.24561 4.52923 7.24561C4.68224 7.24561 4.83044 7.3082 5.11608 7.49429C5.29484 7.6109 5.50083 7.74365 5.72823 7.88899C5.92461 8.01419 6.19057 8.13161 6.51936 8.23769C6.80832 8.33119 7.10163 8.38338 7.3914 8.39242C7.42332 8.39356 7.45525 8.39413 7.48718 8.39413C7.80899 8.39413 8.13446 8.34138 8.45535 8.23769C8.78414 8.13161 9.05045 8.01419 9.24671 7.88899C9.47651 7.74216 9.6825 7.60953 9.85863 7.49463C10.1445 7.3082 10.2925 7.24561 10.4458 7.24561C10.8355 7.24561 11.2 7.31152 11.529 7.44153C11.8589 7.57222 12.1444 7.75189 12.3776 7.97482C12.6006 8.18814 12.7993 8.44724 12.9683 8.74467C13.1313 9.03146 13.2631 9.33038 13.3601 9.6333C13.4539 9.92661 13.5324 10.2472 13.5933 10.5865C13.6534 10.9232 13.6945 11.242 13.7146 11.5342C13.7349 11.8198 13.7448 12.1178 13.7452 12.4202Z" fill="#292D43"/>
<path d="M7.39311 7.22546H7.3914V0H7.39311C8.38554 0 9.245 0.356026 9.94766 1.05835C10.65 1.76067 11.006 2.62012 11.006 3.61256C11.006 4.60533 10.65 5.46467 9.94766 6.16711C9.24534 6.86943 8.38589 7.22546 7.39311 7.22546Z" fill="#292D43"/>
<path d="M13.7452 12.4202C13.7452 13.2034 13.496 13.8375 13.0053 14.3046C12.5203 14.7661 11.8789 14.9999 11.0989 14.9999H7.3914V8.39242C7.42332 8.39356 7.45525 8.39413 7.48718 8.39413C7.80899 8.39413 8.13446 8.34138 8.45535 8.23769C8.78414 8.13161 9.05045 8.01419 9.24671 7.88899C9.47651 7.74216 9.6825 7.60953 9.85863 7.49463C10.1445 7.3082 10.2925 7.24561 10.4458 7.24561C10.8355 7.24561 11.2 7.31152 11.529 7.44153C11.8589 7.57222 12.1444 7.75189 12.3776 7.97482C12.6006 8.18814 12.7993 8.44724 12.9683 8.74467C13.1313 9.03146 13.2631 9.33038 13.3601 9.6333C13.4539 9.92661 13.5324 10.2472 13.5933 10.5865C13.6534 10.9232 13.6945 11.242 13.7146 11.5342C13.7349 11.8198 13.7448 12.1178 13.7452 12.4202Z" fill="#292D43"/>
<path d="M13.7452 12.4202C13.7452 13.2034 13.496 13.8375 13.0053 14.3046C12.5203 14.7661 11.8789 14.9999 11.0989 14.9999H7.3914V8.39242C7.42332 8.39356 7.45525 8.39413 7.48718 8.39413C7.80899 8.39413 8.13446 8.34138 8.45535 8.23769C8.78414 8.13161 9.05045 8.01419 9.24671 7.88899C9.47651 7.74216 9.6825 7.60953 9.85863 7.49463C10.1445 7.3082 10.2925 7.24561 10.4458 7.24561C10.8355 7.24561 11.2 7.31152 11.529 7.44153C11.8589 7.57222 12.1444 7.75189 12.3776 7.97482C12.6006 8.18814 12.7993 8.44724 12.9683 8.74467C13.1313 9.03146 13.2631 9.33038 13.3601 9.6333C13.4539 9.92661 13.5324 10.2472 13.5933 10.5865C13.6534 10.9232 13.6945 11.242 13.7146 11.5342C13.7349 11.8198 13.7448 12.1178 13.7452 12.4202Z" fill="#292D43"/>
</svg>
