<svg width="20" height="20" viewBox="0 0 15 15" fill="none" xmlns="http://www.w3.org/2000/svg">
<path d="M9.375 12.1805C9.13688 12.2761 8.89078 12.3563 8.63625 12.4148L8.53313 13.7583C8.52 13.9298 8.37656 14.0625 8.20453 14.0625H6.795C6.62297 14.0625 6.48 13.9298 6.46687 13.7587L6.36375 12.4153C5.81156 12.2883 5.29547 12.0703 4.82906 11.7783L3.80484 12.6562C3.67406 12.7683 3.47953 12.7608 3.35766 12.6389L2.36109 11.6423C2.23922 11.5205 2.23219 11.3259 2.34375 11.1952L3.22172 10.1709C2.93016 9.70453 2.71219 9.18844 2.58469 8.63625L1.24125 8.53313C1.07016 8.52 0.9375 8.37656 0.9375 8.20453V6.795C0.9375 6.62297 1.07016 6.48 1.24125 6.46687L2.58469 6.36375C2.71172 5.81156 2.92969 5.29547 3.22172 4.82906L2.34422 3.80484C2.23219 3.67453 2.23969 3.47953 2.36109 3.35812L3.35766 2.36156C3.47906 2.24016 3.67406 2.23266 3.80484 2.34422L4.82906 3.22219C5.29547 2.93063 5.81156 2.71266 6.36375 2.58516L6.46687 1.24172C6.48 1.07016 6.62344 0.9375 6.79547 0.9375H8.205C8.37703 0.9375 8.52 1.07016 8.53313 1.24125L8.53922 1.31953C8.17547 1.87781 7.96875 2.53594 7.96875 3.23203C7.96875 3.79547 8.10187 4.33547 8.34516 4.81734C8.07844 4.73297 7.79437 4.6875 7.5 4.6875C5.94656 4.6875 4.6875 5.94656 4.6875 7.5C4.6875 9.05344 5.94656 10.3125 7.5 10.3125C8.22141 10.3125 8.87719 10.0387 9.375 9.59203V12.1805Z" fill="#292D43"/>
<path d="M12.6562 5.52603V12.8906C12.6562 13.5379 12.1317 14.0624 11.4844 14.0624C10.837 14.0624 10.3125 13.5379 10.3125 12.8906V5.52603C9.47813 5.099 8.90625 4.23322 8.90625 3.2315C8.90625 2.26353 9.44062 1.42166 10.23 0.981032C10.2661 0.961345 10.3125 0.98947 10.3125 1.03072V3.74994L11.4844 4.21869L12.6562 3.74994V1.03072C12.6562 0.98947 12.7027 0.961345 12.7388 0.981501C13.5281 1.42213 14.0625 2.26353 14.0625 3.23197C14.0625 4.23322 13.4906 5.09947 12.6562 5.52603Z" fill="#292D43"/>
</svg>
