<svg width="15" height="15" viewBox="0 0 15 15" fill="none" xmlns="http://www.w3.org/2000/svg">
<g clip-path="url(#clip0)">
<path d="M14.1044 9.7527C13.3328 8.98052 12.2621 8.65339 10.8871 9.02189L5.98405 4.11384L6.04886 3.8688C6.33125 2.80924 6.02612 1.67033 5.2528 0.897006C4.46542 0.109007 3.34604 -0.180124 2.2874 0.110677C2.13644 0.152132 2.01893 0.270755 1.97894 0.422132C1.93894 0.573509 1.9828 0.734408 2.09346 0.845121L3.27403 2.0257C3.61918 2.37169 3.61581 2.92582 3.27488 3.26765C2.93665 3.60679 2.36811 3.60627 2.03123 3.2685L0.85042 2.0876C0.739707 1.97683 0.57834 1.93338 0.426963 1.97361C0.275556 2.0138 0.157373 2.13161 0.116064 2.28272C-0.170488 3.32973 0.111406 4.45605 0.902568 5.24722C1.67384 6.01904 2.74314 6.34734 4.11895 5.97806L9.0224 10.8861C8.65648 12.2607 8.97213 13.321 9.75409 14.1029C10.5425 14.8919 11.6624 15.1789 12.7187 14.8891C12.8697 14.8476 12.9872 14.729 13.0273 14.5776C13.0673 14.4262 13.0234 14.2653 12.9127 14.1546L11.7324 12.9742C11.3873 12.6282 11.3906 12.0741 11.7316 11.7323C12.074 11.3916 12.6413 11.397 12.9752 11.7319L14.1561 12.9124C14.2668 13.0231 14.4282 13.0666 14.5795 13.0264C14.7309 12.9861 14.8491 12.8684 14.8904 12.7173C15.177 11.6705 14.8951 10.5439 14.1044 9.7527Z" fill="#292D43"/>
<path d="M4.7036 7.81006L0.514377 11.9998C-0.1712 12.6854 -0.1712 13.8002 0.514377 14.4858C1.19995 15.1714 2.31482 15.1714 3.00036 14.4858L7.18949 10.2962L4.7036 7.81006ZM2.58751 13.122C2.41583 13.2937 2.1378 13.2937 1.96612 13.122C1.79447 12.9503 1.79447 12.6723 1.96612 12.5006L4.63155 9.83468C4.8032 9.66303 5.08132 9.66303 5.25294 9.83468C5.42459 10.0063 5.42459 10.2844 5.25294 10.4561L2.58751 13.122Z" fill="#292D43"/>
<path d="M14.871 0.886323L14.1134 0.128735C13.9708 -0.013853 13.7495 -0.0410991 13.5766 0.0625825L11.2462 1.46072C11.0009 1.60782 10.9593 1.94611 11.1615 2.14829L11.347 2.33373L8.38857 5.28003L9.63178 6.52325L12.5902 3.57695L12.8515 3.83831C13.0536 4.04042 13.392 3.99882 13.539 3.75361L14.9372 1.42313C15.0408 1.25019 15.0136 1.02891 14.871 0.886323Z" fill="#292D43"/>
</g>
<defs>
<clipPath id="clip0">
<rect width="15" height="15" fill="white"/>
</clipPath>
</defs>
</svg>
