<svg width="15" height="15" viewBox="0 0 15 15" fill="none" xmlns="http://www.w3.org/2000/svg">
<path d="M12.1875 0.9375H2.8125C2.43954 0.9375 2.08185 1.08566 1.81813 1.34938C1.55441 1.6131 1.40625 1.97079 1.40625 2.34375V13.5938C1.40611 13.6829 1.43139 13.7702 1.47913 13.8455C1.52686 13.9208 1.59508 13.9809 1.67578 14.0188C1.75648 14.0567 1.84631 14.0708 1.93473 14.0594C2.02315 14.0481 2.1065 14.0117 2.175 13.9547L4.6875 11.8594L6.92344 13.7063C7.0919 13.8466 7.3042 13.9234 7.52344 13.9234C7.74268 13.9234 7.95498 13.8466 8.12344 13.7063L10.3125 11.8594L12.825 13.9547C12.9093 14.0246 13.0155 14.0627 13.125 14.0625C13.1929 14.0629 13.2601 14.0485 13.3219 14.0203C13.4032 13.9827 13.4721 13.9225 13.5203 13.8469C13.5685 13.7712 13.594 13.6834 13.5938 13.5938V2.34375C13.5938 1.97079 13.4456 1.6131 13.1819 1.34938C12.9181 1.08566 12.5605 0.9375 12.1875 0.9375ZM10.7813 8.90625H4.21875C4.09443 8.90625 3.9752 8.85686 3.88729 8.76896C3.79939 8.68105 3.75 8.56182 3.75 8.4375C3.75 8.31318 3.79939 8.19395 3.88729 8.10604C3.9752 8.01814 4.09443 7.96875 4.21875 7.96875H10.7813C10.9056 7.96875 11.0248 8.01814 11.1127 8.10604C11.2006 8.19395 11.25 8.31318 11.25 8.4375C11.25 8.56182 11.2006 8.68105 11.1127 8.76896C11.0248 8.85686 10.9056 8.90625 10.7813 8.90625ZM10.7813 6.5625H4.21875C4.09443 6.5625 3.9752 6.51311 3.88729 6.42521C3.79939 6.3373 3.75 6.21807 3.75 6.09375C3.75 5.96943 3.79939 5.8502 3.88729 5.76229C3.9752 5.67439 4.09443 5.625 4.21875 5.625H10.7813C10.9056 5.625 11.0248 5.67439 11.1127 5.76229C11.2006 5.8502 11.25 5.96943 11.25 6.09375C11.25 6.21807 11.2006 6.3373 11.1127 6.42521C11.0248 6.51311 10.9056 6.5625 10.7813 6.5625ZM10.7813 4.21875H4.21875C4.09443 4.21875 3.9752 4.16936 3.88729 4.08146C3.79939 3.99355 3.75 3.87432 3.75 3.75C3.75 3.62568 3.79939 3.50645 3.88729 3.41854C3.9752 3.33064 4.09443 3.28125 4.21875 3.28125H10.7813C10.9056 3.28125 11.0248 3.33064 11.1127 3.41854C11.2006 3.50645 11.25 3.62568 11.25 3.75C11.25 3.87432 11.2006 3.99355 11.1127 4.08146C11.0248 4.16936 10.9056 4.21875 10.7813 4.21875Z" fill="white"/>
</svg>
