<svg width="15" height="15" viewBox="0 0 15 15" fill="none" xmlns="http://www.w3.org/2000/svg">
<path d="M11.7332 9.69405C11.1391 10.5099 10.1769 11.0413 9.09271 11.0413H7.57146C7.04595 11.0413 6.59843 10.7077 6.42897 10.2407C6.2198 10.1783 6.01467 10.0973 5.81451 9.99785C5.39061 9.78725 5.00571 9.50191 4.66689 9.14844C2.46911 9.63126 0.824219 11.5896 0.824219 13.9324V14.2386C0.824219 14.6596 1.16549 15.0009 1.58644 15.0009H13.4125C13.8334 15.0009 14.1747 14.6596 14.1747 14.2386V13.9324C14.1747 12.1226 13.193 10.5421 11.7332 9.69405Z" fill="white"/>
<path d="M3.8562 7.57649C4.1838 7.57649 4.46894 7.39492 4.61666 7.12698C4.62055 7.13759 4.62449 7.14813 4.62848 7.15867C4.62965 7.16183 4.63083 7.165 4.632 7.16816C4.97855 8.08037 5.65287 8.84507 6.54203 9.17919C6.75708 8.8375 7.13734 8.61025 7.57093 8.61025H9.09218C9.24392 8.61025 9.38515 8.56743 9.50895 8.49822C9.71689 8.38195 9.90387 8.08699 10.0004 7.93065C10.1549 7.68046 10.2747 7.41545 10.3808 7.12652C10.4405 7.23486 10.5225 7.32911 10.6208 7.40295V7.77597C10.6208 8.61886 9.93507 9.30463 9.09214 9.30463H7.57089C7.2833 9.30463 7.05015 9.53779 7.05015 9.82537C7.05015 10.113 7.2833 10.3461 7.57089 10.3461H9.09214C10.5093 10.3461 11.6623 9.19316 11.6623 7.77597V7.40295C11.8731 7.24459 12.0095 6.99254 12.0095 6.7086V5.13837V4.53624C12.0095 4.24647 11.8674 3.99008 11.6491 3.83243C11.4799 1.69087 9.68318 0 7.49887 0C5.31454 0 3.51784 1.69087 3.34861 3.8324C3.13039 3.99004 2.98828 4.24647 2.98828 4.53621V6.70854C2.98828 7.18924 3.37879 7.57649 3.8562 7.57649ZM7.49887 1.04152C9.11587 1.04152 10.4496 2.27724 10.6055 3.85393C10.5031 3.93444 10.4193 4.03733 10.3615 4.15539C9.87016 2.8734 8.77326 1.98084 7.49884 1.98084C6.19694 1.98084 5.11763 2.90407 4.63807 4.15027C4.63742 4.15196 4.6368 4.15369 4.63614 4.15542C4.57839 4.03736 4.49455 3.93447 4.39222 3.85397C4.5482 2.27724 5.88188 1.04152 7.49887 1.04152Z" fill="white"/>
</svg>
