<svg width="15" height="15" viewBox="0 0 15 15" fill="none" xmlns="http://www.w3.org/2000/svg">
<g clip-path="url(#clip0)">
<path d="M3.81557 4.05078L2.51603 4.15118C2.15442 4.17913 1.83237 4.36865 1.63239 4.67114L0.133659 6.93788C-0.0180101 7.16727 -0.0421213 7.45435 0.0691181 7.70583C0.180387 7.95731 0.409047 8.13257 0.680773 8.17466L1.87066 8.35894C2.149 6.8818 2.81533 5.4083 3.81557 4.05078Z" fill="white"/>
<path d="M6.64062 13.1285L6.82493 14.3184C6.86703 14.5901 7.04228 14.8188 7.29373 14.93C7.39835 14.9763 7.50909 14.9992 7.61928 14.9992C7.77405 14.9992 7.92774 14.9541 8.06171 14.8655L10.3285 13.3668C10.631 13.1668 10.8205 12.8447 10.8484 12.4831L10.9488 11.1836C9.59126 12.1839 8.11779 12.8502 6.64062 13.1285Z" fill="white"/>
<path d="M6.19342 12.3052C6.23473 12.3052 6.27627 12.3018 6.31773 12.2949C6.93659 12.1914 7.53307 12.0171 8.10207 11.7889L3.21158 6.89844C2.98342 7.46741 2.8091 8.06389 2.70563 8.68278C2.66485 8.92673 2.74667 9.17526 2.92154 9.35016L5.65035 12.079C5.79554 12.2241 5.99151 12.3052 6.19342 12.3052Z" fill="white"/>
<path d="M13.8046 6.65043C15.0013 4.33675 15.0456 1.89177 14.9831 0.745102C14.9617 0.352204 14.6484 0.0389645 14.2555 0.0175487C14.0688 0.00735346 13.8475 0 13.5981 0C12.3159 0 10.2871 0.194208 8.35017 1.19606C6.81086 1.99226 4.79241 3.7454 3.60156 6.04935C3.61562 6.06033 3.62936 6.07199 3.64231 6.08494L8.91571 11.3583C8.92866 11.3713 8.94029 11.385 8.95128 11.3991C11.2552 10.2082 13.0084 8.18973 13.8046 6.65043ZM8.72218 3.17107C9.57884 2.31441 10.9728 2.31432 11.8295 3.17107C12.2445 3.58606 12.4731 4.13786 12.4731 4.72476C12.4731 5.31166 12.2445 5.86346 11.8295 6.27845C11.4012 6.70673 10.8384 6.92092 10.2759 6.92098C9.71311 6.92101 9.15058 6.70685 8.72218 6.27845C8.30716 5.86346 8.07859 5.31166 8.07859 4.72476C8.07859 4.13786 8.30716 3.58606 8.72218 3.17107Z" fill="white"/>
<path d="M9.34316 5.65619C9.85718 6.1702 10.6936 6.17023 11.2076 5.65619C11.4566 5.40717 11.5938 5.07611 11.5938 4.72396C11.5938 4.37182 11.4566 4.04076 11.2076 3.79177C10.9506 3.53475 10.613 3.40625 10.2754 3.40625C9.9378 3.40625 9.60019 3.53475 9.34319 3.79177C9.0942 4.04076 8.95703 4.37182 8.95703 4.72396C8.95703 5.07611 9.09417 5.4072 9.34316 5.65619Z" fill="white"/>
<path d="M0.44728 12.3606C0.559751 12.3606 0.672222 12.3177 0.758003 12.2318L2.19276 10.7971C2.36438 10.6254 2.36438 10.3472 2.19276 10.1756C2.02117 10.004 1.74291 10.004 1.57128 10.1756L0.136528 11.6104C-0.0350928 11.782 -0.0350928 12.0602 0.136528 12.2318C0.222339 12.3176 0.33481 12.3606 0.44728 12.3606Z" fill="white"/>
<path d="M3.50864 11.492C3.33705 11.3204 3.05878 11.3204 2.88716 11.492L0.128716 14.2504C-0.0429053 14.4221 -0.0429053 14.7003 0.128716 14.8719C0.214526 14.9577 0.326997 15.0006 0.439468 15.0006C0.551938 15.0006 0.664409 14.9577 0.75019 14.8719L3.50861 12.1135C3.68026 11.9419 3.68026 11.6636 3.50864 11.492Z" fill="white"/>
<path d="M4.20016 12.8065L2.76543 14.2412C2.59381 14.4128 2.59381 14.6911 2.76543 14.8627C2.85124 14.9485 2.96371 14.9914 3.07616 14.9914C3.1886 14.9914 3.3011 14.9485 3.38688 14.8627L4.82163 13.4279C4.99325 13.2563 4.99325 12.9781 4.82163 12.8065C4.65004 12.6348 4.37178 12.6348 4.20016 12.8065Z" fill="white"/>
</g>
<defs>
<clipPath id="clip0">
<rect width="15" height="15" fill="white"/>
</clipPath>
</defs>
</svg>
