<svg width="23" height="23" viewBox="0 0 49 64" fill="none" xmlns="http://www.w3.org/2000/svg">
<path d="M38.3594 10.8084H49.0003L38.3594 0V10.8084Z" fill="black"/>
<path d="M35.1802 12.3978V0.423857C35.1802 0.189767 34.9904 0 34.7564 0H5.47476C2.55311 0 0 2.41196 0 5.33341V57.8214C0 60.7429 2.55332 63.1548 5.47476 63.1548H43.8339C46.7553 63.1548 48.9556 60.7429 48.9556 57.8214V14.4112C48.9556 14.1771 48.7658 13.9873 48.5317 13.9873H36.8403C35.9622 13.9873 35.1802 13.2759 35.1802 12.3978Z" fill="black"/>
<rect x="6.66406" y="25.48" width="35.2801" height="2.35201" rx="1.176" fill="white"/>
<rect x="6.66406" y="30.9683" width="35.2801" height="2.35" rx="1.175" fill="white"/>
<rect x="6.66406" y="36.3184" width="35.2801" height="2.35" rx="1.175" fill="white"/>
<rect x="6.66406" y="41.6685" width="35.2801" height="2.35201" rx="1.176" fill="white"/>
</svg>
