<svg width="20" height="20" viewBox="0 0 15 15" fill="none" xmlns="http://www.w3.org/2000/svg">
<g clip-path="url(#clip0)">
<path d="M3.81556 4.05078L2.51602 4.15118C2.15441 4.17913 1.83235 4.36865 1.63237 4.67114L0.133643 6.93788C-0.0180254 7.16727 -0.0421365 7.45435 0.0691028 7.70583C0.180371 7.95731 0.409032 8.13257 0.680758 8.17466L1.87064 8.35894C2.14899 6.8818 2.81531 5.4083 3.81556 4.05078Z" fill="#292D43"/>
<path d="M6.64108 13.1293L6.82539 14.3191C6.86749 14.5909 7.04274 14.8195 7.29419 14.9308C7.39881 14.9771 7.50955 14.9999 7.61973 14.9999C7.77451 14.9999 7.9282 14.9548 8.06217 14.8662L10.329 13.3675C10.6314 13.1675 10.821 12.8454 10.8489 12.4839L10.9493 11.1843C9.59171 12.1846 8.11824 12.8509 6.64108 13.1293Z" fill="#292D43"/>
<path d="M6.19347 12.3045C6.23478 12.3045 6.27632 12.3011 6.31778 12.2941C6.93664 12.1907 7.53312 12.0164 8.10212 11.7882L3.21163 6.89771C2.98347 7.46668 2.80915 8.06316 2.70568 8.68205C2.66489 8.926 2.74672 9.17452 2.92159 9.34942L5.6504 12.0782C5.79559 12.2234 5.99156 12.3045 6.19347 12.3045Z" fill="#292D43"/>
<path d="M13.804 6.65043C15.0007 4.33675 15.0451 1.89177 14.9825 0.745102C14.9611 0.352204 14.6479 0.0389645 14.2549 0.0175487C14.0682 0.00735346 13.847 0 13.5975 0C12.3154 0 10.2865 0.194208 8.34961 1.19606C6.81031 1.99226 4.79186 3.7454 3.60101 6.04935C3.61507 6.06033 3.62881 6.07199 3.64176 6.08494L8.91515 11.3583C8.9281 11.3713 8.93973 11.385 8.95072 11.3991C11.2547 10.2082 13.0078 8.18973 13.804 6.65043ZM8.72162 3.17107C9.57828 2.31441 10.9722 2.31432 11.829 3.17107C12.244 3.58606 12.4725 4.13786 12.4725 4.72476C12.4725 5.31166 12.244 5.86346 11.829 6.27845C11.4007 6.70673 10.8379 6.92092 10.2753 6.92098C9.71255 6.92101 9.15002 6.70685 8.72162 6.27845C8.3066 5.86346 8.07803 5.31166 8.07803 4.72476C8.07803 4.13786 8.3066 3.58606 8.72162 3.17107Z" fill="#292D43"/>
<path d="M9.343 5.65692C9.85701 6.17094 10.6934 6.17097 11.2074 5.65692C11.4564 5.4079 11.5936 5.07685 11.5936 4.7247C11.5936 4.37255 11.4564 4.04149 11.2074 3.7925C10.9505 3.53548 10.6128 3.40698 10.2752 3.40698C9.93763 3.40698 9.60002 3.53548 9.34303 3.7925C9.09403 4.04149 8.95686 4.37255 8.95686 4.7247C8.95686 5.07685 9.094 5.40793 9.343 5.65692Z" fill="#292D43"/>
<path d="M0.44844 12.3613C0.560911 12.3613 0.673381 12.3184 0.759163 12.2326L2.19392 10.7978C2.36554 10.6262 2.36554 10.3479 2.19392 10.1763C2.02233 10.0047 1.74406 10.0047 1.57244 10.1763L0.137688 11.6111C-0.0339331 11.7827 -0.0339331 12.0609 0.137688 12.2326C0.223499 12.3184 0.335969 12.3613 0.44844 12.3613Z" fill="#292D43"/>
<path d="M3.5087 11.4913C3.33711 11.3196 3.05885 11.3196 2.88722 11.4913L0.128777 14.2497C-0.0428442 14.4213 -0.0428442 14.6996 0.128777 14.8712C0.214587 14.957 0.327058 14.9999 0.439529 14.9999C0.552 14.9999 0.66447 14.957 0.750251 14.8712L3.50867 12.1127C3.68032 11.9411 3.68032 11.6629 3.5087 11.4913Z" fill="#292D43"/>
<path d="M4.20208 12.8062L2.76736 14.241C2.59574 14.4126 2.59574 14.6908 2.76736 14.8624C2.85317 14.9483 2.96564 14.9912 3.07808 14.9912C3.19052 14.9912 3.30302 14.9483 3.3888 14.8624L4.82356 13.4277C4.99518 13.2561 4.99518 12.9778 4.82356 12.8062C4.65196 12.6346 4.3737 12.6346 4.20208 12.8062Z" fill="#292D43"/>
</g>
<defs>
<clipPath id="clip0">
<rect width="15" height="15" fill="white"/>
</clipPath>
</defs>
</svg>
