<svg width="20" height="20" viewBox="0 0 49 49" fill="none" xmlns="http://www.w3.org/2000/svg">
<path d="M35.5 9.44444C35.5 9.75127 35.7487 10 36.0556 10H47.3167C47.8522 10 48.0777 9.31681 47.6473 8.99802L36.3862 0.656472C36.0196 0.384881 35.5 0.646612 35.5 1.10289V9.44444Z" fill="white"/>
<path d="M34.4935 9.92282V0.923857C34.4935 0.689767 34.3037 0.5 34.0696 0.5H5.3679C2.50327 0.5 0 2.33318 0 4.55358V44.4464C0 46.6668 2.50348 48.5 5.3679 48.5H42.9783C45.8427 48.5 48 46.6668 48 44.4464V11.5547C48 11.3206 47.8102 11.1309 47.5761 11.1309H36.1211C35.2603 11.1309 34.4935 10.5901 34.4935 9.92282Z" fill="white"/>
<rect x="6" y="19.5" width="35.2801" height="2.35201" rx="1.176" fill="black"/>
<rect x="6" y="24.9883" width="35.2801" height="2.35" rx="1.175" fill="black"/>
<rect x="6" y="30.3384" width="35.2801" height="2.35" rx="1.175" fill="black"/>
<rect x="6" y="35.6885" width="35.2801" height="2.35201" rx="1.176" fill="black"/>
</svg>
