<svg width="20" height="20" viewBox="0 0 15 15" fill="none" xmlns="http://www.w3.org/2000/svg">
<path d="M11.7337 9.69307C11.1396 10.5089 10.1774 11.0403 9.09319 11.0403H7.57194C7.04643 11.0403 6.59891 10.7067 6.42945 10.2397C6.22028 10.1773 6.01515 10.0963 5.81499 9.99688C5.39109 9.78627 5.0062 9.50093 4.66738 9.14746C2.46959 9.63029 0.824699 11.5886 0.824699 13.9314V14.2377C0.824699 14.6586 1.16597 14.9999 1.58692 14.9999H13.4129C13.8339 14.9999 14.1752 14.6586 14.1752 14.2377V13.9314C14.1751 12.1216 13.1935 10.5412 11.7337 9.69307Z" fill="#292D43"/>
<path d="M3.85726 7.57649C4.18486 7.57649 4.47 7.39492 4.61772 7.12698C4.62161 7.13759 4.62556 7.14813 4.62954 7.15867C4.63071 7.16183 4.63189 7.165 4.63306 7.16816C4.97962 8.08037 5.65393 8.84507 6.54309 9.17919C6.75814 8.8375 7.1384 8.61025 7.57199 8.61025H9.09324C9.24498 8.61025 9.38621 8.56743 9.51002 8.49822C9.71795 8.38195 9.90493 8.08699 10.0015 7.93065C10.156 7.68046 10.2757 7.41545 10.3819 7.12652C10.4415 7.23486 10.5236 7.32911 10.6219 7.40295V7.77597C10.6219 8.61886 9.93613 9.30463 9.0932 9.30463H7.57195C7.28437 9.30463 7.05121 9.53779 7.05121 9.82537C7.05121 10.113 7.28437 10.3461 7.57195 10.3461H9.0932C10.5104 10.3461 11.6634 9.19316 11.6634 7.77597V7.40295C11.8742 7.24459 12.0105 6.99254 12.0105 6.7086V5.13837V4.53624C12.0105 4.24647 11.8684 3.99008 11.6502 3.83243C11.481 1.69087 9.68424 0 7.49993 0C5.3156 0 3.5189 1.69087 3.34967 3.8324C3.13146 3.99004 2.98934 4.24647 2.98934 4.53621V6.70854C2.98934 7.18924 3.37985 7.57649 3.85726 7.57649ZM7.49993 1.04152C9.11693 1.04152 10.4506 2.27724 10.6065 3.85393C10.5042 3.93444 10.4204 4.03733 10.3626 4.15539C9.87122 2.8734 8.77432 1.98084 7.4999 1.98084C6.19801 1.98084 5.11869 2.90407 4.63913 4.15027C4.63848 4.15196 4.63786 4.15369 4.63721 4.15542C4.57945 4.03736 4.49561 3.93447 4.39328 3.85397C4.54926 2.27724 5.88294 1.04152 7.49993 1.04152Z" fill="#292D43"/>
</svg>
