<svg width="141" height="40" viewBox="0 0 141 40" fill="none" xmlns="http://www.w3.org/2000/svg">
<g clip-path="url(#clip0)">
<path d="M24.2522 22.9577V38.0126C24.2522 39.1016 23.1702 39.9883 21.8371 39.9883C20.5039 39.9883 19.4373 39.1016 19.4373 38.0126L19.5108 22.7671C19.5571 22.8799 24.1943 22.9227 24.2522 22.9577Z" fill="#3AA1D0"/>
<path d="M36.6643 5.44886L24.9981 20.5777C24.5575 21.3205 20.4227 21.6005 19.6576 20.9044L10.221 10.5242C10.073 10.3624 9.95818 10.1727 9.88325 9.96602C9.80832 9.75936 9.77474 9.53983 9.78444 9.32006C9.79414 9.10029 9.84692 8.88463 9.93975 8.68547C10.0326 8.48631 10.1636 8.30759 10.3254 8.1596L10.8548 7.66179C11.1822 7.36329 11.6135 7.20687 12.0548 7.22653C12.4962 7.2462 12.912 7.44034 13.212 7.7668L22.0264 17.4547L33.2908 2.83923C33.5607 2.48697 33.9584 2.2568 34.3966 2.19921C34.8349 2.14161 35.278 2.26129 35.6287 2.53199L36.359 3.09592C36.7082 3.36817 36.9362 3.7683 36.9934 4.20908C37.0506 4.64985 36.9323 5.09551 36.6643 5.44886Z" fill="#3AA1D0"/>
<path d="M4.8149 19.1504V37.5811C4.8149 38.2237 4.56126 38.84 4.10977 39.2944C3.65829 39.7488 3.04595 40.0041 2.40745 40.0041C1.76896 40.0041 1.15661 39.7488 0.705125 39.2944C0.25364 38.84 0 38.2237 0 37.5811L0.092742 14.04C0.146842 14.1645 4.74921 19.1076 4.8149 19.1504Z" fill="#3AA1D0"/>
<path d="M14.3698 20.3972L4.08183 9.08569C3.3253 8.25389 2.04266 8.19624 1.21697 8.95691C0.391278 9.71759 0.335215 11.0085 1.09175 11.8403L11.3797 23.1519C12.1363 23.9837 13.4189 24.0413 14.2446 23.2807C15.0703 22.52 15.1264 21.229 14.3698 20.3972Z" fill="#3AA1D0"/>
<path d="M22.4283 13.3513L30.1569 3.26281C30.4248 2.90946 30.5431 2.4638 30.4859 2.02303C30.4288 1.58226 30.2007 1.18212 29.8516 0.90987L29.1251 0.345937C28.7749 0.0748097 28.3321 -0.0455067 27.8939 0.0113567C27.4556 0.0682201 27.0577 0.297624 26.7872 0.649291L19.4451 10.1038V10.2672L22.2042 13.3785L22.4283 13.3513Z" fill="#3AA1D0"/>
<path d="M31.4939 19.3096H34.0907V23.5876H36.5329V25.6995H34.0907V35.7452C34.059 35.9618 34.0933 36.183 34.1893 36.3795C34.2852 36.5761 34.4381 36.7386 34.6278 36.8458C34.9457 36.9726 35.2875 37.027 35.6287 37.0052H36.0151C36.1594 37.0052 36.3256 36.9936 36.5136 36.9702V39.0121C36.2126 39.0992 35.905 39.1616 35.5939 39.1987C35.2501 39.2376 34.9043 39.2558 34.5583 39.2532C33.3604 39.2532 32.5463 38.9446 32.1161 38.3276C31.6601 37.6111 31.436 36.7701 31.4746 35.9202V25.7306H29.4033V23.6226H31.4746L31.4939 19.3096Z" fill="black"/>
<path d="M47.3027 29.6706C47.5481 29.6616 47.7868 29.5878 47.995 29.4568C48.2032 29.3257 48.3735 29.142 48.489 28.9239C48.6176 28.61 48.6756 28.2713 48.6591 27.9322C48.6878 27.5576 48.6163 27.1822 48.4518 26.8449C48.2873 26.5077 48.0359 26.221 47.7239 26.0148C46.9045 25.567 45.9767 25.3595 45.046 25.4159C43.7051 25.4159 42.7506 25.7815 42.1903 26.5088C41.836 27.0385 41.6267 27.6529 41.5836 28.29H39.1838C39.2302 26.3921 39.8421 25.0724 41.0194 24.3308C42.2489 23.5803 43.6663 23.1997 45.1039 23.2341C46.9008 23.2341 48.3654 23.5802 49.486 24.2725C50.6067 24.9648 51.1593 26.0343 51.1593 27.4888V36.36C51.1485 36.5866 51.205 36.8114 51.3216 37.0056C51.4106 37.0973 51.5204 37.1661 51.6414 37.206C51.7625 37.246 51.8914 37.2559 52.0171 37.235C52.1463 37.2342 52.2753 37.2264 52.4036 37.2117C52.5465 37.2117 52.7011 37.1767 52.8634 37.1495V39.0591C52.563 39.1509 52.2571 39.2236 51.9476 39.2769C51.6628 39.3089 51.3763 39.3232 51.0897 39.3196C50.7129 39.349 50.335 39.2766 49.9954 39.1097C49.6557 38.9429 49.3664 38.6878 49.1576 38.3707C48.9151 37.9317 48.7652 37.4471 48.717 36.9473C48.106 37.7067 47.3352 38.3203 46.4603 38.744C45.4573 39.2616 44.3453 39.5284 43.2182 39.5219C42.5817 39.5466 41.9467 39.4442 41.3497 39.2206C40.7528 38.997 40.2058 38.6566 39.7403 38.219C39.3005 37.8025 38.953 37.2973 38.7206 36.7363C38.4882 36.1754 38.3761 35.5713 38.3917 34.9638C38.3917 33.5365 38.8322 32.428 39.721 31.6424C40.7067 30.8142 41.92 30.3082 43.1988 30.1918L47.3027 29.6706ZM41.8927 36.6711C42.4432 37.1048 43.126 37.3329 43.8249 37.3167C44.7375 37.3149 45.6371 37.0992 46.4526 36.6867C47.1149 36.4014 47.6749 35.9192 48.0575 35.3048C48.4401 34.6904 48.6271 33.973 48.5934 33.2487V31.1641C48.2162 31.3926 47.8073 31.563 47.38 31.6697C46.9016 31.7996 46.4148 31.8958 45.9232 31.9575L44.3774 32.1558C43.6469 32.2227 42.9345 32.4231 42.2753 32.747C41.8955 32.9563 41.5827 33.27 41.3733 33.6515C41.164 34.033 41.0667 34.4665 41.0928 34.9016C41.0767 35.2389 41.1405 35.5753 41.2789 35.8829C41.4173 36.1906 41.6263 36.4607 41.8888 36.6711H41.8927Z" fill="black"/>
<path d="M53.9145 23.6226H57.2416L60.7543 29.0402L64.3094 23.6226L67.4395 23.6926L62.2845 31.1248L67.6675 39.0158H64.3828L60.5842 33.2366L56.8977 39.0158H53.644L59.0269 31.1248L53.9145 23.6226Z" fill="black"/>
<path d="M69.7928 17.8125H72.2892V25.4741C72.8171 24.7611 73.5049 24.1836 74.2967 23.7889C75.0884 23.3942 75.9617 23.1934 76.8452 23.2029C77.7146 23.1708 78.5805 23.331 79.3817 23.6724C80.183 24.0138 80.9 24.5279 81.4823 25.1786C82.6699 26.4957 83.2637 28.4403 83.2637 31.0123C83.2637 33.4469 82.6777 35.468 81.5055 37.0755C80.9577 37.854 80.2255 38.4826 79.3752 38.9044C78.525 39.3261 77.5837 39.5276 76.6365 39.4907C75.5908 39.5266 74.5605 39.2299 73.6919 38.6428C73.102 38.1904 72.5869 37.647 72.1655 37.0327V39.0045H69.7928V17.8125ZM79.5965 35.5354C80.2844 34.4231 80.6296 32.9569 80.6322 31.1368C80.6838 29.7263 80.3252 28.3314 79.6004 27.1231C79.2775 26.61 78.8252 26.1921 78.2896 25.912C77.7541 25.6319 77.1543 25.4996 76.5515 25.5286C75.9751 25.5241 75.4038 25.6376 74.8723 25.8622C74.3409 26.0869 73.8604 26.418 73.46 26.8354C72.579 27.7117 72.1385 29.1494 72.1385 31.1484C72.0978 32.347 72.2826 33.5425 72.6833 34.672C73.3609 36.3677 74.6219 37.2155 76.4665 37.2155C77.0913 37.2489 77.7133 37.11 78.2655 36.814C78.8178 36.5179 79.2793 36.0759 79.6004 35.5354H79.5965Z" fill="black"/>
<path d="M97.4302 25.1432C98.7904 26.4655 99.4705 28.41 99.4705 30.9769C99.4705 33.4608 98.8703 35.5117 97.6698 37.1295C96.4693 38.7474 94.6093 39.5603 92.0898 39.568C89.9824 39.568 88.3079 38.8511 87.0662 37.4173C85.8245 35.9835 85.2062 34.0597 85.2113 31.6458C85.2113 29.0531 85.8631 26.9931 87.1667 25.4659C88.4702 23.9388 90.222 23.1726 92.4221 23.1675C93.3454 23.1457 94.2637 23.3091 95.1236 23.6484C95.9834 23.9876 96.7676 24.4957 97.4302 25.1432ZM95.8381 35.3833C96.4805 34.0316 96.8045 32.549 96.7849 31.0508C96.8309 29.8463 96.5967 28.6477 96.1009 27.5505C95.377 26.1349 94.1301 25.4258 92.3603 25.4232C90.7862 25.4232 89.6437 26.0273 88.9326 27.2355C88.1871 28.566 87.8169 30.0762 87.8622 31.603C87.813 33.038 88.1853 34.4558 88.9326 35.6789C89.6488 36.7678 90.7811 37.3136 92.3294 37.3162C94.0348 37.3266 95.2044 36.6823 95.8381 35.3833Z" fill="black"/>
<path d="M110.723 29.6702C110.969 29.6611 111.207 29.5874 111.416 29.4564C111.624 29.3253 111.794 29.1416 111.91 28.9235C112.04 28.6101 112.098 28.271 112.08 27.9318C112.109 27.5571 112.038 27.1813 111.874 26.8439C111.709 26.5066 111.457 26.22 111.145 26.0144C110.326 25.5669 109.4 25.3594 108.47 25.4155C107.126 25.4155 106.175 25.7811 105.611 26.5083C105.254 27.0373 105.042 27.6517 104.996 28.2896H102.601C102.647 26.3917 103.258 25.0719 104.432 24.3304C105.664 23.5792 107.084 23.1987 108.525 23.2337C110.328 23.2337 111.79 23.5798 112.91 24.2721C114.031 24.9643 114.588 26.0364 114.58 27.4884V36.3596C114.568 36.5868 114.626 36.8121 114.746 37.0052C114.832 37.1005 114.94 37.1727 115.061 37.2155C115.182 37.2583 115.311 37.2702 115.438 37.2502C115.567 37.2494 115.696 37.2416 115.824 37.2269C115.967 37.2269 116.118 37.1919 116.28 37.1646V39.0742C115.98 39.1669 115.674 39.2396 115.364 39.292C115.081 39.3239 114.796 39.3382 114.51 39.3348C114.133 39.3646 113.755 39.2923 113.416 39.1254C113.076 38.9586 112.787 38.7032 112.578 38.3858C112.334 37.9472 112.183 37.4626 112.134 36.9624C111.523 37.7218 110.752 38.3355 109.877 38.7592C108.874 39.2776 107.762 39.5445 106.635 39.537C105.998 39.5626 105.363 39.4606 104.766 39.237C104.169 39.0133 103.622 38.6724 103.157 38.2342C102.717 37.8179 102.369 37.3128 102.136 36.7518C101.903 36.1909 101.79 35.5868 101.805 34.9789C101.805 33.5529 102.248 32.4458 103.134 31.6576C104.12 30.83 105.333 30.324 106.612 30.2069L110.723 29.6702ZM105.313 36.6707C105.863 37.1055 106.546 37.3338 107.245 37.3163C108.158 37.314 109.058 37.0983 109.873 36.6863C110.535 36.4001 111.094 35.9177 111.477 35.3035C111.859 34.6893 112.047 33.9724 112.014 33.2482V31.1637C111.637 31.3922 111.228 31.5626 110.801 31.6692C110.322 31.7988 109.835 31.895 109.344 31.957L107.798 32.1554C107.069 32.2228 106.358 32.4231 105.7 32.7465C105.319 32.955 105.005 33.2684 104.795 33.65C104.585 34.0317 104.487 34.4656 104.513 34.9011C104.497 35.2389 104.561 35.5757 104.7 35.8835C104.839 36.1913 105.05 36.4612 105.313 36.6707Z" fill="black"/>
<path d="M118.869 23.6226H121.311V26.2789C121.667 25.5539 122.167 24.9105 122.78 24.3887C123.136 24.0335 123.558 23.7524 124.022 23.5615C124.487 23.3707 124.984 23.2738 125.485 23.2764C125.531 23.2764 125.612 23.2764 125.728 23.2764L126.312 23.3309V26.0533C126.173 26.024 126.032 26.0045 125.891 25.995C125.763 25.995 125.624 25.995 125.469 25.995C124.91 25.9612 124.35 26.0569 123.833 26.2746C123.316 26.4924 122.855 26.8264 122.486 27.2511C121.802 28.0585 121.432 29.0877 121.443 30.1486V39.0042H118.869V23.6226Z" fill="black"/>
<path d="M136.973 24.0779C137.564 24.498 138.085 25.0084 138.519 25.5908V17.8125H140.988V39.0006H138.67V36.846C138.159 37.7115 137.425 38.4212 136.544 38.8995C135.671 39.3352 134.706 39.5527 133.731 39.5335C132.026 39.5335 130.55 38.8127 129.303 37.3711C128.056 35.9295 127.432 34.0108 127.432 31.6151C127.381 29.5386 127.979 27.4982 129.14 25.7814C130.277 24.1402 131.902 23.3183 134.017 23.3157C135.055 23.281 136.08 23.5454 136.973 24.0779ZM131.204 35.621C131.9 36.7333 133.014 37.2894 134.547 37.2894C135.125 37.2925 135.695 37.1521 136.206 36.8808C136.718 36.6095 137.155 36.2155 137.48 35.7338C138.252 34.6966 138.639 33.2175 138.639 31.2962C138.639 29.375 138.243 27.936 137.453 26.9793C137.102 26.5375 136.656 26.1818 136.148 25.9392C135.641 25.6967 135.085 25.5735 134.523 25.5792C133.919 25.5627 133.319 25.6893 132.772 25.9487C132.225 26.2081 131.746 26.593 131.374 27.0726C130.57 28.0682 130.168 29.5344 130.168 31.4712C130.113 32.9256 130.472 34.3657 131.204 35.621Z" fill="black"/>
</g>
<defs>
<clipPath id="clip0">
<rect width="141" height="40" fill="white"/>
</clipPath>
</defs>
</svg>
