<svg width="15" height="15" viewBox="0 0 15 15" fill="none" xmlns="http://www.w3.org/2000/svg">
<g clip-path="url(#clip0)">
<path d="M14.6904 3.30273H5.94342C5.65861 3.30273 5.4965 3.52293 5.58096 3.795L6.96469 7.84841C7.03286 8.06713 7.2741 8.24436 7.50319 8.24436H13.2379C13.467 8.24436 13.7079 8.06713 13.7755 7.84841L14.9814 3.69927C15.0502 3.48026 14.9201 3.30273 14.6904 3.30273Z" fill="white"/>
<path d="M6.73424 14.2224C7.45688 14.2224 8.04269 13.6366 8.04269 12.9139C8.04269 12.1913 7.45688 11.6055 6.73424 11.6055C6.0116 11.6055 5.42578 12.1913 5.42578 12.9139C5.42578 13.6366 6.0116 14.2224 6.73424 14.2224Z" fill="white"/>
<path d="M12.2694 14.24C12.992 14.24 13.5779 13.6541 13.5779 12.9315C13.5779 12.2089 12.992 11.623 12.2694 11.623C11.5468 11.623 10.9609 12.2089 10.9609 12.9315C10.9609 13.6541 11.5468 14.24 12.2694 14.24Z" fill="white"/>
<path d="M13.8424 9.57683H6.18991L3.12637 0.761719H0.740916C0.331634 0.761719 0 1.09335 0 1.50263C0 1.91192 0.331634 2.24355 0.740916 2.24355H2.07249L5.13603 11.0587H13.8424C14.2517 11.0587 14.5833 10.727 14.5833 10.3177C14.5833 9.90847 14.2517 9.57683 13.8424 9.57683Z" fill="white"/>
</g>
<defs>
<clipPath id="clip0">
<rect width="15" height="15" fill="#292D43"/>
</clipPath>
</defs>
</svg>
