<svg width="15" height="15" viewBox="0 0 15 15" fill="none" xmlns="http://www.w3.org/2000/svg">
<path d="M11.0069 3.61256C11.0069 4.60533 10.6509 5.46467 9.94859 6.16711C9.24626 6.86943 8.38681 7.22546 7.39404 7.22546H7.39232C6.4008 7.22511 5.54192 6.86909 4.8396 6.16711C4.13716 5.46467 3.78125 4.60533 3.78125 3.61256C3.78125 2.62012 4.13716 1.76067 4.8396 1.05835C5.54158 0.356255 6.40046 0.000343324 7.39232 0H7.39404C8.38647 0 9.24592 0.356026 9.94859 1.05835C10.6509 1.76067 11.0069 2.62012 11.0069 3.61256Z" fill="white"/>
<path d="M13.7452 12.4207C13.7452 13.2039 13.496 13.838 13.0053 14.305C12.5203 14.7666 11.8789 15.0004 11.0989 15.0004H3.87634C3.09643 15.0004 2.45499 14.7666 1.97033 14.305C1.47926 13.8377 1.23047 13.2037 1.23047 12.4207C1.23047 12.1194 1.24043 11.8214 1.26034 11.5349C1.28059 11.2419 1.32156 10.9231 1.38199 10.5867C1.44287 10.2477 1.52115 9.9271 1.61488 9.63413C1.71215 9.33086 1.84376 9.03172 2.00661 8.74516C2.17575 8.44772 2.37442 8.18863 2.59712 7.97531C2.83058 7.75204 3.116 7.57271 3.44593 7.44202C3.77472 7.31201 4.13921 7.24609 4.52923 7.24609C4.68224 7.24609 4.83044 7.30869 5.11608 7.49477C5.29484 7.61139 5.50083 7.74414 5.72823 7.88948C5.92461 8.01468 6.19057 8.1321 6.51936 8.23818C6.80832 8.33168 7.10163 8.38387 7.3914 8.39291C7.42332 8.39405 7.45525 8.39462 7.48718 8.39462C7.80899 8.39462 8.13446 8.34187 8.45535 8.23818C8.78414 8.1321 9.05045 8.01468 9.24671 7.88948C9.47651 7.74265 9.6825 7.61002 9.85863 7.49512C10.1445 7.30869 10.2925 7.24609 10.4458 7.24609C10.8355 7.24609 11.2 7.31201 11.529 7.44202C11.8589 7.57271 12.1444 7.75238 12.3776 7.97531C12.6006 8.18863 12.7993 8.44772 12.9683 8.74516C13.1313 9.03194 13.2631 9.33086 13.3601 9.63379C13.4539 9.9271 13.5324 10.2477 13.5933 10.587C13.6534 10.9237 13.6945 11.2425 13.7146 11.5347C13.7349 11.8203 13.7448 12.1183 13.7452 12.4207Z" fill="white"/>
<path d="M7.39234 7.22546H7.39062V0H7.39234C8.38477 0 9.24422 0.356026 9.94689 1.05835C10.6492 1.76067 11.0052 2.62012 11.0052 3.61256C11.0052 4.60533 10.6492 5.46467 9.94689 6.16711C9.24457 6.86943 8.38512 7.22546 7.39234 7.22546Z" fill="white"/>
<path d="M13.7444 12.4207C13.7444 13.2039 13.4952 13.838 13.0045 14.305C12.5195 14.7666 11.8781 15.0004 11.0982 15.0004H7.39062V8.39291C7.42255 8.39405 7.45448 8.39462 7.48641 8.39462C7.80822 8.39462 8.13369 8.34187 8.45458 8.23818C8.78337 8.1321 9.04967 8.01468 9.24594 7.88948C9.47574 7.74265 9.68173 7.61002 9.85786 7.49512C10.1437 7.30869 10.2917 7.24609 10.4451 7.24609C10.8347 7.24609 11.1992 7.31201 11.5282 7.44202C11.8582 7.57271 12.1436 7.75238 12.3768 7.97531C12.5999 8.18863 12.7985 8.44772 12.9676 8.74516C13.1305 9.03194 13.2624 9.33086 13.3593 9.63379C13.4531 9.9271 13.5316 10.2477 13.5925 10.587C13.6526 10.9237 13.6937 11.2425 13.7138 11.5347C13.7341 11.8203 13.744 12.1183 13.7444 12.4207Z" fill="#F6F9FC"/>
</svg>
