<svg width="15" height="14" viewBox="0 0 15 14" fill="none" xmlns="http://www.w3.org/2000/svg">
<path d="M14.7009 6.30054H13.3009V10.5007H14.7009V6.30054Z" fill="#292D43"/>
<path d="M8.05633 9.61092C7.84172 9.73458 7.59839 9.79967 7.35071 9.79967C7.10302 9.79967 6.85969 9.73458 6.64509 9.61092L2.80056 7.46045V11.2C2.80056 13.0382 5.08963 14.0001 7.35071 14.0001C9.61178 14.0001 11.9009 13.0382 11.9009 11.2V7.46045L8.05633 9.61092Z" fill="#292D43"/>
<path d="M14.3418 3.56266L7.60405 0.0625464C7.5259 0.0214652 7.43893 0 7.35064 0C7.26235 0 7.17538 0.0214652 7.09723 0.0625464L0.359513 3.56266C0.249808 3.6289 0.159067 3.72234 0.0960814 3.83395C0.0330957 3.94555 0 4.07153 0 4.19968C0 4.32783 0.0330957 4.45381 0.0960814 4.56541C0.159067 4.67702 0.249808 4.77046 0.359513 4.8367L7.09723 8.33682C7.17531 8.37813 7.26231 8.39973 7.35064 8.39973C7.43898 8.39973 7.52597 8.37813 7.60405 8.33682L14.3418 4.8367C14.4513 4.77033 14.5419 4.67684 14.6047 4.56525C14.6676 4.45367 14.7006 4.32776 14.7006 4.19968C14.7006 4.07161 14.6676 3.94569 14.6047 3.83411C14.5419 3.72252 14.4513 3.62903 14.3418 3.56266Z" fill="#292D43"/>
</svg>
