<svg width="264" height="263" viewBox="0 0 264 263" fill="none" xmlns="http://www.w3.org/2000/svg">
<g filter="url(#filter0_dd)">
<rect x="32" y="19" width="200" height="200" rx="3.37599" fill="white"/>
<rect x="32" y="19" width="200" height="200" rx="3.37599" stroke="#1DA1F2" stroke-width="3"/>
</g>
<path d="M79.625 177V165.578H81.4922V177H79.625ZM96.1406 172.664C96.1406 174.076 95.7786 175.177 95.0547 175.969C94.3307 176.76 93.3229 177.156 92.0312 177.156C91.224 177.156 90.5104 176.974 89.8906 176.609C89.2708 176.245 88.7943 175.721 88.4609 175.039C88.1276 174.357 87.9609 173.565 87.9609 172.664C87.9609 171.263 88.3203 170.169 89.0391 169.383C89.7578 168.596 90.7708 168.203 92.0781 168.203C93.3281 168.203 94.3177 168.607 95.0469 169.414C95.776 170.216 96.1406 171.299 96.1406 172.664ZM89.8516 172.664C89.8516 174.659 90.5885 175.656 92.0625 175.656C93.5208 175.656 94.25 174.659 94.25 172.664C94.25 170.69 93.5156 169.703 92.0469 169.703C91.276 169.703 90.7161 169.958 90.3672 170.469C90.0234 170.979 89.8516 171.711 89.8516 172.664ZM105.344 177L104.227 172.969C104.091 172.542 103.846 171.549 103.492 169.992H103.422C103.12 171.398 102.88 172.396 102.703 172.984L101.555 177H99.5234L97.1016 168.359H98.9766L100.078 172.617C100.328 173.669 100.505 174.57 100.609 175.32H100.656C100.708 174.94 100.786 174.505 100.891 174.016C101 173.521 101.094 173.151 101.172 172.906L102.484 168.359H104.5L105.773 172.906C105.852 173.161 105.948 173.552 106.062 174.078C106.182 174.604 106.253 175.013 106.273 175.305H106.336C106.414 174.664 106.596 173.768 106.883 172.617L108 168.359H109.844L107.406 177H105.344ZM118.938 177H117.094V171.688C117.094 171.021 116.958 170.523 116.688 170.195C116.422 169.867 115.997 169.703 115.414 169.703C114.638 169.703 114.07 169.932 113.711 170.391C113.352 170.849 113.172 171.617 113.172 172.695V177H111.336V168.359H112.773L113.031 169.492H113.125C113.385 169.081 113.755 168.763 114.234 168.539C114.714 168.315 115.245 168.203 115.828 168.203C117.901 168.203 118.938 169.258 118.938 171.367V177ZM131.055 177L130.688 175.797H130.625C130.208 176.323 129.789 176.682 129.367 176.875C128.945 177.062 128.404 177.156 127.742 177.156C126.893 177.156 126.229 176.927 125.75 176.469C125.276 176.01 125.039 175.362 125.039 174.523C125.039 173.633 125.37 172.961 126.031 172.508C126.693 172.055 127.701 171.807 129.055 171.766L130.547 171.719V171.258C130.547 170.706 130.417 170.294 130.156 170.023C129.901 169.747 129.503 169.609 128.961 169.609C128.518 169.609 128.094 169.674 127.688 169.805C127.281 169.935 126.891 170.089 126.516 170.266L125.922 168.953C126.391 168.708 126.904 168.523 127.461 168.398C128.018 168.268 128.544 168.203 129.039 168.203C130.138 168.203 130.966 168.443 131.523 168.922C132.086 169.401 132.367 170.154 132.367 171.18V177H131.055ZM128.32 175.75C128.987 175.75 129.521 175.565 129.922 175.195C130.328 174.82 130.531 174.297 130.531 173.625V172.875L129.422 172.922C128.557 172.953 127.927 173.099 127.531 173.359C127.141 173.615 126.945 174.008 126.945 174.539C126.945 174.924 127.06 175.224 127.289 175.438C127.518 175.646 127.862 175.75 128.32 175.75ZM146.688 177H144.844V171.688C144.844 171.021 144.708 170.523 144.438 170.195C144.172 169.867 143.747 169.703 143.164 169.703C142.393 169.703 141.826 169.935 141.461 170.398C141.102 170.857 140.922 171.628 140.922 172.711V177H139.086V164.844H140.922V167.93C140.922 168.424 140.891 168.953 140.828 169.516H140.945C141.195 169.099 141.542 168.776 141.984 168.547C142.432 168.318 142.953 168.203 143.547 168.203C145.641 168.203 146.688 169.258 146.688 171.367V177ZM156.906 172.664C156.906 174.076 156.544 175.177 155.82 175.969C155.096 176.76 154.089 177.156 152.797 177.156C151.99 177.156 151.276 176.974 150.656 176.609C150.036 176.245 149.56 175.721 149.227 175.039C148.893 174.357 148.727 173.565 148.727 172.664C148.727 171.263 149.086 170.169 149.805 169.383C150.523 168.596 151.536 168.203 152.844 168.203C154.094 168.203 155.083 168.607 155.812 169.414C156.542 170.216 156.906 171.299 156.906 172.664ZM150.617 172.664C150.617 174.659 151.354 175.656 152.828 175.656C154.286 175.656 155.016 174.659 155.016 172.664C155.016 170.69 154.281 169.703 152.812 169.703C152.042 169.703 151.482 169.958 151.133 170.469C150.789 170.979 150.617 171.711 150.617 172.664ZM165.117 177L164.859 175.867H164.766C164.51 176.268 164.146 176.583 163.672 176.812C163.203 177.042 162.667 177.156 162.062 177.156C161.016 177.156 160.234 176.896 159.719 176.375C159.203 175.854 158.945 175.065 158.945 174.008V168.359H160.797V173.688C160.797 174.349 160.932 174.846 161.203 175.18C161.474 175.508 161.898 175.672 162.477 175.672C163.247 175.672 163.812 175.443 164.172 174.984C164.536 174.521 164.719 173.747 164.719 172.664V168.359H166.562V177H165.117ZM174.984 174.539C174.984 175.383 174.677 176.031 174.062 176.484C173.448 176.932 172.568 177.156 171.422 177.156C170.271 177.156 169.346 176.982 168.648 176.633V175.047C169.664 175.516 170.609 175.75 171.484 175.75C172.615 175.75 173.18 175.409 173.18 174.727C173.18 174.508 173.117 174.326 172.992 174.18C172.867 174.034 172.661 173.883 172.375 173.727C172.089 173.57 171.69 173.393 171.18 173.195C170.185 172.81 169.51 172.424 169.156 172.039C168.807 171.654 168.633 171.154 168.633 170.539C168.633 169.799 168.93 169.227 169.523 168.82C170.122 168.409 170.935 168.203 171.961 168.203C172.977 168.203 173.938 168.409 174.844 168.82L174.25 170.203C173.318 169.818 172.534 169.625 171.898 169.625C170.93 169.625 170.445 169.901 170.445 170.453C170.445 170.724 170.57 170.953 170.82 171.141C171.076 171.328 171.628 171.586 172.477 171.914C173.19 172.19 173.708 172.443 174.031 172.672C174.354 172.901 174.594 173.167 174.75 173.469C174.906 173.766 174.984 174.122 174.984 174.539ZM180.75 177.156C179.406 177.156 178.354 176.766 177.594 175.984C176.839 175.198 176.461 174.117 176.461 172.742C176.461 171.331 176.812 170.221 177.516 169.414C178.219 168.607 179.185 168.203 180.414 168.203C181.555 168.203 182.456 168.549 183.117 169.242C183.779 169.935 184.109 170.888 184.109 172.102V173.094H178.352C178.378 173.932 178.604 174.578 179.031 175.031C179.458 175.479 180.06 175.703 180.836 175.703C181.346 175.703 181.82 175.656 182.258 175.562C182.701 175.464 183.174 175.302 183.68 175.078V176.57C183.232 176.784 182.779 176.935 182.32 177.023C181.862 177.112 181.339 177.156 180.75 177.156ZM180.414 169.594C179.831 169.594 179.362 169.779 179.008 170.148C178.659 170.518 178.451 171.057 178.383 171.766H182.305C182.294 171.052 182.122 170.513 181.789 170.148C181.456 169.779 180.997 169.594 180.414 169.594Z" fill="#32325D"/>
<rect x="43" y="30" width="177" height="94" fill="white"/>
<g clip-path="url(#clip0)">
<path d="M132 47.0004C148.568 47.0004 162 60.4318 162 77.0003C162 93.5687 148.568 107 132 107C115.432 107 102 93.5687 102 77.0003C101.953 60.4788 115.308 47.0475 131.829 47.0004C131.886 47.0002 131.943 47.0002 132 47.0004Z" fill="#1DA1F2"/>
<path d="M148.617 68.733L127.311 90.0397L115.379 78.1932L120.237 73.4205L127.311 80.4091L143.76 63.9603L148.617 68.733Z" fill="white"/>
</g>
<defs>
<filter id="filter0_dd" x="0.960121" y="0.62007" width="262.08" height="262.08" filterUnits="userSpaceOnUse" color-interpolation-filters="sRGB">
<feFlood flood-opacity="0" result="BackgroundImageFix"/>
<feColorMatrix in="SourceAlpha" type="matrix" values="0 0 0 0 0 0 0 0 0 0 0 0 0 0 0 0 0 0 127 0"/>
<feOffset dy="4.21998"/>
<feGaussianBlur stdDeviation="6.32997"/>
<feColorMatrix type="matrix" values="0 0 0 0 0 0 0 0 0 0 0 0 0 0 0 0 0 0 0.07 0"/>
<feBlend mode="normal" in2="BackgroundImageFix" result="effect1_dropShadow"/>
<feColorMatrix in="SourceAlpha" type="matrix" values="0 0 0 0 0 0 0 0 0 0 0 0 0 0 0 0 0 0 127 0"/>
<feOffset dy="12.6599"/>
<feGaussianBlur stdDeviation="14.7699"/>
<feColorMatrix type="matrix" values="0 0 0 0 0.196078 0 0 0 0 0.196078 0 0 0 0 0.364706 0 0 0 0.1 0"/>
<feBlend mode="normal" in2="effect1_dropShadow" result="effect2_dropShadow"/>
<feBlend mode="normal" in="SourceGraphic" in2="effect2_dropShadow" result="shape"/>
</filter>
<clipPath id="clip0">
<rect width="60" height="60" fill="white" transform="translate(102 47)"/>
</clipPath>
</defs>
</svg>
