<svg width="53" height="52" viewBox="0 0 53 52" fill="none" xmlns="http://www.w3.org/2000/svg">
<g clip-path="url(#clip0)">
<path d="M17.6472 52C15.8169 51.6934 9.13995 49.0805 9.13995 49.0805C9.13995 49.0805 6.35988 42.0554 6.35938 39.898V0H26.8499L28.1693 26L26.8499 52H17.6472Z" fill="#F4F2F1"/>
<path d="M26.8496 0H47.3401V52H26.8496V0Z" fill="#E5DEDD"/>
<path d="M14.4161 48.2427V43.8046H10.2605C8.103 43.8046 6.35978 42.0558 6.35938 39.8984V44.8241C6.35938 48.7875 9.57231 52.0004 13.5357 52.0004H17.6472C15.8169 51.6938 14.4161 50.1694 14.4161 48.2427Z" fill="#E5DEDD"/>
<path d="M29.4238 10.2578H41.8512V13.3035H29.4238V10.2578Z" fill="#DAD0CD"/>
<path d="M29.4238 16.3496H41.8512V19.3953H29.4238V16.3496Z" fill="#DAD0CD"/>
<path d="M20.3039 30.8066L14.207 36.9034L16.3607 39.0571L20.3039 35.1139L26.8506 41.6606L28.1701 40.55L26.8506 37.3534L20.3039 30.8066Z" fill="#FC6284"/>
<path d="M12 22.4395V25.4852H26.8496L28.9557 23.9623L26.8496 22.4395H12Z" fill="#E5DEDD"/>
<path d="M38.7029 36.1693V38.7829H41.7486V30.8223H33.788V33.8679H36.6971L30.03 40.535L26.8496 37.3546V41.6618L30.03 44.8423L38.7029 36.1693Z" fill="#D9438A"/>
<path d="M26.8496 22.4395H41.8501V25.4851H26.8496V22.4395Z" fill="#DAD0CD"/>
<path d="M16.1915 19L13.3115 13.976V12.792H14.2715C14.8368 12.792 15.3115 12.6693 15.6955 12.424C16.0795 12.168 16.3248 11.816 16.4315 11.368H13.3115V10.184H16.4155C16.3195 9.77867 16.1222 9.44267 15.8235 9.176C15.5248 8.89867 15.1088 8.76 14.5755 8.76H13.3115V7.576H20.5275V8.76H18.0155C18.3888 9.16533 18.6235 9.64 18.7195 10.184H20.5275V11.368H18.7515C18.6448 12.1573 18.3408 12.776 17.8395 13.224C17.3382 13.6613 16.6928 13.96 15.9035 14.12L19.0395 19H16.1915Z" fill="#FFCC00"/>
</g>
<defs>
<clipPath id="clip0">
<rect width="52" height="52" fill="white" transform="translate(0.849609)"/>
</clipPath>
</defs>
</svg>
