<svg width="83" height="81" viewBox="0 0 83 81" fill="none" xmlns="http://www.w3.org/2000/svg">
<path d="M82.861 40.7187C82.861 62.9543 64.3432 80.9794 41.4998 80.9794C18.6564 80.9794 0.138672 62.9543 0.138672 40.7187C0.138672 18.483 18.6564 0.458008 41.4998 0.458008C64.3432 0.458008 82.861 18.483 82.861 40.7187Z" fill="#7BE0FF"/>
<path d="M48.6182 8H24.3808V29.8305H17.8555L36.4995 41.2204L55.1435 29.8305H48.6182V8Z" fill="#76BDF6"/>
<path d="M59.8038 20.339H48.6174V24.1357H59.8039V48.8136H13.1937V24.1356H24.3802V20.3389H13.1937C11.1344 20.3389 9.46484 22.0388 9.46484 24.1356V50.7118C9.46484 52.8085 11.1344 54.5085 13.1937 54.5085H59.8038C61.8631 54.5085 63.5326 52.8085 63.5326 50.7118V24.1356C63.5326 22.0389 61.8631 20.339 59.8038 20.339Z" fill="#3689C9"/>
<path d="M13.1953 48.8136H59.8055V24.1356H48.6191V29.8305H55.1445L36.5004 41.2204L17.8563 29.8305H24.3818V24.1356H13.1953V48.8136Z" fill="#FFDDBA"/>
<path d="M9.46484 60.2034C9.46484 63.3489 11.9687 64 15.0581 64H57.9394C61.0287 64 63.5326 63.3489 63.5326 60.2034H9.46484Z" fill="#3689C9"/>
<path d="M27.1777 60.2034H45.8219L43.0253 54.5084H29.9744L27.1777 60.2034Z" fill="#3689C9"/>
<path d="M42.0927 17.4916L37.4317 14.6441C36.4995 17.4916 30.9062 17.4916 30.9062 17.4916C30.9062 20.6371 34.5223 23.1865 36.4995 23.1865C38.4767 23.1865 42.0927 20.637 42.0927 17.4916Z" fill="#FFDDBA"/>
<path d="M37.4317 14.6441L42.0927 17.4916C42.0927 14.346 41.1605 10.8475 36.4995 10.8475C31.8385 10.8475 30.9062 14.346 30.9062 17.4916C30.9062 17.4916 36.4995 17.4916 37.4317 14.6441Z" fill="#854F09"/>
<path d="M29.043 30.7797V26.983C29.043 24.8863 30.7125 23.1864 32.7718 23.1864H40.2294C42.2887 23.1864 43.9583 24.8863 43.9583 26.983V30.7797H29.043Z" fill="#3689C9"/>
<path d="M56.5425 42.6441H54.2119V40.2712H53.2797V42.6441H50.9492V43.5933H53.2797V45.9661H54.2119V43.5933H56.5425V42.6441Z" fill="#3689C9"/>
<g opacity="0.14">
<path opacity="0.14" d="M43.0268 54.5084H29.9759L29.5098 55.4576H29.9759H43.0268H43.4929L43.0268 54.5084Z" fill="black"/>
</g>
<g opacity="0.14">
<path opacity="0.14" d="M36.4995 41.2204L20.9624 31.7288H17.8555L36.4995 43.1187L55.1435 31.7288H52.0366L36.4995 41.2204Z" fill="black"/>
</g>
</svg>
