<svg width="75" height="75" viewBox="0 0 77 77" fill="none" xmlns="http://www.w3.org/2000/svg">
<path d="M31.3689 17.6164C32.358 17.6164 33.3067 17.2235 34.0061 16.524C34.7055 15.8246 35.0985 14.876 35.0985 13.8868C35.0985 12.8977 34.7055 11.949 34.0061 11.2496C33.3067 10.5501 32.358 10.1572 31.3689 10.1572C30.3797 10.1572 29.4311 10.5501 28.7316 11.2496C28.0322 11.949 27.6393 12.8977 27.6393 13.8868C27.6393 14.876 28.0322 15.8246 28.7316 16.524C29.4311 17.2235 30.3797 17.6164 31.3689 17.6164ZM2.28373 67.3968H31.3689V62.9221H4.52105V59.1947C4.52105 56.3086 6.86129 53.9728 9.74295 53.9728H31.3689V51.7355C31.3689 49.2163 32.2012 46.8895 33.6062 45.0236V27.125H40.3181V40.7727L40.5061 40.7369C41.02 37.981 42.5498 35.5186 44.7928 33.837V27.125H53.7421V31.5997H58.2167V27.125H58.6328C62.6287 27.125 64.2709 21.9926 61.0044 19.6792L34.8278 1.10054C33.819 0.384597 32.6126 0 31.3756 0C30.1386 0 28.9322 0.384597 27.9234 1.10054L1.73335 19.6792C-1.51971 21.9926 0.109061 27.125 4.10491 27.125H4.52105V51.0196C1.8318 52.7468 0.0464155 55.7627 0.0464155 59.1947V65.1594C0.0464155 65.7528 0.282133 66.3219 0.701711 66.7415C1.12129 67.161 1.69036 67.3968 2.28373 67.3968ZM30.5097 4.75184C30.7615 4.57345 31.0625 4.47764 31.3711 4.47764C31.6797 4.47764 31.9807 4.57345 32.2325 4.75184L57.465 22.6504H5.27727L30.5097 4.75184ZM8.99569 49.5251V27.125H17.945V49.4982H9.74295C9.49361 49.4976 9.24434 49.5066 8.99569 49.5251ZM29.1316 49.4982H22.4196V27.125H29.1316V49.4982ZM44.7928 45.0236V42.7863C44.7928 41.0061 45.4999 39.2989 46.7587 38.0402C48.0174 36.7814 49.7246 36.0743 51.5047 36.0743H60.454C62.2341 36.0743 63.9413 36.7814 65.2001 38.0402C66.4588 39.2989 67.166 41.0061 67.166 42.7863V45.0236H69.4033C71.1834 45.0236 72.8906 45.7307 74.1493 46.9895C75.4081 48.2482 76.1152 49.9554 76.1152 51.7355V58.4475H67.166V56.2102C67.166 55.6168 66.9303 55.0477 66.5107 54.6281C66.0911 54.2086 65.522 53.9728 64.9286 53.9728C64.3353 53.9728 63.7662 54.2086 63.3466 54.6281C62.927 55.0477 62.6913 55.6168 62.6913 56.2102V58.4475H49.2674V56.2102C49.2674 55.6168 49.0317 55.0477 48.6121 54.6281C48.1925 54.2086 47.6235 53.9728 47.0301 53.9728C46.4367 53.9728 45.8677 54.2086 45.4481 54.6281C45.0285 55.0477 44.7928 55.6168 44.7928 56.2102V58.4475H35.8435V51.7355C35.8435 49.9554 36.5507 48.2482 37.8094 46.9895C39.0681 45.7307 40.7753 45.0236 42.5555 45.0236H44.7928ZM49.2674 42.7863V45.0236H62.6913V42.7863C62.6913 42.1929 62.4556 41.6238 62.036 41.2042C61.6165 40.7847 61.0474 40.5489 60.454 40.5489H51.5047C50.9114 40.5489 50.3423 40.7847 49.9227 41.2042C49.5031 41.6238 49.2674 42.1929 49.2674 42.7863ZM67.166 62.9221H76.1152V69.6341C76.1152 71.4142 75.4081 73.1214 74.1493 74.3801C72.8906 75.6389 71.1834 76.346 69.4033 76.346H42.5555C40.7753 76.346 39.0681 75.6389 37.8094 74.3801C36.5507 73.1214 35.8435 71.4142 35.8435 69.6341V62.9221H44.7928V65.1594C44.7928 65.7528 45.0285 66.3219 45.4481 66.7415C45.8677 67.161 46.4367 67.3968 47.0301 67.3968C47.6235 67.3968 48.1925 67.161 48.6121 66.7415C49.0317 66.3219 49.2674 65.7528 49.2674 65.1594V62.9221H62.6913V65.1594C62.6913 65.7528 62.927 66.3219 63.3466 66.7415C63.7662 67.161 64.3353 67.3968 64.9286 67.3968C65.522 67.3968 66.0911 67.161 66.5107 66.7415C66.9303 66.3219 67.166 65.7528 67.166 65.1594V62.9221Z" fill="#2BA6F3"/>
</svg>
