<svg width="75" height="75" viewBox="0 0 70 66" fill="none" xmlns="http://www.w3.org/2000/svg">
<path d="M67.3017 28.7769H47.931V26.4593C47.931 24.4177 46.27 22.7567 44.2284 22.7567C42.1868 22.7567 40.5258 24.4177 40.5258 26.4593V28.7769H21.1552C19.7602 28.7769 18.6092 29.8408 18.4708 31.1998C18.4617 31.2904 18.4569 31.3823 18.4569 31.4753V49.1015C18.4569 50.5894 19.6674 51.7999 21.1552 51.7999H24.4221V59.1487H10.342V23.5178L33.8987 7.84783L57.4554 23.518V26.3638C57.4554 26.9169 57.9038 27.3652 58.4568 27.3652C59.0099 27.3652 59.4583 26.9169 59.4583 26.3638V24.8503L62.4936 26.8694C63.642 27.6334 65.126 27.6334 66.2746 26.8694C67.228 26.2351 67.7973 25.1727 67.7973 24.0274C67.7973 22.8822 67.228 21.8198 66.2746 21.1857L34.8686 0.293979C34.2794 -0.0979932 33.5181 -0.0979932 32.929 0.293979L14.7064 12.4159C14.246 12.7221 14.1209 13.3438 14.4272 13.8044C14.7336 14.2649 15.3554 14.39 15.8158 14.0834L33.8987 2.05437L65.1654 22.8533C65.5651 23.1193 65.7945 23.5472 65.7945 24.0275C65.7945 24.5078 65.5651 24.9358 65.1654 25.2018C64.6908 25.5175 64.0776 25.5175 63.6031 25.2018L34.8686 6.0873C34.2794 5.69546 33.5181 5.69519 32.929 6.0873L4.19426 25.2018C3.71984 25.5172 3.10666 25.5175 2.63211 25.2017C2.23221 24.9358 2.00293 24.5078 2.00293 24.0275C2.00293 23.5472 2.23221 23.1193 2.63211 22.8533L10.6349 17.5297C11.0954 17.2234 11.2205 16.6018 10.9141 16.1412C10.6077 15.6809 9.98607 15.5556 9.5256 15.8621L1.52277 21.1856C0.569297 21.8198 0 22.8821 0 24.0275C0 25.173 0.569297 26.2353 1.52277 26.8694C2.09713 27.2515 2.75502 27.4425 3.41332 27.4425C4.07135 27.4424 4.72965 27.2514 5.30373 26.8694L8.33902 24.8503V59.1487H4.50092C2.83473 59.1487 1.4793 60.5042 1.4793 62.1703C1.4793 63.8365 2.83473 65.1919 4.50092 65.1919H63.2965C64.9627 65.1919 66.3182 63.8363 66.3182 62.1703C66.3182 60.5041 64.9627 59.1487 63.2965 59.1487H59.4584V54.2127C59.4584 53.6595 59.01 53.2112 58.457 53.2112C57.9039 53.2112 57.4555 53.6595 57.4555 54.2127V59.1487H47.9311V51.7999H67.3017C68.7896 51.7999 70 50.5894 70 49.1015V31.4753C70 29.9874 68.7895 28.7769 67.3017 28.7769ZM42.5287 26.4593C42.5287 25.5221 43.2912 24.7597 44.2284 24.7597C45.1656 24.7597 45.9281 25.5221 45.9281 26.4593V28.7769H42.5287V26.4593V26.4593ZM40.5258 63.189H4.50092C3.93928 63.189 3.48223 62.7321 3.48223 62.1703C3.48223 61.6085 3.93914 61.1516 4.50092 61.1516H40.5258V63.189ZM40.5258 59.1487H26.425V51.7999H40.5258V59.1487V59.1487ZM45.9281 63.189H42.5287V51.7998H45.9281V63.189ZM63.2965 61.1516C63.8582 61.1516 64.3152 61.6085 64.3152 62.1703C64.3152 62.7321 63.8583 63.189 63.2965 63.189H47.931V61.1516H63.2965V61.1516ZM67.3017 49.797H21.1552C20.7717 49.797 20.4598 49.4851 20.4598 49.1015V31.4753C20.4598 31.0919 20.7717 30.7799 21.1552 30.7799L67.3017 30.7798C67.6852 30.7798 67.9971 31.0917 67.9971 31.4753V49.1015C67.9971 49.485 67.6852 49.797 67.3017 49.797Z" fill="#1DA1F2"/>
<path d="M25.2734 48H22.8906V36.5781H29.4375V38.5625H25.2734V41.5078H29.1484V43.4844H25.2734V48ZM42.0391 42.2734C42.0391 44.1641 41.5703 45.6172 40.6328 46.6328C39.6953 47.6484 38.3516 48.1562 36.6016 48.1562C34.8516 48.1562 33.5078 47.6484 32.5703 46.6328C31.6328 45.6172 31.1641 44.1589 31.1641 42.2578C31.1641 40.3568 31.6328 38.9062 32.5703 37.9062C33.513 36.901 34.862 36.3984 36.6172 36.3984C38.3724 36.3984 39.7135 36.9036 40.6406 37.9141C41.5729 38.9245 42.0391 40.3776 42.0391 42.2734ZM33.7031 42.2734C33.7031 43.5495 33.9453 44.5104 34.4297 45.1562C34.9141 45.8021 35.638 46.125 36.6016 46.125C38.5339 46.125 39.5 44.8411 39.5 42.2734C39.5 39.7005 38.5391 38.4141 36.6172 38.4141C35.6536 38.4141 34.9271 38.7396 34.4375 39.3906C33.9479 40.0365 33.7031 40.9974 33.7031 42.2734ZM54.7734 42.2734C54.7734 44.1641 54.3047 45.6172 53.3672 46.6328C52.4297 47.6484 51.0859 48.1562 49.3359 48.1562C47.5859 48.1562 46.2422 47.6484 45.3047 46.6328C44.3672 45.6172 43.8984 44.1589 43.8984 42.2578C43.8984 40.3568 44.3672 38.9062 45.3047 37.9062C46.2474 36.901 47.5964 36.3984 49.3516 36.3984C51.1068 36.3984 52.4479 36.9036 53.375 37.9141C54.3073 38.9245 54.7734 40.3776 54.7734 42.2734ZM46.4375 42.2734C46.4375 43.5495 46.6797 44.5104 47.1641 45.1562C47.6484 45.8021 48.3724 46.125 49.3359 46.125C51.2682 46.125 52.2344 44.8411 52.2344 42.2734C52.2344 39.7005 51.2734 38.4141 49.3516 38.4141C48.388 38.4141 47.6615 38.7396 47.1719 39.3906C46.6823 40.0365 46.4375 40.9974 46.4375 42.2734ZM66.6172 42.1797C66.6172 44.0599 66.0807 45.5 65.0078 46.5C63.9401 47.5 62.3958 48 60.375 48H57.1406V36.5781H60.7266C62.5911 36.5781 64.0391 37.0703 65.0703 38.0547C66.1016 39.0391 66.6172 40.4141 66.6172 42.1797ZM64.1016 42.2422C64.1016 39.7891 63.0182 38.5625 60.8516 38.5625H59.5625V46H60.6016C62.9349 46 64.1016 44.7474 64.1016 42.2422Z" fill="#1DA1F2"/>
</svg>
