<svg width="70" height="63" viewBox="0 0 70 63" fill="none" xmlns="http://www.w3.org/2000/svg">
<path d="M66.5 10.5H51.3333V5.83333C51.3293 2.61304 48.7203 0.00398764 45.5 0H24.5C21.2797 0.00398764 18.6707 2.61304 18.6667 5.83333V10.5H3.5C1.56714 10.5 0 12.0671 0 14V39.9697C0.00740559 41.4497 0.939941 42.7662 2.33333 43.2635V59.5C2.33333 61.4329 3.90047 63 5.83333 63H64.1667C66.0995 63 67.6667 61.4329 67.6667 59.5V43.2646C69.0601 42.7668 69.9932 41.4497 70 39.9697V14C70 12.0671 68.4329 10.5 66.5 10.5ZM21 5.83333C21 3.90047 22.5671 2.33333 24.5 2.33333H45.5C47.4329 2.33333 49 3.90047 49 5.83333V10.5H46.6667V5.83333C46.6667 5.18905 46.1443 4.66667 45.5 4.66667H24.5C23.8557 4.66667 23.3333 5.18905 23.3333 5.83333V10.5H21V5.83333ZM44.3333 10.5H25.6667V7H44.3333V10.5ZM65.3333 59.5C65.3333 60.1443 64.811 60.6667 64.1667 60.6667H5.83333C5.18905 60.6667 4.66667 60.1443 4.66667 59.5V43.6645L30.3333 47.2044V50.1667C30.3333 52.0995 31.9005 53.6667 33.8333 53.6667H36.1667C38.0995 53.6667 39.6667 52.0995 39.6667 50.1667V47.2044L65.3333 43.6645V59.5ZM37.3333 50.1667C37.3333 50.811 36.811 51.3333 36.1667 51.3333H33.8333C33.189 51.3333 32.6667 50.811 32.6667 50.1667V43.1667C32.6667 42.5224 33.189 42 33.8333 42H36.1667C36.811 42 37.3333 42.5224 37.3333 43.1667V50.1667ZM67.6667 39.9697C67.6672 40.5513 67.2394 41.0447 66.6635 41.1261L66.3399 41.1706L39.6667 44.8489V43.1667C39.6667 41.2338 38.0995 39.6667 36.1667 39.6667H33.8333C31.9005 39.6667 30.3333 41.2338 30.3333 43.1667V44.8489L3.33765 41.1261C2.76172 41.0452 2.33276 40.5519 2.33333 39.9697V14C2.33333 13.3557 2.85571 12.8333 3.5 12.8333H66.5C67.1443 12.8333 67.6667 13.3557 67.6667 14V39.9697Z" fill="#1DA1F2"/>
<path d="M20.5469 32V17.7227H22.207V30.4961H28.5059V32H20.5469ZM30.9375 32V17.7227H32.5977V30.4961H38.8965V32H30.9375ZM50.3809 21.8828C50.3809 23.3281 49.8861 24.4414 48.8965 25.2227C47.9134 25.9974 46.5039 26.3848 44.668 26.3848H42.9883V32H41.3281V17.7227H45.0293C48.597 17.7227 50.3809 19.1094 50.3809 21.8828ZM42.9883 24.959H44.4824C45.9538 24.959 47.0182 24.7214 47.6758 24.2461C48.3333 23.7708 48.6621 23.0091 48.6621 21.9609C48.6621 21.0169 48.3529 20.3138 47.7344 19.8516C47.1159 19.3893 46.1523 19.1582 44.8438 19.1582H42.9883V24.959Z" fill="#1DA1F2"/>
<path d="M20.5469 32H20.0469V32.5H20.5469V32ZM20.5469 17.7227V17.2227H20.0469V17.7227H20.5469ZM22.207 17.7227H22.707V17.2227H22.207V17.7227ZM22.207 30.4961H21.707V30.9961H22.207V30.4961ZM28.5059 30.4961H29.0059V29.9961H28.5059V30.4961ZM28.5059 32V32.5H29.0059V32H28.5059ZM21.0469 32V17.7227H20.0469V32H21.0469ZM20.5469 18.2227H22.207V17.2227H20.5469V18.2227ZM21.707 17.7227V30.4961H22.707V17.7227H21.707ZM22.207 30.9961H28.5059V29.9961H22.207V30.9961ZM28.0059 30.4961V32H29.0059V30.4961H28.0059ZM28.5059 31.5H20.5469V32.5H28.5059V31.5ZM30.9375 32H30.4375V32.5H30.9375V32ZM30.9375 17.7227V17.2227H30.4375V17.7227H30.9375ZM32.5977 17.7227H33.0977V17.2227H32.5977V17.7227ZM32.5977 30.4961H32.0977V30.9961H32.5977V30.4961ZM38.8965 30.4961H39.3965V29.9961H38.8965V30.4961ZM38.8965 32V32.5H39.3965V32H38.8965ZM31.4375 32V17.7227H30.4375V32H31.4375ZM30.9375 18.2227H32.5977V17.2227H30.9375V18.2227ZM32.0977 17.7227V30.4961H33.0977V17.7227H32.0977ZM32.5977 30.9961H38.8965V29.9961H32.5977V30.9961ZM38.3965 30.4961V32H39.3965V30.4961H38.3965ZM38.8965 31.5H30.9375V32.5H38.8965V31.5ZM48.8965 25.2227L49.206 25.6154L49.2063 25.6151L48.8965 25.2227ZM42.9883 26.3848V25.8848H42.4883V26.3848H42.9883ZM42.9883 32V32.5H43.4883V32H42.9883ZM41.3281 32H40.8281V32.5H41.3281V32ZM41.3281 17.7227V17.2227H40.8281V17.7227H41.3281ZM42.9883 24.959H42.4883V25.459H42.9883V24.959ZM42.9883 19.1582V18.6582H42.4883V19.1582H42.9883ZM49.8809 21.8828C49.8809 23.2004 49.4376 24.1584 48.5867 24.8302L49.2063 25.6151C50.3345 24.7244 50.8809 23.4559 50.8809 21.8828H49.8809ZM48.587 24.8299C47.725 25.5093 46.4422 25.8848 44.668 25.8848V26.8848C46.5656 26.8848 48.1019 26.4855 49.206 25.6154L48.587 24.8299ZM44.668 25.8848H42.9883V26.8848H44.668V25.8848ZM42.4883 26.3848V32H43.4883V26.3848H42.4883ZM42.9883 31.5H41.3281V32.5H42.9883V31.5ZM41.8281 32V17.7227H40.8281V32H41.8281ZM41.3281 18.2227H45.0293V17.2227H41.3281V18.2227ZM45.0293 18.2227C46.7622 18.2227 47.9699 18.5618 48.7361 19.1574C49.4784 19.7345 49.8809 20.6115 49.8809 21.8828H50.8809C50.8809 20.3807 50.3914 19.1776 49.3498 18.3679C48.3322 17.5769 46.8641 17.2227 45.0293 17.2227V18.2227ZM42.9883 25.459H44.4824V24.459H42.9883V25.459ZM44.4824 25.459C45.9843 25.459 47.1806 25.2209 47.9687 24.6513L47.3829 23.8409C46.8558 24.2218 45.9233 24.459 44.4824 24.459V25.459ZM47.9687 24.6513C48.7932 24.0554 49.1621 23.1179 49.1621 21.9609H48.1621C48.1621 22.9004 47.8735 23.4863 47.3829 23.8409L47.9687 24.6513ZM49.1621 21.9609C49.1621 20.8985 48.8069 20.0289 48.0337 19.4511L47.435 20.2521C47.8988 20.5987 48.1621 21.1354 48.1621 21.9609H49.1621ZM48.0337 19.4511C47.2869 18.8929 46.1925 18.6582 44.8438 18.6582V19.6582C46.1122 19.6582 46.9449 19.8857 47.435 20.2521L48.0337 19.4511ZM44.8438 18.6582H42.9883V19.6582H44.8438V18.6582ZM42.4883 19.1582V24.959H43.4883V19.1582H42.4883Z" fill="#1DA1F2"/>
</svg>
