<svg width="70" height="70" viewBox="0 0 70 70" fill="none" xmlns="http://www.w3.org/2000/svg">
<g clip-path="url(#clip0_1333_29324)">
<g clip-path="url(#clip1_1333_29324)">
<rect width="1489" height="4633" transform="translate(-649 -1466)" fill="white"/>
<g filter="url(#filter0_d_1333_29324)">
<rect x="-7.90234" y="-222.951" width="206.806" height="201.304" rx="3.37599" fill="white"/>
</g>
</g>
<path d="M68.9731 57.6576H67.2732V21.4636C67.2732 17.7639 64.2632 14.7538 60.5633 14.7538H52.9212C52.354 14.7538 51.8943 15.2135 51.8943 15.7807C51.8943 16.348 52.354 16.8077 52.9212 16.8077H60.5633C63.1307 16.8077 65.2194 18.8964 65.2194 21.4636V57.6576H42.2643C41.5636 57.6576 40.9098 58.0033 40.5157 58.5826L40.2078 59.0351C39.9216 59.4556 39.4472 59.7066 38.9385 59.7066H30.9244C30.4158 59.7066 29.9413 59.4556 29.6552 59.0351L29.3474 58.5827C28.9533 58.0036 28.2997 57.6576 27.5988 57.6576H4.78058V21.4636C4.78058 18.8964 6.8693 16.8077 9.43669 16.8077H16.0505C16.6178 16.8077 17.0774 16.348 17.0774 15.7807C17.0774 15.2135 16.6178 14.7538 16.0505 14.7538H9.43669C5.73696 14.7538 2.72677 17.7638 2.72677 21.4636V57.6576H1.0269C0.459642 57.6576 0 58.1172 0 58.6845V60.8225C0 64.6879 3.14479 67.8327 7.01019 67.8327H62.9898C66.8552 67.8327 70 64.6879 70 60.8225V58.6845C70 58.1172 69.5404 57.6576 68.9731 57.6576V57.6576ZM67.9462 60.8225C67.9462 63.5554 65.7227 65.7789 62.9898 65.7789H7.01019C4.27726 65.7789 2.05381 63.5554 2.05381 60.8225V59.7114H27.5988C27.619 59.7114 27.6379 59.7212 27.6494 59.7381L27.9574 60.1906C28.6264 61.1736 29.7354 61.7604 30.9244 61.7604H38.9385C40.1275 61.7604 41.2366 61.1736 41.9056 60.1906L42.2135 59.7381L42.2137 59.7379C42.225 59.7212 42.2439 59.7114 42.2642 59.7114H67.9461V60.8225H67.9462Z" fill="#1DA1F2"/>
<path d="M7.10742 54.3031C7.10742 54.8703 7.56706 55.33 8.13432 55.33H61.8641C62.4313 55.33 62.891 54.8703 62.891 54.3031V21.4637C62.891 20.1798 61.8464 19.1352 60.5625 19.1352H52.9204C52.3532 19.1352 51.8935 19.5948 51.8935 20.1621C51.8935 20.7294 52.3532 21.189 52.9204 21.189H60.5625C60.7139 21.189 60.8372 21.3121 60.8372 21.4637V53.2762H45.9408V49.0834C45.9408 46.8536 45.0724 44.7574 43.4958 43.1806L42.1588 41.8436C42.6331 41.108 43.0004 40.2916 43.2328 39.4113C43.3775 38.863 43.0503 38.3012 42.5019 38.1563C41.9533 38.012 41.3919 38.3388 41.2469 38.8872C41.0089 39.7887 40.5856 40.6031 40.0251 41.2951C40.021 41.3 40.0169 41.3048 40.013 41.3096C38.8135 42.782 36.9903 43.6949 34.9992 43.6949C31.436 43.6949 28.537 40.7959 28.537 37.2326C28.537 33.6694 31.436 30.7704 34.9992 30.7704C37.7488 30.7704 40.202 32.5155 41.1039 35.1128C41.2899 35.6485 41.8742 35.9322 42.4108 35.7461C42.9466 35.5602 43.23 34.975 43.0441 34.4392C41.8556 31.0163 38.6227 28.7166 34.9992 28.7166C30.3034 28.7166 26.4832 32.5368 26.4832 37.2326C26.4832 38.9296 26.984 40.5109 27.8429 41.8403L26.5026 43.1806C24.9258 44.7575 24.0576 46.8536 24.0576 49.0834V53.2762H9.16123V49.514C9.16123 48.9467 8.70159 48.4871 8.13432 48.4871C7.56706 48.4871 7.10742 48.9467 7.10742 49.514V54.3031ZM26.1114 49.0832C26.1114 47.4021 26.7662 45.8217 27.9551 44.6328L29.1626 43.4253C30.6881 44.864 32.7418 45.7485 34.9992 45.7485C37.2283 45.7485 39.2973 44.8795 40.839 43.4283L42.0435 44.6326C43.2324 45.8215 43.8871 47.402 43.8871 49.0831V53.2759H26.1114V49.0832Z" fill="#1DA1F2"/>
<path d="M8.13432 46.1608C8.70159 46.1608 9.16123 45.7012 9.16123 45.1339V21.4637C9.16123 21.3122 9.28432 21.189 9.43575 21.189H16.0497C16.617 21.189 17.0766 20.7294 17.0766 20.1621C17.0766 19.5948 16.617 19.1352 16.0497 19.1352H9.43575C8.15185 19.1352 7.10742 20.1798 7.10742 21.4637V45.1339C7.10742 45.701 7.56706 46.1608 8.13432 46.1608V46.1608Z" fill="#1DA1F2"/>
<path d="M23.595 26.5463H45.3759C47.8376 26.5463 49.8401 24.5437 49.8401 22.0821V6.63201C49.8401 4.17032 47.8375 2.16772 45.3759 2.16772H23.595C21.1333 2.16772 19.1309 4.17046 19.1309 6.63201V8.78262C19.1309 9.34988 19.5905 9.80953 20.1578 9.80953C20.725 9.80953 21.1847 9.34988 21.1847 8.78262V6.63201C21.1847 5.30279 22.2659 4.22153 23.595 4.22153H45.3759C46.705 4.22153 47.7863 5.30279 47.7863 6.63201V22.0821C47.7863 23.4112 46.705 24.4925 45.3759 24.4925H23.595C22.2659 24.4925 21.1847 23.4112 21.1847 22.0821V13.1626C21.1847 12.5953 20.725 12.1357 20.1578 12.1357C19.5905 12.1357 19.1309 12.5953 19.1309 13.1626V22.0821C19.1309 24.5437 21.1335 26.5463 23.595 26.5463Z" fill="#1DA1F2"/>
<path d="M39.959 7.72266V16.9609C39.959 18.5885 39.4674 19.8678 38.4844 20.7988C37.5013 21.7298 36.1504 22.1953 34.4316 22.1953C32.7129 22.1953 31.3815 21.7266 30.4375 20.7891C29.5 19.8516 29.0312 18.5625 29.0312 16.9219V7.72266H30.6914V17.0391C30.6914 18.2305 31.0169 19.1452 31.668 19.7832C32.319 20.4212 33.276 20.7402 34.5391 20.7402C35.7435 20.7402 36.6712 20.4212 37.3223 19.7832C37.9733 19.1387 38.2988 18.2174 38.2988 17.0195V7.72266H39.959Z" fill="#1DA1F2"/>
<path d="M39.959 7.72266H40.459V7.22266H39.959V7.72266ZM30.4375 20.7891L30.0839 21.1426L30.0852 21.1438L30.4375 20.7891ZM29.0312 7.72266V7.22266H28.5312V7.72266H29.0312ZM30.6914 7.72266H31.1914V7.22266H30.6914V7.72266ZM31.668 19.7832L32.0179 19.4261L31.668 19.7832ZM37.3223 19.7832L37.6722 20.1403L37.674 20.1385L37.3223 19.7832ZM38.2988 7.72266V7.22266H37.7988V7.72266H38.2988ZM39.459 7.72266V16.9609H40.459V7.72266H39.459ZM39.459 16.9609C39.459 18.4812 39.0041 19.618 38.1406 20.4358L38.8282 21.1619C39.9308 20.1177 40.459 18.6959 40.459 16.9609H39.459ZM38.1406 20.4358C37.2735 21.2569 36.0584 21.6953 34.4316 21.6953V22.6953C36.2424 22.6953 37.7291 22.2027 38.8282 21.1619L38.1406 20.4358ZM34.4316 21.6953C32.8047 21.6953 31.6151 21.2538 30.7898 20.4343L30.0852 21.1438C31.148 22.1993 32.6211 22.6953 34.4316 22.6953V21.6953ZM30.7911 20.4355C29.9685 19.613 29.5312 18.4633 29.5312 16.9219H28.5312C28.5312 18.6617 29.0315 20.0901 30.0839 21.1426L30.7911 20.4355ZM29.5312 16.9219V7.72266H28.5312V16.9219H29.5312ZM29.0312 8.22266H30.6914V7.22266H29.0312V8.22266ZM30.1914 7.72266V17.0391H31.1914V7.72266H30.1914ZM30.1914 17.0391C30.1914 18.3218 30.5441 19.3819 31.318 20.1403L32.0179 19.4261C31.4898 18.9085 31.1914 18.1392 31.1914 17.0391H30.1914ZM31.318 20.1403C32.0936 20.9004 33.1964 21.2402 34.5391 21.2402V20.2402C33.3557 20.2402 32.5444 19.942 32.0179 19.4261L31.318 20.1403ZM34.5391 21.2402C35.8309 21.2402 36.9007 20.8964 37.6722 20.1403L36.9723 19.4261C36.4417 19.9461 35.6561 20.2402 34.5391 20.2402V21.2402ZM37.674 20.1385C38.4465 19.3738 38.7988 18.3082 38.7988 17.0195H37.7988C37.7988 18.1267 37.5001 18.9036 36.9705 19.4279L37.674 20.1385ZM38.7988 17.0195V7.72266H37.7988V17.0195H38.7988ZM38.2988 8.22266H39.959V7.22266H38.2988V8.22266Z" fill="#1DA1F2"/>
</g>
<defs>
<filter id="filter0_d_1333_29324" x="-37.4422" y="-239.831" width="265.884" height="260.383" filterUnits="userSpaceOnUse" color-interpolation-filters="sRGB">
<feFlood flood-opacity="0" result="BackgroundImageFix"/>
<feColorMatrix in="SourceAlpha" type="matrix" values="0 0 0 0 0 0 0 0 0 0 0 0 0 0 0 0 0 0 127 0" result="hardAlpha"/>
<feOffset dy="12.6599"/>
<feGaussianBlur stdDeviation="14.7699"/>
<feColorMatrix type="matrix" values="0 0 0 0 0.196078 0 0 0 0 0.196078 0 0 0 0 0.364706 0 0 0 0.1 0"/>
<feBlend mode="normal" in2="BackgroundImageFix" result="effect1_dropShadow_1333_29324"/>
<feBlend mode="normal" in="SourceGraphic" in2="effect1_dropShadow_1333_29324" result="shape"/>
</filter>
<clipPath id="clip0_1333_29324">
<rect width="70" height="70" fill="white"/>
</clipPath>
<clipPath id="clip1_1333_29324">
<rect width="1489" height="4633" fill="white" transform="translate(-649 -1466)"/>
</clipPath>
</defs>
</svg>
