<svg width="75" height="75" viewBox="0 0 43 58" fill="none" xmlns="http://www.w3.org/2000/svg">
<path d="M0 7.50001V50.5C0 52.4007 0.755057 54.2236 2.09907 55.5676C3.44308 56.9116 5.26595 57.6667 7.16667 57.6667H41.2083C41.6835 57.6667 42.1392 57.4779 42.4752 57.1419C42.8112 56.8059 43 56.3502 43 55.875C43 55.3998 42.8112 54.9441 42.4752 54.6081C42.1392 54.2721 41.6835 54.0833 41.2083 54.0833H7.16667C6.21631 54.0833 5.30487 53.7058 4.63287 53.0338C3.96086 52.3618 3.58333 51.4504 3.58333 50.5H39.4167C40.367 50.5 41.2785 50.1225 41.9505 49.4505C42.6225 48.7785 43 47.867 43 46.9167V7.50001C43 5.59929 42.2449 3.77642 40.9009 2.43241C39.5569 1.0884 37.7341 0.333344 35.8333 0.333344H7.16667C5.26595 0.333344 3.44308 1.0884 2.09907 2.43241C0.755057 3.77642 0 5.59929 0 7.50001ZM35.8333 3.91668C36.7837 3.91668 37.6951 4.29421 38.3671 4.96621C39.0391 5.63822 39.4167 6.54965 39.4167 7.50001V46.9167H3.58333V7.50001C3.58333 6.54965 3.96086 5.63822 4.63287 4.96621C5.30487 4.29421 6.21631 3.91668 7.16667 3.91668H35.8333ZM27.1832 28.5664C28.4074 26.7144 28.9002 24.4738 28.5663 22.2791C28.2324 20.0843 27.0954 18.0917 25.3758 16.6876C23.6561 15.2835 21.4764 14.5679 19.2592 14.6796C17.042 14.7913 14.9452 15.7223 13.3754 17.2921C11.8056 18.8619 10.8746 20.9587 10.7629 23.1759C10.6512 25.3931 11.3668 27.5728 12.7709 29.2924C14.175 31.012 16.1676 32.149 18.3624 32.483C20.5571 32.8169 22.7977 32.324 24.6497 31.0998L29.1898 35.6435C29.3564 35.8101 29.5542 35.9422 29.7718 36.0324C29.9895 36.1225 30.2227 36.1689 30.4583 36.1689C30.6939 36.1689 30.9272 36.1225 31.1448 36.0324C31.3625 35.9422 31.5603 35.8101 31.7268 35.6435C31.8934 35.4769 32.0256 35.2792 32.1157 35.0615C32.2059 34.8439 32.2523 34.6106 32.2523 34.375C32.2523 34.1394 32.2059 33.9062 32.1157 33.6885C32.0256 33.4709 31.8934 33.2731 31.7268 33.1065L27.1832 28.57V28.5664ZM14.3333 23.625C14.3333 22.1995 14.8996 20.8323 15.9076 19.8243C16.9156 18.8163 18.2828 18.25 19.7083 18.25C21.1339 18.25 22.501 18.8163 23.509 19.8243C24.517 20.8323 25.0833 22.1995 25.0833 23.625C25.0833 25.0506 24.517 26.4177 23.509 27.4257C22.501 28.4337 21.1339 29 19.7083 29C18.2828 29 16.9156 28.4337 15.9076 27.4257C14.8996 26.4177 14.3333 25.0506 14.3333 23.625Z" fill="#1DA1F2"/>
</svg>
