<svg width="75" height="75" viewBox="0 0 53 73" fill="none" xmlns="http://www.w3.org/2000/svg">
<path d="M19.1641 42H16.7422V32.5938H13.6406V30.5781H22.2656V32.5938H19.1641V42ZM28.8594 42L26.1094 33.0391H26.0391C26.138 34.862 26.1875 36.0781 26.1875 36.6875V42H24.0234V30.5781H27.3203L30.0234 39.3125H30.0703L32.9375 30.5781H36.2344V42H33.9766V36.5938C33.9766 36.3385 33.9792 36.0443 33.9844 35.7109C33.9948 35.3776 34.0312 34.4922 34.0938 33.0547H34.0234L31.0781 42H28.8594Z" fill="#55B8F5"/>
<path d="M1.70703 18.7916C1.70703 16.913 2.45331 15.1114 3.78169 13.783C5.11007 12.4546 6.91175 11.7083 8.79037 11.7083H44.207C46.0857 11.7083 47.8873 12.4546 49.2157 13.783C50.5441 15.1114 51.2904 16.913 51.2904 18.7916V54.2083C51.2904 56.0869 50.5441 57.8886 49.2157 59.217C47.8873 60.5454 46.0857 61.2917 44.207 61.2917H8.79037C6.91175 61.2917 5.11007 60.5454 3.78169 59.217C2.45331 57.8886 1.70703 56.0869 1.70703 54.2083V18.7916Z" stroke="#2BA6F3" stroke-width="2" stroke-linecap="round" stroke-linejoin="round"/>
<path d="M15.875 71.9166H37.125" stroke="#2BA6F3" stroke-width="2" stroke-linecap="round" stroke-linejoin="round"/>
<path d="M15.875 1.08331H37.125" stroke="#2BA6F3" stroke-width="2" stroke-linecap="round" stroke-linejoin="round"/>
</svg>
