<svg width="81" height="84" viewBox="0 0 81 84" fill="none" xmlns="http://www.w3.org/2000/svg">
<path d="M72.3945 51.8437C69.8633 48.9562 67.0789 45.675 67.0789 39.375V28.6125C67.0789 14.0437 54.6758 1.3125 40.5008 1.3125C26.3258 1.3125 13.9227 14.175 13.9227 28.875V39.375C13.9227 45.675 11.1383 48.9562 8.60703 51.8437C6.58203 54.2062 4.68359 56.4375 4.68359 59.85C4.68359 67.0687 19.1117 71.925 40.5008 71.925C61.8898 71.925 76.318 67.0687 76.318 59.85C76.318 56.5687 74.4195 54.2062 72.3945 51.8437Z" fill="white"/>
<path d="M40.5042 74.5499C36.5808 74.5499 32.7839 74.4187 29.3667 74.0249C30.7589 79.0124 35.1886 82.5562 40.5042 82.5562C45.8198 82.5562 50.2495 78.8812 51.6417 74.0249C48.2245 74.4187 44.4276 74.5499 40.5042 74.5499Z" fill="white"/>
</svg>
