<svg width="96" height="90" viewBox="0 0 96 90" fill="none" xmlns="http://www.w3.org/2000/svg">
<path d="M16.5 73.125H31.5C31.8978 73.125 32.2794 72.9768 32.5607 72.7131C32.842 72.4494 33 72.0917 33 71.7187V60.4687C33 60.0958 32.842 59.7381 32.5607 59.4744C32.2794 59.2107 31.8978 59.0625 31.5 59.0625H16.5C16.1022 59.0625 15.7206 59.2107 15.4393 59.4744C15.158 59.7381 15 60.0958 15 60.4687V71.7187C15 72.0917 15.158 72.4494 15.4393 72.7131C15.7206 72.9768 16.1022 73.125 16.5 73.125Z" fill="white"/>
<path d="M16.5 53.4375H31.5C31.8978 53.4375 32.2794 53.2893 32.5607 53.0256C32.842 52.7619 33 52.4042 33 52.0312V40.7812C33 40.4083 32.842 40.0506 32.5607 39.7869C32.2794 39.5232 31.8978 39.375 31.5 39.375H16.5C16.1022 39.375 15.7206 39.5232 15.4393 39.7869C15.158 40.0506 15 40.4083 15 40.7812V52.0312C15 52.4042 15.158 52.7619 15.4393 53.0256C15.7206 53.2893 16.1022 53.4375 16.5 53.4375Z" fill="white"/>
<path d="M40.5 73.125H55.5C55.8978 73.125 56.2794 72.9768 56.5607 72.7131C56.842 72.4494 57 72.0917 57 71.7187V60.4687C57 60.0958 56.842 59.7381 56.5607 59.4744C56.2794 59.2107 55.8978 59.0625 55.5 59.0625H40.5C40.1022 59.0625 39.7206 59.2107 39.4393 59.4744C39.158 59.7381 39 60.0958 39 60.4687V71.7187C39 72.0917 39.158 72.4494 39.4393 72.7131C39.7206 72.9768 40.1022 73.125 40.5 73.125Z" fill="white"/>
<path d="M40.5 53.4375H55.5C55.8978 53.4375 56.2794 53.2893 56.5607 53.0256C56.842 52.7619 57 52.4042 57 52.0312V40.7812C57 40.4083 56.842 40.0506 56.5607 39.7869C56.2794 39.5232 55.8978 39.375 55.5 39.375H40.5C40.1022 39.375 39.7206 39.5232 39.4393 39.7869C39.158 40.0506 39 40.4083 39 40.7812V52.0312C39 52.4042 39.158 52.7619 39.4393 53.0256C39.7206 53.2893 40.1022 53.4375 40.5 53.4375Z" fill="white"/>
<path d="M64.502 53.4375H79.502C79.8998 53.4375 80.2813 53.2893 80.5626 53.0256C80.8439 52.7619 81.002 52.4042 81.002 52.0312V40.7812C81.002 40.4083 80.8439 40.0506 80.5626 39.7869C80.2813 39.5232 79.8998 39.375 79.502 39.375H64.502C64.1041 39.375 63.7226 39.5232 63.4413 39.7869C63.16 40.0506 63.002 40.4083 63.002 40.7812V52.0312C63.002 52.4042 63.16 52.7619 63.4413 53.0256C63.7226 53.2893 64.1041 53.4375 64.502 53.4375Z" fill="white"/>
<path d="M24.002 21.0937C23.6041 21.0937 23.2226 20.9456 22.9413 20.6819C22.66 20.4181 22.502 20.0605 22.502 19.6875V2.8125C22.502 2.43954 22.66 2.08185 22.9413 1.81813C23.2226 1.55441 23.6041 1.40625 24.002 1.40625C24.3998 1.40625 24.7813 1.55441 25.0626 1.81813C25.3439 2.08185 25.502 2.43954 25.502 2.8125V19.6875C25.502 20.0605 25.3439 20.4181 25.0626 20.6819C24.7813 20.9456 24.3998 21.0937 24.002 21.0937Z" fill="white"/>
<path d="M88.502 9.84375H76.502V19.6875C76.502 20.8064 76.0278 21.8794 75.1839 22.6706C74.34 23.4618 73.1954 23.9062 72.002 23.9062C70.8085 23.9062 69.6639 23.4618 68.82 22.6706C67.9761 21.8794 67.502 20.8064 67.502 19.6875V9.84375H28.502V19.6875C28.502 20.8064 28.0278 21.8794 27.1839 22.6706C26.34 23.4618 25.1954 23.9062 24.002 23.9062C22.8085 23.9062 21.6639 23.4618 20.82 22.6706C19.9761 21.8794 19.502 20.8064 19.502 19.6875V9.84375H7.50195C6.30848 9.84375 5.16389 10.2882 4.31997 11.0794C3.47606 11.8706 3.00195 12.9436 3.00195 14.0625V78.75C3.00195 79.8689 3.47606 80.9419 4.31997 81.7331C5.16389 82.5243 6.30848 82.9687 7.50195 82.9687H88.502C89.6954 82.9687 90.84 82.5243 91.6839 81.7331C92.5278 80.9419 93.002 79.8689 93.002 78.75V14.0625C93.002 12.9436 92.5278 11.8706 91.6839 11.0794C90.84 10.2882 89.6954 9.84375 88.502 9.84375ZM90.002 78.75C90.002 79.123 89.8439 79.4806 89.5626 79.7444C89.2813 80.0081 88.8998 80.1562 88.502 80.1562H7.50195C7.10413 80.1562 6.7226 80.0081 6.44129 79.7444C6.15999 79.4806 6.00195 79.123 6.00195 78.75V32.3437H90.002V78.75Z" fill="white"/>
<path d="M72.0039 21.0937C71.6061 21.0937 71.2245 20.9456 70.9432 20.6819C70.6619 20.4181 70.5039 20.0605 70.5039 19.6875V2.8125C70.5039 2.43954 70.6619 2.08185 70.9432 1.81813C71.2245 1.55441 71.6061 1.40625 72.0039 1.40625C72.4017 1.40625 72.7833 1.55441 73.0646 1.81813C73.3459 2.08185 73.5039 2.43954 73.5039 2.8125V19.6875C73.5039 20.0605 73.3459 20.4181 73.0646 20.6819C72.7833 20.9456 72.4017 21.0937 72.0039 21.0937Z" fill="white"/>
</svg>
