<svg width="125" height="125" viewBox="0 0 125 125" fill="none" xmlns="http://www.w3.org/2000/svg">
<path d="M99.4438 119.141H89.8437L85.9375 115.234L85.9956 9.76562L116.751 15.2026C117.387 15.3149 117.952 15.674 118.323 16.2014C118.694 16.7288 118.842 17.3818 118.733 18.0176L101.851 117.109C101.754 117.678 101.459 118.193 101.019 118.565C100.578 118.937 100.02 119.141 99.4438 119.141Z" fill="#FDBF44"/>
<path d="M85.9956 9.76562L85.9375 115.234L89.8438 119.141H93.75V11.1365L85.9956 9.76562Z" fill="#E6AD3E"/>
<path d="M87.4023 5.85938H8.30078C6.95243 5.85938 5.85938 6.95243 5.85938 8.30078V116.699C5.85938 118.048 6.95243 119.141 8.30078 119.141H87.4023C88.7507 119.141 89.8438 118.048 89.8438 116.699V8.30078C89.8438 6.95243 88.7507 5.85938 87.4023 5.85938Z" fill="#25B1FA"/>
<path d="M30.2734 62.5H20.5078C17.8111 62.5 15.625 64.6861 15.625 67.3828V77.1484C15.625 79.8451 17.8111 82.0312 20.5078 82.0312H30.2734C32.9701 82.0312 35.1562 79.8451 35.1562 77.1484V67.3828C35.1562 64.6861 32.9701 62.5 30.2734 62.5Z" fill="#FCFEFF"/>
<path d="M30.2734 91.7969H20.5078C17.8111 91.7969 15.625 93.983 15.625 96.6797V106.445C15.625 109.142 17.8111 111.328 20.5078 111.328H30.2734C32.9701 111.328 35.1562 109.142 35.1562 106.445V96.6797C35.1562 93.983 32.9701 91.7969 30.2734 91.7969Z" fill="#FCFEFF"/>
<path d="M27.3437 78.125C27.0873 78.125 26.8333 78.0745 26.5963 77.9764C26.3593 77.8782 26.144 77.7343 25.9626 77.553L20.1033 71.6936L22.8655 68.9314L27.2334 73.2993L37.5796 61.2288L40.5454 63.7712L28.8267 77.4431C28.6515 77.6474 28.436 77.8133 28.1937 77.9304C27.9515 78.0475 27.6876 78.1132 27.4187 78.1235C27.3938 78.125 27.3682 78.125 27.3437 78.125Z" fill="#80DAFF"/>
<path d="M27.3437 107.422C27.0873 107.422 26.8333 107.371 26.5963 107.273C26.3593 107.175 26.144 107.031 25.9626 106.85L20.1033 100.99L22.8655 98.2283L27.2334 102.596L37.5796 90.5256L40.5454 93.0681L28.8267 106.74C28.6515 106.944 28.436 107.11 28.1937 107.227C27.9515 107.344 27.6876 107.41 27.4187 107.42C27.3938 107.422 27.3682 107.422 27.3437 107.422Z" fill="#80DAFF"/>
<path d="M44.9219 89.8438H74.2188V93.75H44.9219V89.8438Z" fill="#FCFEFF"/>
<path d="M44.9219 99.6094H54.6875V103.516H44.9219V99.6094Z" fill="#FCFEFF"/>
<path d="M58.5938 99.6094H74.2188V103.516H58.5938V99.6094Z" fill="#FCFEFF"/>
<path d="M44.9219 60.5469H74.2188V64.4531H44.9219V60.5469Z" fill="#FCFEFF"/>
<path d="M44.9219 70.3125H54.6875V74.2188H44.9219V70.3125Z" fill="#FCFEFF"/>
<path d="M58.5938 70.3125H74.2188V74.2188H58.5938V70.3125Z" fill="#FCFEFF"/>
<path d="M48.8037 13.6719L31.25 21.4993L32.7131 30.7888C34.1068 38.3493 38.3476 45.0871 44.5615 49.6138L48.8196 52.7498L52.8762 49.8008C59.1728 45.2763 63.4742 38.4907 64.8792 30.8655L66.3574 21.4993L48.8037 13.6719ZM48.2092 38.5051C47.843 38.8714 47.3462 39.0771 46.8282 39.0771C46.3103 39.0771 45.8135 38.8714 45.4473 38.5051L39.5879 32.6458L42.3501 29.8828L46.8286 34.3611L57.1663 24.0234L59.9282 26.7854L48.2092 38.5051Z" fill="#FCFEFF"/>
<path d="M13.6719 11.7188H25.3906V15.625H13.6719V11.7188Z" fill="#FCFEFF"/>
<path d="M13.6719 19.5312H21.4844V23.4375H13.6719V19.5312Z" fill="#FCFEFF"/>
<path d="M72.2656 11.7188H76.1719V15.625H72.2656V11.7188Z" fill="#FCFEFF"/>
<path d="M80.0781 11.7188H83.9844V15.625H80.0781V11.7188Z" fill="#FCFEFF"/>
</svg>
