<svg width="125" height="125" viewBox="0 0 125 125" fill="none" xmlns="http://www.w3.org/2000/svg">
<g clip-path="url(#clip0)">
<path d="M91.21 91.4553L86.2869 86.0325C93.6675 79.332 97.9004 69.7759 97.9004 59.8145V57.373H105.225V59.8145C105.225 71.8369 100.116 83.3694 91.21 91.4553Z" fill="#063E8B"/>
<path d="M105.225 45.166H97.9004V42.7246C97.9004 23.2048 82.0198 7.32422 62.5 7.32422C42.9802 7.32422 27.0996 23.2048 27.0996 42.7246V45.166H19.7754V42.7246C19.7754 19.1663 38.9417 0 62.5 0C86.0583 0 105.225 19.1663 105.225 42.7246V45.166Z" fill="#0A4EAF"/>
<path d="M62.5 0V7.32422C82.0198 7.32422 97.9004 23.2048 97.9004 42.7246V45.166H105.225V42.7246C105.225 19.1663 86.0583 0 62.5 0Z" fill="#063E8B"/>
<path d="M41.748 68.3594H30.7617C24.7039 68.3594 19.7754 63.4309 19.7754 57.373V45.166C19.7754 39.1082 24.7039 34.1797 30.7617 34.1797H41.748V68.3594Z" fill="#0C61C6"/>
<path d="M94.2383 68.3594H83.252V34.1797H94.2383C100.296 34.1797 105.225 39.1082 105.225 45.166V57.373C105.225 63.4309 100.296 68.3594 94.2383 68.3594Z" fill="#0A4EAF"/>
<path d="M62.5 84.2285C49.0164 84.2285 38.0859 73.2981 38.0859 59.8145V42.7246C38.0859 29.2412 49.0164 18.3105 62.5 18.3105C75.9834 18.3105 86.9141 29.241 86.9141 42.7246V59.8145C86.9141 73.2981 75.9836 84.2285 62.5 84.2285Z" fill="#F9C0C0"/>
<path d="M86.9141 97.9004C90.9591 97.9004 94.2383 94.6212 94.2383 90.5762C94.2383 86.5311 90.9591 83.252 86.9141 83.252C82.869 83.252 79.5898 86.5311 79.5898 90.5762C79.5898 94.6212 82.869 97.9004 86.9141 97.9004Z" fill="#0A4EAF"/>
<path d="M62.5 101.781L66.2722 109.424L74.707 110.65L68.6035 116.599L70.0444 125L62.5 121.034L54.9556 125L56.3965 116.599L50.293 110.65L58.7278 109.424L62.5 101.781Z" fill="#FFDC40"/>
<path d="M25.8789 101.781L29.6511 109.424L38.0859 110.65L31.9824 116.599L33.4233 125L25.8789 121.034L18.3345 125L19.7754 116.599L13.6719 110.65L22.1067 109.424L25.8789 101.781Z" fill="#FFDC40"/>
<path d="M99.1211 101.781L102.893 109.424L111.328 110.65L105.225 116.599L106.666 125L99.1211 121.034L91.5767 125L93.0176 116.599L86.9141 110.65L95.3489 109.424L99.1211 101.781Z" fill="#FFAB15"/>
<path d="M62.5 18.3105V84.2285C75.9834 84.2285 86.9141 73.2981 86.9141 59.8145V42.7246C86.9141 29.241 75.9836 18.3105 62.5 18.3105Z" fill="#FCACAB"/>
<path d="M74.707 110.65L66.2722 109.424L62.5 101.781V121.034L70.0444 125L68.6035 116.599L74.707 110.65Z" fill="#FFAB15"/>
</g>
<defs>
<clipPath id="clip0">
<rect width="125" height="125" fill="white"/>
</clipPath>
</defs>
</svg>
