<svg width="200" height="200" viewBox="0 0 200 200" fill="none" xmlns="http://www.w3.org/2000/svg">
<path fill-rule="evenodd" clip-rule="evenodd" d="M27.0327 176.862V200L49.4287 176.862H96.1507C100.225 176.858 104.142 175.233 107.086 172.324C110.031 169.415 111.779 165.447 111.965 161.243H56.2273C46.4144 161.235 37.0055 157.205 30.0669 150.037C23.1283 142.869 19.2274 133.15 19.2207 123.013V91.5039H15.8333C11.6353 91.5072 7.61006 93.2312 4.64146 96.2974C1.67286 99.3636 0.00353133 103.521 0 107.858V160.506C0.00317755 164.843 1.67207 169.001 4.64028 172.067C7.60848 175.133 11.6334 176.858 15.8313 176.862H27.0327ZM159.585 147.47H176.326C182.603 147.464 188.622 144.886 193.061 140.3C197.499 135.715 199.995 129.498 200 123.013V24.4543C199.994 17.9702 197.498 11.7533 193.059 7.16847C188.621 2.58362 182.602 0.0054703 176.325 0H56.2273C49.9505 0.00601726 43.9323 2.5844 39.494 7.1692C35.0556 11.754 32.5596 17.9706 32.554 24.4543V123.013C32.5593 129.497 35.0551 135.714 39.4935 140.3C43.9318 144.885 49.9502 147.464 56.2273 147.47H126.094L159.585 182.06V147.47ZM159.032 36.9973C159.032 35.1709 158.33 33.4193 157.079 32.1278C155.829 30.8364 154.133 30.1108 152.365 30.1108H80.1887C78.4206 30.1108 76.7249 30.8364 75.4746 32.1278C74.2244 33.4193 73.522 35.1709 73.522 36.9973C73.522 38.8236 74.2244 40.5752 75.4746 41.8667C76.7249 43.1581 78.4206 43.8837 80.1887 43.8837H152.365C154.133 43.8837 155.828 43.1581 157.079 41.8667C158.329 40.5752 159.031 38.8236 159.031 36.9973H159.032ZM159.032 73.7349C159.032 71.9085 158.33 70.1569 157.079 68.8655C155.829 67.574 154.133 66.8485 152.365 66.8485H80.1887C78.4206 66.8485 76.7249 67.574 75.4746 68.8655C74.2244 70.1569 73.522 71.9085 73.522 73.7349C73.522 75.5613 74.2244 77.3129 75.4746 78.6043C76.7249 79.8958 78.4206 80.6213 80.1887 80.6213H152.365C154.133 80.6213 155.828 79.8958 157.079 78.6043C158.329 77.3129 159.031 75.5613 159.031 73.7349H159.032ZM159.032 110.47C159.032 108.644 158.33 106.892 157.079 105.601C155.829 104.31 154.133 103.584 152.365 103.584H80.1887C78.4206 103.584 76.7249 104.31 75.4746 105.601C74.2244 106.892 73.522 108.644 73.522 110.47C73.522 112.297 74.2244 114.048 75.4746 115.34C76.7249 116.631 78.4206 117.357 80.1887 117.357H152.365C153.24 117.357 154.107 117.179 154.916 116.833C155.725 116.487 156.46 115.98 157.079 115.34C157.698 114.701 158.189 113.941 158.524 113.106C158.86 112.27 159.032 111.375 159.032 110.47Z" fill="url(#paint0_linear_961_16033)"/>
<defs>
<linearGradient id="paint0_linear_961_16033" x1="24.1722" y1="-5.39102" x2="157.146" y2="174.388" gradientUnits="userSpaceOnUse">
<stop stop-color="#06ECFE"/>
<stop offset="1" stop-color="#0074D1"/>
</linearGradient>
</defs>
</svg>
