<svg width="200" height="200" viewBox="0 0 200 200" fill="none" xmlns="http://www.w3.org/2000/svg">
<path fill-rule="evenodd" clip-rule="evenodd" d="M14.1333 7.65948V155.55H34.914C36.7189 144.269 40.4494 133.583 45.8608 124.193C51.2721 114.803 58.2422 106.92 66.314 101.062C67.5788 100.147 69.0429 99.7313 70.5071 99.8723C71.9714 100.013 73.3646 100.703 74.4973 101.849C81.679 109.109 90.6987 113.079 100.009 113.079C109.319 113.079 118.338 109.109 125.52 101.849C126.653 100.703 128.046 100.013 129.51 99.8723C130.974 99.7313 132.439 100.147 133.703 101.062C141.773 106.921 148.741 114.804 154.15 124.194C159.559 133.585 163.287 144.27 165.09 155.55H185.877V7.65866C185.875 5.62825 185.215 3.68176 184.044 2.24604C182.872 0.810326 181.284 0.00259394 179.627 0H20.38C18.723 0.00259347 17.1344 0.810299 15.9627 2.24599C14.7909 3.68168 14.1316 5.62818 14.1293 7.65866L14.1333 7.65948ZM200 179.793V173.057H0V179.793C0.00476482 185.15 1.74379 190.287 4.83551 194.075C7.92722 197.864 12.1191 199.994 16.4913 200H183.51C187.882 199.994 192.073 197.862 195.165 194.074C198.256 190.286 199.995 185.15 200 179.793ZM100 99.8721C105.797 99.8729 111.464 97.7672 116.284 93.8212C121.105 89.8752 124.862 84.2661 127.08 77.7035C129.299 71.1408 129.88 63.9193 128.749 56.9522C127.618 49.9851 124.827 43.5854 120.728 38.5624C116.629 33.5395 111.406 30.1189 105.72 28.7332C100.035 27.3476 94.1414 28.0592 88.7859 30.778C83.4303 33.4967 78.8529 38.1006 75.6327 44.0073C72.4125 49.914 70.694 56.8583 70.6947 63.9618C70.7042 73.4823 73.7948 82.6094 79.2885 89.3414C84.7823 96.0733 92.2307 99.8605 100 99.8721Z" fill="url(#paint0_linear_961_16036)"/>
<defs>
<linearGradient id="paint0_linear_961_16036" x1="16.1369" y1="-11.0854" x2="212.524" y2="159.228" gradientUnits="userSpaceOnUse">
<stop stop-color="#06ECFE"/>
<stop offset="1" stop-color="#0074D1"/>
</linearGradient>
</defs>
</svg>
