<svg width="1130" height="474" viewBox="0 0 1130 474" fill="none" xmlns="http://www.w3.org/2000/svg">
<path d="M190.854 30.2828V70.0105H183V10.2723H194.014L203.497 53.8482L213.386 10.2723H224.424V70.0105H216.57V30.2828L208.19 70.0105H199.331L190.854 30.2828ZM232.015 70.0105V26.1048H241.042V70.0105H232.015ZM231.536 8.65963C231.536 7.58458 231.664 6.58288 231.919 5.65451C232.175 4.72598 232.526 3.91974 232.972 3.23562C233.435 2.52711 233.962 1.97731 234.553 1.58639C235.16 1.19546 235.814 1 236.516 1C237.203 1 237.85 1.19546 238.456 1.58639C239.062 1.97731 239.598 2.51475 240.061 3.19887C240.523 3.88299 240.89 4.70159 241.162 5.65451C241.433 6.58288 241.569 7.58458 241.569 8.65963C241.569 9.75922 241.433 10.7731 241.162 11.7015C240.89 12.63 240.515 13.4363 240.036 14.1204C239.573 14.8045 239.039 15.3421 238.432 15.733C237.825 16.0994 237.187 16.2827 236.516 16.2827C235.798 16.2827 235.128 16.0872 234.505 15.6963C233.898 15.3054 233.372 14.7679 232.924 14.0838C232.493 13.3997 232.15 12.5933 231.895 11.6649C231.656 10.7365 231.536 9.73467 231.536 8.65963ZM252.967 50.22C252.136 49.7068 251.347 49.1448 250.596 48.534C249.846 47.9232 249.183 47.1414 248.609 46.1885C248.033 45.2355 247.571 44.0628 247.219 42.6701C246.884 41.2531 246.717 39.4817 246.717 37.356C246.717 35.4502 246.98 33.7156 247.507 32.1519C248.05 30.5882 248.824 29.2565 249.829 28.1571C250.836 27.0575 252.065 26.2147 253.518 25.6283C254.969 25.0175 256.622 24.712 258.474 24.712C259.367 24.712 260.253 24.7975 261.132 24.9686C262.009 25.1396 262.847 25.3595 263.646 25.6283C264.46 25.8725 265.202 26.1535 265.872 26.4711C266.559 26.7645 267.149 27.0331 267.645 27.2775C268.139 27.5218 268.522 27.7294 268.794 27.9005C269.065 28.0472 269.193 28.1082 269.177 28.0838L267.549 36.843V36.8796C267.501 36.8796 267.325 36.8063 267.022 36.6597C266.735 36.5131 266.351 36.3298 265.872 36.1099C265.394 35.8901 264.851 35.6579 264.245 35.4136C263.638 35.1448 263.015 34.9006 262.376 34.6806C261.738 34.4607 261.099 34.2774 260.461 34.1309C259.822 33.9842 259.232 33.9111 258.689 33.9111C257.939 33.9111 257.316 33.9966 256.822 34.1675C256.342 34.3142 255.959 34.5462 255.672 34.8638C255.385 35.157 255.185 35.5479 255.074 36.0366C254.962 36.5009 254.906 37.0507 254.906 37.6858C254.906 38.1013 254.938 38.4555 255.002 38.7487C255.065 39.0419 255.17 39.3107 255.313 39.5549C255.473 39.7749 255.68 39.9826 255.936 40.1781C256.207 40.3735 256.543 40.5934 256.941 40.8378L261.993 43.8063C263.255 44.5392 264.356 45.3456 265.298 46.2252C266.255 47.1048 267.054 48.0699 267.693 49.1204C268.347 50.171 268.834 51.3316 269.153 52.6021C269.488 53.8482 269.655 55.2409 269.655 56.7802C269.655 59.541 269.305 61.8377 268.602 63.6702C267.916 65.4783 267.014 66.9319 265.897 68.0315C264.779 69.1065 263.518 69.8638 262.114 70.3037C260.709 70.768 259.288 71 257.851 71C256.845 71 255.871 70.9023 254.93 70.7068C253.989 70.5113 253.102 70.2671 252.272 69.9739C251.442 69.6807 250.684 69.363 249.997 69.021C249.31 68.6789 248.72 68.3735 248.225 68.1047C247.746 67.8116 247.371 67.5794 247.1 67.4083C246.844 67.2129 246.733 67.1273 246.765 67.1519L248.393 58.2094C248.425 58.2094 248.584 58.2949 248.872 58.466C249.176 58.6125 249.566 58.8203 250.045 59.089C250.524 59.3578 251.075 59.6388 251.697 59.932C252.32 60.2252 252.967 60.5062 253.637 60.775C254.324 61.0436 255.002 61.2635 255.672 61.4345C256.359 61.6056 256.997 61.6911 257.588 61.6911C258.37 61.6911 259.001 61.6056 259.479 61.4345C259.958 61.2635 260.326 60.9948 260.581 60.6283C260.837 60.2374 261.004 59.7487 261.084 59.1623C261.18 58.5759 261.227 57.8796 261.227 57.0734C261.227 56.5602 261.028 56.0349 260.629 55.4975C260.23 54.9355 259.608 54.3857 258.761 53.8482L252.967 50.22ZM279.832 50.22C279.002 49.7068 278.212 49.1448 277.462 48.534C276.712 47.9232 276.049 47.1414 275.475 46.1885C274.899 45.2355 274.437 44.0628 274.085 42.6701C273.75 41.2531 273.583 39.4817 273.583 37.356C273.583 35.4502 273.846 33.7156 274.373 32.1519C274.916 30.5882 275.69 29.2565 276.696 28.1571C277.701 27.0575 278.931 26.2147 280.383 25.6283C281.835 25.0175 283.487 24.712 285.34 24.712C286.234 24.712 287.119 24.7975 287.998 24.9686C288.875 25.1396 289.713 25.3595 290.512 25.6283C291.325 25.8725 292.068 26.1535 292.738 26.4711C293.425 26.7645 294.015 27.0331 294.511 27.2775C295.005 27.5218 295.388 27.7294 295.66 27.9005C295.931 28.0472 296.059 28.1082 296.043 28.0838L294.415 36.843V36.8796C294.367 36.8796 294.191 36.8063 293.888 36.6597C293.601 36.5131 293.217 36.3298 292.738 36.1099C292.259 35.8901 291.717 35.6579 291.11 35.4136C290.504 35.1448 289.881 34.9006 289.242 34.6806C288.604 34.4607 287.965 34.2774 287.327 34.1309C286.688 33.9842 286.098 33.9111 285.555 33.9111C284.805 33.9111 284.182 33.9966 283.688 34.1675C283.208 34.3142 282.825 34.5462 282.538 34.8638C282.251 35.157 282.051 35.5479 281.94 36.0366C281.828 36.5009 281.772 37.0507 281.772 37.6858C281.772 38.1013 281.804 38.4555 281.868 38.7487C281.931 39.0419 282.036 39.3107 282.179 39.5549C282.339 39.7749 282.546 39.9826 282.802 40.1781C283.073 40.3735 283.408 40.5934 283.807 40.8378L288.859 43.8063C290.121 44.5392 291.222 45.3456 292.164 46.2252C293.121 47.1048 293.919 48.0699 294.558 49.1204C295.213 50.171 295.7 51.3316 296.019 52.6021C296.354 53.8482 296.521 55.2409 296.521 56.7802C296.521 59.541 296.171 61.8377 295.468 63.6702C294.782 65.4783 293.879 66.9319 292.763 68.0315C291.645 69.1065 290.383 69.8638 288.98 70.3037C287.574 70.768 286.154 71 284.717 71C283.711 71 282.737 70.9023 281.796 70.7068C280.854 70.5113 279.968 70.2671 279.138 69.9739C278.308 69.6807 277.55 69.363 276.863 69.021C276.177 68.6789 275.586 68.3735 275.092 68.1047C274.612 67.8116 274.237 67.5794 273.966 67.4083C273.71 67.2129 273.599 67.1273 273.631 67.1519L275.259 58.2094C275.291 58.2094 275.45 58.2949 275.738 58.466C276.041 58.6125 276.432 58.8203 276.911 59.089C277.39 59.3578 277.941 59.6388 278.563 59.932C279.186 60.2252 279.832 60.5062 280.503 60.775C281.189 61.0436 281.868 61.2635 282.538 61.4345C283.225 61.6056 283.863 61.6911 284.454 61.6911C285.235 61.6911 285.867 61.6056 286.345 61.4345C286.824 61.2635 287.192 60.9948 287.447 60.6283C287.703 60.2374 287.87 59.7487 287.95 59.1623C288.045 58.5759 288.093 57.8796 288.093 57.0734C288.093 56.5602 287.894 56.0349 287.494 55.4975C287.096 54.9355 286.473 54.3857 285.627 53.8482L279.832 50.22ZM302.364 70.0105V26.1048H311.391V70.0105H302.364ZM301.885 8.65963C301.885 7.58458 302.013 6.58288 302.268 5.65451C302.524 4.72598 302.875 3.91974 303.322 3.23562C303.785 2.52711 304.311 1.97731 304.902 1.58639C305.509 1.19546 306.164 1 306.866 1C307.552 1 308.199 1.19546 308.806 1.58639C309.412 1.97731 309.947 2.51475 310.41 3.19887C310.872 3.88299 311.24 4.70159 311.511 5.65451C311.783 6.58288 311.919 7.58458 311.919 8.65963C311.919 9.75922 311.783 10.7731 311.511 11.7015C311.24 12.63 310.864 13.4363 310.386 14.1204C309.923 14.8045 309.388 15.3421 308.781 15.733C308.175 16.0994 307.537 16.2827 306.866 16.2827C306.147 16.2827 305.477 16.0872 304.855 15.6963C304.248 15.3054 303.721 14.7679 303.274 14.0838C302.843 13.3997 302.5 12.5933 302.245 11.6649C302.006 10.7365 301.885 9.73467 301.885 8.65963ZM330.93 61.6178C331.776 61.6178 332.519 61.3736 333.157 60.8849C333.796 60.3717 334.33 59.5654 334.761 58.466C335.193 57.3666 335.519 55.9494 335.743 54.2146C335.967 52.4554 336.078 50.3299 336.078 47.8377C336.078 45.37 335.967 43.2565 335.743 41.4973C335.519 39.7138 335.193 38.26 334.761 37.1362C334.33 36.0122 333.796 35.1938 333.157 34.6806C332.519 34.1431 331.776 33.8743 330.93 33.8743C330.084 33.8743 329.342 34.1431 328.703 34.6806C328.065 35.1938 327.53 36.0122 327.099 37.1362C326.684 38.26 326.365 39.7016 326.141 41.4608C325.933 43.2199 325.83 45.3456 325.83 47.8377C325.83 48.8639 325.846 49.9144 325.878 50.9895C325.91 52.0645 325.981 53.1152 326.094 54.1414C326.221 55.1431 326.396 56.0961 326.62 57C326.844 57.8796 327.139 58.6615 327.506 59.3456C327.889 60.0297 328.36 60.5795 328.919 60.9948C329.477 61.3857 330.148 61.5934 330.93 61.6178ZM345.082 47.9476C345.082 51.6614 344.762 54.9477 344.124 57.8063C343.501 60.6649 342.583 63.0716 341.37 65.0262C340.157 66.9564 338.672 68.4224 336.916 69.4241C335.176 70.4258 333.181 70.9267 330.93 70.9267C328.695 70.9267 326.7 70.4258 324.944 69.4241C323.188 68.4224 321.704 66.9564 320.49 65.0262C319.277 63.0716 318.352 60.6649 317.712 57.8063C317.075 54.9477 316.755 51.6614 316.755 47.9476C316.755 44.185 317.075 40.8622 317.712 37.979C318.367 35.0715 319.301 32.6405 320.515 30.6859C321.727 28.7067 323.212 27.2164 324.968 26.2147C326.724 25.1884 328.703 24.6754 330.907 24.6754C333.109 24.6754 335.08 25.1884 336.821 26.2147C338.576 27.2164 340.062 28.7067 341.274 30.6859C342.503 32.6405 343.445 35.0715 344.1 37.979C344.754 40.8622 345.082 44.185 345.082 47.9476ZM359.52 31.6387C360.239 29.2443 361.18 27.4974 362.346 26.3979C363.511 25.274 364.979 24.712 366.751 24.712C370.311 24.712 372.905 26.1903 374.534 29.1466C376.178 32.1029 377 36.623 377 42.7069V70.0105H367.948V41.6806C367.948 40.1659 367.869 38.9075 367.709 37.9058C367.565 36.904 367.334 36.1099 367.015 35.5235C366.711 34.9372 366.321 34.5218 365.842 34.2774C365.379 34.0332 364.836 33.9111 364.213 33.9111C363.08 33.9111 362.17 34.2774 361.483 35.0105C360.813 35.7434 360.302 36.6352 359.951 37.6858V70.0105H350.9V26.1048H357.772L359.52 31.6387Z" fill="white"/>
<path d="M827.884 48.7801L835.561 9.27228H844.553L832.428 69.0105H823.101L811 9.27228H819.872L827.884 48.7801ZM849.025 69.0105V25.1048H858.041V69.0105H849.025ZM848.547 7.65963C848.547 6.58458 848.675 5.58288 848.93 4.65451C849.185 3.72598 849.535 2.91974 849.982 2.23562C850.444 1.52711 850.971 0.977313 851.56 0.586388C852.167 0.195463 852.82 0 853.522 0C854.207 0 854.852 0.195463 855.458 0.586388C856.064 0.977313 856.598 1.51475 857.06 2.19887C857.524 2.88299 857.89 3.70159 858.161 4.65451C858.432 5.58288 858.567 6.58458 858.567 7.65963C858.567 8.75922 858.432 9.77313 858.161 10.7015C857.89 11.63 857.515 12.4363 857.037 13.1204C856.575 13.8045 856.04 14.3421 855.435 14.733C854.829 15.0994 854.191 15.2827 853.522 15.2827C852.804 15.2827 852.134 15.0872 851.512 14.6963C850.906 14.3054 850.381 13.7679 849.934 13.0838C849.503 12.3997 849.16 11.5933 848.905 10.6649C848.667 9.73654 848.547 8.73467 848.547 7.65963ZM869.951 49.22C869.122 48.7068 868.333 48.1448 867.584 47.534C866.835 46.9232 866.172 46.1414 865.599 45.1885C865.024 44.2355 864.562 43.0628 864.211 41.6701C863.877 40.2531 863.709 38.4817 863.709 36.356C863.709 34.4502 863.972 32.7156 864.498 31.1519C865.041 29.5882 865.814 28.2565 866.818 27.1571C867.822 26.0575 869.05 25.2147 870.501 24.6283C871.952 24.0175 873.602 23.712 875.452 23.712C876.345 23.712 877.229 23.7975 878.106 23.9686C878.983 24.1396 879.82 24.3595 880.617 24.6283C881.43 24.8725 882.172 25.1535 882.841 25.4711C883.527 25.7645 884.117 26.0331 884.611 26.2775C885.106 26.5218 885.488 26.7294 885.759 26.9005C886.03 27.0472 886.158 27.1082 886.141 27.0838L884.516 35.843V35.8796C884.468 35.8796 884.292 35.8063 883.989 35.6597C883.703 35.5131 883.32 35.3298 882.841 35.1099C882.363 34.8901 881.821 34.6579 881.215 34.4136C880.61 34.1448 879.987 33.9006 879.35 33.6806C878.712 33.4607 878.074 33.2774 877.436 33.1309C876.799 32.9842 876.209 32.9111 875.667 32.9111C874.917 32.9111 874.296 32.9966 873.802 33.1675C873.323 33.3142 872.941 33.5462 872.654 33.8638C872.366 34.157 872.167 34.5479 872.056 35.0366C871.944 35.5009 871.889 36.0507 871.889 36.6858C871.889 37.1013 871.92 37.4555 871.984 37.7487C872.048 38.0419 872.151 38.3107 872.295 38.5549C872.454 38.7749 872.661 38.9826 872.916 39.1781C873.188 39.3735 873.522 39.5934 873.921 39.8378L878.967 42.8063C880.227 43.5392 881.327 44.3456 882.268 45.2252C883.224 46.1048 884.021 47.0699 884.659 48.1204C885.313 49.171 885.8 50.3316 886.118 51.6021C886.453 52.8482 886.62 54.2409 886.62 55.7802C886.62 58.541 886.269 60.8377 885.568 62.6702C884.882 64.4783 883.981 65.9319 882.865 67.0315C881.75 68.1065 880.489 68.8638 879.086 69.3037C877.683 69.768 876.265 70 874.83 70C873.825 70 872.853 69.9023 871.912 69.7068C870.971 69.5113 870.087 69.2671 869.258 68.9739C868.428 68.6807 867.671 68.363 866.986 68.021C866.3 67.6789 865.71 67.3735 865.216 67.1047C864.738 66.8116 864.363 66.5794 864.092 66.4083C863.837 66.2129 863.725 66.1273 863.757 66.1519L865.384 57.2094C865.415 57.2094 865.574 57.2949 865.861 57.466C866.164 57.6125 866.555 57.8203 867.034 58.089C867.512 58.3578 868.062 58.6388 868.684 58.932C869.305 59.2252 869.951 59.5062 870.62 59.775C871.306 60.0436 871.983 60.2635 872.654 60.4345C873.34 60.6056 873.977 60.6911 874.567 60.6911C875.348 60.6911 875.977 60.6056 876.456 60.4345C876.934 60.2635 877.301 59.9948 877.556 59.6283C877.811 59.2374 877.978 58.7487 878.059 58.1623C878.154 57.5759 878.202 56.8796 878.202 56.0734C878.202 55.5602 878.003 55.0349 877.604 54.4975C877.206 53.9355 876.583 53.3857 875.739 52.8482L869.951 49.22ZM892.456 69.0105V25.1048H901.472V69.0105H892.456ZM891.977 7.65963C891.977 6.58458 892.105 5.58288 892.36 4.65451C892.615 3.72598 892.966 2.91974 893.412 2.23562C893.875 1.52711 894.4 0.977313 894.99 0.586388C895.596 0.195463 896.25 0 896.951 0C897.637 0 898.283 0.195463 898.889 0.586388C899.494 0.977313 900.029 1.51475 900.491 2.19887C900.953 2.88299 901.32 3.70159 901.591 4.65451C901.863 5.58288 901.997 6.58458 901.997 7.65963C901.997 8.75922 901.863 9.77313 901.591 10.7015C901.32 11.63 900.945 12.4363 900.467 13.1204C900.004 13.8045 899.471 14.3421 898.865 14.733C898.258 15.0994 897.621 15.2827 896.951 15.2827C896.234 15.2827 895.565 15.0872 894.942 14.6963C894.337 14.3054 893.811 13.7679 893.365 13.0838C892.934 12.3997 892.591 11.5933 892.336 10.6649C892.096 9.73654 891.977 8.73467 891.977 7.65963ZM920.987 60.6178C921.831 60.6178 922.573 60.3736 923.211 59.8849C923.849 59.3717 924.382 58.5654 924.813 57.466C925.244 56.3666 925.57 54.9494 925.794 53.2146C926.017 51.4554 926.128 49.3299 926.128 46.8377C926.128 44.37 926.017 42.2565 925.794 40.4973C925.57 38.7138 925.244 37.26 924.813 36.1362C924.382 35.0122 923.849 34.1938 923.211 33.6806C922.573 33.1431 921.831 32.8743 920.987 32.8743C920.142 32.8743 919.4 33.1431 918.762 33.6806C918.124 34.1938 917.591 35.0122 917.16 36.1362C916.746 37.26 916.427 38.7016 916.203 40.4608C915.996 42.2199 915.893 44.3456 915.893 46.8377C915.893 47.8639 915.908 48.9144 915.941 49.9895C915.972 51.0645 916.044 52.1152 916.156 53.1414C916.283 54.1431 916.458 55.0961 916.682 56C916.905 56.8796 917.2 57.6615 917.566 58.3456C917.949 59.0297 918.419 59.5795 918.977 59.9948C919.536 60.3857 920.205 60.5934 920.987 60.6178ZM935.12 46.9476C935.12 50.6614 934.802 53.9477 934.164 56.8063C933.542 59.6649 932.625 62.0716 931.414 64.0262C930.202 65.9564 928.719 67.4224 926.965 68.4241C925.227 69.4258 923.235 69.9267 920.987 69.9267C918.754 69.9267 916.761 69.4258 915.007 68.4241C913.254 67.4224 911.771 65.9564 910.559 64.0262C909.348 62.0716 908.423 59.6649 907.785 56.8063C907.147 53.9477 906.829 50.6614 906.829 46.9476C906.829 43.185 907.147 39.8622 907.785 36.979C908.439 34.0715 909.372 31.6405 910.584 29.6859C911.795 27.7067 913.278 26.2164 915.032 25.2147C916.786 24.1884 918.762 23.6754 920.962 23.6754C923.163 23.6754 925.131 24.1884 926.87 25.2147C928.623 26.2164 930.106 27.7067 931.318 29.6859C932.546 31.6405 933.486 34.0715 934.139 36.979C934.794 39.8622 935.12 43.185 935.12 46.9476ZM949.541 30.6387C950.259 28.2443 951.199 26.4974 952.364 25.3979C953.527 24.274 954.994 23.712 956.763 23.712C960.32 23.712 962.91 25.1903 964.537 28.1466C966.179 31.1029 967 35.623 967 41.7069V69.0105H957.959V40.6806C957.959 39.1659 957.88 37.9075 957.721 36.9058C957.577 35.904 957.346 35.1099 957.027 34.5235C956.724 33.9372 956.333 33.5218 955.855 33.2774C955.393 33.0332 954.85 32.9111 954.229 32.9111C953.097 32.9111 952.188 33.2774 951.502 34.0105C950.833 34.7434 950.323 35.6352 949.972 36.6858V69.0105H940.932V25.1048H947.795L949.541 30.6387Z" fill="white"/>
<path d="M1130 395V370.105L1124.19 349H1112.17L1115.94 369.33H1108.7V395H1130ZM1103.3 395V370.105L1097.49 349H1085.48L1089.23 369.33H1082V395H1103.3Z" fill="white"/>
<path d="M813.547 327.45V290.259H810V281.418H823.068V290.259H819.522V327.45H813.547ZM823.476 327.45L826.361 281.418H836.494L839.328 327.45H833.677L833.252 320.022H829.654L829.281 327.45H823.476ZM830.078 312.673H832.794L831.487 289.265H831.216L830.078 312.673ZM840.296 327.45L843.503 303.048L840.958 281.393H846.797L848.341 297.216L849.716 281.393H855.572L853.025 303.048L856.217 327.45H850.174L848.29 309.457L846.355 327.45H840.296ZM871.373 328C869.517 328 868.057 326.892 866.994 324.678C865.941 322.464 865.416 319.412 865.416 315.524C865.416 312.752 865.574 310.45 865.891 308.619C866.219 306.788 866.672 305.263 867.248 304.042C867.826 302.822 868.488 301.759 869.235 300.852L869.098 300.328C868.624 298.515 868.204 296.789 867.843 295.15C867.492 293.493 867.317 291.794 867.317 290.05C867.317 288.289 867.56 286.728 868.046 285.368C868.533 284.008 869.206 282.945 870.066 282.178C870.938 281.393 871.933 281 873.053 281C874.162 281 875.169 281.376 876.074 282.124C876.991 282.857 877.721 283.964 878.264 285.446C878.807 286.929 879.079 288.803 879.079 291.07C879.079 293.528 878.779 295.586 878.179 297.242C877.59 298.899 876.703 300.495 875.514 302.028L877.143 308.358C877.812 305.76 878.773 303.746 880.029 302.315L882.388 307.991C881.076 309.612 879.978 312.255 879.095 315.915L882.083 327.45H876.312L875.65 324.965C875.209 325.802 874.615 326.517 873.868 327.11C873.133 327.703 872.301 328 871.373 328ZM872.646 289.239C872.646 289.692 872.719 290.363 872.866 291.253C873.014 292.124 873.359 293.641 873.902 295.803C874.117 295.456 874.309 294.905 874.479 294.155C874.649 293.407 874.733 292.377 874.733 291.07C874.733 289.728 874.626 288.786 874.411 288.245C874.208 287.704 873.936 287.434 873.597 287.434C873.268 287.434 873.025 287.626 872.866 288.009C872.719 288.376 872.646 288.786 872.646 289.239ZM870.609 316.648C870.609 319.752 871.181 321.304 872.323 321.304C872.788 321.304 873.161 321.043 873.444 320.519C873.726 319.978 873.919 319.42 874.021 318.845L871.169 308.148C870.796 309.369 870.609 311.505 870.609 314.555V316.648ZM892.385 327.45V281.418H904.334V290.39H898.394V297.713H904.029V306.579H898.394V327.45H892.385ZM905.997 327.45V281.418H911.768V327.45H905.997ZM914.144 327.45V281.418H920.289L923.038 303.466V281.418H928.808V327.45H922.97L919.983 304.435V327.45H914.144ZM930.642 327.45L933.527 281.418H943.659L946.494 327.45H940.842L940.418 320.022H936.82L936.447 327.45H930.642ZM937.245 312.673H939.96L938.653 289.265H938.381L937.245 312.673ZM948.327 327.45V281.418H954.472L957.221 303.466V281.418H962.991V327.45H957.153L954.166 304.435V327.45H948.327ZM972.598 327.868C970.437 327.868 968.695 326.832 967.371 324.756C966.058 322.681 965.401 319.779 965.401 316.048V294.809C965.401 290.346 965.973 286.929 967.115 284.556C968.27 282.186 970.143 281 972.734 281C974.149 281 975.405 281.401 976.501 282.203C977.611 283.005 978.482 284.209 979.116 285.813C979.749 287.399 980.066 289.404 980.066 291.828V299.779H974.126V292.979C974.126 291.602 974.013 290.677 973.786 290.207C973.56 289.718 973.209 289.475 972.734 289.475C972.179 289.475 971.806 289.787 971.614 290.416C971.421 291.026 971.325 291.846 971.325 292.874V315.915C971.325 317.189 971.444 318.087 971.681 318.61C971.93 319.132 972.281 319.395 972.734 319.395C973.244 319.395 973.6 319.073 973.804 318.426C974.018 317.782 974.126 316.945 974.126 315.915V307.625H980.134V316.335C980.134 320.379 979.473 323.318 978.148 325.148C976.825 326.962 974.974 327.868 972.598 327.868ZM981.865 327.45V281.418H987.636V327.45H981.865ZM989.197 327.45L992.084 281.418H1002.22L1005.05 327.45H999.4L998.971 320.022H995.379L995.002 327.45H989.197ZM995.798 312.673H998.512L997.206 289.265H996.941L995.798 312.673ZM1006.88 327.45V281.418H1012.86V319.604H1019V327.45H1006.88Z" fill="white"/>
<path d="M819.618 396C816.568 396 814.366 394.839 813.012 392.517C811.671 390.196 811 386.501 811 381.433V376.441H817.606V382.826C817.606 384.006 817.719 384.934 817.948 385.611C818.188 386.268 818.599 386.597 819.181 386.597C819.789 386.597 820.207 386.327 820.434 385.786C820.674 385.243 820.795 384.354 820.795 383.116C820.795 381.548 820.694 380.242 820.491 379.198C820.288 378.134 819.934 377.128 819.428 376.181C818.935 375.213 818.245 374.091 817.359 372.815L814.36 368.462C812.12 365.232 811 361.537 811 357.377C811 353.023 811.658 349.706 812.974 347.423C814.303 345.141 816.22 344 818.726 344C821.788 344 823.959 345.247 825.237 347.743C826.528 350.238 827.173 354.03 827.173 359.118H820.377V355.607C820.377 354.91 820.244 354.368 819.979 353.982C819.726 353.595 819.378 353.401 818.935 353.401C818.403 353.401 818.011 353.634 817.758 354.097C817.517 354.543 817.397 355.124 817.397 355.838C817.397 356.555 817.523 357.328 817.776 358.16C818.03 358.992 818.53 359.95 819.276 361.033L823.13 366.692C823.902 367.814 824.61 369.003 825.256 370.261C825.901 371.499 826.42 372.949 826.813 374.614C827.205 376.257 827.401 378.27 827.401 380.649C827.401 385.447 826.819 389.209 825.654 391.937C824.503 394.646 822.491 396 819.618 396ZM847.863 395.535V344.463H861.226V354.329H854.659V364.283H860.961V373.888H854.659V385.582H861.663V395.535H847.863ZM882.107 395.535V344.463H892.356C894.065 344.463 895.356 345.064 896.229 346.262C897.103 347.444 897.685 349.107 897.975 351.254C898.28 353.382 898.432 355.887 898.432 358.77C898.432 361.555 898.197 363.78 897.728 365.444C897.273 367.107 896.407 368.259 895.129 368.897C896.179 369.226 896.913 370.028 897.33 371.306C897.76 372.562 897.975 374.197 897.975 376.209V395.535H891.389V375.542C891.389 374.052 891.187 373.133 890.782 372.785C890.39 372.417 889.75 372.234 888.865 372.234V395.535H882.107ZM888.902 363.384H890.516C891.44 363.384 891.901 361.846 891.901 358.77C891.901 356.778 891.8 355.472 891.598 354.852C891.395 354.233 891.015 353.924 890.459 353.924H888.902V363.384ZM921.931 395.535L917.812 344.435H924.171L926.619 379.198L928.802 344.435H935.161L931.042 395.535H921.931ZM955.035 395.535V344.463H961.489V395.535H955.035ZM990.152 396C987.735 396 985.787 394.848 984.306 392.547C982.838 390.244 982.104 387.023 982.104 382.884V359.321C982.104 354.368 982.743 350.577 984.021 347.946C985.312 345.315 987.407 344 990.304 344C991.885 344 993.295 344.445 994.52 345.334C995.755 346.223 996.735 347.559 997.439 349.339C998.154 351.1 998.501 353.325 998.501 356.013V364.834H991.861V357.289C991.861 355.762 991.734 354.737 991.481 354.214C991.228 353.673 990.835 353.401 990.304 353.401C989.684 353.401 989.266 353.749 989.051 354.446C988.837 355.124 988.728 356.032 988.728 357.174V382.739C988.728 384.151 988.861 385.146 989.128 385.727C989.405 386.307 989.798 386.597 990.304 386.597C990.874 386.597 991.272 386.24 991.5 385.524C991.74 384.808 991.861 383.879 991.861 382.739V373.54H998.582V383.202C998.582 387.691 997.837 390.951 996.357 392.982C994.877 394.994 992.805 396 990.152 396ZM1019.05 395.535V344.463H1032.41V354.329H1025.83V364.283H1032.14V373.888H1025.83V385.582H1032.85V395.535H1019.05ZM1061.22 396C1058.17 396 1055.97 394.839 1054.62 392.517C1053.27 390.196 1052.61 386.501 1052.61 381.433V376.441H1059.21V382.826C1059.21 384.006 1059.32 384.934 1059.55 385.611C1059.79 386.268 1060.2 386.597 1060.78 386.597C1061.4 386.597 1061.81 386.327 1062.04 385.786C1062.27 385.243 1062.4 384.354 1062.4 383.116C1062.4 381.548 1062.29 380.242 1062.09 379.198C1061.9 378.134 1061.54 377.128 1061.03 376.181C1060.54 375.213 1059.84 374.091 1058.97 372.815L1055.97 368.462C1053.72 365.232 1052.61 361.537 1052.61 357.377C1052.61 353.023 1053.26 349.706 1054.58 347.423C1055.9 345.141 1057.82 344 1060.32 344C1063.39 344 1065.56 345.247 1066.84 347.743C1068.13 350.238 1068.78 354.03 1068.78 359.118H1061.98V355.607C1061.98 354.91 1061.84 354.368 1061.58 353.982C1061.32 353.595 1060.98 353.401 1060.54 353.401C1060.01 353.401 1059.61 353.634 1059.36 354.097C1059.12 354.543 1059 355.124 1059 355.838C1059 356.555 1059.13 357.328 1059.37 358.16C1059.63 358.992 1060.13 359.95 1060.88 361.033L1064.73 366.692C1065.51 367.814 1066.21 369.003 1066.86 370.261C1067.5 371.499 1068.02 372.949 1068.42 374.614C1068.81 376.257 1069 378.27 1069 380.649C1069 385.447 1068.42 389.209 1067.25 391.937C1066.1 394.646 1064.09 396 1061.22 396Z" fill="white"/>
<path d="M913 185L915.118 153H922.557L924.637 185H920.488L920.177 179.837H917.536L917.262 185H913ZM917.847 174.727H919.84L918.881 158.454H918.681L917.847 174.727ZM931.764 185V153H936V185H931.764Z" fill="white"/>
<path d="M852 185.698V152.456H857.894C859.477 152.456 860.626 153.048 861.343 154.232C862.068 155.403 862.43 157.342 862.43 160.048V161.503C862.43 163.065 862.245 164.331 861.874 165.299C861.512 166.269 860.955 166.906 860.206 167.208C861.186 167.585 861.841 168.472 862.17 169.87C862.509 171.255 862.678 172.948 862.678 174.952C862.678 177.104 862.545 178.986 862.282 180.598C862.018 182.21 861.541 183.463 860.849 184.357C860.156 185.251 859.171 185.698 857.894 185.698H852ZM856.251 164.978H857.14C857.544 164.978 857.804 164.739 857.919 164.261C858.035 163.782 858.092 163.209 858.092 162.542V159.198C858.092 158.128 857.784 157.593 857.165 157.593H856.251V164.978ZM856.684 179.842C857.813 179.842 858.377 179.024 858.377 177.387V173.233C858.377 172.288 858.282 171.544 858.092 171.003C857.911 170.449 857.565 170.172 857.055 170.172H856.251V179.806C856.432 179.831 856.576 179.842 856.684 179.842ZM867.609 186C866.62 186 865.862 185.685 865.335 185.055C864.815 184.427 864.461 183.552 864.271 182.43C864.082 181.296 863.988 179.975 863.988 178.464V157.367H868.436V177.671C868.436 178.804 868.494 179.597 868.609 180.051C868.725 180.491 868.997 180.711 869.425 180.711C869.886 180.711 870.175 180.397 870.29 179.768C870.414 179.138 870.475 178.326 870.475 177.33V157.367H874.888V185.698H870.463V182.676C870.183 183.759 869.846 184.584 869.45 185.15C869.063 185.717 868.449 186 867.609 186ZM876.642 155.629V150H881.067V155.629H876.642ZM876.642 185.698V157.367H881.067V185.698H876.642ZM882.822 185.698V152.456H887.321V185.698H882.822ZM892.746 186C891.889 186 891.209 185.761 890.707 185.283C890.204 184.804 889.829 184.144 889.582 183.298C889.335 182.455 889.17 181.467 889.087 180.334C889.014 179.201 888.977 177.986 888.977 176.688V164.373C888.977 162.196 889.227 160.433 889.73 159.086C890.241 157.737 891.102 157.065 892.313 157.065C893.211 157.065 893.9 157.361 894.377 157.953C894.863 158.532 895.237 159.344 895.502 160.388V152.456H900V185.698H895.502V182.695C895.254 183.715 894.925 184.52 894.513 185.112C894.109 185.704 893.521 186 892.746 186ZM894.439 180.711C894.858 180.711 895.139 180.453 895.279 179.937C895.427 179.421 895.502 178.495 895.502 177.161V165.242C895.502 164.576 895.435 163.921 895.304 163.278C895.181 162.623 894.9 162.297 894.464 162.297C893.986 162.297 893.685 162.606 893.561 163.221C893.438 163.838 893.376 164.513 893.376 165.242V177.161C893.376 179.529 893.73 180.711 894.439 180.711Z" fill="white"/>
<path d="M812 183V166.764L815.872 153H823.882L821.376 166.258H826.197V183H812ZM829.804 183V166.764L833.675 153H841.684L839.18 166.258H844V183H829.804Z" fill="white"/>
<path d="M955 188.698V155.456H960.862C962.396 155.456 963.551 156.123 964.325 157.458C965.1 158.78 965.488 160.718 965.488 163.276V178.838C965.488 181.986 965.133 184.417 964.423 186.129C963.72 187.842 962.484 188.698 960.716 188.698H955ZM959.288 182.823H960.026C960.81 182.823 961.201 182.233 961.201 181.049V163.898C961.201 162.79 961.104 162.08 960.91 161.765C960.725 161.437 960.341 161.274 959.759 161.274H959.288V182.823ZM967.159 188.698V160.367H971.568V163.521C971.778 162.426 972.149 161.57 972.682 160.953C973.215 160.335 973.886 160.027 974.692 160.027V165.674C974.337 165.674 973.913 165.737 973.421 165.864C972.929 165.976 972.496 166.141 972.125 166.354C971.753 166.555 971.568 166.782 971.568 167.033V188.698H967.159ZM975.734 158.629V153H980.07V158.629H975.734ZM975.734 188.698V160.367H980.07V188.698H975.734ZM984.103 188.698L981.184 160.367H985.531L986.574 179.292L987.748 160.367H992.081L989.117 188.698H984.103ZM998.312 189C997.013 189 995.988 188.622 995.217 187.867C994.456 187.112 993.908 186.022 993.573 184.599C993.238 183.176 993.076 181.464 993.076 179.462V168.073C993.076 165.441 993.563 163.452 994.527 162.105C995.501 160.744 996.83 160.065 998.525 160.065C1002.02 160.065 1003.76 162.733 1003.76 168.073V170.132C1003.76 172.625 1003.74 174.299 1003.71 175.155H997.409V180.633C997.409 181.136 997.429 181.634 997.47 182.125C997.51 182.603 997.602 183 997.744 183.315C997.886 183.63 998.119 183.787 998.434 183.787C998.88 183.787 999.164 183.485 999.276 182.88C999.388 182.263 999.448 181.464 999.448 180.482V177.762H1003.76V179.368C1003.76 181.483 1003.59 183.258 1003.25 184.694C1002.92 186.116 1002.35 187.193 1001.56 187.924C1000.77 188.641 999.682 189 998.312 189ZM997.388 171.794H999.448V167.978C999.448 166.959 999.367 166.228 999.205 165.788C999.043 165.333 998.799 165.107 998.474 165.107C998.129 165.107 997.865 165.321 997.662 165.75C997.48 166.177 997.388 166.921 997.388 167.978V171.794ZM1005.33 188.698V160.367H1009.67V163.974C1009.83 162.891 1010.12 161.972 1010.56 161.217C1011.01 160.448 1011.63 160.065 1012.41 160.065C1013.67 160.065 1014.58 160.669 1015.15 161.877C1015.72 163.086 1016 164.742 1016 166.845V188.698H1011.73V167.544C1011.73 166.99 1011.66 166.479 1011.51 166.014C1011.36 165.536 1011.12 165.297 1010.76 165.297C1010.43 165.297 1010.19 165.479 1010.02 165.845C1009.87 166.196 1009.77 166.644 1009.73 167.185C1009.69 167.714 1009.67 168.242 1009.67 168.771V188.698H1005.33Z" fill="white"/>
<path d="M821.29 265C817.648 265 815.02 263.639 813.403 260.915C811.801 258.191 811 253.857 811 247.912V242.057H818.887V249.546C818.887 250.93 819.024 252.019 819.296 252.814C819.583 253.586 820.074 253.971 820.769 253.971C821.494 253.971 821.992 253.653 822.265 253.018C822.552 252.383 822.695 251.338 822.695 249.885C822.695 248.047 822.575 246.516 822.332 245.291C822.09 244.042 821.667 242.862 821.064 241.75C820.474 240.616 819.65 239.3 818.593 237.802L815.011 232.695C812.337 228.906 811 224.572 811 219.691C811 214.586 811.786 210.694 813.357 208.016C814.944 205.338 817.233 204 820.225 204C823.881 204 826.473 205.464 827.999 208.391C829.54 211.318 830.31 215.766 830.31 221.735H822.197V217.616C822.197 216.798 822.038 216.163 821.721 215.709C821.418 215.256 821.002 215.029 820.474 215.029C819.839 215.029 819.371 215.301 819.069 215.845C818.782 216.367 818.638 217.048 818.638 217.887C818.638 218.728 818.789 219.635 819.091 220.612C819.394 221.588 819.99 222.711 820.882 223.981L825.483 230.619C826.405 231.936 827.251 233.332 828.021 234.806C828.792 236.259 829.411 237.96 829.88 239.912C830.348 241.842 830.583 244.201 830.583 246.992C830.583 252.621 829.887 257.035 828.497 260.235C827.122 263.412 824.72 265 821.29 265ZM838.085 264.455V244.746L831.716 204.545H839.626L841.847 224.832L844.069 204.545H851.956L845.609 244.746V264.455H838.085ZM863.448 265C859.806 265 857.177 263.639 855.56 260.915C853.958 258.191 853.157 253.857 853.157 247.912V242.057H861.045V249.546C861.045 250.93 861.181 252.019 861.453 252.814C861.74 253.586 862.231 253.971 862.926 253.971C863.651 253.971 864.151 253.653 864.422 253.018C864.709 252.383 864.852 251.338 864.852 249.885C864.852 248.047 864.732 246.516 864.49 245.291C864.249 244.042 863.825 242.862 863.221 241.75C862.632 240.616 861.808 239.3 860.75 237.802L857.17 232.695C854.494 228.906 853.157 224.572 853.157 219.691C853.157 214.586 853.943 210.694 855.515 208.016C857.101 205.338 859.39 204 862.382 204C866.039 204 868.63 205.464 870.156 208.391C871.697 211.318 872.469 215.766 872.469 221.735H864.354V217.616C864.354 216.798 864.196 216.163 863.878 215.709C863.575 215.256 863.161 215.029 862.632 215.029C861.997 215.029 861.528 215.301 861.226 215.845C860.939 216.367 860.796 217.048 860.796 217.887C860.796 218.728 860.947 219.635 861.248 220.612C861.551 221.588 862.148 222.711 863.039 223.981L867.641 230.619C868.562 231.936 869.408 233.332 870.179 234.806C870.95 236.259 871.569 237.96 872.038 239.912C872.506 241.842 872.74 244.201 872.74 246.992C872.74 252.621 872.045 257.035 870.655 260.235C869.279 263.412 866.878 265 863.448 265ZM878.838 264.455V216.049H874.1V204.545H891.552V216.049H886.816V264.455H878.838ZM893.774 264.455V204.545H909.73V216.118H901.888V227.793H909.413V239.062H901.888V252.779H910.252V264.455H893.774ZM912.904 264.455V204.545H925.052L928.406 241.07L931.738 204.545H944V264.455H936.701V221.292L932.123 264.455H924.961L920.11 221.292V264.455H912.904Z" fill="white"/>
<path d="M950 265.768V240.232H956.586V245.208H953.311V249.272H956.417V254.19H953.311V265.768H950ZM966.074 266C964.758 266 963.75 265.385 963.051 264.157C962.359 262.918 962.013 261.135 962.013 258.804V246.674C962.013 244.488 962.356 242.829 963.042 241.698C963.734 240.565 964.745 240 966.074 240C967.402 240 968.409 240.565 969.095 241.698C969.788 242.829 970.134 244.488 970.134 246.674V258.804C970.134 261.135 969.785 262.918 969.086 264.157C968.394 265.385 967.39 266 966.074 266ZM966.101 261.299C966.6 261.299 966.85 260.55 966.85 259.05V246.586C966.85 245.329 966.607 244.7 966.12 244.7C965.572 244.7 965.297 245.344 965.297 246.63V259.078C965.297 259.873 965.359 260.442 965.484 260.792C965.609 261.13 965.814 261.299 966.101 261.299ZM975.954 265.768V240.232H981.006C981.848 240.232 982.484 240.532 982.914 241.131C983.345 241.721 983.632 242.553 983.775 243.626C983.925 244.69 984 245.943 984 247.385C984 248.777 983.884 249.889 983.654 250.721C983.428 251.553 983.002 252.129 982.372 252.448C982.889 252.612 983.251 253.015 983.457 253.653C983.669 254.282 983.775 255.098 983.775 256.104V265.768H980.529V255.77C980.529 255.026 980.429 254.567 980.229 254.393C980.036 254.209 979.721 254.116 979.284 254.116V265.768H975.954ZM979.303 249.691H980.098C980.554 249.691 980.781 248.922 980.781 247.385C980.781 246.388 980.731 245.736 980.631 245.425C980.532 245.116 980.345 244.962 980.07 244.962H979.303V249.691Z" fill="white"/>
<path d="M128 294.133V198.865H152.347V217.432H140.242V232.589H151.725V250.938H140.242V294.133H128ZM155.737 294.133V198.865H167.495V294.133H155.737ZM172.337 294.133V198.865H184.856L190.459 244.498V198.865H202.218V294.133H190.321L184.234 246.5V294.133H172.337ZM205.953 294.133L211.832 198.865H232.479L238.255 294.133H226.738L225.874 278.762H218.542L217.781 294.133H205.953ZM219.406 263.551H224.939L222.277 215.105H221.723L219.406 263.551ZM241.99 294.133V198.865H254.509L260.112 244.498V198.865H271.871V294.133H259.973L253.887 246.5V294.133H241.99ZM291.445 295C287.042 295 283.491 292.853 280.793 288.558C278.119 284.265 276.781 278.257 276.781 270.534V226.58C276.781 217.341 277.946 210.269 280.274 205.361C282.626 200.453 286.443 198 291.722 198C294.604 198 297.164 198.83 299.4 200.49C301.659 202.15 303.435 204.639 304.726 207.959C306.017 211.244 306.663 215.393 306.663 220.409V236.864H294.558V222.791C294.558 219.939 294.327 218.028 293.866 217.053C293.405 216.043 292.691 215.538 291.722 215.538C290.592 215.538 289.832 216.187 289.44 217.486C289.047 218.75 288.852 220.444 288.852 222.574V270.263C288.852 272.896 289.094 274.755 289.578 275.839C290.085 276.92 290.8 277.462 291.722 277.462C292.76 277.462 293.486 276.794 293.901 275.46C294.34 274.125 294.558 272.392 294.558 270.263V253.104H306.801V271.128C306.801 279.501 305.452 285.581 302.754 289.371C300.057 293.124 296.288 295 291.445 295ZM310.328 294.133V198.865H322.087V294.133H310.328ZM325.269 294.133L331.148 198.865H351.796L357.571 294.133H346.054L345.19 278.762H337.857L337.097 294.133H325.269ZM338.723 263.551H344.256L341.593 215.105H341.04L338.723 263.551ZM361.306 294.133V198.865H373.48V277.895H386V294.133H361.306Z" fill="white"/>
<path d="M0 414.45V368.417H5.87555V414.45H0ZM8.29477 414.45V368.417H14.5505L17.35 390.467V368.417H23.2255V414.45H17.2809L14.2394 391.434V414.45H8.29477ZM25.9212 414.45V368.417H34.2852C36.4741 368.417 38.1216 369.342 39.2275 371.19C40.3335 373.021 40.8865 375.706 40.8865 379.247V400.798C40.8865 405.157 40.3796 408.522 39.3658 410.893C38.3634 413.265 36.6008 414.45 34.0778 414.45H25.9212ZM32.0386 406.316H33.0928C34.2103 406.316 34.7691 405.497 34.7691 403.858V380.109C34.7691 378.574 34.6308 377.589 34.3543 377.153C34.0894 376.701 33.5421 376.474 32.7127 376.474H32.0386V406.316ZM43.0984 414.45V368.417H48.9739V414.45H43.0984ZM50.5638 414.45L53.5015 368.417H63.8181L66.7041 414.45H60.9496L60.5175 407.023H56.854L56.4738 414.45H50.5638ZM57.2859 399.673H60.0509L58.7203 376.265H58.4438L57.2859 399.673ZM68.5704 414.45V368.417H74.826L77.626 390.467V368.417H83.5006V414.45H77.5568L74.5149 391.434V414.45H68.5704ZM94.4911 414.45V368.417H102.735C104.947 368.417 106.554 369.238 107.555 370.877C108.57 372.498 109.077 375.183 109.077 378.933V380.946C109.077 383.107 108.818 384.861 108.299 386.203C107.792 387.545 107.014 388.426 105.966 388.845C107.337 389.368 108.253 390.596 108.714 392.533C109.186 394.451 109.422 396.795 109.422 399.568C109.422 402.55 109.238 405.157 108.87 407.389C108.5 409.62 107.832 411.355 106.865 412.594C105.897 413.832 104.521 414.45 102.735 414.45H94.4911ZM100.436 385.758H101.681C102.245 385.758 102.607 385.427 102.769 384.765C102.931 384.102 103.011 383.309 103.011 382.384V377.755C103.011 376.273 102.579 375.532 101.715 375.532H100.436V385.758ZM101.041 406.343C102.62 406.343 103.409 405.21 103.409 402.942V397.188C103.409 395.881 103.276 394.851 103.011 394.102C102.758 393.335 102.274 392.952 101.56 392.952H100.436V406.29C100.689 406.326 100.892 406.343 101.041 406.343ZM118.461 414.869C115.926 414.869 114.06 413.796 112.862 411.652C111.663 409.489 111.064 406.316 111.064 402.131V368.417H116.974V401.766C116.974 402.533 117.003 403.273 117.06 403.989C117.118 404.686 117.25 405.262 117.458 405.715C117.665 406.169 117.999 406.395 118.461 406.395C118.933 406.395 119.272 406.176 119.48 405.741C119.687 405.288 119.813 404.703 119.86 403.989C119.917 403.273 119.947 402.533 119.947 401.766V368.417H125.857V402.131C125.857 406.316 125.258 409.489 124.06 411.652C122.861 413.796 120.995 414.869 118.461 414.869ZM135.412 414.869C132.637 414.869 130.632 413.822 129.399 411.73C128.178 409.638 127.567 406.307 127.567 401.74V397.24H133.58V402.994C133.58 404.058 133.684 404.896 133.892 405.505C134.11 406.098 134.486 406.395 135.016 406.395C135.568 406.395 135.948 406.15 136.156 405.662C136.374 405.174 136.484 404.372 136.484 403.256C136.484 401.843 136.392 400.667 136.208 399.725C136.023 398.766 135.701 397.859 135.24 397.005C134.791 396.133 134.162 395.122 133.357 393.971L130.626 390.048C128.587 387.136 127.567 383.806 127.567 380.056C127.567 376.134 128.167 373.143 129.365 371.085C130.574 369.028 132.319 368 134.601 368C137.388 368 139.365 369.124 140.528 371.373C141.703 373.623 142.291 377.041 142.291 381.626H136.104V378.462C136.104 377.833 135.983 377.346 135.741 376.996C135.511 376.648 135.194 376.474 134.791 376.474C134.307 376.474 133.95 376.682 133.719 377.101C133.5 377.503 133.39 378.026 133.39 378.671C133.39 379.316 133.506 380.013 133.736 380.763C133.967 381.513 134.422 382.376 135.102 383.352L138.61 388.452C139.313 389.463 139.958 390.536 140.545 391.669C141.132 392.785 141.605 394.094 141.962 395.593C142.319 397.076 142.498 398.889 142.498 401.033C142.498 405.357 141.968 408.749 140.907 411.207C139.86 413.648 138.028 414.869 135.412 414.869ZM144.261 414.45V368.417H150.135V414.45H144.261ZM152.555 414.45V368.417H158.811L161.61 390.467V368.417H167.486V414.45H161.541L158.5 391.434V414.45H152.555ZM170.182 414.45V368.417H182.347V377.31H176.368V386.282H182.105V394.939H176.368V405.479H182.745V414.45H170.182ZM191.99 414.869C189.214 414.869 187.209 413.822 185.976 411.73C184.755 409.638 184.144 406.307 184.144 401.74V397.24H190.158V402.994C190.158 404.058 190.262 404.896 190.47 405.505C190.688 406.098 191.063 406.395 191.592 406.395C192.146 406.395 192.526 406.15 192.733 405.662C192.952 405.174 193.061 404.372 193.061 403.256C193.061 401.843 192.97 400.667 192.784 399.725C192.6 398.766 192.278 397.859 191.817 397.005C191.368 396.133 190.74 395.122 189.934 393.971L187.203 390.048C185.165 387.136 184.144 383.806 184.144 380.056C184.144 376.134 184.743 373.143 185.942 371.085C187.152 369.028 188.897 368 191.178 368C193.965 368 195.941 369.124 197.105 371.373C198.281 373.623 198.868 377.041 198.868 381.626H192.682V378.462C192.682 377.833 192.561 377.346 192.319 376.996C192.088 376.648 191.771 376.474 191.368 376.474C190.884 376.474 190.527 376.682 190.297 377.101C190.078 377.503 189.968 378.026 189.968 378.671C189.968 379.316 190.083 380.013 190.314 380.763C190.544 381.513 191 382.376 191.679 383.352L195.187 388.452C195.89 389.463 196.534 390.536 197.122 391.669C197.71 392.785 198.182 394.094 198.539 395.593C198.897 397.076 199.075 398.889 199.075 401.033C199.075 405.357 198.545 408.749 197.485 411.207C196.437 413.648 194.605 414.869 191.99 414.869ZM208.338 414.869C205.561 414.869 203.556 413.822 202.324 411.73C201.103 409.638 200.492 406.307 200.492 401.74V397.24H206.506V402.994C206.506 404.058 206.61 404.896 206.817 405.505C207.036 406.098 207.41 406.395 207.94 406.395C208.493 406.395 208.874 406.15 209.081 405.662C209.3 405.174 209.41 404.372 209.41 403.256C209.41 401.843 209.317 400.667 209.133 399.725C208.948 398.766 208.625 397.859 208.165 397.005C207.715 396.133 207.088 395.122 206.281 393.971L203.551 390.048C201.512 387.136 200.492 383.806 200.492 380.056C200.492 376.134 201.091 373.143 202.289 371.085C203.499 369.028 205.245 368 207.526 368C210.314 368 212.289 369.124 213.453 371.373C214.628 373.623 215.215 377.041 215.215 381.626H209.029V378.462C209.029 377.833 208.908 377.346 208.666 376.996C208.435 376.648 208.119 376.474 207.715 376.474C207.232 376.474 206.875 376.682 206.644 377.101C206.426 377.503 206.316 378.026 206.316 378.671C206.316 379.316 206.431 380.013 206.661 380.763C206.892 381.513 207.347 382.376 208.026 383.352L211.534 388.452C212.237 389.463 212.883 390.536 213.47 391.669C214.058 392.785 214.53 394.094 214.888 395.593C215.245 397.076 215.423 398.889 215.423 401.033C215.423 405.357 214.893 408.749 213.833 411.207C212.784 413.648 210.953 414.869 208.338 414.869ZM231.079 415C229.19 415 227.704 413.893 226.621 411.678C225.55 409.463 225.014 406.412 225.014 402.523C225.014 399.751 225.175 397.45 225.498 395.619C225.831 393.788 226.292 392.262 226.88 391.041C227.468 389.821 228.141 388.757 228.902 387.85L228.764 387.328C228.279 385.515 227.853 383.788 227.485 382.15C227.128 380.492 226.949 378.793 226.949 377.048C226.949 375.287 227.197 373.728 227.693 372.367C228.188 371.006 228.873 369.944 229.749 369.176C230.636 368.391 231.65 368 232.79 368C233.919 368 234.944 368.374 235.866 369.124C236.8 369.856 237.542 370.963 238.095 372.446C238.649 373.928 238.925 375.802 238.925 378.069C238.925 380.527 238.619 382.586 238.009 384.242C237.41 385.898 236.506 387.493 235.296 389.028L236.955 395.358C237.635 392.759 238.614 390.746 239.892 389.316L242.295 394.991C240.958 396.612 239.841 399.254 238.943 402.916L241.984 414.45H236.108L235.434 411.966C234.985 412.803 234.38 413.518 233.619 414.11C232.871 414.703 232.024 415 231.079 415ZM232.375 376.239C232.375 376.691 232.45 377.362 232.6 378.252C232.75 379.123 233.101 380.641 233.654 382.803C233.873 382.455 234.069 381.905 234.242 381.155C234.414 380.406 234.501 379.376 234.501 378.069C234.501 376.727 234.391 375.785 234.172 375.244C233.965 374.704 233.688 374.433 233.343 374.433C233.009 374.433 232.762 374.625 232.6 375.009C232.45 375.375 232.375 375.785 232.375 376.239ZM230.301 403.649C230.301 406.752 230.883 408.304 232.047 408.304C232.52 408.304 232.9 408.042 233.188 407.519C233.476 406.978 233.671 406.421 233.775 405.845L230.872 395.148C230.492 396.369 230.301 398.504 230.301 401.557V403.649ZM252.196 414.45V368.417H258.072V414.45H252.196ZM260.491 414.45V368.417H266.747L269.546 390.467V368.417H275.422V414.45H269.477L266.436 391.434V414.45H260.491ZM278.117 414.45V368.417H286.482C288.67 368.417 290.318 369.342 291.424 371.19C292.53 373.021 293.083 375.706 293.083 379.247V400.798C293.083 405.157 292.576 408.522 291.562 410.893C290.56 413.265 288.798 414.45 286.274 414.45H278.117ZM284.235 406.316H285.29C286.406 406.316 286.966 405.497 286.966 403.858V380.109C286.966 378.574 286.827 377.589 286.551 377.153C286.285 376.701 285.738 376.474 284.909 376.474H284.235V406.316ZM295.295 414.45V368.417H301.17V414.45H295.295ZM306.389 414.45L302.639 368.391H308.428L310.658 399.725L312.645 368.391H318.434L314.684 414.45H306.389ZM319.937 414.45V368.417H325.813V414.45H319.937ZM328.232 414.45V368.417H336.596C338.785 368.417 340.433 369.342 341.538 371.19C342.645 373.021 343.197 375.706 343.197 379.247V400.798C343.197 405.157 342.69 408.522 341.676 410.893C340.675 413.265 338.912 414.45 336.389 414.45H328.232ZM334.349 406.316H335.404C336.521 406.316 337.08 405.497 337.08 403.858V380.109C337.08 378.574 336.942 377.589 336.665 377.153C336.4 376.701 335.853 376.474 335.024 376.474H334.349V406.316ZM352.719 414.869C350.184 414.869 348.318 413.796 347.12 411.652C345.922 409.489 345.323 406.316 345.323 402.131V368.417H351.233V401.766C351.233 402.533 351.261 403.273 351.319 403.989C351.377 404.686 351.51 405.262 351.717 405.715C351.924 406.169 352.258 406.395 352.719 406.395C353.192 406.395 353.531 406.176 353.739 405.741C353.946 405.288 354.073 404.703 354.118 403.989C354.176 403.273 354.205 402.533 354.205 401.766V368.417H360.115V402.131C360.115 406.316 359.516 409.489 358.318 411.652C357.12 413.796 355.253 414.869 352.719 414.869ZM361.618 414.45L364.557 368.417H374.873L377.759 414.45H372.005L371.572 407.023H367.909L367.528 414.45H361.618ZM368.341 399.673H371.106L369.775 376.265H369.499L368.341 399.673ZM379.626 414.45V368.417H385.708V406.604H391.964V414.45H379.626ZM400.915 414.869C398.138 414.869 396.134 413.822 394.901 411.73C393.681 409.638 393.069 406.307 393.069 401.74V397.24H399.083V402.994C399.083 404.058 399.187 404.896 399.395 405.505C399.613 406.098 399.987 406.395 400.517 406.395C401.071 406.395 401.451 406.15 401.659 405.662C401.877 405.174 401.987 404.372 401.987 403.256C401.987 401.843 401.895 400.667 401.71 399.725C401.526 398.766 401.203 397.859 400.742 397.005C400.294 396.133 399.665 395.122 398.859 393.971L396.129 390.048C394.089 387.136 393.069 383.806 393.069 380.056C393.069 376.134 393.668 373.143 394.868 371.085C396.077 369.028 397.822 368 400.103 368C402.891 368 404.866 369.124 406.03 371.373C407.206 373.623 407.794 377.041 407.794 381.626H401.607V378.462C401.607 377.833 401.486 377.346 401.244 376.996C401.014 376.648 400.696 376.474 400.294 376.474C399.809 376.474 399.452 376.682 399.222 377.101C399.003 377.503 398.893 378.026 398.893 378.671C398.893 379.316 399.009 380.013 399.239 380.763C399.47 381.513 399.924 382.376 400.604 383.352L404.113 388.452C404.815 389.463 405.46 390.536 406.047 391.669C406.635 392.785 407.108 394.094 407.465 395.593C407.822 397.076 408 398.889 408 401.033C408 405.357 407.47 408.749 406.41 411.207C405.363 413.648 403.531 414.869 400.915 414.869Z" fill="white"/>
<path d="M405 474V450.728L399.675 431H388.663L392.107 450.005H385.479V474H405ZM380.521 474V450.728L375.196 431H364.184L367.629 450.005H361V474H380.521Z" fill="white"/>
<path d="M201.305 182.732V158.858H199V153.182H207.491V158.858H205.187V182.732H201.305ZM212.808 183C209.513 183 207.867 180.398 207.867 175.193V165.087C207.867 162.714 208.305 160.821 209.18 159.411C210.055 157.989 211.263 157.28 212.808 157.28C214.359 157.28 215.572 157.989 216.447 159.411C217.322 160.821 217.759 162.714 217.759 165.087V175.193C217.759 180.398 216.109 183 212.808 183ZM212.808 178.367C213.139 178.367 213.374 178.188 213.514 177.829C213.661 177.46 213.734 176.996 213.734 176.436V164.129C213.734 162.663 213.425 161.93 212.808 161.93C212.19 161.93 211.881 162.663 211.881 164.129V176.436C211.881 176.996 211.951 177.46 212.091 177.829C212.238 178.188 212.477 178.367 212.808 178.367ZM224.587 182.732V153.182H229.715C230.788 153.182 231.637 153.545 232.262 154.274C232.894 155.001 233.346 156.037 233.618 157.38C233.89 158.722 234.027 160.324 234.027 162.181C234.027 163.972 233.913 165.533 233.685 166.865C233.456 168.186 233.049 169.21 232.461 169.939C231.879 170.666 231.053 171.029 229.979 171.029H228.402V182.732H224.587ZM228.402 165.724H228.622C229.344 165.724 229.785 165.416 229.947 164.8C230.108 164.184 230.188 163.279 230.188 162.081C230.188 160.961 230.108 160.099 229.947 159.495C229.792 158.88 229.421 158.572 228.832 158.572H228.402V165.724ZM235.196 182.732V157.548H239.21V160.352C239.401 159.378 239.74 158.616 240.224 158.068C240.71 157.52 241.321 157.246 242.055 157.246V162.266C241.732 162.266 241.346 162.321 240.898 162.434C240.449 162.534 240.055 162.68 239.718 162.869C239.38 163.049 239.21 163.251 239.21 163.474V182.732H235.196ZM247.835 183C244.54 183 242.894 180.398 242.894 175.193V165.087C242.894 162.714 243.332 160.821 244.206 159.411C245.081 157.989 246.29 157.28 247.835 157.28C249.385 157.28 250.599 157.989 251.474 159.411C252.349 160.821 252.786 162.714 252.786 165.087V175.193C252.786 180.398 251.135 183 247.835 183ZM247.835 178.367C248.165 178.367 248.4 178.188 248.541 177.829C248.687 177.46 248.761 176.996 248.761 176.436V164.129C248.761 162.663 248.452 161.93 247.835 161.93C247.217 161.93 246.908 162.663 246.908 164.129V176.436C246.908 176.996 246.978 177.46 247.118 177.829C247.264 178.188 247.504 178.367 247.835 178.367ZM256.36 182.732L253.701 157.548H257.661L258.609 174.371L259.679 157.548H263.627L260.925 182.732H256.36ZM264.642 156.003V151H268.59V156.003H264.642ZM264.642 182.732V157.548H268.59V182.732H264.642ZM273.41 183C272.646 183 272.039 182.787 271.59 182.362C271.141 181.937 270.807 181.349 270.586 180.599C270.366 179.849 270.219 178.972 270.145 177.963C270.079 176.956 270.046 175.877 270.046 174.723V163.776C270.046 161.841 270.271 160.273 270.719 159.075C271.175 157.877 271.943 157.28 273.024 157.28C273.825 157.28 274.439 157.541 274.866 158.068C275.3 158.582 275.633 159.305 275.869 160.235V153.182H279.884V182.732H275.869V180.062C275.649 180.969 275.354 181.685 274.987 182.212C274.627 182.738 274.101 183 273.41 183ZM274.92 178.3C275.296 178.3 275.545 178.071 275.671 177.61C275.803 177.152 275.869 176.329 275.869 175.144V164.549C275.869 163.955 275.81 163.373 275.692 162.803C275.582 162.221 275.332 161.93 274.943 161.93C274.516 161.93 274.248 162.204 274.137 162.752C274.027 163.3 273.973 163.899 273.973 164.549V175.144C273.973 177.247 274.288 178.3 274.92 178.3ZM286.038 183C284.861 183 283.924 182.664 283.225 181.993C282.527 181.322 282.027 180.353 281.726 179.089C281.424 177.825 281.274 176.302 281.274 174.521V164.398C281.274 162.058 281.715 160.29 282.597 159.092C283.479 157.883 284.692 157.28 286.236 157.28C289.412 157.28 291 159.653 291 164.398V166.228C291 168.444 290.986 169.933 290.957 170.693H285.221V175.562C285.221 176.011 285.24 176.452 285.276 176.89C285.313 177.315 285.394 177.667 285.519 177.948C285.651 178.226 285.861 178.367 286.148 178.367C286.56 178.367 286.816 178.099 286.92 177.561C287.023 177.013 287.074 176.302 287.074 175.428V173.011H291V174.438C291 176.319 290.846 177.897 290.537 179.173C290.235 180.438 289.72 181.394 288.993 182.044C288.273 182.681 287.287 183 286.038 183ZM285.199 167.706H287.074V164.314C287.074 163.407 287.001 162.758 286.854 162.366C286.706 161.964 286.486 161.762 286.191 161.762C285.876 161.762 285.629 161.952 285.453 162.332C285.284 162.714 285.199 163.373 285.199 164.314V167.706Z" fill="white"/>
<path d="M159 178V162.846L162.388 150H169.396L167.204 162.374H171.422V178H159ZM174.578 178V162.846L177.965 150H184.974L182.782 162.374H187V178H174.578Z" fill="white"/>
<path d="M310.107 182C308.299 182 306.994 181.353 306.193 180.057C305.397 178.763 305 176.703 305 173.875V171.093H308.914V174.653C308.914 175.311 308.982 175.829 309.116 176.206C309.26 176.574 309.503 176.756 309.848 176.756C310.208 176.756 310.455 176.605 310.591 176.304C310.733 176.001 310.804 175.505 310.804 174.815C310.804 173.941 310.744 173.212 310.625 172.63C310.504 172.036 310.295 171.475 309.994 170.947C309.701 170.407 309.293 169.782 308.768 169.07L306.991 166.643C305.663 164.841 305 162.779 305 160.461C305 158.033 305.39 156.182 306.17 154.91C306.957 153.637 308.093 153 309.578 153C311.393 153 312.679 153.696 313.436 155.088C314.201 156.479 314.583 158.594 314.583 161.432H310.557V159.473C310.557 159.085 310.478 158.782 310.32 158.567C310.171 158.351 309.964 158.244 309.701 158.244C309.387 158.244 309.155 158.373 309.004 158.631C308.862 158.88 308.79 159.204 308.79 159.603C308.79 160.003 308.866 160.433 309.015 160.897C309.166 161.361 309.462 161.895 309.905 162.499L312.188 165.654C312.645 166.281 313.066 166.944 313.447 167.646C313.83 168.336 314.138 169.145 314.37 170.073C314.603 170.99 314.718 172.112 314.718 173.439C314.718 176.115 314.374 178.212 313.684 179.734C313.002 181.245 311.809 182 310.107 182ZM321.445 181.74V153.26H327.475L329.139 170.624L330.793 153.26H336.879V181.74H333.256V161.221L330.984 181.74H327.43L325.023 161.221V181.74H321.445ZM343.493 181.74L345.404 153.26H352.121L353.999 181.74H350.253L349.972 177.145H347.587L347.34 181.74H343.493ZM347.868 172.598H349.668L348.802 158.115H348.622L347.868 172.598ZM360.613 181.74V153.26H366.688C367.7 153.26 368.464 153.594 368.982 154.263C369.499 154.921 369.845 155.848 370.017 157.046C370.197 158.232 370.287 159.63 370.287 161.237C370.287 162.791 370.148 164.031 369.871 164.96C369.6 165.887 369.087 166.529 368.329 166.885C368.952 167.069 369.387 167.516 369.634 168.228C369.889 168.93 370.017 169.841 370.017 170.963V181.74H366.113V170.591C366.113 169.76 365.993 169.248 365.754 169.053C365.521 168.848 365.142 168.746 364.617 168.746V181.74H360.613ZM364.64 163.809H365.596C366.144 163.809 366.418 162.953 366.418 161.237C366.418 160.126 366.358 159.398 366.237 159.053C366.117 158.707 365.892 158.535 365.562 158.535H364.64V163.809ZM378.689 181.74V158.729H376.339V153.26H385V158.729H382.649V181.74H378.689Z" fill="white"/>
<path d="M94.0014 351.88C91.5235 351.88 89.7346 350.923 88.6347 349.009C87.5449 347.094 87 344.047 87 339.867V335.752H92.3668V341.017C92.3668 341.99 92.4591 342.755 92.6448 343.314C92.8396 343.855 93.1734 344.128 93.6473 344.128C94.1405 344.128 94.4794 343.904 94.6651 343.457C94.8599 343.01 94.9573 342.276 94.9573 341.256C94.9573 339.963 94.8751 338.886 94.7107 338.025C94.5463 337.148 94.2582 336.318 93.8472 335.537C93.4464 334.739 92.8863 333.813 92.1669 332.762L89.7295 329.172C87.9102 326.508 87 323.461 87 320.032C87 316.442 87.5347 313.706 88.6042 311.825C89.6839 309.942 91.2414 309 93.2769 309C95.765 309 97.5275 310.03 98.5666 312.088C99.6148 314.145 100.139 317.272 100.139 321.467H94.6184V318.573C94.6184 317.998 94.5108 317.551 94.2947 317.231C94.0887 316.913 93.8066 316.753 93.4464 316.753C93.0141 316.753 92.6955 316.945 92.4906 317.327C92.2947 317.694 92.1973 318.173 92.1973 318.763C92.1973 319.354 92.2998 319.991 92.5058 320.678C92.7118 321.364 93.1176 322.153 93.7234 323.046L96.8548 327.712C97.4819 328.638 98.0572 329.619 98.5818 330.655C99.1054 331.677 99.5275 332.873 99.8461 334.245C100.165 335.6 100.324 337.26 100.324 339.222C100.324 343.178 99.8512 346.28 98.9055 348.53C97.9699 350.762 96.3353 351.88 94.0014 351.88ZM108.62 351.88C106.452 351.88 104.791 350.866 103.64 348.842C102.499 346.8 101.928 343.855 101.928 340.012V320.007C101.928 316.403 102.493 313.667 103.624 311.801C104.765 309.934 106.431 309 108.62 309C110.811 309 112.471 309.934 113.601 311.801C114.743 313.667 115.313 316.403 115.313 320.007V340.012C115.313 343.855 114.738 346.8 113.586 348.842C112.446 350.866 110.79 351.88 108.62 351.88ZM108.667 344.128C109.49 344.128 109.901 342.89 109.901 340.418V319.864C109.901 317.79 109.5 316.753 108.697 316.753C107.793 316.753 107.341 317.814 107.341 319.936V340.466C107.341 341.774 107.443 342.715 107.649 343.29C107.855 343.847 108.194 344.128 108.667 344.128ZM117.503 351.498V309.384H122.932V344.318H128.514V351.498H117.503ZM136.333 351.88C134.071 351.88 132.405 350.899 131.336 348.936C130.267 346.959 129.732 344.055 129.732 340.226V309.384H135.007V339.892C135.007 340.593 135.032 341.272 135.084 341.925C135.134 342.564 135.253 343.09 135.438 343.506C135.623 343.92 135.921 344.128 136.333 344.128C136.754 344.128 137.057 343.928 137.242 343.529C137.428 343.114 137.54 342.58 137.582 341.925C137.633 341.272 137.659 340.593 137.659 339.892V309.384H142.932V340.226C142.932 344.055 142.398 346.959 141.329 348.936C140.26 350.899 138.595 351.88 136.333 351.88ZM147.343 351.498V317.471H144.121V309.384H155.995V317.471H152.771V351.498H147.343ZM157.259 351.498V309.384H162.502V351.498H157.259ZM171.138 351.88C168.969 351.88 167.309 350.866 166.157 348.842C165.015 346.8 164.445 343.855 164.445 340.012V320.007C164.445 316.403 165.01 313.667 166.142 311.801C167.283 309.934 168.948 309 171.138 309C173.328 309 174.988 309.934 176.119 311.801C177.26 313.667 177.831 316.403 177.831 320.007V340.012C177.831 343.855 177.255 346.8 176.104 348.842C174.962 350.866 173.307 351.88 171.138 351.88ZM171.185 344.128C172.007 344.128 172.418 342.89 172.418 340.418V319.864C172.418 317.79 172.017 316.753 171.215 316.753C170.31 316.753 169.858 317.814 169.858 319.936V340.466C169.858 341.774 169.961 342.715 170.166 343.29C170.372 343.847 170.711 344.128 171.185 344.128ZM180.021 351.498V309.384H185.603L188.101 329.555V309.384H193.345V351.498H188.04L185.326 330.441V351.498H180.021ZM202.196 351.88C199.718 351.88 197.929 350.923 196.829 349.009C195.739 347.094 195.195 344.047 195.195 339.867V335.752H200.561V341.017C200.561 341.99 200.654 342.755 200.839 343.314C201.034 343.855 201.368 344.128 201.842 344.128C202.335 344.128 202.674 343.904 202.86 343.457C203.054 343.01 203.152 342.276 203.152 341.256C203.152 339.963 203.07 338.886 202.905 338.025C202.741 337.148 202.453 336.318 202.042 335.537C201.641 334.739 201.081 333.813 200.361 332.762L197.924 329.172C196.105 326.508 195.195 323.461 195.195 320.032C195.195 316.442 195.729 313.706 196.799 311.825C197.878 309.942 199.436 309 201.472 309C203.96 309 205.722 310.03 206.761 312.088C207.809 314.145 208.334 317.272 208.334 321.467H202.813V318.573C202.813 317.998 202.705 317.551 202.489 317.231C202.283 316.913 202.001 316.753 201.641 316.753C201.209 316.753 200.89 316.945 200.685 317.327C200.489 317.694 200.392 318.173 200.392 318.763C200.392 319.354 200.494 319.991 200.7 320.678C200.906 321.364 201.312 322.153 201.919 323.046L205.049 327.712C205.676 328.638 206.252 329.619 206.776 330.655C207.301 331.677 207.722 332.873 208.041 334.245C208.359 335.6 208.519 337.26 208.519 339.222C208.519 343.178 208.046 346.28 207.1 348.53C206.165 350.762 204.53 351.88 202.196 351.88ZM222.49 352C220.805 352 219.478 350.986 218.511 348.961C217.556 346.935 217.078 344.143 217.078 340.585C217.078 338.049 217.222 335.944 217.509 334.268C217.807 332.593 218.219 331.198 218.743 330.082C219.267 328.964 219.869 327.991 220.547 327.161L220.424 326.684C219.992 325.025 219.611 323.446 219.283 321.945C218.964 320.431 218.805 318.875 218.805 317.28C218.805 315.669 219.026 314.241 219.468 312.996C219.91 311.752 220.522 310.779 221.303 310.077C222.094 309.359 222.999 309 224.017 309C225.025 309 225.939 309.343 226.762 310.03C227.595 310.699 228.258 311.713 228.752 313.068C229.245 314.424 229.491 316.139 229.491 318.214C229.491 320.462 229.22 322.345 228.675 323.86C228.14 325.376 227.332 326.835 226.254 328.238L227.733 334.029C228.34 331.653 229.213 329.81 230.355 328.503L232.499 333.694C231.306 335.179 230.309 337.595 229.507 340.944L232.221 351.498H226.978L226.376 349.224C225.976 349.989 225.436 350.643 224.757 351.186C224.089 351.728 223.333 352 222.49 352ZM223.647 316.538C223.647 316.953 223.714 317.567 223.848 318.381C223.981 319.179 224.294 320.566 224.788 322.543C224.983 322.225 225.158 321.723 225.312 321.037C225.466 320.35 225.543 319.409 225.543 318.214C225.543 316.984 225.446 316.123 225.251 315.628C225.065 315.134 224.819 314.887 224.51 314.887C224.212 314.887 223.992 315.063 223.848 315.413C223.714 315.748 223.647 316.123 223.647 316.538ZM221.796 341.615C221.796 344.454 222.316 345.874 223.354 345.874C223.776 345.874 224.115 345.634 224.371 345.156C224.629 344.661 224.804 344.151 224.896 343.625L222.305 333.839C221.966 334.955 221.796 336.909 221.796 339.7V341.615ZM248.028 351.88C245.55 351.88 243.761 350.923 242.661 349.009C241.572 347.094 241.027 344.047 241.027 339.867V335.752H246.393V341.017C246.393 341.99 246.486 342.755 246.67 343.314C246.866 343.855 247.2 344.128 247.673 344.128C248.166 344.128 248.506 343.904 248.691 343.457C248.886 343.01 248.984 342.276 248.984 341.256C248.984 339.963 248.902 338.886 248.737 338.025C248.573 337.148 248.285 336.318 247.874 335.537C247.473 334.739 246.912 333.813 246.192 332.762L243.756 329.172C241.937 326.508 241.027 323.461 241.027 320.032C241.027 316.442 241.561 313.706 242.63 311.825C243.709 309.942 245.267 309 247.303 309C249.791 309 251.554 310.03 252.592 312.088C253.641 314.145 254.165 317.272 254.165 321.467H248.645V318.573C248.645 317.998 248.536 317.551 248.32 317.231C248.115 316.913 247.832 316.753 247.473 316.753C247.041 316.753 246.722 316.945 246.516 317.327C246.321 317.694 246.224 318.173 246.224 318.763C246.224 319.354 246.326 319.991 246.531 320.678C246.737 321.364 247.143 322.153 247.75 323.046L250.88 327.712C251.507 328.638 252.084 329.619 252.607 330.655C253.132 331.677 253.554 332.873 253.873 334.245C254.191 335.6 254.351 337.26 254.351 339.222C254.351 343.178 253.878 346.28 252.932 348.53C251.997 350.762 250.362 351.88 248.028 351.88ZM256.17 351.498V309.384H267.026V317.519H261.691V325.727H266.81V333.647H261.691V343.29H267.381V351.498H256.17ZM269.186 351.498V309.384H277.513C278.9 309.384 279.95 309.879 280.659 310.867C281.368 311.84 281.841 313.212 282.077 314.983C282.324 316.737 282.448 318.803 282.448 321.18C282.448 323.477 282.257 325.311 281.877 326.684C281.507 328.056 280.803 329.005 279.765 329.531C280.617 329.802 281.214 330.465 281.553 331.516C281.903 332.554 282.077 333.902 282.077 335.561V351.498H276.727V335.01C276.727 333.782 276.561 333.025 276.233 332.738C275.914 332.434 275.396 332.283 274.675 332.283V351.498H269.186ZM274.707 324.984H276.017C276.767 324.984 277.143 323.716 277.143 321.18C277.143 319.536 277.061 318.461 276.896 317.949C276.732 317.439 276.423 317.184 275.971 317.184H274.707V324.984ZM286.735 351.498L283.388 309.359H288.554L290.544 338.025L292.317 309.359H297.484L294.137 351.498H286.735ZM298.825 351.498V309.384H304.068V351.498H298.825ZM312.55 351.88C310.586 351.88 309.002 350.931 307.8 349.032C306.608 347.135 306.011 344.479 306.011 341.064V321.635C306.011 317.551 306.531 314.424 307.569 312.254C308.617 310.085 310.319 309 312.673 309C313.958 309 315.1 309.367 316.096 310.102C317.104 310.836 317.895 311.936 318.472 313.404C319.047 314.855 319.335 316.69 319.335 318.906V326.18H313.938V319.96C313.938 318.7 313.834 317.855 313.63 317.423C313.424 316.976 313.105 316.753 312.673 316.753C312.169 316.753 311.83 317.041 311.655 317.615C311.48 318.173 311.393 318.922 311.393 319.864V340.944C311.393 342.109 311.501 342.931 311.717 343.41C311.943 343.888 312.262 344.128 312.673 344.128C313.135 344.128 313.459 343.832 313.645 343.241C313.84 342.651 313.938 341.886 313.938 340.944V333.36H319.397V341.328C319.397 345.028 318.795 347.716 317.592 349.391C316.39 351.051 314.708 351.88 312.55 351.88ZM321.216 351.498V309.384H332.073V317.519H326.737V325.727H331.857V333.647H326.737V343.29H332.428V351.498H321.216ZM340.677 351.88C338.201 351.88 336.412 350.923 335.312 349.009C334.222 347.094 333.677 344.047 333.677 339.867V335.752H339.043V341.017C339.043 341.99 339.136 342.755 339.321 343.314C339.517 343.855 339.85 344.128 340.323 344.128C340.816 344.128 341.156 343.904 341.341 343.457C341.536 343.01 341.634 342.276 341.634 341.256C341.634 339.963 341.552 338.886 341.388 338.025C341.222 337.148 340.935 336.318 340.523 335.537C340.122 334.739 339.562 333.813 338.843 332.762L336.407 329.172C334.586 326.508 333.677 323.461 333.677 320.032C333.677 316.442 334.212 313.706 335.28 311.825C336.36 309.942 337.917 309 339.953 309C342.441 309 344.205 310.03 345.243 312.088C346.291 314.145 346.815 317.272 346.815 321.467H341.294V318.573C341.294 317.998 341.187 317.551 340.971 317.231C340.766 316.913 340.483 316.753 340.122 316.753C339.691 316.753 339.372 316.945 339.167 317.327C338.972 317.694 338.873 318.173 338.873 318.763C338.873 319.354 338.977 319.991 339.182 320.678C339.388 321.364 339.794 322.153 340.4 323.046L343.531 327.712C344.158 328.638 344.733 329.619 345.258 330.655C345.782 331.677 346.203 332.873 346.522 334.245C346.841 335.6 347 337.26 347 339.222C347 343.178 346.527 346.28 345.581 348.53C344.646 350.762 343.011 351.88 340.677 351.88Z" fill="white"/>
<path d="M361.58 347.711V322.09H359V316H368.507V322.09H365.926V347.711H361.58ZM374.457 348C370.769 348 368.926 345.206 368.926 339.621V328.775C368.926 326.227 369.416 324.198 370.395 322.685C371.374 321.158 372.729 320.396 374.457 320.396C376.194 320.396 377.552 321.158 378.53 322.685C379.51 324.198 380 326.227 380 328.775V339.621C380 345.206 378.152 348 374.457 348ZM374.457 343.026C374.827 343.026 375.091 342.834 375.247 342.45C375.411 342.053 375.494 341.555 375.494 340.954V327.748C375.494 326.174 375.148 325.386 374.457 325.386C373.766 325.386 373.42 326.174 373.42 327.748V340.954C373.42 341.555 373.498 342.053 373.654 342.45C373.819 342.834 374.087 343.026 374.457 343.026Z" fill="white"/>
</svg>
