<svg width="1201" height="583" viewBox="0 0 1201 583" fill="none" xmlns="http://www.w3.org/2000/svg">
<path d="M204.555 460.001C127.757 423.201 69.5193 455.333 50 479C42 469 19 460.001 0 479V583H50H1201V551C1173.16 462 1064.68 444 1022.45 479C1015.73 368 880.371 372 857.332 428C836.597 396 812.214 388.667 802.614 389C793.398 317 741.816 315.667 717.177 324C706.425 303.2 687.738 296.667 679.738 296C701.241 237.6 659.899 227 636.54 229C629.628 220.2 622.14 153.333 619.26 121H585.661C590.269 146.6 577.982 211 571.262 240C506.944 256 513.664 309 528.063 331C479.681 307 454 348 460.866 369C415.555 357.8 389.508 390.334 382.148 408.001C297.671 314.001 204.555 398 204.555 460.001Z" fill="white"/>
<path d="M583.127 30H622.627C615.146 15.6 606.157 4 602.348 0C594.036 9.2 586.071 23.8333 583.127 30Z" fill="#00D2A5"/>
<path d="M603.627 129L621.127 134C619.127 186.5 608.627 205 603.627 218C591.227 198.4 586.794 153.833 586.127 134L603.627 129Z" fill="#FFD991"/>
<path d="M603.627 129L615.127 132.764C613.813 172.287 606.913 186.213 603.627 196C595.478 181.245 592.565 147.695 592.127 132.764L603.627 129Z" fill="#FF8500"/>
<path d="M603.627 129L609.127 131.191C608.498 154.197 605.198 162.303 603.627 168C599.73 159.411 598.336 139.882 598.127 131.191L603.627 129Z" fill="#FFDC1C"/>
<path d="M561.127 149.5C559.527 124.3 573.46 112 580.627 109L586.627 133C576.627 135 565.46 144.833 561.127 149.5Z" fill="#00D2A5"/>
<path d="M645.627 149.5C647.227 124.3 633.294 112 626.127 109L620.127 133C630.127 135 641.294 144.833 645.627 149.5Z" fill="#00D2A5"/>
<path d="M621.627 135C603.627 128.2 590.293 132.167 585.127 135C566.127 78.5 577.127 44 584.127 28.5L603.627 22L621.627 28.5C639.127 57.5 631.127 113 621.627 135Z" fill="white"/>
<path d="M603.627 108.5C601.627 113.5 598.827 128.7 603.627 149.5C605.294 142.833 607.627 125.3 603.627 108.5Z" fill="#00D2A5"/>
<path d="M603.127 71C611.964 71 619.127 63.8366 619.127 55C619.127 46.1634 611.964 39 603.127 39C594.29 39 587.127 46.1634 587.127 55C587.127 63.8366 594.29 71 603.127 71Z" fill="#006AFF"/>
<path d="M594.627 48.5006C595.427 47.3006 594.293 47.3339 593.627 47.5006C588.827 53.9006 591.627 60.1672 593.627 62.5005C594.427 63.3005 594.627 62.1672 594.627 61.5005C591.427 56.3005 593.293 50.6672 594.627 48.5006Z" fill="white"/>
</svg>
