<svg width="1206" height="633" viewBox="0 0 1206 633" fill="none" xmlns="http://www.w3.org/2000/svg">
<path d="M1206 0H6V619H1206V0Z" fill="url(#paint0_linear_1007_16158)"/>
<path d="M204.555 510.001C127.757 473.201 69.5193 505.333 50 529C42 519 19 510.001 0 529V633H50H1201V601C1173.16 512 1064.68 494 1022.45 529C1015.73 418 880.371 422 857.332 478C836.597 446 812.214 438.667 802.614 439C793.398 367 741.816 365.667 717.177 374C706.425 353.2 687.738 346.667 679.738 346C701.241 287.6 659.899 277 636.54 279C629.628 270.2 622.14 203.333 619.26 171H585.661C590.269 196.6 577.982 261 571.262 290C506.944 306 513.664 359 528.063 381C479.681 357 454 398 460.866 419C415.555 407.8 389.508 440.334 382.148 458.001C297.671 364.001 204.555 448 204.555 510.001Z" fill="white"/>
<path d="M583.127 80H622.627C615.146 65.6 606.157 54 602.348 50C594.036 59.2 586.071 73.8333 583.127 80Z" fill="#00D2A5"/>
<path d="M603.627 179L621.127 184C619.127 236.5 608.627 255 603.627 268C591.227 248.4 586.794 203.833 586.127 184L603.627 179Z" fill="#FFD991"/>
<path d="M603.627 179L615.127 182.764C613.813 222.287 606.913 236.213 603.627 246C595.478 231.245 592.565 197.695 592.127 182.764L603.627 179Z" fill="#FF8500"/>
<path d="M603.627 179L609.127 181.191C608.498 204.197 605.198 212.303 603.627 218C599.73 209.411 598.336 189.882 598.127 181.191L603.627 179Z" fill="#FFDC1C"/>
<path d="M561.127 199.5C559.527 174.3 573.46 162 580.627 159L586.627 183C576.627 185 565.46 194.833 561.127 199.5Z" fill="#00D2A5"/>
<path d="M645.627 199.5C647.227 174.3 633.294 162 626.127 159L620.127 183C630.127 185 641.294 194.833 645.627 199.5Z" fill="#00D2A5"/>
<path d="M621.627 185C603.627 178.2 590.293 182.167 585.127 185C566.127 128.5 577.127 94 584.127 78.5L603.627 72L621.627 78.5C639.127 107.5 631.127 163 621.627 185Z" fill="white"/>
<path d="M603.627 158.5C601.627 163.5 598.827 178.7 603.627 199.5C605.294 192.833 607.627 175.3 603.627 158.5Z" fill="#00D2A5"/>
<path d="M603.127 121C611.964 121 619.127 113.837 619.127 105C619.127 96.1634 611.964 89 603.127 89C594.29 89 587.127 96.1634 587.127 105C587.127 113.837 594.29 121 603.127 121Z" fill="#006AFF"/>
<path d="M594.627 98.5006C595.427 97.3006 594.293 97.3339 593.627 97.5006C588.827 103.901 591.627 110.167 593.627 112.5C594.427 113.3 594.627 112.167 594.627 111.5C591.427 106.3 593.293 100.667 594.627 98.5006Z" fill="white"/>
<defs>
<linearGradient id="paint0_linear_1007_16158" x1="606" y1="0" x2="606" y2="619" gradientUnits="userSpaceOnUse">
<stop stop-color="#0046FF"/>
<stop offset="1" stop-color="#00AFC7"/>
</linearGradient>
</defs>
</svg>
