<svg width="75" height="75" viewBox="0 0 70 70" fill="none" xmlns="http://www.w3.org/2000/svg">
<path d="M66.5 14H51.3333V9.33333C51.3293 6.11304 48.7203 3.50399 45.5 3.5H24.5C21.2797 3.50399 18.6707 6.11304 18.6667 9.33333V14H3.5C1.56714 14 0 15.5671 0 17.5V43.4697C0.00740559 44.9497 0.939941 46.2662 2.33333 46.7635V63C2.33333 64.9329 3.90047 66.5 5.83333 66.5H64.1667C66.0995 66.5 67.6667 64.9329 67.6667 63V46.7646C69.0601 46.2668 69.9932 44.9497 70 43.4697V17.5C70 15.5671 68.4329 14 66.5 14ZM21 9.33333C21 7.40047 22.5671 5.83333 24.5 5.83333H45.5C47.4329 5.83333 49 7.40047 49 9.33333V14H46.6667V9.33333C46.6667 8.68905 46.1443 8.16667 45.5 8.16667H24.5C23.8557 8.16667 23.3333 8.68905 23.3333 9.33333V14H21V9.33333ZM44.3333 14H25.6667V10.5H44.3333V14ZM65.3333 63C65.3333 63.6443 64.811 64.1667 64.1667 64.1667H5.83333C5.18905 64.1667 4.66667 63.6443 4.66667 63V47.1646L30.3333 50.7044V53.6667C30.3333 55.5995 31.9005 57.1667 33.8333 57.1667H36.1667C38.0995 57.1667 39.6667 55.5995 39.6667 53.6667V50.7044L65.3333 47.1646V63ZM37.3333 53.6667C37.3333 54.311 36.811 54.8333 36.1667 54.8333H33.8333C33.189 54.8333 32.6667 54.311 32.6667 53.6667V46.6667C32.6667 46.0224 33.189 45.5 33.8333 45.5H36.1667C36.811 45.5 37.3333 46.0224 37.3333 46.6667V53.6667ZM67.6667 43.4697C67.6672 44.0513 67.2394 44.5447 66.6635 44.6261L66.3399 44.6706L39.6667 48.3489V46.6667C39.6667 44.7338 38.0995 43.1667 36.1667 43.1667H33.8333C31.9005 43.1667 30.3333 44.7338 30.3333 46.6667V48.3489L3.33765 44.6261C2.76172 44.5452 2.33276 44.0519 2.33333 43.4697V17.5C2.33333 16.8557 2.85571 16.3333 3.5 16.3333H66.5C67.1443 16.3333 67.6667 16.8557 67.6667 17.5V43.4697Z" fill="#1DA1F2"/>
</svg>
