<svg width="75" height="75" viewBox="0 0 70 70" fill="none" xmlns="http://www.w3.org/2000/svg">
<path d="M66.7827 61.3735H65.6162V30.9532C68.2503 29.2583 70 26.3028 70 22.9445C70 22.7661 69.9534 22.5906 69.8649 22.4357L61.7284 8.19676C61.1569 7.19693 60.0865 6.57568 58.9349 6.57568H11.0651C9.91348 6.57568 8.84311 7.1968 8.27162 8.19676L0.135078 22.4357C0.0466211 22.5906 0 22.7662 0 22.9445C0 26.3028 1.74973 29.2583 4.38375 30.9532V61.3735H3.21727C2.65098 61.3735 2.19187 61.8326 2.19187 62.3989C2.19187 62.9652 2.65098 63.4243 3.21727 63.4243H66.7827C67.3492 63.4243 67.8081 62.9652 67.8081 62.3989C67.8081 61.8326 67.349 61.3735 66.7827 61.3735ZM2.12146 23.9699H5.40873C5.97502 23.9699 6.43412 23.5108 6.43412 22.9445C6.43412 22.3782 5.97502 21.9191 5.40873 21.9191H2.79234L10.0522 9.21422C10.2595 8.85164 10.6475 8.62646 11.0651 8.62646H58.9349C59.3525 8.62646 59.7406 8.85164 59.9478 9.21422L67.2075 21.9191H64.5906C64.0242 21.9191 63.5652 22.3782 63.5652 22.9445C63.5652 23.5108 64.0242 23.9699 64.5906 23.9699H67.8784C67.3771 27.6044 64.251 30.4127 60.4808 30.4127C56.7108 30.4127 53.5862 27.6041 53.0847 23.9699H60.2072C60.7737 23.9699 61.2326 23.5108 61.2326 22.9445C61.2326 22.3782 60.7737 21.9191 60.2072 21.9191H9.7933C9.22701 21.9191 8.76791 22.3782 8.76791 22.9445C8.76791 23.5108 9.22701 23.9699 9.7933 23.9699H16.9151C16.4136 27.6041 13.2889 30.4127 9.51904 30.4127C5.74889 30.4127 2.62281 27.6044 2.12146 23.9699ZM50.8897 23.9699C50.3882 27.6041 47.2635 30.4127 43.4937 30.4127C39.7236 30.4127 36.5991 27.6041 36.0976 23.9699H50.8897ZM33.9024 23.9699C33.4009 27.6041 30.2762 30.4127 26.5063 30.4127C22.7365 30.4127 19.6118 27.6041 19.1103 23.9699H33.9024ZM58.0855 61.3736H46.9849V57.9446H58.0855V61.3736ZM58.0855 55.8938H46.9849V37.1214H58.0855V55.8938ZM63.5655 61.3736H60.1364V36.096C60.1364 35.5297 59.6775 35.0706 59.111 35.0706H45.9596C45.3932 35.0706 44.9343 35.5297 44.9343 36.096V61.3735H6.43453V31.9477C7.40264 32.2803 8.43951 32.4635 9.51904 32.4635C13.2234 32.4635 16.4403 30.3367 18.0127 27.2399C19.5851 30.3366 22.802 32.4635 26.5063 32.4635C30.2107 32.4635 33.4276 30.3367 35 27.2399C36.5724 30.3366 39.7893 32.4635 43.4937 32.4635C47.198 32.4635 50.4149 30.3367 51.9873 27.2399C53.5597 30.3366 56.7766 32.4635 60.481 32.4635C61.5605 32.4635 62.5974 32.2803 63.5655 31.9478V61.3736Z" fill="#1DA1F2"/>
<path d="M40.4795 35.0706H10.8887C10.3224 35.0706 9.86328 35.5297 9.86328 36.0959V56.9192C9.86328 57.4855 10.3224 57.9446 10.8887 57.9446H40.4795C41.046 57.9446 41.5049 57.4855 41.5049 56.9192V36.0959C41.5049 35.5295 41.046 35.0706 40.4795 35.0706ZM39.4541 55.8938H11.9141V37.1213H39.4541V55.8938Z" fill="#1DA1F2"/>
</svg>
