<svg width="75" height="75" viewBox="0 0 70 70" fill="none" xmlns="http://www.w3.org/2000/svg">
<path d="M1.09375 66.7188H68.9062V68.9062H1.09375V66.7188Z" fill="#1DA1F2"/>
<path d="M5.46875 27.3438H6.5625V31.7188H8.75V27.3438H9.84375C10.4486 27.3438 10.9375 26.8538 10.9375 26.25V10.9375C10.9375 10.3338 10.4486 9.84375 9.84375 9.84375H8.75V5.46875H6.5625V9.84375H5.46875C4.86391 9.84375 4.375 10.3338 4.375 10.9375V26.25C4.375 26.8538 4.86391 27.3438 5.46875 27.3438ZM6.5625 12.0312H8.75V25.1562H6.5625V12.0312Z" fill="#1DA1F2"/>
<path d="M16.4062 38.2812H17.5V42.6562H19.6875V38.2812H20.7812C21.3861 38.2812 21.875 37.7923 21.875 37.1875V21.875C21.875 21.2713 21.3861 20.7812 20.7812 20.7812H19.6875V16.4062H17.5V20.7812H16.4062C15.8014 20.7812 15.3125 21.2713 15.3125 21.875V37.1875C15.3125 37.7923 15.8014 38.2812 16.4062 38.2812ZM17.5 22.9688H19.6875V36.0938H17.5V22.9688Z" fill="#1DA1F2"/>
<path d="M27.3438 22.9688H28.4375V27.3438H30.625V22.9688H31.7188C32.3236 22.9688 32.8125 22.4788 32.8125 21.875V6.5625C32.8125 5.95875 32.3236 5.46875 31.7188 5.46875H30.625V1.09375H28.4375V5.46875H27.3438C26.7389 5.46875 26.25 5.95875 26.25 6.5625V21.875C26.25 22.4788 26.7389 22.9688 27.3438 22.9688ZM28.4375 7.65625H30.625V20.7812H28.4375V7.65625Z" fill="#1DA1F2"/>
<path d="M38.2812 47.0312H39.375V51.4062H41.5625V47.0312H42.6562C43.2611 47.0312 43.75 46.5423 43.75 45.9375V30.625C43.75 30.0213 43.2611 29.5312 42.6562 29.5312H41.5625V25.1562H39.375V29.5312H38.2812C37.6764 29.5312 37.1875 30.0213 37.1875 30.625V45.9375C37.1875 46.5423 37.6764 47.0312 38.2812 47.0312ZM39.375 31.7188H41.5625V44.8438H39.375V31.7188Z" fill="#1DA1F2"/>
<path d="M49.2188 22.9688H50.3125V27.3438H52.5V22.9688H53.5938C54.1986 22.9688 54.6875 22.4788 54.6875 21.875V6.5625C54.6875 5.95875 54.1986 5.46875 53.5938 5.46875H52.5V1.09375H50.3125V5.46875H49.2188C48.6139 5.46875 48.125 5.95875 48.125 6.5625V21.875C48.125 22.4788 48.6139 22.9688 49.2188 22.9688ZM50.3125 7.65625H52.5V20.7812H50.3125V7.65625Z" fill="#1DA1F2"/>
<path d="M60.1562 27.3438H61.25V31.7188H63.4375V27.3438H64.5312C65.1361 27.3438 65.625 26.8538 65.625 26.25V10.9375C65.625 10.3338 65.1361 9.84375 64.5312 9.84375H63.4375V5.46875H61.25V9.84375H60.1562C59.5514 9.84375 59.0625 10.3338 59.0625 10.9375V26.25C59.0625 26.8538 59.5514 27.3438 60.1562 27.3438ZM61.25 12.0312H63.4375V25.1562H61.25V12.0312Z" fill="#1DA1F2"/>
<path d="M5.46875 62.3438C7.88156 62.3438 9.84375 60.3816 9.84375 57.9688C9.84375 57.8331 9.81531 57.7041 9.80328 57.5717L23.7431 50.6023C24.5328 51.7464 25.8508 52.5 27.3438 52.5C28.747 52.5 29.983 51.8252 30.7847 50.7948L36.6702 55.8392C36.3136 56.4725 36.0938 57.1922 36.0938 57.9688C36.0938 60.3816 38.0559 62.3438 40.4688 62.3438C42.8816 62.3438 44.8438 60.3816 44.8438 57.9688C44.8438 57.7795 44.8109 57.6002 44.788 57.4175L62.2595 42.0022C62.9234 42.4091 63.6967 42.6562 64.5312 42.6562C66.9441 42.6562 68.9062 40.6941 68.9062 38.2812C68.9062 35.8684 66.9441 33.9062 64.5312 33.9062C62.1184 33.9062 60.1562 35.8684 60.1562 38.2812C60.1562 39.0644 60.3794 39.7884 60.7403 40.425L43.8988 55.2858C43.097 54.2631 41.8655 53.5938 40.4688 53.5938C39.6277 53.5938 38.8489 53.8431 38.1817 54.2566L31.6641 48.6697C31.6859 48.4892 31.7188 48.3109 31.7188 48.125C31.7188 45.7122 29.7566 43.75 27.3438 43.75C24.9309 43.75 22.9688 45.7122 22.9688 48.125C22.9688 48.2606 22.9972 48.3897 23.0092 48.522L9.06938 55.4925C8.27969 54.3473 6.96172 53.5938 5.46875 53.5938C3.05594 53.5938 1.09375 55.5559 1.09375 57.9688C1.09375 60.3816 3.05594 62.3438 5.46875 62.3438ZM64.5312 36.0938C65.7377 36.0938 66.7188 37.0748 66.7188 38.2812C66.7188 39.4877 65.7377 40.4688 64.5312 40.4688C63.3248 40.4688 62.3438 39.4877 62.3438 38.2812C62.3438 37.0748 63.3248 36.0938 64.5312 36.0938ZM42.6562 57.9688C42.6562 59.1752 41.6752 60.1562 40.4688 60.1562C39.2623 60.1562 38.2812 59.1752 38.2812 57.9688C38.2812 56.7623 39.2623 55.7812 40.4688 55.7812C41.6752 55.7812 42.6562 56.7623 42.6562 57.9688ZM27.3438 45.9375C28.5502 45.9375 29.5312 46.9186 29.5312 48.125C29.5312 49.3314 28.5502 50.3125 27.3438 50.3125C26.1373 50.3125 25.1562 49.3314 25.1562 48.125C25.1562 46.9186 26.1373 45.9375 27.3438 45.9375ZM5.46875 55.7812C6.67516 55.7812 7.65625 56.7623 7.65625 57.9688C7.65625 59.1752 6.67516 60.1562 5.46875 60.1562C4.26234 60.1562 3.28125 59.1752 3.28125 57.9688C3.28125 56.7623 4.26234 55.7812 5.46875 55.7812Z" fill="#1DA1F2"/>
</svg>
