<svg width="75" height="75" viewBox="0 0 56 75" fill="none" xmlns="http://www.w3.org/2000/svg">
<path d="M3.5 75H52.5C54.4297 75 56 73.4227 56 71.4844V22.2656C56 22.2258 55.9813 22.193 55.979 22.1555C55.9743 22.1016 55.9603 22.0547 55.9487 22.0031C55.912 21.8403 55.8404 21.6875 55.7387 21.5555C55.7223 21.5344 55.7247 21.5086 55.7083 21.4875L37.0417 0.39375C37.0347 0.386719 37.0253 0.386719 37.0183 0.379687C36.8759 0.230181 36.6963 0.121732 36.498 0.065625C36.4537 0.0515625 36.414 0.046875 36.3673 0.0398438C36.2997 0.028125 36.2367 0 36.1667 0H3.5C1.57033 0 0 1.57734 0 3.51562V71.4844C0 73.4227 1.57033 75 3.5 75ZM37.3333 4.25391L52.2363 21.0938H38.5C37.9867 21.0938 37.3333 20.1094 37.3333 19.3359V4.25391ZM2.33333 3.51562C2.33333 3.20482 2.45625 2.90675 2.67504 2.68698C2.89383 2.46722 3.19058 2.34375 3.5 2.34375H35V19.3359C35 21.232 36.5283 23.4375 38.5 23.4375H53.6667V71.4844C53.6667 71.7952 53.5438 72.0932 53.325 72.313C53.1062 72.5328 52.8094 72.6562 52.5 72.6562H3.5C2.84667 72.6562 2.33333 72.1406 2.33333 71.4844V3.51562Z" fill="#1DA1F2"/>
<path d="M12.8346 32.8125H43.168C43.4774 32.8125 43.7741 32.689 43.9929 32.4693C44.2117 32.2495 44.3346 31.9514 44.3346 31.6406C44.3346 31.3298 44.2117 31.0318 43.9929 30.812C43.7741 30.5922 43.4774 30.4688 43.168 30.4688H12.8346C12.5252 30.4688 12.2285 30.5922 12.0097 30.812C11.7909 31.0318 11.668 31.3298 11.668 31.6406C11.668 31.9514 11.7909 32.2495 12.0097 32.4693C12.2285 32.689 12.5252 32.8125 12.8346 32.8125Z" fill="#1DA1F2"/>
<path d="M12.8346 42.1875H43.168C43.4774 42.1875 43.7741 42.064 43.9929 41.8443C44.2117 41.6245 44.3346 41.3264 44.3346 41.0156C44.3346 40.7048 44.2117 40.4068 43.9929 40.187C43.7741 39.9672 43.4774 39.8438 43.168 39.8438H12.8346C12.5252 39.8438 12.2285 39.9672 12.0097 40.187C11.7909 40.4068 11.668 40.7048 11.668 41.0156C11.668 41.3264 11.7909 41.6245 12.0097 41.8443C12.2285 42.064 12.5252 42.1875 12.8346 42.1875Z" fill="#1DA1F2"/>
<path d="M12.8346 23.4375H26.8346C27.1441 23.4375 27.4408 23.314 27.6596 23.0943C27.8784 22.8745 28.0013 22.5764 28.0013 22.2656C28.0013 21.9548 27.8784 21.6568 27.6596 21.437C27.4408 21.2172 27.1441 21.0938 26.8346 21.0938H12.8346C12.5252 21.0938 12.2285 21.2172 12.0097 21.437C11.7909 21.6568 11.668 21.9548 11.668 22.2656C11.668 22.5764 11.7909 22.8745 12.0097 23.0943C12.2285 23.314 12.5252 23.4375 12.8346 23.4375Z" fill="#1DA1F2"/>
<path d="M12.8346 51.5625H43.168C43.4774 51.5625 43.7741 51.439 43.9929 51.2193C44.2117 50.9995 44.3346 50.7014 44.3346 50.3906C44.3346 50.0798 44.2117 49.7818 43.9929 49.562C43.7741 49.3422 43.4774 49.2188 43.168 49.2188H12.8346C12.5252 49.2188 12.2285 49.3422 12.0097 49.562C11.7909 49.7818 11.668 50.0798 11.668 50.3906C11.668 50.7014 11.7909 50.9995 12.0097 51.2193C12.2285 51.439 12.5252 51.5625 12.8346 51.5625Z" fill="#1DA1F2"/>
<path d="M12.8346 60.9375H43.168C43.4774 60.9375 43.7741 60.814 43.9929 60.5943C44.2117 60.3745 44.3346 60.0764 44.3346 59.7656C44.3346 59.4548 44.2117 59.1568 43.9929 58.937C43.7741 58.7172 43.4774 58.5938 43.168 58.5938H12.8346C12.5252 58.5938 12.2285 58.7172 12.0097 58.937C11.7909 59.1568 11.668 59.4548 11.668 59.7656C11.668 60.0764 11.7909 60.3745 12.0097 60.5943C12.2285 60.814 12.5252 60.9375 12.8346 60.9375Z" fill="#1DA1F2"/>
</svg>
