<svg width="75" height="75" viewBox="0 0 70 70" fill="none" xmlns="http://www.w3.org/2000/svg">
<g clip-path="url(#clip0)">
<path d="M6.83594 39.2515C6.08131 39.2515 5.46875 39.8641 5.46875 40.6187C5.46875 41.3733 6.08131 41.9859 6.83594 41.9859C7.59056 41.9859 8.20313 41.3733 8.20313 40.6187C8.20313 39.8641 7.59056 39.2515 6.83594 39.2515Z" fill="#1DA1F2"/>
<path d="M62.8384 43.9925L49.9494 48.4236C50.0066 48.1063 50.0386 47.7827 50.0386 47.4543C50.0386 44.439 47.5857 41.9855 44.5699 41.9855H35.7162C35.4813 41.9855 35.2495 41.9252 35.0449 41.8098L27.8218 37.7472C26.3937 36.9424 24.7707 36.5167 23.1285 36.5167H13.4364C12.8724 34.9258 11.3525 33.7829 9.57033 33.7829H1.36719C0.612031 33.7829 0 34.3949 0 35.1501V59.759C0 60.5141 0.612031 61.1262 1.36719 61.1262H9.57033C11.3119 61.1262 12.8051 60.0319 13.3979 58.4949C14.9456 58.6871 16.7363 59.1448 17.8616 59.8199L25.0116 64.1099C27.7203 65.7356 30.8216 66.5949 33.9811 66.5949C36.4847 66.5949 38.9104 66.0694 41.1914 65.0333L66.7093 53.7973C69.5355 52.6507 70.931 49.2599 69.3155 46.2713C68.1272 44.0721 65.3442 43.0937 62.8384 43.9925ZM10.9375 57.031C10.9343 57.7819 10.3218 58.3918 9.57033 58.3918H2.73438V36.5173H9.57033C10.3239 36.5173 10.9375 37.1304 10.9375 37.8845V57.031ZM65.6705 51.2685C65.6561 51.2739 65.6417 51.2803 65.6273 51.2861C65.6273 51.2861 40.0715 62.5387 40.0667 62.5409C38.1414 63.4167 36.0938 63.8605 33.9811 63.8605C31.3172 63.8605 28.7024 63.1364 26.4188 61.7654L19.2683 57.4753C17.7377 56.5573 15.5459 55.9976 13.6719 55.7733V39.2517H23.1285C24.3013 39.2517 25.4602 39.555 26.4808 40.1302L33.7039 44.1928C34.3159 44.5378 35.0123 44.7204 35.7162 44.7204H44.5699C46.0775 44.7204 47.3042 45.9466 47.3042 47.4548C47.3042 48.9571 46.077 50.1892 44.5699 50.1892H30.6715C29.9164 50.1892 29.3043 50.8012 29.3043 51.5564C29.3043 52.311 29.9164 52.923 30.6715 52.923H44.5699C45.4665 52.923 46.3493 52.7003 47.1328 52.2827C47.1328 52.2827 63.75 46.5704 63.7565 46.5683C64.9816 46.1261 66.3669 46.5661 66.9101 47.5712C67.7245 49.0778 67.0511 50.7158 65.6705 51.2685Z" fill="#1DA1F2"/>
<path d="M39.818 36.5798C40.0754 36.8025 40.3943 36.9136 40.7136 36.9136C41.033 36.9136 41.3524 36.8025 41.6093 36.5798C52.7641 26.9123 59.6642 22.0198 59.6642 14.4169C59.6642 8.40234 55.4061 3.41797 49.4241 3.41797C45.4956 3.41797 42.4873 5.68238 40.5497 9.08059C38.6164 5.68985 35.6112 3.41797 31.6768 3.41797C27.0973 3.41797 23.2686 6.38573 21.9228 10.9781C21.7102 11.7028 22.1257 12.4623 22.8505 12.6748C23.5752 12.8874 24.3346 12.4719 24.5466 11.7471C25.5426 8.3484 28.3411 6.15235 31.6768 6.15235C35.5771 6.15235 38.3131 9.61572 39.2322 12.8404C39.3961 13.4326 39.9355 13.8428 40.5497 13.8428C41.1644 13.8428 41.7033 13.4326 41.8672 12.8404C41.8859 12.7736 43.785 6.15235 49.4241 6.15235C53.703 6.15235 56.9298 9.70491 56.9298 14.4169C56.9298 20.4988 50.9847 24.8834 40.7126 33.7402C34.4539 28.3655 29.4824 24.5822 26.6567 20.8812C26.1985 20.2809 25.3408 20.1655 24.7405 20.6237C24.1402 21.082 24.0254 21.9397 24.4831 22.5405C27.6682 26.712 33.0451 30.7089 39.818 36.5798Z" fill="#1DA1F2"/>
<path d="M23.1055 15.4626C22.3508 15.4626 21.7383 16.0752 21.7383 16.8298C21.7383 17.5844 22.3508 18.197 23.1055 18.197C23.8601 18.197 24.4727 17.5844 24.4727 16.8298C24.4727 16.0752 23.8601 15.4626 23.1055 15.4626Z" fill="#1DA1F2"/>
</g>
<defs>
<clipPath id="clip0">
<rect width="70" height="70" fill="white"/>
</clipPath>
</defs>
</svg>
