<svg width="61" height="61" viewBox="0 0 61 61" fill="none" xmlns="http://www.w3.org/2000/svg">
<path d="M5.35352 6.09374C5.35352 5.89759 5.43144 5.70947 5.57014 5.57078C5.70883 5.43208 5.89695 5.35416 6.0931 5.35416H46.0306C46.2267 5.35416 46.4149 5.43208 46.5536 5.57078C46.6923 5.70947 46.7702 5.89759 46.7702 6.09374V35.6771C46.7702 36.2655 47.0039 36.8299 47.42 37.246C47.8361 37.6621 48.4005 37.8958 48.9889 37.8958C49.5774 37.8958 50.1417 37.6621 50.5578 37.246C50.9739 36.8299 51.2077 36.2655 51.2077 35.6771V6.09374C51.2077 4.72069 50.6622 3.40388 49.6913 2.43299C48.7205 1.4621 47.4036 0.916656 46.0306 0.916656H6.0931C4.72005 0.916656 3.40324 1.4621 2.43235 2.43299C1.46146 3.40388 0.916016 4.72069 0.916016 6.09374V54.9062C0.916016 57.764 3.23535 60.0833 6.0931 60.0833H26.8014C27.3899 60.0833 27.9542 59.8496 28.3703 59.4335C28.7864 59.0174 29.0202 58.453 29.0202 57.8646C29.0202 57.2761 28.7864 56.7118 28.3703 56.2957C27.9542 55.8796 27.3899 55.6458 26.8014 55.6458H6.0931C5.89695 55.6458 5.70883 55.5679 5.57014 55.4292C5.43144 55.2905 5.35352 55.1024 5.35352 54.9062V6.09374Z" fill="#1DA1F2"/>
<path d="M13.4902 15.7083C12.9018 15.7083 12.3374 15.9421 11.9213 16.3582C11.5052 16.7743 11.2715 17.3386 11.2715 17.9271C11.2715 18.5155 11.5052 19.0799 11.9213 19.496C12.3374 19.9121 12.9018 20.1458 13.4902 20.1458H38.6361C39.2245 20.1458 39.7889 19.9121 40.205 19.496C40.6211 19.0799 40.8548 18.5155 40.8548 17.9271C40.8548 17.3386 40.6211 16.7743 40.205 16.3582C39.7889 15.9421 39.2245 15.7083 38.6361 15.7083H13.4902ZM11.2715 29.7604C11.2715 29.172 11.5052 28.6076 11.9213 28.1915C12.3374 27.7754 12.9018 27.5417 13.4902 27.5417H26.8027C27.3912 27.5417 27.9555 27.7754 28.3716 28.1915C28.7877 28.6076 29.0215 29.172 29.0215 29.7604C29.0215 30.3489 28.7877 30.9132 28.3716 31.3293C27.9555 31.7454 27.3912 31.9792 26.8027 31.9792H13.4902C12.9018 31.9792 12.3374 31.7454 11.9213 31.3293C11.5052 30.9132 11.2715 30.3489 11.2715 29.7604ZM59.4331 43.1617C59.6511 42.9586 59.826 42.7136 59.9472 42.4414C60.0685 42.1693 60.1337 41.8755 60.139 41.5776C60.1442 41.2796 60.0894 40.9837 59.9778 40.7075C59.8663 40.4312 59.7002 40.1802 59.4895 39.9695C59.2788 39.7588 59.0278 39.5927 58.7515 39.4811C58.4753 39.3696 58.1793 39.3148 57.8814 39.32C57.5835 39.3253 57.2897 39.3905 57.0176 39.5117C56.7454 39.633 56.5004 39.8079 56.2973 40.0258L41.5944 54.7288L35.7665 48.9008C35.5634 48.6829 35.3184 48.508 35.0462 48.3867C34.7741 48.2655 34.4803 48.2003 34.1824 48.195C33.8844 48.1898 33.5885 48.2446 33.3123 48.3561C33.036 48.4677 32.785 48.6338 32.5743 48.8445C32.3636 49.0552 32.1975 49.3062 32.086 49.5825C31.9744 49.8587 31.9196 50.1546 31.9248 50.4526C31.9301 50.7505 31.9953 51.0443 32.1165 51.3164C32.2378 51.5886 32.4127 51.8336 32.6306 52.0367L40.0265 59.4325C40.4425 59.848 41.0064 60.0814 41.5944 60.0814C42.1824 60.0814 42.7463 59.848 43.1623 59.4325L59.4331 43.1617Z" fill="#1DA1F2"/>
</svg>
