<svg width="60" height="54" viewBox="0 0 60 54" fill="none" xmlns="http://www.w3.org/2000/svg">
<path d="M32.1886 3.49163C35.1053 1.39163 38.4886 0.341634 42.3095 0.341634C44.4095 0.341634 46.7136 0.895801 49.222 2.06247C51.7303 3.19997 53.7136 4.54163 55.172 6.08747C58.1761 9.8208 59.4303 14.1666 58.9928 19.125C58.5261 24.0833 56.8928 27.9625 54.0636 30.7041L31.9261 52.8416C31.372 53.3958 30.672 53.6583 29.8553 53.6583C29.0386 53.6583 28.3678 53.3958 27.8136 52.8416C27.5443 52.5759 27.3327 52.2574 27.1921 51.9061C27.0516 51.5547 26.9852 51.1782 26.997 50.8C26.997 49.9833 27.2595 49.2833 27.8136 48.7291L41.2011 35.3416C41.9303 34.7 41.9303 34.0291 41.2011 33.3C40.472 32.5708 39.8011 32.5708 39.1595 33.3L25.772 46.6875C25.502 46.9594 25.1786 47.1723 24.8222 47.3129C24.4657 47.4535 24.084 47.5186 23.7011 47.5041C22.8845 47.5041 22.2136 47.2416 21.6595 46.6875C21.3901 46.4217 21.1785 46.1032 21.038 45.7519C20.8974 45.4006 20.831 45.024 20.8428 44.6458C20.8428 43.8291 21.1053 43.1291 21.6595 42.575L35.047 29.1875C35.8345 28.4583 35.8345 27.7291 35.047 27C34.3761 26.2708 33.7345 26.2708 33.0053 27L19.6178 40.5333C19.3448 40.801 19.0209 41.0112 18.6652 41.1515C18.3095 41.2918 17.9292 41.3593 17.547 41.35C16.7303 41.35 16.0303 41.0875 15.4178 40.5333C14.8345 39.9791 14.5428 39.3083 14.5428 38.4916C14.5428 37.675 14.8636 36.9458 15.5053 36.3041L28.922 22.8875C29.6511 22.1583 29.6511 21.4875 28.922 20.8458C28.1928 20.2041 27.4928 20.2041 26.8511 20.8458L13.3178 34.2916C12.6761 34.875 12.0053 35.1958 11.2761 35.1958C10.4595 35.1958 9.75947 34.9041 9.23447 34.2916C8.6803 33.7083 8.38864 33.0083 8.38864 32.1916C8.38864 31.375 8.6803 30.7041 9.23447 30.15C18.1595 21.1666 23.672 15.7416 25.772 13.7291L36.1553 23.9958C37.2928 25.075 38.6053 25.6291 40.2095 25.6291C42.2511 25.6291 43.8553 24.8125 45.0511 23.1791C45.8678 21.9833 46.1595 20.6708 45.9261 19.2125C45.6928 17.7541 45.0803 16.5291 44.0886 15.5083L32.1886 3.49163V3.49163ZM38.197 21.9541L25.772 9.49997L5.12197 30.15C2.67197 27.6708 1.27197 23.8791 0.951136 18.7166C0.630303 13.5833 2.0303 9.1208 5.12197 5.38747C8.5928 1.9458 12.7345 0.195801 17.547 0.195801C22.3886 0.195801 26.5011 1.9458 29.8553 5.38747L42.3095 17.8416C42.8636 18.3958 43.1261 19.0666 43.1261 19.8833C43.1261 20.7 42.8636 21.4 42.3095 21.9541C41.7553 22.4791 41.0845 22.7708 40.2095 22.7708C39.422 22.7708 38.7511 22.4791 38.197 21.9541V21.9541Z" fill="#1DA1F2"/>
</svg>
