<svg width="60" height="45" viewBox="0 0 60 45" fill="none" xmlns="http://www.w3.org/2000/svg">
<path d="M9.33312 3.86112H50.6665V30.9722H54.1109V3.0139C54.1109 2.3398 53.8387 1.69332 53.3543 1.21667C52.8698 0.740011 52.2127 0.472229 51.5276 0.472229H8.47201C7.78686 0.472229 7.12978 0.740011 6.64531 1.21667C6.16084 1.69332 5.88867 2.3398 5.88867 3.0139V30.9722H9.33312V3.86112Z" fill="#2BA6F3"/>
<path d="M0.722656 34.3611V40.1222C0.722656 41.2906 1.19442 42.4112 2.03417 43.2374C2.87391 44.0636 4.01285 44.5278 5.20043 44.5278H54.6971C55.8847 44.5278 57.0236 44.0636 57.8634 43.2374C58.7031 42.4112 59.1749 41.2906 59.1749 40.1222V34.3611H0.722656ZM55.8338 40.1222C55.8338 40.3918 55.7249 40.6504 55.5311 40.8411C55.3373 41.0318 55.0745 41.1389 54.8004 41.1389H5.13155C4.85749 41.1389 4.59466 41.0318 4.40087 40.8411C4.20708 40.6504 4.09821 40.3918 4.09821 40.1222V36.9536H21.2343C21.4496 37.4534 21.809 37.8802 22.2681 38.1814C22.7272 38.4825 23.2659 38.6447 23.8177 38.648H36.0971C36.6489 38.6447 37.1875 38.4825 37.6466 38.1814C38.1057 37.8802 38.4651 37.4534 38.6804 36.9536H55.8338V40.1222Z" fill="#2BA6F3"/>
<path d="M40.4825 21.4691L32.7857 17.5689V14.2844C32.7857 13.4133 32.4395 12.5779 31.8234 11.962C31.2072 11.346 30.3714 11 29.5 11C28.6286 11 27.7928 11.346 27.1766 11.962C26.5605 12.5779 26.2143 13.4133 26.2143 14.2844V17.5689L18.5175 21.4691C18.3647 21.53 18.2336 21.6353 18.1414 21.7714C18.0491 21.9076 17.9998 22.0683 18 22.2327V26.3383C18 26.5561 18.0865 26.7649 18.2406 26.9189C18.3946 27.0729 18.6036 27.1594 18.8214 27.1594C18.9024 27.1575 18.9827 27.1437 19.0596 27.1183L26.2143 24.1377V28.2433L23.3804 29.6556C23.2436 29.7244 23.1289 29.8301 23.0491 29.9607C22.9692 30.0912 22.9275 30.2415 22.9286 30.3946V33.1699C22.9286 33.3877 23.0151 33.5965 23.1692 33.7505C23.3232 33.9045 23.5321 33.991 23.75 33.991C23.8262 34.003 23.9038 34.003 23.98 33.991L29.5 32.3488L35.02 33.991C35.0962 34.003 35.1738 34.003 35.25 33.991C35.4679 33.991 35.6768 33.9045 35.8308 33.7505C35.9849 33.5965 36.0714 33.3877 36.0714 33.1699V30.3946C36.0725 30.2415 36.0308 30.0912 35.9509 29.9607C35.8711 29.8301 35.7564 29.7244 35.6196 29.6556L32.7857 28.2433V24.1377L39.9404 27.1019C40.0173 27.1273 40.0976 27.1411 40.1786 27.143C40.3964 27.143 40.6054 27.0565 40.7594 26.9025C40.9135 26.7485 41 26.5396 41 26.3219V22.2163C40.9969 22.0547 40.9462 21.8976 40.8541 21.7646C40.762 21.6317 40.6328 21.5289 40.4825 21.4691ZM39.3571 25.082L31.1429 21.6744V29.2614L34.4286 30.9036V32.0778L29.5 30.6409L24.5714 32.0778V30.9036L27.8571 29.2614V21.6744L19.6429 25.082V22.7418L27.8571 18.5788V14.2844C27.8571 13.8489 28.0302 13.4312 28.3383 13.1232C28.6464 12.8152 29.0643 12.6422 29.5 12.6422C29.9357 12.6422 30.3536 12.8152 30.6617 13.1232C30.9698 13.4312 31.1429 13.8489 31.1429 14.2844V18.5788L39.3571 22.7418V25.082Z" fill="#2BA6F3"/>
</svg>
