<svg width="55" height="51" viewBox="0 0 55 51" fill="none" xmlns="http://www.w3.org/2000/svg">
<path d="M19.4116 0H32.3526V12.75H19.4116V0ZM0 38.25H12.941V51H0V38.25ZM0 19.125H12.941V31.875H0V19.125ZM0 0H12.941V12.75H0V0ZM32.3526 26.8388V19.125H19.4116V31.875H27.2409L32.3526 26.8388ZM54.6112 23.2369L50.826 19.5075C50.7028 19.3861 50.5565 19.2897 50.3955 19.224C50.2345 19.1583 50.062 19.1244 49.8877 19.1244C49.7135 19.1244 49.5409 19.1583 49.3799 19.224C49.219 19.2897 49.0727 19.3861 48.9495 19.5075L46.1025 22.3125L51.7642 27.8906L54.6112 25.0856C54.7345 24.9643 54.8322 24.8202 54.899 24.6615C54.9657 24.5029 55 24.3329 55 24.1612C55 23.9896 54.9657 23.8196 54.899 23.6609C54.8322 23.5023 54.7345 23.3582 54.6112 23.2369ZM22.6468 45.4219V51H28.3085L49.8877 29.7394L44.226 24.1612L22.6468 45.4219ZM38.8231 0H51.7642V12.75H38.8231V0Z" fill="#2BA6F3"/>
</svg>
