<svg width="255" height="56" viewBox="0 0 255 56" fill="none" xmlns="http://www.w3.org/2000/svg">
<path d="M0.272727 9.59091L1.81818 0.454544H41.1591L39.6136 9.59091H25.5L19.3182 47H8.22727L14.4091 9.59091H0.272727ZM43.1818 47H31.0909L54.5227 0.454544H69.5L77.4773 47H65.3864L60.2727 12.1818H59.9091L43.1818 47ZM44.6364 28.6818H69.9091L68.4545 37.2273H43.1818L44.6364 28.6818ZM101.17 0.454544L107.216 15.1591H107.58L118.625 0.454544H131.648L113.784 23.7273L124.375 47H111.761L105.489 32.1364H105.125L93.9432 47H80.8295L99.1705 23.7273L88.9205 0.454544H101.17Z" fill="#FCFCFF"/>
<path d="M141.057 47.4545C139.087 47.4545 137.359 46.9858 135.872 46.0483C134.395 45.1108 133.24 43.7992 132.406 42.1136C131.582 40.428 131.17 38.4583 131.17 36.2045C131.17 33.9318 131.582 31.9479 132.406 30.2528C133.24 28.5578 134.395 27.2415 135.872 26.304C137.359 25.3665 139.087 24.8977 141.057 24.8977C143.027 24.8977 144.75 25.3665 146.227 26.304C147.714 27.2415 148.869 28.5578 149.693 30.2528C150.527 31.9479 150.943 33.9318 150.943 36.2045C150.943 38.4583 150.527 40.428 149.693 42.1136C148.869 43.7992 147.714 45.1108 146.227 46.0483C144.75 46.9858 143.027 47.4545 141.057 47.4545ZM141.057 44.4432C142.553 44.4432 143.784 44.0597 144.75 43.2926C145.716 42.5256 146.431 41.517 146.895 40.267C147.359 39.017 147.591 37.6629 147.591 36.2045C147.591 34.7462 147.359 33.3873 146.895 32.1278C146.431 30.8684 145.716 29.8504 144.75 29.0739C143.784 28.2973 142.553 27.9091 141.057 27.9091C139.561 27.9091 138.33 28.2973 137.364 29.0739C136.398 29.8504 135.683 30.8684 135.219 32.1278C134.755 33.3873 134.523 34.7462 134.523 36.2045C134.523 37.6629 134.755 39.017 135.219 40.267C135.683 41.517 136.398 42.5256 137.364 43.2926C138.33 44.0597 139.561 44.4432 141.057 44.4432ZM159.413 17.9091V47H156.06V17.9091H159.413ZM174.416 47.4545C172.446 47.4545 170.718 46.9858 169.232 46.0483C167.754 45.1108 166.599 43.7992 165.766 42.1136C164.942 40.428 164.53 38.4583 164.53 36.2045C164.53 33.9318 164.942 31.9479 165.766 30.2528C166.599 28.5578 167.754 27.2415 169.232 26.304C170.718 25.3665 172.446 24.8977 174.416 24.8977C176.386 24.8977 178.109 25.3665 179.587 26.304C181.073 27.2415 182.229 28.5578 183.053 30.2528C183.886 31.9479 184.303 33.9318 184.303 36.2045C184.303 38.4583 183.886 40.428 183.053 42.1136C182.229 43.7992 181.073 45.1108 179.587 46.0483C178.109 46.9858 176.386 47.4545 174.416 47.4545ZM174.416 44.4432C175.912 44.4432 177.143 44.0597 178.109 43.2926C179.075 42.5256 179.79 41.517 180.254 40.267C180.718 39.017 180.95 37.6629 180.95 36.2045C180.95 34.7462 180.718 33.3873 180.254 32.1278C179.79 30.8684 179.075 29.8504 178.109 29.0739C177.143 28.2973 175.912 27.9091 174.416 27.9091C172.92 27.9091 171.689 28.2973 170.723 29.0739C169.757 29.8504 169.042 30.8684 168.578 32.1278C168.114 33.3873 167.882 34.7462 167.882 36.2045C167.882 37.6629 168.114 39.017 168.578 40.267C169.042 41.517 169.757 42.5256 170.723 43.2926C171.689 44.0597 172.92 44.4432 174.416 44.4432ZM198.227 55.6364C196.607 55.6364 195.215 55.428 194.05 55.0114C192.886 54.6042 191.915 54.0644 191.138 53.392C190.371 52.7292 189.761 52.0189 189.306 51.2614L191.977 49.3864C192.28 49.7841 192.663 50.2386 193.127 50.75C193.591 51.2708 194.226 51.7206 195.031 52.0994C195.845 52.4877 196.91 52.6818 198.227 52.6818C199.988 52.6818 201.442 52.2557 202.587 51.4034C203.733 50.5511 204.306 49.2159 204.306 47.3977V42.9659H204.022C203.776 43.3636 203.425 43.8561 202.971 44.4432C202.526 45.0208 201.882 45.5369 201.039 45.9915C200.206 46.4366 199.079 46.6591 197.658 46.6591C195.897 46.6591 194.316 46.2424 192.914 45.4091C191.522 44.5758 190.419 43.3636 189.604 41.7727C188.799 40.1818 188.397 38.25 188.397 35.9773C188.397 33.7424 188.79 31.7964 189.576 30.1392C190.362 28.4725 191.456 27.1847 192.857 26.2756C194.259 25.357 195.878 24.8977 197.715 24.8977C199.136 24.8977 200.263 25.1345 201.096 25.608C201.939 26.072 202.583 26.6023 203.028 27.1989C203.482 27.786 203.833 28.2689 204.079 28.6477H204.42V25.1818H207.658V47.625C207.658 49.5 207.232 51.0246 206.38 52.1989C205.537 53.3826 204.401 54.2491 202.971 54.7983C201.55 55.357 199.969 55.6364 198.227 55.6364ZM198.113 43.6477C199.458 43.6477 200.594 43.34 201.522 42.7244C202.45 42.1089 203.156 41.2235 203.638 40.0682C204.121 38.9129 204.363 37.5303 204.363 35.9205C204.363 34.3485 204.126 32.9612 203.653 31.7585C203.179 30.5559 202.478 29.6136 201.55 28.9318C200.622 28.25 199.477 27.9091 198.113 27.9091C196.692 27.9091 195.509 28.2689 194.562 28.9886C193.624 29.7083 192.919 30.6742 192.445 31.8864C191.981 33.0985 191.749 34.4432 191.749 35.9205C191.749 37.4356 191.986 38.7756 192.46 39.9403C192.942 41.0956 193.653 42.0047 194.59 42.6676C195.537 43.321 196.711 43.6477 198.113 43.6477ZM213.795 47V25.1818H217.147V47H213.795ZM215.499 21.5455C214.846 21.5455 214.282 21.3229 213.809 20.8778C213.345 20.4328 213.113 19.8977 213.113 19.2727C213.113 18.6477 213.345 18.1127 213.809 17.6676C214.282 17.2225 214.846 17 215.499 17C216.153 17 216.711 17.2225 217.175 17.6676C217.649 18.1127 217.886 18.6477 217.886 19.2727C217.886 19.8977 217.649 20.4328 217.175 20.8778C216.711 21.3229 216.153 21.5455 215.499 21.5455ZM238.741 30.0682L235.73 30.9205C235.541 30.4186 235.261 29.9309 234.892 29.4574C234.532 28.9744 234.04 28.5767 233.415 28.2642C232.79 27.9517 231.99 27.7955 231.014 27.7955C229.679 27.7955 228.566 28.1032 227.676 28.7188C226.795 29.3248 226.355 30.0966 226.355 31.0341C226.355 31.8674 226.658 32.5256 227.264 33.0085C227.87 33.4915 228.817 33.8939 230.105 34.2159L233.344 35.0114C235.295 35.4848 236.748 36.2093 237.705 37.1847C238.661 38.1506 239.139 39.3958 239.139 40.9205C239.139 42.1705 238.779 43.2879 238.06 44.2727C237.349 45.2576 236.355 46.0341 235.077 46.6023C233.798 47.1705 232.312 47.4545 230.616 47.4545C228.391 47.4545 226.549 46.9716 225.091 46.0057C223.633 45.0398 222.709 43.6288 222.321 41.7727L225.503 40.9773C225.806 42.1515 226.379 43.0322 227.222 43.6193C228.074 44.2064 229.187 44.5 230.56 44.5C232.122 44.5 233.363 44.1686 234.281 43.5057C235.209 42.8333 235.673 42.0284 235.673 41.0909C235.673 40.3333 235.408 39.6989 234.878 39.1875C234.348 38.6667 233.533 38.2784 232.435 38.0227L228.798 37.1705C226.8 36.697 225.332 35.9631 224.395 34.9688C223.467 33.965 223.003 32.7102 223.003 31.2045C223.003 29.9735 223.348 28.8845 224.04 27.9375C224.741 26.9905 225.692 26.2472 226.895 25.7074C228.107 25.1676 229.48 24.8977 231.014 24.8977C233.173 24.8977 234.868 25.3712 236.099 26.3182C237.34 27.2652 238.221 28.5152 238.741 30.0682ZM253.674 25.1818V28.0227H242.367V25.1818H253.674ZM245.663 19.9545H249.015V40.75C249.015 41.697 249.152 42.4072 249.427 42.8807C249.711 43.3447 250.071 43.6572 250.506 43.8182C250.951 43.9697 251.42 44.0455 251.913 44.0455C252.282 44.0455 252.585 44.0265 252.822 43.9886C253.058 43.9413 253.248 43.9034 253.39 43.875L254.072 46.8864C253.844 46.9716 253.527 47.0568 253.12 47.142C252.713 47.2367 252.197 47.2841 251.572 47.2841C250.625 47.2841 249.697 47.0805 248.788 46.6733C247.888 46.2661 247.14 45.6458 246.543 44.8125C245.956 43.9792 245.663 42.928 245.663 41.6591V19.9545Z" fill="#FDF7F7"/>
</svg>
