<svg width="484" height="446" viewBox="0 0 484 446" fill="none" xmlns="http://www.w3.org/2000/svg">
<path d="M279.764 124.831L276.166 118.542L256.39 130.412L260.005 136.684L248.681 157.034L241.566 157.101L241.731 180.503L248.863 180.452L260.467 200.65L256.935 206.973L276.875 218.539L280.391 212.199L303.32 212.031L306.919 218.303L326.694 206.45L323.079 200.178L334.403 179.812L341.534 179.761L341.369 156.359L334.238 156.41L322.634 136.212L326.15 129.889L306.209 118.323L302.693 124.663L279.764 124.831Z" fill="white" stroke="#0C5AE5" stroke-width="0.6218" stroke-miterlimit="10" stroke-linecap="round" stroke-linejoin="round"/>
<path d="M291.551 187.162C301.679 187.162 309.89 178.776 309.89 168.431C309.89 158.086 301.679 149.699 291.551 149.699C281.422 149.699 273.211 158.086 273.211 168.431C273.211 178.776 281.422 187.162 291.551 187.162Z" fill="white" stroke="#0C5AE5" stroke-width="0.6218" stroke-miterlimit="10" stroke-linecap="round" stroke-linejoin="round"/>
<path d="M54.2259 51.5059C54.2259 51.5059 9.37575 91.5314 59.079 142.432" stroke="#0C5AE5" stroke-width="0.6218" stroke-miterlimit="10" stroke-linecap="round" stroke-linejoin="round" stroke-dasharray="6.22 3.11"/>
<path d="M14.9048 274.042C8.43394 285.287 -5.48166 296.095 4.48871 311.741C11.3722 322.531 25.1888 326.358 19.8074 341.701C17.678 347.77 13.6007 352.373 14.8223 359.201C15.8952 365.153 20.4512 369.84 24.4625 373.954C27.9125 377.478 33.4589 380.799 36.0176 385.115C40.2104 392.146 35.9185 397.423 33.9377 404.42C32.0393 411.079 31.7422 418.43 35.3573 424.652C40.1444 432.879 49.4875 433.722 55.6447 439.725C55.6447 439.725 83.9546 458.625 95.5427 423.741C98.2829 415.497 102.344 407.944 100.379 398.603C98.8937 391.539 93.7764 386.346 87.9494 382.789C81.8417 379.046 75.1893 378.135 73.5716 370.076C72.5811 365.136 74.4299 358.847 74.6115 353.874C74.8261 348.074 75.0407 341.465 71.8713 336.373C68.2232 330.506 62.1651 329.966 56.5526 326.999C42.4059 319.496 49.9827 307.087 47.8368 294.392C44.7334 275.998 27.3347 277.751 15.1029 273.991L14.9048 274.042Z" fill="#D4E6FC" stroke="#D4E6FC" stroke-width="0.1554" stroke-miterlimit="10"/>
<path d="M26.1641 303.024L80.3739 444.142" stroke="#0C5AE5" stroke-width="0.6218" stroke-miterlimit="10" stroke-linecap="round" stroke-linejoin="round"/>
<path d="M28.4727 351.851L49.8825 364.765" stroke="#0C5AE5" stroke-width="0.6218" stroke-miterlimit="10" stroke-linecap="round" stroke-linejoin="round"/>
<path d="M70.2695 417.84L81.8411 398.316" stroke="#0C5AE5" stroke-width="0.6218" stroke-miterlimit="10" stroke-linecap="round" stroke-linejoin="round"/>
<path d="M42.7188 346.135L48.4137 328.398" stroke="#0C5AE5" stroke-width="0.6218" stroke-miterlimit="10" stroke-linecap="round" stroke-linejoin="round"/>
<path d="M62.0488 271.227H171.277V205.018L62.0488 221.692V271.227Z" fill="#0C5AE5"/>
<path d="M60.4648 444.833L77.5168 426.911H91.9276V444.833H60.4648Z" fill="#0C5AE5"/>
<path d="M154.26 444.833L143.233 426.911H128.822V444.833H154.26Z" fill="#0C5AE5"/>
<path d="M162.694 270.89V431.666H118.521V303.412H112.76L104.655 431.666H60.4648L68.5699 303.412L70.6333 270.89H162.694Z" fill="#1B3151" stroke="#0C5AE5" stroke-width="0.6158" stroke-miterlimit="10" stroke-linecap="round" stroke-linejoin="round"/>
<path d="M183.757 191.445C183.757 154.269 155.893 137.696 119.511 136.802C118.768 136.785 118.009 136.769 117.25 136.769C62.5117 136.769 45.2452 177.401 42.6535 184.415C36.876 200.027 20.6328 248.988 72.9773 271.631C88.7253 278.443 99.9832 261.92 108.385 257.503C123.044 249.798 128.326 247.876 128.326 247.876L183.757 191.445Z" fill="#3655CE"/>
<path d="M159.509 209.957C159.509 209.957 165.353 237.152 197.988 231.268C230.622 225.384 221.081 174.13 221.081 174.13H195.825L194.901 197.717C194.901 197.717 181.513 162.26 164.725 150.104C154.507 142.703 159.509 209.957 159.509 209.957Z" fill="#0C5AE5"/>
<path d="M170.898 199.302V227.525" stroke="white" stroke-width="0.6218" stroke-miterlimit="10" stroke-linecap="round" stroke-linejoin="round"/>
<path d="M95.2466 265.578L104.441 275.003L111.836 283.956L108.733 287.125L111.457 290.801L96.1215 302.974L76.1973 278.51L95.2466 265.578Z" fill="white" stroke="#0C5AE5" stroke-width="0.6218" stroke-miterlimit="10" stroke-linecap="round" stroke-linejoin="round"/>
<path d="M108.272 293.145L101.686 285.474" stroke="#0C5AE5" stroke-width="0.6218" stroke-miterlimit="10" stroke-linecap="round" stroke-linejoin="round"/>
<path d="M103.946 296.179L97.3594 288.491" stroke="#0C5AE5" stroke-width="0.6218" stroke-miterlimit="10" stroke-linecap="round" stroke-linejoin="round"/>
<path d="M99.8853 299.501L93.2988 291.812" stroke="#0C5AE5" stroke-width="0.6218" stroke-miterlimit="10" stroke-linecap="round" stroke-linejoin="round"/>
<path d="M108.815 287.295L103.945 281.545" stroke="#0C5AE5" stroke-width="0.6218" stroke-miterlimit="10" stroke-linecap="round" stroke-linejoin="round"/>
<path d="M70.6668 200.718C56.8172 230.914 99.2739 264.162 99.2739 264.162L73.8692 283.5C73.8692 283.5 39.7322 253.995 37.9824 234.033" fill="#0C5AE5"/>
<path d="M114.179 120.246C114.179 120.246 98.0022 124.528 97.0448 104.431C96.0873 84.3338 127.649 77.1009 135.078 85.4971C142.506 93.8934 114.179 120.246 114.179 120.246Z" fill="black"/>
<path d="M115.698 147.694C121.211 147.694 125.668 143.125 125.668 137.51V104.397H105.711V137.51C105.711 143.125 110.184 147.694 115.698 147.694Z" fill="white" stroke="#0C5AE5" stroke-width="0.6218" stroke-miterlimit="10" stroke-linecap="round" stroke-linejoin="round"/>
<path d="M98.7118 106.032C98.4642 109.151 100.742 111.882 103.796 112.135C104.275 112.169 104.737 112.152 105.183 112.068C105.397 114.141 106.041 116.114 107.015 117.851C109.342 122.066 113.618 125.05 118.702 125.471C126.84 126.146 133.971 119.941 134.615 111.629C135.259 103.317 129.201 96.0336 121.063 95.376C115.549 94.9208 110.498 97.6184 107.626 102.002C106.817 101.344 105.81 100.94 104.704 100.839C101.617 100.603 98.9429 102.929 98.7118 106.032Z" fill="white" stroke="#0C5AE5" stroke-width="0.6218" stroke-miterlimit="10" stroke-linecap="round" stroke-linejoin="round"/>
<path d="M106.933 108.898C106.933 108.898 106.982 106.032 104.209 106.201" stroke="#0C5AE5" stroke-width="0.6218" stroke-miterlimit="10" stroke-linecap="round" stroke-linejoin="round"/>
<path d="M421.53 172.883H144.158V444.834H421.53V172.883Z" fill="#D4E6FC"/>
<path d="M199.803 163.02L199.968 178.851L219.38 178.75L219.777 163.171L199.803 163.02Z" fill="white" stroke="#0C5AE5" stroke-width="0.6218" stroke-miterlimit="10" stroke-linecap="round" stroke-linejoin="round"/>
<path d="M203.898 178.581L204.163 168.364" stroke="#0C5AE5" stroke-width="0.6218" stroke-miterlimit="10" stroke-linecap="round" stroke-linejoin="round"/>
<path d="M209.113 178.076L209.378 167.876" stroke="#0C5AE5" stroke-width="0.6218" stroke-miterlimit="10" stroke-linecap="round" stroke-linejoin="round"/>
<path d="M214.312 177.975L214.577 167.774" stroke="#0C5AE5" stroke-width="0.6218" stroke-miterlimit="10" stroke-linecap="round" stroke-linejoin="round"/>
<path d="M70.6657 200.718C56.8161 230.914 99.2728 264.162 99.2728 264.162" stroke="white" stroke-width="0.6218" stroke-miterlimit="10" stroke-linecap="round" stroke-linejoin="round"/>
<path d="M384.372 224.542H181.795V256.357H384.372V224.542Z" fill="white"/>
<path d="M384.372 269.709H181.795V301.524H384.372V269.709Z" fill="white"/>
<path d="M384.372 316.276H181.795V348.091H384.372V316.276Z" fill="white"/>
<path d="M344.061 370.684H222.105V402.499H344.061V370.684Z" fill="#3655CE"/>
<path d="M379.533 153.054C401.049 153.054 418.49 135.239 418.49 113.264C418.49 91.289 401.049 73.4746 379.533 73.4746C358.018 73.4746 340.576 91.289 340.576 113.264C340.576 135.239 358.018 153.054 379.533 153.054Z" fill="white" stroke="#0C5AE5" stroke-width="0.6218" stroke-miterlimit="10" stroke-linecap="round" stroke-linejoin="round" stroke-dasharray="6.22 3.11"/>
<path d="M24.0664 444.731H483.001" stroke="#0C5AE5" stroke-width="0.6218" stroke-miterlimit="10" stroke-linecap="round" stroke-linejoin="round"/>
<path d="M442.56 444.732H374.616L365.389 367.445H451.804L442.56 444.732Z" fill="#3655CE"/>
<path d="M457.548 367.445H359.627V385.064H457.548V367.445Z" fill="white" stroke="#0C5AE5" stroke-width="0.6218" stroke-miterlimit="10" stroke-linecap="round" stroke-linejoin="round"/>
<path d="M408.588 367.446V288.692" stroke="#0C5AE5" stroke-width="0.6218" stroke-miterlimit="10" stroke-linecap="round" stroke-linejoin="round"/>
<path d="M408.588 325.852C432.346 325.852 451.606 306.18 451.606 281.915C451.606 257.649 432.346 237.978 408.588 237.978C384.83 237.978 365.57 257.649 365.57 281.915C365.57 306.18 384.83 325.852 408.588 325.852Z" fill="white" stroke="#0C5AE5" stroke-width="0.6218" stroke-miterlimit="10" stroke-linecap="round" stroke-linejoin="round"/>
<path d="M408.588 317.219C427.678 317.219 443.154 301.412 443.154 281.914C443.154 262.416 427.678 246.609 408.588 246.609C389.497 246.609 374.021 262.416 374.021 281.914C374.021 301.412 389.497 317.219 408.588 317.219Z" fill="white" stroke="#0C5AE5" stroke-width="0.6158" stroke-miterlimit="10" stroke-linecap="round" stroke-linejoin="round"/>
<path d="M408.588 367.26C408.588 367.26 408.588 333.759 375.326 329.611C372.553 357.548 408.588 367.26 408.588 367.26Z" fill="#3655CE"/>
<path d="M382.375 338.918L400.731 357.228" stroke="white" stroke-width="0.6218" stroke-miterlimit="10" stroke-linecap="round" stroke-linejoin="round"/>
<path d="M408.752 367.631C408.752 367.631 408.752 334.13 442.014 329.982C444.787 357.936 408.752 367.631 408.752 367.631Z" fill="#3655CE"/>
<path d="M434.982 339.289L416.609 357.599" stroke="white" stroke-width="0.6218" stroke-miterlimit="10" stroke-linecap="round" stroke-linejoin="round"/>
<path d="M394.689 276.907V286.669C394.689 294.695 401.012 301.186 408.869 301.186C416.727 301.186 423.082 294.678 423.082 286.669V276.907H394.689ZM410.553 291.828H407.152V284.427H410.553V291.828Z" fill="#3655CE"/>
<path d="M417.735 274.108V272.22C417.735 267.229 413.773 263.166 408.87 263.166C403.984 263.166 400.006 267.212 400.006 272.22V274.108" stroke="#3655CE" stroke-width="2" stroke-miterlimit="10"/>
<path d="M438.202 230.643C438.202 230.643 466.792 177.972 415.719 148.619" stroke="#0C5AE5" stroke-width="0.6218" stroke-miterlimit="10" stroke-linecap="round" stroke-linejoin="round" stroke-dasharray="6.22 3.11"/>
<path d="M258.867 122.234L257.266 109.656L253.436 110.179L245.892 100.096L247.378 96.4546L235.906 91.582L234.436 95.2238L222.122 96.8592L219.778 93.7233L209.907 101.428L212.251 104.564L207.48 116.265L203.65 116.771L205.252 129.348L209.081 128.843L216.625 138.908L215.139 142.55L226.612 147.422L228.098 143.781L240.412 142.145L242.756 145.281L252.611 137.559L250.267 134.44L255.037 122.722L258.867 122.234ZM232.555 129.584C227.107 130.309 222.122 126.398 221.412 120.851C220.702 115.287 224.532 110.195 229.979 109.47C235.427 108.746 240.412 112.657 241.122 118.221C241.832 123.768 237.985 128.859 232.555 129.584Z" fill="#1B3151"/>
<path d="M242.558 1.19629H70.2715V51.5068H242.558V1.19629Z" fill="white" stroke="#0C5AE5" stroke-width="0.6218" stroke-miterlimit="10" stroke-linecap="round" stroke-linejoin="round" stroke-dasharray="6.22 3.11"/>
<path d="M96.1051 34.1069C100.299 34.1069 103.698 30.6346 103.698 26.3513C103.698 22.068 100.299 18.5957 96.1051 18.5957C91.9114 18.5957 88.5117 22.068 88.5117 26.3513C88.5117 30.6346 91.9114 34.1069 96.1051 34.1069Z" fill="#D4E6FC"/>
<path d="M120.105 34.1069C124.299 34.1069 127.698 30.6346 127.698 26.3513C127.698 22.068 124.299 18.5957 120.105 18.5957C115.911 18.5957 112.512 22.068 112.512 26.3513C112.512 30.6346 115.911 34.1069 120.105 34.1069Z" fill="#D4E6FC"/>
<path d="M144.125 34.1069C148.318 34.1069 151.718 30.6346 151.718 26.3513C151.718 22.068 148.318 18.5957 144.125 18.5957C139.931 18.5957 136.531 22.068 136.531 26.3513C136.531 30.6346 139.931 34.1069 144.125 34.1069Z" fill="#D4E6FC"/>
<path d="M168.125 34.1069C172.318 34.1069 175.718 30.6346 175.718 26.3513C175.718 22.068 172.318 18.5957 168.125 18.5957C163.931 18.5957 160.531 22.068 160.531 26.3513C160.531 30.6346 163.931 34.1069 168.125 34.1069Z" fill="#D4E6FC"/>
<path d="M192.127 34.1069C196.32 34.1069 199.72 30.6346 199.72 26.3513C199.72 22.068 196.32 18.5957 192.127 18.5957C187.933 18.5957 184.533 22.068 184.533 26.3513C184.533 30.6346 187.933 34.1069 192.127 34.1069Z" fill="#D4E6FC"/>
<path d="M216.146 34.1069C220.34 34.1069 223.739 30.6346 223.739 26.3513C223.739 22.068 220.34 18.5957 216.146 18.5957C211.952 18.5957 208.553 22.068 208.553 26.3513C208.553 30.6346 211.952 34.1069 216.146 34.1069Z" fill="#D4E6FC"/>
<path d="M384.751 116.789C390.066 116.789 394.374 112.388 394.374 106.959C394.374 101.531 390.066 97.1299 384.751 97.1299C379.436 97.1299 375.127 101.531 375.127 106.959C375.127 112.388 379.436 116.789 384.751 116.789Z" fill="#211749"/>
<path d="M384.75 106.959L368.012 124.055L373.245 129.417" stroke="#211749" stroke-width="3" stroke-miterlimit="10"/>
<path d="M376.561 123.178L372.715 119.25" stroke="#211749" stroke-width="3" stroke-miterlimit="10"/>
<path d="M384.75 112.186C387.576 112.186 389.867 109.846 389.867 106.959C389.867 104.072 387.576 101.732 384.75 101.732C381.924 101.732 379.633 104.072 379.633 106.959C379.633 109.846 381.924 112.186 384.75 112.186Z" fill="#211749"/>
</svg>
