<svg width="480" height="440" viewBox="0 0 484 447" fill="none" xmlns="http://www.w3.org/2000/svg">
<path d="M279.764 124.831L276.166 118.542L256.39 130.412L260.005 136.684L248.681 157.034L241.566 157.101L241.731 180.503L248.863 180.452L260.467 200.65L256.935 206.973L276.875 218.539L280.391 212.199L303.32 212.031L306.919 218.303L326.694 206.45L323.079 200.178L334.403 179.811L341.534 179.761L341.369 156.359L334.238 156.41L322.634 136.212L326.15 129.889L306.209 118.323L302.693 124.663L279.764 124.831Z" fill="white" stroke="#0C5AE5" stroke-width="0.6218" stroke-miterlimit="10" stroke-linecap="round" stroke-linejoin="round"/>
<path d="M291.551 187.162C301.679 187.162 309.89 178.776 309.89 168.431C309.89 158.086 301.679 149.699 291.551 149.699C281.422 149.699 273.211 158.086 273.211 168.431C273.211 178.776 281.422 187.162 291.551 187.162Z" fill="white" stroke="#0C5AE5" stroke-width="0.6218" stroke-miterlimit="10" stroke-linecap="round" stroke-linejoin="round"/>
<path d="M54.2259 51.5059C54.2259 51.5059 9.37575 91.5314 59.079 142.432" stroke="#0C5AE5" stroke-width="0.6218" stroke-miterlimit="10" stroke-linecap="round" stroke-linejoin="round" stroke-dasharray="6.22 3.11"/>
<path d="M14.9048 274.042C8.43394 285.287 -5.48166 296.095 4.48871 311.741C11.3722 322.531 25.1888 326.358 19.8074 341.701C17.678 347.77 13.6007 352.373 14.8223 359.201C15.8952 365.153 20.4512 369.84 24.4625 373.954C27.9125 377.478 33.4589 380.799 36.0176 385.115C40.2104 392.146 35.9185 397.423 33.9377 404.42C32.0393 411.079 31.7422 418.43 35.3573 424.652C40.1444 432.879 49.4875 433.722 55.6447 439.725C55.6447 439.725 83.9546 458.625 95.5427 423.741C98.2829 415.497 102.344 407.944 100.379 398.603C98.8937 391.539 93.7764 386.346 87.9494 382.789C81.8417 379.046 75.1893 378.135 73.5716 370.076C72.5811 365.136 74.4299 358.847 74.6115 353.874C74.8261 348.074 75.0407 341.465 71.8713 336.373C68.2232 330.506 62.1651 329.966 56.5526 326.999C42.4059 319.496 49.9827 307.087 47.8368 294.392C44.7334 275.998 27.3347 277.751 15.1029 273.991L14.9048 274.042Z" fill="#D4E6FC" stroke="#D4E6FC" stroke-width="0.1554" stroke-miterlimit="10"/>
<path d="M26.1641 303.024L80.3739 444.142" stroke="#0C5AE5" stroke-width="0.6218" stroke-miterlimit="10" stroke-linecap="round" stroke-linejoin="round"/>
<path d="M28.4727 351.851L49.8825 364.765" stroke="#0C5AE5" stroke-width="0.6218" stroke-miterlimit="10" stroke-linecap="round" stroke-linejoin="round"/>
<path d="M70.2695 417.84L81.8411 398.316" stroke="#0C5AE5" stroke-width="0.6218" stroke-miterlimit="10" stroke-linecap="round" stroke-linejoin="round"/>
<path d="M42.7188 346.135L48.4137 328.398" stroke="#0C5AE5" stroke-width="0.6218" stroke-miterlimit="10" stroke-linecap="round" stroke-linejoin="round"/>
<path d="M170.898 199.301V227.524" stroke="white" stroke-width="0.6218" stroke-miterlimit="10" stroke-linecap="round" stroke-linejoin="round"/>
<path d="M421.53 172.882H144.158V444.833H421.53V172.882Z" fill="#D4E6FC"/>
<path d="M70.6657 200.718C56.8161 230.914 99.2728 264.162 99.2728 264.162" stroke="white" stroke-width="0.6218" stroke-miterlimit="10" stroke-linecap="round" stroke-linejoin="round"/>
<path d="M384.372 224.541H181.795V256.356H384.372V224.541Z" fill="white"/>
<path d="M384.372 269.709H181.795V301.524H384.372V269.709Z" fill="white"/>
<path d="M384.372 316.275H181.795V348.09H384.372V316.275Z" fill="white"/>
<path d="M344.061 370.684H222.105V402.499H344.061V370.684Z" fill="#3655CE"/>
<path d="M379.533 153.054C401.049 153.054 418.49 135.239 418.49 113.264C418.49 91.289 401.049 73.4746 379.533 73.4746C358.018 73.4746 340.576 91.289 340.576 113.264C340.576 135.239 358.018 153.054 379.533 153.054Z" fill="white" stroke="#0C5AE5" stroke-width="0.6218" stroke-miterlimit="10" stroke-linecap="round" stroke-linejoin="round" stroke-dasharray="6.22 3.11"/>
<path d="M24.0664 444.731H483.001" stroke="#0C5AE5" stroke-width="0.6218" stroke-miterlimit="10" stroke-linecap="round" stroke-linejoin="round"/>
<path d="M408.588 325.852C432.346 325.852 451.606 306.18 451.606 281.915C451.606 257.649 432.346 237.978 408.588 237.978C384.83 237.978 365.57 257.649 365.57 281.915C365.57 306.18 384.83 325.852 408.588 325.852Z" fill="white" stroke="#0C5AE5" stroke-width="0.6218" stroke-miterlimit="10" stroke-linecap="round" stroke-linejoin="round"/>
<path d="M408.588 317.219C427.678 317.219 443.154 301.412 443.154 281.914C443.154 262.416 427.678 246.609 408.588 246.609C389.497 246.609 374.021 262.416 374.021 281.914C374.021 301.412 389.497 317.219 408.588 317.219Z" fill="white" stroke="#0C5AE5" stroke-width="0.6158" stroke-miterlimit="10" stroke-linecap="round" stroke-linejoin="round"/>
<path d="M434.982 339.289L416.609 357.599" stroke="white" stroke-width="0.6218" stroke-miterlimit="10" stroke-linecap="round" stroke-linejoin="round"/>
<path d="M394.688 276.907V286.669C394.688 294.695 401.01 301.186 408.867 301.186C416.725 301.186 423.08 294.678 423.08 286.669V276.907H394.688ZM410.551 291.828H407.151V284.427H410.551V291.828Z" fill="#3655CE"/>
<path d="M417.733 274.108V272.22C417.733 267.229 413.771 263.166 408.868 263.166C403.982 263.166 400.004 267.212 400.004 272.22V274.108" stroke="#3655CE" stroke-width="2" stroke-miterlimit="10"/>
<path d="M438.202 230.643C438.202 230.643 466.792 177.972 415.719 148.619" stroke="#0C5AE5" stroke-width="0.6218" stroke-miterlimit="10" stroke-linecap="round" stroke-linejoin="round" stroke-dasharray="6.22 3.11"/>
<path d="M258.867 122.234L257.266 109.656L253.436 110.179L245.892 100.096L247.378 96.4546L235.906 91.582L234.436 95.2238L222.122 96.8592L219.778 93.7233L209.907 101.428L212.251 104.564L207.48 116.265L203.65 116.771L205.252 129.348L209.081 128.843L216.625 138.908L215.139 142.55L226.612 147.422L228.098 143.781L240.412 142.145L242.756 145.281L252.611 137.559L250.267 134.44L255.037 122.722L258.867 122.234ZM232.555 129.584C227.107 130.309 222.122 126.398 221.412 120.851C220.702 115.287 224.532 110.195 229.979 109.47C235.427 108.746 240.412 112.657 241.122 118.221C241.832 123.768 237.985 128.859 232.555 129.584Z" fill="#1B3151"/>
<path d="M242.558 1.19629H70.2715V51.5068H242.558V1.19629Z" fill="white" stroke="#0C5AE5" stroke-width="0.6218" stroke-miterlimit="10" stroke-linecap="round" stroke-linejoin="round" stroke-dasharray="6.22 3.11"/>
<path d="M96.1051 34.1069C100.299 34.1069 103.698 30.6346 103.698 26.3513C103.698 22.068 100.299 18.5957 96.1051 18.5957C91.9114 18.5957 88.5117 22.068 88.5117 26.3513C88.5117 30.6346 91.9114 34.1069 96.1051 34.1069Z" fill="#D4E6FC"/>
<path d="M120.105 34.1069C124.299 34.1069 127.698 30.6346 127.698 26.3513C127.698 22.068 124.299 18.5957 120.105 18.5957C115.911 18.5957 112.512 22.068 112.512 26.3513C112.512 30.6346 115.911 34.1069 120.105 34.1069Z" fill="#D4E6FC"/>
<path d="M144.125 34.1069C148.318 34.1069 151.718 30.6346 151.718 26.3513C151.718 22.068 148.318 18.5957 144.125 18.5957C139.931 18.5957 136.531 22.068 136.531 26.3513C136.531 30.6346 139.931 34.1069 144.125 34.1069Z" fill="#D4E6FC"/>
<path d="M168.125 34.1069C172.318 34.1069 175.718 30.6346 175.718 26.3513C175.718 22.068 172.318 18.5957 168.125 18.5957C163.931 18.5957 160.531 22.068 160.531 26.3513C160.531 30.6346 163.931 34.1069 168.125 34.1069Z" fill="#D4E6FC"/>
<path d="M192.127 34.1069C196.32 34.1069 199.72 30.6346 199.72 26.3513C199.72 22.068 196.32 18.5957 192.127 18.5957C187.933 18.5957 184.533 22.068 184.533 26.3513C184.533 30.6346 187.933 34.1069 192.127 34.1069Z" fill="#D4E6FC"/>
<path d="M216.146 34.1069C220.34 34.1069 223.739 30.6346 223.739 26.3513C223.739 22.068 220.34 18.5957 216.146 18.5957C211.952 18.5957 208.553 22.068 208.553 26.3513C208.553 30.6346 211.952 34.1069 216.146 34.1069Z" fill="#D4E6FC"/>
<path d="M384.751 116.789C390.066 116.789 394.374 112.388 394.374 106.959C394.374 101.531 390.066 97.1299 384.751 97.1299C379.436 97.1299 375.127 101.531 375.127 106.959C375.127 112.388 379.436 116.789 384.751 116.789Z" fill="#211749"/>
<path d="M384.75 106.959L368.012 124.055L373.245 129.417" stroke="#211749" stroke-width="3" stroke-miterlimit="10"/>
<path d="M376.561 123.178L372.715 119.25" stroke="#211749" stroke-width="3" stroke-miterlimit="10"/>
<path d="M384.75 112.186C387.576 112.186 389.867 109.846 389.867 106.959C389.867 104.072 387.576 101.732 384.75 101.732C381.924 101.732 379.633 104.072 379.633 106.959C379.633 109.846 381.924 112.186 384.75 112.186Z" fill="#211749"/>
<path d="M111.484 323.835L110.08 332.535L84.1406 332.499L85.5294 323.811L111.484 323.835Z" fill="#B55B52"/>
<path d="M109.634 334.034C109.634 334.047 109.634 334.047 109.649 334.059C110.035 335.462 110.498 337.967 109.433 338.947C109.109 339.238 108.677 339.383 108.152 339.359C107.844 339.347 107.597 339.226 107.442 339.032C106.655 337.979 108.893 334.422 109.14 334.022C109.186 333.938 109.294 333.901 109.402 333.913C109.526 333.901 109.603 333.962 109.634 334.034ZM107.874 338.742C107.89 338.766 107.905 338.79 107.921 338.814C107.982 338.899 108.06 338.935 108.198 338.935C108.553 338.947 108.831 338.863 109.047 338.669C109.649 338.124 109.726 336.672 109.294 334.748C108.461 336.152 107.566 338.076 107.874 338.742Z" fill="#407BFF"/>
<path d="M109.631 334.035C109.646 334.083 109.646 334.144 109.631 334.192C109.044 335.257 106.668 337.387 105.418 337.254C105.125 337.217 104.755 337.06 104.677 336.491C104.616 336.068 104.77 335.681 105.109 335.33C106.251 334.192 109.245 333.914 109.368 333.902C109.461 333.89 109.554 333.926 109.615 333.986C109.615 333.999 109.631 334.011 109.631 334.035ZM105.248 336.649C105.325 336.818 105.449 336.83 105.495 336.842C106.251 336.927 108.118 335.475 108.921 334.386C108.041 334.507 106.267 334.858 105.511 335.596C105.248 335.85 105.14 336.128 105.187 336.443C105.202 336.515 105.217 336.588 105.248 336.649Z" fill="#407BFF"/>
<path d="M108.09 333.187L107.951 323.627C107.951 323.264 108.26 322.95 108.692 322.865L118.552 320.977C119.571 320.784 120.558 321.377 120.543 322.199C120.527 325.648 120.342 330.634 120.404 334.978C120.481 340.048 120.095 343.267 120.188 349.208C120.25 352.802 115.651 353.879 115.204 352.379C113.198 345.566 113.707 341.125 108.985 335.28C108.476 334.651 108.105 333.949 108.09 333.187Z" fill="#263238"/>
<path opacity="0.5" d="M108.09 333.187L107.951 323.627C107.951 323.264 108.26 322.95 108.692 322.865L118.552 320.977C119.571 320.784 120.558 321.377 120.543 322.199C120.527 325.648 120.342 330.634 120.404 334.978C120.481 340.048 120.095 343.267 120.188 349.208C120.25 352.802 115.651 353.879 115.204 352.379C113.198 345.566 113.707 341.125 108.985 335.28C108.476 334.651 108.105 333.949 108.09 333.187Z" fill="#414B51"/>
<path opacity="0.2" d="M84.1406 332.499L97.5193 332.511L98.9081 323.823L85.5448 323.811L84.1406 332.499Z" fill="black"/>
<path d="M94.7569 337.398L97.2413 319.828L90.035 319.247L86.918 338.524L94.7569 337.398Z" fill="#263238"/>
<path d="M68.3691 189.056C64.5885 194.151 60.6536 199.052 56.4718 203.952C52.2282 208.829 48.0156 213.585 42.7073 218.401C42.0283 219.006 41.3031 219.611 40.5161 220.24C39.6982 220.881 38.865 221.523 37.5842 222.297C37.2139 222.503 36.8898 222.696 36.396 222.938L36.0411 223.108L35.5782 223.301L35.1152 223.483C34.9301 223.556 34.6677 223.628 34.4517 223.701C32.6154 224.282 30.1619 224.342 28.4027 223.919C26.6127 223.519 25.4554 222.902 24.5758 222.37C23.6808 221.813 23.1099 221.317 22.5853 220.821C20.6409 218.897 19.7614 217.336 18.8664 215.787C18.0022 214.25 17.385 212.737 16.7832 211.261C14.484 205.32 13.2032 199.56 12.4316 193.57L20.5792 192.057C23.3414 197.273 26.1189 202.621 29.128 207.449C29.8841 208.647 30.6865 209.797 31.4735 210.85C32.2296 211.866 33.1709 212.846 33.6338 213.113C33.7264 213.149 33.8036 213.173 33.6338 213.052C33.4795 212.943 33.1246 212.701 32.2296 212.483C31.3655 212.253 29.8687 212.278 28.8811 212.592C28.7577 212.629 28.6188 212.677 28.5262 212.713L28.3564 212.774L28.2021 212.834L28.1404 212.858C28.0324 212.907 28.0787 212.871 28.0787 212.871C28.233 212.737 28.6959 212.362 29.1434 211.951C29.6064 211.527 30.0847 211.043 30.5785 210.535C32.5537 208.502 34.5752 206.191 36.5195 203.868C38.4792 201.532 40.4235 199.16 42.337 196.752L53.8485 182.292L68.3691 189.056Z" fill="#FBBCBE"/>
<path d="M74.2491 183.272C77.4278 191.27 56.7349 213.233 56.7349 213.233L35.1777 202.584C35.1777 202.584 41.2113 191.403 49.5286 182.86C58.0928 174.087 70.7617 174.498 74.2491 183.272Z" fill="#223EAC"/>
<path opacity="0.7" d="M74.2491 183.272C77.4278 191.27 56.7349 213.233 56.7349 213.233L35.1777 202.584C35.1777 202.584 41.2113 191.403 49.5286 182.86C58.0928 174.087 70.7617 174.498 74.2491 183.272Z" fill="#223EAC"/>
<path opacity="0.2" d="M60.6397 194.344C55.2388 196.328 49.5448 203.577 48.7578 209.276L56.7356 213.221C56.7356 213.221 64.6826 204.787 69.96 196.474C68.2934 194.453 66.8275 192.081 60.6397 194.344Z" fill="black"/>
<path d="M120.867 171.255C118.213 181.613 116.932 191.827 116.423 201.241C116.052 208.066 116.099 214.491 116.315 220.263C116.839 233.671 118.383 243.715 118.213 247.139C109.139 247.296 76.441 247.853 59.5441 248.131C45.9185 203.758 57.0597 177.814 57.0597 177.814C57.0597 177.814 63.2167 175.878 70.6081 174.401C71.5957 174.196 72.5987 174.026 73.6171 173.845C80.2988 172.707 91.5171 171.8 99.4487 171.304C101.131 171.195 102.843 171.134 104.51 171.074C113.105 170.832 120.867 171.255 120.867 171.255Z" fill="#407BFF"/>
<path opacity="0.7" d="M116.314 220.263C116.854 233.67 118.382 243.714 118.228 247.138C109.154 247.296 76.4558 247.852 59.5588 248.131C45.9332 203.757 57.059 177.813 57.059 177.813C57.059 177.813 63.2314 175.877 70.6229 174.401C71.595 174.207 72.598 174.026 73.6319 173.844C80.3135 172.719 91.5319 171.799 99.448 171.303C101.13 171.206 102.843 171.134 104.509 171.085C113.104 170.831 120.866 171.255 120.866 171.255C118.814 179.241 117.595 187.155 116.916 194.669C116.7 196.896 116.546 199.086 116.422 201.24C116.237 204.459 116.16 207.605 116.144 210.618C116.129 213.994 116.206 217.213 116.314 220.263Z" fill="#3655CE"/>
<path d="M84.7275 151.507C85.2059 157.993 87.3971 169.622 94.2948 172.683C91.3011 176.737 86.2089 180.682 77.2589 182.267C70.4075 183.477 68.8336 179.823 69.6823 177.463C77.9687 174.099 76.0553 169.029 72.9382 164.527L84.7275 151.507Z" fill="#FBBCBE"/>
<path opacity="0.2" d="M79.9279 156.818L72.9531 164.514C73.6938 165.579 74.3573 166.68 74.8357 167.782C78.0762 166.741 81.7642 162.953 81.2087 160.122C80.9309 158.706 80.4217 157.399 79.9279 156.818Z" fill="#FBBCBE"/>
<path d="M50.0199 140.06C49.4644 143.557 51.7791 150.249 57.149 147.2C62.519 144.15 50.9766 134.046 50.0199 140.06Z" fill="#263238"/>
<path d="M81.4554 140.169C84.0787 148.579 86.1773 153.407 82.5047 158.901C76.9959 167.166 62.4444 166.464 56.6424 158.816C51.4267 151.931 48.001 139.334 57.0436 133.61C65.9781 127.972 78.8321 131.759 81.4554 140.169Z" fill="#FBBCBE"/>
<path d="M86.0836 130.609H73.7852V136.139C74.0166 136.031 74.2635 135.922 74.4795 135.801C74.4795 135.801 75.7295 143.835 81.763 146.377C89.4476 141.355 91.3147 133.489 86.0836 130.609Z" fill="#263238"/>
<path d="M88.2583 146.062C88.2583 148.397 86.885 150.503 85.1104 151.822C82.4563 153.806 79.3701 152.282 78.6294 149.607C77.9659 147.199 78.5522 143.267 81.9316 142.286C85.2493 141.318 88.2429 143.4 88.2583 146.062Z" fill="#FBBCBE"/>
<path d="M66.332 146.256C66.5943 146.934 66.3628 147.587 65.7919 147.708C65.2364 147.841 64.5574 147.406 64.2951 146.728C64.0328 146.05 64.2642 145.409 64.8352 145.276C65.3907 145.155 66.0696 145.591 66.332 146.256Z" fill="#263238"/>
<path d="M56.5957 148.554C56.858 149.232 56.6266 149.873 56.0556 150.007C55.4847 150.14 54.8211 149.704 54.5588 149.026C54.2965 148.349 54.5279 147.707 55.0989 147.574C55.6544 147.441 56.3333 147.889 56.5957 148.554Z" fill="#263238"/>
<path d="M59.8189 148.155C59.8189 148.155 59.2943 152.366 57.8438 154.69C59.7726 155.392 62.149 154.266 62.149 154.266L59.8189 148.155Z" fill="#676F74"/>
<path d="M67.7808 155.754C67.4413 155.875 67.071 155.984 66.6852 156.081C66.5463 156.117 66.392 156.057 66.3611 155.948C66.3148 155.839 66.392 155.718 66.5309 155.694C70.3115 154.799 71.2528 152.33 71.2682 152.306C71.3145 152.197 71.4534 152.136 71.5923 152.161C71.7311 152.197 71.8083 152.306 71.7774 152.415C71.7466 152.499 70.9287 154.641 67.7808 155.754Z" fill="#263238"/>
<path d="M68.3527 143.097C68.1829 143.158 67.9823 143.146 67.828 143.061C65.9146 141.972 64.0783 142.504 64.0629 142.504C63.7851 142.589 63.4765 142.48 63.3839 142.262C63.2913 142.045 63.4148 141.815 63.6925 141.73C63.7851 141.706 66.0843 141.04 68.4607 142.383C68.6922 142.517 68.7539 142.771 68.5842 142.964C68.507 143.025 68.4298 143.073 68.3527 143.097Z" fill="#263238"/>
<path d="M51.3643 146.933C51.2717 146.969 51.1637 146.981 51.0557 146.969C50.7625 146.933 50.5619 146.727 50.6082 146.497C51.0557 144.246 53.2624 143.46 53.3549 143.423C53.6173 143.327 53.9413 143.423 54.0493 143.629C54.1728 143.835 54.0493 144.077 53.787 144.174C53.6944 144.198 51.997 144.815 51.6421 146.63C51.6421 146.763 51.5186 146.872 51.3643 146.933Z" fill="#263238"/>
<path d="M78.3977 137.748C78.3977 137.748 78.1354 137.954 77.6725 138.184C76.7466 138.644 75.0183 139.225 72.9506 138.511C69.8335 137.446 68.4756 130.682 60.004 134.457C60.004 134.457 56.9949 133.864 54.8809 136.091C52.7668 138.317 54.7729 146.098 49.9429 145.19C45.113 144.283 45.8692 143.097 45.8692 143.097C45.8692 143.097 47.2425 143.714 47.9986 143.158C47.9986 143.158 45.4062 141.621 46.471 139.297C46.471 139.297 47.69 140.326 48.4616 140.084C48.4616 140.084 46.7796 136.139 49.2177 130.633C51.6558 125.127 68.6608 125.72 68.6608 125.72C68.6608 125.72 70.6359 122.852 78.3977 124.522C86.1595 126.192 90.0636 133.295 89.0451 136.49" fill="#263238"/>
<path d="M100.805 338.851C86.1769 341.162 73.6469 342.796 62.9686 343.825C14.0523 348.52 3.77525 340.388 7.78731 325.093C13.3425 303.856 58.3239 259.991 58.3239 259.991V242.553H68.4621L84.1246 241.634L84.464 267.154L84.8035 291.84C84.8035 291.84 72.9216 300.093 62.4594 308.127C53.4014 315.085 45.4081 321.862 47.1056 322.975C48.3246 323.774 54.3736 323.895 61.8885 323.713C76.872 323.35 97.6884 321.741 97.6884 321.741L100.805 338.851Z" fill="#1B3151"/>
<path opacity="0.2" d="M84.8031 291.839C84.8031 291.839 72.9212 300.092 62.459 308.127C62.7059 291.101 79.0936 263.124 79.0936 263.124C79.0936 263.124 81.0996 264.625 84.4636 267.154L84.8031 291.839Z" fill="black"/>
<path opacity="0.2" d="M100.806 338.852C86.1771 341.163 73.6471 342.797 62.9688 343.825C60.9474 336.068 61.1789 328.905 61.8887 323.714C76.8722 323.351 97.6886 321.741 97.6886 321.741L100.806 338.852Z" fill="black"/>
<path d="M117.579 286.417C114.755 306.904 87.0101 420.252 87.0101 420.252H66.6875L75.1437 283.114L68.4621 242.552L118.752 239.6C118.752 239.6 119.107 243.436 119.292 249.571C119.354 251.337 119.384 253.286 119.4 255.403C119.477 263.983 119.138 275.14 117.579 286.417Z" fill="#2B4872"/>
<path d="M67.9844 437.653H79.1256L82.2889 417.421H71.1477L67.9844 437.653Z" fill="#FBBCBE"/>
<path opacity="0.2" d="M71.1455 417.421H82.2867L80.651 427.852H69.5098L71.1455 417.421Z" fill="black"/>
<path d="M88.4753 422.795H64.4492L64.5264 417.168L89.6172 416.03L88.4753 422.795Z" fill="#263238"/>
<path d="M63.5709 438.162C62.7222 438.162 61.9352 438.053 61.426 437.714C61.0248 437.448 60.8396 437.085 60.8705 436.625C60.9014 436.286 61.1328 436.117 61.318 436.044C62.537 435.548 66.1633 437.278 66.5645 437.484C66.6571 437.532 66.7034 437.605 66.688 437.69C66.6725 437.775 66.5954 437.835 66.4874 437.859C65.7004 438.004 64.6048 438.162 63.5709 438.162ZM61.8889 436.359C61.7501 436.359 61.642 436.371 61.5495 436.407C61.4723 436.431 61.3951 436.492 61.3797 436.649C61.3643 436.976 61.4723 437.23 61.75 437.399C62.3673 437.799 63.8178 437.859 65.7158 437.557C64.4505 436.988 62.7376 436.359 61.8889 436.359Z" fill="#407BFF"/>
<path d="M66.4103 437.859C66.364 437.859 66.3177 437.847 66.2868 437.835C65.1295 437.339 62.8766 435.427 63.0926 434.459C63.1389 434.277 63.2932 433.975 63.9259 433.914C64.3425 433.878 64.7129 433.963 65.0523 434.181C66.364 435.016 66.6572 437.532 66.6726 437.641C66.688 437.714 66.6417 437.787 66.5492 437.835C66.5183 437.847 66.472 437.859 66.4103 437.859ZM64.1265 434.314C64.0802 434.314 64.0493 434.314 64.003 434.314C63.6636 434.35 63.6327 434.471 63.6173 434.519C63.4784 435.088 64.9289 436.54 66.0862 437.218C65.9474 436.48 65.577 435.016 64.7283 434.483C64.5431 434.374 64.3425 434.314 64.1265 434.314Z" fill="#407BFF"/>
<path d="M67.2278 436.637H80.8071C81.27 436.637 81.6558 436.891 81.7638 437.23L84.063 444.998C84.3099 445.809 83.5075 446.571 82.4582 446.547C78.0912 446.487 74.897 446.293 69.3881 446.293C66.0087 446.293 55.7934 446.571 51.1178 446.571C46.5502 446.571 45.7787 442.941 47.6921 442.614C56.2563 441.138 62.7065 439.105 65.4224 437.169C65.9162 436.83 66.5642 436.637 67.2278 436.637Z" fill="#263238"/>
<path opacity="0.5" d="M67.2278 436.637H80.8071C81.27 436.637 81.6558 436.891 81.7638 437.23L84.063 444.998C84.3099 445.809 83.5075 446.571 82.4582 446.547C78.0912 446.487 74.897 446.293 69.3881 446.293C66.0087 446.293 55.7934 446.571 51.1178 446.571C46.5502 446.571 45.7787 442.941 47.6921 442.614C56.2563 441.138 62.7065 439.105 65.4224 437.169C65.9162 436.83 66.5642 436.637 67.2278 436.637Z" fill="#333E45"/>
<path d="M77.0879 182.292C77.0879 182.292 80.4827 184.373 84.3096 186.346C88.2137 183.635 97.1945 176.665 95.3736 172.115C94.3706 170.881 91.8554 170.481 91.8554 170.481C91.8554 170.481 86.7168 176.677 77.0879 182.292Z" fill="white"/>
<path d="M77.0888 182.291C77.0888 182.291 74.2495 185.195 72.8144 188.486C69.0492 187.325 68.2468 178.358 69.1881 177.184C71.4102 175.393 73.231 175.212 73.231 175.212C73.231 175.212 71.6262 182.255 77.0888 182.291Z" fill="white"/>
<path opacity="0.2" d="M119.398 255.404C117.161 256.614 114.244 257.292 114.244 257.292L108.334 246.946C108.334 246.946 114.753 246.789 119.29 249.572C119.352 251.339 119.383 253.287 119.398 255.404Z" fill="black"/>
<path opacity="0.2" d="M116.915 194.67C116.699 196.896 116.545 199.087 116.422 201.241C116.236 204.459 116.159 207.606 116.144 210.619C110.789 205.052 112.348 193.871 112.348 193.871C113.999 193.775 115.527 194.077 116.915 194.67Z" fill="black"/>
<path d="M128.011 177.754C131.992 183.792 135.402 189.77 138.396 196.123C139.862 199.305 141.251 202.536 142.346 205.961C142.902 207.679 143.396 209.434 143.75 211.297C144.105 213.173 144.352 215.133 144.183 217.469C144.136 218.062 144.044 218.679 143.905 219.332C143.812 219.671 143.75 219.998 143.627 220.361L143.442 220.893L143.288 221.256C142.855 222.2 142.423 223.216 141.93 224.003C141.004 225.721 139.97 227.234 138.951 228.746C136.915 231.76 134.677 234.579 132.424 237.374C127.872 242.941 123.027 248.241 117.796 253.408L110.697 249.923L121.113 232.486C122.826 229.606 124.477 226.714 125.974 223.894C126.715 222.49 127.409 221.062 127.965 219.756C128.304 219.054 128.427 218.509 128.659 217.928L128.736 217.711V217.65L128.752 217.493C128.752 217.348 128.767 217.166 128.752 216.948C128.721 216.053 128.489 214.782 128.119 213.475C127.764 212.156 127.27 210.777 126.715 209.373C125.573 206.566 124.23 203.698 122.733 200.83C119.771 195.131 116.376 189.298 112.981 183.768L128.011 177.754Z" fill="#FBBCBE"/>
<path d="M124.12 171.848C133.95 175.14 143.378 199.002 143.378 199.002L117.531 205.96C117.531 205.96 111.374 195.687 108.196 185.147C104.739 173.664 112.208 167.867 124.12 171.848Z" fill="#223EAC"/>
<path opacity="0.7" d="M124.12 171.848C133.95 175.14 143.378 199.002 143.378 199.002L117.531 205.96C117.531 205.96 111.374 195.687 108.196 185.147C104.739 173.664 112.208 167.867 124.12 171.848Z" fill="#223EAC"/>
<path d="M107.147 246.341C107.147 246.341 117.995 251.738 120.541 254.908C120.541 254.908 118.797 269.211 111.483 268.195C104.169 267.166 101.592 257.595 107.147 246.341Z" fill="#223EAC"/>
<path d="M88.2598 195.845L102.333 194.332V207.498C102.333 207.498 94.71 210.922 89.0622 208.538L88.2598 195.845Z" fill="white"/>
<path d="M33.774 191.391C33.9746 191.887 33.6042 192.371 32.9561 192.48L21.2439 194.307C20.5804 194.404 19.886 194.09 19.6854 193.593L12.4637 175.878C12.2631 175.382 12.6026 174.765 13.2507 174.668L24.9628 172.841C25.6264 172.744 26.3516 173.18 26.5522 173.688L33.774 191.391Z" fill="#263238"/>
<path opacity="0.3" d="M25.2257 173.749L32.5246 191.634C32.7252 192.142 32.4783 192.541 31.8302 192.638L21.8926 194.187C21.2291 194.296 19.9329 194.199 19.7323 193.691L12.418 175.733C12.2174 175.225 13.2512 174.644 13.9148 174.535L23.8524 172.986C24.5005 172.902 25.0251 173.252 25.2257 173.749Z" fill="white"/>
<path d="M12.8944 197.454L12.2617 188.56L23.9121 192.311C23.9121 192.311 23.8659 200.273 18.6347 200.079L12.8944 197.454Z" fill="#FBBCBE"/>
<path d="M17.5545 180.779L26.1805 186.672L23.9121 192.311L12.2617 188.56L17.5545 180.779Z" fill="#FBBCBE"/>
<path d="M409.863 412.654C409.863 412.654 400.099 398.869 411.26 385.27C422.422 371.671 425.649 368.478 418.537 365.683C411.425 362.902 408.157 376.554 408.157 376.554C408.157 376.554 402.154 367.16 407.108 357.327C412.062 347.494 415.166 331.473 408.403 329.757C401.64 328.04 407.108 349.742 401.25 357.141C401.25 357.141 396.317 348.904 395.515 341C394.713 333.096 395.967 320.482 390.623 317.249C385.278 314.015 381.866 316.251 387.108 333.682C392.349 351.113 392.308 365.284 392.308 365.284C392.308 365.284 380.715 342.411 372.945 341.745C365.175 341.08 365.175 348.478 371.835 354.905C378.495 361.332 391.322 372.842 393.439 378.763C393.439 378.763 380.715 361.558 369.286 366.828C357.836 372.097 379.235 382.502 388.773 386.255C398.31 390.007 404.929 413.559 404.929 413.559L409.863 412.654Z" fill="#407BFF"/>
<path opacity="0.2" d="M409.863 412.654C409.863 412.654 400.099 398.869 411.26 385.27C422.422 371.671 425.649 368.478 418.537 365.683C411.425 362.902 408.157 376.554 408.157 376.554C408.157 376.554 402.154 367.16 407.108 357.327C412.062 347.494 415.166 331.473 408.403 329.757C401.64 328.04 407.108 349.742 401.25 357.141C401.25 357.141 396.317 348.904 395.515 341C394.713 333.096 395.967 320.482 390.623 317.249C385.278 314.015 381.866 316.251 387.108 333.682C392.349 351.113 392.308 365.284 392.308 365.284C392.308 365.284 380.715 342.411 372.945 341.745C365.175 341.08 365.175 348.478 371.835 354.905C378.495 361.332 391.322 372.842 393.439 378.763C393.439 378.763 380.715 361.558 369.286 366.828C357.836 372.097 379.235 382.502 388.773 386.255C398.31 390.007 404.929 413.559 404.929 413.559L409.863 412.654Z" fill="black"/>
<path d="M402.155 418.309C402.155 418.309 411.672 404.43 400.264 390.938C388.855 377.459 385.566 374.279 392.617 371.431C399.668 368.584 403.183 382.209 403.183 382.209C403.183 382.209 409 372.748 403.861 362.968C398.722 353.188 395.33 337.194 402.052 335.411C408.774 333.628 403.717 355.384 409.719 362.716C409.719 362.716 414.488 354.439 415.167 346.522C415.824 338.618 414.324 326.017 419.607 322.73C424.889 319.444 428.343 321.653 423.43 339.137C418.517 356.621 418.805 370.792 418.805 370.792C418.805 370.792 429.967 347.813 437.737 347.068C445.507 346.322 445.63 353.734 439.093 360.214C432.557 366.707 419.935 378.337 417.942 384.272C417.942 384.272 430.337 366.947 441.868 372.11C453.4 377.273 432.207 387.878 422.731 391.723C413.255 395.569 407.088 419.174 407.088 419.174L402.155 418.309Z" fill="#407BFF"/>
<path d="M446 408.408H367.457L373.809 444.787H439.648L446 408.408Z" fill="#263238"/>
</svg>
