<svg width="75" height="75" viewBox="0 0 76 76" fill="none" xmlns="http://www.w3.org/2000/svg">
<path d="M7.91602 30.0833H68.0827V64.9166C68.0827 65.7565 67.749 66.5619 67.1552 67.1558C66.5613 67.7497 65.7559 68.0833 64.916 68.0833H11.0827C10.2428 68.0833 9.43738 67.7497 8.84351 67.1558C8.24965 66.5619 7.91602 65.7565 7.91602 64.9166V30.0833Z" fill="white" stroke="#1DA1F2" stroke-width="3" stroke-linecap="round" stroke-linejoin="round"/>
<path d="M7.91602 15.8333C7.91602 14.9935 8.24965 14.188 8.84351 13.5942C9.43738 13.0003 10.2428 12.6667 11.0827 12.6667H64.916C65.7559 12.6667 66.5613 13.0003 67.1552 13.5942C67.749 14.188 68.0827 14.9935 68.0827 15.8333V30.0833H7.91602V15.8333Z" stroke="#1DA1F2" stroke-width="3" stroke-linecap="round" stroke-linejoin="round"/>
<path d="M25.332 49.0833L34.832 58.5833L53.832 39.5833" stroke="#1DA1F2" stroke-width="3" stroke-linecap="round" stroke-linejoin="round"/>
<path d="M25.332 7.91666V20.5833M50.6654 7.91666V20.5833" stroke="#1DA1F2" stroke-width="3" stroke-linecap="round"/>
</svg>
