<svg width="75" height="75" viewBox="0 0 70 70" fill="none" xmlns="http://www.w3.org/2000/svg">
<g clip-path="url(#clip0)">
<path d="M68.9731 57.6575H67.2732V21.4636C67.2732 17.7638 64.2632 14.7538 60.5633 14.7538H52.9212C52.354 14.7538 51.8943 15.2134 51.8943 15.7807C51.8943 16.3479 52.354 16.8076 52.9212 16.8076H60.5633C63.1307 16.8076 65.2194 18.8963 65.2194 21.4636V57.6575H42.2643C41.5636 57.6575 40.9098 58.0032 40.5157 58.5826L40.2078 59.0351C39.9216 59.4556 39.4472 59.7065 38.9385 59.7065H30.9244C30.4158 59.7065 29.9413 59.4556 29.6552 59.0351L29.3474 58.5827C28.9533 58.0035 28.2997 57.6575 27.5988 57.6575H4.78058V21.4636C4.78058 18.8963 6.8693 16.8076 9.43669 16.8076H16.0505C16.6178 16.8076 17.0774 16.3479 17.0774 15.7807C17.0774 15.2134 16.6178 14.7538 16.0505 14.7538H9.43669C5.73696 14.7538 2.72677 17.7637 2.72677 21.4636V57.6575H1.0269C0.459642 57.6575 0 58.1172 0 58.6844V60.8224C0 64.6878 3.14479 67.8326 7.01019 67.8326H62.9898C66.8552 67.8326 70 64.6878 70 60.8224V58.6844C70 58.1172 69.5404 57.6575 68.9731 57.6575ZM67.9462 60.8224C67.9462 63.5554 65.7227 65.7788 62.9898 65.7788H7.01019C4.27726 65.7788 2.05381 63.5554 2.05381 60.8224V59.7113H27.5988C27.619 59.7113 27.6379 59.7212 27.6494 59.738L27.9574 60.1905C28.6264 61.1735 29.7354 61.7603 30.9244 61.7603H38.9385C40.1275 61.7603 41.2366 61.1735 41.9056 60.1905L42.2135 59.738L42.2137 59.7379C42.225 59.7212 42.2439 59.7113 42.2642 59.7113H67.9461V60.8224H67.9462Z" fill="#1DA1F2"/>
<path d="M7.10742 54.303C7.10742 54.8703 7.56706 55.3299 8.13432 55.3299H61.8641C62.4313 55.3299 62.891 54.8703 62.891 54.303V21.4636C62.891 20.1797 61.8464 19.1351 60.5625 19.1351H52.9204C52.3532 19.1351 51.8935 19.5948 51.8935 20.162C51.8935 20.7293 52.3532 21.1889 52.9204 21.1889H60.5625C60.7139 21.1889 60.8372 21.312 60.8372 21.4636V53.2761H45.9408V49.0833C45.9408 46.8536 45.0724 44.7573 43.4958 43.1805L42.1588 41.8435C42.6331 41.108 43.0004 40.2915 43.2328 39.4113C43.3775 38.8629 43.0503 38.3011 42.5019 38.1563C41.9533 38.0119 41.3919 38.3388 41.2469 38.8871C41.0089 39.7886 40.5855 40.603 40.0251 41.295C40.021 41.2999 40.0169 41.3047 40.013 41.3095C38.8135 42.782 36.9903 43.6948 34.9992 43.6948C31.436 43.6948 28.537 40.7958 28.537 37.2326C28.537 33.6694 31.436 30.7704 34.9992 30.7704C37.7488 30.7704 40.202 32.5154 41.1039 35.1128C41.2899 35.6484 41.8742 35.9321 42.4108 35.746C42.9466 35.5601 43.23 34.9749 43.0441 34.4391C41.8556 31.0163 38.6227 28.7165 34.9992 28.7165C30.3034 28.7165 26.4832 32.5368 26.4832 37.2326C26.4832 38.9296 26.984 40.5109 27.8429 41.8402L26.5026 43.1805C24.9258 44.7575 24.0576 46.8536 24.0576 49.0833V53.2761H9.16123V49.5139C9.16123 48.9467 8.70159 48.487 8.13432 48.487C7.56706 48.487 7.10742 48.9467 7.10742 49.5139V54.303ZM26.1114 49.0832C26.1114 47.4021 26.7662 45.8216 27.9551 44.6327L29.1626 43.4252C30.6881 44.864 32.7418 45.7485 34.9992 45.7485C37.2283 45.7485 39.2973 44.8795 40.839 43.4282L42.0435 44.6326C43.2324 45.8215 43.8871 47.4019 43.8871 49.083V53.2758H26.1114V49.0832Z" fill="#1DA1F2"/>
<path d="M8.13432 46.1608C8.70159 46.1608 9.16123 45.7011 9.16123 45.1339V21.4636C9.16123 21.3122 9.28432 21.1889 9.43575 21.1889H16.0497C16.617 21.1889 17.0766 20.7293 17.0766 20.162C17.0766 19.5948 16.617 19.1351 16.0497 19.1351H9.43575C8.15185 19.1351 7.10742 20.1797 7.10742 21.4636V45.1339C7.10742 45.701 7.56706 46.1608 8.13432 46.1608Z" fill="#1DA1F2"/>
<path d="M23.595 26.5462H45.3759C47.8376 26.5462 49.8401 24.5436 49.8401 22.0821V6.63195C49.8401 4.17026 47.8375 2.16766 45.3759 2.16766H23.595C21.1333 2.16766 19.1309 4.1704 19.1309 6.63195V8.78256C19.1309 9.34982 19.5905 9.80946 20.1578 9.80946C20.725 9.80946 21.1847 9.34982 21.1847 8.78256V6.63195C21.1847 5.30273 22.2659 4.22147 23.595 4.22147H45.3759C46.705 4.22147 47.7863 5.30273 47.7863 6.63195V22.0821C47.7863 23.4111 46.705 24.4924 45.3759 24.4924H23.595C22.2659 24.4924 21.1847 23.4111 21.1847 22.0821V13.1625C21.1847 12.5952 20.725 12.1356 20.1578 12.1356C19.5905 12.1356 19.1309 12.5952 19.1309 13.1625V22.0821C19.1309 24.5436 21.1335 26.5462 23.595 26.5462Z" fill="#1DA1F2"/>
<path d="M31.7457 20.7222C32.2069 20.7222 32.6681 20.599 33.0875 20.3526L39.4038 16.6416C40.2224 16.1604 40.7111 15.3064 40.7111 14.3569C40.7111 13.4074 40.2223 12.5534 39.4038 12.0725L33.0873 8.36144C32.258 7.87414 31.2641 7.86839 30.4292 8.34638C29.5941 8.82423 29.0957 9.68395 29.0957 10.646V18.0681C29.0957 19.0301 29.5942 19.89 30.4292 20.3678C30.8421 20.604 31.294 20.7222 31.7457 20.7222ZM31.1494 10.6458C31.1494 10.334 31.359 10.1804 31.4491 10.1288C31.5034 10.0977 31.6118 10.0479 31.7484 10.0479C31.8381 10.0479 31.9401 10.0695 32.0469 10.1322L38.3633 13.8433C38.6287 13.9991 38.6571 14.2544 38.6571 14.3568C38.6571 14.4593 38.6285 14.7145 38.3632 14.8705L32.047 18.5816C31.778 18.7396 31.5395 18.6365 31.4494 18.585C31.3591 18.5334 31.1495 18.3796 31.1495 18.0679V10.6458H31.1494Z" fill="#1DA1F2"/>
</g>
<defs>
<clipPath id="clip0">
<rect width="70" height="70" fill="white"/>
</clipPath>
</defs>
</svg>
