<svg width="75" height="75" viewBox="0 0 77 77" fill="none" xmlns="http://www.w3.org/2000/svg">
<path d="M14.4375 7.21875V69.7812H52.9375V64.9688H19.25V12.0312H43.3125V26.4688H57.75V31.2812H62.5625V23.1L61.8406 22.3781L47.4031 7.94062L46.6812 7.21875H14.4375V7.21875ZM48.125 15.4L54.3813 21.6562H48.125V15.4ZM24.0625 31.2812V36.0938H52.9375V31.2812H24.0625ZM64.9688 36.0938V40.9062C60.8781 41.6281 57.75 44.9969 57.75 49.3281C57.75 54.1406 61.3594 57.75 66.1719 57.75H68.5781C70.5031 57.75 72.1875 59.4344 72.1875 61.3594C72.1875 63.2844 70.5031 64.9688 68.5781 64.9688H60.1562V69.7812H64.9688V74.5938H69.7812V69.7812C73.8719 69.0594 77 65.6906 77 61.3594C77 56.5469 73.3906 52.9375 68.5781 52.9375H66.1719C64.2469 52.9375 62.5625 51.2531 62.5625 49.3281C62.5625 47.4031 64.2469 45.7188 66.1719 45.7188H74.5938V40.9062H69.7812V36.0938H64.9688ZM24.0625 43.3125V48.125H40.9062V43.3125H24.0625ZM45.7188 43.3125V48.125H52.9375V43.3125H45.7188ZM24.0625 52.9375V57.75H40.9062V52.9375H24.0625ZM45.7188 52.9375V57.75H52.9375V52.9375H45.7188Z" fill="#1DA1F2"/>
<rect x="57" y="35" width="20" height="40" fill="white"/>
<path d="M69.6235 41.76H74.9294L76.8706 39H56.9412L55 41.76H58.3647C61.8588 41.76 65.0941 42 66.3882 44.76H56.9412L55 47.52H66.7765V47.64C66.7765 49.68 64.9647 52.8 59.0118 52.8H56.0353V55.44L67.6824 69H72.9882L60.8235 54.96C65.8706 54.72 70.5294 52.08 71.1765 47.52H74.9294L76.8706 44.76H71.0471C70.9176 43.68 70.4 42.6 69.6235 41.76Z" fill="#1DA1F2"/>
</svg>
