<svg width="75" height="75" viewBox="0 0 64 64" fill="none" xmlns="http://www.w3.org/2000/svg">
<path d="M13.791 11.1667C13.1611 11.1667 12.557 11.4169 12.1116 11.8623C11.6662 12.3077 11.416 12.9118 11.416 13.5417C11.416 14.1716 11.6662 14.7757 12.1116 15.2211C12.557 15.6665 13.1611 15.9167 13.791 15.9167H40.7077C41.3376 15.9167 41.9417 15.6665 42.3871 15.2211C42.8325 14.7757 43.0827 14.1716 43.0827 13.5417C43.0827 12.9118 42.8325 12.3077 42.3871 11.8623C41.9417 11.4169 41.3376 11.1667 40.7077 11.1667H13.791ZM11.416 26.2084C11.416 25.5785 11.6662 24.9744 12.1116 24.529C12.557 24.0836 13.1611 23.8334 13.791 23.8334H28.041C28.6709 23.8334 29.275 24.0836 29.7204 24.529C30.1658 24.9744 30.416 25.5785 30.416 26.2084C30.416 26.8382 30.1658 27.4423 29.7204 27.8877C29.275 28.3331 28.6709 28.5834 28.041 28.5834H13.791C13.1611 28.5834 12.557 28.3331 12.1116 27.8877C11.6662 27.4423 11.416 26.8382 11.416 26.2084ZM62.9693 40.5534C63.2027 40.3359 63.3898 40.0737 63.5197 39.7824C63.6495 39.4911 63.7193 39.1766 63.7249 38.8577C63.7305 38.5388 63.6719 38.222 63.5524 37.9263C63.433 37.6306 63.2552 37.3619 63.0296 37.1364C62.8041 36.9109 62.5355 36.7331 62.2397 36.6136C61.944 36.4942 61.6273 36.4355 61.3084 36.4411C60.9895 36.4468 60.675 36.5166 60.3836 36.6464C60.0923 36.7762 59.8301 36.9633 59.6127 37.1967L43.8743 52.935L37.636 46.6967C37.4186 46.4633 37.1564 46.2762 36.8651 46.1464C36.5737 46.0166 36.2592 45.9468 35.9403 45.9411C35.6214 45.9355 35.3047 45.9942 35.009 46.1136C34.7132 46.2331 34.4446 46.4109 34.2191 46.6364C33.9935 46.8619 33.8157 47.1306 33.6963 47.4263C33.5768 47.722 33.5182 48.0388 33.5238 48.3577C33.5294 48.6766 33.5992 48.9911 33.729 49.2824C33.8588 49.5737 34.046 49.8359 34.2793 50.0533L42.196 57.97C42.6413 58.4148 43.245 58.6646 43.8743 58.6646C44.5037 58.6646 45.1074 58.4148 45.5527 57.97L62.9693 40.5534Z" fill="#1DA1F2"/>
<path d="M5.08398 5.87498C5.08398 5.66502 5.16739 5.46365 5.31586 5.31519C5.46432 5.16672 5.66569 5.08331 5.87565 5.08331H48.6257C48.8356 5.08331 49.037 5.16672 49.1854 5.31519C49.3339 5.46365 49.4173 5.66502 49.4173 5.87498V37.5416C49.4173 38.1715 49.6675 38.7756 50.1129 39.221C50.5583 39.6664 51.1624 39.9166 51.7923 39.9166C52.4222 39.9166 53.0263 39.6664 53.4717 39.221C53.9171 38.7756 54.1673 38.1715 54.1673 37.5416V5.87498C54.1673 4.40524 53.5835 2.99569 52.5442 1.95643C51.5049 0.917166 50.0954 0.333313 48.6257 0.333313H5.87565C4.40591 0.333313 2.99637 0.917166 1.9571 1.95643C0.917837 2.99569 0.333984 4.40524 0.333984 5.87498V58.125C0.333984 61.184 2.81665 63.6666 5.87565 63.6666H28.0423C28.6722 63.6666 29.2763 63.4164 29.7217 62.971C30.1671 62.5256 30.4173 61.9215 30.4173 61.2916C30.4173 60.6618 30.1671 60.0577 29.7217 59.6123C29.2763 59.1669 28.6722 58.9166 28.0423 58.9166H5.87565C5.66569 58.9166 5.46432 58.8332 5.31586 58.6848C5.16739 58.5363 5.08398 58.3349 5.08398 58.125V5.87498Z" fill="#1DA1F2"/>
<path d="M24.9306 38.2759C24.9306 36.9955 24.4219 35.7676 23.5166 34.8623C22.6112 33.9569 21.3833 33.4483 20.103 33.4483C18.8226 33.4483 17.5947 33.9569 16.6894 34.8623C15.784 35.7676 15.2754 36.9955 15.2754 38.2759V39.4828C15.2754 40.7631 15.784 41.9911 16.6894 42.8964C17.5947 43.8018 18.8226 44.3104 20.103 44.3104C21.3833 44.3104 22.6112 43.8018 23.5166 42.8964C24.4219 41.9911 24.9306 40.7631 24.9306 39.4828" stroke="#1DA1F2" stroke-width="2" stroke-linecap="round" stroke-linejoin="round"/>
<path d="M15.2754 47.9311C15.2754 49.2114 15.784 50.4393 16.6894 51.3447C17.5947 52.25 18.8226 52.7586 20.103 52.7586C21.3833 52.7586 22.6112 52.25 23.5166 51.3447C24.4219 50.4393 24.9306 49.2114 24.9306 47.9311V38.2759" stroke="#1DA1F2" stroke-width="2" stroke-linecap="round" stroke-linejoin="round"/>
</svg>
