<svg width="75" height="75" viewBox="0 0 85 85" fill="none" xmlns="http://www.w3.org/2000/svg">
<g clip-path="url(#clip0_1315_26156)">
<path d="M40.7651 42.7311C39.2138 44.1761 26.7812 56.2381 26.7812 56.2381L30.1002 59.5106C30.1002 59.5106 41.1462 49.3159 42.8051 47.774C43.2155 47.3941 43.9101 46.6703 45.1944 46.6703H82.8666V41.4534H43.8848C42.7453 41.4548 41.6655 41.901 40.7651 42.7298V42.7311Z" fill="#1DA1F2"/>
<path d="M63.085 14.3743C67.5023 14.3743 69.9129 11.3156 69.9129 7.5464C69.9126 6.19634 69.5121 4.87668 68.7619 3.75426C68.0116 2.63184 66.9455 1.75707 65.6981 1.24055C64.4508 0.724029 63.0783 0.588952 61.7542 0.852399C60.4301 1.11585 59.2139 1.76599 58.2592 2.72062C57.3046 3.67525 56.6545 4.8915 56.391 6.2156C56.1276 7.5397 56.2626 8.91219 56.7792 10.1595C57.2957 11.4069 58.1704 12.473 59.2929 13.2233C60.4153 13.9735 61.735 14.374 63.085 14.3743Z" fill="#1DA1F2"/>
<path d="M52.9615 26.1069H55.2512L51.8963 38.1597H74.2752L70.9177 26.1069H73.2074L76.6898 38.1597H82.6052L77.8505 22.1664C77.2223 19.9577 74.4293 16.0451 69.5936 16.0451H56.5753C51.7423 16.0451 48.9519 19.9577 48.3184 22.1664L43.5703 38.1597H49.4858L52.9615 26.1069Z" fill="#1DA1F2"/>
<path d="M33.6055 37.5275L27.5958 26.3221C27.5958 26.3221 27.2425 25.7882 26.5877 26.1056C25.9994 26.3899 26.265 27.0526 26.265 27.0526L28.2585 30.8577L29.499 33.2284L28.0686 32.5842C25.5345 31.442 24.1373 30.9546 23.5769 30.7036C23.4773 30.6571 22.9859 30.3875 22.7521 29.8735C22.088 28.3887 19.2525 21.2115 18.6163 19.6244C18.0784 18.2816 16.7516 16.3745 14.025 15.6998C10.9212 14.9321 7.79211 16.8898 7.05367 20.0042L2.81828 37.8556C2.44109 39.2952 1.79297 43.1893 1.79297 44.8309L1.82086 79.6995C1.84211 82.6413 3.96578 85.0133 6.90492 85C9.84008 84.9907 11.8495 82.5988 11.8402 79.6609L11.8336 50.1208L16.3505 31.0556C16.8778 32.3452 17.5312 33.9163 17.7451 34.2935C18.2537 35.1834 18.7558 35.7956 19.7811 36.2777C19.7811 36.2777 25.6926 38.7241 27.9809 39.7681C28.6345 40.0178 29.3508 40.0517 30.025 39.8648C30.6993 39.6779 31.2959 39.2801 31.7276 38.7295L32.0437 38.0747L32.1526 38.2832C32.1526 38.2832 32.8259 39.4692 33.8207 39.5237C34.1063 38.6192 33.6069 37.5275 33.6069 37.5275H33.6055Z" fill="#1DA1F2"/>
<path d="M24.4677 7.48798C24.4677 8.38472 24.291 9.27268 23.9479 10.1012C23.6047 10.9296 23.1017 11.6824 22.4676 12.3165C21.8335 12.9506 21.0808 13.4536 20.2523 13.7967C19.4238 14.1399 18.5358 14.3165 17.6391 14.3165C16.7424 14.3165 15.8544 14.1399 15.0259 13.7967C14.1974 13.4536 13.4447 12.9506 12.8106 12.3165C12.1765 11.6824 11.6735 10.9296 11.3303 10.1012C10.9872 9.27268 10.8105 8.38472 10.8105 7.48798C10.8356 5.69343 11.566 3.98086 12.8439 2.72068C14.1218 1.46049 15.8444 0.753998 17.6391 0.753998C19.4338 0.753998 21.1564 1.46049 22.4343 2.72068C23.7122 3.98086 24.4426 5.69343 24.4677 7.48798Z" fill="#1DA1F2"/>
<path d="M27.5437 52.0452L40.8488 39.6618L39.1196 37.8064L25.8145 50.1912L27.5437 52.0452Z" fill="#1DA1F2"/>
</g>
<defs>
<clipPath id="clip0_1315_26156">
<rect width="85" height="85" fill="white"/>
</clipPath>
</defs>
</svg>
