<svg width="75" height="75" viewBox="0 0 61 61" fill="none" xmlns="http://www.w3.org/2000/svg">
<path d="M23.6844 3.8493C18.9978 5.04918 14.7106 7.46385 11.2552 10.8497C7.79977 14.2356 5.29846 18.4729 4.0036 23.1342C2.70874 27.7954 2.66612 32.7157 3.88005 37.3987C5.09398 42.0817 7.52151 46.3617 10.9177 49.8069C14.314 53.2521 18.5588 55.7407 23.2239 57.0216C27.889 58.3025 32.8094 58.3303 37.4887 57.1023C42.1681 55.8744 46.4408 53.434 49.8758 50.0275C53.3108 46.6209 55.7866 42.3687 57.0535 37.6997" stroke="#1DA1F2" stroke-width="5" stroke-linecap="round" stroke-linejoin="round"/>
<path fill-rule="evenodd" clip-rule="evenodd" d="M58.0008 30.5067C58.0008 23.2115 55.1028 16.215 49.9443 11.0565C44.7858 5.89802 37.7894 3 30.4941 3V30.5067H58.0008Z" stroke="#1DA1F2" stroke-width="5" stroke-linecap="round" stroke-linejoin="round"/>
</svg>
