<svg width="75" height="75" viewBox="0 0 66 66" fill="none" xmlns="http://www.w3.org/2000/svg">
<path d="M26.125 28.8749H33C33.7294 28.8749 34.4288 28.5852 34.9446 28.0695C35.4603 27.5538 35.75 26.8543 35.75 26.1249C35.75 25.3956 35.4603 24.6961 34.9446 24.1804C34.4288 23.6647 33.7294 23.3749 33 23.3749H30.25V21.9999C30.25 21.2706 29.9603 20.5711 29.4446 20.0554C28.9288 19.5397 28.2294 19.2499 27.5 19.2499C26.7707 19.2499 26.0712 19.5397 25.5555 20.0554C25.0398 20.5711 24.75 21.2706 24.75 21.9999V23.5124C23.0792 23.8517 21.594 24.7997 20.5828 26.1724C19.5716 27.5451 19.1066 29.2446 19.2779 30.9409C19.4493 32.6372 20.2448 34.2093 21.5101 35.3521C22.7753 36.4948 24.4201 37.1267 26.125 37.1249H28.875C29.2397 37.1249 29.5894 37.2698 29.8473 37.5277C30.1052 37.7855 30.25 38.1353 30.25 38.4999C30.25 38.8646 30.1052 39.2144 29.8473 39.4722C29.5894 39.7301 29.2397 39.8749 28.875 39.8749H22C21.2707 39.8749 20.5712 40.1647 20.0555 40.6804C19.5398 41.1961 19.25 41.8956 19.25 42.6249C19.25 43.3543 19.5398 44.0538 20.0555 44.5695C20.5712 45.0852 21.2707 45.3749 22 45.3749H24.75V46.7499C24.75 47.4793 25.0398 48.1788 25.5555 48.6945C26.0712 49.2102 26.7707 49.4999 27.5 49.4999C28.2294 49.4999 28.9288 49.2102 29.4446 48.6945C29.9603 48.1788 30.25 47.4793 30.25 46.7499V45.2374C31.9209 44.8982 33.406 43.9502 34.4172 42.5775C35.4284 41.2048 35.8935 39.5053 35.7221 37.809C35.5508 36.1127 34.7553 34.5406 33.49 33.3978C32.2247 32.2551 30.58 31.6232 28.875 31.6249H26.125C25.7604 31.6249 25.4106 31.4801 25.1528 31.2222C24.8949 30.9644 24.75 30.6146 24.75 30.2499C24.75 29.8853 24.8949 29.5355 25.1528 29.2777C25.4106 29.0198 25.7604 28.8749 26.125 28.8749ZM57.75 32.9999H49.5V8.24994C49.5019 7.76537 49.3758 7.28888 49.1343 6.86875C48.8929 6.44861 48.5447 6.09973 48.125 5.85744C47.707 5.61608 47.2327 5.48901 46.75 5.48901C46.2673 5.48901 45.7931 5.61608 45.375 5.85744L37.125 10.5874L28.875 5.85744C28.457 5.61608 27.9827 5.48901 27.5 5.48901C27.0173 5.48901 26.5431 5.61608 26.125 5.85744L17.875 10.5874L9.62502 5.85744C9.20697 5.61608 8.73275 5.48901 8.25002 5.48901C7.7673 5.48901 7.29307 5.61608 6.87502 5.85744C6.45536 6.09973 6.10717 6.44861 5.86571 6.86875C5.62425 7.28888 5.4981 7.76537 5.50002 8.24994V52.2499C5.50002 54.438 6.36922 56.5364 7.91639 58.0836C9.46357 59.6308 11.562 60.4999 13.75 60.4999H52.25C54.4381 60.4999 56.5365 59.6308 58.0837 58.0836C59.6308 56.5364 60.5 54.438 60.5 52.2499V35.7499C60.5 35.0206 60.2103 34.3211 59.6946 33.8054C59.1788 33.2897 58.4794 32.9999 57.75 32.9999ZM13.75 54.9999C13.0207 54.9999 12.3212 54.7102 11.8055 54.1945C11.2898 53.6788 11 52.9793 11 52.2499V13.0074L16.5 16.1424C16.9245 16.3641 17.3962 16.4799 17.875 16.4799C18.3539 16.4799 18.8256 16.3641 19.25 16.1424L27.5 11.4124L35.75 16.1424C36.1744 16.3641 36.6462 16.4799 37.125 16.4799C37.6039 16.4799 38.0756 16.3641 38.5 16.1424L44 13.0074V52.2499C44.0075 53.1881 44.1749 54.1181 44.495 54.9999H13.75ZM55 52.2499C55 52.9793 54.7103 53.6788 54.1946 54.1945C53.6788 54.7102 52.9794 54.9999 52.25 54.9999C51.5207 54.9999 50.8212 54.7102 50.3055 54.1945C49.7898 53.6788 49.5 52.9793 49.5 52.2499V38.4999H55V52.2499Z" fill="#1DA1F2"/>
<rect x="17" y="19" width="23" height="33" fill="white"/>
<g clip-path="url(#clip0_1336_29349)">
<path d="M31.6235 24.88H36.9294L38.8706 22.12H18.9412L17 24.88H20.3647C23.8588 24.88 27.0941 25.12 28.3882 27.88H18.9412L17 30.64H28.7765V30.76C28.7765 32.8 26.9647 35.92 21.0118 35.92H18.0353V38.56L29.6824 52.12H34.9882L22.8235 38.08C27.8706 37.84 32.5294 35.2 33.1765 30.64H36.9294L38.8706 27.88H33.0471C32.9176 26.8 32.4 25.72 31.6235 24.88Z" fill="#1DA1F2"/>
</g>
<defs>
<clipPath id="clip0_1336_29349">
<rect width="22" height="30" fill="white" transform="translate(17 22)"/>
</clipPath>
</defs>
</svg>
