<svg width="15" height="15" viewBox="0 0 15 15" fill="none" xmlns="http://www.w3.org/2000/svg">
<path d="M14.667 6.19494L12.9464 5.77181C12.843 5.44564 12.71 5.12936 12.5494 4.82681C12.8078 4.39679 13.3507 3.49172 13.3507 3.49172C13.4545 3.31878 13.4271 3.09732 13.2846 2.95485L12.0417 1.71202C11.8993 1.56911 11.6783 1.54166 11.5049 1.64593L10.1676 2.44717C9.86678 2.28794 9.55222 2.15619 9.22822 2.05362L8.80509 0.333047C8.75613 0.137344 8.58062 0 8.37891 0H6.62109C6.41938 0 6.24343 0.137344 6.19494 0.333018C6.19494 0.333018 5.90183 1.5339 5.77222 2.05318C5.42675 2.16261 5.09288 2.30467 4.77486 2.47805L3.38827 1.64593C3.21489 1.54292 2.99432 1.56955 2.85141 1.71202L1.60857 2.95485C1.4661 3.09732 1.43862 3.31878 1.54248 3.49172L2.39994 4.92381C2.26175 5.19633 2.14588 5.47998 2.05362 5.77052L0.333047 6.19494C0.137344 6.24387 0 6.41938 0 6.62109V8.37891C0 8.58062 0.137344 8.75657 0.333018 8.80506L2.05403 9.22819C2.15833 9.55907 2.29392 9.88052 2.4583 10.1891L1.69099 11.4679C1.58713 11.6409 1.61461 11.8623 1.75708 12.0048L2.99991 13.2476C3.14197 13.3897 3.3634 13.4167 3.53678 13.3137C3.53678 13.3137 4.39723 12.7979 4.81866 12.5455C5.12379 12.7082 5.44307 12.8425 5.77225 12.9468L6.19497 14.667C6.24343 14.8627 6.41938 15 6.62109 15H8.37891C8.58062 15 8.75613 14.8627 8.80506 14.667L9.22778 12.9468C9.5664 12.8395 9.89253 12.7009 10.2028 12.5327C10.6358 12.7923 11.5049 13.3137 11.5049 13.3137C11.6778 13.4171 11.8992 13.3905 12.0417 13.2476L13.2846 12.0048C13.427 11.8623 13.4545 11.6409 13.3506 11.4679L12.5606 10.1517C12.7163 9.85602 12.8455 9.54662 12.9464 9.22819L14.667 8.80506C14.8627 8.75613 15 8.58062 15 8.37891V6.62109C15 6.41938 14.8627 6.24387 14.667 6.19494ZM7.5 10.5762C5.80397 10.5762 4.42383 9.19602 4.42383 7.5C4.42383 5.80397 5.80397 4.42383 7.5 4.42383C9.19602 4.42383 10.5762 5.80397 10.5762 7.5C10.5762 9.19602 9.19602 10.5762 7.5 10.5762Z" fill="white"/>
</svg>
