<svg width="15" height="15" viewBox="0 0 15 15" fill="none" xmlns="http://www.w3.org/2000/svg">
<path d="M15 13.75H13.6364V1.25H2.04546V0H14.3182C14.499 0 14.6724 0.065848 14.8003 0.183058C14.9282 0.300269 15 0.45924 15 0.625V13.75Z" fill="white"/>
<path d="M11.5909 15H0.681818C0.500989 15 0.327566 14.9342 0.1997 14.8169C0.0718342 14.6997 0 14.5408 0 14.375V3.125C0 2.95924 0.0718342 2.80027 0.1997 2.68306C0.327566 2.56585 0.500989 2.5 0.681818 2.5H11.5909C11.7717 2.5 11.9452 2.56585 12.073 2.68306C12.2009 2.80027 12.2727 2.95924 12.2727 3.125V14.375C12.2727 14.5408 12.2009 14.6997 12.073 14.8169C11.9452 14.9342 11.7717 15 11.5909 15ZM2.72727 10.625V11.875H6.81818V10.625H2.72727ZM2.72727 8.125V9.375H9.54545V8.125H2.72727ZM2.72727 5.625V6.875H9.54545V5.625H2.72727Z" fill="white"/>
</svg>
