<svg width="15" height="15" viewBox="0 0 15 15" fill="none" xmlns="http://www.w3.org/2000/svg">
<g clip-path="url(#clip0)">
<path d="M14.1054 9.7527C13.3338 8.98052 12.2632 8.65339 10.8882 9.02189L5.98511 4.11384L6.04991 3.8688C6.3323 2.80924 6.02718 1.67033 5.25386 0.897006C4.46647 0.109007 3.3471 -0.180124 2.28846 0.110677C2.13749 0.152132 2.01998 0.270755 1.97999 0.422132C1.94 0.573509 1.98386 0.734408 2.09451 0.845121L3.27509 2.0257C3.62023 2.37169 3.61686 2.92582 3.27594 3.26765C2.9377 3.60679 2.36917 3.60627 2.03228 3.2685L0.851472 2.0876C0.74076 1.97683 0.579392 1.93338 0.428016 1.97361C0.276609 2.0138 0.158426 2.13161 0.117117 2.28272C-0.169436 3.32973 0.112459 4.45605 0.903621 5.24722C1.67489 6.01904 2.7442 6.34734 4.12001 5.97806L9.02345 10.8861C8.65754 12.2607 8.97318 13.321 9.75514 14.1029C10.5435 14.8919 11.6634 15.1789 12.7198 14.8891C12.8707 14.8476 12.9883 14.729 13.0283 14.5776C13.0683 14.4262 13.0245 14.2653 12.9138 14.1546L11.7335 12.9742C11.3883 12.6282 11.3917 12.0741 11.7326 11.7323C12.0751 11.3916 12.6424 11.397 12.9763 11.7319L14.1572 12.9124C14.2679 13.0231 14.4293 13.0666 14.5806 13.0264C14.732 12.9861 14.8502 12.8684 14.8915 12.7173C15.178 11.6705 14.8962 10.5439 14.1054 9.7527Z" fill="white"/>
<path d="M4.7034 7.81055L0.514182 12.0003C-0.171394 12.6859 -0.171394 13.8007 0.514182 14.4863C1.19976 15.1719 2.31462 15.1719 3.00017 14.4863L7.1893 10.2966L4.7034 7.81055ZM2.58732 13.1225C2.41564 13.2942 2.13761 13.2942 1.96593 13.1225C1.79428 12.9508 1.79428 12.6727 1.96593 12.5011L4.63136 9.83517C4.80301 9.66352 5.08113 9.66352 5.25275 9.83517C5.4244 10.0068 5.4244 10.2849 5.25275 10.4566L2.58732 13.1225Z" fill="white"/>
<path d="M14.8691 0.886323L14.1115 0.128735C13.969 -0.013853 13.7477 -0.0410991 13.5748 0.0625825L11.2443 1.46072C10.9991 1.60782 10.9575 1.94611 11.1596 2.14829L11.3451 2.33373L8.38672 5.28003L9.62993 6.52325L12.5883 3.57695L12.8496 3.83831C13.0518 4.04042 13.3901 3.99882 13.5372 3.75361L14.9353 1.42313C15.039 1.25019 15.0117 1.02891 14.8691 0.886323Z" fill="white"/>
</g>
<defs>
<clipPath id="clip0">
<rect width="15" height="15" fill="white"/>
</clipPath>
</defs>
</svg>
