<svg width="580" height="47" viewBox="0 0 580 47" fill="none" xmlns="http://www.w3.org/2000/svg">
<path d="M10.4995 8.71973V14.7246C10.4995 15.4102 10.3514 16.0111 10.0552 16.5273C9.76318 17.0394 9.33789 17.4351 8.7793 17.7144C8.22493 17.9894 7.56055 18.127 6.78613 18.127C5.63509 18.127 4.74007 17.8223 4.10107 17.2129C3.46208 16.6035 3.14258 15.7656 3.14258 14.6992V8.71973H4.66602V14.5913C4.66602 15.3573 4.84375 15.9222 5.19922 16.2861C5.55469 16.6501 6.10059 16.832 6.83691 16.832C8.26725 16.832 8.98242 16.0809 8.98242 14.5786V8.71973H10.4995ZM16.2759 18.127C15.3872 18.127 14.6974 17.8075 14.2065 17.1685H14.1177C14.1769 17.7609 14.2065 18.1206 14.2065 18.2476V21.123H12.7148V10.9795H13.9209C13.9548 11.1107 14.0246 11.4238 14.1304 11.9189H14.2065C14.672 11.208 15.3703 10.8525 16.3013 10.8525C17.1772 10.8525 17.8586 11.1699 18.3452 11.8047C18.8361 12.4395 19.0815 13.3302 19.0815 14.4771C19.0815 15.6239 18.8319 16.5189 18.3325 17.1621C17.8374 17.8053 17.1519 18.127 16.2759 18.127ZM15.9141 12.0713C15.3216 12.0713 14.8879 12.2448 14.6128 12.5918C14.342 12.9388 14.2065 13.4932 14.2065 14.2549V14.4771C14.2065 15.3319 14.342 15.9518 14.6128 16.3369C14.8836 16.7178 15.3258 16.9082 15.9395 16.9082C16.4557 16.9082 16.8535 16.6966 17.1328 16.2734C17.4121 15.8503 17.5518 15.2472 17.5518 14.4644C17.5518 13.6772 17.4121 13.0827 17.1328 12.6807C16.8577 12.2744 16.4515 12.0713 15.9141 12.0713ZM22.3062 18H20.8145V8.12305H22.3062V18ZM30.6724 14.4771C30.6724 15.6239 30.3783 16.5189 29.79 17.1621C29.2018 17.8053 28.383 18.127 27.3335 18.127C26.6776 18.127 26.0978 17.9788 25.5942 17.6826C25.0907 17.3864 24.7035 16.9611 24.4326 16.4067C24.1618 15.8524 24.0264 15.2091 24.0264 14.4771C24.0264 13.3387 24.3184 12.45 24.9023 11.811C25.4863 11.172 26.3094 10.8525 27.3716 10.8525C28.3872 10.8525 29.1912 11.1805 29.7837 11.8364C30.3761 12.4881 30.6724 13.3683 30.6724 14.4771ZM25.5625 14.4771C25.5625 16.0978 26.1613 16.9082 27.3589 16.9082C28.5438 16.9082 29.1362 16.0978 29.1362 14.4771C29.1362 12.8732 28.5396 12.0713 27.3462 12.0713C26.7199 12.0713 26.265 12.2786 25.9814 12.6934C25.7021 13.1081 25.5625 13.7026 25.5625 14.4771ZM36.7852 18L36.4868 17.0225H36.436C36.0975 17.4499 35.7568 17.7419 35.4141 17.8984C35.0713 18.0508 34.6312 18.127 34.0938 18.127C33.404 18.127 32.8644 17.9408 32.4751 17.5684C32.09 17.196 31.8975 16.6691 31.8975 15.9878C31.8975 15.2642 32.1662 14.7183 32.7036 14.3501C33.241 13.9819 34.0599 13.7809 35.1602 13.7471L36.3726 13.709V13.3345C36.3726 12.8859 36.2668 12.5516 36.0552 12.3315C35.8478 12.1073 35.5241 11.9951 35.084 11.9951C34.7243 11.9951 34.3794 12.048 34.0493 12.1538C33.7192 12.2596 33.4019 12.3844 33.0972 12.5283L32.6147 11.4619C32.9956 11.263 33.4124 11.1128 33.8652 11.0112C34.318 10.9054 34.7454 10.8525 35.1475 10.8525C36.0404 10.8525 36.7132 11.0472 37.166 11.4365C37.623 11.8258 37.8516 12.4373 37.8516 13.271V18H36.7852ZM34.5635 16.9844C35.1051 16.9844 35.5389 16.8341 35.8647 16.5337C36.1948 16.229 36.3599 15.8037 36.3599 15.2578V14.6484L35.4585 14.6865C34.756 14.7119 34.244 14.8304 33.9224 15.042C33.605 15.2493 33.4463 15.5688 33.4463 16.0005C33.4463 16.3136 33.5394 16.557 33.7256 16.7305C33.9118 16.8997 34.1911 16.9844 34.5635 16.9844ZM42.3013 18.127C41.4253 18.127 40.7419 17.8096 40.251 17.1748C39.7601 16.54 39.5146 15.6493 39.5146 14.5024C39.5146 13.3514 39.7622 12.4564 40.2573 11.8174C40.7567 11.1742 41.4465 10.8525 42.3267 10.8525C43.2492 10.8525 43.9517 11.1932 44.4341 11.8745H44.5103C44.4383 11.3709 44.4023 10.9731 44.4023 10.6812V8.12305H45.9004V18H44.7324L44.4722 17.0796H44.4023C43.9242 17.7778 43.2238 18.127 42.3013 18.127ZM42.7012 16.9209C43.3148 16.9209 43.7612 16.7495 44.0405 16.4067C44.3198 16.0597 44.4637 15.499 44.4722 14.7246V14.5151C44.4722 13.6307 44.3283 13.0023 44.0405 12.6299C43.7528 12.2575 43.3021 12.0713 42.6885 12.0713C42.1637 12.0713 41.7596 12.285 41.4761 12.7124C41.1925 13.1356 41.0508 13.7407 41.0508 14.5278C41.0508 15.3065 41.1883 15.901 41.4634 16.3115C41.7384 16.7178 42.151 16.9209 42.7012 16.9209ZM49.5249 18H48.0332V10.9795H49.5249V18ZM47.9443 9.11963C47.9443 8.85303 48.0163 8.64779 48.1602 8.50391C48.3083 8.36003 48.5177 8.28809 48.7886 8.28809C49.0509 8.28809 49.2541 8.36003 49.3979 8.50391C49.5461 8.64779 49.6201 8.85303 49.6201 9.11963C49.6201 9.37354 49.5461 9.57454 49.3979 9.72266C49.2541 9.86654 49.0509 9.93848 48.7886 9.93848C48.5177 9.93848 48.3083 9.86654 48.1602 9.72266C48.0163 9.57454 47.9443 9.37354 47.9443 9.11963ZM57.8403 18H56.3423V13.6836C56.3423 13.1419 56.2323 12.7378 56.0122 12.4712C55.7964 12.2046 55.4515 12.0713 54.9775 12.0713C54.347 12.0713 53.8857 12.2575 53.5938 12.6299C53.3018 13.0023 53.1558 13.6265 53.1558 14.5024V18H51.6641V10.9795H52.832L53.0415 11.8999H53.1177C53.3293 11.5656 53.6297 11.3075 54.019 11.1255C54.4084 10.9435 54.84 10.8525 55.314 10.8525C56.9982 10.8525 57.8403 11.7095 57.8403 13.4233V18ZM65.8447 10.9795V11.7983L64.645 12.0205C64.755 12.1686 64.846 12.3506 64.918 12.5664C64.9899 12.7822 65.0259 13.0107 65.0259 13.252C65.0259 13.9756 64.7762 14.5448 64.2769 14.9595C63.7775 15.3742 63.0898 15.5815 62.2139 15.5815C61.9896 15.5815 61.7865 15.5646 61.6045 15.5308C61.2829 15.7297 61.1221 15.9624 61.1221 16.229C61.1221 16.3898 61.1961 16.5104 61.3442 16.5908C61.4966 16.6712 61.7738 16.7114 62.1758 16.7114H63.4009C64.1753 16.7114 64.7635 16.8765 65.1655 17.2065C65.5675 17.5366 65.7686 18.0127 65.7686 18.6348C65.7686 19.4303 65.4406 20.0439 64.7847 20.4756C64.1287 20.9072 63.1808 21.123 61.9409 21.123C60.9845 21.123 60.2546 20.9538 59.751 20.6152C59.2474 20.2767 58.9956 19.7943 58.9956 19.168C58.9956 18.7363 59.131 18.3724 59.4019 18.0762C59.6769 17.7842 60.0599 17.5811 60.5508 17.4668C60.3519 17.3822 60.1868 17.2467 60.0557 17.0605C59.9287 16.8701 59.8652 16.6712 59.8652 16.4639C59.8652 16.2015 59.9393 15.9793 60.0874 15.7974C60.2355 15.6154 60.4556 15.4355 60.7476 15.2578C60.3836 15.1012 60.0874 14.8473 59.8589 14.4961C59.6346 14.1406 59.5225 13.7259 59.5225 13.252C59.5225 12.4902 59.7616 11.8999 60.2397 11.481C60.7222 11.062 61.4077 10.8525 62.2964 10.8525C62.4953 10.8525 62.7026 10.8674 62.9185 10.897C63.1385 10.9224 63.3035 10.9499 63.4136 10.9795H65.8447ZM60.3286 19.0918C60.3286 19.4134 60.4725 19.661 60.7603 19.8345C61.0522 20.008 61.4606 20.0947 61.9854 20.0947C62.7979 20.0947 63.403 19.9784 63.8008 19.7456C64.1986 19.5129 64.3975 19.2039 64.3975 18.8188C64.3975 18.5142 64.2874 18.2962 64.0674 18.165C63.8516 18.0381 63.4474 17.9746 62.855 17.9746H61.7251C61.2977 17.9746 60.957 18.0741 60.7031 18.2729C60.4535 18.4761 60.3286 18.749 60.3286 19.0918ZM60.9697 13.252C60.9697 13.6921 61.0819 14.0306 61.3062 14.2676C61.5347 14.5046 61.8605 14.623 62.2837 14.623C63.147 14.623 63.5786 14.1618 63.5786 13.2393C63.5786 12.7822 63.4707 12.431 63.2549 12.1855C63.0433 11.9359 62.7196 11.811 62.2837 11.811C61.8521 11.811 61.5241 11.9338 61.2998 12.1792C61.0798 12.4246 60.9697 12.7822 60.9697 13.252Z" fill="#32325D"/>
<g filter="url(#filter0_d)">
<rect x="2" y="39.6001" width="576" height="4.4" rx="2.2" fill="#E9ECEF"/>
</g>
<rect x="2" y="39.6001" width="345.854" height="4.4" fill="#518FF5"/>
<defs>
<filter id="filter0_d" x="0" y="38.6001" width="580" height="8.4" filterUnits="userSpaceOnUse" color-interpolation-filters="sRGB">
<feFlood flood-opacity="0" result="BackgroundImageFix"/>
<feColorMatrix in="SourceAlpha" type="matrix" values="0 0 0 0 0 0 0 0 0 0 0 0 0 0 0 0 0 0 127 0"/>
<feOffset dy="1"/>
<feGaussianBlur stdDeviation="1"/>
<feColorMatrix type="matrix" values="0 0 0 0 0 0 0 0 0 0 0 0 0 0 0 0 0 0 0.1 0"/>
<feBlend mode="normal" in2="BackgroundImageFix" result="effect1_dropShadow"/>
<feBlend mode="normal" in="SourceGraphic" in2="effect1_dropShadow" result="shape"/>
</filter>
</defs>
</svg>
