<svg width="83" height="81" viewBox="0 0 83 81" fill="none" xmlns="http://www.w3.org/2000/svg">
<path d="M82.7223 40.2607C82.7223 62.4963 64.2046 80.5214 41.3611 80.5214C18.5177 80.5214 0 62.4963 0 40.2607C0 18.025 18.5177 0 41.3611 0C64.2046 0 82.7223 18.025 82.7223 40.2607Z" fill="#FF8367"/>
<g clip-path="url(#clip0_793_27960)">
<path fill-rule="evenodd" clip-rule="evenodd" d="M20.0077 48.7611L13.0313 29.3621C12.9311 29.0796 13.0798 28.7667 13.3623 28.6635C22.5346 25.3646 32.8702 22.2963 41.7054 18.5265C42.1002 18.2775 42.41 18.5235 42.5801 18.9943L53.5414 47.2483L56.5179 55.5261C56.6181 55.8086 56.4723 56.1245 56.1898 56.2248L35.215 63.7675L27.0388 66.7081C26.7563 66.8114 26.4435 66.6625 26.3403 66.38L20.0077 48.7611Z" fill="white"/>
<path fill-rule="evenodd" clip-rule="evenodd" d="M25.8238 42.3238L22.3401 22.0074C22.2885 21.7097 22.489 21.4272 22.7836 21.3755L46.7744 17.2624L52.2687 16.3572C52.5694 16.2266 53.0584 16.3784 53.1737 17.0498L59.1084 46.686L60.5936 55.3558C60.6453 55.6505 60.4448 55.936 60.1502 55.9876L38.1821 59.7545L29.6172 61.2247C29.3226 61.2733 29.0371 61.0728 28.9854 60.7781L25.8238 42.3238Z" fill="white"/>
<path fill-rule="evenodd" clip-rule="evenodd" d="M32.545 36.333V55.8657C32.545 56.1786 32.8002 56.4368 33.113 56.4368H42.179H55.6004H57.529H65.4318C65.7446 56.4368 65.9998 56.1786 65.9998 55.8657V46.6887V21.3388V21.0745H60.2291C59.6733 21.0745 58.5191 21.1535 58.5191 19.8929L58.5069 14.2578H33.1129C32.8001 14.2578 32.5449 14.513 32.5449 14.8259V19.7015V21.7641V36.333H32.545Z" fill="white"/>
<path fill-rule="evenodd" clip-rule="evenodd" d="M22.9173 25.377C19.6675 26.4706 16.4481 27.555 13.3623 28.6638C13.0798 28.7671 12.9311 29.0799 13.0313 29.3624L20.0077 48.7614L26.3403 66.3803C26.4436 66.6628 26.7564 66.8117 27.0388 66.7084L35.215 63.7678L53.8452 57.0696L22.9173 25.377Z" fill="#B5C4CF"/>
<path fill-rule="evenodd" clip-rule="evenodd" d="M32.5451 19.7012L22.7836 21.3749C22.489 21.4266 22.2885 21.7091 22.3401 22.0068L22.9172 25.3756L25.8239 42.3232L28.9855 60.7774C29.0372 61.0721 29.3227 61.2725 29.6173 61.224L38.1822 59.7537L53.845 57.0683L57.5291 56.4365H55.6005L32.5451 19.7012Z" fill="#D7E7EC"/>
<path fill-rule="evenodd" clip-rule="evenodd" d="M65.9997 46.6887V21.3388V21.0745V20.9864C65.9997 20.8224 65.9298 20.795 65.6778 20.549L59.4485 14.6072C59.1539 14.3277 59.1054 14.2578 58.9322 14.2578H58.5069H33.1129C32.8001 14.2578 32.5449 14.513 32.5449 14.8259V55.8657C32.5449 56.1786 32.8001 56.4368 33.1129 56.4368H65.4317C65.7445 56.4368 65.9997 56.1786 65.9997 55.8657V46.6887Z" fill="#EDF3F4"/>
<path fill-rule="evenodd" clip-rule="evenodd" d="M32.5448 19.7012L30.2578 20.0931V57.9646C30.2578 58.2805 30.513 58.5357 30.8258 58.5357H39.8918H45.2859L53.8447 57.0685L57.5288 56.4366H55.6002H53.2281H42.1788H33.1128C32.7999 56.4366 32.5448 56.1784 32.5448 55.8655C32.5448 43.8116 32.5448 31.7548 32.5448 19.7012Z" fill="#B5C4CF"/>
<path fill-rule="evenodd" clip-rule="evenodd" d="M25.8239 42.3245L22.9172 25.377C22.1306 25.6412 21.347 25.9055 20.5664 26.1698L20.9279 28.275L23.8345 45.2226L26.9993 63.6768C27.0478 63.9714 27.3333 64.1719 27.6279 64.1234L36.1928 62.6531L40.2566 61.9575L52.4965 57.5528L52.3508 57.325L45.2862 58.537L38.1823 59.7552L29.6174 61.2254C29.3228 61.2741 29.0373 61.0736 28.9856 60.7789L25.8239 42.3245Z" fill="#9AAFB7"/>
<path fill-rule="evenodd" clip-rule="evenodd" d="M66.0007 46.6887V21.3388V21.0745C66.0007 20.7677 65.9005 20.7647 65.6788 20.549L59.4495 14.6072C59.1549 14.3277 59.1064 14.2578 58.9332 14.2578H58.508H52.1875C59.9111 24.5983 60.3515 43.2378 54.6203 54.8724C54.3561 55.4131 54.0797 55.9326 53.7912 56.4368H55.6013H57.5299H65.4327C65.7456 56.4368 66.0007 56.1786 66.0007 55.8657V46.6887Z" fill="#D7E7EC"/>
<path fill-rule="evenodd" clip-rule="evenodd" d="M58.5199 19.8929C58.5199 21.1535 59.674 21.0745 60.2299 21.0745H66.0006V20.9864C66.0006 20.8224 65.9307 20.795 65.6787 20.549L59.4494 14.6072C59.1548 14.3277 59.1062 14.2578 58.9331 14.2578H58.5078L58.5199 19.8929Z" fill="white"/>
<path fill-rule="evenodd" clip-rule="evenodd" d="M65.6787 20.549L59.4494 14.6072C59.1548 14.3277 59.1062 14.2578 58.9331 14.2578H58.5078L58.5199 19.8928C58.5199 21.1534 59.674 21.0744 60.2299 21.0744H66.0006V20.9863C66.0006 20.8224 65.9307 20.795 65.6787 20.549Z" fill="#B5C4CF"/>
<path d="M60.8679 26.6802H38.0009C37.5592 26.6802 37.2012 26.3221 37.2012 25.8802C37.2012 25.4382 37.5592 25.0801 38.0009 25.0801H60.8679C61.3096 25.0801 61.6677 25.4382 61.6677 25.8802C61.6677 26.3221 61.3098 26.6802 60.8679 26.6802Z" fill="#9AAFB7"/>
<path d="M60.8679 32.3638H38.0009C37.5592 32.3638 37.2012 32.0057 37.2012 31.5637C37.2012 31.1218 37.5592 30.7637 38.0009 30.7637H60.8679C61.3096 30.7637 61.6677 31.1218 61.6677 31.5637C61.6677 32.0057 61.3098 32.3638 60.8679 32.3638Z" fill="#9AAFB7"/>
<path d="M60.8679 38.0474H38.0009C37.5592 38.0474 37.2012 37.6892 37.2012 37.2473C37.2012 36.8054 37.5592 36.4473 38.0009 36.4473H60.8679C61.3096 36.4473 61.6677 36.8054 61.6677 37.2473C61.6677 37.6892 61.3098 38.0474 60.8679 38.0474Z" fill="#9AAFB7"/>
<path d="M60.8679 43.731H38.0009C37.5592 43.731 37.2012 43.3728 37.2012 42.9309C37.2012 42.489 37.5592 42.1309 38.0009 42.1309H60.8679C61.3096 42.1309 61.6677 42.489 61.6677 42.9309C61.6677 43.3728 61.3098 43.731 60.8679 43.731Z" fill="#9AAFB7"/>
<path d="M60.8679 49.4146H38.0009C37.5592 49.4146 37.2012 49.0564 37.2012 48.6145C37.2012 48.1726 37.5592 47.8145 38.0009 47.8145H60.8679C61.3096 47.8145 61.6677 48.1726 61.6677 48.6145C61.6677 49.0564 61.3098 49.4146 60.8679 49.4146Z" fill="#9AAFB7"/>
</g>
<defs>
<clipPath id="clip0_793_27960">
<rect width="53" height="53" fill="white" transform="translate(13 14)"/>
</clipPath>
</defs>
</svg>
