<svg width="80" height="80" viewBox="0 0 80 80" fill="none" xmlns="http://www.w3.org/2000/svg">
<path d="M80 40C80 62.0917 62.0917 80 40 80C17.9083 80 0 62.0917 0 40C0 17.9083 17.9083 0 40 0C62.0917 0 80 17.9083 80 40Z" fill="white"/>
<path d="M50.1562 8.19922H19.0625V61.6367H60.9375V18.9805L50.1562 8.19922Z" fill="#BFDDEF"/>
<path d="M60.9376 18.9805L50.1564 8.19922H39.9629V61.6367H60.9376V18.9805Z" fill="#E9EDF5"/>
<path d="M50.1562 18.9805H60.9375L50.1562 8.19922V18.9805Z" fill="#A3D4FF"/>
<path d="M33.8018 30.7812L29.8174 24.6875H13.7871V63.385H66.2139V30.7812H33.8018Z" fill="#FFD400"/>
<path d="M39.9629 30.7812H66.2135V63.385H39.9629V30.7812Z" fill="#FDBA12"/>
<path d="M30.4375 49.5859H34.9688V55.5078C34.2344 55.7474 33.5417 55.9141 32.8906 56.0078C32.2448 56.1068 31.5833 56.1562 30.9062 56.1562C29.1823 56.1562 27.8646 55.651 26.9531 54.6406C26.0469 53.625 25.5938 52.1693 25.5938 50.2734C25.5938 48.4297 26.1198 46.9922 27.1719 45.9609C28.2292 44.9297 29.6927 44.4141 31.5625 44.4141C32.7344 44.4141 33.8646 44.6484 34.9531 45.1172L34.1484 47.0547C33.3151 46.638 32.4479 46.4297 31.5469 46.4297C30.5 46.4297 29.6615 46.7812 29.0312 47.4844C28.401 48.1875 28.0859 49.1328 28.0859 50.3203C28.0859 51.5599 28.3385 52.5078 28.8438 53.1641C29.3542 53.8151 30.0938 54.1406 31.0625 54.1406C31.5677 54.1406 32.0807 54.0885 32.6016 53.9844V51.6016H30.4375V49.5859ZM44.4375 52.8281C44.4375 53.8594 44.0651 54.6719 43.3203 55.2656C42.5807 55.8594 41.5495 56.1562 40.2266 56.1562C39.0078 56.1562 37.9297 55.9271 36.9922 55.4688V53.2188C37.763 53.5625 38.4141 53.8047 38.9453 53.9453C39.4818 54.0859 39.9714 54.1562 40.4141 54.1562C40.9453 54.1562 41.3516 54.0547 41.6328 53.8516C41.9193 53.6484 42.0625 53.3464 42.0625 52.9453C42.0625 52.7214 42 52.5234 41.875 52.3516C41.75 52.1745 41.5651 52.0052 41.3203 51.8438C41.0807 51.6823 40.5885 51.4245 39.8438 51.0703C39.1458 50.7422 38.6224 50.4271 38.2734 50.125C37.9245 49.8229 37.6458 49.4714 37.4375 49.0703C37.2292 48.6693 37.125 48.2005 37.125 47.6641C37.125 46.6536 37.4661 45.8594 38.1484 45.2812C38.8359 44.7031 39.7839 44.4141 40.9922 44.4141C41.5859 44.4141 42.151 44.4844 42.6875 44.625C43.2292 44.7656 43.7943 44.9635 44.3828 45.2188L43.6016 47.1016C42.9922 46.8516 42.487 46.6771 42.0859 46.5781C41.6901 46.4792 41.2995 46.4297 40.9141 46.4297C40.4557 46.4297 40.1042 46.5365 39.8594 46.75C39.6146 46.9635 39.4922 47.2422 39.4922 47.5859C39.4922 47.7995 39.5417 47.987 39.6406 48.1484C39.7396 48.3047 39.8958 48.4583 40.1094 48.6094C40.3281 48.7552 40.8411 49.0208 41.6484 49.4062C42.7161 49.9167 43.4479 50.4297 43.8438 50.9453C44.2396 51.4557 44.4375 52.0833 44.4375 52.8281ZM50.9141 56H48.4922V46.5938H45.3906V44.5781H54.0156V46.5938H50.9141V56Z" fill="#3E4D6C"/>
</svg>
