<svg width="83" height="81" viewBox="0 0 83 81" fill="none" xmlns="http://www.w3.org/2000/svg">
<path d="M82.7223 40.2607C82.7223 62.4963 64.2045 80.5214 41.3611 80.5214C18.5177 80.5214 0 62.4963 0 40.2607C0 18.025 18.5177 0 41.3611 0C64.2045 0 82.7223 18.025 82.7223 40.2607Z" fill="white"/>
<g clip-path="url(#clip0_793_28100)">
<path d="M31.8458 66.4307C29.9531 66.122 23.049 63.4921 23.049 63.4921C23.049 63.4921 20.1744 56.4213 20.1738 54.2498V14.0918H41.3616L42.7259 40.2612L41.3616 66.4307H31.8458Z" fill="#F4F2F1"/>
<path d="M41.3613 14.0918H62.5491V66.4307H41.3613V14.0918Z" fill="#E5DEDD"/>
<path d="M28.5047 62.6487V58.1817H24.2077C21.9768 58.1817 20.1742 56.4215 20.1738 54.25V59.2078C20.1738 63.197 23.4961 66.4309 27.5943 66.4309H31.8458C29.9531 66.1222 28.5047 64.5878 28.5047 62.6487Z" fill="#E5DEDD"/>
<path d="M44.0215 24.416H56.8718V27.4815H44.0215V24.416Z" fill="#BB9F97"/>
<path d="M44.0215 30.5469H56.8718V33.6124H44.0215V30.5469Z" fill="#BB9F97"/>
<path d="M30.3636 33.1055L27.4836 28.0815V26.8975H28.4436C29.0089 26.8975 29.4836 26.7748 29.8676 26.5295C30.2516 26.2735 30.4969 25.9215 30.6036 25.4735H27.4836V24.2895H30.5876C30.4916 23.8841 30.2942 23.5481 29.9956 23.2815C29.6969 23.0041 29.2809 22.8655 28.7476 22.8655H27.4836V21.6815H34.6996V22.8655H32.1876C32.5609 23.2708 32.7956 23.7455 32.8916 24.2895H34.6996V25.4735H32.9236C32.8169 26.2628 32.5129 26.8815 32.0116 27.3295C31.5102 27.7668 30.8649 28.0655 30.0756 28.2255L33.2116 33.1055H30.3636Z" fill="#FFCC00"/>
<path d="M31.8516 58H29.4297V48.5938H26.3281V46.5781H34.9531V48.5938H31.8516V58ZM43.7031 58L42.875 55.2812H38.7109L37.8828 58H35.2734L39.3047 46.5312H42.2656L46.3125 58H43.7031ZM42.2969 53.25C41.5312 50.7865 41.099 49.3932 41 49.0703C40.9062 48.7474 40.8385 48.4922 40.7969 48.3047C40.625 48.9714 40.1328 50.6198 39.3203 53.25H42.2969ZM56.9922 58H54.2266L51.5703 53.6797L48.9141 58H46.3203L50.1094 52.1094L46.5625 46.5781H49.2344L51.6953 50.6875L54.1094 46.5781H56.7188L53.1328 52.2422L56.9922 58Z" fill="#3D4B6A"/>
</g>
<defs>
<clipPath id="clip0_793_28100">
<rect width="53.7694" height="52.3389" fill="white" transform="translate(14.4766 14.0918)"/>
</clipPath>
</defs>
</svg>
