<svg width="83" height="81" viewBox="0 0 83 81" fill="none" xmlns="http://www.w3.org/2000/svg">
<path d="M82.7223 40.2607C82.7223 62.4963 64.2046 80.5214 41.3611 80.5214C18.5177 80.5214 0 62.4963 0 40.2607C0 18.025 18.5177 0 41.3611 0C64.2046 0 82.7223 18.025 82.7223 40.2607Z" fill="#7BE0FF"/>
<g clip-path="url(#clip0_793_28001)">
<path d="M53.4795 7.54297H29.2421V29.3735H22.7168L41.3608 40.7633L60.0049 29.3735H53.4795V7.54297Z" fill="#76BDF6"/>
<path d="M64.6651 19.8829H53.4788V23.6795H64.6652V48.3575H18.055V23.6794H29.2415V19.8828H18.055C15.9957 19.8828 14.3262 21.5827 14.3262 23.6794V50.2557C14.3262 52.3524 15.9957 54.0523 18.055 54.0523H64.6651C66.7244 54.0523 68.394 52.3524 68.394 50.2557V23.6794C68.394 21.5828 66.7244 19.8829 64.6651 19.8829Z" fill="#3E4D6C"/>
<path d="M18.0566 48.3558H64.6668V23.6777H53.4804V29.3727H60.0059L41.3617 40.7625L22.7177 29.3727H29.2431V23.6777H18.0566V48.3558Z" fill="#FFDDBA"/>
<path d="M14.3262 59.7461C14.3262 62.8916 16.8301 63.5427 19.9194 63.5427H62.8007C65.8901 63.5427 68.394 62.8916 68.394 59.7461H14.3262Z" fill="#3E4D6C"/>
<path d="M32.0391 59.7457H50.6832L47.8866 54.0508H34.8357L32.0391 59.7457Z" fill="#3E4D6C"/>
<path d="M46.9541 17.035L42.293 14.1875C41.3608 17.035 35.7676 17.035 35.7676 17.035C35.7676 20.1805 39.3836 22.7299 41.3608 22.7299C43.338 22.7299 46.9541 20.1804 46.9541 17.035Z" fill="#FFDDBA"/>
<path d="M42.293 14.1872L46.9541 17.0347C46.9541 13.8892 46.0219 10.3906 41.3608 10.3906C36.6998 10.3906 35.7676 13.8892 35.7676 17.0347C35.7676 17.0347 41.3608 17.0347 42.293 14.1872Z" fill="#854F09"/>
<path d="M33.9043 30.3218V26.5251C33.9043 24.4284 35.5738 22.7285 37.6331 22.7285H45.0908C47.15 22.7285 48.8196 24.4284 48.8196 26.5251V30.3218H33.9043Z" fill="#3E4D6C"/>
<path d="M61.4038 42.1854H59.0733V39.8125H58.1411V42.1854H55.8105V43.1345H58.1411V45.5074H59.0733V43.1345H61.4038V42.1854Z" fill="#3E4D6C"/>
<g opacity="0.14">
<path opacity="0.14" d="M47.8881 54.0508H34.8372L34.3711 54.9999H34.8372H47.8881H48.3542L47.8881 54.0508Z" fill="black"/>
</g>
<g opacity="0.14">
<path opacity="0.14" d="M41.3608 40.763L25.8238 31.2715H22.7168L41.3608 42.6614L60.0049 31.2715H56.8979L41.3608 40.763Z" fill="black"/>
</g>
</g>
<defs>
<clipPath id="clip0_793_28001">
<rect width="55" height="56" fill="white" transform="translate(13.8613 7.54297)"/>
</clipPath>
</defs>
</svg>
