<svg width="75" height="75" viewBox="0 0 70 70" fill="none" xmlns="http://www.w3.org/2000/svg">
<path d="M67.3017 31.1809H47.931V28.8634C47.931 26.8218 46.27 25.1608 44.2284 25.1608C42.1868 25.1608 40.5258 26.8218 40.5258 28.8634V31.1809H21.1552C19.7602 31.1809 18.6092 32.2449 18.4708 33.6038C18.4617 33.6945 18.4569 33.7864 18.4569 33.8793V51.5055C18.4569 52.9934 19.6674 54.2039 21.1552 54.2039H24.4221V61.5527H10.342V25.9219L33.8987 10.2519L57.4554 25.922V28.7678C57.4554 29.321 57.9038 29.7693 58.4568 29.7693C59.0099 29.7693 59.4583 29.321 59.4583 28.7678V27.2544L62.4936 29.2734C63.642 30.0374 65.126 30.0374 66.2746 29.2734C67.228 28.6392 67.7973 27.5767 67.7973 26.4314C67.7973 25.2863 67.228 24.2239 66.2746 23.5897L34.8686 2.69803C34.2794 2.30606 33.5181 2.30606 32.929 2.69803L14.7064 14.8199C14.246 15.1262 14.1209 15.7478 14.4272 16.2084C14.7336 16.6689 15.3554 16.794 15.8158 16.4875L33.8987 4.45842L65.1654 25.2573C65.5651 25.5234 65.7945 25.9513 65.7945 26.4316C65.7945 26.9119 65.5651 27.3398 65.1654 27.6059C64.6908 27.9215 64.0776 27.9215 63.6031 27.6059L34.8686 8.49135C34.2794 8.09952 33.5181 8.09924 32.929 8.49135L4.19426 27.6059C3.71984 27.9213 3.10666 27.9215 2.63211 27.6057C2.23221 27.3398 2.00293 26.9119 2.00293 26.4316C2.00293 25.9513 2.23221 25.5234 2.63211 25.2573L10.6349 19.9338C11.0954 19.6275 11.2205 19.0058 10.9141 18.5452C10.6077 18.0849 9.98607 17.9597 9.52561 18.2662L1.52277 23.5896C0.569297 24.2239 0 25.2862 0 26.4316C0 27.577 0.569297 28.6393 1.52277 29.2734C2.09713 29.6555 2.75502 29.8465 3.41332 29.8465C4.07135 29.8464 4.72965 29.6554 5.30373 29.2734L8.33902 27.2544V61.5527H4.50092C2.83473 61.5527 1.4793 62.9083 1.4793 64.5743C1.4793 66.2405 2.83473 67.596 4.50092 67.596H63.2965C64.9627 67.596 66.3182 66.2404 66.3182 64.5743C66.3182 62.9081 64.9627 61.5527 63.2965 61.5527H59.4584V56.6168C59.4584 56.0636 59.01 55.6153 58.457 55.6153C57.9039 55.6153 57.4555 56.0636 57.4555 56.6168V61.5527H47.9311V54.2039H67.3017C68.7896 54.2039 70 52.9934 70 51.5055V33.8793C70 32.3914 68.7895 31.1809 67.3017 31.1809ZM42.5287 28.8634C42.5287 27.9262 43.2912 27.1637 44.2284 27.1637C45.1656 27.1637 45.9281 27.9262 45.9281 28.8634V31.1809H42.5287V28.8634ZM40.5258 65.593H4.50092C3.93928 65.593 3.48223 65.1361 3.48223 64.5743C3.48223 64.0126 3.93914 63.5556 4.50092 63.5556H40.5258V65.593ZM40.5258 61.5527H26.425V54.2039H40.5258V61.5527ZM45.9281 65.593H42.5287V54.2038H45.9281V65.593ZM63.2965 63.5556C63.8582 63.5556 64.3152 64.0126 64.3152 64.5743C64.3152 65.1361 63.8583 65.593 63.2965 65.593H47.931V63.5556H63.2965ZM67.3017 52.201H21.1552C20.7717 52.201 20.4598 51.8892 20.4598 51.5055V33.8793C20.4598 33.496 20.7717 33.184 21.1552 33.184L67.3017 33.1838C67.6852 33.1838 67.9971 33.4957 67.9971 33.8793V51.5055C67.9971 51.889 67.6852 52.201 67.3017 52.201Z" fill="#1DA1F2"/>
<path d="M33.8989 14.6608C30.4201 14.6608 27.5898 17.491 27.5898 20.9698C27.5898 24.4486 30.4201 27.2789 33.8989 27.2789C37.3777 27.2789 40.2079 24.4487 40.2079 20.9698C40.2079 17.4911 37.3777 14.6608 33.8989 14.6608ZM32.8974 25.1571C31.3249 24.781 30.0854 23.5402 29.7106 21.967H32.8974V25.1571ZM32.8974 19.9641H29.7127C30.0897 18.3948 31.3277 17.1581 32.8974 16.7826V19.9641ZM34.9003 16.7826C36.4701 17.1581 37.7081 18.395 38.0851 19.9641H34.9003V16.7826ZM34.9003 25.1571V21.967H38.087C37.7124 23.5402 36.4729 24.7808 34.9003 25.1571Z" fill="#1DA1F2"/>
<path d="M34.9865 46.845L33.0853 43.3187C34.1736 42.985 34.9863 42.0852 34.9863 40.4163C34.9863 38.109 33.448 37.3836 31.5471 37.3836H28.6739C28.3112 37.3836 28.0645 37.6594 28.0645 37.964V47.3963C28.0645 47.7882 28.5432 47.9913 29.0077 47.9913C29.4865 47.9913 29.9509 47.7882 29.9509 47.3963V43.6088H31.1699L33.2305 47.614C33.3757 47.9043 33.6224 48.0639 33.8836 48.0639C34.435 48.0639 35.059 47.556 35.059 47.0772C35.059 47.0193 35.0445 46.9176 34.9865 46.845ZM31.5471 42.1288H29.9509V39.0379H31.5471C32.4905 39.0379 33.0998 39.4442 33.0998 40.5906C33.0998 41.7371 32.4903 42.1288 31.5471 42.1288Z" fill="#1DA1F2"/>
<path d="M42.6163 46.337H38.5095V43.4202H40.7152C41.1215 43.4202 41.3102 43.0285 41.3102 42.6946C41.3102 42.3029 41.0924 41.9399 40.7152 41.9399H38.5095V39.0376H42.6163V39.0379C42.9935 39.0379 43.2113 38.6461 43.2113 38.1961C43.2113 37.8044 43.0226 37.3836 42.6163 37.3836H37.4502C37.0294 37.3836 36.623 37.5868 36.623 37.9786V47.3963C36.623 47.7882 37.0294 47.9913 37.4502 47.9913H42.6163C43.0226 47.9913 43.2113 47.5704 43.2113 47.1787C43.2113 46.7287 42.9935 46.337 42.6163 46.337Z" fill="#1DA1F2"/>
<path d="M50.6983 37.3836C50.2195 37.3836 49.7551 37.5576 49.7551 37.964V43.7975L46.9543 38.3849C46.5045 37.5287 46.2287 37.3836 45.5467 37.3836C45.0679 37.3836 44.6035 37.5723 44.6035 37.9786V47.3963C44.6035 47.7882 45.0678 47.9913 45.5467 47.9913C46.011 47.9913 46.49 47.7882 46.49 47.3963V41.5628L49.61 47.3963C49.8568 47.8462 50.2485 47.9913 50.6983 47.9913C51.1626 47.9913 51.6415 47.7882 51.6415 47.3963V37.9641C51.6415 37.5578 51.1627 37.3836 50.6983 37.3836Z" fill="#1DA1F2"/>
<path d="M59.7118 37.3836H53.5735C53.1672 37.3836 52.9785 37.8191 52.9785 38.2252C52.9785 38.6895 53.1963 39.0815 53.5735 39.0815H55.7066V47.3965C55.7066 47.7883 56.1709 47.9915 56.65 47.9915C57.1143 47.9915 57.5932 47.7883 57.5932 47.3965V39.0815H59.7118C60.089 39.0815 60.3066 38.6752 60.3066 38.2252C60.3066 37.8191 60.1181 37.3836 59.7118 37.3836Z" fill="#1DA1F2"/>
</svg>
