<svg width="75" height="75" viewBox="0 0 70 70" fill="none" xmlns="http://www.w3.org/2000/svg">
<g clip-path="url(#clip0)">
<path d="M61.1216 44.8097L59.5179 39.0766C59.4353 38.7814 59.2388 38.5312 58.9719 38.381L40.0562 27.7347L42.0005 7.13038C42.0597 6.50462 41.6075 5.94654 40.9831 5.87408C37.602 5.48238 34.2134 5.75172 30.9119 6.67538C25.7138 8.12952 21.1955 11.0683 17.7851 15.2004L9.06798 10.2943C7.65158 9.49711 6.00973 9.29928 4.44445 9.73705C2.87903 10.1748 1.57816 11.1958 0.780953 12.6122C-0.864447 15.5359 0.175429 19.2534 3.09914 20.8988L5.47434 22.2355C6.03051 22.5486 6.73502 22.3516 7.04783 21.7954C7.36078 21.2393 7.16363 20.5348 6.6076 20.2219L4.23253 18.8853C2.41911 17.8647 1.77407 15.559 2.79481 13.7456C3.28918 12.8672 4.09609 12.2339 5.06679 11.9623C6.03735 11.6909 7.0559 11.8134 7.93431 12.3078L16.9267 17.3688C16.6575 20.4951 16.9513 23.6205 17.8047 26.6708C19.5892 33.0501 23.6016 38.2169 28.7642 41.5676L28.1245 44.9717C27.4817 44.838 26.816 44.7673 26.1342 44.7673C20.7489 44.7673 16.3678 49.1485 16.3678 54.5338C16.3678 59.9191 20.7489 64.3002 26.1342 64.3002C31.5195 64.3002 35.9006 59.9191 35.9006 54.5338C35.9006 50.6519 33.6237 47.2922 30.3355 45.7188L30.8826 42.8078C34.583 44.7472 38.7478 45.812 43.0402 45.812C45.37 45.812 47.7378 45.4984 50.0887 44.8406C52.8388 44.0714 55.4047 42.8809 57.7396 41.2969L58.7421 44.8809C54.0623 45.601 50.4669 49.6553 50.4669 54.5335C50.4669 59.9188 54.848 64.3 60.2333 64.3C65.6186 64.3 69.9997 59.9188 69.9997 54.5335C69.9996 49.4483 66.0917 45.2602 61.1216 44.8097ZM31.5344 8.90074C34.1788 8.16096 36.8834 7.8811 39.5911 8.06594L37.8522 26.4943L19.8347 16.3538C22.9107 12.7545 26.9296 10.1888 31.5344 8.90074ZM33.5896 54.5338C33.5896 58.6449 30.245 61.9894 26.1339 61.9894C22.0228 61.9894 18.6783 58.6449 18.6783 54.5338C18.6783 50.4228 22.0228 47.0781 26.1339 47.0781C30.245 47.0781 33.5896 50.4228 33.5896 54.5338ZM29.2291 39.0924C24.9058 36.035 21.5644 31.5334 20.0299 26.0483C19.3481 23.6112 19.0573 21.1218 19.1604 18.6262L31.744 25.7086L29.2291 39.0924ZM49.4661 42.6153C43.128 44.3881 36.6593 43.419 31.3307 40.4227L33.8708 26.9051L56.2621 39.5072C54.182 40.8906 51.9032 41.9336 49.4661 42.6153ZM60.233 61.9894C56.1219 61.9894 52.7774 58.6449 52.7774 54.5338C52.7774 50.4228 56.1219 47.0781 60.233 47.0781C64.3441 47.0781 67.6887 50.4227 67.6887 54.5338C67.6887 58.6449 64.3441 61.9894 60.233 61.9894Z" fill="#1DA1F2"/>
<path d="M26.1347 48.6627C22.8974 48.6627 20.2637 51.2965 20.2637 54.5338C20.2637 57.7711 22.8974 60.4049 26.1347 60.4049C29.3721 60.4049 32.0058 57.7711 32.0058 54.5338C32.0058 51.2965 29.3721 48.6627 26.1347 48.6627ZM26.1349 58.0939C24.1718 58.0939 22.5746 56.4968 22.5746 54.5338C22.5746 52.5707 24.1718 50.9735 26.1349 50.9735C28.098 50.9735 29.6952 52.5707 29.6952 54.5337C29.6952 56.4967 28.098 58.0939 26.1349 58.0939Z" fill="#1DA1F2"/>
<path d="M60.2324 48.6627C56.9951 48.6627 54.3613 51.2965 54.3613 54.5338C54.3613 57.7711 56.9952 60.4049 60.2324 60.4049C63.4696 60.4049 66.1035 57.7711 66.1035 54.5338C66.1036 51.2965 63.4697 48.6627 60.2324 48.6627ZM60.2324 58.0939C58.2693 58.0939 56.6721 56.4968 56.6721 54.5337C56.6721 52.5705 58.2693 50.9734 60.2324 50.9734C62.1955 50.9734 63.7927 52.5705 63.7927 54.5337C63.7928 56.4969 62.1955 58.0939 60.2324 58.0939Z" fill="#1DA1F2"/>
</g>
<defs>
<clipPath id="clip0">
<rect width="70" height="70" fill="white"/>
</clipPath>
</defs>
</svg>
