<svg width="75" height="75" viewBox="0 0 81 57" fill="none" xmlns="http://www.w3.org/2000/svg">
<mask id="path-1-inside-1_1302_24012" fill="white">
<path d="M49.5728 0.565174L49.3614 0.47664C49.3333 0.46302 49.3051 0.456208 49.2769 0.442588C47.9387 -0.0341149 46.7202 -0.11583 45.4172 0.149761C45.389 0.156571 45.3609 0.16338 45.3327 0.170191L45.1989 0.204243C33.0351 3.39815 16.8706 7.62719 8.9117 9.64977C8.84831 9.66339 8.79196 9.68382 8.73561 9.70425L8.20034 9.90855C5.2351 10.6781 2.86854 11.0935 1.52327 11.0935C0.699201 11.0935 0.0230398 11.7405 0.0230398 12.544V13.5996C0.00895316 13.6881 -0.0051326 13.7835 0.00191071 13.872L0.0230398 27.1924C-0.0473933 27.5806 0.0441732 27.9824 0.290689 28.3025C0.572422 28.677 1.02319 28.9018 1.50214 28.9018C5.63656 28.9018 8.44685 31.0469 11.6938 33.5326C12.3981 34.0706 13.1095 34.6154 13.842 35.1398C16.8143 37.2781 20.5825 39.4641 25.9776 39.4641C28.2667 39.4641 30.1191 39.4437 31.5841 39.396H38.0287C38.2541 49.1276 46.0652 57 55.5736 57C65.2582 57 73.1397 48.9029 73.1397 38.9534C73.1397 37.0261 72.8368 35.1534 72.2593 33.3487C72.3156 33.3692 72.3719 33.3964 72.4283 33.41C72.6748 33.4849 72.9425 33.5462 73.2524 33.5939C74.0412 33.7096 74.6258 33.6824 75.2597 33.5598C78.5419 33.2193 81 30.4749 81 27.1243C81 25.4355 80.345 23.8351 79.1687 22.6093C79.1476 22.582 79.1194 22.5548 79.0913 22.5276C78.6546 22.0917 78.1756 21.724 77.6544 21.438L50.0094 0.776284C49.8686 0.694563 49.7207 0.619655 49.5728 0.565174ZM55.5736 55.0796C47.3823 55.0796 40.6066 48.433 40.0502 40.0702H43.9029C46.1145 40.0702 48.0091 38.6401 48.7346 36.638C48.8895 37.2509 49.1642 37.8161 49.5375 38.3337C50.4109 39.5391 51.7421 40.3631 53.51 40.7921V41.8068C53.3198 41.6433 53.1296 41.4527 52.9394 41.2484C52.5943 40.8057 52.0872 40.5674 51.5167 40.5674C51.2138 40.5674 50.8828 40.6899 50.6574 40.7921C50.6222 40.8057 50.5799 40.8262 50.5517 40.8466L49.0656 41.7455C48.5162 42.0792 48.2134 42.5899 48.2275 43.1824C48.2345 43.5434 48.3613 43.8907 48.5937 44.1767C49.0304 44.7964 49.615 45.3957 50.3193 45.9473C51.2702 46.7032 52.3408 47.2412 53.51 47.5477V48.1674C53.51 49.1548 54.3129 49.9516 55.299 49.9516H56.7569C57.743 49.9516 58.553 49.148 58.553 48.1674V47.5613C59.532 47.3229 60.4054 46.9416 61.1731 46.424C62.8001 45.314 63.6453 43.7681 63.6805 41.8204C63.7087 40.581 63.3565 39.505 62.6451 38.6129C61.7084 37.462 60.3279 36.6788 58.5459 36.2838V36.0387C58.7572 36.1136 58.9826 36.1476 59.208 36.1476C59.6376 36.1749 60.0391 35.9638 60.1941 35.8821C60.2222 35.8684 60.2504 35.8548 60.2786 35.8344L61.9197 34.7788C62.4127 34.4588 62.6874 33.982 62.7015 33.4304C62.7085 33.0014 62.5465 32.6132 62.2296 32.2931C61.2435 31.1491 60.0109 30.3659 58.5459 29.9573V29.1265C58.5459 28.139 57.743 27.3423 56.7499 27.3423H55.2919C54.3058 27.3423 53.5029 28.1458 53.5029 29.1265V29.8824C52.9747 30.0118 52.4746 30.182 52.0168 30.4C50.1996 31.2512 49.291 32.4021 48.8755 33.519C48.4951 32.048 47.495 30.7813 46.1074 30.1071C45.3961 29.7598 44.6495 29.5828 43.8888 29.5828H42.9309C45.8398 25.3946 50.5447 22.8544 55.5596 22.8544C55.7849 22.8544 56.0103 22.8681 56.2357 22.8885L68.2375 30.9107L69.5053 31.8573C70.5759 34.0978 71.1253 36.495 71.1253 38.9738C71.1394 47.8473 64.1524 55.0796 55.5736 55.0796ZM61.49 32.9401C61.6379 33.0763 61.7084 33.233 61.7013 33.4168C61.6943 33.6416 61.5816 33.8322 61.3632 33.9752L59.7292 35.0308H59.7222C59.7222 35.0308 59.4334 35.1806 59.2221 35.1806C58.9615 35.1806 58.7361 35.0921 58.5459 34.9286C58.229 34.6426 57.8979 34.4179 57.5528 34.2544V37.0874C59.5038 37.3666 60.9406 38.0749 61.8633 39.2122C62.4338 39.9204 62.7085 40.7853 62.6874 41.8C62.6592 43.4276 61.9549 44.7011 60.6026 45.6272C59.7433 46.2129 58.722 46.5874 57.5599 46.7645V48.1606C57.5599 48.6168 57.2006 48.9778 56.764 48.9778H55.306C54.8623 48.9778 54.5101 48.61 54.5101 48.1606V46.7645C53.193 46.5466 52.0027 46.029 50.9532 45.1914C50.3052 44.6806 49.784 44.1494 49.3967 43.591C49.284 43.4616 49.2276 43.3186 49.2206 43.1552C49.2135 42.91 49.3403 42.7057 49.5939 42.5559L51.08 41.657H51.0871C51.0871 41.657 51.3758 41.5276 51.5237 41.5276C51.7914 41.5276 52.0097 41.6365 52.1647 41.8545C52.8972 42.6785 53.679 43.2369 54.5101 43.5365V40.0021C52.6014 39.6957 51.2138 38.9602 50.3616 37.7821C49.8545 37.0942 49.5939 36.2907 49.5728 35.3985C49.5446 33.5735 50.5025 32.191 52.4605 31.2717C53.0662 30.9856 53.7494 30.7881 54.5031 30.6792V29.1265C54.5031 28.677 54.8552 28.3025 55.299 28.3025H56.7569C57.1936 28.3025 57.5528 28.6702 57.5528 29.1265V30.72C59.1587 31.0061 60.4687 31.7415 61.49 32.9401ZM40.2967 30.0867C40.2685 30.1412 40.2544 30.1889 40.2333 30.2433H32.4223C30.9854 29.9437 29.9501 28.6157 29.9501 27.0494C29.9501 25.919 30.5135 24.877 31.4292 24.2846C31.894 24.1552 32.9364 23.8691 34.3028 23.5014L35.3734 23.2086C36.6976 22.8817 38.0781 22.5071 39.4304 22.0985L39.698 22.0236C45.5369 20.4301 49.2558 19.429 50.2489 19.177C50.5588 19.1634 50.8476 19.177 51.08 19.2111L53.7847 21.0157C48.1923 21.615 43.1281 24.9724 40.2967 30.0867ZM75.9007 23.8078C75.964 23.8555 76.0274 23.8964 76.0979 23.9304C76.3866 24.0871 76.6613 24.2914 76.9149 24.5365C76.929 24.5501 76.9431 24.5638 76.9501 24.5774C77.6263 25.2652 77.9925 26.1709 77.9925 27.1311C77.9925 29.0039 76.6543 30.5362 74.8794 30.6928C74.816 30.6996 74.7526 30.7064 74.6892 30.72C74.3934 30.7881 74.1398 30.8086 73.7172 30.7405C73.5834 30.72 73.4496 30.6928 73.3369 30.6588C73.189 30.6111 73.0481 30.5498 72.865 30.4545C72.7664 30.4068 72.6748 30.3523 72.5832 30.291C72.5621 30.2774 72.541 30.2638 72.5128 30.2433L69.5476 28.0301C69.5264 28.0165 69.5053 28.0028 69.4842 27.9824L52.538 16.6573C52.3901 16.562 52.2351 16.487 52.0661 16.4462C51.4463 16.2896 50.7419 16.2351 49.939 16.2828C49.8474 16.2896 49.7559 16.3032 49.6643 16.3236C48.6853 16.562 43.2619 18.0329 38.881 19.2247L38.5781 19.3064C37.2399 19.7082 35.9087 20.0691 34.5916 20.396L33.4858 20.6957C31.8518 21.1383 30.6896 21.4584 30.4008 21.5401C30.2811 21.5742 30.1614 21.6218 30.0557 21.6831C28.14 22.7727 26.9496 24.8225 26.9496 27.0358C26.9496 30.0595 29.0837 32.6064 32.0208 33.1035C32.1053 33.1172 32.1898 33.124 32.2814 33.124H43.0436C43.8888 33.124 44.579 33.8799 44.579 34.8061C44.579 35.7322 43.8888 36.4881 43.0436 36.4881H31.5348C30.0487 36.5358 28.2315 36.5562 25.9706 36.5562C21.4558 36.5562 18.3286 34.7516 15.6169 32.8039C14.9126 32.2932 14.2224 31.7688 13.5392 31.2512C10.5035 28.929 7.37625 26.5387 3.0094 26.0756V15.6358L2.98827 14.0899C3.00235 14.0286 3.0094 13.9605 3.0094 13.8924C4.56597 13.7222 6.58741 13.3136 9.04552 12.6802C9.10187 12.6666 9.15821 12.6462 9.21455 12.6258L9.7569 12.4214C17.7511 10.3921 33.8591 6.17664 45.9807 2.99635L46.0722 2.97592C46.7977 2.83291 47.4316 2.87378 48.2134 3.15299L48.3402 3.20066L74.7315 22.9225L75.9007 23.8078Z"/>
</mask>
<path d="M49.5728 0.565174L49.3614 0.47664C49.3333 0.46302 49.3051 0.456208 49.2769 0.442588C47.9387 -0.0341149 46.7202 -0.11583 45.4172 0.149761C45.389 0.156571 45.3609 0.16338 45.3327 0.170191L45.1989 0.204243C33.0351 3.39815 16.8706 7.62719 8.9117 9.64977C8.84831 9.66339 8.79196 9.68382 8.73561 9.70425L8.20034 9.90855C5.2351 10.6781 2.86854 11.0935 1.52327 11.0935C0.699201 11.0935 0.0230398 11.7405 0.0230398 12.544V13.5996C0.00895316 13.6881 -0.0051326 13.7835 0.00191071 13.872L0.0230398 27.1924C-0.0473933 27.5806 0.0441732 27.9824 0.290689 28.3025C0.572422 28.677 1.02319 28.9018 1.50214 28.9018C5.63656 28.9018 8.44685 31.0469 11.6938 33.5326C12.3981 34.0706 13.1095 34.6154 13.842 35.1398C16.8143 37.2781 20.5825 39.4641 25.9776 39.4641C28.2667 39.4641 30.1191 39.4437 31.5841 39.396H38.0287C38.2541 49.1276 46.0652 57 55.5736 57C65.2582 57 73.1397 48.9029 73.1397 38.9534C73.1397 37.0261 72.8368 35.1534 72.2593 33.3487C72.3156 33.3692 72.3719 33.3964 72.4283 33.41C72.6748 33.4849 72.9425 33.5462 73.2524 33.5939C74.0412 33.7096 74.6258 33.6824 75.2597 33.5598C78.5419 33.2193 81 30.4749 81 27.1243C81 25.4355 80.345 23.8351 79.1687 22.6093C79.1476 22.582 79.1194 22.5548 79.0913 22.5276C78.6546 22.0917 78.1756 21.724 77.6544 21.438L50.0094 0.776284C49.8686 0.694563 49.7207 0.619655 49.5728 0.565174ZM55.5736 55.0796C47.3823 55.0796 40.6066 48.433 40.0502 40.0702H43.9029C46.1145 40.0702 48.0091 38.6401 48.7346 36.638C48.8895 37.2509 49.1642 37.8161 49.5375 38.3337C50.4109 39.5391 51.7421 40.3631 53.51 40.7921V41.8068C53.3198 41.6433 53.1296 41.4527 52.9394 41.2484C52.5943 40.8057 52.0872 40.5674 51.5167 40.5674C51.2138 40.5674 50.8828 40.6899 50.6574 40.7921C50.6222 40.8057 50.5799 40.8262 50.5517 40.8466L49.0656 41.7455C48.5162 42.0792 48.2134 42.5899 48.2275 43.1824C48.2345 43.5434 48.3613 43.8907 48.5937 44.1767C49.0304 44.7964 49.615 45.3957 50.3193 45.9473C51.2702 46.7032 52.3408 47.2412 53.51 47.5477V48.1674C53.51 49.1548 54.3129 49.9516 55.299 49.9516H56.7569C57.743 49.9516 58.553 49.148 58.553 48.1674V47.5613C59.532 47.3229 60.4054 46.9416 61.1731 46.424C62.8001 45.314 63.6453 43.7681 63.6805 41.8204C63.7087 40.581 63.3565 39.505 62.6451 38.6129C61.7084 37.462 60.3279 36.6788 58.5459 36.2838V36.0387C58.7572 36.1136 58.9826 36.1476 59.208 36.1476C59.6376 36.1749 60.0391 35.9638 60.1941 35.8821C60.2222 35.8684 60.2504 35.8548 60.2786 35.8344L61.9197 34.7788C62.4127 34.4588 62.6874 33.982 62.7015 33.4304C62.7085 33.0014 62.5465 32.6132 62.2296 32.2931C61.2435 31.1491 60.0109 30.3659 58.5459 29.9573V29.1265C58.5459 28.139 57.743 27.3423 56.7499 27.3423H55.2919C54.3058 27.3423 53.5029 28.1458 53.5029 29.1265V29.8824C52.9747 30.0118 52.4746 30.182 52.0168 30.4C50.1996 31.2512 49.291 32.4021 48.8755 33.519C48.4951 32.048 47.495 30.7813 46.1074 30.1071C45.3961 29.7598 44.6495 29.5828 43.8888 29.5828H42.9309C45.8398 25.3946 50.5447 22.8544 55.5596 22.8544C55.7849 22.8544 56.0103 22.8681 56.2357 22.8885L68.2375 30.9107L69.5053 31.8573C70.5759 34.0978 71.1253 36.495 71.1253 38.9738C71.1394 47.8473 64.1524 55.0796 55.5736 55.0796ZM61.49 32.9401C61.6379 33.0763 61.7084 33.233 61.7013 33.4168C61.6943 33.6416 61.5816 33.8322 61.3632 33.9752L59.7292 35.0308H59.7222C59.7222 35.0308 59.4334 35.1806 59.2221 35.1806C58.9615 35.1806 58.7361 35.0921 58.5459 34.9286C58.229 34.6426 57.8979 34.4179 57.5528 34.2544V37.0874C59.5038 37.3666 60.9406 38.0749 61.8633 39.2122C62.4338 39.9204 62.7085 40.7853 62.6874 41.8C62.6592 43.4276 61.9549 44.7011 60.6026 45.6272C59.7433 46.2129 58.722 46.5874 57.5599 46.7645V48.1606C57.5599 48.6168 57.2006 48.9778 56.764 48.9778H55.306C54.8623 48.9778 54.5101 48.61 54.5101 48.1606V46.7645C53.193 46.5466 52.0027 46.029 50.9532 45.1914C50.3052 44.6806 49.784 44.1494 49.3967 43.591C49.284 43.4616 49.2276 43.3186 49.2206 43.1552C49.2135 42.91 49.3403 42.7057 49.5939 42.5559L51.08 41.657H51.0871C51.0871 41.657 51.3758 41.5276 51.5237 41.5276C51.7914 41.5276 52.0097 41.6365 52.1647 41.8545C52.8972 42.6785 53.679 43.2369 54.5101 43.5365V40.0021C52.6014 39.6957 51.2138 38.9602 50.3616 37.7821C49.8545 37.0942 49.5939 36.2907 49.5728 35.3985C49.5446 33.5735 50.5025 32.191 52.4605 31.2717C53.0662 30.9856 53.7494 30.7881 54.5031 30.6792V29.1265C54.5031 28.677 54.8552 28.3025 55.299 28.3025H56.7569C57.1936 28.3025 57.5528 28.6702 57.5528 29.1265V30.72C59.1587 31.0061 60.4687 31.7415 61.49 32.9401ZM40.2967 30.0867C40.2685 30.1412 40.2544 30.1889 40.2333 30.2433H32.4223C30.9854 29.9437 29.9501 28.6157 29.9501 27.0494C29.9501 25.919 30.5135 24.877 31.4292 24.2846C31.894 24.1552 32.9364 23.8691 34.3028 23.5014L35.3734 23.2086C36.6976 22.8817 38.0781 22.5071 39.4304 22.0985L39.698 22.0236C45.5369 20.4301 49.2558 19.429 50.2489 19.177C50.5588 19.1634 50.8476 19.177 51.08 19.2111L53.7847 21.0157C48.1923 21.615 43.1281 24.9724 40.2967 30.0867ZM75.9007 23.8078C75.964 23.8555 76.0274 23.8964 76.0979 23.9304C76.3866 24.0871 76.6613 24.2914 76.9149 24.5365C76.929 24.5501 76.9431 24.5638 76.9501 24.5774C77.6263 25.2652 77.9925 26.1709 77.9925 27.1311C77.9925 29.0039 76.6543 30.5362 74.8794 30.6928C74.816 30.6996 74.7526 30.7064 74.6892 30.72C74.3934 30.7881 74.1398 30.8086 73.7172 30.7405C73.5834 30.72 73.4496 30.6928 73.3369 30.6588C73.189 30.6111 73.0481 30.5498 72.865 30.4545C72.7664 30.4068 72.6748 30.3523 72.5832 30.291C72.5621 30.2774 72.541 30.2638 72.5128 30.2433L69.5476 28.0301C69.5264 28.0165 69.5053 28.0028 69.4842 27.9824L52.538 16.6573C52.3901 16.562 52.2351 16.487 52.0661 16.4462C51.4463 16.2896 50.7419 16.2351 49.939 16.2828C49.8474 16.2896 49.7559 16.3032 49.6643 16.3236C48.6853 16.562 43.2619 18.0329 38.881 19.2247L38.5781 19.3064C37.2399 19.7082 35.9087 20.0691 34.5916 20.396L33.4858 20.6957C31.8518 21.1383 30.6896 21.4584 30.4008 21.5401C30.2811 21.5742 30.1614 21.6218 30.0557 21.6831C28.14 22.7727 26.9496 24.8225 26.9496 27.0358C26.9496 30.0595 29.0837 32.6064 32.0208 33.1035C32.1053 33.1172 32.1898 33.124 32.2814 33.124H43.0436C43.8888 33.124 44.579 33.8799 44.579 34.8061C44.579 35.7322 43.8888 36.4881 43.0436 36.4881H31.5348C30.0487 36.5358 28.2315 36.5562 25.9706 36.5562C21.4558 36.5562 18.3286 34.7516 15.6169 32.8039C14.9126 32.2932 14.2224 31.7688 13.5392 31.2512C10.5035 28.929 7.37625 26.5387 3.0094 26.0756V15.6358L2.98827 14.0899C3.00235 14.0286 3.0094 13.9605 3.0094 13.8924C4.56597 13.7222 6.58741 13.3136 9.04552 12.6802C9.10187 12.6666 9.15821 12.6462 9.21455 12.6258L9.7569 12.4214C17.7511 10.3921 33.8591 6.17664 45.9807 2.99635L46.0722 2.97592C46.7977 2.83291 47.4316 2.87378 48.2134 3.15299L48.3402 3.20066L74.7315 22.9225L75.9007 23.8078Z" fill="#1DA1F2"/>
<path d="M49.5728 0.565174L49.3614 0.47664C49.3333 0.46302 49.3051 0.456208 49.2769 0.442588C47.9387 -0.0341149 46.7202 -0.11583 45.4172 0.149761C45.389 0.156571 45.3609 0.16338 45.3327 0.170191L45.1989 0.204243C33.0351 3.39815 16.8706 7.62719 8.9117 9.64977C8.84831 9.66339 8.79196 9.68382 8.73561 9.70425L8.20034 9.90855C5.2351 10.6781 2.86854 11.0935 1.52327 11.0935C0.699201 11.0935 0.0230398 11.7405 0.0230398 12.544V13.5996C0.00895316 13.6881 -0.0051326 13.7835 0.00191071 13.872L0.0230398 27.1924C-0.0473933 27.5806 0.0441732 27.9824 0.290689 28.3025C0.572422 28.677 1.02319 28.9018 1.50214 28.9018C5.63656 28.9018 8.44685 31.0469 11.6938 33.5326C12.3981 34.0706 13.1095 34.6154 13.842 35.1398C16.8143 37.2781 20.5825 39.4641 25.9776 39.4641C28.2667 39.4641 30.1191 39.4437 31.5841 39.396H38.0287C38.2541 49.1276 46.0652 57 55.5736 57C65.2582 57 73.1397 48.9029 73.1397 38.9534C73.1397 37.0261 72.8368 35.1534 72.2593 33.3487C72.3156 33.3692 72.3719 33.3964 72.4283 33.41C72.6748 33.4849 72.9425 33.5462 73.2524 33.5939C74.0412 33.7096 74.6258 33.6824 75.2597 33.5598C78.5419 33.2193 81 30.4749 81 27.1243C81 25.4355 80.345 23.8351 79.1687 22.6093C79.1476 22.582 79.1194 22.5548 79.0913 22.5276C78.6546 22.0917 78.1756 21.724 77.6544 21.438L50.0094 0.776284C49.8686 0.694563 49.7207 0.619655 49.5728 0.565174ZM55.5736 55.0796C47.3823 55.0796 40.6066 48.433 40.0502 40.0702H43.9029C46.1145 40.0702 48.0091 38.6401 48.7346 36.638C48.8895 37.2509 49.1642 37.8161 49.5375 38.3337C50.4109 39.5391 51.7421 40.3631 53.51 40.7921V41.8068C53.3198 41.6433 53.1296 41.4527 52.9394 41.2484C52.5943 40.8057 52.0872 40.5674 51.5167 40.5674C51.2138 40.5674 50.8828 40.6899 50.6574 40.7921C50.6222 40.8057 50.5799 40.8262 50.5517 40.8466L49.0656 41.7455C48.5162 42.0792 48.2134 42.5899 48.2275 43.1824C48.2345 43.5434 48.3613 43.8907 48.5937 44.1767C49.0304 44.7964 49.615 45.3957 50.3193 45.9473C51.2702 46.7032 52.3408 47.2412 53.51 47.5477V48.1674C53.51 49.1548 54.3129 49.9516 55.299 49.9516H56.7569C57.743 49.9516 58.553 49.148 58.553 48.1674V47.5613C59.532 47.3229 60.4054 46.9416 61.1731 46.424C62.8001 45.314 63.6453 43.7681 63.6805 41.8204C63.7087 40.581 63.3565 39.505 62.6451 38.6129C61.7084 37.462 60.3279 36.6788 58.5459 36.2838V36.0387C58.7572 36.1136 58.9826 36.1476 59.208 36.1476C59.6376 36.1749 60.0391 35.9638 60.1941 35.8821C60.2222 35.8684 60.2504 35.8548 60.2786 35.8344L61.9197 34.7788C62.4127 34.4588 62.6874 33.982 62.7015 33.4304C62.7085 33.0014 62.5465 32.6132 62.2296 32.2931C61.2435 31.1491 60.0109 30.3659 58.5459 29.9573V29.1265C58.5459 28.139 57.743 27.3423 56.7499 27.3423H55.2919C54.3058 27.3423 53.5029 28.1458 53.5029 29.1265V29.8824C52.9747 30.0118 52.4746 30.182 52.0168 30.4C50.1996 31.2512 49.291 32.4021 48.8755 33.519C48.4951 32.048 47.495 30.7813 46.1074 30.1071C45.3961 29.7598 44.6495 29.5828 43.8888 29.5828H42.9309C45.8398 25.3946 50.5447 22.8544 55.5596 22.8544C55.7849 22.8544 56.0103 22.8681 56.2357 22.8885L68.2375 30.9107L69.5053 31.8573C70.5759 34.0978 71.1253 36.495 71.1253 38.9738C71.1394 47.8473 64.1524 55.0796 55.5736 55.0796ZM61.49 32.9401C61.6379 33.0763 61.7084 33.233 61.7013 33.4168C61.6943 33.6416 61.5816 33.8322 61.3632 33.9752L59.7292 35.0308H59.7222C59.7222 35.0308 59.4334 35.1806 59.2221 35.1806C58.9615 35.1806 58.7361 35.0921 58.5459 34.9286C58.229 34.6426 57.8979 34.4179 57.5528 34.2544V37.0874C59.5038 37.3666 60.9406 38.0749 61.8633 39.2122C62.4338 39.9204 62.7085 40.7853 62.6874 41.8C62.6592 43.4276 61.9549 44.7011 60.6026 45.6272C59.7433 46.2129 58.722 46.5874 57.5599 46.7645V48.1606C57.5599 48.6168 57.2006 48.9778 56.764 48.9778H55.306C54.8623 48.9778 54.5101 48.61 54.5101 48.1606V46.7645C53.193 46.5466 52.0027 46.029 50.9532 45.1914C50.3052 44.6806 49.784 44.1494 49.3967 43.591C49.284 43.4616 49.2276 43.3186 49.2206 43.1552C49.2135 42.91 49.3403 42.7057 49.5939 42.5559L51.08 41.657H51.0871C51.0871 41.657 51.3758 41.5276 51.5237 41.5276C51.7914 41.5276 52.0097 41.6365 52.1647 41.8545C52.8972 42.6785 53.679 43.2369 54.5101 43.5365V40.0021C52.6014 39.6957 51.2138 38.9602 50.3616 37.7821C49.8545 37.0942 49.5939 36.2907 49.5728 35.3985C49.5446 33.5735 50.5025 32.191 52.4605 31.2717C53.0662 30.9856 53.7494 30.7881 54.5031 30.6792V29.1265C54.5031 28.677 54.8552 28.3025 55.299 28.3025H56.7569C57.1936 28.3025 57.5528 28.6702 57.5528 29.1265V30.72C59.1587 31.0061 60.4687 31.7415 61.49 32.9401ZM40.2967 30.0867C40.2685 30.1412 40.2544 30.1889 40.2333 30.2433H32.4223C30.9854 29.9437 29.9501 28.6157 29.9501 27.0494C29.9501 25.919 30.5135 24.877 31.4292 24.2846C31.894 24.1552 32.9364 23.8691 34.3028 23.5014L35.3734 23.2086C36.6976 22.8817 38.0781 22.5071 39.4304 22.0985L39.698 22.0236C45.5369 20.4301 49.2558 19.429 50.2489 19.177C50.5588 19.1634 50.8476 19.177 51.08 19.2111L53.7847 21.0157C48.1923 21.615 43.1281 24.9724 40.2967 30.0867ZM75.9007 23.8078C75.964 23.8555 76.0274 23.8964 76.0979 23.9304C76.3866 24.0871 76.6613 24.2914 76.9149 24.5365C76.929 24.5501 76.9431 24.5638 76.9501 24.5774C77.6263 25.2652 77.9925 26.1709 77.9925 27.1311C77.9925 29.0039 76.6543 30.5362 74.8794 30.6928C74.816 30.6996 74.7526 30.7064 74.6892 30.72C74.3934 30.7881 74.1398 30.8086 73.7172 30.7405C73.5834 30.72 73.4496 30.6928 73.3369 30.6588C73.189 30.6111 73.0481 30.5498 72.865 30.4545C72.7664 30.4068 72.6748 30.3523 72.5832 30.291C72.5621 30.2774 72.541 30.2638 72.5128 30.2433L69.5476 28.0301C69.5264 28.0165 69.5053 28.0028 69.4842 27.9824L52.538 16.6573C52.3901 16.562 52.2351 16.487 52.0661 16.4462C51.4463 16.2896 50.7419 16.2351 49.939 16.2828C49.8474 16.2896 49.7559 16.3032 49.6643 16.3236C48.6853 16.562 43.2619 18.0329 38.881 19.2247L38.5781 19.3064C37.2399 19.7082 35.9087 20.0691 34.5916 20.396L33.4858 20.6957C31.8518 21.1383 30.6896 21.4584 30.4008 21.5401C30.2811 21.5742 30.1614 21.6218 30.0557 21.6831C28.14 22.7727 26.9496 24.8225 26.9496 27.0358C26.9496 30.0595 29.0837 32.6064 32.0208 33.1035C32.1053 33.1172 32.1898 33.124 32.2814 33.124H43.0436C43.8888 33.124 44.579 33.8799 44.579 34.8061C44.579 35.7322 43.8888 36.4881 43.0436 36.4881H31.5348C30.0487 36.5358 28.2315 36.5562 25.9706 36.5562C21.4558 36.5562 18.3286 34.7516 15.6169 32.8039C14.9126 32.2932 14.2224 31.7688 13.5392 31.2512C10.5035 28.929 7.37625 26.5387 3.0094 26.0756V15.6358L2.98827 14.0899C3.00235 14.0286 3.0094 13.9605 3.0094 13.8924C4.56597 13.7222 6.58741 13.3136 9.04552 12.6802C9.10187 12.6666 9.15821 12.6462 9.21455 12.6258L9.7569 12.4214C17.7511 10.3921 33.8591 6.17664 45.9807 2.99635L46.0722 2.97592C46.7977 2.83291 47.4316 2.87378 48.2134 3.15299L48.3402 3.20066L74.7315 22.9225L75.9007 23.8078Z" stroke="black" stroke-width="2" mask="url(#path-1-inside-1_1302_24012)"/>
<path d="M49.5728 0.565174L49.3614 0.47664C49.3333 0.46302 49.3051 0.456208 49.2769 0.442588C47.9387 -0.0341149 46.7202 -0.11583 45.4172 0.149761C45.389 0.156571 45.3609 0.16338 45.3327 0.170191L45.1989 0.204243C33.0351 3.39815 16.8706 7.62719 8.9117 9.64977C8.84831 9.66339 8.79196 9.68382 8.73561 9.70425L8.20034 9.90855C5.2351 10.6781 2.86854 11.0935 1.52327 11.0935C0.699201 11.0935 0.0230398 11.7405 0.0230398 12.544V13.5996C0.00895316 13.6881 -0.0051326 13.7835 0.00191071 13.872L0.0230398 27.1924C-0.0473933 27.5806 0.0441732 27.9824 0.290689 28.3025C0.572422 28.677 1.02319 28.9018 1.50214 28.9018C5.63656 28.9018 8.44685 31.0469 11.6938 33.5326C12.3981 34.0706 13.1095 34.6154 13.842 35.1398C16.8143 37.2781 20.5825 39.4641 25.9776 39.4641C28.2667 39.4641 30.1191 39.4437 31.5841 39.396H38.0287C38.2541 49.1276 46.0652 57 55.5736 57C65.2582 57 73.1397 48.9029 73.1397 38.9534C73.1397 37.0261 72.8368 35.1534 72.2593 33.3487C72.3156 33.3692 72.3719 33.3964 72.4283 33.41C72.6748 33.4849 72.9425 33.5462 73.2524 33.5939C74.0412 33.7096 74.6258 33.6824 75.2597 33.5598C78.5419 33.2193 81 30.4749 81 27.1243C81 25.4355 80.345 23.8351 79.1687 22.6093C79.1476 22.582 79.1194 22.5548 79.0913 22.5276C78.6546 22.0917 78.1756 21.724 77.6544 21.438L50.0094 0.776284C49.8686 0.694563 49.7207 0.619655 49.5728 0.565174ZM55.5736 55.0796C47.3823 55.0796 40.6066 48.433 40.0502 40.0702H43.9029C46.1145 40.0702 48.0091 38.6401 48.7346 36.638C48.8895 37.2509 49.1642 37.8161 49.5375 38.3337C50.4109 39.5391 51.7421 40.3631 53.51 40.7921V41.8068C53.3198 41.6433 53.1296 41.4527 52.9394 41.2484C52.5943 40.8057 52.0872 40.5674 51.5167 40.5674C51.2138 40.5674 50.8828 40.6899 50.6574 40.7921C50.6222 40.8057 50.5799 40.8262 50.5517 40.8466L49.0656 41.7455C48.5162 42.0792 48.2134 42.5899 48.2275 43.1824C48.2345 43.5434 48.3613 43.8907 48.5937 44.1767C49.0304 44.7964 49.615 45.3957 50.3193 45.9473C51.2702 46.7032 52.3408 47.2412 53.51 47.5477V48.1674C53.51 49.1548 54.3129 49.9516 55.299 49.9516H56.7569C57.743 49.9516 58.553 49.148 58.553 48.1674V47.5613C59.532 47.3229 60.4054 46.9416 61.1731 46.424C62.8001 45.314 63.6453 43.7681 63.6805 41.8204C63.7087 40.581 63.3565 39.505 62.6451 38.6129C61.7084 37.462 60.3279 36.6788 58.5459 36.2838V36.0387C58.7572 36.1136 58.9826 36.1476 59.208 36.1476C59.6376 36.1749 60.0391 35.9638 60.1941 35.8821C60.2222 35.8684 60.2504 35.8548 60.2786 35.8344L61.9197 34.7788C62.4127 34.4588 62.6874 33.982 62.7015 33.4304C62.7085 33.0014 62.5465 32.6132 62.2296 32.2931C61.2435 31.1491 60.0109 30.3659 58.5459 29.9573V29.1265C58.5459 28.139 57.743 27.3423 56.7499 27.3423H55.2919C54.3058 27.3423 53.5029 28.1458 53.5029 29.1265V29.8824C52.9747 30.0118 52.4746 30.182 52.0168 30.4C50.1996 31.2512 49.291 32.4021 48.8755 33.519C48.4951 32.048 47.495 30.7813 46.1074 30.1071C45.3961 29.7598 44.6495 29.5828 43.8888 29.5828H42.9309C45.8398 25.3946 50.5447 22.8544 55.5596 22.8544C55.7849 22.8544 56.0103 22.8681 56.2357 22.8885L68.2375 30.9107L69.5053 31.8573C70.5759 34.0978 71.1253 36.495 71.1253 38.9738C71.1394 47.8473 64.1524 55.0796 55.5736 55.0796ZM61.49 32.9401C61.6379 33.0763 61.7084 33.233 61.7013 33.4168C61.6943 33.6416 61.5816 33.8322 61.3632 33.9752L59.7292 35.0308H59.7222C59.7222 35.0308 59.4334 35.1806 59.2221 35.1806C58.9615 35.1806 58.7361 35.0921 58.5459 34.9286C58.229 34.6426 57.8979 34.4179 57.5528 34.2544V37.0874C59.5038 37.3666 60.9406 38.0749 61.8633 39.2122C62.4338 39.9204 62.7085 40.7853 62.6874 41.8C62.6592 43.4276 61.9549 44.7011 60.6026 45.6272C59.7433 46.2129 58.722 46.5874 57.5599 46.7645V48.1606C57.5599 48.6168 57.2006 48.9778 56.764 48.9778H55.306C54.8623 48.9778 54.5101 48.61 54.5101 48.1606V46.7645C53.193 46.5466 52.0027 46.029 50.9532 45.1914C50.3052 44.6806 49.784 44.1494 49.3967 43.591C49.284 43.4616 49.2276 43.3186 49.2206 43.1552C49.2135 42.91 49.3403 42.7057 49.5939 42.5559L51.08 41.657H51.0871C51.0871 41.657 51.3758 41.5276 51.5237 41.5276C51.7914 41.5276 52.0097 41.6365 52.1647 41.8545C52.8972 42.6785 53.679 43.2369 54.5101 43.5365V40.0021C52.6014 39.6957 51.2138 38.9602 50.3616 37.7821C49.8545 37.0942 49.5939 36.2907 49.5728 35.3985C49.5446 33.5735 50.5025 32.191 52.4605 31.2717C53.0662 30.9856 53.7494 30.7881 54.5031 30.6792V29.1265C54.5031 28.677 54.8552 28.3025 55.299 28.3025H56.7569C57.1936 28.3025 57.5528 28.6702 57.5528 29.1265V30.72C59.1587 31.0061 60.4687 31.7415 61.49 32.9401ZM40.2967 30.0867C40.2685 30.1412 40.2544 30.1889 40.2333 30.2433H32.4223C30.9854 29.9437 29.9501 28.6157 29.9501 27.0494C29.9501 25.919 30.5135 24.877 31.4292 24.2846C31.894 24.1552 32.9364 23.8691 34.3028 23.5014L35.3734 23.2086C36.6976 22.8817 38.0781 22.5071 39.4304 22.0985L39.698 22.0236C45.5369 20.4301 49.2558 19.429 50.2489 19.177C50.5588 19.1634 50.8476 19.177 51.08 19.2111L53.7847 21.0157C48.1923 21.615 43.1281 24.9724 40.2967 30.0867ZM75.9007 23.8078C75.964 23.8555 76.0274 23.8964 76.0979 23.9304C76.3866 24.0871 76.6613 24.2914 76.9149 24.5365C76.929 24.5501 76.9431 24.5638 76.9501 24.5774C77.6263 25.2652 77.9925 26.1709 77.9925 27.1311C77.9925 29.0039 76.6543 30.5362 74.8794 30.6928C74.816 30.6996 74.7526 30.7064 74.6892 30.72C74.3934 30.7881 74.1398 30.8086 73.7172 30.7405C73.5834 30.72 73.4496 30.6928 73.3369 30.6588C73.189 30.6111 73.0481 30.5498 72.865 30.4545C72.7664 30.4068 72.6748 30.3523 72.5832 30.291C72.5621 30.2774 72.541 30.2638 72.5128 30.2433L69.5476 28.0301C69.5264 28.0165 69.5053 28.0028 69.4842 27.9824L52.538 16.6573C52.3901 16.562 52.2351 16.487 52.0661 16.4462C51.4463 16.2896 50.7419 16.2351 49.939 16.2828C49.8474 16.2896 49.7559 16.3032 49.6643 16.3236C48.6853 16.562 43.2619 18.0329 38.881 19.2247L38.5781 19.3064C37.2399 19.7082 35.9087 20.0691 34.5916 20.396L33.4858 20.6957C31.8518 21.1383 30.6896 21.4584 30.4008 21.5401C30.2811 21.5742 30.1614 21.6218 30.0557 21.6831C28.14 22.7727 26.9496 24.8225 26.9496 27.0358C26.9496 30.0595 29.0837 32.6064 32.0208 33.1035C32.1053 33.1172 32.1898 33.124 32.2814 33.124H43.0436C43.8888 33.124 44.579 33.8799 44.579 34.8061C44.579 35.7322 43.8888 36.4881 43.0436 36.4881H31.5348C30.0487 36.5358 28.2315 36.5562 25.9706 36.5562C21.4558 36.5562 18.3286 34.7516 15.6169 32.8039C14.9126 32.2932 14.2224 31.7688 13.5392 31.2512C10.5035 28.929 7.37625 26.5387 3.0094 26.0756V15.6358L2.98827 14.0899C3.00235 14.0286 3.0094 13.9605 3.0094 13.8924C4.56597 13.7222 6.58741 13.3136 9.04552 12.6802C9.10187 12.6666 9.15821 12.6462 9.21455 12.6258L9.7569 12.4214C17.7511 10.3921 33.8591 6.17664 45.9807 2.99635L46.0722 2.97592C46.7977 2.83291 47.4316 2.87378 48.2134 3.15299L48.3402 3.20066L74.7315 22.9225L75.9007 23.8078Z" stroke="#1DA1F2" stroke-width="2" mask="url(#path-1-inside-1_1302_24012)"/>
</svg>
