<svg width="75" height="75" viewBox="0 0 50 50" fill="none" xmlns="http://www.w3.org/2000/svg">
<path d="M21.2929 1.26788C22.2703 0.451576 23.5378 0 24.8518 0C26.1657 0 27.4333 0.451576 28.4107 1.26788L47.9356 17.5765C48.4908 18.0406 48.9347 18.6079 49.2387 19.2418C49.5427 19.8757 49.6998 20.562 49.7 21.256V44.5375C49.7 45.8503 49.139 47.1094 48.1403 48.0377C47.1417 48.966 45.7873 49.4875 44.375 49.4875H35.5C34.0877 49.4875 32.7333 48.966 31.7347 48.0377C30.736 47.1094 30.175 45.8503 30.175 44.5375V32.9875C30.175 32.5499 29.988 32.1302 29.6551 31.8208C29.3222 31.5113 28.8708 31.3375 28.4 31.3375H21.3C20.8292 31.3375 20.3778 31.5113 20.0449 31.8208C19.712 32.1302 19.525 32.5499 19.525 32.9875V44.5375C19.525 45.8503 18.964 47.1094 17.9653 48.0377C16.9667 48.966 15.6123 49.4875 14.2 49.4875H5.325C3.91272 49.4875 2.55829 48.966 1.55966 48.0377C0.561025 47.1094 0 45.8503 0 44.5375V21.256C0 19.8535 0.639 18.517 1.7679 17.5765L21.2929 1.26788ZM26.0357 3.72308C25.71 3.45129 25.2877 3.30095 24.85 3.30095C24.4123 3.30095 23.99 3.45129 23.6643 3.72308L4.1393 20.0317C3.95433 20.186 3.8063 20.3748 3.70479 20.5857C3.60327 20.7966 3.55054 21.0249 3.55 21.256V44.5375C3.55 44.9751 3.73701 45.3948 4.06989 45.7042C4.40276 46.0136 4.85424 46.1875 5.325 46.1875H14.2C14.6708 46.1875 15.1222 46.0136 15.4551 45.7042C15.788 45.3948 15.975 44.9751 15.975 44.5375V32.9875C15.975 31.6747 16.536 30.4156 17.5347 29.4873C18.5333 28.559 19.8877 28.0375 21.3 28.0375H28.4C29.8123 28.0375 31.1667 28.559 32.1653 29.4873C33.164 30.4156 33.725 31.6747 33.725 32.9875V44.5375C33.725 44.9751 33.912 45.3948 34.2449 45.7042C34.5778 46.0136 35.0292 46.1875 35.5 46.1875H44.375C44.8458 46.1875 45.2972 46.0136 45.6301 45.7042C45.963 45.3948 46.15 44.9751 46.15 44.5375V21.256C46.1495 21.0249 46.0967 20.7966 45.9952 20.5857C45.8937 20.3748 45.7457 20.186 45.5607 20.0317L26.0357 3.72308Z" fill="#1DA1F2"/>
<path d="M19.6514 25H19.1484L14.9199 18.6621H14.8809C14.9199 19.4173 14.9395 19.987 14.9395 20.3711V25H14.4609V17.8613H14.959L19.1826 24.1895H19.2119C19.1826 23.6035 19.168 23.0469 19.168 22.5195V17.8613H19.6514V25ZM24.4854 21.4014H27.1172V24.6582C26.4271 24.9512 25.6507 25.0977 24.7881 25.0977C23.6618 25.0977 22.7975 24.7803 22.1953 24.1455C21.5964 23.5075 21.2969 22.6058 21.2969 21.4404C21.2969 20.7145 21.445 20.0716 21.7412 19.5117C22.0407 18.9486 22.4671 18.514 23.0205 18.208C23.5771 17.902 24.2152 17.749 24.9346 17.749C25.7126 17.749 26.4108 17.8923 27.0293 18.1787L26.8291 18.6279C26.2106 18.3415 25.5693 18.1982 24.9053 18.1982C23.9645 18.1982 23.2174 18.4896 22.6641 19.0723C22.1139 19.6517 21.8389 20.4346 21.8389 21.4209C21.8389 22.4951 22.1009 23.304 22.625 23.8477C23.1491 24.388 23.9189 24.6582 24.9346 24.6582C25.5921 24.6582 26.1504 24.5654 26.6094 24.3799V21.8701H24.4854V21.4014ZM34.915 21.4209C34.915 22.5537 34.6318 23.4505 34.0654 24.1113C33.499 24.7689 32.7178 25.0977 31.7217 25.0977C30.7288 25.0977 29.9492 24.7689 29.3828 24.1113C28.8164 23.4505 28.5332 22.5505 28.5332 21.4111C28.5332 20.2751 28.818 19.3815 29.3877 18.7305C29.9606 18.0762 30.7419 17.749 31.7314 17.749C32.7275 17.749 33.5072 18.0778 34.0703 18.7354C34.6335 19.3896 34.915 20.2848 34.915 21.4209ZM29.0752 21.4209C29.0752 22.443 29.3031 23.234 29.7588 23.7939C30.2145 24.3506 30.8688 24.6289 31.7217 24.6289C32.5811 24.6289 33.237 24.3522 33.6895 23.7988C34.1452 23.2454 34.373 22.4528 34.373 21.4209C34.373 20.3923 34.1452 19.6045 33.6895 19.0576C33.237 18.5075 32.5843 18.2324 31.7314 18.2324C30.8818 18.2324 30.2259 18.5091 29.7637 19.0625C29.3047 19.6159 29.0752 20.402 29.0752 21.4209Z" fill="#1DA1F2"/>
<path d="M19.6514 25V25.5H20.1514V25H19.6514ZM19.1484 25L18.7325 25.2775L18.881 25.5H19.1484V25ZM14.9199 18.6621L15.3358 18.3846L15.1874 18.1621H14.9199V18.6621ZM14.8809 18.6621V18.1621H14.3543L14.3815 18.6879L14.8809 18.6621ZM14.9395 25V25.5H15.4395V25H14.9395ZM14.4609 25H13.9609V25.5H14.4609V25ZM14.4609 17.8613V17.3613H13.9609V17.8613H14.4609ZM14.959 17.8613L15.3749 17.5838L15.2264 17.3613H14.959V17.8613ZM19.1826 24.1895L18.7667 24.467L18.9152 24.6895H19.1826V24.1895ZM19.2119 24.1895V24.6895H19.7375L19.7113 24.1645L19.2119 24.1895ZM19.168 17.8613V17.3613H18.668V17.8613H19.168ZM19.6514 17.8613H20.1514V17.3613H19.6514V17.8613ZM19.6514 24.5H19.1484V25.5H19.6514V24.5ZM19.5644 24.7225L15.3358 18.3846L14.504 18.9396L18.7325 25.2775L19.5644 24.7225ZM14.9199 18.1621H14.8809V19.1621H14.9199V18.1621ZM14.3815 18.6879C14.4205 19.4411 14.4395 20.0003 14.4395 20.3711H15.4395C15.4395 19.9737 15.4194 19.3936 15.3802 18.6363L14.3815 18.6879ZM14.4395 20.3711V25H15.4395V20.3711H14.4395ZM14.9395 24.5H14.4609V25.5H14.9395V24.5ZM14.9609 25V17.8613H13.9609V25H14.9609ZM14.4609 18.3613H14.959V17.3613H14.4609V18.3613ZM14.5431 18.1389L18.7667 24.467L19.5985 23.9119L15.3749 17.5838L14.5431 18.1389ZM19.1826 24.6895H19.2119V23.6895H19.1826V24.6895ZM19.7113 24.1645C19.6824 23.586 19.668 23.0377 19.668 22.5195H18.668C18.668 23.0561 18.6829 23.6211 18.7125 24.2144L19.7113 24.1645ZM19.668 22.5195V17.8613H18.668V22.5195H19.668ZM19.168 18.3613H19.6514V17.3613H19.168V18.3613ZM19.1514 17.8613V25H20.1514V17.8613H19.1514ZM24.4854 21.4014V20.9014H23.9854V21.4014H24.4854ZM27.1172 21.4014H27.6172V20.9014H27.1172V21.4014ZM27.1172 24.6582L27.3126 25.1184L27.6172 24.9891V24.6582H27.1172ZM22.1953 24.1455L21.8308 24.4877L21.8326 24.4896L22.1953 24.1455ZM21.7412 19.5117L21.2998 19.277L21.2993 19.2779L21.7412 19.5117ZM23.0205 18.208L22.7796 17.7698L22.7786 17.7704L23.0205 18.208ZM27.0293 18.1787L27.486 18.3822L27.6866 17.9321L27.2394 17.725L27.0293 18.1787ZM26.8291 18.6279L26.619 19.0816L27.0793 19.2948L27.2858 18.8315L26.8291 18.6279ZM22.6641 19.0723L22.3015 18.7279L22.3015 18.728L22.6641 19.0723ZM22.625 23.8477L22.265 24.1947L22.2661 24.1958L22.625 23.8477ZM26.6094 24.3799L26.7968 24.8434L27.1094 24.7171V24.3799H26.6094ZM26.6094 21.8701H27.1094V21.3701H26.6094V21.8701ZM24.4854 21.8701H23.9854V22.3701H24.4854V21.8701ZM24.4854 21.9014H27.1172V20.9014H24.4854V21.9014ZM26.6172 21.4014V24.6582H27.6172V21.4014H26.6172ZM26.9218 24.198C26.3021 24.461 25.5936 24.5977 24.7881 24.5977V25.5977C25.7078 25.5977 26.5521 25.4413 27.3126 25.1184L26.9218 24.198ZM24.7881 24.5977C23.7574 24.5977 23.0406 24.31 22.558 23.8014L21.8326 24.4896C22.5544 25.2505 23.5662 25.5977 24.7881 25.5977V24.5977ZM22.5598 23.8033C22.0735 23.2853 21.7969 22.5218 21.7969 21.4404H20.7969C20.7969 22.6898 21.1192 23.7297 21.8308 24.4877L22.5598 23.8033ZM21.7969 21.4404C21.7969 20.784 21.9303 20.2235 22.1832 19.7455L21.2993 19.2779C20.9597 19.9197 20.7969 20.645 20.7969 21.4404H21.7969ZM22.1827 19.7465C22.4371 19.268 22.7946 18.9043 23.2625 18.6456L22.7786 17.7704C22.1397 18.1237 21.6443 18.6291 21.2998 19.277L22.1827 19.7465ZM23.2614 18.6462C23.7349 18.3859 24.2881 18.249 24.9346 18.249V17.249C24.1423 17.249 23.4194 17.4182 22.7796 17.7698L23.2614 18.6462ZM24.9346 18.249C25.6502 18.249 26.2752 18.3805 26.8192 18.6324L27.2394 17.725C26.5464 17.404 25.7749 17.249 24.9346 17.249V18.249ZM26.5726 17.9752L26.3724 18.4244L27.2858 18.8315L27.486 18.3822L26.5726 17.9752ZM27.0392 18.1742C26.3567 17.8581 25.6439 17.6982 24.9053 17.6982V18.6982C25.4948 18.6982 26.0645 18.8248 26.619 19.0816L27.0392 18.1742ZM24.9053 17.6982C23.8529 17.6982 22.9655 18.0288 22.3015 18.7279L23.0266 19.4166C23.4694 18.9504 24.0762 18.6982 24.9053 18.6982V17.6982ZM22.3015 18.728C21.6435 19.421 21.3389 20.3381 21.3389 21.4209H22.3389C22.3389 20.5311 22.5843 19.8824 23.0267 19.4165L22.3015 18.728ZM21.3389 21.4209C21.3389 22.5697 21.6191 23.5247 22.265 24.1947L22.985 23.5006C22.5827 23.0834 22.3389 22.4206 22.3389 21.4209H21.3389ZM22.2661 24.1958C22.9136 24.8634 23.8325 25.1582 24.9346 25.1582V24.1582C24.0054 24.1582 23.3845 23.9126 22.9839 23.4995L22.2661 24.1958ZM24.9346 25.1582C25.6364 25.1582 26.2622 25.0595 26.7968 24.8434L26.422 23.9163C26.0386 24.0713 25.5478 24.1582 24.9346 24.1582V25.1582ZM27.1094 24.3799V21.8701H26.1094V24.3799H27.1094ZM26.6094 21.3701H24.4854V22.3701H26.6094V21.3701ZM24.9854 21.8701V21.4014H23.9854V21.8701H24.9854ZM34.0654 24.1113L34.4443 24.4377L34.4451 24.4367L34.0654 24.1113ZM29.3828 24.1113L29.0032 24.4367L29.004 24.4376L29.3828 24.1113ZM29.3877 18.7305L29.0115 18.4011L29.0114 18.4012L29.3877 18.7305ZM34.0703 18.7354L33.6906 19.0606L33.6914 19.0615L34.0703 18.7354ZM29.7588 23.7939L29.371 24.1096L29.3719 24.1107L29.7588 23.7939ZM33.6895 23.7988L33.3035 23.481L33.3024 23.4823L33.6895 23.7988ZM33.6895 19.0576L33.3033 19.3752L33.3053 19.3777L33.6895 19.0576ZM29.7637 19.0625L29.3799 18.742L29.3788 18.7433L29.7637 19.0625ZM34.415 21.4209C34.415 22.471 34.1536 23.2402 33.6858 23.7859L34.4451 24.4367C35.1101 23.6609 35.415 22.6364 35.415 21.4209H34.415ZM33.6866 23.785C33.2297 24.3154 32.5962 24.5977 31.7217 24.5977V25.5977C32.8394 25.5977 33.7683 25.2224 34.4443 24.4376L33.6866 23.785ZM31.7217 24.5977C30.851 24.5977 30.2188 24.3158 29.7616 23.785L29.004 24.4376C29.6796 25.222 30.6066 25.5977 31.7217 25.5977V24.5977ZM29.7624 23.7859C29.2951 23.2407 29.0332 22.4686 29.0332 21.4111H28.0332C28.0332 22.6323 28.3378 23.6604 29.0032 24.4367L29.7624 23.7859ZM29.0332 21.4111C29.0332 20.3575 29.2963 19.5942 29.764 19.0597L29.0114 18.4012C28.3398 19.1688 28.0332 20.1926 28.0332 21.4111H29.0332ZM29.7639 19.0599C30.2282 18.5296 30.8639 18.249 31.7314 18.249V17.249C30.6198 17.249 29.693 17.6228 29.0115 18.4011L29.7639 19.0599ZM31.7314 18.249C32.606 18.249 33.2372 18.5313 33.6906 19.0606L34.4501 18.4101C33.7771 17.6243 32.8491 17.249 31.7314 17.249V18.249ZM33.6914 19.0615C34.1546 19.5997 34.415 20.3661 34.415 21.4209H35.415C35.415 20.2035 35.1124 19.1796 34.4493 18.4092L33.6914 19.0615ZM28.5752 21.4209C28.5752 22.5111 28.8178 23.4299 29.371 24.1096L30.1466 23.4783C29.7884 23.0382 29.5752 22.375 29.5752 21.4209H28.5752ZM29.3719 24.1107C29.9406 24.8053 30.7498 25.1289 31.7217 25.1289V24.1289C30.9878 24.1289 30.4885 23.8959 30.1457 23.4772L29.3719 24.1107ZM31.7217 25.1289C32.6975 25.1289 33.5097 24.8086 34.0765 24.1153L33.3024 23.4823C32.9642 23.8959 32.4646 24.1289 31.7217 24.1289V25.1289ZM34.0754 24.1167C34.6313 23.4417 34.873 22.519 34.873 21.4209H33.873C33.873 22.3866 33.6591 23.0492 33.3035 23.481L34.0754 24.1167ZM34.873 21.4209C34.873 20.3261 34.6313 19.4068 34.0736 18.7375L33.3053 19.3777C33.6591 19.8022 33.873 20.4584 33.873 21.4209H34.873ZM34.0756 18.74C33.5092 18.0514 32.7012 17.7324 31.7314 17.7324V18.7324C32.4674 18.7324 32.9647 18.9636 33.3033 19.3752L34.0756 18.74ZM31.7314 17.7324C30.763 17.7324 29.9545 18.0541 29.3799 18.742L30.1474 19.383C30.4973 18.9641 31.0007 18.7324 31.7314 18.7324V17.7324ZM29.3788 18.7433C28.8197 19.4174 28.5752 20.3333 28.5752 21.4209H29.5752C29.5752 20.4708 29.7896 19.8144 30.1485 19.3817L29.3788 18.7433Z" fill="#1DA1F2"/>
</svg>
