<svg width="76" height="76" viewBox="0 0 100 100" fill="none" xmlns="http://www.w3.org/2000/svg">
<path d="M86.186 60.4171L100 64.5357C93.6372 85.0607 74.1497 100 51.0964 100C22.8766 100 0 77.6143 0 50C0 22.3857 22.8766 0 51.0964 0C65.2394 0 78.0403 5.62283 87.292 14.7085L77.3021 24.4841C70.6472 17.8737 61.3934 13.7755 51.1615 13.7755C30.8966 13.7755 14.4686 29.851 14.4686 49.6811C14.4686 69.5112 30.8966 85.5867 51.1615 85.5867C67.6047 85.5867 81.5216 75.0028 86.186 60.4171Z" fill="#1AA5FF"/>
<path d="M94.7082 7.14355L67.9668 31.4405L97.7603 35.5585L94.7082 7.14355Z" fill="#1AA5FF"/>
</svg>
