<svg width="75" height="75" viewBox="0 0 70 70" fill="none" xmlns="http://www.w3.org/2000/svg">
<path d="M64.5287 57.0128C64.5303 56.9665 64.5312 56.9206 64.5312 56.875C64.5299 55.7151 64.0685 54.603 63.2483 53.7828C62.4281 52.9627 61.3161 52.5013 60.1562 52.5V32.2656L64.0937 29.3125C64.2304 29.2099 64.3412 29.0767 64.4172 28.9236C64.4932 28.7705 64.5322 28.6017 64.5311 28.4307C64.5301 28.2598 64.4889 28.0915 64.4111 27.9393C64.3332 27.7871 64.2207 27.6553 64.0827 27.5544L54.6874 20.6886V8.75C54.9775 8.75 55.2557 8.63477 55.4608 8.42965C55.6659 8.22453 55.7812 7.94633 55.7812 7.65625V3.28125C55.7812 2.99117 55.6659 2.71297 55.4608 2.50785C55.2557 2.30273 54.9775 2.1875 54.6874 2.1875H43.7499C43.4598 2.1875 43.1816 2.30273 42.9765 2.50785C42.7714 2.71297 42.6562 2.99117 42.6562 3.28125V7.65625C42.6562 7.94633 42.7714 8.22453 42.9765 8.42965C43.1816 8.63477 43.4598 8.75 43.7499 8.75V12.6958L35.6452 6.77318C35.4579 6.6363 35.2319 6.56253 34.9999 6.56253C34.7679 6.56253 34.5419 6.6363 34.3546 6.77318L5.9171 27.5544C5.77908 27.6553 5.66663 27.7871 5.58876 27.9393C5.51089 28.0915 5.46977 28.2598 5.46871 28.4307C5.46764 28.6017 5.50666 28.7705 5.58263 28.9236C5.6586 29.0767 5.76941 29.2099 5.90616 29.3125L9.84366 32.2656V52.5C8.68374 52.5013 7.5717 52.9627 6.75151 53.7828C5.93132 54.603 5.46997 55.7151 5.46866 56.875C5.46866 56.9206 5.46948 56.9665 5.47112 57.0128C4.43929 57.2781 3.53973 57.9108 2.9412 58.7922C2.34268 59.6736 2.08633 60.743 2.22026 61.8C2.35419 62.8569 2.86919 63.8287 3.66864 64.5329C4.46808 65.2371 5.49702 65.6255 6.56241 65.625H63.4374C64.5028 65.6255 65.5317 65.2371 66.3312 64.5329C67.1306 63.8287 67.6456 62.8569 67.7796 61.8C67.9135 60.743 67.6572 59.6736 67.0586 58.7922C66.4601 57.9108 65.5605 57.2781 64.5287 57.0128ZM44.8437 4.375H53.5937V6.5625H44.8437V4.375ZM45.9374 14.2188V8.75H52.4999V19.09L45.8339 14.2188H45.9374ZM34.9999 9.01086L61.5992 28.449L59.0524 30.3591L35.6433 13.3342C35.4564 13.1982 35.2311 13.1249 34.9999 13.1249C34.7687 13.1249 34.5435 13.1982 34.3565 13.3342L10.9474 30.3591L8.4006 28.449L34.9999 9.01086ZM4.37491 61.25C4.37552 60.6757 4.6017 60.1246 5.00472 59.7154C5.40774 59.3063 5.95536 59.0718 6.5296 59.0625H6.5322C6.58812 59.0703 6.64403 59.077 6.70105 59.0807C6.8823 59.0921 7.06354 59.0583 7.22843 58.9821C7.39331 58.906 7.53664 58.79 7.64549 58.6446C7.75433 58.4992 7.82526 58.329 7.85188 58.1494C7.8785 57.9697 7.85996 57.7863 7.79794 57.6156C7.70743 57.379 7.65943 57.1283 7.65616 56.875C7.65685 56.2951 7.88754 55.739 8.29763 55.329C8.70771 54.9189 9.26371 54.6882 9.84366 54.6875V63.4375H6.56241C5.98246 63.4368 5.42646 63.2061 5.01638 62.796C4.60629 62.386 4.3756 61.8299 4.37491 61.25ZM51.4062 63.4375H38.2812V39.375H51.4062V63.4375ZM53.5937 63.4375V38.2812C53.5937 37.9912 53.4784 37.713 53.2733 37.5079C53.0682 37.3027 52.79 37.1875 52.4999 37.1875H37.1874C36.8973 37.1875 36.6191 37.3027 36.414 37.5079C36.2089 37.713 36.0937 37.9912 36.0937 38.2812V63.4375H12.0312V32.2757L34.9999 15.5712L57.9687 32.2757V63.4375H53.5937ZM63.4374 63.4375H60.1562V54.6875C60.7361 54.6882 61.2921 54.9189 61.7022 55.329C62.1123 55.739 62.343 56.2951 62.3437 56.875C62.3405 57.1285 62.2925 57.3794 62.2019 57.6161C62.1399 57.7868 62.1213 57.9703 62.1479 58.1499C62.1746 58.3296 62.2455 58.4998 62.3543 58.6452C62.4632 58.7906 62.6065 58.9065 62.7714 58.9827C62.9363 59.0588 63.1175 59.0927 63.2988 59.0812C63.3558 59.0775 63.4117 59.0708 63.4676 59.063H63.4702C64.0504 59.0674 64.6051 59.302 65.0122 59.7154C65.4194 60.1287 65.6457 60.6868 65.6413 61.267C65.637 61.8471 65.4023 62.4018 64.989 62.8089C64.5757 63.2161 64.0176 63.4424 63.4374 63.438V63.4375Z" fill="#1DA1F2"/>
<path d="M30.625 37.1875H17.5C17.2099 37.1875 16.9317 37.3027 16.7266 37.5079C16.5215 37.713 16.4062 37.9912 16.4062 38.2812V53.5938C16.4062 53.8838 16.5215 54.162 16.7266 54.3671C16.9317 54.5723 17.2099 54.6875 17.5 54.6875H30.625C30.9151 54.6875 31.1933 54.5723 31.3984 54.3671C31.6035 54.162 31.7188 53.8838 31.7188 53.5938V38.2812C31.7188 37.9912 31.6035 37.713 31.3984 37.5079C31.1933 37.3027 30.9151 37.1875 30.625 37.1875ZM29.5312 44.8438H25.1562V39.375H29.5312V44.8438ZM22.9688 39.375V44.8438H18.5938V39.375H22.9688ZM18.5938 47.0312H22.9688V52.5H18.5938V47.0312ZM25.1562 52.5V47.0312H29.5312V52.5H25.1562Z" fill="#1DA1F2"/>
<path d="M42.5724 50.731C42.8035 50.173 42.5385 49.5332 41.9804 49.302C41.4223 49.0708 40.7825 49.3358 40.5514 49.8939C40.3202 50.452 40.5852 51.0918 41.1433 51.323C41.7014 51.5541 42.3412 51.2891 42.5724 50.731Z" fill="#1DA1F2"/>
</svg>
