<svg width="75" height="75" viewBox="0 0 70 70" fill="none" xmlns="http://www.w3.org/2000/svg">
<path d="M31.7188 20.7812C32.0088 20.7812 32.287 20.666 32.4921 20.4609C32.6973 20.2558 32.8125 19.9776 32.8125 19.6875V18.5938C32.8125 18.3037 32.6973 18.0255 32.4921 17.8204C32.287 17.6152 32.0088 17.5 31.7188 17.5C31.4287 17.5 31.1505 17.6152 30.9454 17.8204C30.7402 18.0255 30.625 18.3037 30.625 18.5938V19.6875C30.625 19.9776 30.7402 20.2558 30.9454 20.4609C31.1505 20.666 31.4287 20.7812 31.7188 20.7812Z" fill="#1DA1F2"/>
<path d="M38.2812 17.5C37.9912 17.5 37.713 17.6152 37.5079 17.8204C37.3027 18.0255 37.1875 18.3037 37.1875 18.5938V19.6875C37.1875 19.9776 37.3027 20.2558 37.5079 20.4609C37.713 20.666 37.9912 20.7812 38.2812 20.7812C38.5713 20.7812 38.8495 20.666 39.0546 20.4609C39.2598 20.2558 39.375 19.9776 39.375 19.6875V18.5938C39.375 18.3037 39.2598 18.0255 39.0546 17.8204C38.8495 17.6152 38.5713 17.5 38.2812 17.5Z" fill="#1DA1F2"/>
<path d="M35 26.25C33.6645 26.25 32.8125 25.6025 32.8125 25.1562H30.625C30.625 26.9959 32.5467 28.4375 35 28.4375C37.4533 28.4375 39.375 26.9959 39.375 25.1562H37.1875C37.1875 25.6025 36.3355 26.25 35 26.25Z" fill="#1DA1F2"/>
<path d="M59.7841 65.0891L59.2372 62.9016C59.1574 62.5923 59.0115 62.304 58.8094 62.0566C58.6073 61.8092 58.354 61.6087 58.0669 61.4688L59.0075 41.6719C59.0223 41.3755 58.9767 41.0793 58.8735 40.8011C58.7702 40.523 58.6114 40.2687 58.4068 40.0539C58.2022 39.839 57.956 39.668 57.6832 39.5513C57.4104 39.4346 57.1167 39.3746 56.82 39.375H50.3997C50.0719 38.8103 49.6751 38.2886 49.2184 37.8219V16.4062C49.2184 12.6352 47.7204 9.01861 45.0539 6.35208C42.3873 3.68554 38.7707 2.1875 34.9997 2.1875C31.2286 2.1875 27.612 3.68554 24.9455 6.35208C22.279 9.01861 20.7809 12.6352 20.7809 16.4062V37.8219C20.3243 38.2886 19.9275 38.8103 19.5997 39.375H13.1794C12.8827 39.3746 12.589 39.4346 12.3162 39.5513C12.0434 39.668 11.7972 39.839 11.5926 40.0539C11.388 40.2687 11.2292 40.523 11.1259 40.8011C11.0226 41.0793 10.977 41.3755 10.9919 41.6719L11.9325 61.4688C11.6454 61.6087 11.392 61.8092 11.19 62.0566C10.9879 62.304 10.842 62.5923 10.7622 62.9016L10.2153 65.1C10.1337 65.4211 10.1267 65.7567 10.1949 66.0809C10.2632 66.4051 10.4049 66.7094 10.6091 66.9703C10.814 67.233 11.0762 67.4455 11.3757 67.5914C11.6751 67.7374 12.004 67.813 12.3372 67.8125H57.6622C57.9952 67.8127 58.3238 67.7368 58.623 67.5907C58.9223 67.4446 59.1842 67.2321 59.3888 66.9694C59.5935 66.7068 59.7355 66.4008 59.804 66.075C59.8725 65.7491 59.8656 65.4119 59.7841 65.0891ZM22.9684 16.4062C22.9684 13.2154 24.236 10.1552 26.4923 7.89887C28.7486 5.64257 31.8088 4.375 34.9997 4.375C38.1906 4.375 41.2508 5.64257 43.5071 7.89887C45.7634 10.1552 47.0309 13.2154 47.0309 16.4062V36.2578C46.6793 36.0931 46.3176 35.9506 45.9481 35.8312L43.5856 35.1203C42.7192 34.8619 41.9551 34.3393 41.4002 33.6255C40.8452 32.9118 40.5271 32.0424 40.4903 31.1391C40.9277 30.8395 41.3443 30.5106 41.7372 30.1547C42.7152 29.2301 43.4949 28.1163 44.0289 26.881C44.5629 25.6456 44.84 24.3146 44.8434 22.9688V14.2188C44.8408 13.3493 44.4943 12.5162 43.8795 11.9014C43.2647 11.2866 42.4316 10.9401 41.5622 10.9375H40.1513C39.2064 10.9328 38.2916 10.6047 37.5591 10.0078C37.4261 9.89613 37.2684 9.81798 37.099 9.77991C36.9296 9.74185 36.7535 9.74499 36.5856 9.78906C36.4183 9.83821 36.2644 9.92481 36.1355 10.0423C36.0066 10.1598 35.9062 10.3051 35.8419 10.4672C35.5515 11.2437 35.032 11.9137 34.3523 12.3883C33.6726 12.863 32.8647 13.1199 32.0356 13.125H28.4372C27.5677 13.1276 26.7347 13.4741 26.1199 14.0889C25.5051 14.7037 25.1585 15.5368 25.1559 16.4062V22.6734C25.15 24.3236 25.5439 25.9507 26.3039 27.4154C27.0639 28.8802 28.1674 30.1391 29.52 31.0844C29.4934 31.9985 29.1787 32.881 28.6209 33.6057C28.0631 34.3305 27.2906 34.8605 26.4137 35.1203L24.0513 35.8312C23.68 35.9458 23.3181 36.0884 22.9684 36.2578V16.4062ZM47.6544 39.375H41.77C42.4473 38.8271 42.9898 38.1311 43.3559 37.3406L45.3138 37.9313C46.2051 38.2033 47.0113 38.7005 47.6544 39.375ZM31.5872 32.1891C32.4748 32.5252 33.4073 32.7279 34.3544 32.7906C34.5731 32.8016 34.7919 32.8125 35.0106 32.8125C36.1717 32.8102 37.3232 32.6028 38.4122 32.2C38.582 33.0754 38.9311 33.9063 39.4374 34.6404C39.9437 35.3744 40.5964 35.9959 41.3544 36.4656C40.6216 38.1172 37.9856 39.375 34.9997 39.375C32.0138 39.375 29.3778 38.1172 28.645 36.4656C29.4033 35.9937 30.0561 35.3702 30.5623 34.6343C31.0686 33.8985 31.4175 33.066 31.5872 32.1891ZM27.3434 22.6734V16.4062C27.3434 16.1162 27.4587 15.838 27.6638 15.6329C27.8689 15.4277 28.1471 15.3125 28.4372 15.3125H32.0356C33.0827 15.3088 34.1122 15.0437 35.0309 14.5414C35.9496 14.0391 36.7283 13.3154 37.2966 12.4359C38.1798 12.8892 39.1584 13.1254 40.1513 13.125H41.5622C41.8523 13.125 42.1305 13.2402 42.3356 13.4454C42.5407 13.6505 42.6559 13.9287 42.6559 14.2188V22.9688C42.6578 24.0169 42.4439 25.0542 42.0276 26.0161C41.6113 26.978 41.0015 27.8439 40.2362 28.56C39.4708 29.2761 38.5663 29.8271 37.5789 30.1785C36.5914 30.53 35.5422 30.6746 34.4966 30.6031C32.5211 30.4345 30.6834 29.5218 29.3554 28.0496C28.0274 26.5775 27.3082 24.6558 27.3434 22.6734ZM24.6856 37.9313L26.6434 37.3406C27.0096 38.1311 27.5521 38.8271 28.2294 39.375H22.345C22.9881 38.7005 23.7943 38.2033 24.6856 37.9313ZM56.82 41.5625L55.8903 61.25H14.1091L13.1794 41.5625H56.82ZM12.3372 65.625L12.8841 63.4375H57.1153L57.6622 65.625H12.3372Z" fill="#1DA1F2"/>
<path d="M35 54.6875C35.8653 54.6875 36.7112 54.4309 37.4306 53.9502C38.1501 53.4695 38.7109 52.7862 39.042 51.9867C39.3731 51.1873 39.4598 50.3077 39.2909 49.459C39.1221 48.6103 38.7055 47.8308 38.0936 47.2189C37.4817 46.6071 36.7022 46.1904 35.8535 46.0216C35.0049 45.8528 34.1252 45.9394 33.3258 46.2705C32.5263 46.6017 31.8431 47.1624 31.3623 47.8819C30.8816 48.6013 30.625 49.4472 30.625 50.3125C30.625 51.4728 31.0859 52.5856 31.9064 53.4061C32.7269 54.2266 33.8397 54.6875 35 54.6875ZM35 48.125C35.4327 48.125 35.8556 48.2533 36.2153 48.4937C36.5751 48.734 36.8554 49.0757 37.021 49.4754C37.1866 49.8751 37.2299 50.3149 37.1455 50.7393C37.0611 51.1636 36.8527 51.5534 36.5468 51.8593C36.2409 52.1652 35.8511 52.3736 35.4268 52.458C35.0024 52.5424 34.5626 52.4991 34.1629 52.3335C33.7632 52.1679 33.4215 51.8875 33.1812 51.5278C32.9408 51.1681 32.8125 50.7452 32.8125 50.3125C32.8125 49.7323 33.043 49.1759 33.4532 48.7657C33.8634 48.3555 34.4198 48.125 35 48.125Z" fill="#1DA1F2"/>
</svg>
