<svg width="1276" height="760" viewBox="0 0 1276 760" fill="none" xmlns="http://www.w3.org/2000/svg">
<g filter="url(#filter0_dd_456_12426)">
<rect x="35" y="20" width="1206" height="690" rx="35" fill="#F6F9FC"/>
</g>
<g filter="url(#filter1_d_456_12426)">
<rect x="753" y="182" width="465" height="508" rx="6" fill="white"/>
</g>
<path d="M893.509 422.874C893.509 426.998 892.364 430.154 890.074 432.342C887.784 434.518 884.485 435.606 880.179 435.606H873.189V410.621H880.914C884.89 410.621 887.983 411.692 890.193 413.833C892.404 415.975 893.509 418.989 893.509 422.874ZM889.202 423.011C889.202 417.029 886.405 414.039 880.811 414.039H877.273V432.171H880.179C886.194 432.171 889.202 429.118 889.202 423.011ZM913.025 435.606H898.892V410.621H913.025V414.073H902.977V420.875H912.393V424.292H902.977V432.137H913.025V435.606ZM938.763 422.874C938.763 426.998 937.618 430.154 935.328 432.342C933.038 434.518 929.739 435.606 925.433 435.606H918.443V410.621H926.167C930.144 410.621 933.237 411.692 935.447 413.833C937.658 415.975 938.763 418.989 938.763 422.874ZM934.456 423.011C934.456 417.029 931.659 414.039 926.065 414.039H922.527V432.171H925.433C931.448 432.171 934.456 429.118 934.456 423.011ZM963.731 410.621V426.788C963.731 428.633 963.332 430.251 962.535 431.641C961.749 433.02 960.604 434.085 959.1 434.837C957.607 435.577 955.818 435.948 953.733 435.948C950.634 435.948 948.225 435.127 946.504 433.487C944.784 431.846 943.924 429.59 943.924 426.719V410.621H948.025V426.429C948.025 428.491 948.504 430.012 949.461 430.992C950.418 431.972 951.888 432.461 953.87 432.461C957.721 432.461 959.646 430.439 959.646 426.395V410.621H963.731ZM980.752 413.765C978.405 413.765 976.56 414.597 975.215 416.26C973.871 417.924 973.199 420.219 973.199 423.147C973.199 426.212 973.842 428.531 975.13 430.103C976.429 431.675 978.303 432.461 980.752 432.461C981.812 432.461 982.837 432.359 983.829 432.154C984.82 431.937 985.851 431.664 986.922 431.333V434.837C984.962 435.577 982.741 435.948 980.257 435.948C976.6 435.948 973.791 434.843 971.832 432.632C969.872 430.411 968.892 427.238 968.892 423.113C968.892 420.516 969.365 418.243 970.311 416.294C971.268 414.346 972.646 412.854 974.446 411.817C976.246 410.78 978.36 410.262 980.787 410.262C983.339 410.262 985.697 410.797 987.862 411.868L986.392 415.269C985.549 414.87 984.655 414.523 983.709 414.227C982.775 413.919 981.789 413.765 980.752 413.765ZM1000.94 435.606H996.851V414.124H989.502V410.621H1008.28V414.124H1000.94V435.606ZM1012.13 435.606V410.621H1016.21V435.606H1012.13ZM1045.01 423.079C1045.01 427.146 1043.99 430.308 1041.95 432.564C1039.92 434.82 1037.05 435.948 1033.32 435.948C1029.55 435.948 1026.65 434.831 1024.62 432.598C1022.61 430.354 1021.6 427.169 1021.6 423.045C1021.6 418.921 1022.61 415.753 1024.64 413.543C1026.68 411.333 1029.58 410.228 1033.35 410.228C1037.07 410.228 1039.94 411.35 1041.97 413.594C1044 415.839 1045.01 419 1045.01 423.079ZM1025.94 423.079C1025.94 426.155 1026.56 428.491 1027.8 430.086C1029.04 431.67 1030.88 432.461 1033.32 432.461C1035.75 432.461 1037.58 431.675 1038.81 430.103C1040.05 428.531 1040.67 426.189 1040.67 423.079C1040.67 420.014 1040.05 417.69 1038.82 416.106C1037.6 414.523 1035.78 413.731 1033.35 413.731C1030.91 413.731 1029.05 414.523 1027.8 416.106C1026.56 417.69 1025.94 420.014 1025.94 423.079ZM1071.19 435.606H1066.18L1053.9 415.696H1053.76L1053.85 416.807C1054.01 418.926 1054.08 420.863 1054.08 422.618V435.606H1050.38V410.621H1055.33L1067.59 430.428H1067.69C1067.67 430.166 1067.62 429.214 1067.55 427.574C1067.48 425.922 1067.45 424.634 1067.45 423.711V410.621H1071.19V435.606Z" fill="black" fill-opacity="0.6"/>
<path d="M930.512 470.109C933.03 470.109 935.023 470.775 936.493 472.108C937.963 473.441 938.698 475.259 938.698 477.56C938.698 480.226 937.86 482.311 936.186 483.815C934.522 485.307 932.152 486.054 929.076 486.054C926.285 486.054 924.092 485.604 922.497 484.704V481.063C923.419 481.588 924.479 481.992 925.675 482.277C926.872 482.562 927.982 482.704 929.008 482.704C930.819 482.704 932.198 482.3 933.144 481.491C934.089 480.682 934.562 479.497 934.562 477.936C934.562 474.951 932.659 473.458 928.854 473.458C928.319 473.458 927.658 473.515 926.872 473.629C926.085 473.732 925.396 473.852 924.804 473.988L923.009 472.929L923.966 460.727H936.955V464.298H927.504L926.94 470.485C927.339 470.417 927.823 470.337 928.393 470.246C928.974 470.154 929.68 470.109 930.512 470.109ZM953.822 485.712H949.806V469.579C949.806 467.654 949.852 466.127 949.943 464.999C949.681 465.272 949.356 465.574 948.969 465.905C948.593 466.235 947.317 467.283 945.141 469.049L943.124 466.503L950.473 460.727H953.822V485.712ZM967.528 482.038C966.981 484.157 965.979 486.885 964.521 490.224H961.564C962.35 487.147 962.937 484.288 963.324 481.645H967.272L967.528 482.038ZM989.215 480.26H985.849V485.712H981.935V480.26H970.519V477.167L981.935 460.658H985.849V476.928H989.215V480.26ZM981.935 476.928V470.656C981.935 468.423 981.992 466.594 982.106 465.17H981.969C981.65 465.922 981.149 466.833 980.465 467.904L974.262 476.928H981.935ZM1008.32 473.219C1008.32 477.56 1007.62 480.784 1006.22 482.892C1004.83 485 1002.7 486.054 999.828 486.054C997.048 486.054 994.94 484.966 993.505 482.79C992.069 480.613 991.352 477.423 991.352 473.219C991.352 468.81 992.047 465.563 993.437 463.478C994.838 461.382 996.968 460.333 999.828 460.333C1002.62 460.333 1004.73 461.427 1006.17 463.615C1007.6 465.802 1008.32 469.004 1008.32 473.219ZM995.419 473.219C995.419 476.626 995.766 479.058 996.461 480.517C997.168 481.975 998.29 482.704 999.828 482.704C1001.37 482.704 1002.49 481.964 1003.19 480.482C1003.91 479.001 1004.27 476.58 1004.27 473.219C1004.27 469.87 1003.91 467.449 1003.19 465.956C1002.49 464.452 1001.37 463.7 999.828 463.7C998.29 463.7 997.168 464.435 996.461 465.905C995.766 467.375 995.419 469.813 995.419 473.219ZM1028.32 473.219C1028.32 477.56 1027.62 480.784 1026.21 482.892C1024.82 485 1022.69 486.054 1019.82 486.054C1017.04 486.054 1014.94 484.966 1013.5 482.79C1012.06 480.613 1011.35 477.423 1011.35 473.219C1011.35 468.81 1012.04 465.563 1013.43 463.478C1014.83 461.382 1016.96 460.333 1019.82 460.333C1022.61 460.333 1024.73 461.427 1026.16 463.615C1027.6 465.802 1028.32 469.004 1028.32 473.219ZM1015.41 473.219C1015.41 476.626 1015.76 479.058 1016.46 480.517C1017.16 481.975 1018.29 482.704 1019.82 482.704C1021.36 482.704 1022.48 481.964 1023.19 480.482C1023.91 479.001 1024.27 476.58 1024.27 473.219C1024.27 469.87 1023.91 467.449 1023.19 465.956C1022.48 464.452 1021.36 463.7 1019.82 463.7C1018.29 463.7 1017.16 464.435 1016.46 465.905C1015.76 467.375 1015.41 469.813 1015.41 473.219Z" fill="black" fill-opacity="0.6"/>
<g filter="url(#filter2_d_456_12426)">
<rect x="57" y="182" width="681" height="508" rx="6" fill="white"/>
</g>
<line x1="98.3032" y1="322.87" x2="680.973" y2="322.87" stroke="#E9ECEF" stroke-dasharray="2 3"/>
<line x1="98.3032" y1="423.261" x2="680.973" y2="423.261" stroke="#E9ECEF" stroke-dasharray="2 3"/>
<line x1="98.3032" y1="523.652" x2="680.973" y2="523.652" stroke="#E9ECEF" stroke-dasharray="2 3"/>
<rect x="151.954" y="422.699" width="43.4627" height="231.787" rx="5" fill="#5E72E4"/>
<rect x="391.748" y="357.322" width="43.4627" height="297.163" rx="5" fill="#5E72E4"/>
<rect x="637.537" y="473.216" width="43.4627" height="181.269" rx="5" fill="#5E72E4"/>
<rect x="98" y="320.178" width="43.4627" height="334.308" rx="5" fill="#37D5F2"/>
<rect x="337.794" y="251.83" width="43.4627" height="402.656" rx="5" fill="#37D5F2"/>
<rect x="583.584" y="234" width="43.4627" height="420.486" rx="5" fill="#37D5F2"/>
<g filter="url(#filter3_d_456_12426)">
<rect x="57" y="38" width="244" height="125" rx="6" fill="white"/>
</g>
<path d="M176.111 73.0889H174.594V65.1099H171.865V63.8086H178.841V65.1099H176.111V73.0889ZM186.026 73.0889L185.1 70.5117H181.551L180.644 73.0889H179.044L182.516 63.7705H184.167L187.639 73.0889H186.026ZM184.7 69.2041L183.83 66.6777C183.767 66.5085 183.678 66.2419 183.563 65.8779C183.453 65.514 183.377 65.2474 183.335 65.0781C183.221 65.5986 183.054 66.1678 182.833 66.7856L181.996 69.2041H184.7ZM195.7 73.0889H193.955L191.631 69.293L189.289 73.0889H187.664L190.743 68.2773L187.861 63.8086H189.549L191.695 67.3188L193.84 63.8086H195.478L192.577 68.3027L195.7 73.0889ZM206.472 66.6143C206.472 67.5833 206.155 68.326 205.52 68.8423C204.885 69.3586 203.982 69.6167 202.81 69.6167H201.845V73.0889H200.328V63.8086H203C204.16 63.8086 205.027 64.0456 205.603 64.5195C206.182 64.9935 206.472 65.6917 206.472 66.6143ZM201.845 68.3408H202.651C203.43 68.3408 204.001 68.2054 204.365 67.9346C204.729 67.6637 204.911 67.2406 204.911 66.665C204.911 66.1318 204.748 65.734 204.422 65.4717C204.096 65.2093 203.588 65.0781 202.898 65.0781H201.845V68.3408ZM214.083 73.0889L213.156 70.5117H209.608L208.7 73.0889H207.101L210.573 63.7705H212.223L215.695 73.0889H214.083ZM212.756 69.2041L211.887 66.6777C211.823 66.5085 211.734 66.2419 211.62 65.8779C211.51 65.514 211.434 65.2474 211.392 65.0781C211.277 65.5986 211.11 66.1678 210.89 66.7856L210.052 69.2041H212.756ZM216.92 73.0889V63.8086H218.438V73.0889H216.92ZM228.441 68.3599C228.441 69.8918 228.016 71.064 227.166 71.8765C226.315 72.6847 225.09 73.0889 223.49 73.0889H220.894V63.8086H223.763C225.24 63.8086 226.389 64.2064 227.21 65.002C228.031 65.7975 228.441 66.9168 228.441 68.3599ZM226.842 68.4106C226.842 66.189 225.803 65.0781 223.725 65.0781H222.411V71.813H223.49C225.725 71.813 226.842 70.6789 226.842 68.4106Z" fill="#8898AA"/>
<path d="M179.298 100.861H177.003V91.6421C177.003 90.5418 177.029 89.6694 177.081 89.0249C176.931 89.1812 176.746 89.3537 176.524 89.5425C176.31 89.7313 175.58 90.3302 174.337 91.3394L173.185 89.8843L177.384 86.5835H179.298V100.861ZM193.663 93.7222C193.663 96.2026 193.263 98.0451 192.462 99.2495C191.668 100.454 190.45 101.056 188.81 101.056C187.221 101.056 186.017 100.434 185.196 99.1909C184.376 97.9474 183.966 96.1245 183.966 93.7222C183.966 91.2026 184.363 89.3472 185.157 88.1558C185.958 86.9578 187.175 86.3589 188.81 86.3589C190.405 86.3589 191.612 86.9839 192.433 88.2339C193.253 89.4839 193.663 91.3133 193.663 93.7222ZM186.29 93.7222C186.29 95.6688 186.489 97.0588 186.886 97.8921C187.289 98.7254 187.931 99.1421 188.81 99.1421C189.688 99.1421 190.33 98.7189 190.733 97.8726C191.144 97.0262 191.349 95.6427 191.349 93.7222C191.349 91.8081 191.144 90.4246 190.733 89.5718C190.33 88.7124 189.688 88.2827 188.81 88.2827C187.931 88.2827 187.289 88.7026 186.886 89.5425C186.489 90.3823 186.29 91.7756 186.29 93.7222ZM198.556 98.7612C198.243 99.9722 197.67 101.531 196.837 103.439H195.147C195.597 101.681 195.932 100.047 196.153 98.5366H198.409L198.556 98.7612ZM205.587 86.3979C206.941 86.3979 208.012 86.7104 208.8 87.3354C209.588 87.9539 209.981 88.784 209.981 89.8257C209.981 91.2905 209.103 92.4559 207.345 93.3218C208.465 93.8817 209.259 94.4709 209.728 95.0894C210.203 95.7078 210.44 96.3979 210.44 97.1597C210.44 98.3381 210.007 99.2821 209.142 99.9917C208.276 100.701 207.104 101.056 205.626 101.056C204.076 101.056 202.875 100.724 202.022 100.06C201.17 99.396 200.743 98.4552 200.743 97.2378C200.743 96.4435 200.965 95.7306 201.407 95.0991C201.856 94.4611 202.589 93.8947 203.604 93.3999C202.732 92.8791 202.11 92.3289 201.739 91.7495C201.368 91.1701 201.183 90.519 201.183 89.7964C201.183 88.7612 201.59 87.9377 202.403 87.3257C203.217 86.7072 204.278 86.3979 205.587 86.3979ZM202.94 97.1597C202.94 97.8368 203.178 98.3641 203.653 98.7417C204.129 99.1128 204.773 99.2983 205.587 99.2983C206.427 99.2983 207.078 99.1063 207.54 98.7222C208.009 98.3315 208.243 97.8042 208.243 97.1401C208.243 96.6128 208.028 96.131 207.599 95.6948C207.169 95.2586 206.518 94.855 205.646 94.4839L205.362 94.3569C204.503 94.7345 203.884 95.1512 203.507 95.6069C203.129 96.0562 202.94 96.5737 202.94 97.1597ZM205.567 88.1655C204.916 88.1655 204.392 88.3283 203.995 88.6538C203.598 88.9728 203.399 89.409 203.399 89.9624C203.399 90.3009 203.471 90.6037 203.614 90.8706C203.757 91.1375 203.966 91.3817 204.239 91.603C204.513 91.8179 204.975 92.0783 205.626 92.3843C206.407 92.0392 206.957 91.6779 207.276 91.3003C207.602 90.9162 207.765 90.4702 207.765 89.9624C207.765 89.409 207.563 88.9728 207.159 88.6538C206.762 88.3283 206.231 88.1655 205.567 88.1655ZM221.847 92.6772C221.847 95.4897 221.28 97.5894 220.147 98.9761C219.015 100.363 217.309 101.056 215.03 101.056C214.164 101.056 213.543 101.004 213.165 100.9V98.9761C213.744 99.1388 214.327 99.2202 214.913 99.2202C216.463 99.2202 217.618 98.8035 218.38 97.9702C219.142 97.1369 219.558 95.8283 219.63 94.0444H219.513C219.129 94.6304 218.663 95.0535 218.116 95.314C217.576 95.5744 216.941 95.7046 216.212 95.7046C214.949 95.7046 213.956 95.3107 213.233 94.5229C212.511 93.7352 212.149 92.6545 212.149 91.2808C212.149 89.7899 212.566 88.605 213.399 87.7261C214.239 86.8407 215.382 86.3979 216.827 86.3979C217.843 86.3979 218.728 86.6453 219.483 87.1401C220.239 87.6349 220.821 88.3543 221.231 89.2983C221.642 90.2358 221.847 91.3621 221.847 92.6772ZM216.866 88.3022C216.072 88.3022 215.463 88.5627 215.04 89.0835C214.617 89.5978 214.405 90.3237 214.405 91.2612C214.405 92.075 214.601 92.7163 214.991 93.1851C215.388 93.6473 215.987 93.8784 216.788 93.8784C217.563 93.8784 218.214 93.6473 218.741 93.1851C219.269 92.7228 219.532 92.1825 219.532 91.564C219.532 90.9845 219.418 90.4442 219.19 89.9429C218.969 89.4351 218.657 89.0347 218.253 88.7417C217.849 88.4487 217.387 88.3022 216.866 88.3022ZM225.235 100.861L230.88 88.6245H223.458V86.603H233.331V88.2046L227.716 100.861H225.235Z" fill="#32325D"/>
<circle cx="107" cy="83" r="25" fill="url(#paint0_linear_456_12426)"/>
<path d="M102.404 138.098C102.404 137.833 102.295 137.575 102.115 137.387L97.0293 132.301C96.8418 132.114 96.584 132.012 96.3184 132.012C96.0527 132.012 95.7949 132.114 95.6152 132.301L90.5293 137.387C90.3418 137.575 90.2324 137.833 90.2324 138.098C90.2324 138.364 90.3418 138.614 90.5293 138.801L91.1152 139.387C91.2949 139.575 91.5527 139.684 91.8184 139.684C92.084 139.684 92.3418 139.575 92.5215 139.387L94.8184 137.098V142.598C94.8184 143.161 95.2871 143.512 95.8184 143.512H96.8184C97.3496 143.512 97.8184 143.161 97.8184 142.598V137.098L100.115 139.387C100.295 139.575 100.553 139.684 100.818 139.684C101.084 139.684 101.342 139.575 101.529 139.387L102.115 138.801C102.295 138.614 102.404 138.364 102.404 138.098Z" fill="#233DD3"/>
<path d="M113.701 134.995C113.701 135.614 113.505 136.136 113.113 136.56C112.725 136.984 112.204 137.255 111.547 137.374V137.415C112.349 137.515 112.96 137.77 113.379 138.18C113.799 138.59 114.008 139.142 114.008 139.834C114.008 140.769 113.689 141.493 113.051 142.008C112.418 142.519 111.504 142.774 110.31 142.774C109.294 142.774 108.407 142.585 107.651 142.207V141.53C108.034 141.73 108.462 141.888 108.936 142.001C109.415 142.115 109.863 142.172 110.283 142.172C111.29 142.172 112.046 141.97 112.552 141.564C113.058 141.154 113.311 140.577 113.311 139.834C113.311 139.174 113.051 138.666 112.532 138.31C112.017 137.955 111.258 137.777 110.255 137.777H109.175V137.121H110.269C111.098 137.121 111.755 136.925 112.238 136.533C112.725 136.136 112.969 135.601 112.969 134.926C112.969 134.37 112.771 133.926 112.375 133.593C111.983 133.256 111.468 133.087 110.83 133.087C110.333 133.087 109.879 133.158 109.469 133.299C109.059 133.436 108.599 133.673 108.088 134.01L107.753 133.552C108.141 133.229 108.608 132.973 109.155 132.787C109.702 132.595 110.255 132.5 110.816 132.5C111.736 132.5 112.447 132.718 112.949 133.156C113.45 133.589 113.701 134.202 113.701 134.995ZM116.114 142.104C116.114 141.657 116.296 141.434 116.661 141.434C117.034 141.434 117.221 141.657 117.221 142.104C117.221 142.551 117.034 142.774 116.661 142.774C116.296 142.774 116.114 142.551 116.114 142.104ZM126.142 140.087H124.419V142.637H123.777V140.087H118.636V139.629L123.592 132.588H124.419V139.5H126.142V140.087ZM123.777 139.5V136.642C123.777 135.266 123.809 134.111 123.873 133.176H123.818C123.727 133.345 123.446 133.773 122.977 134.461L119.45 139.5H123.777ZM130.319 132.472C131.167 132.472 131.848 132.689 132.363 133.122C132.882 133.555 133.142 134.14 133.142 134.878C133.142 135.389 132.98 135.84 132.657 136.232C132.338 136.624 131.818 136.986 131.098 137.319C131.973 137.679 132.588 138.073 132.944 138.501C133.299 138.93 133.477 139.449 133.477 140.06C133.477 140.885 133.188 141.543 132.609 142.036C132.035 142.528 131.262 142.774 130.292 142.774C129.284 142.774 128.512 142.544 127.974 142.083C127.436 141.623 127.167 140.953 127.167 140.074C127.167 139.477 127.357 138.953 127.735 138.501C128.113 138.05 128.699 137.665 129.492 137.346C128.758 137 128.241 136.635 127.94 136.252C127.639 135.865 127.489 135.403 127.489 134.865C127.489 134.386 127.61 133.967 127.851 133.607C128.093 133.242 128.43 132.962 128.863 132.766C129.3 132.57 129.786 132.472 130.319 132.472ZM127.865 140.176C127.865 140.805 128.077 141.293 128.5 141.639C128.929 141.986 129.526 142.159 130.292 142.159C131.039 142.159 131.64 141.976 132.096 141.612C132.552 141.243 132.78 140.744 132.78 140.115C132.78 139.55 132.6 139.092 132.24 138.741C131.884 138.385 131.196 138.014 130.175 137.626C129.337 137.95 128.742 138.308 128.391 138.7C128.04 139.092 127.865 139.584 127.865 140.176ZM130.305 133.087C129.663 133.087 129.145 133.247 128.753 133.566C128.366 133.88 128.172 134.313 128.172 134.865C128.172 135.184 128.243 135.466 128.384 135.712C128.53 135.954 128.737 136.175 129.006 136.375C129.28 136.571 129.736 136.802 130.374 137.066C131.116 136.779 131.65 136.462 131.973 136.116C132.297 135.769 132.458 135.352 132.458 134.865C132.458 134.318 132.265 133.885 131.877 133.566C131.495 133.247 130.971 133.087 130.305 133.087ZM135.781 135.624C135.781 136.471 135.883 137.109 136.088 137.538C136.293 137.961 136.615 138.173 137.052 138.173C137.932 138.173 138.372 137.323 138.372 135.624C138.372 134.785 138.258 134.156 138.03 133.737C137.806 133.313 137.481 133.101 137.052 133.101C136.615 133.101 136.293 133.313 136.088 133.737C135.883 134.156 135.781 134.785 135.781 135.624ZM139.042 135.624C139.042 136.653 138.871 137.437 138.529 137.975C138.187 138.508 137.695 138.775 137.052 138.775C136.446 138.775 135.97 138.501 135.624 137.955C135.282 137.403 135.111 136.626 135.111 135.624C135.111 134.607 135.275 133.833 135.603 133.299C135.931 132.766 136.414 132.5 137.052 132.5C137.686 132.5 138.176 132.775 138.522 133.327C138.868 133.874 139.042 134.639 139.042 135.624ZM141.605 139.643C141.605 140.486 141.708 141.12 141.913 141.543C142.118 141.963 142.439 142.172 142.876 142.172C143.756 142.172 144.196 141.329 144.196 139.643C144.196 137.961 143.756 137.121 142.876 137.121C142.439 137.121 142.118 137.33 141.913 137.75C141.708 138.164 141.605 138.795 141.605 139.643ZM144.866 139.643C144.866 140.673 144.697 141.457 144.36 141.995C144.023 142.528 143.533 142.794 142.89 142.794C142.27 142.794 141.79 142.519 141.448 141.967C141.106 141.411 140.935 140.637 140.935 139.643C140.935 138.618 141.101 137.841 141.434 137.312C141.771 136.783 142.257 136.519 142.89 136.519C143.514 136.519 144 136.792 144.346 137.339C144.693 137.886 144.866 138.654 144.866 139.643ZM143.088 132.643L137.544 142.637H136.888L142.432 132.643H143.088Z" fill="#233DD3"/>
<path d="M165.932 140.423C165.932 141.257 165.624 141.918 165.009 142.405C164.398 142.893 163.585 143.137 162.568 143.137C161.347 143.137 160.41 143.002 159.759 142.733V142.036C160.479 142.341 161.397 142.494 162.514 142.494C163.334 142.494 163.983 142.307 164.462 141.934C164.945 141.555 165.187 141.061 165.187 140.45C165.187 140.072 165.107 139.76 164.947 139.514C164.788 139.263 164.528 139.035 164.168 138.83C163.808 138.625 163.279 138.404 162.582 138.167C161.561 137.816 160.855 137.438 160.463 137.032C160.076 136.622 159.882 136.077 159.882 135.398C159.882 134.651 160.174 134.043 160.757 133.573C161.345 133.099 162.099 132.862 163.02 132.862C163.958 132.862 164.84 133.04 165.665 133.396L165.412 133.997C164.583 133.651 163.79 133.478 163.033 133.478C162.295 133.478 161.707 133.648 161.27 133.99C160.832 134.332 160.613 134.797 160.613 135.385C160.613 135.754 160.679 136.057 160.812 136.294C160.948 136.531 161.169 136.745 161.475 136.937C161.78 137.123 162.304 137.349 163.047 137.613C163.826 137.882 164.412 138.144 164.804 138.399C165.196 138.65 165.48 138.937 165.658 139.261C165.84 139.58 165.932 139.967 165.932 140.423ZM168.55 143H167.873V135.569H168.55V143ZM167.777 133.505C167.777 133.067 167.921 132.849 168.208 132.849C168.349 132.849 168.459 132.906 168.536 133.02C168.618 133.133 168.659 133.295 168.659 133.505C168.659 133.71 168.618 133.872 168.536 133.99C168.459 134.109 168.349 134.168 168.208 134.168C167.921 134.168 167.777 133.947 167.777 133.505ZM176.227 143V138.181C176.227 137.433 176.069 136.891 175.755 136.554C175.44 136.212 174.953 136.041 174.292 136.041C173.403 136.041 172.752 136.267 172.337 136.718C171.927 137.164 171.722 137.891 171.722 138.898V143H171.045V135.569H171.619L171.749 136.588H171.79C172.273 135.813 173.132 135.426 174.367 135.426C176.053 135.426 176.896 136.33 176.896 138.14V143H176.227ZM182.27 143.137C181.208 143.137 180.376 142.802 179.774 142.132C179.173 141.462 178.872 140.528 178.872 139.329C178.872 138.099 179.184 137.142 179.809 136.458C180.433 135.77 181.287 135.426 182.372 135.426C183.015 135.426 183.63 135.537 184.218 135.761L184.033 136.362C183.391 136.148 182.832 136.041 182.358 136.041C181.447 136.041 180.757 136.324 180.287 136.889C179.818 137.449 179.583 138.258 179.583 139.315C179.583 140.318 179.818 141.104 180.287 141.674C180.757 142.239 181.413 142.521 182.256 142.521C182.93 142.521 183.557 142.401 184.136 142.159V142.788C183.662 143.021 183.04 143.137 182.27 143.137ZM188.962 143.137C187.882 143.137 187.039 142.804 186.433 142.139C185.831 141.473 185.53 140.541 185.53 139.343C185.53 138.158 185.822 137.21 186.405 136.499C186.989 135.784 187.775 135.426 188.764 135.426C189.639 135.426 190.329 135.731 190.835 136.342C191.341 136.952 191.594 137.782 191.594 138.83V139.377H186.241C186.25 140.398 186.487 141.177 186.952 141.715C187.422 142.253 188.091 142.521 188.962 142.521C189.386 142.521 189.757 142.492 190.076 142.433C190.4 142.373 190.808 142.246 191.3 142.05V142.665C190.881 142.847 190.493 142.97 190.138 143.034C189.782 143.103 189.39 143.137 188.962 143.137ZM188.764 136.027C188.048 136.027 187.474 136.264 187.041 136.738C186.608 137.208 186.355 137.887 186.282 138.775H190.876C190.876 137.914 190.689 137.242 190.315 136.759C189.942 136.271 189.424 136.027 188.764 136.027ZM197.958 143H197.281V132.363H197.958V143ZM204.965 143L204.794 141.824H204.739C204.366 142.303 203.98 142.642 203.584 142.843C203.192 143.039 202.727 143.137 202.189 143.137C201.46 143.137 200.893 142.95 200.487 142.576C200.082 142.202 199.879 141.685 199.879 141.024C199.879 140.3 200.18 139.737 200.781 139.336C201.387 138.935 202.262 138.723 203.406 138.7L204.821 138.659V138.167C204.821 137.461 204.678 136.927 204.391 136.567C204.104 136.207 203.641 136.027 203.003 136.027C202.315 136.027 201.602 136.219 200.863 136.602L200.61 136.014C201.426 135.631 202.233 135.439 203.03 135.439C203.846 135.439 204.454 135.651 204.855 136.075C205.261 136.499 205.464 137.16 205.464 138.058V143H204.965ZM202.23 142.521C203.023 142.521 203.648 142.296 204.104 141.845C204.564 141.389 204.794 140.758 204.794 139.951V139.22L203.495 139.274C202.451 139.325 201.706 139.489 201.26 139.767C200.818 140.04 200.597 140.468 200.597 141.052C200.597 141.517 200.738 141.879 201.021 142.139C201.308 142.394 201.711 142.521 202.23 142.521ZM212.484 141.065C212.484 141.731 212.231 142.243 211.726 142.604C211.22 142.959 210.502 143.137 209.572 143.137C208.579 143.137 207.79 142.984 207.207 142.679V141.947C207.954 142.321 208.743 142.508 209.572 142.508C210.306 142.508 210.862 142.387 211.24 142.146C211.623 141.899 211.814 141.574 211.814 141.168C211.814 140.794 211.662 140.48 211.356 140.225C211.056 139.969 210.559 139.719 209.866 139.473C209.123 139.204 208.602 138.974 208.301 138.782C208 138.586 207.772 138.368 207.617 138.126C207.467 137.88 207.392 137.581 207.392 137.23C207.392 136.674 207.624 136.235 208.089 135.911C208.558 135.588 209.212 135.426 210.051 135.426C210.853 135.426 211.614 135.576 212.334 135.877L212.081 136.492C211.352 136.191 210.675 136.041 210.051 136.041C209.445 136.041 208.964 136.141 208.608 136.342C208.253 136.542 208.075 136.82 208.075 137.176C208.075 137.563 208.212 137.873 208.485 138.105C208.763 138.338 209.303 138.598 210.105 138.885C210.775 139.126 211.263 139.345 211.568 139.541C211.874 139.732 212.102 139.951 212.252 140.197C212.407 140.443 212.484 140.733 212.484 141.065ZM216.36 142.535C216.789 142.535 217.162 142.499 217.481 142.426V142.973C217.153 143.082 216.775 143.137 216.347 143.137C215.69 143.137 215.205 142.961 214.891 142.61C214.581 142.259 214.426 141.708 214.426 140.956V136.157H213.325V135.761L214.426 135.453L214.768 133.771H215.116V135.569H217.297V136.157H215.116V140.86C215.116 141.43 215.216 141.852 215.417 142.125C215.618 142.398 215.932 142.535 216.36 142.535ZM221.48 135.569H222.178L223.75 139.739C224.229 141.02 224.532 141.883 224.659 142.33H224.7C224.892 141.742 225.204 140.865 225.637 139.698L227.209 135.569H227.906L224.577 144.203C224.308 144.905 224.083 145.379 223.9 145.625C223.718 145.871 223.504 146.056 223.258 146.179C223.016 146.302 222.722 146.363 222.376 146.363C222.116 146.363 221.827 146.315 221.508 146.22V145.632C221.772 145.705 222.057 145.741 222.362 145.741C222.595 145.741 222.8 145.687 222.978 145.577C223.155 145.468 223.315 145.297 223.456 145.064C223.602 144.837 223.768 144.472 223.955 143.971C224.146 143.474 224.27 143.15 224.324 143L221.48 135.569ZM232.151 143.137C231.071 143.137 230.228 142.804 229.622 142.139C229.021 141.473 228.72 140.541 228.72 139.343C228.72 138.158 229.011 137.21 229.595 136.499C230.178 135.784 230.964 135.426 231.953 135.426C232.828 135.426 233.519 135.731 234.024 136.342C234.53 136.952 234.783 137.782 234.783 138.83V139.377H229.431C229.44 140.398 229.677 141.177 230.142 141.715C230.611 142.253 231.281 142.521 232.151 142.521C232.575 142.521 232.947 142.492 233.266 142.433C233.589 142.373 233.997 142.246 234.489 142.05V142.665C234.07 142.847 233.683 142.97 233.327 143.034C232.972 143.103 232.58 143.137 232.151 143.137ZM231.953 136.027C231.238 136.027 230.663 136.264 230.23 136.738C229.798 137.208 229.545 137.887 229.472 138.775H234.065C234.065 137.914 233.879 137.242 233.505 136.759C233.131 136.271 232.614 136.027 231.953 136.027ZM241.346 143L241.175 141.824H241.12C240.746 142.303 240.361 142.642 239.965 142.843C239.573 143.039 239.108 143.137 238.57 143.137C237.841 143.137 237.274 142.95 236.868 142.576C236.463 142.202 236.26 141.685 236.26 141.024C236.26 140.3 236.561 139.737 237.162 139.336C237.768 138.935 238.643 138.723 239.787 138.7L241.202 138.659V138.167C241.202 137.461 241.059 136.927 240.771 136.567C240.484 136.207 240.022 136.027 239.384 136.027C238.696 136.027 237.982 136.219 237.244 136.602L236.991 136.014C237.807 135.631 238.614 135.439 239.411 135.439C240.227 135.439 240.835 135.651 241.236 136.075C241.642 136.499 241.845 137.16 241.845 138.058V143H241.346ZM238.611 142.521C239.404 142.521 240.029 142.296 240.484 141.845C240.945 141.389 241.175 140.758 241.175 139.951V139.22L239.876 139.274C238.832 139.325 238.087 139.489 237.641 139.767C237.199 140.04 236.978 140.468 236.978 141.052C236.978 141.517 237.119 141.879 237.401 142.139C237.688 142.394 238.092 142.521 238.611 142.521ZM247.184 135.426C247.498 135.426 247.835 135.458 248.195 135.521L248.065 136.171C247.756 136.093 247.434 136.055 247.102 136.055C246.468 136.055 245.949 136.324 245.543 136.861C245.137 137.399 244.935 138.078 244.935 138.898V143H244.258V135.569H244.832L244.9 136.909H244.948C245.254 136.362 245.579 135.979 245.926 135.761C246.272 135.537 246.691 135.426 247.184 135.426Z" fill="#172B4D"/>
<path d="M106.707 93.6206C106.8 93.682 106.924 93.7162 107.053 93.7161C107.181 93.7159 107.305 93.6815 107.398 93.6198L116.879 86.9933C116.971 86.9293 117.022 86.8426 117.022 86.7522C117.022 86.6619 116.97 86.5753 116.879 86.5114L115.496 85.5491C115.404 85.4853 115.28 85.4496 115.15 85.4497C115.021 85.4499 114.896 85.4859 114.805 85.5499L108.515 89.9456L108.499 73.6117C108.499 73.5213 108.447 73.4347 108.356 73.3708C108.264 73.307 108.14 73.2713 108.01 73.2714L106.055 73.2734C105.926 73.2736 105.801 73.3096 105.71 73.3736C105.618 73.4376 105.567 73.5244 105.567 73.6148L105.583 89.9487L99.2847 85.5662C99.193 85.5024 99.0687 85.4666 98.9391 85.4668C98.8095 85.4669 98.6853 85.5029 98.5937 85.5669L97.2126 86.5321C97.121 86.5962 97.0696 86.6829 97.0697 86.7732C97.0698 86.8636 97.1214 86.9502 97.213 87.014L106.707 93.6206Z" fill="white"/>
<g filter="url(#filter4_d_456_12426)">
<rect x="360" y="35" width="244" height="125" rx="6" fill="white"/>
</g>
<path d="M487.111 71.1274H485.594V63.1484H482.865V61.8472H489.841V63.1484H487.111V71.1274ZM497.026 71.1274L496.1 68.5503H492.551L491.644 71.1274H490.044L493.516 61.8091H495.167L498.639 71.1274H497.026ZM495.7 67.2427L494.83 64.7163C494.767 64.547 494.678 64.2804 494.563 63.9165C494.453 63.5526 494.377 63.286 494.335 63.1167C494.221 63.6372 494.054 64.2064 493.833 64.8242L492.996 67.2427H495.7ZM506.7 71.1274H504.955L502.631 67.3315L500.289 71.1274H498.664L501.743 66.3159L498.861 61.8472H500.549L502.695 65.3574L504.84 61.8472H506.478L503.577 66.3413L506.7 71.1274ZM518.875 66.3984C518.875 67.9303 518.45 69.1025 517.599 69.915C516.749 70.7233 515.523 71.1274 513.924 71.1274H511.328V61.8472H514.197C515.674 61.8472 516.823 62.245 517.644 63.0405C518.465 63.8361 518.875 64.9554 518.875 66.3984ZM517.275 66.4492C517.275 64.2275 516.236 63.1167 514.159 63.1167H512.845V69.8516H513.924C516.158 69.8516 517.275 68.7174 517.275 66.4492ZM526.124 71.1274H520.875V61.8472H526.124V63.1294H522.392V65.6558H525.889V66.9253H522.392V69.8389H526.124V71.1274ZM535.684 66.3984C535.684 67.9303 535.258 69.1025 534.408 69.915C533.557 70.7233 532.332 71.1274 530.732 71.1274H528.136V61.8472H531.005C532.482 61.8472 533.631 62.245 534.452 63.0405C535.273 63.8361 535.684 64.9554 535.684 66.3984ZM534.084 66.4492C534.084 64.2275 533.045 63.1167 530.967 63.1167H529.653V69.8516H530.732C532.967 69.8516 534.084 68.7174 534.084 66.4492ZM544.958 61.8472V67.8521C544.958 68.5376 544.809 69.1385 544.513 69.6548C544.221 70.1668 543.796 70.5625 543.237 70.8418C542.683 71.1169 542.019 71.2544 541.244 71.2544C540.093 71.2544 539.198 70.9497 538.559 70.3403C537.92 69.731 537.601 68.8931 537.601 67.8267V61.8472H539.124V67.7188C539.124 68.4847 539.302 69.0496 539.657 69.4136C540.013 69.7775 540.559 69.9595 541.295 69.9595C542.725 69.9595 543.44 69.2083 543.44 67.7061V61.8472H544.958ZM551.28 63.0151C550.408 63.0151 549.722 63.3241 549.223 63.9419C548.724 64.5597 548.474 65.4124 548.474 66.5C548.474 67.6383 548.713 68.4995 549.191 69.0835C549.674 69.6675 550.37 69.9595 551.28 69.9595C551.673 69.9595 552.054 69.9214 552.422 69.8452C552.791 69.7648 553.174 69.6632 553.571 69.5405V70.8418C552.843 71.1169 552.018 71.2544 551.096 71.2544C549.737 71.2544 548.694 70.8439 547.966 70.0229C547.238 69.1978 546.875 68.0192 546.875 66.4873C546.875 65.5225 547.05 64.6782 547.401 63.9546C547.757 63.231 548.269 62.6766 548.938 62.2915C549.606 61.9064 550.391 61.7139 551.292 61.7139C552.24 61.7139 553.116 61.9128 553.92 62.3105L553.375 63.5737C553.061 63.4256 552.729 63.2965 552.378 63.1865C552.031 63.0723 551.665 63.0151 551.28 63.0151ZM558.776 71.1274H557.259V63.1484H554.53V61.8472H561.506V63.1484H558.776V71.1274ZM562.934 71.1274V61.8472H564.451V71.1274H562.934ZM575.147 66.4746C575.147 67.9854 574.768 69.1597 574.011 69.9976C573.257 70.8354 572.189 71.2544 570.805 71.2544C569.404 71.2544 568.327 70.8397 567.574 70.0103C566.825 69.1766 566.451 67.9938 566.451 66.4619C566.451 64.93 566.827 63.7536 567.581 62.9326C568.338 62.1117 569.417 61.7012 570.818 61.7012C572.197 61.7012 573.264 62.118 574.017 62.9517C574.77 63.7853 575.147 64.9596 575.147 66.4746ZM568.063 66.4746C568.063 67.6172 568.294 68.4847 568.755 69.0771C569.216 69.6654 569.9 69.9595 570.805 69.9595C571.707 69.9595 572.386 69.6675 572.843 69.0835C573.304 68.4995 573.535 67.6299 573.535 66.4746C573.535 65.3363 573.306 64.473 572.849 63.8848C572.396 63.2965 571.719 63.0024 570.818 63.0024C569.908 63.0024 569.22 63.2965 568.755 63.8848C568.294 64.473 568.063 65.3363 568.063 66.4746ZM584.872 71.1274H583.012L578.448 63.7324H578.397L578.429 64.145C578.488 64.9321 578.518 65.6515 578.518 66.3032V71.1274H577.14V61.8472H578.981L583.532 69.2041H583.57C583.562 69.1068 583.545 68.7534 583.52 68.144C583.494 67.5304 583.481 67.0522 583.481 66.7095V61.8472H584.872V71.1274Z" fill="#8898AA"/>
<path d="M493.745 95.7842H491.821V98.8994H489.585V95.7842H483.062V94.0166L489.585 84.583H491.821V93.8799H493.745V95.7842ZM489.585 93.8799V90.2959C489.585 89.0199 489.618 87.9749 489.683 87.1611H489.604C489.422 87.5908 489.136 88.1117 488.745 88.7236L485.2 93.8799H489.585ZM498.13 96.7998C497.817 98.0107 497.244 99.57 496.411 101.478H494.722C495.171 99.7197 495.506 98.0856 495.728 96.5752H497.983L498.13 96.7998ZM510.015 91.7607C510.015 94.2412 509.614 96.0837 508.813 97.2881C508.019 98.4925 506.802 99.0947 505.161 99.0947C503.573 99.0947 502.368 98.473 501.548 97.2295C500.728 95.986 500.317 94.1631 500.317 91.7607C500.317 89.2412 500.715 87.3857 501.509 86.1943C502.31 84.9964 503.527 84.3975 505.161 84.3975C506.756 84.3975 507.964 85.0225 508.784 86.2725C509.604 87.5225 510.015 89.3519 510.015 91.7607ZM502.642 91.7607C502.642 93.7074 502.84 95.0973 503.237 95.9307C503.641 96.764 504.282 97.1807 505.161 97.1807C506.04 97.1807 506.681 96.7575 507.085 95.9111C507.495 95.0648 507.7 93.6813 507.7 91.7607C507.7 89.8467 507.495 88.4632 507.085 87.6104C506.681 86.751 506.04 86.3213 505.161 86.3213C504.282 86.3213 503.641 86.7412 503.237 87.5811C502.84 88.4209 502.642 89.8141 502.642 91.7607ZM521.44 91.7607C521.44 94.2412 521.04 96.0837 520.239 97.2881C519.445 98.4925 518.228 99.0947 516.587 99.0947C514.998 99.0947 513.794 98.473 512.974 97.2295C512.153 95.986 511.743 94.1631 511.743 91.7607C511.743 89.2412 512.14 87.3857 512.935 86.1943C513.735 84.9964 514.953 84.3975 516.587 84.3975C518.182 84.3975 519.39 85.0225 520.21 86.2725C521.03 87.5225 521.44 89.3519 521.44 91.7607ZM514.067 91.7607C514.067 93.7074 514.266 95.0973 514.663 95.9307C515.067 96.764 515.708 97.1807 516.587 97.1807C517.466 97.1807 518.107 96.7575 518.511 95.9111C518.921 95.0648 519.126 93.6813 519.126 91.7607C519.126 89.8467 518.921 88.4632 518.511 87.6104C518.107 86.751 517.466 86.3213 516.587 86.3213C515.708 86.3213 515.067 86.7412 514.663 87.5811C514.266 88.4209 514.067 89.8141 514.067 91.7607ZM532.866 91.7607C532.866 94.2412 532.466 96.0837 531.665 97.2881C530.871 98.4925 529.653 99.0947 528.013 99.0947C526.424 99.0947 525.22 98.473 524.399 97.2295C523.579 95.986 523.169 94.1631 523.169 91.7607C523.169 89.2412 523.566 87.3857 524.36 86.1943C525.161 84.9964 526.379 84.3975 528.013 84.3975C529.608 84.3975 530.815 85.0225 531.636 86.2725C532.456 87.5225 532.866 89.3519 532.866 91.7607ZM525.493 91.7607C525.493 93.7074 525.692 95.0973 526.089 95.9307C526.493 96.764 527.134 97.1807 528.013 97.1807C528.892 97.1807 529.533 96.7575 529.937 95.9111C530.347 95.0648 530.552 93.6813 530.552 91.7607C530.552 89.8467 530.347 88.4632 529.937 87.6104C529.533 86.751 528.892 86.3213 528.013 86.3213C527.134 86.3213 526.493 86.7412 526.089 87.5811C525.692 88.4209 525.493 89.8141 525.493 91.7607Z" fill="#32325D"/>
<circle cx="418" cy="81" r="25" fill="url(#paint1_linear_456_12426)"/>
<path d="M413.404 136.137C413.404 135.871 413.295 135.613 413.115 135.426L408.029 130.34C407.842 130.152 407.584 130.051 407.318 130.051C407.053 130.051 406.795 130.152 406.615 130.34L401.529 135.426C401.342 135.613 401.232 135.871 401.232 136.137C401.232 136.402 401.342 136.652 401.529 136.84L402.115 137.426C402.295 137.613 402.553 137.723 402.818 137.723C403.084 137.723 403.342 137.613 403.521 137.426L405.818 135.137V140.637C405.818 141.199 406.287 141.551 406.818 141.551H407.818C408.35 141.551 408.818 141.199 408.818 140.637V135.137L411.115 137.426C411.295 137.613 411.553 137.723 411.818 137.723C412.084 137.723 412.342 137.613 412.529 137.426L413.115 136.84C413.295 136.652 413.404 136.402 413.404 136.137Z" fill="#233DD3"/>
<path d="M425.036 140.676H418.781V140.074L421.44 137.299C422.187 136.524 422.711 135.932 423.012 135.521C423.313 135.111 423.534 134.719 423.675 134.346C423.817 133.972 423.887 133.58 423.887 133.17C423.887 132.573 423.691 132.088 423.299 131.714C422.907 131.34 422.399 131.153 421.775 131.153C420.941 131.153 420.143 131.456 419.382 132.062L419.013 131.591C419.847 130.889 420.772 130.538 421.789 130.538C422.659 130.538 423.343 130.771 423.839 131.235C424.341 131.7 424.591 132.34 424.591 133.156C424.591 133.817 424.423 134.457 424.085 135.077C423.753 135.692 423.142 136.453 422.253 137.36L419.69 139.992V140.02H425.036V140.676ZM427.114 140.143C427.114 139.696 427.296 139.473 427.661 139.473C428.034 139.473 428.221 139.696 428.221 140.143C428.221 140.589 428.034 140.812 427.661 140.812C427.296 140.812 427.114 140.589 427.114 140.143ZM436.554 135.651C436.554 137.406 436.285 138.705 435.748 139.548C435.214 140.391 434.405 140.812 433.321 140.812C432.277 140.812 431.484 140.38 430.942 139.514C430.4 138.643 430.128 137.356 430.128 135.651C430.128 133.91 430.39 132.621 430.915 131.782C431.443 130.944 432.245 130.524 433.321 130.524C434.374 130.524 435.176 130.96 435.727 131.83C436.278 132.696 436.554 133.97 436.554 135.651ZM430.867 135.651C430.867 137.201 431.069 138.347 431.475 139.09C431.881 139.828 432.496 140.197 433.321 140.197C434.182 140.197 434.809 139.814 435.201 139.049C435.597 138.283 435.795 137.151 435.795 135.651C435.795 134.175 435.597 133.054 435.201 132.288C434.809 131.522 434.182 131.14 433.321 131.14C432.459 131.14 431.835 131.522 431.448 132.288C431.06 133.054 430.867 134.175 430.867 135.651ZM441.319 130.511C442.167 130.511 442.848 130.727 443.363 131.16C443.882 131.593 444.142 132.179 444.142 132.917C444.142 133.427 443.98 133.879 443.657 134.271C443.338 134.662 442.818 135.025 442.098 135.357C442.973 135.717 443.588 136.112 443.944 136.54C444.299 136.968 444.477 137.488 444.477 138.099C444.477 138.924 444.188 139.582 443.609 140.074C443.035 140.566 442.262 140.812 441.292 140.812C440.284 140.812 439.512 140.582 438.974 140.122C438.436 139.662 438.167 138.992 438.167 138.112C438.167 137.515 438.357 136.991 438.735 136.54C439.113 136.089 439.699 135.704 440.492 135.385C439.758 135.038 439.241 134.674 438.94 134.291C438.639 133.904 438.489 133.441 438.489 132.903C438.489 132.425 438.61 132.006 438.851 131.646C439.093 131.281 439.43 131.001 439.863 130.805C440.3 130.609 440.786 130.511 441.319 130.511ZM438.865 138.215C438.865 138.844 439.077 139.331 439.5 139.678C439.929 140.024 440.526 140.197 441.292 140.197C442.039 140.197 442.64 140.015 443.096 139.65C443.552 139.281 443.78 138.782 443.78 138.153C443.78 137.588 443.6 137.13 443.24 136.779C442.884 136.424 442.196 136.052 441.175 135.665C440.337 135.989 439.742 136.346 439.391 136.738C439.04 137.13 438.865 137.622 438.865 138.215ZM441.305 131.126C440.663 131.126 440.145 131.285 439.753 131.604C439.366 131.919 439.172 132.352 439.172 132.903C439.172 133.222 439.243 133.505 439.384 133.751C439.53 133.993 439.737 134.214 440.006 134.414C440.28 134.61 440.736 134.84 441.374 135.104C442.116 134.817 442.65 134.501 442.973 134.154C443.297 133.808 443.458 133.391 443.458 132.903C443.458 132.356 443.265 131.924 442.877 131.604C442.495 131.285 441.971 131.126 441.305 131.126ZM446.781 133.662C446.781 134.51 446.883 135.148 447.088 135.576C447.293 136 447.615 136.212 448.052 136.212C448.932 136.212 449.372 135.362 449.372 133.662C449.372 132.824 449.258 132.195 449.03 131.775C448.806 131.352 448.481 131.14 448.052 131.14C447.615 131.14 447.293 131.352 447.088 131.775C446.883 132.195 446.781 132.824 446.781 133.662ZM450.042 133.662C450.042 134.692 449.871 135.476 449.529 136.014C449.187 136.547 448.695 136.813 448.052 136.813C447.446 136.813 446.97 136.54 446.624 135.993C446.282 135.442 446.111 134.665 446.111 133.662C446.111 132.646 446.275 131.871 446.603 131.338C446.931 130.805 447.414 130.538 448.052 130.538C448.686 130.538 449.176 130.814 449.522 131.365C449.868 131.912 450.042 132.678 450.042 133.662ZM452.605 137.682C452.605 138.525 452.708 139.158 452.913 139.582C453.118 140.001 453.439 140.211 453.876 140.211C454.756 140.211 455.196 139.368 455.196 137.682C455.196 136 454.756 135.159 453.876 135.159C453.439 135.159 453.118 135.369 452.913 135.788C452.708 136.203 452.605 136.834 452.605 137.682ZM455.866 137.682C455.866 138.712 455.697 139.495 455.36 140.033C455.023 140.566 454.533 140.833 453.89 140.833C453.27 140.833 452.79 140.557 452.448 140.006C452.106 139.45 451.935 138.675 451.935 137.682C451.935 136.656 452.101 135.879 452.434 135.351C452.771 134.822 453.257 134.558 453.89 134.558C454.514 134.558 455 134.831 455.346 135.378C455.693 135.925 455.866 136.693 455.866 137.682ZM454.088 130.682L448.544 140.676H447.888L453.432 130.682H454.088Z" fill="#233DD3"/>
<path d="M476.932 138.423C476.932 139.257 476.624 139.918 476.009 140.405C475.398 140.893 474.585 141.137 473.568 141.137C472.347 141.137 471.41 141.002 470.759 140.733V140.036C471.479 140.341 472.397 140.494 473.514 140.494C474.334 140.494 474.983 140.307 475.462 139.934C475.945 139.555 476.187 139.061 476.187 138.45C476.187 138.072 476.107 137.76 475.947 137.514C475.788 137.263 475.528 137.035 475.168 136.83C474.808 136.625 474.279 136.404 473.582 136.167C472.561 135.816 471.855 135.438 471.463 135.032C471.076 134.622 470.882 134.077 470.882 133.398C470.882 132.651 471.174 132.043 471.757 131.573C472.345 131.099 473.099 130.862 474.02 130.862C474.958 130.862 475.84 131.04 476.665 131.396L476.412 131.997C475.583 131.651 474.79 131.478 474.033 131.478C473.295 131.478 472.707 131.648 472.27 131.99C471.832 132.332 471.613 132.797 471.613 133.385C471.613 133.754 471.679 134.057 471.812 134.294C471.948 134.531 472.169 134.745 472.475 134.937C472.78 135.123 473.304 135.349 474.047 135.613C474.826 135.882 475.412 136.144 475.804 136.399C476.196 136.65 476.48 136.937 476.658 137.261C476.84 137.58 476.932 137.967 476.932 138.423ZM479.55 141H478.873V133.569H479.55V141ZM478.777 131.505C478.777 131.067 478.921 130.849 479.208 130.849C479.349 130.849 479.459 130.906 479.536 131.02C479.618 131.133 479.659 131.295 479.659 131.505C479.659 131.71 479.618 131.872 479.536 131.99C479.459 132.109 479.349 132.168 479.208 132.168C478.921 132.168 478.777 131.947 478.777 131.505ZM487.227 141V136.181C487.227 135.433 487.069 134.891 486.755 134.554C486.44 134.212 485.953 134.041 485.292 134.041C484.403 134.041 483.752 134.267 483.337 134.718C482.927 135.164 482.722 135.891 482.722 136.898V141H482.045V133.569H482.619L482.749 134.588H482.79C483.273 133.813 484.132 133.426 485.367 133.426C487.053 133.426 487.896 134.33 487.896 136.14V141H487.227ZM493.27 141.137C492.208 141.137 491.376 140.802 490.774 140.132C490.173 139.462 489.872 138.528 489.872 137.329C489.872 136.099 490.184 135.142 490.809 134.458C491.433 133.77 492.287 133.426 493.372 133.426C494.015 133.426 494.63 133.537 495.218 133.761L495.033 134.362C494.391 134.148 493.832 134.041 493.358 134.041C492.447 134.041 491.757 134.324 491.287 134.889C490.818 135.449 490.583 136.258 490.583 137.315C490.583 138.318 490.818 139.104 491.287 139.674C491.757 140.239 492.413 140.521 493.256 140.521C493.93 140.521 494.557 140.401 495.136 140.159V140.788C494.662 141.021 494.04 141.137 493.27 141.137ZM499.962 141.137C498.882 141.137 498.039 140.804 497.433 140.139C496.831 139.473 496.53 138.541 496.53 137.343C496.53 136.158 496.822 135.21 497.405 134.499C497.989 133.784 498.775 133.426 499.764 133.426C500.639 133.426 501.329 133.731 501.835 134.342C502.341 134.952 502.594 135.782 502.594 136.83V137.377H497.241C497.25 138.398 497.487 139.177 497.952 139.715C498.422 140.253 499.091 140.521 499.962 140.521C500.386 140.521 500.757 140.492 501.076 140.433C501.4 140.373 501.808 140.246 502.3 140.05V140.665C501.881 140.847 501.493 140.97 501.138 141.034C500.782 141.103 500.39 141.137 499.962 141.137ZM499.764 134.027C499.048 134.027 498.474 134.264 498.041 134.738C497.608 135.208 497.355 135.887 497.282 136.775H501.876C501.876 135.914 501.689 135.242 501.315 134.759C500.942 134.271 500.424 134.027 499.764 134.027ZM508.958 141H508.281V130.363H508.958V141ZM515.965 141L515.794 139.824H515.739C515.366 140.303 514.98 140.642 514.584 140.843C514.192 141.039 513.727 141.137 513.189 141.137C512.46 141.137 511.893 140.95 511.487 140.576C511.082 140.202 510.879 139.685 510.879 139.024C510.879 138.3 511.18 137.737 511.781 137.336C512.387 136.935 513.262 136.723 514.406 136.7L515.821 136.659V136.167C515.821 135.461 515.678 134.927 515.391 134.567C515.104 134.207 514.641 134.027 514.003 134.027C513.315 134.027 512.602 134.219 511.863 134.602L511.61 134.014C512.426 133.631 513.233 133.439 514.03 133.439C514.846 133.439 515.454 133.651 515.855 134.075C516.261 134.499 516.464 135.16 516.464 136.058V141H515.965ZM513.23 140.521C514.023 140.521 514.648 140.296 515.104 139.845C515.564 139.389 515.794 138.758 515.794 137.951V137.22L514.495 137.274C513.451 137.325 512.706 137.489 512.26 137.767C511.818 138.04 511.597 138.468 511.597 139.052C511.597 139.517 511.738 139.879 512.021 140.139C512.308 140.394 512.711 140.521 513.23 140.521ZM523.484 139.065C523.484 139.731 523.231 140.243 522.726 140.604C522.22 140.959 521.502 141.137 520.572 141.137C519.579 141.137 518.79 140.984 518.207 140.679V139.947C518.954 140.321 519.743 140.508 520.572 140.508C521.306 140.508 521.862 140.387 522.24 140.146C522.623 139.899 522.814 139.574 522.814 139.168C522.814 138.794 522.662 138.48 522.356 138.225C522.056 137.969 521.559 137.719 520.866 137.473C520.123 137.204 519.602 136.974 519.301 136.782C519 136.586 518.772 136.368 518.617 136.126C518.467 135.88 518.392 135.581 518.392 135.23C518.392 134.674 518.624 134.235 519.089 133.911C519.558 133.588 520.212 133.426 521.051 133.426C521.853 133.426 522.614 133.576 523.334 133.877L523.081 134.492C522.352 134.191 521.675 134.041 521.051 134.041C520.445 134.041 519.964 134.141 519.608 134.342C519.253 134.542 519.075 134.82 519.075 135.176C519.075 135.563 519.212 135.873 519.485 136.105C519.763 136.338 520.303 136.598 521.105 136.885C521.775 137.126 522.263 137.345 522.568 137.541C522.874 137.732 523.102 137.951 523.252 138.197C523.407 138.443 523.484 138.733 523.484 139.065ZM527.36 140.535C527.789 140.535 528.162 140.499 528.481 140.426V140.973C528.153 141.082 527.775 141.137 527.347 141.137C526.69 141.137 526.205 140.961 525.891 140.61C525.581 140.259 525.426 139.708 525.426 138.956V134.157H524.325V133.761L525.426 133.453L525.768 131.771H526.116V133.569H528.297V134.157H526.116V138.86C526.116 139.43 526.216 139.852 526.417 140.125C526.618 140.398 526.932 140.535 527.36 140.535ZM532.48 133.569H533.178L534.75 137.739C535.229 139.02 535.532 139.883 535.659 140.33H535.7C535.892 139.742 536.204 138.865 536.637 137.698L538.209 133.569H538.906L535.577 142.203C535.308 142.905 535.083 143.379 534.9 143.625C534.718 143.871 534.504 144.056 534.258 144.179C534.016 144.302 533.722 144.363 533.376 144.363C533.116 144.363 532.827 144.315 532.508 144.22V143.632C532.772 143.705 533.057 143.741 533.362 143.741C533.595 143.741 533.8 143.687 533.978 143.577C534.155 143.468 534.315 143.297 534.456 143.064C534.602 142.837 534.768 142.472 534.955 141.971C535.146 141.474 535.27 141.15 535.324 141L532.48 133.569ZM543.151 141.137C542.071 141.137 541.228 140.804 540.622 140.139C540.021 139.473 539.72 138.541 539.72 137.343C539.72 136.158 540.011 135.21 540.595 134.499C541.178 133.784 541.964 133.426 542.953 133.426C543.828 133.426 544.519 133.731 545.024 134.342C545.53 134.952 545.783 135.782 545.783 136.83V137.377H540.431C540.44 138.398 540.677 139.177 541.142 139.715C541.611 140.253 542.281 140.521 543.151 140.521C543.575 140.521 543.947 140.492 544.266 140.433C544.589 140.373 544.997 140.246 545.489 140.05V140.665C545.07 140.847 544.683 140.97 544.327 141.034C543.972 141.103 543.58 141.137 543.151 141.137ZM542.953 134.027C542.238 134.027 541.663 134.264 541.23 134.738C540.798 135.208 540.545 135.887 540.472 136.775H545.065C545.065 135.914 544.879 135.242 544.505 134.759C544.131 134.271 543.614 134.027 542.953 134.027ZM552.346 141L552.175 139.824H552.12C551.746 140.303 551.361 140.642 550.965 140.843C550.573 141.039 550.108 141.137 549.57 141.137C548.841 141.137 548.274 140.95 547.868 140.576C547.463 140.202 547.26 139.685 547.26 139.024C547.26 138.3 547.561 137.737 548.162 137.336C548.768 136.935 549.643 136.723 550.787 136.7L552.202 136.659V136.167C552.202 135.461 552.059 134.927 551.771 134.567C551.484 134.207 551.022 134.027 550.384 134.027C549.696 134.027 548.982 134.219 548.244 134.602L547.991 134.014C548.807 133.631 549.614 133.439 550.411 133.439C551.227 133.439 551.835 133.651 552.236 134.075C552.642 134.499 552.845 135.16 552.845 136.058V141H552.346ZM549.611 140.521C550.404 140.521 551.029 140.296 551.484 139.845C551.945 139.389 552.175 138.758 552.175 137.951V137.22L550.876 137.274C549.832 137.325 549.087 137.489 548.641 137.767C548.199 138.04 547.978 138.468 547.978 139.052C547.978 139.517 548.119 139.879 548.401 140.139C548.688 140.394 549.092 140.521 549.611 140.521ZM558.184 133.426C558.498 133.426 558.835 133.458 559.195 133.521L559.065 134.171C558.756 134.093 558.434 134.055 558.102 134.055C557.468 134.055 556.949 134.324 556.543 134.861C556.137 135.399 555.935 136.078 555.935 136.898V141H555.258V133.569H555.832L555.9 134.909H555.948C556.254 134.362 556.579 133.979 556.926 133.761C557.272 133.537 557.691 133.426 558.184 133.426Z" fill="#172B4D"/>
<path d="M418.353 71.7525C418.258 71.6932 418.131 71.6602 418 71.6602C417.868 71.6602 417.742 71.6932 417.646 71.7525L407.939 78.123C407.846 78.1845 407.793 78.268 407.793 78.355C407.793 78.442 407.846 78.5255 407.939 78.587L409.353 79.5149C409.447 79.5764 409.574 79.611 409.707 79.611C409.839 79.611 409.967 79.5764 410.06 79.5149L416.5 75.289V91.0157C416.5 91.1027 416.553 91.1862 416.646 91.2477C416.74 91.3093 416.867 91.3438 417 91.3438H419C419.132 91.3438 419.26 91.3093 419.353 91.2477C419.447 91.1862 419.5 91.1027 419.5 91.0157V75.289L425.939 79.5149C426.033 79.5764 426.16 79.611 426.293 79.611C426.425 79.611 426.553 79.5764 426.646 79.5149L428.06 78.587C428.154 78.5255 428.207 78.442 428.207 78.355C428.207 78.268 428.154 78.1845 428.06 78.123L418.353 71.7525Z" fill="white"/>
<g filter="url(#filter5_d_456_12426)">
<rect x="662" y="35" width="244" height="125" rx="6" fill="white"/>
</g>
<path d="M781.111 69.562H779.594V61.583H776.865V60.2817H783.841V61.583H781.111V69.562ZM792.816 64.833C792.816 66.3649 792.391 67.5371 791.541 68.3496C790.69 69.1579 789.465 69.562 787.865 69.562H785.269V60.2817H788.138C789.615 60.2817 790.764 60.6795 791.585 61.4751C792.406 62.2707 792.816 63.39 792.816 64.833ZM791.217 64.8838C791.217 62.6621 790.178 61.5513 788.1 61.5513H786.786V68.2861H787.865C790.1 68.2861 791.217 67.152 791.217 64.8838ZM800.167 67.042C800.167 67.8672 799.869 68.5146 799.272 68.9844C798.675 69.4541 797.852 69.689 796.803 69.689C795.753 69.689 794.894 69.526 794.226 69.2002V67.7656C794.649 67.9645 795.097 68.1211 795.571 68.2354C796.049 68.3496 796.494 68.4067 796.904 68.4067C797.505 68.4067 797.947 68.2925 798.231 68.064C798.519 67.8354 798.663 67.5286 798.663 67.1436C798.663 66.7965 798.531 66.5024 798.269 66.2612C798.007 66.02 797.465 65.7344 796.644 65.4043C795.798 65.0615 795.201 64.6701 794.854 64.23C794.507 63.7899 794.333 63.2609 794.333 62.6431C794.333 61.8687 794.609 61.2593 795.159 60.8149C795.709 60.3706 796.447 60.1484 797.374 60.1484C798.263 60.1484 799.147 60.3431 800.027 60.7324L799.545 61.9702C798.72 61.6232 797.983 61.4497 797.336 61.4497C796.845 61.4497 796.473 61.5576 796.219 61.7734C795.965 61.985 795.838 62.2664 795.838 62.6177C795.838 62.8589 795.889 63.0662 795.99 63.2397C796.092 63.409 796.259 63.5698 796.492 63.7222C796.724 63.8745 797.143 64.0755 797.749 64.3252C798.43 64.6087 798.929 64.8732 799.247 65.1187C799.564 65.3641 799.797 65.6413 799.945 65.9502C800.093 66.2591 800.167 66.623 800.167 67.042Z" fill="#8898AA"/>
<path d="M784.298 97.5015H782.003V88.2827C782.003 87.1825 782.029 86.3101 782.081 85.6655C781.931 85.8218 781.746 85.9943 781.524 86.1831C781.31 86.3719 780.58 86.9709 779.337 87.98L778.185 86.5249L782.384 83.2241H784.298V97.5015ZM793.829 88.5854C795.268 88.5854 796.407 88.9663 797.247 89.728C798.087 90.4897 798.507 91.5282 798.507 92.8433C798.507 94.3667 798.028 95.5581 797.071 96.4175C796.121 97.2703 794.767 97.6968 793.009 97.6968C791.414 97.6968 790.16 97.4396 789.249 96.9253V94.8452C789.776 95.1447 790.382 95.3758 791.065 95.5386C791.749 95.7013 792.384 95.7827 792.97 95.7827C794.005 95.7827 794.793 95.5516 795.333 95.0894C795.873 94.6271 796.144 93.95 796.144 93.0581C796.144 91.3524 795.056 90.4995 792.882 90.4995C792.576 90.4995 792.198 90.5321 791.749 90.5972C791.3 90.6558 790.906 90.7241 790.567 90.8022L789.542 90.1968L790.089 83.2241H797.511V85.2651H792.11L791.788 88.8003C792.016 88.7612 792.293 88.7157 792.618 88.6636C792.95 88.6115 793.354 88.5854 793.829 88.5854ZM803.556 95.4019C803.243 96.6128 802.67 98.172 801.837 100.08H800.147C800.597 98.3218 800.932 96.6877 801.153 95.1772H803.409L803.556 95.4019ZM807.384 97.5015L813.028 85.2651H805.606V83.2437H815.479V84.8452L809.864 97.5015H807.384ZM826.866 90.3628C826.866 92.8433 826.466 94.6857 825.665 95.8901C824.871 97.0946 823.653 97.6968 822.013 97.6968C820.424 97.6968 819.22 97.075 818.399 95.8315C817.579 94.5881 817.169 92.7651 817.169 90.3628C817.169 87.8433 817.566 85.9878 818.36 84.7964C819.161 83.5985 820.379 82.9995 822.013 82.9995C823.608 82.9995 824.815 83.6245 825.636 84.8745C826.456 86.1245 826.866 87.9539 826.866 90.3628ZM819.493 90.3628C819.493 92.3094 819.692 93.6994 820.089 94.5327C820.493 95.366 821.134 95.7827 822.013 95.7827C822.892 95.7827 823.533 95.3595 823.937 94.5132C824.347 93.6668 824.552 92.2834 824.552 90.3628C824.552 88.4487 824.347 87.0653 823.937 86.2124C823.533 85.353 822.892 84.9233 822.013 84.9233C821.134 84.9233 820.493 85.3433 820.089 86.1831C819.692 87.0229 819.493 88.4162 819.493 90.3628ZM838.292 90.3628C838.292 92.8433 837.892 94.6857 837.091 95.8901C836.297 97.0946 835.079 97.6968 833.438 97.6968C831.85 97.6968 830.646 97.075 829.825 95.8315C829.005 94.5881 828.595 92.7651 828.595 90.3628C828.595 87.8433 828.992 85.9878 829.786 84.7964C830.587 83.5985 831.804 82.9995 833.438 82.9995C835.034 82.9995 836.241 83.6245 837.062 84.8745C837.882 86.1245 838.292 87.9539 838.292 90.3628ZM830.919 90.3628C830.919 92.3094 831.118 93.6994 831.515 94.5327C831.918 95.366 832.56 95.7827 833.438 95.7827C834.317 95.7827 834.959 95.3595 835.362 94.5132C835.772 93.6668 835.978 92.2834 835.978 90.3628C835.978 88.4487 835.772 87.0653 835.362 86.2124C834.959 85.353 834.317 84.9233 833.438 84.9233C832.56 84.9233 831.918 85.3433 831.515 86.1831C831.118 87.0229 830.919 88.4162 830.919 90.3628Z" fill="#32325D"/>
<ellipse cx="712" cy="79.3549" rx="25" ry="25.2016" fill="url(#paint2_linear_456_12426)"/>
<path d="M707.404 135.147C707.404 134.882 707.295 134.624 707.115 134.437L702.029 129.351C701.842 129.163 701.584 129.062 701.318 129.062C701.053 129.062 700.795 129.163 700.615 129.351L695.529 134.437C695.342 134.624 695.232 134.882 695.232 135.147C695.232 135.413 695.342 135.663 695.529 135.851L696.115 136.437C696.295 136.624 696.553 136.733 696.818 136.733C697.084 136.733 697.342 136.624 697.521 136.437L699.818 134.147V139.647C699.818 140.21 700.287 140.562 700.818 140.562H701.818C702.35 140.562 702.818 140.21 702.818 139.647V134.147L705.115 136.437C705.295 136.624 705.553 136.733 705.818 136.733C706.084 136.733 706.342 136.624 706.529 136.437L707.115 135.851C707.295 135.663 707.404 135.413 707.404 135.147Z" fill="#233DD3"/>
<path d="M716.67 139.663H716V132.383C716 131.722 716.028 131.036 716.083 130.325C716.014 130.394 715.944 130.46 715.871 130.523C715.798 130.587 715.094 131.141 713.758 132.185L713.369 131.699L716.083 129.669H716.67V139.663ZM727.218 134.639C727.218 136.393 726.949 137.692 726.412 138.535C725.878 139.378 725.069 139.8 723.985 139.8C722.941 139.8 722.148 139.367 721.606 138.501C721.064 137.631 720.792 136.343 720.792 134.639C720.792 132.898 721.055 131.608 721.579 130.77C722.107 129.931 722.909 129.512 723.985 129.512C725.038 129.512 725.84 129.947 726.391 130.817C726.943 131.683 727.218 132.957 727.218 134.639ZM721.531 134.639C721.531 136.188 721.734 137.334 722.139 138.077C722.545 138.815 723.16 139.185 723.985 139.185C724.846 139.185 725.473 138.802 725.865 138.036C726.261 137.271 726.459 136.138 726.459 134.639C726.459 133.162 726.261 132.041 725.865 131.275C725.473 130.51 724.846 130.127 723.985 130.127C723.124 130.127 722.499 130.51 722.112 131.275C721.724 132.041 721.531 133.162 721.531 134.639ZM729.112 139.13C729.112 138.683 729.294 138.46 729.659 138.46C730.032 138.46 730.219 138.683 730.219 139.13C730.219 139.576 730.032 139.8 729.659 139.8C729.294 139.8 729.112 139.576 729.112 139.13ZM739.14 137.113H737.417V139.663H736.775V137.113H731.634V136.655L736.59 129.614H737.417V136.525H739.14V137.113ZM736.775 136.525V133.668C736.775 132.292 736.807 131.136 736.871 130.202H736.816C736.725 130.371 736.444 130.799 735.975 131.487L732.448 136.525H736.775ZM740.781 132.649C740.781 133.497 740.883 134.135 741.088 134.563C741.293 134.987 741.615 135.199 742.052 135.199C742.932 135.199 743.372 134.349 743.372 132.649C743.372 131.811 743.258 131.182 743.03 130.763C742.806 130.339 742.481 130.127 742.052 130.127C741.615 130.127 741.293 130.339 741.088 130.763C740.883 131.182 740.781 131.811 740.781 132.649ZM744.042 132.649C744.042 133.679 743.871 134.463 743.529 135.001C743.187 135.534 742.695 135.801 742.052 135.801C741.446 135.801 740.97 135.527 740.624 134.98C740.282 134.429 740.111 133.652 740.111 132.649C740.111 131.633 740.275 130.858 740.603 130.325C740.931 129.792 741.414 129.525 742.052 129.525C742.686 129.525 743.176 129.801 743.522 130.353C743.868 130.899 744.042 131.665 744.042 132.649ZM746.605 136.669C746.605 137.512 746.708 138.146 746.913 138.569C747.118 138.989 747.439 139.198 747.876 139.198C748.756 139.198 749.196 138.355 749.196 136.669C749.196 134.987 748.756 134.146 747.876 134.146C747.439 134.146 747.118 134.356 746.913 134.775C746.708 135.19 746.605 135.821 746.605 136.669ZM749.866 136.669C749.866 137.699 749.697 138.483 749.36 139.021C749.023 139.554 748.533 139.82 747.89 139.82C747.27 139.82 746.79 139.545 746.448 138.993C746.106 138.437 745.935 137.662 745.935 136.669C745.935 135.644 746.101 134.867 746.434 134.338C746.771 133.809 747.257 133.545 747.89 133.545C748.514 133.545 749 133.818 749.346 134.365C749.693 134.912 749.866 135.68 749.866 136.669ZM748.088 129.669L742.544 139.663H741.888L747.432 129.669H748.088Z" fill="#233DD3"/>
<path d="M770.932 138.141C770.932 138.975 770.624 139.635 770.009 140.123C769.398 140.611 768.585 140.854 767.568 140.854C766.347 140.854 765.41 140.72 764.759 140.451V139.754C765.479 140.059 766.397 140.212 767.514 140.212C768.334 140.212 768.983 140.025 769.462 139.651C769.945 139.273 770.187 138.779 770.187 138.168C770.187 137.79 770.107 137.478 769.947 137.231C769.788 136.981 769.528 136.753 769.168 136.548C768.808 136.343 768.279 136.122 767.582 135.885C766.561 135.534 765.855 135.156 765.463 134.75C765.076 134.34 764.882 133.795 764.882 133.116C764.882 132.369 765.174 131.76 765.757 131.291C766.345 130.817 767.099 130.58 768.02 130.58C768.958 130.58 769.84 130.758 770.665 131.113L770.412 131.715C769.583 131.368 768.79 131.195 768.033 131.195C767.295 131.195 766.707 131.366 766.27 131.708C765.832 132.05 765.613 132.515 765.613 133.103C765.613 133.472 765.679 133.775 765.812 134.012C765.948 134.249 766.169 134.463 766.475 134.654C766.78 134.841 767.304 135.067 768.047 135.331C768.826 135.6 769.412 135.862 769.804 136.117C770.196 136.368 770.48 136.655 770.658 136.979C770.84 137.298 770.932 137.685 770.932 138.141ZM773.55 140.718H772.873V133.287H773.55V140.718ZM772.777 131.223C772.777 130.785 772.921 130.566 773.208 130.566C773.349 130.566 773.459 130.623 773.536 130.737C773.618 130.851 773.659 131.013 773.659 131.223C773.659 131.428 773.618 131.59 773.536 131.708C773.459 131.826 773.349 131.886 773.208 131.886C772.921 131.886 772.777 131.665 772.777 131.223ZM781.227 140.718V135.898C781.227 135.151 781.069 134.609 780.755 134.271C780.44 133.93 779.953 133.759 779.292 133.759C778.403 133.759 777.752 133.984 777.337 134.436C776.927 134.882 776.722 135.609 776.722 136.616V140.718H776.045V133.287H776.619L776.749 134.306H776.79C777.273 133.531 778.132 133.144 779.367 133.144C781.053 133.144 781.896 134.048 781.896 135.857V140.718H781.227ZM787.27 140.854C786.208 140.854 785.376 140.52 784.774 139.85C784.173 139.18 783.872 138.245 783.872 137.047C783.872 135.816 784.184 134.859 784.809 134.176C785.433 133.488 786.287 133.144 787.372 133.144C788.015 133.144 788.63 133.255 789.218 133.479L789.033 134.08C788.391 133.866 787.832 133.759 787.358 133.759C786.447 133.759 785.757 134.041 785.287 134.606C784.818 135.167 784.583 135.976 784.583 137.033C784.583 138.036 784.818 138.822 785.287 139.392C785.757 139.957 786.413 140.239 787.256 140.239C787.93 140.239 788.557 140.118 789.136 139.877V140.506C788.662 140.738 788.04 140.854 787.27 140.854ZM793.962 140.854C792.882 140.854 792.039 140.522 791.433 139.856C790.831 139.191 790.53 138.259 790.53 137.061C790.53 135.876 790.822 134.928 791.405 134.217C791.989 133.501 792.775 133.144 793.764 133.144C794.639 133.144 795.329 133.449 795.835 134.06C796.341 134.67 796.594 135.5 796.594 136.548V137.095H791.241C791.25 138.116 791.487 138.895 791.952 139.433C792.422 139.97 793.091 140.239 793.962 140.239C794.386 140.239 794.757 140.21 795.076 140.15C795.4 140.091 795.808 139.964 796.3 139.768V140.383C795.881 140.565 795.493 140.688 795.138 140.752C794.782 140.82 794.39 140.854 793.962 140.854ZM793.764 133.745C793.048 133.745 792.474 133.982 792.041 134.456C791.608 134.925 791.355 135.604 791.282 136.493H795.876C795.876 135.632 795.689 134.96 795.315 134.477C794.942 133.989 794.424 133.745 793.764 133.745ZM802.958 140.718H802.281V130.081H802.958V140.718ZM809.965 140.718L809.794 139.542H809.739C809.366 140.021 808.98 140.36 808.584 140.561C808.192 140.757 807.727 140.854 807.189 140.854C806.46 140.854 805.893 140.668 805.487 140.294C805.082 139.92 804.879 139.403 804.879 138.742C804.879 138.018 805.18 137.455 805.781 137.054C806.387 136.653 807.262 136.441 808.406 136.418L809.821 136.377V135.885C809.821 135.178 809.678 134.645 809.391 134.285C809.104 133.925 808.641 133.745 808.003 133.745C807.315 133.745 806.602 133.937 805.863 134.319L805.61 133.731C806.426 133.349 807.233 133.157 808.03 133.157C808.846 133.157 809.454 133.369 809.855 133.793C810.261 134.217 810.464 134.878 810.464 135.775V140.718H809.965ZM807.23 140.239C808.023 140.239 808.648 140.014 809.104 139.562C809.564 139.107 809.794 138.476 809.794 137.669V136.938L808.495 136.992C807.451 137.042 806.706 137.206 806.26 137.484C805.818 137.758 805.597 138.186 805.597 138.77C805.597 139.234 805.738 139.597 806.021 139.856C806.308 140.112 806.711 140.239 807.23 140.239ZM817.484 138.783C817.484 139.449 817.231 139.961 816.726 140.321C816.22 140.677 815.502 140.854 814.572 140.854C813.579 140.854 812.79 140.702 812.207 140.396V139.665C812.954 140.039 813.743 140.226 814.572 140.226C815.306 140.226 815.862 140.105 816.24 139.863C816.623 139.617 816.814 139.291 816.814 138.886C816.814 138.512 816.662 138.198 816.356 137.942C816.056 137.687 815.559 137.437 814.866 137.19C814.123 136.922 813.602 136.691 813.301 136.5C813 136.304 812.772 136.085 812.617 135.844C812.467 135.598 812.392 135.299 812.392 134.948C812.392 134.392 812.624 133.952 813.089 133.629C813.558 133.305 814.212 133.144 815.051 133.144C815.853 133.144 816.614 133.294 817.334 133.595L817.081 134.21C816.352 133.909 815.675 133.759 815.051 133.759C814.445 133.759 813.964 133.859 813.608 134.06C813.253 134.26 813.075 134.538 813.075 134.894C813.075 135.281 813.212 135.591 813.485 135.823C813.763 136.056 814.303 136.315 815.105 136.603C815.775 136.844 816.263 137.063 816.568 137.259C816.874 137.45 817.102 137.669 817.252 137.915C817.407 138.161 817.484 138.451 817.484 138.783ZM821.36 140.253C821.789 140.253 822.162 140.216 822.481 140.144V140.69C822.153 140.8 821.775 140.854 821.347 140.854C820.69 140.854 820.205 140.679 819.891 140.328C819.581 139.977 819.426 139.426 819.426 138.674V133.875H818.325V133.479L819.426 133.171L819.768 131.489H820.116V133.287H822.297V133.875H820.116V138.578C820.116 139.148 820.216 139.569 820.417 139.843C820.618 140.116 820.932 140.253 821.36 140.253ZM826.48 133.287H827.178L828.75 137.457C829.229 138.738 829.532 139.601 829.659 140.048H829.7C829.892 139.46 830.204 138.583 830.637 137.416L832.209 133.287H832.906L829.577 141.921C829.308 142.623 829.083 143.097 828.9 143.343C828.718 143.589 828.504 143.773 828.258 143.896C828.016 144.02 827.722 144.081 827.376 144.081C827.116 144.081 826.827 144.033 826.508 143.938V143.35C826.772 143.423 827.057 143.459 827.362 143.459C827.595 143.459 827.8 143.404 827.978 143.295C828.155 143.186 828.315 143.015 828.456 142.782C828.602 142.554 828.768 142.19 828.955 141.688C829.146 141.192 829.27 140.868 829.324 140.718L826.48 133.287ZM837.151 140.854C836.071 140.854 835.228 140.522 834.622 139.856C834.021 139.191 833.72 138.259 833.72 137.061C833.72 135.876 834.011 134.928 834.595 134.217C835.178 133.501 835.964 133.144 836.953 133.144C837.828 133.144 838.519 133.449 839.024 134.06C839.53 134.67 839.783 135.5 839.783 136.548V137.095H834.431C834.44 138.116 834.677 138.895 835.142 139.433C835.611 139.97 836.281 140.239 837.151 140.239C837.575 140.239 837.947 140.21 838.266 140.15C838.589 140.091 838.997 139.964 839.489 139.768V140.383C839.07 140.565 838.683 140.688 838.327 140.752C837.972 140.82 837.58 140.854 837.151 140.854ZM836.953 133.745C836.238 133.745 835.663 133.982 835.23 134.456C834.798 134.925 834.545 135.604 834.472 136.493H839.065C839.065 135.632 838.879 134.96 838.505 134.477C838.131 133.989 837.614 133.745 836.953 133.745ZM846.346 140.718L846.175 139.542H846.12C845.746 140.021 845.361 140.36 844.965 140.561C844.573 140.757 844.108 140.854 843.57 140.854C842.841 140.854 842.274 140.668 841.868 140.294C841.463 139.92 841.26 139.403 841.26 138.742C841.26 138.018 841.561 137.455 842.162 137.054C842.768 136.653 843.643 136.441 844.787 136.418L846.202 136.377V135.885C846.202 135.178 846.059 134.645 845.771 134.285C845.484 133.925 845.022 133.745 844.384 133.745C843.696 133.745 842.982 133.937 842.244 134.319L841.991 133.731C842.807 133.349 843.614 133.157 844.411 133.157C845.227 133.157 845.835 133.369 846.236 133.793C846.642 134.217 846.845 134.878 846.845 135.775V140.718H846.346ZM843.611 140.239C844.404 140.239 845.029 140.014 845.484 139.562C845.945 139.107 846.175 138.476 846.175 137.669V136.938L844.876 136.992C843.832 137.042 843.087 137.206 842.641 137.484C842.199 137.758 841.978 138.186 841.978 138.77C841.978 139.234 842.119 139.597 842.401 139.856C842.688 140.112 843.092 140.239 843.611 140.239ZM852.184 133.144C852.498 133.144 852.835 133.175 853.195 133.239L853.065 133.889C852.756 133.811 852.434 133.772 852.102 133.772C851.468 133.772 850.949 134.041 850.543 134.579C850.137 135.117 849.935 135.796 849.935 136.616V140.718H849.258V133.287H849.832L849.9 134.627H849.948C850.254 134.08 850.579 133.697 850.926 133.479C851.272 133.255 851.691 133.144 852.184 133.144Z" fill="#172B4D"/>
<path d="M712.353 70.0692C712.258 70.0066 712.131 69.9717 712 69.9717C711.868 69.9717 711.742 70.0066 711.646 70.0692L701.939 76.7969C701.846 76.8619 701.793 76.95 701.793 77.0419C701.793 77.1338 701.846 77.2219 701.939 77.2869L703.353 78.2668C703.447 78.3318 703.574 78.3683 703.707 78.3683C703.839 78.3683 703.967 78.3318 704.06 78.2668L710.5 73.804V90.4124C710.5 90.5044 710.553 90.5925 710.646 90.6575C710.74 90.7225 710.867 90.759 711 90.759H713C713.132 90.759 713.26 90.7225 713.353 90.6575C713.447 90.5925 713.5 90.5044 713.5 90.4124V73.804L719.939 78.2668C720.033 78.3318 720.16 78.3683 720.293 78.3683C720.425 78.3683 720.553 78.3318 720.646 78.2668L722.06 77.2869C722.154 77.2219 722.207 77.1338 722.207 77.0419C722.207 76.95 722.154 76.8619 722.06 76.7969L712.353 70.0692Z" fill="white"/>
<g filter="url(#filter6_d_456_12426)">
<rect x="956" y="35" width="243.957" height="125" rx="6" fill="white"/>
</g>
<path d="M1079.11 75.0415H1077.59V67.0625H1074.86V65.7612H1081.84V67.0625H1079.11V75.0415ZM1087.22 66.9292C1086.35 66.9292 1085.66 67.2381 1085.16 67.856C1084.66 68.4738 1084.41 69.3265 1084.41 70.4141C1084.41 71.5524 1084.65 72.4136 1085.13 72.9976C1085.61 73.5815 1086.31 73.8735 1087.22 73.8735C1087.61 73.8735 1087.99 73.8354 1088.36 73.7593C1088.73 73.6789 1089.11 73.5773 1089.51 73.4546V74.7559C1088.78 75.0309 1087.96 75.1685 1087.03 75.1685C1085.67 75.1685 1084.63 74.758 1083.9 73.937C1083.18 73.1118 1082.81 71.9333 1082.81 70.4014C1082.81 69.4365 1082.99 68.5923 1083.34 67.8687C1083.69 67.145 1084.21 66.5907 1084.88 66.2056C1085.54 65.8205 1086.33 65.6279 1087.23 65.6279C1088.18 65.6279 1089.05 65.8268 1089.86 66.2246L1089.31 67.4878C1089 67.3397 1088.67 67.2106 1088.32 67.1006C1087.97 66.9863 1087.6 66.9292 1087.22 66.9292ZM1096.86 72.5215C1096.86 73.3467 1096.56 73.9941 1095.96 74.4639C1095.37 74.9336 1094.54 75.1685 1093.5 75.1685C1092.45 75.1685 1091.59 75.0055 1090.92 74.6797V73.2451C1091.34 73.444 1091.79 73.6006 1092.26 73.7148C1092.74 73.8291 1093.19 73.8862 1093.6 73.8862C1094.2 73.8862 1094.64 73.772 1094.92 73.5435C1095.21 73.3149 1095.35 73.0081 1095.35 72.623C1095.35 72.276 1095.22 71.9819 1094.96 71.7407C1094.7 71.4995 1094.16 71.2139 1093.34 70.8838C1092.49 70.541 1091.89 70.1496 1091.55 69.7095C1091.2 69.2694 1091.03 68.7404 1091.03 68.1226C1091.03 67.3481 1091.3 66.7388 1091.85 66.2944C1092.4 65.8501 1093.14 65.6279 1094.07 65.6279C1094.96 65.6279 1095.84 65.8226 1096.72 66.2119L1096.24 67.4497C1095.41 67.1027 1094.68 66.9292 1094.03 66.9292C1093.54 66.9292 1093.17 67.0371 1092.91 67.2529C1092.66 67.4645 1092.53 67.7459 1092.53 68.0972C1092.53 68.3384 1092.58 68.5457 1092.68 68.7192C1092.78 68.8885 1092.95 69.0493 1093.18 69.2017C1093.42 69.354 1093.84 69.555 1094.44 69.8047C1095.12 70.0882 1095.62 70.3527 1095.94 70.5981C1096.26 70.8436 1096.49 71.1208 1096.64 71.4297C1096.79 71.7386 1096.86 72.1025 1096.86 72.5215Z" fill="black" fill-opacity="0.7"/>
<path d="M1080.4 93.959C1081.84 93.959 1082.98 94.3398 1083.82 95.1016C1084.66 95.8633 1085.08 96.9017 1085.08 98.2168C1085.08 99.7402 1084.6 100.932 1083.65 101.791C1082.69 102.644 1081.34 103.07 1079.58 103.07C1077.99 103.07 1076.73 102.813 1075.82 102.299V100.219C1076.35 100.518 1076.96 100.749 1077.64 100.912C1078.32 101.075 1078.96 101.156 1079.54 101.156C1080.58 101.156 1081.37 100.925 1081.91 100.463C1082.45 100.001 1082.72 99.3236 1082.72 98.4316C1082.72 96.7259 1081.63 95.873 1079.46 95.873C1079.15 95.873 1078.77 95.9056 1078.32 95.9707C1077.87 96.0293 1077.48 96.0977 1077.14 96.1758L1076.12 95.5703L1076.66 88.5977H1084.08V90.6387H1078.68L1078.36 94.1738C1078.59 94.1348 1078.87 94.0892 1079.19 94.0371C1079.52 93.985 1079.93 93.959 1080.4 93.959ZM1090.13 100.775C1089.82 101.986 1089.24 103.546 1088.41 105.453H1086.72C1087.17 103.695 1087.51 102.061 1087.73 100.551H1089.98L1090.13 100.775ZM1093.96 102.875L1099.6 90.6387H1092.18V88.6172H1102.05V90.2188L1096.44 102.875H1093.96ZM1113.44 95.7363C1113.44 98.2168 1113.04 100.059 1112.24 101.264C1111.44 102.468 1110.23 103.07 1108.59 103.07C1107 103.07 1105.79 102.449 1104.97 101.205C1104.15 99.9616 1103.74 98.1387 1103.74 95.7363C1103.74 93.2168 1104.14 91.3613 1104.93 90.1699C1105.74 88.972 1106.95 88.373 1108.59 88.373C1110.18 88.373 1111.39 88.998 1112.21 90.248C1113.03 91.498 1113.44 93.3275 1113.44 95.7363ZM1106.07 95.7363C1106.07 97.6829 1106.27 99.0729 1106.66 99.9062C1107.07 100.74 1107.71 101.156 1108.59 101.156C1109.47 101.156 1110.11 100.733 1110.51 99.8867C1110.92 99.0404 1111.13 97.6569 1111.13 95.7363C1111.13 93.8223 1110.92 92.4388 1110.51 91.5859C1110.11 90.7266 1109.47 90.2969 1108.59 90.2969C1107.71 90.2969 1107.07 90.7168 1106.66 91.5566C1106.27 92.3965 1106.07 93.7897 1106.07 95.7363ZM1124.87 95.7363C1124.87 98.2168 1124.47 100.059 1123.67 101.264C1122.87 102.468 1121.65 103.07 1120.01 103.07C1118.42 103.07 1117.22 102.449 1116.4 101.205C1115.58 99.9616 1115.17 98.1387 1115.17 95.7363C1115.17 93.2168 1115.57 91.3613 1116.36 90.1699C1117.16 88.972 1118.38 88.373 1120.01 88.373C1121.61 88.373 1122.82 88.998 1123.64 90.248C1124.46 91.498 1124.87 93.3275 1124.87 95.7363ZM1117.49 95.7363C1117.49 97.6829 1117.69 99.0729 1118.09 99.9062C1118.49 100.74 1119.13 101.156 1120.01 101.156C1120.89 101.156 1121.53 100.733 1121.94 99.8867C1122.35 99.0404 1122.55 97.6569 1122.55 95.7363C1122.55 93.8223 1122.35 92.4388 1121.94 91.5859C1121.53 90.7266 1120.89 90.2969 1120.01 90.2969C1119.13 90.2969 1118.49 90.7168 1118.09 91.5566C1117.69 92.3965 1117.49 93.7897 1117.49 95.7363Z" fill="#32325D"/>
<ellipse cx="1010.04" cy="85" rx="25.0213" ry="25" fill="url(#paint3_linear_456_12426)"/>
<path d="M1005.4 140.261C1005.4 139.996 1005.29 139.738 1005.12 139.55L1000.03 134.464C999.842 134.277 999.584 134.175 999.318 134.175C999.053 134.175 998.795 134.277 998.615 134.464L993.529 139.55C993.342 139.738 993.232 139.996 993.232 140.261C993.232 140.527 993.342 140.777 993.529 140.964L994.115 141.55C994.295 141.738 994.553 141.847 994.818 141.847C995.084 141.847 995.342 141.738 995.521 141.55L997.818 139.261V144.761C997.818 145.324 998.287 145.675 998.818 145.675H999.818C1000.35 145.675 1000.82 145.324 1000.82 144.761V139.261L1003.12 141.55C1003.29 141.738 1003.55 141.847 1003.82 141.847C1004.08 141.847 1004.34 141.738 1004.53 141.55L1005.12 140.964C1005.29 140.777 1005.4 140.527 1005.4 140.261Z" fill="#233DD3"/>
<path d="M1014.67 144.792H1014V137.511C1014 136.85 1014.03 136.165 1014.08 135.454C1014.01 135.522 1013.94 135.588 1013.87 135.652C1013.8 135.716 1013.09 136.269 1011.76 137.313L1011.37 136.828L1014.08 134.797H1014.67V144.792ZM1025.22 139.767C1025.22 141.522 1024.95 142.82 1024.41 143.664C1023.88 144.507 1023.07 144.928 1021.98 144.928C1020.94 144.928 1020.15 144.495 1019.61 143.629C1019.06 142.759 1018.79 141.472 1018.79 139.767C1018.79 138.026 1019.05 136.736 1019.58 135.898C1020.11 135.059 1020.91 134.64 1021.98 134.64C1023.04 134.64 1023.84 135.075 1024.39 135.946C1024.94 136.812 1025.22 138.085 1025.22 139.767ZM1019.53 139.767C1019.53 141.317 1019.73 142.463 1020.14 143.206C1020.54 143.944 1021.16 144.313 1021.98 144.313C1022.85 144.313 1023.47 143.93 1023.86 143.165C1024.26 142.399 1024.46 141.266 1024.46 139.767C1024.46 138.291 1024.26 137.169 1023.86 136.404C1023.47 135.638 1022.85 135.255 1021.98 135.255C1021.12 135.255 1020.5 135.638 1020.11 136.404C1019.72 137.169 1019.53 138.291 1019.53 139.767ZM1027.11 144.258C1027.11 143.812 1027.29 143.588 1027.66 143.588C1028.03 143.588 1028.22 143.812 1028.22 144.258C1028.22 144.705 1028.03 144.928 1027.66 144.928C1027.29 144.928 1027.11 144.705 1027.11 144.258ZM1037.14 142.242H1035.42V144.792H1034.77V142.242H1029.63V141.784L1034.59 134.743H1035.42V141.654H1037.14V142.242ZM1034.77 141.654V138.796C1034.77 137.42 1034.81 136.265 1034.87 135.331H1034.82C1034.72 135.499 1034.44 135.928 1033.98 136.616L1030.45 141.654H1034.77ZM1038.78 137.778C1038.78 138.625 1038.88 139.264 1039.09 139.692C1039.29 140.116 1039.61 140.328 1040.05 140.328C1040.93 140.328 1041.37 139.478 1041.37 137.778C1041.37 136.939 1041.26 136.31 1041.03 135.891C1040.81 135.467 1040.48 135.255 1040.05 135.255C1039.61 135.255 1039.29 135.467 1039.09 135.891C1038.88 136.31 1038.78 136.939 1038.78 137.778ZM1042.04 137.778C1042.04 138.808 1041.87 139.592 1041.53 140.129C1041.19 140.663 1040.69 140.929 1040.05 140.929C1039.45 140.929 1038.97 140.656 1038.62 140.109C1038.28 139.557 1038.11 138.78 1038.11 137.778C1038.11 136.762 1038.27 135.987 1038.6 135.454C1038.93 134.92 1039.41 134.654 1040.05 134.654C1040.69 134.654 1041.18 134.93 1041.52 135.481C1041.87 136.028 1042.04 136.793 1042.04 137.778ZM1044.6 141.797C1044.6 142.64 1044.71 143.274 1044.91 143.698C1045.12 144.117 1045.44 144.327 1045.88 144.327C1046.76 144.327 1047.2 143.484 1047.2 141.797C1047.2 140.116 1046.76 139.275 1045.88 139.275C1045.44 139.275 1045.12 139.485 1044.91 139.904C1044.71 140.319 1044.6 140.95 1044.6 141.797ZM1047.87 141.797C1047.87 142.827 1047.7 143.611 1047.36 144.149C1047.02 144.682 1046.53 144.949 1045.89 144.949C1045.27 144.949 1044.79 144.673 1044.45 144.122C1044.11 143.566 1043.94 142.791 1043.94 141.797C1043.94 140.772 1044.1 139.995 1044.43 139.466C1044.77 138.938 1045.26 138.673 1045.89 138.673C1046.51 138.673 1047 138.947 1047.35 139.494C1047.69 140.041 1047.87 140.808 1047.87 141.797ZM1046.09 134.797L1040.54 144.792H1039.89L1045.43 134.797H1046.09Z" fill="#233DD3"/>
<path d="M1069.07 142.214C1069.07 143.048 1068.76 143.709 1068.14 144.197C1067.53 144.684 1066.72 144.928 1065.7 144.928C1064.48 144.928 1063.55 144.794 1062.89 144.525V143.828C1063.61 144.133 1064.53 144.286 1065.65 144.286C1066.47 144.286 1067.12 144.099 1067.6 143.725C1068.08 143.347 1068.32 142.852 1068.32 142.242C1068.32 141.863 1068.24 141.551 1068.08 141.305C1067.92 141.055 1067.66 140.827 1067.3 140.622C1066.94 140.417 1066.42 140.195 1065.72 139.958C1064.7 139.608 1063.99 139.229 1063.6 138.824C1063.21 138.414 1063.02 137.869 1063.02 137.19C1063.02 136.443 1063.31 135.834 1063.89 135.365C1064.48 134.891 1065.23 134.654 1066.16 134.654C1067.09 134.654 1067.98 134.832 1068.8 135.187L1068.55 135.789C1067.72 135.442 1066.93 135.269 1066.17 135.269C1065.43 135.269 1064.84 135.44 1064.41 135.782C1063.97 136.124 1063.75 136.588 1063.75 137.176C1063.75 137.545 1063.82 137.848 1063.95 138.085C1064.08 138.322 1064.31 138.537 1064.61 138.728C1064.92 138.915 1065.44 139.14 1066.18 139.405C1066.96 139.674 1067.55 139.936 1067.94 140.191C1068.33 140.442 1068.62 140.729 1068.79 141.052C1068.98 141.371 1069.07 141.759 1069.07 142.214ZM1071.69 144.792H1071.01V137.361H1071.69V144.792ZM1070.91 135.296C1070.91 134.859 1071.06 134.64 1071.34 134.64C1071.49 134.64 1071.59 134.697 1071.67 134.811C1071.75 134.925 1071.79 135.087 1071.79 135.296C1071.79 135.501 1071.75 135.663 1071.67 135.782C1071.59 135.9 1071.49 135.959 1071.34 135.959C1071.06 135.959 1070.91 135.738 1070.91 135.296ZM1079.36 144.792V139.972C1079.36 139.225 1079.21 138.682 1078.89 138.345C1078.58 138.003 1078.09 137.833 1077.43 137.833C1076.54 137.833 1075.89 138.058 1075.47 138.509C1075.06 138.956 1074.86 139.683 1074.86 140.69V144.792H1074.18V137.361H1074.75L1074.88 138.379H1074.93C1075.41 137.605 1076.27 137.217 1077.5 137.217C1079.19 137.217 1080.03 138.122 1080.03 139.931V144.792H1079.36ZM1085.41 144.928C1084.34 144.928 1083.51 144.593 1082.91 143.923C1082.31 143.253 1082.01 142.319 1082.01 141.121C1082.01 139.89 1082.32 138.933 1082.94 138.25C1083.57 137.561 1084.42 137.217 1085.51 137.217C1086.15 137.217 1086.77 137.329 1087.35 137.552L1087.17 138.154C1086.53 137.94 1085.97 137.833 1085.49 137.833C1084.58 137.833 1083.89 138.115 1083.42 138.68C1082.95 139.241 1082.72 140.05 1082.72 141.107C1082.72 142.11 1082.95 142.896 1083.42 143.465C1083.89 144.03 1084.55 144.313 1085.39 144.313C1086.07 144.313 1086.69 144.192 1087.27 143.951V144.58C1086.8 144.812 1086.18 144.928 1085.41 144.928ZM1092.1 144.928C1091.02 144.928 1090.17 144.596 1089.57 143.93C1088.97 143.265 1088.67 142.333 1088.67 141.134C1088.67 139.949 1088.96 139.001 1089.54 138.291C1090.12 137.575 1090.91 137.217 1091.9 137.217C1092.77 137.217 1093.46 137.523 1093.97 138.133C1094.48 138.744 1094.73 139.573 1094.73 140.622V141.168H1089.38C1089.39 142.189 1089.62 142.969 1090.09 143.506C1090.56 144.044 1091.23 144.313 1092.1 144.313C1092.52 144.313 1092.89 144.283 1093.21 144.224C1093.54 144.165 1093.94 144.037 1094.44 143.841V144.457C1094.02 144.639 1093.63 144.762 1093.27 144.826C1092.92 144.894 1092.53 144.928 1092.1 144.928ZM1091.9 137.819C1091.18 137.819 1090.61 138.056 1090.18 138.53C1089.74 138.999 1089.49 139.678 1089.42 140.567H1094.01C1094.01 139.706 1093.82 139.033 1093.45 138.55C1093.08 138.063 1092.56 137.819 1091.9 137.819ZM1101.09 144.792H1100.42V134.155H1101.09V144.792ZM1108.1 144.792L1107.93 143.616H1107.88C1107.5 144.094 1107.12 144.434 1106.72 144.634C1106.33 144.83 1105.86 144.928 1105.33 144.928C1104.6 144.928 1104.03 144.741 1103.62 144.368C1103.22 143.994 1103.01 143.477 1103.01 142.816C1103.01 142.091 1103.32 141.528 1103.92 141.127C1104.52 140.726 1105.4 140.514 1106.54 140.492L1107.96 140.451V139.958C1107.96 139.252 1107.81 138.719 1107.53 138.359C1107.24 137.999 1106.78 137.819 1106.14 137.819C1105.45 137.819 1104.74 138.01 1104 138.393L1103.75 137.805C1104.56 137.422 1105.37 137.231 1106.17 137.231C1106.98 137.231 1107.59 137.443 1107.99 137.867C1108.4 138.291 1108.6 138.951 1108.6 139.849V144.792H1108.1ZM1105.37 144.313C1106.16 144.313 1106.78 144.087 1107.24 143.636C1107.7 143.181 1107.93 142.549 1107.93 141.743V141.011L1106.63 141.066C1105.59 141.116 1104.84 141.28 1104.4 141.558C1103.95 141.832 1103.73 142.26 1103.73 142.843C1103.73 143.308 1103.87 143.67 1104.16 143.93C1104.44 144.185 1104.85 144.313 1105.37 144.313ZM1115.62 142.857C1115.62 143.522 1115.37 144.035 1114.86 144.395C1114.36 144.75 1113.64 144.928 1112.71 144.928C1111.71 144.928 1110.93 144.776 1110.34 144.47V143.739C1111.09 144.112 1111.88 144.299 1112.71 144.299C1113.44 144.299 1114 144.179 1114.38 143.937C1114.76 143.691 1114.95 143.365 1114.95 142.959C1114.95 142.586 1114.8 142.271 1114.49 142.016C1114.19 141.761 1113.69 141.51 1113 141.264C1112.26 140.995 1111.74 140.765 1111.44 140.574C1111.14 140.378 1110.91 140.159 1110.75 139.917C1110.6 139.671 1110.53 139.373 1110.53 139.022C1110.53 138.466 1110.76 138.026 1111.22 137.703C1111.69 137.379 1112.35 137.217 1113.19 137.217C1113.99 137.217 1114.75 137.368 1115.47 137.668L1115.22 138.284C1114.49 137.983 1113.81 137.833 1113.19 137.833C1112.58 137.833 1112.1 137.933 1111.74 138.133C1111.39 138.334 1111.21 138.612 1111.21 138.967C1111.21 139.355 1111.35 139.665 1111.62 139.897C1111.9 140.129 1112.44 140.389 1113.24 140.676C1113.91 140.918 1114.4 141.137 1114.7 141.333C1115.01 141.524 1115.24 141.743 1115.39 141.989C1115.54 142.235 1115.62 142.524 1115.62 142.857ZM1119.5 144.327C1119.92 144.327 1120.3 144.29 1120.62 144.217V144.764C1120.29 144.874 1119.91 144.928 1119.48 144.928C1118.83 144.928 1118.34 144.753 1118.03 144.402C1117.72 144.051 1117.56 143.5 1117.56 142.748V137.949H1116.46V137.552L1117.56 137.245L1117.9 135.563H1118.25V137.361H1120.43V137.949H1118.25V142.652C1118.25 143.222 1118.35 143.643 1118.55 143.917C1118.75 144.19 1119.07 144.327 1119.5 144.327ZM1124.62 137.361H1125.31L1126.89 141.531C1127.36 142.811 1127.67 143.675 1127.79 144.122H1127.84C1128.03 143.534 1128.34 142.656 1128.77 141.49L1130.34 137.361H1131.04L1127.71 145.995C1127.44 146.696 1127.22 147.17 1127.04 147.417C1126.85 147.663 1126.64 147.847 1126.39 147.97C1126.15 148.093 1125.86 148.155 1125.51 148.155C1125.25 148.155 1124.96 148.107 1124.64 148.011V147.423C1124.91 147.496 1125.19 147.533 1125.5 147.533C1125.73 147.533 1125.94 147.478 1126.11 147.369C1126.29 147.259 1126.45 147.088 1126.59 146.856C1126.74 146.628 1126.9 146.264 1127.09 145.762C1127.28 145.265 1127.41 144.942 1127.46 144.792L1124.62 137.361ZM1135.29 144.928C1134.21 144.928 1133.36 144.596 1132.76 143.93C1132.16 143.265 1131.86 142.333 1131.86 141.134C1131.86 139.949 1132.15 139.001 1132.73 138.291C1133.31 137.575 1134.1 137.217 1135.09 137.217C1135.96 137.217 1136.65 137.523 1137.16 138.133C1137.67 138.744 1137.92 139.573 1137.92 140.622V141.168H1132.57C1132.58 142.189 1132.81 142.969 1133.28 143.506C1133.75 144.044 1134.42 144.313 1135.29 144.313C1135.71 144.313 1136.08 144.283 1136.4 144.224C1136.72 144.165 1137.13 144.037 1137.62 143.841V144.457C1137.21 144.639 1136.82 144.762 1136.46 144.826C1136.11 144.894 1135.72 144.928 1135.29 144.928ZM1135.09 137.819C1134.37 137.819 1133.8 138.056 1133.37 138.53C1132.93 138.999 1132.68 139.678 1132.61 140.567H1137.2C1137.2 139.706 1137.01 139.033 1136.64 138.55C1136.27 138.063 1135.75 137.819 1135.09 137.819ZM1144.48 144.792L1144.31 143.616H1144.26C1143.88 144.094 1143.5 144.434 1143.1 144.634C1142.71 144.83 1142.24 144.928 1141.71 144.928C1140.98 144.928 1140.41 144.741 1140 144.368C1139.6 143.994 1139.4 143.477 1139.4 142.816C1139.4 142.091 1139.7 141.528 1140.3 141.127C1140.9 140.726 1141.78 140.514 1142.92 140.492L1144.34 140.451V139.958C1144.34 139.252 1144.19 138.719 1143.91 138.359C1143.62 137.999 1143.16 137.819 1142.52 137.819C1141.83 137.819 1141.12 138.01 1140.38 138.393L1140.13 137.805C1140.94 137.422 1141.75 137.231 1142.55 137.231C1143.36 137.231 1143.97 137.443 1144.37 137.867C1144.78 138.291 1144.98 138.951 1144.98 139.849V144.792H1144.48ZM1141.75 144.313C1142.54 144.313 1143.16 144.087 1143.62 143.636C1144.08 143.181 1144.31 142.549 1144.31 141.743V141.011L1143.01 141.066C1141.97 141.116 1141.22 141.28 1140.78 141.558C1140.33 141.832 1140.11 142.26 1140.11 142.843C1140.11 143.308 1140.25 143.67 1140.54 143.93C1140.82 144.185 1141.23 144.313 1141.75 144.313ZM1150.32 137.217C1150.63 137.217 1150.97 137.249 1151.33 137.313L1151.2 137.962C1150.89 137.885 1150.57 137.846 1150.24 137.846C1149.6 137.846 1149.08 138.115 1148.68 138.653C1148.27 139.191 1148.07 139.87 1148.07 140.69V144.792H1147.39V137.361H1147.97L1148.04 138.701H1148.08C1148.39 138.154 1148.72 137.771 1149.06 137.552C1149.41 137.329 1149.83 137.217 1150.32 137.217Z" fill="#172B4D"/>
<path d="M1009.81 95.6778C1009.91 95.7384 1010.03 95.7712 1010.16 95.7696C1010.29 95.768 1010.41 95.7321 1010.5 95.6692L1019.92 88.9156C1020.01 88.8504 1020.06 88.7628 1020.06 88.6722C1020.05 88.5816 1020 88.4953 1019.91 88.4324L1018.52 87.483C1018.42 87.4201 1018.3 87.3856 1018.17 87.3873C1018.04 87.3889 1017.92 87.4264 1017.83 87.4916L1011.58 91.9716L1011.4 75.5908C1011.39 75.5002 1011.34 75.4139 1011.25 75.3509C1011.16 75.288 1011.03 75.2535 1010.9 75.2551L1008.95 75.2794C1008.82 75.2811 1008.69 75.3186 1008.6 75.3838C1008.51 75.4491 1008.46 75.5366 1008.46 75.6273L1008.65 92.0081L1002.31 87.6847C1002.21 87.6218 1002.09 87.5873 1001.96 87.589C1001.83 87.5906 1001.71 87.6281 1001.62 87.6933L1000.25 88.6771C1000.15 88.7423 1000.1 88.8298 1000.1 88.9205C1000.11 89.0111 1000.16 89.0974 1000.25 89.1603L1009.81 95.6778Z" fill="white"/>
<path d="M1149 430C1149 524.561 1072.77 601 979 601C885.232 601 809 524.561 809 430C809 335.439 885.232 259 979 259C1072.77 259 1149 335.439 1149 430Z" stroke="url(#paint4_angular_456_12426)" stroke-width="50"/>
<defs>
<filter id="filter0_dd_456_12426" x="0" y="0" width="1276" height="760" filterUnits="userSpaceOnUse" color-interpolation-filters="sRGB">
<feFlood flood-opacity="0" result="BackgroundImageFix"/>
<feColorMatrix in="SourceAlpha" type="matrix" values="0 0 0 0 0 0 0 0 0 0 0 0 0 0 0 0 0 0 127 0" result="hardAlpha"/>
<feOffset dy="5"/>
<feGaussianBlur stdDeviation="7.5"/>
<feColorMatrix type="matrix" values="0 0 0 0 0 0 0 0 0 0 0 0 0 0 0 0 0 0 0.17 0"/>
<feBlend mode="normal" in2="BackgroundImageFix" result="effect1_dropShadow_456_12426"/>
<feColorMatrix in="SourceAlpha" type="matrix" values="0 0 0 0 0 0 0 0 0 0 0 0 0 0 0 0 0 0 127 0" result="hardAlpha"/>
<feOffset dy="15"/>
<feGaussianBlur stdDeviation="17.5"/>
<feColorMatrix type="matrix" values="0 0 0 0 0.196078 0 0 0 0 0.196078 0 0 0 0 0.364706 0 0 0 0.2 0"/>
<feBlend mode="normal" in2="effect1_dropShadow_456_12426" result="effect2_dropShadow_456_12426"/>
<feBlend mode="normal" in="SourceGraphic" in2="effect2_dropShadow_456_12426" result="shape"/>
</filter>
<filter id="filter1_d_456_12426" x="721" y="150" width="529" height="572" filterUnits="userSpaceOnUse" color-interpolation-filters="sRGB">
<feFlood flood-opacity="0" result="BackgroundImageFix"/>
<feColorMatrix in="SourceAlpha" type="matrix" values="0 0 0 0 0 0 0 0 0 0 0 0 0 0 0 0 0 0 127 0" result="hardAlpha"/>
<feOffset/>
<feGaussianBlur stdDeviation="16"/>
<feColorMatrix type="matrix" values="0 0 0 0 0.533333 0 0 0 0 0.596078 0 0 0 0 0.666667 0 0 0 0.15 0"/>
<feBlend mode="normal" in2="BackgroundImageFix" result="effect1_dropShadow_456_12426"/>
<feBlend mode="normal" in="SourceGraphic" in2="effect1_dropShadow_456_12426" result="shape"/>
</filter>
<filter id="filter2_d_456_12426" x="25" y="150" width="745" height="572" filterUnits="userSpaceOnUse" color-interpolation-filters="sRGB">
<feFlood flood-opacity="0" result="BackgroundImageFix"/>
<feColorMatrix in="SourceAlpha" type="matrix" values="0 0 0 0 0 0 0 0 0 0 0 0 0 0 0 0 0 0 127 0" result="hardAlpha"/>
<feOffset/>
<feGaussianBlur stdDeviation="16"/>
<feColorMatrix type="matrix" values="0 0 0 0 0.533333 0 0 0 0 0.596078 0 0 0 0 0.666667 0 0 0 0.15 0"/>
<feBlend mode="normal" in2="BackgroundImageFix" result="effect1_dropShadow_456_12426"/>
<feBlend mode="normal" in="SourceGraphic" in2="effect1_dropShadow_456_12426" result="shape"/>
</filter>
<filter id="filter3_d_456_12426" x="25" y="6" width="308" height="189" filterUnits="userSpaceOnUse" color-interpolation-filters="sRGB">
<feFlood flood-opacity="0" result="BackgroundImageFix"/>
<feColorMatrix in="SourceAlpha" type="matrix" values="0 0 0 0 0 0 0 0 0 0 0 0 0 0 0 0 0 0 127 0" result="hardAlpha"/>
<feOffset/>
<feGaussianBlur stdDeviation="16"/>
<feColorMatrix type="matrix" values="0 0 0 0 0.533333 0 0 0 0 0.596078 0 0 0 0 0.666667 0 0 0 0.15 0"/>
<feBlend mode="normal" in2="BackgroundImageFix" result="effect1_dropShadow_456_12426"/>
<feBlend mode="normal" in="SourceGraphic" in2="effect1_dropShadow_456_12426" result="shape"/>
</filter>
<filter id="filter4_d_456_12426" x="328" y="3" width="308" height="189" filterUnits="userSpaceOnUse" color-interpolation-filters="sRGB">
<feFlood flood-opacity="0" result="BackgroundImageFix"/>
<feColorMatrix in="SourceAlpha" type="matrix" values="0 0 0 0 0 0 0 0 0 0 0 0 0 0 0 0 0 0 127 0" result="hardAlpha"/>
<feOffset/>
<feGaussianBlur stdDeviation="16"/>
<feColorMatrix type="matrix" values="0 0 0 0 0.533333 0 0 0 0 0.596078 0 0 0 0 0.666667 0 0 0 0.15 0"/>
<feBlend mode="normal" in2="BackgroundImageFix" result="effect1_dropShadow_456_12426"/>
<feBlend mode="normal" in="SourceGraphic" in2="effect1_dropShadow_456_12426" result="shape"/>
</filter>
<filter id="filter5_d_456_12426" x="630" y="3" width="308" height="189" filterUnits="userSpaceOnUse" color-interpolation-filters="sRGB">
<feFlood flood-opacity="0" result="BackgroundImageFix"/>
<feColorMatrix in="SourceAlpha" type="matrix" values="0 0 0 0 0 0 0 0 0 0 0 0 0 0 0 0 0 0 127 0" result="hardAlpha"/>
<feOffset/>
<feGaussianBlur stdDeviation="16"/>
<feColorMatrix type="matrix" values="0 0 0 0 0.533333 0 0 0 0 0.596078 0 0 0 0 0.666667 0 0 0 0.15 0"/>
<feBlend mode="normal" in2="BackgroundImageFix" result="effect1_dropShadow_456_12426"/>
<feBlend mode="normal" in="SourceGraphic" in2="effect1_dropShadow_456_12426" result="shape"/>
</filter>
<filter id="filter6_d_456_12426" x="924" y="3" width="307.958" height="189" filterUnits="userSpaceOnUse" color-interpolation-filters="sRGB">
<feFlood flood-opacity="0" result="BackgroundImageFix"/>
<feColorMatrix in="SourceAlpha" type="matrix" values="0 0 0 0 0 0 0 0 0 0 0 0 0 0 0 0 0 0 127 0" result="hardAlpha"/>
<feOffset/>
<feGaussianBlur stdDeviation="16"/>
<feColorMatrix type="matrix" values="0 0 0 0 0.533333 0 0 0 0 0.596078 0 0 0 0 0.666667 0 0 0 0.15 0"/>
<feBlend mode="normal" in2="BackgroundImageFix" result="effect1_dropShadow_456_12426"/>
<feBlend mode="normal" in="SourceGraphic" in2="effect1_dropShadow_456_12426" result="shape"/>
</filter>
<linearGradient id="paint0_linear_456_12426" x1="82" y1="83" x2="132" y2="83" gradientUnits="userSpaceOnUse">
<stop stop-color="#F5365C"/>
<stop offset="1" stop-color="#F56636"/>
</linearGradient>
<linearGradient id="paint1_linear_456_12426" x1="393" y1="81" x2="443" y2="81" gradientUnits="userSpaceOnUse">
<stop stop-color="#2DCE89"/>
<stop offset="1" stop-color="#2DCECC"/>
</linearGradient>
<linearGradient id="paint2_linear_456_12426" x1="687" y1="79.3549" x2="737" y2="79.3549" gradientUnits="userSpaceOnUse">
<stop stop-color="#2DCE89"/>
<stop offset="1" stop-color="#2DCECC"/>
</linearGradient>
<linearGradient id="paint3_linear_456_12426" x1="985.021" y1="85" x2="1035.06" y2="85" gradientUnits="userSpaceOnUse">
<stop stop-color="#F5365C"/>
<stop offset="1" stop-color="#F56636"/>
</linearGradient>
<radialGradient id="paint4_angular_456_12426" cx="0" cy="0" r="1" gradientUnits="userSpaceOnUse" gradientTransform="translate(979 430) rotate(81.2351) scale(198.316 197.351)">
<stop offset="0.209779" stop-color="#2CCE89"/>
<stop offset="0.209813" stop-color="white"/>
<stop offset="0.213795" stop-color="white"/>
<stop offset="0.213911" stop-color="#5F72E4"/>
<stop offset="0.430733" stop-color="#5F72E4"/>
<stop offset="0.430829" stop-color="white"/>
<stop offset="0.434967" stop-color="white"/>
<stop offset="0.434991" stop-color="#11CDEF"/>
<stop offset="0.518384" stop-color="#11CDEF"/>
<stop offset="0.518478" stop-color="white"/>
<stop offset="0.521961" stop-color="white"/>
<stop offset="0.522008" stop-color="#F5365C"/>
<stop offset="0.728304" stop-color="#F5365C"/>
<stop offset="0.728399" stop-color="white"/>
<stop offset="0.732809" stop-color="white"/>
<stop offset="0.732866" stop-color="#FB6340"/>
<stop offset="0.848738" stop-color="#FB6340"/>
<stop offset="0.848861" stop-color="white"/>
<stop offset="0.853321" stop-color="white"/>
<stop offset="0.853369" stop-color="#2CCE89"/>
</radialGradient>
</defs>
</svg>
