<svg width="200" height="200" viewBox="0 0 200 200" fill="none" xmlns="http://www.w3.org/2000/svg">
<path fill-rule="evenodd" clip-rule="evenodd" d="M121.8 200V180.17C121.798 177.653 120.798 175.241 119.02 173.461C117.242 171.682 114.831 170.681 112.317 170.679H87.688C85.1736 170.681 82.7628 171.682 80.9848 173.461C79.2069 175.241 78.207 177.653 78.2047 180.17V200H121.8ZM199.945 181.705C178.495 181.705 157.044 181.713 135.593 181.728V200H180.22C185.205 199.994 190.004 198.107 193.659 194.716C197.315 191.325 199.559 186.679 199.943 181.705H199.945ZM0.0486654 96.8075H19.03C19.8339 75.8539 28.7163 56.0265 43.813 41.4864C58.9098 26.9463 79.0472 18.8239 99.999 18.8239C120.951 18.8239 141.088 26.9463 156.185 41.4864C171.282 56.0265 180.164 75.8539 180.968 96.8075H199.949C199.099 70.8446 188.196 46.2297 169.545 28.1647C150.893 10.0997 125.955 0 99.999 0C74.0435 0 49.1048 10.0997 30.4533 28.1647C11.8018 46.2297 0.898882 70.8446 0.0486654 96.8075ZM16.2667 110.613H0V158.41C0.00264742 160.926 1.00265 163.339 2.78057 165.118C4.55848 166.897 6.96907 167.898 9.48333 167.9H16.2667C20.9467 167.896 25.4338 166.033 28.7429 162.721C32.052 159.409 33.9128 154.918 33.9167 150.234V128.275C33.9115 123.591 32.0503 119.102 28.7413 115.791C25.4323 112.479 20.9459 110.617 16.2667 110.613ZM200 158.41V110.613H183.733C179.054 110.618 174.569 112.48 171.26 115.791C167.951 119.102 166.09 123.592 166.085 128.275V150.231C166.089 154.915 167.949 159.407 171.257 162.719C174.566 166.032 179.053 167.895 183.733 167.9H190.518C193.032 167.898 195.443 166.897 197.22 165.118C198.998 163.339 199.998 160.926 200 158.41Z" fill="url(#paint0_linear_961_16035)"/>
<defs>
<linearGradient id="paint0_linear_961_16035" x1="14.941" y1="1.50396e-06" x2="168.778" y2="199.878" gradientUnits="userSpaceOnUse">
<stop stop-color="#06ECFE"/>
<stop offset="1" stop-color="#0074D1"/>
</linearGradient>
</defs>
</svg>
