<svg width="117" height="122" viewBox="0 0 117 122" fill="none" xmlns="http://www.w3.org/2000/svg">
<path d="M54.4994 18.1082C46.0486 16.1564 37.2217 17.0523 29.2904 20.6668C21.3591 24.2814 14.733 30.428 10.3667 38.2211C10.163 38.5847 10.0806 39.0083 10.1322 39.4259C10.1838 39.8436 10.3665 40.2316 10.6519 40.5295L22.5347 52.9202C30.9569 39.2917 41.8079 27.4743 54.4994 18.1082Z" fill="url(#paint0_linear_448_12694)"/>
<path d="M99.6347 65.1743C101.507 73.9863 100.647 83.1905 97.181 91.4607C93.7146 99.7309 87.8199 106.64 80.3462 111.193C79.9975 111.405 79.5912 111.491 79.1907 111.438C78.7902 111.384 78.418 111.193 78.1323 110.896L66.2495 98.5051C79.3194 89.7229 90.6525 78.4083 99.6347 65.1743Z" fill="url(#paint1_linear_448_12694)"/>
<path d="M29.1618 91.5936C26.7598 89.095 23.5054 87.6919 20.1126 87.6919C16.7198 87.6919 13.4654 89.095 11.0634 91.5936C5.17134 97.7355 3.72346 115.376 3.65948 116.123C3.63871 116.386 3.6706 116.651 3.75313 116.901C3.83566 117.15 3.96702 117.379 4.13889 117.573C4.31077 117.767 4.5194 117.922 4.75157 118.027C4.98374 118.133 5.23438 118.187 5.4876 118.186C5.53696 118.186 5.58815 118.186 5.63751 118.186C6.35413 118.125 23.2716 116.615 29.1618 110.471C31.5596 107.966 32.9063 104.572 32.9063 101.032C32.9063 97.4931 31.5596 94.0985 29.1618 91.5936Z" fill="url(#paint2_linear_448_12694)"/>
<path d="M104.237 44.9868C109.589 32.64 112.679 19.3582 113.347 5.8267C113.361 5.55947 113.322 5.29202 113.231 5.04175C113.14 4.79148 112.999 4.564 112.818 4.37413C112.636 4.18414 112.418 4.03596 112.178 3.93912C111.938 3.84227 111.681 3.7989 111.424 3.81179C98.4093 4.44301 85.6258 7.62608 73.7422 13.1944L104.237 44.9868Z" fill="url(#paint3_linear_448_12694)"/>
<path d="M70.2537 14.9478C34.1848 33.772 19.9181 69.5656 19.7352 70.0384C19.6017 70.3851 19.5688 70.765 19.6406 71.1311C19.7125 71.4971 19.8859 71.833 20.1393 72.0971L47.8573 101.002C48.1119 101.267 48.4362 101.449 48.7895 101.523C49.1427 101.597 49.5091 101.561 49.8426 101.419C50.2942 101.228 84.4545 86.1786 102.549 48.6159L70.2537 14.9478ZM63.9868 66.7177C61.8174 66.7177 59.6967 66.0469 57.8929 64.7901C56.0891 63.5334 54.6832 61.7471 53.853 59.6571C53.0228 57.5672 52.8056 55.2675 53.2289 53.0488C53.6521 50.8302 54.6968 48.7922 56.2308 47.1927C57.7648 45.5931 59.7192 44.5038 61.8469 44.0625C63.9747 43.6211 66.1801 43.8476 68.1844 44.7133C70.1887 45.579 71.9018 47.045 73.107 48.9259C74.3123 50.8067 74.9556 53.0181 74.9556 55.2802C74.9556 58.3136 73.8 61.2228 71.7429 63.3677C69.6859 65.5127 66.8959 66.7177 63.9868 66.7177Z" fill="url(#paint4_linear_448_12694)"/>
<defs>
<linearGradient id="paint0_linear_448_12694" x1="10.1172" y1="35.0099" x2="54.4994" y2="35.0099" gradientUnits="userSpaceOnUse">
<stop stop-color="#11CDEF"/>
<stop offset="1" stop-color="#1171EF"/>
</linearGradient>
<linearGradient id="paint1_linear_448_12694" x1="66.2495" y1="88.3138" x2="100.602" y2="88.3138" gradientUnits="userSpaceOnUse">
<stop stop-color="#11CDEF"/>
<stop offset="1" stop-color="#1171EF"/>
</linearGradient>
<linearGradient id="paint2_linear_448_12694" x1="3.65332" y1="102.939" x2="32.9063" y2="102.939" gradientUnits="userSpaceOnUse">
<stop stop-color="#11CDEF"/>
<stop offset="1" stop-color="#1171EF"/>
</linearGradient>
<linearGradient id="paint3_linear_448_12694" x1="73.7422" y1="24.3982" x2="113.35" y2="24.3982" gradientUnits="userSpaceOnUse">
<stop stop-color="#11CDEF"/>
<stop offset="1" stop-color="#1171EF"/>
</linearGradient>
<linearGradient id="paint4_linear_448_12694" x1="19.6035" y1="58.2543" x2="102.549" y2="58.2543" gradientUnits="userSpaceOnUse">
<stop stop-color="#11CDEF"/>
<stop offset="1" stop-color="#1171EF"/>
</linearGradient>
</defs>
</svg>
