<svg width="1800" height="964" viewBox="0 0 1200 664" fill="none" xmlns="http://www.w3.org/2000/svg">
<path d="M1200 0H0V664H1200V0Z" fill="url(#paint0_linear_1010_16162)"/>
<path d="M861.144 198.17L867.907 174.545H875.829L865.147 210.267H856.93L846.27 174.545H854.086L861.144 198.17ZM879.768 210.267V184.012H887.711V210.267H879.768ZM879.347 173.58C879.347 172.937 879.46 172.338 879.684 171.783C879.909 171.228 880.218 170.746 880.611 170.337C881.018 169.913 881.482 169.584 882.002 169.351C882.536 169.117 883.111 169 883.73 169C884.334 169 884.902 169.117 885.436 169.351C885.97 169.584 886.44 169.906 886.847 170.315C887.255 170.724 887.578 171.213 887.817 171.783C888.055 172.338 888.175 172.937 888.175 173.58C888.175 174.238 888.055 174.844 887.817 175.399C887.578 175.955 887.248 176.437 886.826 176.846C886.419 177.255 885.948 177.576 885.415 177.81C884.881 178.029 884.319 178.139 883.73 178.139C883.098 178.139 882.507 178.022 881.96 177.788C881.426 177.554 880.963 177.233 880.569 176.824C880.19 176.415 879.888 175.933 879.663 175.377C879.453 174.822 879.347 174.223 879.347 173.58ZM898.203 198.433C897.473 198.126 896.778 197.79 896.118 197.424C895.458 197.059 894.875 196.592 894.369 196.022C893.863 195.452 893.456 194.751 893.147 193.918C892.852 193.071 892.705 192.011 892.705 190.74C892.705 189.601 892.936 188.563 893.399 187.628C893.878 186.693 894.559 185.897 895.444 185.239C896.328 184.582 897.41 184.078 898.688 183.727C899.966 183.362 901.42 183.179 903.049 183.179C903.836 183.179 904.615 183.23 905.388 183.333C906.161 183.435 906.898 183.567 907.6 183.727C908.316 183.873 908.97 184.041 909.559 184.231C910.164 184.407 910.683 184.567 911.118 184.713C911.554 184.86 911.891 184.984 912.129 185.086C912.369 185.174 912.481 185.21 912.467 185.196L911.035 190.433V190.455C910.992 190.455 910.838 190.411 910.571 190.324C910.318 190.236 909.981 190.127 909.559 189.995C909.138 189.864 908.661 189.725 908.127 189.579C907.594 189.418 907.045 189.272 906.483 189.14C905.921 189.009 905.36 188.899 904.798 188.812C904.236 188.724 903.716 188.68 903.239 188.68C902.578 188.68 902.031 188.731 901.596 188.834C901.174 188.921 900.837 189.06 900.585 189.25C900.331 189.425 900.156 189.659 900.058 189.951C899.959 190.229 899.91 190.558 899.91 190.937C899.91 191.186 899.938 191.398 899.994 191.573C900.051 191.748 900.141 191.909 900.268 192.055C900.408 192.187 900.591 192.311 900.816 192.428C901.055 192.545 901.35 192.676 901.701 192.822L906.146 194.597C907.256 195.036 908.225 195.518 909.054 196.044C909.897 196.57 910.599 197.147 911.16 197.775C911.737 198.403 912.165 199.097 912.446 199.857C912.741 200.602 912.888 201.435 912.888 202.355C912.888 204.006 912.579 205.38 911.961 206.476C911.357 207.557 910.564 208.426 909.58 209.084C908.598 209.726 907.487 210.179 906.251 210.442C905.015 210.72 903.766 210.859 902.502 210.859C901.617 210.859 900.76 210.8 899.931 210.683C899.102 210.566 898.323 210.42 897.593 210.245C896.862 210.07 896.195 209.88 895.591 209.675C894.987 209.471 894.467 209.288 894.032 209.127C893.611 208.952 893.281 208.813 893.042 208.711C892.817 208.594 892.719 208.543 892.747 208.558L894.18 203.21C894.208 203.21 894.348 203.261 894.6 203.364C894.867 203.451 895.212 203.575 895.633 203.736C896.055 203.897 896.539 204.065 897.087 204.24C897.634 204.416 898.203 204.584 898.793 204.744C899.397 204.905 899.994 205.036 900.585 205.139C901.189 205.241 901.75 205.292 902.27 205.292C902.958 205.292 903.512 205.241 903.934 205.139C904.356 205.036 904.678 204.876 904.903 204.657C905.128 204.423 905.275 204.131 905.346 203.78C905.43 203.429 905.472 203.013 905.472 202.531C905.472 202.224 905.297 201.91 904.945 201.588C904.595 201.252 904.046 200.924 903.302 200.602L898.203 198.433ZM918.029 210.267V184.012H925.972V210.267H918.029ZM917.608 173.58C917.608 172.937 917.72 172.338 917.945 171.783C918.169 171.228 918.479 170.746 918.871 170.337C919.28 169.913 919.743 169.584 920.262 169.351C920.796 169.117 921.372 169 921.99 169C922.594 169 923.163 169.117 923.697 169.351C924.23 169.584 924.701 169.906 925.108 170.315C925.515 170.724 925.838 171.213 926.077 171.783C926.316 172.338 926.435 172.937 926.435 173.58C926.435 174.238 926.316 174.844 926.077 175.399C925.838 175.955 925.508 176.437 925.087 176.846C924.679 177.255 924.209 177.576 923.675 177.81C923.141 178.029 922.58 178.139 921.99 178.139C921.358 178.139 920.768 178.022 920.22 177.788C919.687 177.554 919.223 177.233 918.83 176.824C918.451 176.415 918.149 175.933 917.924 175.377C917.713 174.822 917.608 174.223 917.608 173.58ZM943.164 205.248C943.908 205.248 944.562 205.102 945.124 204.81C945.686 204.503 946.156 204.021 946.535 203.364C946.914 202.706 947.202 201.859 947.399 200.821C947.596 199.769 947.694 198.498 947.694 197.008C947.694 195.532 947.596 194.269 947.399 193.217C947.202 192.15 946.914 191.281 946.535 190.609C946.156 189.937 945.686 189.447 945.124 189.14C944.562 188.819 943.908 188.658 943.164 188.658C942.42 188.658 941.766 188.819 941.204 189.14C940.643 189.447 940.172 189.937 939.793 190.609C939.428 191.281 939.147 192.143 938.95 193.195C938.767 194.247 938.677 195.518 938.677 197.008C938.677 197.622 938.69 198.25 938.719 198.893C938.747 199.536 938.81 200.164 938.909 200.778C939.02 201.377 939.175 201.946 939.371 202.487C939.568 203.013 939.828 203.48 940.151 203.89C940.488 204.299 940.902 204.627 941.394 204.876C941.886 205.11 942.475 205.234 943.164 205.248ZM955.615 197.074C955.615 199.295 955.335 201.26 954.773 202.969C954.225 204.678 953.417 206.118 952.35 207.286C951.282 208.441 949.976 209.317 948.431 209.916C946.9 210.515 945.144 210.815 943.164 210.815C941.197 210.815 939.442 210.515 937.896 209.916C936.352 209.317 935.046 208.441 933.978 207.286C932.911 206.118 932.096 204.678 931.534 202.969C930.972 201.26 930.691 199.295 930.691 197.074C930.691 194.824 930.972 192.837 931.534 191.113C932.11 189.374 932.932 187.92 933.999 186.752C935.067 185.568 936.373 184.677 937.918 184.078C939.463 183.464 941.204 183.157 943.143 183.157C945.081 183.157 946.816 183.464 948.347 184.078C949.892 184.677 951.198 185.568 952.266 186.752C953.347 187.92 954.176 189.374 954.751 191.113C955.327 192.837 955.615 194.824 955.615 197.074ZM968.32 187.321C968.952 185.89 969.78 184.845 970.806 184.187C971.831 183.515 973.124 183.179 974.682 183.179C977.815 183.179 980.097 184.063 981.53 185.831C982.977 187.599 983.7 190.302 983.7 193.94V210.267H975.736V193.326C975.736 192.42 975.666 191.668 975.525 191.069C975.399 190.47 975.196 189.995 974.914 189.644C974.647 189.294 974.303 189.045 973.882 188.899C973.475 188.753 972.997 188.68 972.449 188.68C971.452 188.68 970.651 188.899 970.047 189.338C969.458 189.776 969.008 190.309 968.699 190.937V210.267H960.735V184.012H966.782L968.32 187.321Z" fill="white"/>
<path d="M1128 405.502V390.425L1122.89 377.644H1112.3L1115.61 389.956H1109.24V405.502H1128ZM1104.48 405.502V390.425L1099.36 377.644H1088.78L1092.09 389.956H1085.71V405.502H1104.48Z" fill="white"/>
<path d="M849.125 365.06V342.942H846V337.684H857.513V342.942H854.389V365.06H849.125ZM857.873 365.06L860.414 337.684H869.342L871.839 365.06H866.86L866.486 360.643H863.316L862.987 365.06H857.873ZM863.689 356.272H866.082L864.931 342.351H864.691L863.689 356.272ZM872.692 365.06L875.517 350.548L873.274 337.669H878.419L879.779 347.08L880.991 337.669H886.15L883.906 350.548L886.718 365.06H881.394L879.734 354.359L878.03 365.06H872.692ZM900.071 365.387C898.436 365.387 897.15 364.728 896.213 363.412C895.286 362.095 894.823 360.28 894.823 357.968C894.823 356.319 894.962 354.95 895.241 353.861C895.53 352.772 895.929 351.865 896.437 351.139C896.946 350.413 897.529 349.781 898.187 349.242L898.067 348.93C897.649 347.852 897.279 346.825 896.961 345.851C896.652 344.866 896.497 343.855 896.497 342.818C896.497 341.77 896.711 340.842 897.14 340.033C897.569 339.224 898.162 338.592 898.92 338.136C899.688 337.669 900.564 337.436 901.551 337.436C902.528 337.436 903.415 337.659 904.213 338.104C905.021 338.54 905.664 339.198 906.142 340.08C906.62 340.962 906.86 342.076 906.86 343.425C906.86 344.886 906.596 346.11 906.067 347.095C905.549 348.08 904.767 349.029 903.719 349.941L905.155 353.706C905.744 352.161 906.59 350.963 907.697 350.112L909.775 353.488C908.619 354.452 907.652 356.024 906.874 358.2L909.507 365.06H904.422L903.839 363.583C903.45 364.08 902.927 364.506 902.269 364.858C901.621 365.211 900.889 365.387 900.071 365.387ZM901.192 342.335C901.192 342.605 901.257 343.004 901.387 343.533C901.517 344.051 901.821 344.953 902.299 346.239C902.489 346.033 902.658 345.705 902.808 345.259C902.957 344.814 903.032 344.202 903.032 343.425C903.032 342.626 902.937 342.066 902.748 341.744C902.569 341.423 902.329 341.262 902.03 341.262C901.741 341.262 901.527 341.376 901.387 341.604C901.257 341.822 901.192 342.066 901.192 342.335ZM899.398 358.636C899.398 360.482 899.901 361.405 900.908 361.405C901.317 361.405 901.646 361.25 901.895 360.938C902.144 360.617 902.314 360.285 902.404 359.943L899.892 353.581C899.563 354.307 899.398 355.578 899.398 357.392V358.636ZM918.583 365.06V337.684H929.11V343.02H923.877V347.375H928.842V352.648H923.877V365.06H918.583ZM930.576 365.06V337.684H935.66V365.06H930.576ZM937.754 365.06V337.684H943.167L945.589 350.797V337.684H950.673V365.06H945.529L942.897 351.373V365.06H937.754ZM952.288 365.06L954.831 337.684H963.757L966.254 365.06H961.275L960.901 360.643H957.731L957.402 365.06H952.288ZM958.105 356.272H960.497L959.346 342.351H959.107L958.105 356.272ZM967.869 365.06V337.684H973.283L975.705 350.797V337.684H980.789V365.06H975.645L973.013 351.373V365.06H967.869ZM989.252 365.309C987.348 365.309 985.814 364.693 984.647 363.458C983.491 362.224 982.912 360.498 982.912 358.279V345.648C982.912 342.994 983.415 340.962 984.422 339.551C985.44 338.141 987.089 337.436 989.373 337.436C990.619 337.436 991.725 337.674 992.692 338.151C993.669 338.628 994.436 339.344 994.995 340.298C995.553 341.241 995.832 342.433 995.832 343.875V348.604H990.599V344.56C990.599 343.741 990.499 343.191 990.299 342.911C990.1 342.62 989.791 342.476 989.373 342.476C988.884 342.476 988.555 342.662 988.386 343.036C988.216 343.398 988.131 343.886 988.131 344.497V358.2C988.131 358.958 988.236 359.492 988.445 359.803C988.664 360.114 988.974 360.27 989.373 360.27C989.821 360.27 990.135 360.078 990.315 359.694C990.504 359.31 990.599 358.813 990.599 358.2V353.27H995.892V358.45C995.892 360.855 995.309 362.603 994.142 363.691C992.977 364.77 991.346 365.309 989.252 365.309ZM997.417 365.06V337.684H1002.5V365.06H997.417ZM1003.88 365.06L1006.42 337.684H1015.35L1017.85 365.06H1012.87L1012.49 360.643H1009.32L1008.99 365.06H1003.88ZM1009.69 356.272H1012.08L1010.93 342.351H1010.7L1009.69 356.272ZM1019.45 365.06V337.684H1024.72V360.394H1030.13V365.06H1019.45Z" fill="white"/>
<path d="M853.992 406C851.306 406 849.367 405.304 848.174 403.913C846.993 402.521 846.402 400.307 846.402 397.27V394.279H852.22V398.105C852.22 398.812 852.32 399.368 852.521 399.774C852.733 400.168 853.095 400.365 853.607 400.365C854.143 400.365 854.511 400.203 854.711 399.879C854.922 399.553 855.028 399.02 855.028 398.279C855.028 397.339 854.939 396.557 854.761 395.931C854.583 395.293 854.271 394.69 853.825 394.123C853.391 393.543 852.783 392.871 852.003 392.106L849.362 389.497C847.388 387.561 846.402 385.347 846.402 382.854C846.402 380.245 846.982 378.257 848.141 376.889C849.311 375.521 850.999 374.838 853.206 374.838C855.903 374.838 857.815 375.585 858.941 377.081C860.078 378.576 860.646 380.848 860.646 383.898H854.661V381.794C854.661 381.376 854.544 381.051 854.31 380.819C854.087 380.588 853.781 380.472 853.391 380.472C852.922 380.472 852.577 380.611 852.354 380.889C852.142 381.156 852.036 381.504 852.036 381.932C852.036 382.361 852.147 382.825 852.37 383.324C852.593 383.822 853.034 384.396 853.691 385.045L857.085 388.437C857.765 389.109 858.389 389.821 858.958 390.575C859.526 391.317 859.982 392.186 860.329 393.184C860.674 394.168 860.846 395.375 860.846 396.801C860.846 399.676 860.334 401.93 859.308 403.565C858.294 405.188 856.522 406 853.992 406ZM878.868 405.721V375.116H890.637V381.028H884.853V386.993H890.403V392.749H884.853V399.756H891.022V405.721H878.868ZM909.026 405.721V375.116H918.053C919.558 375.116 920.695 375.476 921.464 376.194C922.233 376.902 922.746 377.898 923.002 379.185C923.27 380.46 923.404 381.961 923.404 383.689C923.404 385.358 923.197 386.692 922.784 387.688C922.383 388.685 921.62 389.375 920.495 389.758C921.42 389.955 922.066 390.436 922.434 391.201C922.812 391.954 923.002 392.934 923.002 394.139V405.721H917.201V393.74C917.201 392.847 917.023 392.296 916.666 392.088C916.321 391.867 915.757 391.758 914.978 391.758V405.721H909.026ZM915.011 386.454H916.432C917.246 386.454 917.652 385.532 917.652 383.689C917.652 382.495 917.563 381.712 917.385 381.341C917.206 380.97 916.872 380.785 916.382 380.785H915.011V386.454ZM944.1 405.721L940.472 375.099H946.072L948.228 395.931L950.151 375.099H955.752L952.123 405.721H944.1ZM973.255 405.721V375.116H978.938V405.721H973.255ZM1004.18 406C1002.05 406 1000.34 405.31 999.033 403.931C997.74 402.55 997.094 400.62 997.094 398.14V384.019C997.094 381.051 997.657 378.779 998.782 377.203C999.919 375.626 1001.76 374.838 1004.32 374.838C1005.71 374.838 1006.95 375.104 1008.03 375.637C1009.12 376.17 1009.98 376.971 1010.6 378.038C1011.23 379.092 1011.53 380.426 1011.53 382.037V387.323H1005.69V382.802C1005.69 381.886 1005.58 381.272 1005.35 380.959C1005.13 380.634 1004.78 380.472 1004.32 380.472C1003.77 380.472 1003.4 380.68 1003.21 381.098C1003.02 381.504 1002.93 382.048 1002.93 382.733V398.053C1002.93 398.899 1003.05 399.496 1003.28 399.843C1003.52 400.191 1003.87 400.365 1004.32 400.365C1004.82 400.365 1005.17 400.151 1005.37 399.722C1005.58 399.293 1005.69 398.736 1005.69 398.053V392.541H1011.61V398.33C1011.61 401.021 1010.95 402.974 1009.65 404.191C1008.34 405.397 1006.52 406 1004.18 406ZM1029.63 405.721V375.116H1041.4V381.028H1035.61V386.993H1041.16V392.749H1035.61V399.756H1041.78V405.721H1029.63ZM1066.77 406C1064.09 406 1062.14 405.304 1060.96 403.913C1059.77 402.521 1059.19 400.307 1059.19 397.27V394.279H1065V398.105C1065 398.812 1065.1 399.368 1065.3 399.774C1065.52 400.168 1065.87 400.365 1066.39 400.365C1066.93 400.365 1067.29 400.203 1067.49 399.879C1067.7 399.553 1067.81 399.02 1067.81 398.279C1067.81 397.339 1067.72 396.557 1067.54 395.931C1067.37 395.293 1067.05 394.69 1066.6 394.123C1066.17 393.543 1065.56 392.871 1064.79 392.106L1062.14 389.497C1060.17 387.561 1059.19 385.347 1059.19 382.854C1059.19 380.245 1059.76 378.257 1060.92 376.889C1062.09 375.521 1063.78 374.838 1065.98 374.838C1068.68 374.838 1070.59 375.585 1071.72 377.081C1072.86 378.576 1073.43 380.848 1073.43 383.898H1067.44V381.794C1067.44 381.376 1067.32 381.051 1067.09 380.819C1066.86 380.588 1066.56 380.472 1066.17 380.472C1065.7 380.472 1065.35 380.611 1065.14 380.889C1064.92 381.156 1064.81 381.504 1064.81 381.932C1064.81 382.361 1064.93 382.825 1065.15 383.324C1065.37 383.822 1065.81 384.396 1066.47 385.045L1069.87 388.437C1070.55 389.109 1071.17 389.821 1071.74 390.575C1072.3 391.317 1072.76 392.186 1073.11 393.184C1073.45 394.168 1073.62 395.375 1073.62 396.801C1073.62 399.676 1073.11 401.93 1072.09 403.565C1071.07 405.188 1069.3 406 1066.77 406Z" fill="white"/>
<path d="M936.609 279.595L938.433 259.955H944.838L946.63 279.595H943.057L942.79 276.426H940.515L940.279 279.595H936.609ZM940.783 273.29H942.499L941.673 263.303H941.501L940.783 273.29ZM952.766 279.595V259.955H956.414V279.595H952.766Z" fill="white"/>
<path d="M882.916 279.981V260.341H888.033C889.406 260.341 890.404 260.691 891.026 261.39C891.655 262.082 891.97 263.227 891.97 264.826V265.686C891.97 266.609 891.809 267.357 891.487 267.929C891.173 268.502 890.69 268.878 890.039 269.057C890.89 269.279 891.459 269.804 891.744 270.629C892.038 271.448 892.185 272.448 892.185 273.632C892.185 274.904 892.07 276.015 891.841 276.968C891.612 277.92 891.198 278.661 890.597 279.189C889.996 279.717 889.141 279.981 888.033 279.981H882.916ZM886.606 267.739H887.378C887.729 267.739 887.955 267.598 888.054 267.316C888.155 267.032 888.204 266.694 888.204 266.3V264.324C888.204 263.692 887.937 263.376 887.4 263.376H886.606V267.739ZM886.982 276.521C887.962 276.521 888.452 276.038 888.452 275.071V272.616C888.452 272.058 888.369 271.619 888.204 271.299C888.047 270.972 887.747 270.808 887.304 270.808H886.606V276.5C886.763 276.515 886.888 276.521 886.982 276.521ZM896.466 280.16C895.607 280.16 894.949 279.973 894.492 279.601C894.04 279.23 893.733 278.713 893.568 278.05C893.404 277.381 893.322 276.6 893.322 275.707V263.242H897.184V275.238C897.184 275.908 897.234 276.376 897.334 276.645C897.435 276.905 897.67 277.035 898.042 277.035C898.442 277.035 898.693 276.849 898.793 276.477C898.901 276.105 898.954 275.625 898.954 275.037V263.242H902.784V279.981H898.943V278.196C898.7 278.835 898.407 279.323 898.064 279.657C897.728 279.992 897.195 280.16 896.466 280.16ZM904.307 262.216V258.89H908.148V262.216H904.307ZM904.307 279.981V263.242H908.148V279.981H904.307ZM909.672 279.981V260.341H913.577V279.981H909.672ZM918.286 280.16C917.542 280.16 916.952 280.018 916.516 279.736C916.079 279.453 915.754 279.063 915.54 278.563C915.325 278.065 915.182 277.482 915.11 276.812C915.046 276.143 915.014 275.424 915.014 274.658V267.382C915.014 266.095 915.232 265.054 915.668 264.258C916.112 263.461 916.859 263.064 917.91 263.064C918.69 263.064 919.288 263.239 919.702 263.588C920.124 263.931 920.449 264.41 920.678 265.027V260.341H924.583V279.981H920.678V278.207C920.463 278.809 920.178 279.285 919.82 279.635C919.469 279.985 918.959 280.16 918.286 280.16ZM919.756 277.035C920.12 277.035 920.364 276.882 920.485 276.577C920.613 276.272 920.678 275.725 920.678 274.937V267.895C920.678 267.502 920.621 267.114 920.506 266.735C920.4 266.348 920.156 266.155 919.777 266.155C919.362 266.155 919.101 266.337 918.994 266.701C918.887 267.066 918.833 267.464 918.833 267.895V274.937C918.833 276.336 919.14 277.035 919.756 277.035Z" fill="white"/>
<path d="M847.506 278.802V268.751L850.916 260.229H857.971L855.764 268.437H860.011V278.802H847.506ZM863.188 278.802V268.751L866.597 260.229H873.652L871.446 268.437H875.692V278.802H863.188Z" fill="white"/>
<path d="M973.501 281.465V261.825H978.693C980.052 261.825 981.075 262.219 981.761 263.008C982.448 263.789 982.791 264.934 982.791 266.445V275.64C982.791 277.5 982.477 278.936 981.848 279.948C981.225 280.959 980.131 281.465 978.565 281.465H973.501ZM977.299 277.994H977.953C978.647 277.994 978.993 277.646 978.993 276.946V266.813C978.993 266.158 978.908 265.738 978.736 265.552C978.572 265.359 978.232 265.263 977.717 265.263H977.299V277.994ZM984.272 281.465V264.727H988.177V266.59C988.363 265.943 988.692 265.437 989.164 265.073C989.636 264.708 990.23 264.526 990.945 264.526V267.862C990.63 267.862 990.254 267.899 989.818 267.974C989.382 268.041 988.999 268.138 988.67 268.264C988.341 268.383 988.177 268.517 988.177 268.665V281.465H984.272ZM991.867 263.7V260.374H995.708V263.7H991.867ZM991.867 281.465V264.727H995.708V281.465H991.867ZM999.28 281.465L996.695 264.727H1000.55L1001.47 275.908L1002.51 264.727H1006.35L1003.72 281.465H999.28ZM1011.87 281.644C1010.72 281.644 1009.81 281.42 1009.13 280.974C1008.45 280.528 1007.97 279.884 1007.67 279.043C1007.37 278.203 1007.23 277.191 1007.23 276.008V269.28C1007.23 267.725 1007.66 266.549 1008.51 265.753C1009.38 264.949 1010.55 264.548 1012.06 264.548C1015.15 264.548 1016.69 266.125 1016.69 269.28V270.496C1016.69 271.969 1016.68 272.958 1016.65 273.464H1011.07V276.7C1011.07 276.998 1011.09 277.292 1011.12 277.582C1011.16 277.864 1011.24 278.099 1011.36 278.285C1011.49 278.471 1011.7 278.564 1011.98 278.564C1012.37 278.564 1012.62 278.385 1012.72 278.028C1012.82 277.663 1012.87 277.191 1012.87 276.611V275.004H1016.69V275.953C1016.69 277.202 1016.54 278.251 1016.24 279.1C1015.95 279.94 1015.44 280.576 1014.74 281.008C1014.04 281.432 1013.08 281.644 1011.87 281.644ZM1011.05 271.478H1012.87V269.223C1012.87 268.621 1012.8 268.189 1012.66 267.929C1012.51 267.661 1012.3 267.527 1012.01 267.527C1011.71 267.527 1011.47 267.653 1011.29 267.907C1011.13 268.159 1011.05 268.599 1011.05 269.223V271.478ZM1018.09 281.465V264.727H1021.93V266.858C1022.07 266.218 1022.33 265.675 1022.72 265.229C1023.11 264.774 1023.66 264.548 1024.35 264.548C1025.47 264.548 1026.28 264.905 1026.78 265.619C1027.28 266.333 1027.54 267.311 1027.54 268.554V281.465H1023.75V268.967C1023.75 268.64 1023.69 268.338 1023.56 268.063C1023.43 267.781 1023.21 267.639 1022.9 267.639C1022.6 267.639 1022.38 267.747 1022.24 267.963C1022.11 268.171 1022.02 268.435 1021.98 268.755C1021.94 269.067 1021.93 269.38 1021.93 269.692V281.465H1018.09Z" fill="white"/>
<path d="M855.593 327.862C852.388 327.862 850.075 327.032 848.652 325.372C847.243 323.712 846.538 321.07 846.538 317.447V313.878H853.479V318.443C853.479 319.286 853.599 319.95 853.838 320.434C854.091 320.905 854.523 321.14 855.135 321.14C855.773 321.14 856.211 320.946 856.451 320.559C856.704 320.172 856.83 319.535 856.83 318.649C856.83 317.529 856.724 316.596 856.511 315.849C856.298 315.088 855.926 314.369 855.394 313.691C854.876 313 854.15 312.197 853.22 311.285L850.068 308.172C847.715 305.862 846.538 303.221 846.538 300.246C846.538 297.135 847.229 294.762 848.612 293.131C850.009 291.498 852.023 290.683 854.656 290.683C857.874 290.683 860.154 291.575 861.497 293.359C862.854 295.143 863.531 297.854 863.531 301.492H856.391V298.981C856.391 298.483 856.252 298.096 855.972 297.819C855.706 297.543 855.34 297.405 854.876 297.405C854.316 297.405 853.905 297.57 853.639 297.902C853.386 298.22 853.259 298.635 853.259 299.147C853.259 299.659 853.392 300.212 853.659 300.807C853.925 301.402 854.45 302.087 855.234 302.861L859.283 306.907C860.095 307.709 860.839 308.56 861.517 309.459C862.196 310.344 862.74 311.381 863.153 312.571C863.565 313.747 863.771 315.185 863.771 316.886C863.771 320.317 863.159 323.007 861.936 324.957C860.726 326.894 858.612 327.862 855.593 327.862ZM870.373 327.53V315.517L864.768 291.015H871.73L873.684 303.38L875.639 291.015H882.58L876.995 315.517V327.53H870.373ZM892.693 327.862C889.488 327.862 887.174 327.032 885.751 325.372C884.342 323.712 883.637 321.07 883.637 317.447V313.878H890.578V318.443C890.578 319.286 890.698 319.95 890.937 320.434C891.19 320.905 891.622 321.14 892.233 321.14C892.872 321.14 893.311 320.946 893.55 320.559C893.803 320.172 893.929 319.535 893.929 318.649C893.929 317.529 893.823 316.596 893.61 315.849C893.397 315.088 893.024 314.369 892.493 313.691C891.974 313 891.25 312.197 890.319 311.285L887.168 308.172C884.814 305.862 883.637 303.221 883.637 300.246C883.637 297.135 884.328 294.762 885.712 293.131C887.108 291.498 889.122 290.683 891.755 290.683C894.973 290.683 897.253 291.575 898.596 293.359C899.952 295.143 900.631 297.854 900.631 301.492H893.49V298.981C893.49 298.483 893.351 298.096 893.071 297.819C892.805 297.543 892.44 297.405 891.974 297.405C891.416 297.405 891.004 297.57 890.737 297.902C890.485 298.22 890.359 298.635 890.359 299.147C890.359 299.659 890.492 300.212 890.757 300.807C891.023 301.402 891.549 302.087 892.333 302.861L896.383 306.907C897.194 307.709 897.938 308.56 898.617 309.459C899.294 310.344 899.839 311.381 900.252 312.571C900.664 313.747 900.87 315.185 900.87 316.886C900.87 320.317 900.258 323.007 899.035 324.957C897.825 326.894 895.711 327.862 892.693 327.862ZM906.236 327.53V298.027H902.067V291.015H917.425V298.027H913.256V327.53H906.236ZM919.38 327.53V291.015H933.421V298.069H926.52V305.185H933.143V312.053H926.52V320.413H933.881V327.53H919.38ZM936.214 327.53V291.015H946.905L949.856 313.277L952.789 291.015H963.579V327.53H957.157V301.222L953.128 327.53H946.825L942.556 301.222V327.53H936.214Z" fill="white"/>
<path d="M969.158 328.04V312.738H975.043V315.72H972.117V318.155H974.892V321.102H972.117V328.04H969.158ZM983.519 328.18C982.343 328.18 981.442 327.811 980.818 327.075C980.2 326.333 979.89 325.264 979.89 323.867V316.598C979.89 315.288 980.197 314.294 980.81 313.616C981.429 312.937 982.331 312.599 983.519 312.599C984.705 312.599 985.605 312.937 986.218 313.616C986.836 314.294 987.146 315.288 987.146 316.598V323.867C987.146 325.264 986.834 326.333 986.21 327.075C985.591 327.811 984.694 328.18 983.519 328.18ZM983.543 325.362C983.989 325.362 984.212 324.913 984.212 324.015V316.546C984.212 315.792 983.995 315.415 983.56 315.415C983.07 315.415 982.825 315.801 982.825 316.572V324.032C982.825 324.508 982.88 324.849 982.992 325.058C983.103 325.261 983.287 325.362 983.543 325.362ZM992.345 328.04V312.738H996.859C997.611 312.738 998.179 312.917 998.564 313.277C998.949 313.63 999.205 314.128 999.333 314.772C999.466 315.409 999.534 316.16 999.534 317.024C999.534 317.858 999.43 318.525 999.225 319.023C999.023 319.522 998.642 319.867 998.079 320.059C998.541 320.157 998.865 320.398 999.048 320.78C999.238 321.157 999.333 321.646 999.333 322.249V328.04H996.433V322.049C996.433 321.603 996.344 321.328 996.165 321.224C995.992 321.113 995.711 321.058 995.321 321.058V328.04H992.345ZM995.338 318.406H996.048C996.455 318.406 996.658 317.945 996.658 317.024C996.658 316.427 996.613 316.036 996.524 315.85C996.435 315.665 996.268 315.572 996.023 315.572H995.338V318.406Z" fill="white"/>
<path d="M194.379 187.189V207.795H187.921V176.809H196.978L204.776 199.412L212.907 176.809H221.984V207.795H215.525V187.189L208.634 207.795H201.35L194.379 187.189ZM228.226 207.795V185.021H235.649V207.795H228.226ZM227.832 175.973C227.832 175.415 227.937 174.896 228.147 174.414C228.357 173.933 228.646 173.514 229.013 173.16C229.393 172.792 229.827 172.507 230.312 172.304C230.811 172.101 231.349 172 231.927 172C232.492 172 233.023 172.101 233.522 172.304C234.021 172.507 234.461 172.786 234.841 173.141C235.222 173.495 235.524 173.92 235.747 174.414C235.97 174.896 236.081 175.415 236.081 175.973C236.081 176.543 235.97 177.069 235.747 177.551C235.524 178.032 235.215 178.451 234.821 178.805C234.441 179.16 234.001 179.439 233.502 179.642C233.003 179.832 232.478 179.927 231.927 179.927C231.337 179.927 230.785 179.826 230.273 179.623C229.774 179.42 229.341 179.141 228.973 178.786C228.619 178.432 228.337 178.013 228.127 177.532C227.93 177.05 227.832 176.531 227.832 175.973ZM245.454 197.53C244.771 197.263 244.122 196.972 243.504 196.655C242.888 196.338 242.342 195.933 241.87 195.439C241.397 194.944 241.017 194.336 240.728 193.614C240.452 192.879 240.315 191.96 240.315 190.857C240.315 189.869 240.531 188.969 240.965 188.158C241.411 187.347 242.048 186.656 242.874 186.086C243.702 185.516 244.712 185.078 245.907 184.774C247.101 184.458 248.46 184.299 249.982 184.299C250.717 184.299 251.446 184.343 252.168 184.432C252.89 184.521 253.579 184.635 254.236 184.774C254.905 184.901 255.515 185.047 256.066 185.211C256.631 185.364 257.116 185.503 257.524 185.63C257.93 185.756 258.245 185.864 258.469 185.953C258.691 186.029 258.796 186.061 258.784 186.048L257.445 190.591V190.61C257.405 190.61 257.261 190.572 257.011 190.496C256.775 190.42 256.46 190.325 256.066 190.211C255.673 190.097 255.226 189.977 254.728 189.85C254.229 189.71 253.716 189.584 253.191 189.47C252.666 189.356 252.141 189.261 251.616 189.185C251.091 189.108 250.606 189.07 250.159 189.07C249.543 189.07 249.03 189.115 248.624 189.203C248.23 189.28 247.915 189.4 247.679 189.565C247.443 189.717 247.278 189.92 247.186 190.173C247.095 190.414 247.049 190.699 247.049 191.028C247.049 191.244 247.075 191.428 247.128 191.58C247.18 191.732 247.265 191.871 247.383 191.998C247.515 192.112 247.685 192.22 247.895 192.321C248.118 192.422 248.394 192.537 248.722 192.663L252.876 194.203C253.914 194.583 254.819 195.001 255.594 195.458C256.381 195.914 257.038 196.414 257.563 196.959C258.101 197.504 258.502 198.106 258.764 198.765C259.039 199.412 259.177 200.134 259.177 200.932C259.177 202.364 258.889 203.556 258.311 204.506C257.746 205.444 257.005 206.198 256.086 206.768C255.167 207.326 254.131 207.719 252.975 207.947C251.82 208.188 250.652 208.308 249.471 208.308C248.643 208.308 247.843 208.257 247.068 208.156C246.294 208.055 245.565 207.928 244.883 207.776C244.2 207.624 243.577 207.459 243.012 207.281C242.447 207.104 241.962 206.946 241.555 206.806C241.161 206.654 240.853 206.534 240.63 206.445C240.42 206.344 240.328 206.299 240.354 206.312L241.693 201.674C241.719 201.674 241.85 201.718 242.087 201.807C242.337 201.883 242.658 201.991 243.052 202.13C243.446 202.269 243.898 202.415 244.41 202.567C244.922 202.719 245.454 202.865 246.005 203.004C246.57 203.144 247.128 203.258 247.679 203.347C248.243 203.435 248.768 203.48 249.254 203.48C249.897 203.48 250.416 203.435 250.809 203.347C251.203 203.258 251.505 203.118 251.715 202.928C251.925 202.726 252.063 202.472 252.129 202.168C252.208 201.864 252.246 201.503 252.246 201.084C252.246 200.818 252.082 200.546 251.755 200.267C251.426 199.976 250.915 199.69 250.218 199.412L245.454 197.53ZM267.545 197.53C266.863 197.263 266.213 196.972 265.596 196.655C264.979 196.338 264.434 195.933 263.962 195.439C263.489 194.944 263.109 194.336 262.82 193.614C262.544 192.879 262.406 191.96 262.406 190.857C262.406 189.869 262.623 188.969 263.056 188.158C263.503 187.347 264.139 186.656 264.966 186.086C265.793 185.516 266.804 185.078 267.998 184.774C269.192 184.458 270.551 184.299 272.074 184.299C272.809 184.299 273.537 184.343 274.26 184.432C274.981 184.521 275.67 184.635 276.327 184.774C276.996 184.901 277.607 185.047 278.158 185.211C278.722 185.364 279.208 185.503 279.615 185.63C280.022 185.756 280.337 185.864 280.56 185.953C280.783 186.029 280.888 186.061 280.876 186.048L279.536 190.591V190.61C279.497 190.61 279.352 190.572 279.103 190.496C278.867 190.42 278.552 190.325 278.158 190.211C277.764 190.097 277.318 189.977 276.819 189.85C276.321 189.71 275.808 189.584 275.283 189.47C274.758 189.356 274.233 189.261 273.708 189.185C273.183 189.108 272.697 189.07 272.251 189.07C271.635 189.07 271.122 189.115 270.716 189.203C270.322 189.28 270.006 189.4 269.77 189.565C269.534 189.717 269.37 189.92 269.278 190.173C269.187 190.414 269.14 190.699 269.14 191.028C269.14 191.244 269.166 191.428 269.219 191.58C269.271 191.732 269.357 191.871 269.475 191.998C269.607 192.112 269.777 192.22 269.987 192.321C270.21 192.422 270.485 192.537 270.814 192.663L274.968 194.203C276.006 194.583 276.911 195.001 277.686 195.458C278.473 195.914 279.129 196.414 279.654 196.959C280.193 197.504 280.593 198.106 280.855 198.765C281.131 199.412 281.269 200.134 281.269 200.932C281.269 202.364 280.981 203.556 280.403 204.506C279.838 205.444 279.096 206.198 278.178 206.768C277.259 207.326 276.221 207.719 275.067 207.947C273.911 208.188 272.743 208.308 271.562 208.308C270.735 208.308 269.934 208.257 269.16 208.156C268.385 208.055 267.657 207.928 266.975 207.776C266.292 207.624 265.668 207.459 265.104 207.281C264.539 207.104 264.054 206.946 263.647 206.806C263.253 206.654 262.945 206.534 262.721 206.445C262.511 206.344 262.42 206.299 262.446 206.312L263.785 201.674C263.811 201.674 263.942 201.718 264.179 201.807C264.427 201.883 264.749 201.991 265.143 202.13C265.537 202.269 265.99 202.415 266.502 202.567C267.014 202.719 267.545 202.865 268.097 203.004C268.661 203.144 269.219 203.258 269.77 203.347C270.335 203.435 270.86 203.48 271.346 203.48C271.988 203.48 272.507 203.435 272.901 203.347C273.295 203.258 273.597 203.118 273.807 202.928C274.017 202.726 274.155 202.472 274.22 202.168C274.298 201.864 274.338 201.503 274.338 201.084C274.338 200.818 274.174 200.546 273.846 200.267C273.518 199.976 273.006 199.69 272.31 199.412L267.545 197.53ZM286.073 207.795V185.021H293.496V207.795H286.073ZM285.679 175.973C285.679 175.415 285.784 174.896 285.994 174.414C286.204 173.933 286.493 173.514 286.861 173.16C287.242 172.792 287.674 172.507 288.16 172.304C288.659 172.101 289.197 172 289.775 172C290.339 172 290.871 172.101 291.37 172.304C291.869 172.507 292.308 172.786 292.689 173.141C293.069 173.495 293.372 173.92 293.594 174.414C293.818 174.896 293.93 175.415 293.93 175.973C293.93 176.543 293.818 177.069 293.594 177.551C293.372 178.032 293.063 178.451 292.669 178.805C292.289 179.16 291.849 179.439 291.35 179.642C290.852 179.832 290.326 179.927 289.775 179.927C289.184 179.927 288.633 179.826 288.121 179.623C287.622 179.42 287.189 179.141 286.822 178.786C286.467 178.432 286.185 178.013 285.975 177.532C285.778 177.05 285.679 176.531 285.679 175.973ZM309.563 203.442C310.258 203.442 310.869 203.315 311.394 203.061C311.919 202.795 312.359 202.377 312.713 201.807C313.068 201.237 313.336 200.501 313.52 199.602C313.704 198.689 313.796 197.587 313.796 196.294C313.796 195.014 313.704 193.918 313.52 193.005C313.336 192.08 313.068 191.326 312.713 190.743C312.359 190.16 311.919 189.736 311.394 189.47C310.869 189.191 310.258 189.051 309.563 189.051C308.867 189.051 308.256 189.191 307.731 189.47C307.206 189.736 306.767 190.16 306.412 190.743C306.071 191.326 305.808 192.074 305.624 192.986C305.454 193.899 305.369 195.001 305.369 196.294C305.369 196.826 305.382 197.371 305.409 197.929C305.435 198.486 305.493 199.031 305.586 199.564C305.691 200.083 305.834 200.578 306.018 201.046C306.202 201.503 306.445 201.908 306.747 202.263C307.062 202.618 307.449 202.903 307.909 203.118C308.368 203.321 308.919 203.429 309.563 203.442ZM321.2 196.351C321.2 198.277 320.937 199.982 320.412 201.465C319.9 202.947 319.145 204.196 318.148 205.209C317.15 206.211 315.929 206.971 314.485 207.491C313.054 208.01 311.413 208.27 309.563 208.27C307.725 208.27 306.084 208.01 304.641 207.491C303.197 206.971 301.976 206.211 300.978 205.209C299.981 204.196 299.22 202.947 298.694 201.465C298.17 199.982 297.907 198.277 297.907 196.351C297.907 194.399 298.17 192.676 298.694 191.18C299.232 189.672 300 188.411 300.998 187.398C301.995 186.371 303.216 185.598 304.66 185.078C306.104 184.546 307.731 184.28 309.543 184.28C311.355 184.28 312.975 184.546 314.407 185.078C315.85 185.598 317.071 186.371 318.069 187.398C319.079 188.411 319.854 189.672 320.392 191.18C320.93 192.676 321.2 194.399 321.2 196.351ZM333.072 187.892C333.663 186.65 334.437 185.744 335.395 185.174C336.354 184.591 337.561 184.299 339.018 184.299C341.946 184.299 344.079 185.066 345.418 186.599C346.769 188.133 347.446 190.477 347.446 193.633V207.795H340.002V193.1C340.002 192.315 339.937 191.662 339.806 191.143C339.687 190.623 339.498 190.211 339.235 189.907C338.985 189.603 338.664 189.387 338.27 189.261C337.89 189.134 337.444 189.07 336.931 189.07C335.999 189.07 335.251 189.261 334.686 189.641C334.135 190.021 333.715 190.483 333.426 191.028V207.795H325.984V185.021H331.634L333.072 187.892Z" fill="white"/>
<path d="M142.513 323.235V274.728H162.609V284.181H152.618V291.899H162.096V301.241H152.618V323.235H142.513ZM165.408 323.235V274.728H175.113V323.235H165.408ZM179.11 323.235V274.728H189.444L194.069 297.962V274.728H203.775V323.235H193.954L188.93 298.982V323.235H179.11ZM206.858 323.235L211.711 274.728H228.753L233.521 323.235H224.014L223.301 315.408H217.249L216.621 323.235H206.858ZM217.962 307.663H222.53L220.332 282.996H219.875L217.962 307.663ZM236.604 323.235V274.728H246.938L251.563 297.962V274.728H261.269V323.235H251.448L246.425 298.982V323.235H236.604ZM277.426 323.676C273.792 323.676 270.861 322.583 268.634 320.396C266.426 318.211 265.322 315.151 265.322 311.219V288.839C265.322 284.135 266.283 280.534 268.205 278.035C270.147 275.536 273.297 274.287 277.655 274.287C280.034 274.287 282.147 274.71 283.992 275.555C285.857 276.4 287.323 277.668 288.389 279.358C289.455 281.03 289.987 283.143 289.987 285.697V294.076H279.996V286.91C279.996 285.458 279.805 284.485 279.425 283.988C279.044 283.474 278.455 283.217 277.655 283.217C276.722 283.217 276.095 283.547 275.771 284.209C275.447 284.852 275.286 285.715 275.286 286.799V311.081C275.286 312.422 275.486 313.368 275.885 313.92C276.304 314.471 276.894 314.746 277.655 314.746C278.512 314.746 279.111 314.407 279.453 313.727C279.815 313.047 279.996 312.165 279.996 311.081V302.344H290.101V311.522C290.101 315.785 288.988 318.88 286.761 320.81C284.535 322.721 281.423 323.676 277.426 323.676ZM293.013 323.235V274.728H302.72V323.235H293.013ZM305.346 323.235L310.199 274.728H327.242L332.009 323.235H322.503L321.789 315.408H315.737L315.109 323.235H305.346ZM316.451 307.663H321.018L318.82 282.996H318.364L316.451 307.663ZM335.092 323.235V274.728H345.141V314.967H355.475V323.235H335.092Z" fill="white"/>
<path d="M37 386.522V362.268H41.8531V386.522H37ZM43.8513 386.522V362.268H49.0184L51.3308 373.885V362.268H56.1838V386.522H51.2736L48.7615 374.395V386.522H43.8513ZM58.4104 386.522V362.268H65.3189C67.1269 362.268 68.4877 362.755 69.4012 363.728C70.3147 364.694 70.7714 366.108 70.7714 367.974V379.328C70.7714 381.625 70.3527 383.398 69.5153 384.647C68.6874 385.897 67.2316 386.522 65.1476 386.522H58.4104ZM63.4633 382.236H64.334C65.257 382.236 65.7186 381.805 65.7186 380.941V368.428C65.7186 367.619 65.6043 367.1 65.376 366.87C65.1571 366.632 64.7051 366.513 64.02 366.513H63.4633V382.236ZM72.5985 386.522V362.268H77.4515V386.522H72.5985ZM78.7647 386.522L81.1912 362.268H89.7125L92.0963 386.522H87.3431L86.9863 382.608H83.9603L83.6463 386.522H78.7647ZM84.3171 378.736H86.6008L85.5018 366.402H85.2734L84.3171 378.736ZM93.6378 386.522V362.268H98.8048L101.118 373.885V362.268H105.97V386.522H101.06L98.5479 374.395V386.522H93.6378ZM115.048 386.522V362.268H121.857C123.684 362.268 125.011 362.7 125.839 363.564C126.676 364.418 127.095 365.832 127.095 367.808V368.869C127.095 370.008 126.881 370.931 126.453 371.639C126.034 372.346 125.392 372.81 124.526 373.031C125.658 373.306 126.415 373.954 126.796 374.974C127.185 375.984 127.38 377.22 127.38 378.68C127.38 380.251 127.228 381.625 126.924 382.801C126.619 383.977 126.067 384.891 125.268 385.544C124.469 386.196 123.332 386.522 121.857 386.522H115.048ZM119.958 371.404H120.986C121.453 371.404 121.752 371.23 121.885 370.881C122.019 370.532 122.085 370.114 122.085 369.626V367.188C122.085 366.407 121.728 366.016 121.015 366.016H119.958V371.404ZM120.458 382.25C121.762 382.25 122.414 381.653 122.414 380.458V377.427C122.414 376.738 122.304 376.195 122.085 375.8C121.876 375.396 121.476 375.194 120.886 375.194H119.958V382.222C120.167 382.241 120.334 382.25 120.458 382.25ZM134.846 386.742C132.753 386.742 131.211 386.177 130.221 385.047C129.232 383.908 128.737 382.236 128.737 380.031V362.268H133.618V379.839C133.618 380.243 133.642 380.633 133.689 381.01C133.737 381.377 133.846 381.681 134.018 381.919C134.189 382.158 134.465 382.278 134.846 382.278C135.236 382.278 135.517 382.162 135.688 381.933C135.859 381.694 135.963 381.386 136.002 381.01C136.049 380.633 136.073 380.243 136.073 379.839V362.268H140.955V380.031C140.955 382.236 140.46 383.908 139.471 385.047C138.481 386.177 136.94 386.742 134.846 386.742ZM148.848 386.742C146.555 386.742 144.899 386.191 143.881 385.089C142.872 383.986 142.368 382.231 142.368 379.825V377.454H147.335V380.486C147.335 381.046 147.421 381.488 147.592 381.809C147.773 382.121 148.083 382.278 148.52 382.278C148.976 382.278 149.291 382.149 149.462 381.891C149.643 381.634 149.733 381.212 149.733 380.624C149.733 379.879 149.657 379.26 149.505 378.763C149.353 378.258 149.086 377.78 148.706 377.33C148.335 376.871 147.815 376.338 147.15 375.731L144.894 373.665C143.21 372.13 142.368 370.376 142.368 368.4C142.368 366.334 142.863 364.758 143.853 363.673C144.852 362.59 146.293 362.048 148.177 362.048C150.48 362.048 152.112 362.64 153.073 363.825C154.044 365.011 154.529 366.811 154.529 369.227H149.419V367.56C149.419 367.229 149.319 366.972 149.119 366.788C148.929 366.604 148.667 366.513 148.335 366.513C147.935 366.513 147.64 366.622 147.449 366.843C147.268 367.055 147.178 367.33 147.178 367.67C147.178 368.01 147.274 368.377 147.463 368.772C147.654 369.167 148.03 369.622 148.592 370.137L151.489 372.824C152.07 373.357 152.602 373.922 153.088 374.519C153.572 375.107 153.963 375.796 154.258 376.586C154.553 377.367 154.701 378.323 154.701 379.453C154.701 381.731 154.263 383.518 153.387 384.813C152.522 386.099 151.009 386.742 148.848 386.742ZM156.157 386.522V362.268H161.009V386.522H156.157ZM163.007 386.522V362.268H168.175L170.487 373.885V362.268H175.34V386.522H170.43L167.918 374.395V386.522H163.007ZM177.567 386.522V362.268H187.615V366.953H182.676V371.68H187.415V376.242H182.676V381.795H187.944V386.522H177.567ZM195.58 386.742C193.287 386.742 191.631 386.191 190.613 385.089C189.604 383.986 189.1 382.231 189.1 379.825V377.454H194.067V380.486C194.067 381.046 194.153 381.488 194.324 381.809C194.505 382.121 194.814 382.278 195.252 382.278C195.709 382.278 196.023 382.149 196.193 381.891C196.375 381.634 196.465 381.212 196.465 380.624C196.465 379.879 196.389 379.26 196.236 378.763C196.084 378.258 195.818 377.78 195.437 377.33C195.066 376.871 194.548 376.338 193.881 375.731L191.626 373.665C189.942 372.13 189.1 370.376 189.1 368.4C189.1 366.334 189.594 364.758 190.584 363.673C191.584 362.59 193.025 362.048 194.909 362.048C197.212 362.048 198.844 362.64 199.805 363.825C200.776 365.011 201.261 366.811 201.261 369.227H196.151V367.56C196.151 367.229 196.051 366.972 195.851 366.788C195.661 366.604 195.399 366.513 195.066 366.513C194.666 366.513 194.371 366.622 194.181 366.843C194.001 367.055 193.91 367.33 193.91 367.67C193.91 368.01 194.005 368.377 194.196 368.772C194.385 369.167 194.762 369.622 195.323 370.137L198.22 372.824C198.801 373.357 199.334 373.922 199.819 374.519C200.305 375.107 200.695 375.796 200.989 376.586C201.285 377.367 201.432 378.323 201.432 379.453C201.432 381.731 200.994 383.518 200.119 384.813C199.253 386.099 197.74 386.742 195.58 386.742ZM209.083 386.742C206.789 386.742 205.134 386.191 204.115 385.089C203.107 383.986 202.602 382.231 202.602 379.825V377.454H207.57V380.486C207.57 381.046 207.655 381.488 207.827 381.809C208.007 382.121 208.317 382.278 208.754 382.278C209.211 382.278 209.526 382.149 209.697 381.891C209.878 381.634 209.968 381.212 209.968 380.624C209.968 379.879 209.892 379.26 209.74 378.763C209.587 378.258 209.321 377.78 208.94 377.33C208.569 376.871 208.05 376.338 207.384 375.731L205.129 373.665C203.445 372.13 202.602 370.376 202.602 368.4C202.602 366.334 203.097 364.758 204.087 363.673C205.087 362.59 206.528 362.048 208.412 362.048C210.715 362.048 212.347 362.64 213.308 363.825C214.279 365.011 214.763 366.811 214.763 369.227H209.654V367.56C209.654 367.229 209.554 366.972 209.354 366.788C209.163 366.604 208.902 366.513 208.569 366.513C208.17 366.513 207.875 366.622 207.684 366.843C207.503 367.055 207.413 367.33 207.413 367.67C207.413 368.01 207.508 368.377 207.698 368.772C207.889 369.167 208.265 369.622 208.826 370.137L211.723 372.824C212.304 373.357 212.837 373.922 213.322 374.519C213.807 375.107 214.197 375.796 214.493 376.586C214.788 377.367 214.935 378.323 214.935 379.453C214.935 381.731 214.497 383.518 213.622 384.813C212.756 386.099 211.243 386.742 209.083 386.742ZM227.867 386.811C226.306 386.811 225.079 386.228 224.184 385.061C223.3 383.894 222.857 382.286 222.857 380.238C222.857 378.777 222.99 377.564 223.257 376.6C223.532 375.635 223.913 374.831 224.398 374.188C224.884 373.545 225.44 372.984 226.068 372.507L225.954 372.232C225.554 371.276 225.202 370.366 224.898 369.503C224.603 368.63 224.456 367.734 224.456 366.815C224.456 365.887 224.661 365.066 225.07 364.349C225.479 363.632 226.045 363.072 226.768 362.668C227.501 362.254 228.338 362.048 229.28 362.048C230.213 362.048 231.059 362.245 231.821 362.64C232.592 363.026 233.205 363.609 233.662 364.39C234.119 365.171 234.348 366.158 234.348 367.353C234.348 368.648 234.095 369.733 233.591 370.605C233.096 371.478 232.349 372.318 231.35 373.127L232.72 376.462C233.281 375.093 234.09 374.032 235.146 373.279L237.131 376.269C236.027 377.123 235.104 378.515 234.362 380.445L236.874 386.522H232.02L231.464 385.213C231.093 385.654 230.593 386.03 229.965 386.343C229.347 386.655 228.648 386.811 227.867 386.811ZM228.937 366.389C228.937 366.627 229 366.981 229.123 367.45C229.247 367.909 229.537 368.708 229.993 369.847C230.175 369.664 230.336 369.374 230.479 368.979C230.622 368.584 230.693 368.042 230.693 367.353C230.693 366.646 230.602 366.149 230.422 365.865C230.25 365.58 230.022 365.437 229.737 365.437C229.461 365.437 229.257 365.539 229.123 365.741C229 365.934 228.937 366.149 228.937 366.389ZM227.224 380.831C227.224 382.466 227.705 383.283 228.666 383.283C229.057 383.283 229.371 383.145 229.609 382.87C229.846 382.585 230.008 382.291 230.093 381.988L227.696 376.352C227.382 376.995 227.224 378.12 227.224 379.728V380.831ZM245.309 386.522V362.268H250.162V386.522H245.309ZM252.161 386.522V362.268H257.328L259.64 373.885V362.268H264.493V386.522H259.583L257.071 374.395V386.522H252.161ZM266.719 386.522V362.268H273.628C275.436 362.268 276.797 362.755 277.71 363.728C278.624 364.694 279.08 366.108 279.08 367.974V379.328C279.08 381.625 278.662 383.398 277.824 384.647C276.997 385.897 275.541 386.522 273.457 386.522H266.719ZM271.773 382.236H272.644C273.566 382.236 274.028 381.805 274.028 380.941V368.428C274.028 367.619 273.914 367.1 273.685 366.87C273.466 366.632 273.014 366.513 272.329 366.513H271.773V382.236ZM280.908 386.522V362.268H285.761V386.522H280.908ZM290.071 386.522L286.974 362.254H291.756L293.597 378.763L295.239 362.254H300.02L296.923 386.522H290.071ZM301.262 386.522V362.268H306.115V386.522H301.262ZM308.113 386.522V362.268H315.022C316.83 362.268 318.191 362.755 319.104 363.728C320.018 364.694 320.474 366.108 320.474 367.974V379.328C320.474 381.625 320.056 383.398 319.218 384.647C318.391 385.897 316.935 386.522 314.85 386.522H308.113ZM313.166 382.236H314.037C314.96 382.236 315.422 381.805 315.422 380.941V368.428C315.422 367.619 315.307 367.1 315.079 366.87C314.86 366.632 314.408 366.513 313.723 366.513H313.166V382.236ZM328.339 386.742C326.245 386.742 324.704 386.177 323.714 385.047C322.725 383.908 322.23 382.236 322.23 380.031V362.268H327.111V379.839C327.111 380.243 327.135 380.633 327.183 381.01C327.231 381.377 327.34 381.681 327.511 381.919C327.683 382.158 327.958 382.278 328.339 382.278C328.729 382.278 329.01 382.162 329.181 381.933C329.353 381.694 329.457 381.386 329.495 381.01C329.543 380.633 329.566 380.243 329.566 379.839V362.268H334.448V380.031C334.448 382.236 333.953 383.908 332.964 385.047C331.974 386.177 330.432 386.742 328.339 386.742ZM335.69 386.522L338.117 362.268H346.638L349.022 386.522H344.269L343.911 382.608H340.886L340.571 386.522H335.69ZM341.243 378.736H343.526L342.427 366.402H342.199L341.243 378.736ZM350.563 386.522V362.268H355.587V382.388H360.754V386.522H350.563ZM368.148 386.742C365.855 386.742 364.199 386.191 363.181 385.089C362.172 383.986 361.668 382.231 361.668 379.825V377.454H366.635V380.486C366.635 381.046 366.721 381.488 366.892 381.809C367.073 382.121 367.382 382.278 367.82 382.278C368.277 382.278 368.591 382.149 368.762 381.891C368.943 381.634 369.033 381.212 369.033 380.624C369.033 379.879 368.957 379.26 368.805 378.763C368.653 378.258 368.386 377.78 368.005 377.33C367.635 376.871 367.116 376.338 366.449 375.731L364.195 373.665C362.51 372.13 361.668 370.376 361.668 368.4C361.668 366.334 362.162 364.758 363.153 363.673C364.152 362.59 365.593 362.048 367.478 362.048C369.78 362.048 371.412 362.64 372.373 363.825C373.344 365.011 373.829 366.811 373.829 369.227H368.719V367.56C368.719 367.229 368.619 366.972 368.419 366.788C368.229 366.604 367.967 366.513 367.635 366.513C367.235 366.513 366.94 366.622 366.749 366.843C366.569 367.055 366.478 367.33 366.478 367.67C366.478 368.01 366.574 368.377 366.764 368.772C366.954 369.167 367.33 369.622 367.891 370.137L370.789 372.824C371.369 373.357 371.902 373.922 372.387 374.519C372.873 375.107 373.263 375.796 373.558 376.586C373.853 377.367 374 378.323 374 379.453C374 381.731 373.562 383.518 372.687 384.813C371.822 386.099 370.309 386.742 368.148 386.742Z" fill="white"/>
<path d="M371.517 417V405.052L367.149 394.924H358.114L360.94 404.681H355.502V417H371.517ZM351.434 417V405.052L347.066 394.924H338.031L340.858 404.681H335.419V417H351.434Z" fill="white"/>
<path d="M202.417 266.035V253.46H200.503V250.471H207.555V253.46H205.642V266.035H202.417ZM211.971 266.176C209.235 266.176 207.867 264.805 207.867 262.064V256.741C207.867 255.491 208.231 254.494 208.958 253.751C209.684 253.003 210.688 252.629 211.971 252.629C213.26 252.629 214.267 253.003 214.994 253.751C215.72 254.494 216.083 255.491 216.083 256.741V262.064C216.083 264.805 214.713 266.176 211.971 266.176ZM211.971 263.736C212.246 263.736 212.441 263.642 212.557 263.453C212.679 263.258 212.74 263.014 212.74 262.719V256.236C212.74 255.464 212.483 255.078 211.971 255.078C211.458 255.078 211.201 255.464 211.201 256.236V262.719C211.201 263.014 211.259 263.258 211.375 263.453C211.498 263.642 211.696 263.736 211.971 263.736ZM221.754 266.035V250.471H226.013C226.904 250.471 227.609 250.662 228.128 251.046C228.653 251.428 229.029 251.974 229.255 252.682C229.481 253.389 229.594 254.232 229.594 255.21C229.594 256.154 229.499 256.976 229.31 257.678C229.12 258.374 228.782 258.913 228.294 259.297C227.811 259.679 227.124 259.871 226.232 259.871H224.923V266.035H221.754ZM224.923 257.077H225.106C225.705 257.077 226.071 256.915 226.205 256.59C226.34 256.266 226.406 255.789 226.406 255.158C226.406 254.568 226.34 254.114 226.205 253.796C226.077 253.472 225.768 253.309 225.28 253.309H224.923V257.077ZM230.565 266.035V252.77H233.899V254.247C234.058 253.734 234.339 253.333 234.741 253.044C235.145 252.755 235.652 252.611 236.262 252.611V255.255C235.994 255.255 235.673 255.284 235.301 255.343C234.928 255.396 234.601 255.473 234.321 255.573C234.04 255.668 233.899 255.774 233.899 255.892V266.035H230.565ZM241.062 266.176C238.326 266.176 236.958 264.805 236.958 262.064V256.741C236.958 255.491 237.322 254.494 238.049 253.751C238.776 253.003 239.779 252.629 241.062 252.629C242.35 252.629 243.358 253.003 244.085 253.751C244.812 254.494 245.174 255.491 245.174 256.741V262.064C245.174 264.805 243.803 266.176 241.062 266.176ZM241.062 263.736C241.337 263.736 241.532 263.642 241.649 263.453C241.77 263.258 241.832 263.014 241.832 262.719V256.236C241.832 255.464 241.575 255.078 241.062 255.078C240.549 255.078 240.293 255.464 240.293 256.236V262.719C240.293 263.014 240.351 263.258 240.467 263.453C240.588 263.642 240.788 263.736 241.062 263.736ZM248.143 266.035L245.935 252.77H249.224L250.011 261.631L250.9 252.77H254.179L251.935 266.035H248.143ZM255.021 251.956V249.321H258.301V251.956H255.021ZM255.021 266.035V252.77H258.301V266.035H255.021ZM262.304 266.176C261.669 266.176 261.165 266.064 260.792 265.84C260.42 265.616 260.141 265.307 259.958 264.912C259.775 264.517 259.653 264.054 259.592 263.523C259.537 262.993 259.51 262.424 259.51 261.817V256.051C259.51 255.031 259.696 254.206 260.068 253.575C260.447 252.944 261.085 252.629 261.983 252.629C262.648 252.629 263.158 252.767 263.513 253.044C263.873 253.315 264.15 253.695 264.346 254.185V250.471H267.68V266.035H264.346V264.629C264.163 265.106 263.918 265.483 263.614 265.761C263.314 266.038 262.878 266.176 262.304 266.176ZM263.558 263.701C263.87 263.701 264.077 263.58 264.181 263.337C264.291 263.096 264.346 262.663 264.346 262.038V256.458C264.346 256.145 264.297 255.838 264.199 255.538C264.108 255.232 263.9 255.078 263.577 255.078C263.222 255.078 262.999 255.223 262.908 255.511C262.816 255.8 262.771 256.116 262.771 256.458V262.038C262.771 263.146 263.033 263.701 263.558 263.701ZM272.791 266.176C271.814 266.176 271.036 265.999 270.455 265.646C269.876 265.292 269.461 264.782 269.21 264.116C268.96 263.45 268.835 262.648 268.835 261.71V256.378C268.835 255.146 269.201 254.214 269.933 253.583C270.666 252.947 271.674 252.629 272.956 252.629C275.594 252.629 276.913 253.879 276.913 256.378V257.342C276.913 258.509 276.901 259.293 276.877 259.694H272.114V262.259C272.114 262.495 272.129 262.727 272.159 262.958C272.19 263.182 272.257 263.367 272.36 263.515C272.471 263.662 272.644 263.736 272.883 263.736C273.225 263.736 273.438 263.594 273.524 263.311C273.61 263.023 273.653 262.648 273.653 262.188V260.915H276.913V261.667C276.913 262.657 276.785 263.488 276.528 264.161C276.278 264.826 275.85 265.33 275.246 265.672C274.648 266.008 273.829 266.176 272.791 266.176ZM272.095 258.121H273.653V256.334C273.653 255.856 273.591 255.515 273.469 255.308C273.347 255.096 273.164 254.99 272.919 254.99C272.657 254.99 272.452 255.09 272.306 255.29C272.166 255.491 272.095 255.838 272.095 256.334V258.121Z" fill="white"/>
<path d="M167.869 263.877V255.911L170.781 249.159H176.804L174.92 255.663H178.546V263.877H167.869ZM181.258 263.877V255.911L184.169 249.159H190.193L188.309 255.663H191.934V263.877H181.258Z" fill="white"/>
<path d="M293.281 265.912C291.81 265.912 290.747 265.558 290.094 264.85C289.446 264.143 289.123 263.017 289.123 261.472V259.951H292.31V261.897C292.31 262.256 292.366 262.54 292.475 262.746C292.592 262.947 292.79 263.046 293.071 263.046C293.364 263.046 293.565 262.964 293.675 262.799C293.791 262.634 293.849 262.363 293.849 261.986C293.849 261.508 293.801 261.11 293.703 260.792C293.605 260.467 293.434 260.161 293.19 259.872C292.951 259.577 292.619 259.235 292.191 258.846L290.744 257.52C289.663 256.535 289.123 255.409 289.123 254.142C289.123 252.815 289.441 251.803 290.076 251.108C290.717 250.412 291.642 250.064 292.85 250.064C294.329 250.064 295.376 250.445 295.992 251.206C296.616 251.966 296.927 253.121 296.927 254.672H293.648V253.602C293.648 253.39 293.584 253.224 293.455 253.107C293.334 252.988 293.166 252.93 292.951 252.93C292.695 252.93 292.506 253.001 292.383 253.142C292.267 253.278 292.21 253.455 292.21 253.673C292.21 253.891 292.271 254.126 292.393 254.38C292.515 254.633 292.756 254.925 293.117 255.255L294.976 256.98C295.348 257.322 295.691 257.684 296.002 258.068C296.313 258.445 296.564 258.887 296.753 259.394C296.943 259.895 297.037 260.509 297.037 261.234C297.037 262.696 296.756 263.842 296.194 264.673C295.639 265.499 294.668 265.912 293.281 265.912ZM302.514 265.77V250.206H307.424L308.779 259.695L310.126 250.206H315.082V265.77H312.132V254.557L310.281 265.77H307.387L305.427 254.557V265.77H302.514ZM320.467 265.77L322.024 250.206H327.493L329.023 265.77H325.973L325.743 263.259H323.802L323.6 265.77H320.467ZM324.03 260.774H325.496L324.791 252.859H324.644L324.03 260.774ZM334.409 265.77V250.206H339.355C340.179 250.206 340.802 250.389 341.223 250.755C341.644 251.114 341.926 251.621 342.066 252.275C342.212 252.923 342.286 253.687 342.286 254.566C342.286 255.415 342.173 256.092 341.947 256.6C341.727 257.107 341.309 257.457 340.692 257.652C341.199 257.753 341.553 257.997 341.754 258.386C341.962 258.77 342.066 259.268 342.066 259.881V265.77H338.887V259.677C338.887 259.223 338.79 258.943 338.595 258.837C338.405 258.725 338.097 258.669 337.669 258.669V265.77H334.409ZM337.688 255.971H338.466C338.912 255.971 339.135 255.503 339.135 254.566C339.135 253.958 339.086 253.561 338.988 253.372C338.891 253.183 338.707 253.089 338.439 253.089H337.688V255.971ZM349.128 265.77V253.195H347.214V250.206H354.267V253.195H352.352V265.77H349.128Z" fill="white"/>
<path d="M113.854 353.877C111.803 353.877 110.322 353.383 109.411 352.397C108.509 351.411 108.058 349.841 108.058 347.688V345.568H112.501V348.28C112.501 348.781 112.577 349.176 112.731 349.464C112.892 349.743 113.169 349.883 113.561 349.883C113.969 349.883 114.25 349.768 114.404 349.537C114.565 349.307 114.646 348.929 114.646 348.403C114.646 347.738 114.578 347.183 114.441 346.739C114.305 346.287 114.067 345.86 113.727 345.458C113.395 345.046 112.931 344.57 112.335 344.028L110.317 342.179C108.811 340.806 108.058 339.237 108.058 337.47C108.058 335.621 108.5 334.211 109.386 333.242C110.28 332.272 111.569 331.787 113.254 331.787C115.314 331.787 116.774 332.318 117.634 333.378C118.502 334.438 118.936 336.048 118.936 338.209H114.365V336.718C114.365 336.422 114.276 336.192 114.097 336.027C113.926 335.864 113.693 335.781 113.395 335.781C113.037 335.781 112.773 335.88 112.603 336.077C112.441 336.266 112.361 336.512 112.361 336.817C112.361 337.121 112.445 337.449 112.616 337.803C112.786 338.156 113.122 338.563 113.624 339.023L116.217 341.427C116.736 341.904 117.212 342.409 117.646 342.943C118.08 343.469 118.429 344.085 118.693 344.792C118.957 345.49 119.089 346.345 119.089 347.356C119.089 349.394 118.697 350.992 117.914 352.151C117.14 353.301 115.786 353.877 113.854 353.877ZM125.957 353.877C124.162 353.877 122.787 353.354 121.834 352.311C120.889 351.259 120.417 349.743 120.417 347.763V337.457C120.417 335.601 120.885 334.191 121.821 333.23C122.766 332.268 124.144 331.787 125.957 331.787C127.771 331.787 129.145 332.268 130.081 333.23C131.026 334.191 131.499 335.601 131.499 337.457V347.763C131.499 349.743 131.022 351.259 130.069 352.311C129.124 353.354 127.753 353.877 125.957 353.877ZM125.996 349.883C126.677 349.883 127.018 349.245 127.018 347.972V337.383C127.018 336.315 126.686 335.781 126.021 335.781C125.273 335.781 124.898 336.327 124.898 337.421V347.996C124.898 348.67 124.983 349.155 125.153 349.451C125.324 349.738 125.604 349.883 125.996 349.883ZM133.311 353.679V331.985H137.806V349.981H142.428V353.679H133.311ZM148.901 353.877C147.028 353.877 145.649 353.371 144.764 352.36C143.879 351.341 143.436 349.846 143.436 347.873V331.985H147.803V347.701C147.803 348.062 147.824 348.412 147.867 348.748C147.909 349.077 148.007 349.348 148.16 349.562C148.314 349.776 148.56 349.883 148.901 349.883C149.25 349.883 149.501 349.78 149.654 349.575C149.807 349.361 149.901 349.086 149.935 348.748C149.977 348.412 149.999 348.062 149.999 347.701V331.985H154.365V347.873C154.365 349.846 153.922 351.341 153.037 352.36C152.152 353.371 150.773 353.877 148.901 353.877ZM158.017 353.679V336.151H155.349V331.985H165.179V336.151H162.51V353.679H158.017ZM166.226 353.679V331.985H170.567V353.679H166.226ZM177.717 353.877C175.921 353.877 174.546 353.354 173.593 352.311C172.648 351.259 172.175 349.743 172.175 347.763V337.457C172.175 335.601 172.643 334.191 173.58 333.23C174.525 332.268 175.904 331.787 177.717 331.787C179.53 331.787 180.904 332.268 181.841 333.23C182.785 334.191 183.258 335.601 183.258 337.457V347.763C183.258 349.743 182.781 351.259 181.828 352.311C180.883 353.354 179.513 353.877 177.717 353.877ZM177.755 349.883C178.436 349.883 178.776 349.245 178.776 347.972V337.383C178.776 336.315 178.444 335.781 177.781 335.781C177.031 335.781 176.657 336.327 176.657 337.421V347.996C176.657 348.67 176.742 349.155 176.912 349.451C177.082 349.738 177.363 349.883 177.755 349.883ZM185.071 353.679V331.985H189.692L191.76 342.376V331.985H196.102V353.679H191.71L189.463 342.832V353.679H185.071ZM203.43 353.877C201.379 353.877 199.897 353.383 198.987 352.397C198.085 351.411 197.633 349.841 197.633 347.688V345.568H202.077V348.28C202.077 348.781 202.153 349.176 202.307 349.464C202.468 349.743 202.745 349.883 203.137 349.883C203.545 349.883 203.826 349.768 203.979 349.537C204.141 349.307 204.221 348.929 204.221 348.403C204.221 347.738 204.153 347.183 204.017 346.739C203.881 346.287 203.643 345.86 203.302 345.458C202.97 345.046 202.507 344.57 201.911 344.028L199.893 342.179C198.387 340.806 197.633 339.237 197.633 337.47C197.633 335.621 198.076 334.211 198.962 333.242C199.855 332.272 201.145 331.787 202.83 331.787C204.89 331.787 206.349 332.318 207.21 333.378C208.077 334.438 208.512 336.048 208.512 338.209H203.941V336.718C203.941 336.422 203.852 336.192 203.673 336.027C203.502 335.864 203.269 335.781 202.97 335.781C202.613 335.781 202.349 335.88 202.179 336.077C202.017 336.266 201.936 336.512 201.936 336.817C201.936 337.121 202.021 337.449 202.192 337.803C202.362 338.156 202.698 338.563 203.201 339.023L205.792 341.427C206.312 341.904 206.788 342.409 207.222 342.943C207.656 343.469 208.005 344.085 208.269 344.792C208.533 345.49 208.665 346.345 208.665 347.356C208.665 349.394 208.273 350.992 207.49 352.151C206.716 353.301 205.362 353.877 203.43 353.877ZM220.232 353.938C218.836 353.938 217.738 353.416 216.938 352.373C216.146 351.329 215.751 349.891 215.751 348.058C215.751 346.751 215.87 345.667 216.108 344.804C216.355 343.941 216.696 343.222 217.129 342.647C217.564 342.071 218.062 341.57 218.623 341.143L218.521 340.897C218.163 340.042 217.848 339.229 217.576 338.456C217.312 337.675 217.181 336.874 217.181 336.053C217.181 335.223 217.364 334.487 217.73 333.846C218.095 333.205 218.602 332.704 219.249 332.342C219.904 331.972 220.653 331.787 221.496 331.787C222.33 331.787 223.087 331.964 223.768 332.318C224.458 332.662 225.007 333.185 225.416 333.883C225.824 334.581 226.028 335.464 226.028 336.533C226.028 337.692 225.803 338.662 225.352 339.442C224.909 340.223 224.241 340.975 223.348 341.698L224.572 344.681C225.075 343.457 225.798 342.507 226.743 341.834L228.518 344.508C227.53 345.273 226.705 346.518 226.041 348.243L228.288 353.679H223.947L223.449 352.508C223.117 352.902 222.671 353.239 222.108 353.519C221.556 353.798 220.93 353.938 220.232 353.938ZM221.189 335.671C221.189 335.884 221.245 336.2 221.356 336.619C221.466 337.031 221.725 337.745 222.135 338.764C222.296 338.6 222.44 338.341 222.568 337.988C222.696 337.634 222.76 337.149 222.76 336.533C222.76 335.9 222.679 335.456 222.518 335.202C222.364 334.947 222.16 334.82 221.904 334.82C221.657 334.82 221.475 334.911 221.356 335.091C221.245 335.263 221.189 335.456 221.189 335.671ZM219.657 348.588C219.657 350.051 220.087 350.782 220.947 350.782C221.296 350.782 221.577 350.659 221.789 350.412C222.003 350.158 222.147 349.895 222.224 349.624L220.079 344.583C219.798 345.158 219.657 346.164 219.657 347.602V348.588ZM241.375 353.877C239.324 353.877 237.842 353.383 236.932 352.397C236.03 351.411 235.578 349.841 235.578 347.688V345.568H240.022V348.28C240.022 348.781 240.098 349.176 240.251 349.464C240.413 349.743 240.689 349.883 241.081 349.883C241.489 349.883 241.771 349.768 241.924 349.537C242.086 349.307 242.166 348.929 242.166 348.403C242.166 347.738 242.098 347.183 241.962 346.739C241.826 346.287 241.588 345.86 241.247 345.458C240.915 345.046 240.451 344.57 239.855 344.028L237.838 342.179C236.332 340.806 235.578 339.237 235.578 337.47C235.578 335.621 236.021 334.211 236.906 333.242C237.8 332.272 239.089 331.787 240.774 331.787C242.834 331.787 244.294 332.318 245.154 333.378C246.022 334.438 246.456 336.048 246.456 338.209H241.886V336.718C241.886 336.422 241.796 336.192 241.617 336.027C241.447 335.864 241.213 335.781 240.915 335.781C240.558 335.781 240.294 335.88 240.123 336.077C239.962 336.266 239.881 336.512 239.881 336.817C239.881 337.121 239.966 337.449 240.136 337.803C240.306 338.156 240.642 338.563 241.145 339.023L243.736 341.427C244.256 341.904 244.733 342.409 245.166 342.943C245.601 343.469 245.95 344.085 246.214 344.792C246.478 345.49 246.61 346.345 246.61 347.356C246.61 349.394 246.218 350.992 245.435 352.151C244.661 353.301 243.307 353.877 241.375 353.877ZM248.116 353.679V331.985H257.104V336.176H252.687V340.404H256.925V344.484H252.687V349.451H257.398V353.679H248.116ZM258.892 353.679V331.985H265.786C266.935 331.985 267.803 332.24 268.39 332.749C268.978 333.25 269.369 333.957 269.565 334.869C269.769 335.773 269.872 336.837 269.872 338.062C269.872 339.245 269.714 340.19 269.399 340.897C269.093 341.603 268.51 342.093 267.65 342.363C268.356 342.503 268.85 342.844 269.131 343.386C269.42 343.921 269.565 344.615 269.565 345.47V353.679H265.135V345.186C265.135 344.553 264.998 344.163 264.726 344.016C264.462 343.859 264.033 343.781 263.436 343.781V353.679H258.892ZM263.463 340.021H264.547C265.169 340.021 265.48 339.368 265.48 338.062C265.48 337.215 265.412 336.661 265.275 336.397C265.139 336.134 264.884 336.003 264.509 336.003H263.463V340.021ZM273.421 353.679L270.65 331.972H274.927L276.575 346.739L278.042 331.972H282.32L279.549 353.679H273.421ZM283.431 353.679V331.985H287.771V353.679H283.431ZM294.794 353.877C293.168 353.877 291.857 353.387 290.861 352.409C289.874 351.432 289.38 350.064 289.38 348.305V338.296C289.38 336.192 289.81 334.581 290.67 333.464C291.537 332.346 292.946 331.787 294.895 331.787C295.96 331.787 296.905 331.976 297.73 332.355C298.564 332.733 299.219 333.3 299.696 334.056C300.173 334.803 300.411 335.748 300.411 336.89V340.637H295.943V337.433C295.943 336.784 295.857 336.349 295.687 336.126C295.517 335.896 295.253 335.781 294.895 335.781C294.478 335.781 294.198 335.929 294.053 336.225C293.908 336.512 293.836 336.898 293.836 337.383V348.243C293.836 348.843 293.925 349.266 294.104 349.513C294.291 349.76 294.555 349.883 294.895 349.883C295.278 349.883 295.546 349.73 295.7 349.426C295.861 349.122 295.943 348.728 295.943 348.243V344.336H300.462V348.441C300.462 350.347 299.964 351.731 298.968 352.594C297.972 353.449 296.58 353.877 294.794 353.877ZM301.969 353.679V331.985H310.957V336.176H306.54V340.404H310.778V344.484H306.54V349.451H311.251V353.679H301.969ZM318.081 353.877C316.03 353.877 314.549 353.383 313.638 352.397C312.736 351.411 312.285 349.841 312.285 347.688V345.568H316.727V348.28C316.727 348.781 316.805 349.176 316.958 349.464C317.12 349.743 317.396 349.883 317.788 349.883C318.196 349.883 318.477 349.768 318.63 349.537C318.791 349.307 318.873 348.929 318.873 348.403C318.873 347.738 318.805 347.183 318.669 346.739C318.532 346.287 318.294 345.86 317.953 345.458C317.621 345.046 317.157 344.57 316.562 344.028L314.545 342.179C313.038 340.806 312.285 339.237 312.285 337.47C312.285 335.621 312.728 334.211 313.612 333.242C314.506 332.272 315.796 331.787 317.481 331.787C319.541 331.787 321.001 332.318 321.86 333.378C322.728 334.438 323.162 336.048 323.162 338.209H318.591V336.718C318.591 336.422 318.502 336.192 318.323 336.027C318.154 335.864 317.919 335.781 317.621 335.781C317.264 335.781 317 335.88 316.83 336.077C316.669 336.266 316.587 336.512 316.587 336.817C316.587 337.121 316.673 337.449 316.842 337.803C317.013 338.156 317.349 338.563 317.851 339.023L320.443 341.427C320.962 341.904 321.439 342.409 321.873 342.943C322.307 343.469 322.656 344.085 322.92 344.792C323.183 345.49 323.315 346.345 323.315 347.356C323.315 349.394 322.924 350.992 322.141 352.151C321.366 353.301 320.013 353.877 318.081 353.877Z" fill="white"/>
<path d="M335.308 351.603V338.088H333.251V334.875H340.832V338.088H338.774V351.603H335.308ZM345.577 351.756C342.636 351.756 341.166 350.282 341.166 347.335V341.614C341.166 340.27 341.557 339.2 342.338 338.402C343.119 337.596 344.199 337.194 345.577 337.194C346.962 337.194 348.045 337.596 348.825 338.402C349.607 339.2 349.997 340.27 349.997 341.614V347.335C349.997 350.282 348.524 351.756 345.577 351.756ZM345.577 349.132C345.872 349.132 346.082 349.031 346.207 348.828C346.338 348.619 346.404 348.356 346.404 348.039V341.072C346.404 340.242 346.128 339.827 345.577 339.827C345.026 339.827 344.75 340.242 344.75 341.072V348.039C344.75 348.356 344.812 348.619 344.937 348.828C345.068 349.031 345.282 349.132 345.577 349.132Z" fill="white"/>
<defs>
<linearGradient id="paint0_linear_1010_16162" x1="600" y1="0" x2="600" y2="664" gradientUnits="userSpaceOnUse">
<stop stop-color="#0046FF"/>
<stop offset="1" stop-color="#00AFC7"/>
</linearGradient>
</defs>
</svg>
