<svg width="200" height="200" viewBox="0 0 200 200" fill="none" xmlns="http://www.w3.org/2000/svg">
<path d="M100 0C44.6754 0 0 44.8126 0 100C0 155.251 44.7577 200 100 200C155.491 200 200 155.039 200 100C200 44.6828 155.154 0 100 0ZM151.46 158.898C137.206 171.389 119.129 178.214 100 178.214C80.8749 178.214 62.8009 171.391 48.5477 158.905C46.6196 157.216 45.7481 154.62 46.2623 152.108C51.1861 128.058 66.505 109.091 86.0048 102.851C75.8292 96.827 68.8453 84.4519 68.8453 70.1525C68.8453 49.9381 82.7939 33.5512 100 33.5512C117.206 33.5512 131.155 49.9381 131.155 70.1525C131.155 84.4497 124.173 96.8231 114 102.847C133.5 109.087 148.819 128.054 153.745 152.102C154.258 154.609 153.385 157.21 151.46 158.898Z" fill="#43A1F6"/>
</svg>
