<svg width="18" height="23" viewBox="0 0 18 23" fill="none" xmlns="http://www.w3.org/2000/svg">
<path d="M2 1C0.8954 1 0 1.9 0 3V11V15V21C0 22.1 0.8954 23 2 23H16C17.105 23 18 22.1 18 21V15V11V7L12 1H2Z" fill="#0263D1"/>
<path d="M2 0C0.8954 0 0 0.9 0 2V10V14V20C0 21.1 0.8954 22 2 22H16C17.105 22 18 21.1 18 20V14V10V6L12 0H2Z" fill="#0263D1"/>
<path d="M18 6L12 0V4C12 5.1 12.895 6 14 6H18Z" fill="#4E92DF"/>
<path d="M2.78613 19C2.62663 19 2.54688 18.9146 2.54688 18.7437V14.355C2.54688 14.1841 2.62663 14.0986 2.78613 14.0986H3.979C5.02718 14.0986 5.73584 14.3105 6.10498 14.7344C6.4764 15.1582 6.66211 15.7609 6.66211 16.5425C6.66211 17.3241 6.4764 17.929 6.10498 18.3574C5.73584 18.7858 5.02718 19 3.979 19H2.78613ZM3.54492 18.1523H3.91406C4.62044 18.1523 5.07731 18.0213 5.28467 17.7593C5.49202 17.495 5.5957 17.0894 5.5957 16.5425C5.5957 15.9956 5.49202 15.5923 5.28467 15.3325C5.07731 15.0705 4.62044 14.9395 3.91406 14.9395H3.54492V18.1523ZM7.25 16.5493C7.25 15.7632 7.4528 15.1388 7.8584 14.6763C8.264 14.2137 8.84277 13.9824 9.59473 13.9824C10.3467 13.9824 10.9255 14.2137 11.3311 14.6763C11.7367 15.1388 11.9395 15.7632 11.9395 16.5493C11.9395 17.3354 11.7367 17.9598 11.3311 18.4224C10.9255 18.8849 10.3467 19.1162 9.59473 19.1162C8.84277 19.1162 8.264 18.8849 7.8584 18.4224C7.4528 17.9598 7.25 17.3354 7.25 16.5493ZM8.31641 16.5493C8.31641 17.119 8.41781 17.5553 8.62061 17.8584C8.82568 18.1592 9.15039 18.3096 9.59473 18.3096C10.0391 18.3096 10.3626 18.1592 10.5654 17.8584C10.7705 17.5553 10.873 17.119 10.873 16.5493C10.873 15.9797 10.7705 15.5444 10.5654 15.2437C10.3626 14.9406 10.0391 14.7891 9.59473 14.7891C9.15039 14.7891 8.82568 14.9406 8.62061 15.2437C8.41781 15.5444 8.31641 15.9797 8.31641 16.5493ZM12.5273 16.5493C12.5273 15.7632 12.7267 15.1388 13.1255 14.6763C13.5243 14.2137 14.0996 13.9824 14.8516 13.9824C15.2845 13.9824 15.6514 14.0496 15.9521 14.1841C16.2529 14.3185 16.4648 14.5133 16.5879 14.7686C16.6699 14.9372 16.6562 15.0511 16.5469 15.1104L16.1367 15.3291C15.9932 15.4066 15.8747 15.3633 15.7812 15.1992C15.722 15.0944 15.6115 14.9998 15.4497 14.9155C15.2902 14.8312 15.1022 14.7891 14.8857 14.7891C14.4072 14.7891 14.0723 14.9406 13.8809 15.2437C13.6895 15.5444 13.5938 15.9797 13.5938 16.5493C13.5938 17.119 13.6895 17.5553 13.8809 17.8584C14.0723 18.1592 14.4072 18.3096 14.8857 18.3096C15.1432 18.3096 15.3597 18.2515 15.5352 18.1353C15.7129 18.019 15.8359 17.9085 15.9043 17.8037C16.016 17.6328 16.1344 17.5895 16.2598 17.6738L16.6699 17.9473C16.7816 18.0225 16.793 18.1364 16.7041 18.2891C16.5719 18.5169 16.3452 18.7118 16.0239 18.8735C15.7026 19.0353 15.3118 19.1162 14.8516 19.1162C14.111 19.1162 13.5379 18.8849 13.1323 18.4224C12.729 17.9598 12.5273 17.3354 12.5273 16.5493Z" fill="white"/>
</svg>
