<svg width="18" height="23" viewBox="0 0 18 23" fill="none" xmlns="http://www.w3.org/2000/svg">
<path d="M2 1C0.8954 1 0 1.9 0 3V11V15V21C0 22.1 0.8954 23 2 23H16C17.105 23 18 22.1 18 21V15V11V7L12 1H2Z" fill="#0AC963"/>
<path d="M2 0C0.8954 0 0 0.9 0 2V10V14V20C0 21.1 0.8954 22 2 22H16C17.105 22 18 21.1 18 20V14V10V6L12 0H2Z" fill="#0AC963"/>
<path d="M18 6L12 0V4C12 5.1 12.895 6 14 6H18Z" fill="#54D992"/>
<path d="M14.1477 10H4C3.44772 10 3 10.4477 3 11V16.9049C3 17.4572 3.44772 17.9049 4 17.9049H14.1477C14.7 17.9049 15.1477 17.4572 15.1477 16.9049V11C15.1477 10.4477 14.7 10 14.1477 10Z" fill="white"/>
<path d="M4.20714 17.3885C3.76168 17.3885 3.5386 16.85 3.85359 16.535L6.25466 14.134C6.44992 13.9388 6.76649 13.9388 6.96175 14.134L7.77149 14.9437C7.96675 15.139 8.28333 15.139 8.47859 14.9437L11.0016 12.4207C11.1968 12.2255 11.5134 12.2255 11.7087 12.4207L13.9274 14.6395C14.0211 14.7332 14.0738 14.8604 14.0738 14.993V16.8885C14.0738 17.1647 13.85 17.3885 13.5738 17.3885H4.20714Z" fill="#0AC963"/>
<path d="M5.80899 13.4389C6.49329 13.4389 7.04803 12.8841 7.04803 12.1998C7.04803 11.5155 6.49329 10.9608 5.80899 10.9608C5.12468 10.9608 4.56995 11.5155 4.56995 12.1998C4.56995 12.8841 5.12468 13.4389 5.80899 13.4389Z" fill="#0AC963"/>
</svg>
