<svg width="18" height="23" viewBox="0 0 18 23" fill="none" xmlns="http://www.w3.org/2000/svg">
<path d="M2 1C0.8954 1 0 1.9 0 3V11V15V21C0 22.1 0.8954 23 2 23H16C17.105 23 18 22.1 18 21V15V11V7L12 1H2Z" fill="#008BF5"/>
<path d="M2 0C0.8954 0 0 0.9 0 2V10V14V20C0 21.1 0.8954 22 2 22H16C17.105 22 18 21.1 18 20V14V10V6L12 0H2Z" fill="#008BF5"/>
<path d="M18 6L12 0V4C12 5.1 12.895 6 14 6H18Z" fill="#4DAEF8"/>
<path d="M2.37256 14.9736C2.20166 14.9736 2.11621 14.8996 2.11621 14.7515V14.3208C2.11621 14.1727 2.20166 14.0986 2.37256 14.0986H5.88623C6.05713 14.0986 6.14258 14.1727 6.14258 14.3208V14.7515C6.14258 14.8996 6.05713 14.9736 5.88623 14.9736H4.62842V18.812C4.62842 18.9373 4.57145 19 4.45752 19H3.80127C3.68734 19 3.63037 18.9373 3.63037 18.812V14.9736H2.37256ZM6.82617 19C6.60742 19 6.56413 18.902 6.69629 18.7061L8.21045 16.4707L6.81934 14.3926C6.68717 14.1966 6.73047 14.0986 6.94922 14.0986H7.63965C7.76042 14.0986 7.86296 14.1659 7.94727 14.3003L8.88037 15.7769L9.81348 14.3003C9.89779 14.1659 10.0003 14.0986 10.1211 14.0986H10.8115C11.0303 14.0986 11.0736 14.1966 10.9414 14.3926L9.54688 16.4707L11.0645 18.7061C11.1966 18.902 11.1533 19 10.9346 19H10.2339C10.1154 19 10.0129 18.9328 9.92627 18.7983L8.88037 17.1646L7.83447 18.7983C7.74788 18.9328 7.64535 19 7.52686 19H6.82617ZM11.478 14.9736C11.3071 14.9736 11.2217 14.8996 11.2217 14.7515V14.3208C11.2217 14.1727 11.3071 14.0986 11.478 14.0986H14.9917C15.1626 14.0986 15.248 14.1727 15.248 14.3208V14.7515C15.248 14.8996 15.1626 14.9736 14.9917 14.9736H13.7339V18.812C13.7339 18.9373 13.6769 19 13.563 19H12.9067C12.7928 19 12.7358 18.9373 12.7358 18.812V14.9736H11.478Z" fill="white"/>
</svg>
