<svg width="307" height="301" viewBox="0 0 307 301" fill="none" xmlns="http://www.w3.org/2000/svg">
<path d="M263.906 258.113C257.776 264.566 251.976 268.727 247.394 272.015C193.53 310.663 129.795 299.397 116.25 296.646C96.2472 292.583 57.5821 284.73 29.629 251.857C-12.6627 202.124 -6.0777 123.769 26.7274 72.045C32.7276 62.5841 64.4242 10.0732 128.846 1.65232C167.833 -3.4439 213.28 6.83422 246.191 34.4082C315.274 92.2863 310.357 209.211 263.906 258.113Z" fill="url(#paint0_linear_1317_29688)"/>
<path d="M284.66 33.065C284.072 31.4616 281.719 31.7133 281.491 33.4056C279.282 49.7675 272.142 92.4887 255.374 116.979C228.073 156.854 214.654 217.271 239.483 244.109C239.483 244.108 348.734 207.756 284.66 33.065Z" fill="#BDD0FB"/>
<path opacity="0.43" d="M284.697 55.9626C284.73 56.4832 284.715 56.9148 284.72 57.3797L284.704 58.7507L284.641 61.4894C284.586 63.3146 284.504 65.1386 284.421 66.9627C284.242 70.6097 284.018 74.2535 283.761 77.8963C283.233 85.1796 282.508 92.448 281.674 99.7035C280.849 106.961 279.822 114.196 278.642 121.406C277.455 128.614 276.166 135.809 274.641 142.957C271.62 157.257 267.818 171.406 263.032 185.23C260.566 192.114 257.919 198.939 254.883 205.595C251.799 212.227 248.432 218.731 244.606 224.961C244.522 225.096 244.345 225.139 244.209 225.056C244.078 224.974 244.034 224.804 244.109 224.67L244.111 224.667C247.68 218.316 250.9 211.786 253.795 205.112C256.707 198.445 259.229 191.614 261.571 184.728C263.909 177.839 265.969 170.857 267.869 163.833C269.767 156.806 271.374 149.705 272.94 142.596C276.013 128.361 278.325 113.969 280.239 99.5268C281.18 92.3034 281.977 85.0597 282.644 77.8031C282.984 74.1753 283.29 70.5444 283.551 66.9102L283.901 61.4562L284.047 58.7292L284.105 57.3657C284.117 56.9191 284.137 56.4393 284.132 56.0472L284.131 55.983C284.129 55.8255 284.254 55.6959 284.411 55.6938C284.561 55.6927 284.688 55.8127 284.697 55.9626Z" fill="white"/>
<path d="M213.342 2.65055C212.365 1.34061 210.277 2.21247 210.529 3.82659C212.966 19.4344 218.074 60.5597 209.378 87.5928C195.219 131.608 199.394 190.675 229.486 208.513C229.486 208.513 319.757 145.371 213.342 2.65055Z" fill="#91B3FA"/>
<path opacity="0.43" d="M219.631 23.6363C219.802 24.1054 219.907 24.5049 220.038 24.9302L220.397 26.1919L221.087 28.7207C221.535 30.4098 221.957 32.1043 222.378 33.7998C223.211 37.193 224 40.5958 224.758 44.0062C226.262 50.83 227.581 57.6925 228.795 64.5742C230.02 71.4548 231.052 78.3697 231.937 85.3039C232.815 92.2381 233.597 99.1884 234.148 106.159C235.279 120.097 235.651 134.111 235.032 148.094C234.649 155.081 234.082 162.062 233.112 168.994C232.091 175.918 230.777 182.8 228.964 189.557C228.924 189.707 228.771 189.796 228.621 189.755C228.475 189.715 228.387 189.569 228.419 189.423L228.42 189.419C229.958 182.622 231.129 175.754 231.96 168.844C232.812 161.936 233.259 154.983 233.527 148.03C233.791 141.074 233.775 134.11 233.601 127.15C233.425 120.189 232.961 113.239 232.458 106.293C231.394 92.4009 229.587 78.5722 227.405 64.8066C226.298 57.9249 225.054 51.0646 223.687 44.2289C223.009 40.81 222.301 37.3965 221.549 33.9926L220.383 28.8964L219.773 26.3547L219.455 25.0887C219.344 24.6763 219.233 24.2297 219.12 23.873L219.101 23.813C219.055 23.6663 219.136 23.511 219.283 23.4649C219.43 23.4221 219.581 23.4981 219.631 23.6363Z" fill="white"/>
<path d="M122.892 267.717C188.843 267.717 242.307 214.253 242.307 148.302C242.307 82.3507 188.843 28.8868 122.892 28.8868C56.9405 28.8868 3.47656 82.3507 3.47656 148.302C3.47656 214.253 56.9405 267.717 122.892 267.717Z" fill="#009CF8"/>
<path d="M130.894 267.717C196.845 267.717 250.309 214.253 250.309 148.302C250.309 82.3507 196.845 28.8867 130.894 28.8867C64.9425 28.8867 11.4785 82.3507 11.4785 148.302C11.4785 214.253 64.9425 267.717 130.894 267.717Z" fill="white"/>
<path d="M130.892 250.218C187.179 250.218 232.808 204.588 232.808 148.302C232.808 92.0154 187.179 46.3861 130.892 46.3861C74.6058 46.3861 28.9766 92.0154 28.9766 148.302C28.9766 204.588 74.6058 250.218 130.892 250.218Z" fill="#009CF8"/>
<path d="M130.894 255.322C71.8822 255.322 23.873 207.313 23.873 148.302C23.873 89.2905 71.8822 41.2813 130.894 41.2813C189.905 41.2813 237.914 89.2905 237.914 148.302C237.914 207.313 189.904 255.322 130.894 255.322ZM130.894 46.385C74.697 46.385 28.9778 92.1043 28.9778 148.301C28.9778 204.498 74.697 250.217 130.894 250.217C187.09 250.217 232.809 204.497 232.809 148.301C232.809 92.1043 187.09 46.385 130.894 46.385Z" fill="white"/>
<path d="M130.894 210.434C165.209 210.434 193.027 182.617 193.027 148.302C193.027 113.987 165.209 86.1693 130.894 86.1693C96.5794 86.1693 68.7617 113.987 68.7617 148.302C68.7617 182.617 96.5794 210.434 130.894 210.434Z" fill="#009CF8"/>
<path d="M130.895 215.539C93.821 215.539 63.6582 185.376 63.6582 148.301C63.6582 111.226 93.821 81.0635 130.895 81.0635C167.97 81.0635 198.133 111.225 198.133 148.301C198.133 185.376 167.97 215.539 130.895 215.539ZM130.895 91.2731C99.4495 91.2731 73.8667 116.856 73.8667 148.301C73.8667 179.746 99.4495 205.33 130.895 205.33C162.341 205.33 187.924 179.746 187.924 148.301C187.924 116.856 162.341 91.2731 130.895 91.2731Z" fill="white"/>
<path d="M130.893 172.374C144.188 172.374 154.966 161.597 154.966 148.302C154.966 135.007 144.188 124.229 130.893 124.229C117.598 124.229 106.82 135.007 106.82 148.302C106.82 161.597 117.598 172.374 130.893 172.374Z" fill="url(#paint1_linear_1317_29688)"/>
<path d="M130.895 177.478C114.807 177.478 101.719 164.39 101.719 148.301C101.719 132.212 114.807 119.123 130.895 119.123C146.983 119.123 160.072 132.212 160.072 148.301C160.071 164.39 146.983 177.478 130.895 177.478ZM130.895 129.334C120.436 129.334 111.927 137.843 111.927 148.302C111.927 158.761 120.436 167.27 130.895 167.27C141.354 167.27 149.863 158.761 149.863 148.302C149.863 137.843 141.353 129.334 130.895 129.334Z" fill="white"/>
<path d="M297.201 184.195L302.3 194.486L280.677 189.507C273.593 187.876 267.613 183.154 264.385 176.639L297.201 184.195Z" fill="url(#paint2_linear_1317_29688)"/>
<path d="M297.914 181.103L307 174.077L285.377 169.099C278.291 167.468 270.849 169.1 265.098 173.547L297.914 181.103Z" fill="url(#paint3_linear_1317_29688)"/>
<path d="M298.403 180.676L297.549 184.382L157.203 152.07L158.057 148.364L298.403 180.676Z" fill="url(#paint4_linear_1317_29688)"/>
<path d="M164.569 146.537C166.695 147.026 164.387 157.05 162.26 156.561L129.973 144.942C128.779 144.512 129.19 142.732 130.45 142.868L164.569 146.537Z" fill="url(#paint5_linear_1317_29688)"/>
<path d="M198.828 291.141C198.828 291.141 200.551 293.624 200.638 297.114C200.658 297.935 199.993 298.615 199.172 298.643L185.905 299.106C185.284 299.128 185.005 298.338 185.5 297.963C187.949 296.112 192.769 292.648 196.293 291.228L198.828 291.141Z" fill="url(#paint6_linear_1317_29688)"/>
<path d="M199.159 286.904L198.819 292.005C198.781 292.576 198.29 293.022 197.72 292.975C197.374 292.946 196.958 292.857 196.498 292.651C196.061 292.455 195.791 292.004 195.809 291.525L196.041 285.372L199.159 286.904Z" fill="url(#paint7_linear_1317_29688)"/>
<path d="M272.74 268.889C272.74 268.889 275.506 267.668 278.949 268.245C279.76 268.381 280.3 269.163 280.172 269.975L278.109 283.088C278.013 283.702 277.185 283.827 276.911 283.269C275.559 280.513 273.071 275.125 272.346 271.395L272.74 268.889Z" fill="url(#paint8_linear_1317_29688)"/>
<path d="M268.642 267.761L273.585 269.062C274.138 269.208 274.485 269.776 274.33 270.325C274.235 270.659 274.069 271.051 273.779 271.464C273.503 271.856 273.009 272.035 272.543 271.926L266.545 270.532L268.642 267.761Z" fill="url(#paint9_linear_1317_29688)"/>
<path d="M200.947 164.578C200.947 164.578 200.502 163.551 200.574 162.943C200.646 162.335 200.663 160.437 199.524 159.636C199.524 159.636 198.907 159.666 198.895 160.358C198.17 159.58 198.134 158.908 197.384 159.385C196.635 159.862 193.816 161.573 195.224 162.7C196.631 163.828 198.844 165.975 198.844 165.975L200.947 164.578Z" fill="url(#paint10_linear_1317_29688)"/>
<path d="M225.375 246.627C225.375 246.627 227.886 266.666 235.076 267.431C242.265 268.196 269.8 272.173 269.8 272.173L270.565 268.043C270.565 268.043 254.656 258.405 245.172 258.558C240.43 251.521 241.587 232.079 241.587 232.079L225.375 246.627Z" fill="url(#paint11_linear_1317_29688)"/>
<path d="M254.953 176.665C254.106 199.007 242.387 200.98 242.387 200.98V229.554H225.863C225.863 229.554 217.85 210.042 218.058 203.519C206.14 198.48 200.107 169.665 198.848 165.975C199.435 165.528 199.751 165.545 200.95 164.578C217.194 190.431 221.157 194.405 221.157 194.405H230.335C247.972 192.82 252.311 176.056 252.311 176.056L254.953 176.665Z" fill="#006BDE"/>
<path d="M241.87 229.494C241.87 229.494 243.183 243.495 215.604 254.408C208.873 266.951 200.045 290.334 200.045 290.334H194.232C194.232 290.334 198.209 255.019 205.246 247.982C212.283 240.945 219.96 233.027 225.86 229.56C239.512 228.133 241.87 229.494 241.87 229.494Z" fill="url(#paint12_linear_1317_29688)"/>
<path d="M230.112 183.99L233.154 194.703C233.154 194.703 227.956 197.497 224.113 196.742L223.057 187.298L230.112 183.99Z" fill="url(#paint13_linear_1317_29688)"/>
<path d="M223.808 176.211C223.696 176.336 219.559 186.625 219.559 186.625L225.484 188.863L230.854 179.694C230.853 179.693 225.673 174.113 223.808 176.211Z" fill="url(#paint14_linear_1317_29688)"/>
<path d="M228.392 180.9L225.943 185.948C225.912 186.013 225.872 186.071 225.825 186.126C225.533 186.456 224.445 187.515 223.428 186.336C222.506 185.265 221.648 184.302 220.785 184.047C220.397 183.933 219.987 184.131 219.836 184.507C219.46 185.442 218.652 187.564 218.232 189.515C218.147 189.911 218.382 190.304 218.77 190.423C219.935 190.784 222.416 191.475 224.541 191.565C224.829 191.577 225.1 191.434 225.249 191.187C225.973 189.983 228.188 186.331 228.963 185.409C229.69 184.543 231.211 184.741 231.843 184.87C232.05 184.912 232.264 184.868 232.437 184.747C233.051 184.319 234.257 183.188 232.929 181.522C232.651 181.173 232.717 180.668 233.073 180.401C233.785 179.869 234.592 178.875 233.671 177.425C232.735 175.951 231.274 176.003 230.357 176.226C229.986 176.316 229.615 176.121 229.458 175.774C229.37 175.576 229.193 175.414 228.856 175.406C228.403 175.394 228.068 174.976 228.127 174.526C228.241 173.663 228.053 172.534 226.605 171.898C224.034 170.768 222.082 173.155 221.701 175.058C221.319 176.96 224.177 178.027 225.92 178.092C227.246 178.141 228.075 179.554 228.396 180.229C228.498 180.44 228.496 180.687 228.392 180.9Z" fill="url(#paint15_linear_1317_29688)"/>
<path d="M228.051 187.236C228.051 187.236 228.857 183.95 230.263 183.942C231.668 183.936 232.89 185.227 231.299 186.943C229.322 189.079 228.051 187.236 228.051 187.236Z" fill="url(#paint16_linear_1317_29688)"/>
<path d="M255.505 170.771C255.505 170.771 251.936 169.19 252.394 171.842C252.853 174.494 251.894 176.432 253.929 176.635C255.963 176.839 256.196 172.604 255.505 170.771Z" fill="url(#paint17_linear_1317_29688)"/>
<g opacity="0.3">
<path opacity="0.3" d="M44.1852 53.8119C43.6111 53.8409 43.0949 53.4317 43.0049 52.8512C42.8057 51.5809 42.66 50.2838 42.569 48.9953C42.525 48.3687 42.9974 47.8246 43.624 47.7807C43.6315 47.7807 43.639 47.7796 43.6465 47.7796C44.2645 47.7485 44.7957 48.2166 44.8397 48.8368C44.9253 50.061 45.0646 51.2938 45.2531 52.4999C45.3506 53.1211 44.9264 53.7027 44.3052 53.8002C44.2645 53.8055 44.2238 53.8098 44.1852 53.8119ZM43.7536 43.9076C43.7097 43.9098 43.6636 43.9098 43.6186 43.9066C42.992 43.8648 42.5165 43.3218 42.5593 42.6952C42.6461 41.4067 42.7875 40.1096 42.9824 38.8403C43.0777 38.2191 43.655 37.7939 44.2795 37.8871C44.9007 37.9824 45.327 38.5629 45.2317 39.1842C45.0474 40.3913 44.9125 41.623 44.83 42.8473C44.7904 43.4289 44.3213 43.8787 43.7536 43.9076ZM45.5134 34.1544C45.387 34.1608 45.2574 34.1458 45.1289 34.1072C44.5269 33.9262 44.1852 33.2921 44.3652 32.6902C44.7347 31.4563 45.1631 30.2224 45.6376 29.0249C45.87 28.4412 46.5309 28.1552 47.1146 28.3866C47.6984 28.6179 47.9854 29.2799 47.753 29.8636C47.3021 31.0011 46.8951 32.1728 46.5437 33.3446C46.4034 33.818 45.9804 34.1308 45.5134 34.1544ZM49.4121 25.0373C49.2033 25.048 48.988 25.0009 48.793 24.8895C48.2468 24.5789 48.055 23.8837 48.3657 23.3375C49.003 22.2171 49.6959 21.1096 50.4264 20.0482C50.7831 19.5309 51.4911 19.4002 52.0084 19.7547C52.5258 20.1103 52.6575 20.8194 52.3019 21.3378C51.6089 22.3457 50.9502 23.3975 50.345 24.4621C50.1447 24.8145 49.787 25.0191 49.4121 25.0373ZM55.2442 17.0192C54.9507 17.0342 54.6519 16.9367 54.4184 16.7225C53.9546 16.2983 53.9224 15.5786 54.3466 15.1148C55.2142 14.1658 56.1353 13.2404 57.0832 12.3653C57.5448 11.939 58.2646 11.9669 58.6909 12.4285C59.1172 12.8901 59.0883 13.6099 58.6266 14.0373C57.7259 14.8695 56.8508 15.7489 56.0261 16.6507C55.8161 16.881 55.5334 17.0052 55.2442 17.0192ZM62.7053 10.492C62.3251 10.5113 61.9449 10.3399 61.7114 10.0046C61.3526 9.48837 61.48 8.77932 61.9963 8.4205C63.0545 7.68574 64.1566 6.98632 65.2738 6.34367C65.819 6.02984 66.5141 6.21729 66.8279 6.76247C67.1418 7.30658 66.9543 8.00278 66.4091 8.3166C65.3477 8.92712 64.3002 9.5912 63.2955 10.2895C63.1145 10.4159 62.9099 10.4813 62.7053 10.492ZM104.213 5.66353C104.056 5.67103 103.895 5.6464 103.739 5.58534C102.601 5.13656 101.429 4.73169 100.254 4.38252C99.6523 4.20365 99.3085 3.56957 99.4885 2.96762C99.6673 2.3646 100.301 2.02185 100.903 2.20179C102.14 2.57025 103.375 2.99653 104.573 3.46888C105.158 3.69917 105.445 4.36002 105.214 4.94484C105.045 5.37327 104.645 5.64211 104.213 5.66353ZM71.4218 5.78242C70.9505 5.80599 70.4943 5.53286 70.3079 5.07123C70.0733 4.48856 70.355 3.82555 70.9377 3.58992C72.1319 3.10793 73.3626 2.67307 74.5944 2.29605C75.1963 2.11503 75.8315 2.44921 76.0157 3.05116C76.1999 3.65204 75.8615 4.28826 75.2606 4.47249C74.0909 4.83023 72.9224 5.24367 71.7881 5.70102C71.6682 5.74922 71.5439 5.776 71.4218 5.78242ZM94.6397 3.08972C94.5647 3.09401 94.4887 3.09079 94.4105 3.07901C93.2012 2.89585 91.9673 2.76411 90.7441 2.68378C90.1165 2.64308 89.642 2.10111 89.6827 1.47453C89.7234 0.847942 90.2643 0.369167 90.892 0.413082C92.1794 0.496626 93.4776 0.636939 94.75 0.828662C95.3712 0.922918 95.7997 1.50237 95.7054 2.1236C95.624 2.66771 95.1688 3.06294 94.6397 3.08972ZM80.9705 3.13899C80.3964 3.16791 79.8823 2.7609 79.7902 2.18037C79.6916 1.55914 80.1147 0.976471 80.736 0.877931C82.0073 0.676568 83.3033 0.527689 84.5897 0.434505C84.5972 0.433433 84.6058 0.433431 84.6143 0.43236C85.2313 0.401299 85.7625 0.868292 85.8065 1.48738C85.8514 2.11396 85.3802 2.65915 84.7536 2.70413C83.5315 2.79196 82.2997 2.93441 81.0926 3.12614C81.0519 3.13256 81.0112 3.13685 80.9705 3.13899Z" fill="#91B3FA"/>
<path opacity="0.3" d="M111.35 9.25592C111.126 9.2677 110.897 9.21308 110.692 9.08562C110.194 8.77501 109.681 8.47082 109.168 8.17949C108.622 7.86994 108.43 7.17481 108.74 6.62856C109.049 6.08231 109.744 5.88951 110.291 6.20012C110.831 6.50645 111.37 6.82671 111.894 7.15339C112.428 7.48542 112.591 8.18698 112.259 8.72038C112.055 9.0492 111.71 9.23664 111.35 9.25592Z" fill="#91B3FA"/>
</g>
<g opacity="0.3">
<path opacity="0.3" d="M131.312 37.6354C130.763 37.6632 130.26 37.2905 130.142 36.7357C130.02 36.1616 129.884 35.581 129.737 35.0091C129.581 34.3996 129.948 33.7805 130.557 33.6242C131.168 33.4678 131.785 33.8352 131.941 34.4435C132.096 35.0455 132.239 35.6571 132.368 36.2612C132.498 36.876 132.106 37.4801 131.492 37.6107C131.432 37.6247 131.372 37.6322 131.312 37.6354Z" fill="#91B3FA"/>
<path opacity="0.3" d="M90.2703 91.1596C89.7477 91.1864 89.2218 91.2046 88.6948 91.2131C88.0661 91.2239 87.5476 90.7236 87.5369 90.0949C87.5262 89.4662 88.0296 88.9457 88.6552 88.9371C89.873 88.9157 91.0876 88.846 92.2776 88.7261C92.9031 88.6639 93.4611 89.1192 93.5232 89.7447C93.5864 90.3702 93.1301 90.9282 92.5046 90.9903C91.7688 91.0653 91.0169 91.121 90.2703 91.1596ZM82.6946 90.9057C82.6314 90.909 82.566 90.9068 82.5007 90.8993C81.24 90.7494 79.9719 90.5448 78.7305 90.2899C78.1146 90.1635 77.7183 89.5626 77.8447 88.9467C77.9711 88.3308 78.5741 87.9324 79.1878 88.0609C80.366 88.303 81.571 88.4969 82.7695 88.6404C83.394 88.7143 83.8396 89.2809 83.7646 89.9043C83.6992 90.4623 83.2387 90.8779 82.6946 90.9057ZM98.4084 89.9814C97.8729 90.0082 97.3759 89.6526 97.2452 89.1117C97.0974 88.5001 97.4734 87.8863 98.0839 87.7385C99.2525 87.4568 100.425 87.1205 101.569 86.7392C102.166 86.5411 102.81 86.8635 103.009 87.459C103.207 88.0556 102.886 88.7004 102.289 88.8985C101.084 89.3002 99.8491 89.6536 98.6184 89.9514C98.5477 89.9675 98.4781 89.9782 98.4084 89.9814ZM73.1908 88.6929C73.0463 88.7004 72.8984 88.68 72.7538 88.6286C71.5574 88.2055 70.3653 87.7268 69.2107 87.2051C68.6377 86.9459 68.3838 86.2722 68.642 85.7003C68.9012 85.1272 69.5749 84.8723 70.1479 85.1315C71.2447 85.6274 72.3768 86.0826 73.5132 86.4832C74.1056 86.6921 74.4162 87.3433 74.2073 87.9356C74.0477 88.3833 73.6375 88.6704 73.1908 88.6929ZM107.574 86.6567C107.135 86.6792 106.703 86.4436 106.495 86.0237C106.217 85.4603 106.448 84.7781 107.011 84.4996C108.089 83.9673 109.159 83.3814 110.191 82.758C110.729 82.4335 111.429 82.6059 111.754 83.1447C112.079 83.6823 111.906 84.3818 111.367 84.7063C110.28 85.3629 109.155 85.9798 108.019 86.54C107.876 86.6107 107.724 86.6492 107.574 86.6567ZM115.788 81.4009C115.437 81.4192 115.082 81.2735 114.843 80.98C114.448 80.4905 114.525 79.774 115.013 79.3798C115.951 78.6225 116.868 77.8171 117.738 76.9859C118.192 76.5511 118.912 76.5671 119.347 77.0224C119.781 77.4765 119.765 78.1973 119.311 78.6311C118.395 79.5062 117.43 80.3534 116.443 81.1503C116.249 81.3067 116.019 81.3892 115.788 81.4009ZM122.661 74.4807C122.393 74.4946 122.121 74.4143 121.895 74.2343C121.404 73.8434 121.322 73.1268 121.713 72.6352C122.464 71.6916 123.184 70.7051 123.852 69.7047C124.201 69.182 124.907 69.0406 125.431 69.3898C125.953 69.739 126.095 70.4448 125.746 70.9686C125.043 72.0215 124.286 73.0593 123.495 74.0522C123.282 74.3179 122.976 74.4646 122.661 74.4807ZM127.861 66.2258C127.676 66.2355 127.486 66.199 127.307 66.1134C126.742 65.8392 126.506 65.158 126.78 64.5935C127.307 63.5085 127.793 62.3892 128.224 61.2667C128.45 60.6798 129.109 60.3873 129.695 60.6123C130.282 60.8383 130.574 61.4959 130.348 62.0829C129.893 63.2664 129.382 64.4446 128.827 65.5864C128.64 65.9731 128.262 66.2055 127.861 66.2258ZM131.123 57.0274C131.019 57.0327 130.912 57.0231 130.806 56.9984C130.194 56.856 129.814 56.2433 129.956 55.6317C130.229 54.461 130.456 53.2625 130.631 52.0693C130.722 51.447 131.301 51.0175 131.922 51.1075C132.544 51.1985 132.974 51.7758 132.883 52.3981C132.7 53.6534 132.461 54.9152 132.173 56.148C132.054 56.6535 131.616 57.0017 131.123 57.0274ZM132.284 47.3426C132.26 47.3437 132.236 47.3437 132.213 47.3437C131.584 47.3373 131.08 46.8231 131.086 46.1944C131.095 45.3076 131.076 44.41 131.032 43.5253C131.015 43.205 130.995 42.8858 130.972 42.5677C130.925 41.9411 131.397 41.396 132.024 41.3499C132.658 41.291 133.196 41.7751 133.242 42.4017C133.267 42.737 133.287 43.0722 133.304 43.4085C133.351 44.3382 133.371 45.2829 133.361 46.2169C133.357 46.8231 132.879 47.3126 132.284 47.3426Z" fill="#91B3FA"/>
<path opacity="0.3" d="M64.382 84.4267C64.156 84.4385 63.9246 84.3828 63.719 84.2532C63.1974 83.9255 62.6736 83.5795 62.1606 83.2271C61.6432 82.8704 61.5126 82.1625 61.8682 81.644C62.2248 81.1267 62.9328 80.995 63.4512 81.3516C63.9386 81.6869 64.4366 82.0146 64.9315 82.3263C65.4638 82.6605 65.6234 83.3631 65.2881 83.8955C65.0825 84.2232 64.7397 84.4085 64.382 84.4267Z" fill="#91B3FA"/>
</g>
<path d="M65.2401 71.1667C65.3922 71.3349 65.6343 71.3884 65.8431 71.2995L71.7973 68.7589C74.2833 70.4791 77.0617 71.8158 80.0511 72.6758L81.8515 78.8892C81.9147 79.1077 82.1097 79.2609 82.3357 79.2726L90.0903 79.6614C90.3174 79.6722 90.5262 79.5393 90.6109 79.3283L93.0229 73.326C96.0841 72.769 98.9814 71.7172 101.627 70.2531L107.297 73.3753C107.495 73.4845 107.742 73.4556 107.911 73.3035L113.669 68.0948C113.837 67.9427 113.891 67.7007 113.802 67.4918L111.261 61.5377C112.982 59.0517 114.318 56.2733 115.178 53.2839L121.392 51.4834C121.61 51.4202 121.763 51.2263 121.775 50.9993L122.164 43.2446C122.176 43.0175 122.042 42.8087 121.831 42.7251L115.828 40.3131C115.271 37.2519 114.22 34.3546 112.756 31.709L115.879 26.0387C115.988 25.8406 115.959 25.5932 115.807 25.425L110.598 19.6669C110.446 19.4987 110.204 19.4451 109.995 19.534L104.041 22.0747C101.555 20.3545 98.7768 19.0178 95.7874 18.1577L93.9869 11.9443C93.9237 11.7269 93.7299 11.5727 93.5028 11.5609L85.7481 11.1721C85.5211 11.1603 85.3122 11.2942 85.2276 11.5052L82.8155 17.5076C79.7544 18.0645 76.8571 19.1163 74.2115 20.5805L68.5412 17.4583C68.342 17.349 68.0956 17.378 67.9274 17.53L62.1693 22.7387C62.0012 22.8908 61.9476 23.1329 62.0365 23.3417L64.5771 29.2959C62.8569 31.7819 61.5202 34.5603 60.6602 37.5497L54.4468 39.3502C54.2294 39.4134 54.0751 39.6072 54.0634 39.8343L53.6745 47.5889C53.6628 47.816 53.7966 48.0249 54.0077 48.1095L60.01 50.5216C60.567 53.5827 61.6188 56.48 63.0829 59.1256L59.9607 64.7959C59.8515 64.9951 59.8804 65.2404 60.0325 65.4096L65.2401 71.1667Z" fill="#91B3FA"/>
<path d="M88.3094 53.2121C84.5091 53.406 81.0313 50.7861 80.2634 46.9463C79.4204 42.7262 82.1678 38.6068 86.3878 37.7628C88.4325 37.3537 90.5136 37.766 92.2477 38.9228C93.9818 40.0796 95.1621 41.8426 95.5713 43.8862C96.4142 48.1063 93.6669 52.2257 89.4468 53.0697C89.0666 53.1457 88.6864 53.1929 88.3094 53.2121ZM87.6249 39.4391C87.3315 39.4541 87.038 39.4905 86.7445 39.5494C83.5088 40.1963 81.403 43.355 82.0489 46.5896C82.6958 49.8254 85.8534 51.9333 89.0902 51.2853C92.3259 50.6383 94.4317 47.4797 93.7858 44.245C93.472 42.677 92.568 41.3263 91.2377 40.4384C90.157 39.7176 88.8995 39.3737 87.6249 39.4391Z" fill="#BDD0FB"/>
<path d="M89.042 64.4628C88.3897 64.496 87.731 64.4971 87.0701 64.4638C86.8623 64.4531 86.6534 64.4392 86.4456 64.4231C85.4206 64.3385 84.4042 64.1725 83.4123 63.9283C83.3984 63.9251 83.3856 63.9219 83.3716 63.9187C83.3331 63.909 83.2945 63.8994 83.257 63.8897C83.1821 63.8705 83.1082 63.8512 83.0343 63.8308C82.8393 63.7784 82.7076 63.607 82.6979 63.4153C82.6958 63.3681 82.7001 63.321 82.7129 63.2739C82.7783 63.0307 83.0278 62.8883 83.271 62.9525C84.5198 63.2878 85.8137 63.4913 87.1161 63.5556C93.5855 63.8812 99.4486 60.7836 102.948 55.8566C104.894 53.1168 106.109 49.8104 106.289 46.2126C106.321 45.5817 106.32 44.9541 106.287 44.3307C106.073 40.1417 104.439 36.1862 101.588 33.034C98.3122 29.4126 93.8222 27.2833 88.9456 27.0391C78.8742 26.5357 70.2777 34.3161 69.7732 44.3821C69.7421 45.0023 69.7421 45.6224 69.7742 46.2394C69.9113 48.9117 70.6311 51.5241 71.8907 53.8869C71.9228 53.9479 71.94 54.0133 71.9432 54.0776C71.9517 54.2479 71.8639 54.4171 71.7033 54.5028C71.4805 54.6206 71.2052 54.5381 71.0874 54.3153C69.7646 51.8347 69.0084 49.0917 68.8649 46.2865C68.8317 45.6396 68.8317 44.9883 68.8638 44.3371C69.3929 33.7677 78.4254 25.6007 88.9905 26.1298C94.1103 26.3858 98.8242 28.6211 102.262 32.4224C105.256 35.732 106.972 39.8836 107.197 44.2814C107.23 44.9348 107.23 45.5946 107.198 46.2565C106.941 51.3763 104.707 56.0901 100.905 59.5294C97.5946 62.523 93.4409 64.2389 89.042 64.4628Z" fill="#BDD0FB"/>
<g opacity="0.3">
<path opacity="0.3" d="M6.92848 85.7377C6.62537 85.7527 6.3351 85.5696 6.23013 85.2675C6.03306 84.7042 5.8499 84.1279 5.6871 83.5527C5.58106 83.1789 5.79742 82.7912 6.17123 82.6852C6.54503 82.5781 6.93277 82.7966 7.0388 83.1693C7.19411 83.7166 7.3687 84.2661 7.55614 84.8038C7.68467 85.1701 7.4908 85.5706 7.12449 85.6992C7.06023 85.7227 6.99382 85.7345 6.92848 85.7377Z" fill="#91B3FA"/>
<path opacity="0.3" d="M5.61715 80.4926C5.26155 80.5109 4.94236 80.257 4.88774 79.8971C4.73136 78.8817 4.62532 77.846 4.57391 76.821C4.5632 76.6046 4.55463 76.3883 4.54713 76.1708C4.53642 75.782 4.86203 75.4725 5.22834 75.4468C5.61607 75.435 5.94061 75.7402 5.9524 76.128C5.95882 76.3358 5.96632 76.5436 5.97703 76.7492C6.02737 77.7271 6.12805 78.7147 6.27586 79.6829C6.33477 80.0664 6.07129 80.4252 5.68784 80.4852C5.66427 80.4884 5.64071 80.4916 5.61715 80.4926ZM5.39972 73.1975C5.36651 73.1996 5.33224 73.1986 5.29903 73.1954C4.91237 73.1589 4.62747 72.8173 4.66388 72.4306C4.77849 71.1903 4.97021 69.9468 5.23477 68.7332C5.31724 68.3541 5.69426 68.1141 6.07128 68.1966C6.45045 68.2802 6.69037 68.654 6.6079 69.0331C6.35512 70.1899 6.17197 71.3767 6.06272 72.5602C6.03059 72.9126 5.74353 73.1804 5.39972 73.1975ZM6.95814 66.0684C6.86924 66.0727 6.77713 66.0598 6.68823 66.0287C6.32192 65.8991 6.1302 65.4975 6.2598 65.1312C6.67431 63.9583 7.16593 62.7994 7.7229 61.6855C7.89641 61.3374 8.31735 61.1971 8.66545 61.3717C9.01248 61.5452 9.15279 61.9672 8.98035 62.3142C8.44909 63.3767 7.97996 64.481 7.58473 65.5992C7.48833 65.8766 7.23448 66.0544 6.95814 66.0684ZM10.2217 59.5401C10.0761 59.5476 9.92718 59.5101 9.79758 59.4234C9.47411 59.2081 9.38629 58.7711 9.60157 58.4487C10.2924 57.4119 11.0529 56.4083 11.8626 55.4668C12.1165 55.1733 12.5599 55.1401 12.8534 55.3929C13.1479 55.6457 13.1811 56.0891 12.9273 56.3847C12.155 57.2823 11.4288 58.2387 10.7712 59.2274C10.6437 59.4201 10.437 59.5294 10.2217 59.5401ZM14.9806 54.0069C14.7781 54.0176 14.5714 53.9394 14.4247 53.7777C14.1633 53.4906 14.1847 53.0461 14.4718 52.7848C15.3929 51.9483 16.374 51.16 17.3883 50.4434C17.7054 50.2185 18.1435 50.2945 18.3684 50.6116C18.5922 50.9286 18.5173 51.3677 18.2002 51.5916C17.232 52.276 16.2969 53.0279 15.4176 53.8259C15.2922 53.9383 15.1369 53.9994 14.9806 54.0069ZM20.9379 49.7965C20.6755 49.8104 20.4152 49.6744 20.2824 49.4259C20.0993 49.0842 20.2278 48.6579 20.5695 48.4747C21.6663 47.8867 22.8102 47.3619 23.968 46.9153C24.3322 46.776 24.7371 46.9559 24.8774 47.318C25.0166 47.68 24.8367 48.087 24.4746 48.2263C23.3693 48.6525 22.28 49.1527 21.2346 49.7129C21.1393 49.7654 21.0375 49.7922 20.9379 49.7965ZM27.7414 47.1723C27.4126 47.1894 27.1074 46.972 27.0249 46.64C26.9306 46.263 27.1609 45.8817 27.5369 45.7874C28.7397 45.4875 29.9779 45.2594 31.216 45.1094C31.6027 45.0687 31.9519 45.3375 31.9979 45.7231C32.0451 46.1087 31.7698 46.459 31.3853 46.5061C30.2039 46.6486 29.0235 46.866 27.8764 47.152C27.8303 47.1637 27.7854 47.1691 27.7414 47.1723ZM38.6344 46.5275C38.5937 46.5297 38.5519 46.5286 38.5101 46.5232C37.4937 46.3958 36.4515 46.3219 35.4136 46.3026C35.2562 46.2994 35.1019 46.2972 34.9477 46.2972C34.5589 46.2962 34.2451 45.9823 34.2451 45.5935C34.2451 45.2047 34.5621 44.8791 34.9488 44.8909C35.1126 44.892 35.2765 44.893 35.4415 44.8963C36.5254 44.9155 37.6179 44.9937 38.6836 45.1276C39.0692 45.1758 39.3413 45.5271 39.2931 45.9127C39.2524 46.2565 38.9685 46.5104 38.6344 46.5275Z" fill="#91B3FA"/>
</g>
<g opacity="0.3">
<path opacity="0.3" d="M36.8438 105.542C36.4604 105.561 36.1316 105.269 36.1069 104.884C36.0823 104.498 36.3758 104.163 36.7635 104.138C37.9299 104.063 39.1017 103.917 40.2456 103.703C40.6258 103.636 40.9943 103.883 41.066 104.264C41.1378 104.647 40.8861 105.013 40.5048 105.085C39.3041 105.309 38.0766 105.463 36.8535 105.541C36.8513 105.541 36.847 105.541 36.8438 105.542ZM33.2482 105.555C33.2225 105.556 33.1979 105.556 33.1722 105.555C31.95 105.486 30.7204 105.343 29.5165 105.129C29.1342 105.06 28.8792 104.696 28.9478 104.314C29.0153 103.931 29.3827 103.677 29.7629 103.744C30.9122 103.948 32.085 104.085 33.2514 104.151C33.6391 104.172 33.9358 104.504 33.9133 104.892C33.893 105.255 33.6027 105.537 33.2482 105.555ZM43.898 104.22C43.5863 104.236 43.2918 104.043 43.1932 103.731C43.0754 103.361 43.28 102.966 43.6495 102.848C44.7634 102.494 45.8656 102.069 46.9249 101.583C47.2794 101.423 47.695 101.577 47.8567 101.93C48.0184 102.283 47.8631 102.701 47.5097 102.862C46.399 103.37 45.2443 103.817 44.0758 104.188C44.0169 104.206 43.9569 104.217 43.898 104.22ZM26.1801 104.292C26.0998 104.296 26.0184 104.287 25.937 104.262C24.7663 103.902 23.6074 103.465 22.4902 102.965C22.1357 102.807 21.9772 102.391 22.1357 102.036C22.2942 101.683 22.7098 101.524 23.0643 101.683C24.129 102.16 25.2343 102.576 26.3504 102.92C26.721 103.035 26.9299 103.428 26.8153 103.798C26.7264 104.087 26.4661 104.277 26.1801 104.292ZM50.423 101.232C50.1745 101.245 49.9271 101.125 49.7879 100.898C49.5844 100.567 49.6883 100.134 50.0182 99.9307C51.0121 99.3202 51.9793 98.6432 52.8919 97.916C53.1961 97.6739 53.6384 97.7243 53.8794 98.0284C54.1215 98.3326 54.0711 98.775 53.767 99.016C52.8094 99.7775 51.7962 100.489 50.754 101.128C50.6501 101.193 50.5366 101.227 50.423 101.232ZM56.0409 96.7667C55.8502 96.7763 55.6574 96.7089 55.5117 96.5653C55.2354 96.2933 55.2322 95.8477 55.5043 95.5714C56.3247 94.7381 57.1023 93.8491 57.8146 92.9269C58.0524 92.6195 58.4937 92.5627 58.8011 92.8005C59.1085 93.0383 59.1652 93.4785 58.9274 93.7859C58.1809 94.752 57.3658 95.6849 56.5057 96.5578C56.3772 96.6885 56.2101 96.7581 56.0409 96.7667ZM60.427 91.0835C60.2931 91.0899 60.156 91.06 60.0328 90.985C59.6986 90.7868 59.5894 90.3552 59.7875 90.0221C60.3852 89.0174 60.9261 87.9677 61.3952 86.9009C61.5516 86.5464 61.9661 86.3847 62.3217 86.5411C62.6773 86.6974 62.838 87.1119 62.6816 87.4675C62.1889 88.5857 61.6223 89.6868 60.9957 90.7408C60.8715 90.9507 60.654 91.0717 60.427 91.0835Z" fill="#91B3FA"/>
<path opacity="0.3" d="M19.5987 101.341C19.4637 101.348 19.3245 101.316 19.1992 101.241C18.684 100.929 18.1763 100.601 17.6889 100.266C17.3697 100.045 17.2883 99.6083 17.509 99.288C17.7296 98.9699 18.1666 98.8885 18.4869 99.1081C18.9517 99.4283 19.4359 99.7411 19.9275 100.038C20.2595 100.239 20.3656 100.671 20.1653 101.003C20.0389 101.211 19.8236 101.329 19.5987 101.341Z" fill="#91B3FA"/>
</g>
<path d="M19.7214 92.2435C19.8232 92.356 19.9849 92.3913 20.1252 92.3324L24.1097 90.6326C25.7731 91.784 27.6325 92.6783 29.6322 93.2535L30.8371 97.4115C30.8789 97.5571 31.0096 97.66 31.1617 97.6675L36.3511 97.9277C36.5032 97.9352 36.6424 97.8453 36.6992 97.7049L38.3133 93.6884C40.3612 93.3156 42.301 92.6119 44.0704 91.6319L47.8642 93.7216C47.997 93.7944 48.1619 93.7751 48.2744 93.6734L52.1271 90.1881C52.2395 90.0863 52.2749 89.9246 52.216 89.7843L50.5162 85.7999C51.6676 84.1365 52.5619 82.2771 53.1371 80.2763L57.2951 79.0713C57.4407 79.0295 57.5436 78.8989 57.5511 78.7478L57.8113 73.5584C57.8188 73.4063 57.7299 73.2671 57.5885 73.2103L53.572 71.5962C53.1992 69.5483 52.4955 67.6086 51.5155 65.8391L53.6052 62.0443C53.678 61.9115 53.6587 61.7465 53.557 61.6341L50.0717 57.7814C49.9699 57.6689 49.8082 57.6336 49.6679 57.6925L45.6834 59.3923C44.0201 58.2409 42.1607 57.3465 40.1609 56.7713L38.956 52.6134C38.9142 52.4677 38.7835 52.3649 38.6325 52.3574L33.4431 52.0971C33.291 52.0896 33.1518 52.1785 33.095 52.3199L31.4809 56.3365C29.433 56.7092 27.4932 57.4129 25.7238 58.393L21.93 56.3044C21.7972 56.2315 21.6323 56.2508 21.5198 56.3526L17.6671 59.8379C17.5546 59.9396 17.5193 60.1013 17.5782 60.2417L19.278 64.2261C18.1266 65.8895 17.2322 67.7489 16.6571 69.7497L12.4991 70.9546C12.3535 70.9964 12.2506 71.1271 12.2431 71.2792L11.9829 76.4686C11.9754 76.6207 12.0643 76.7599 12.2056 76.8167L16.2222 78.4308C16.595 80.4787 17.2987 82.4174 18.2776 84.1879L16.1879 87.9827C16.1151 88.1155 16.1344 88.2805 16.2361 88.3929L19.7214 92.2435Z" fill="#91B3FA"/>
<path d="M35.1578 80.3234C34.0257 80.3812 32.9085 80.076 31.9488 79.4355C30.7674 78.6471 29.9641 77.4465 29.6856 76.0541C29.1115 73.1803 30.9816 70.3741 33.8564 69.7989C36.7355 69.2291 39.5375 71.096 40.1116 73.9708C40.39 75.3632 40.1094 76.7813 39.3211 77.9627C38.5328 79.1441 37.3321 79.9485 35.9397 80.2259C35.6805 80.2784 35.4181 80.3105 35.1578 80.3234ZM34.7015 71.1067C34.513 71.1163 34.3224 71.1399 34.1317 71.1774C32.0174 71.6005 30.641 73.6645 31.063 75.7788C31.2676 76.8027 31.8589 77.6864 32.7275 78.2658C33.5972 78.8453 34.6394 79.0509 35.6644 78.8474C36.6884 78.6429 37.572 78.0516 38.1515 77.183C38.7309 76.3133 38.9377 75.2711 38.7331 74.2461C38.3496 72.3224 36.6059 71.0092 34.7015 71.1067Z" fill="#BDD0FB"/>
<path d="M35.6559 88.1552C35.2114 88.1777 34.7626 88.1777 34.3096 88.1552C33.4088 88.1102 32.5123 87.9742 31.6426 87.7492C31.604 87.7385 31.5644 87.7289 31.5258 87.7182C31.2238 87.6378 31.0213 87.3722 31.0063 87.0755C31.0031 87.0038 31.0106 86.9299 31.0299 86.857C31.1306 86.4821 31.5162 86.2615 31.891 86.3611C32.7019 86.5785 33.5394 86.7103 34.3802 86.7521C34.4263 86.7542 34.4734 86.7563 34.5184 86.7585C36.5106 86.8388 38.4471 86.42 40.1887 85.5621C41.1345 85.0962 42.0224 84.4996 42.8311 83.7809C42.8375 83.7755 42.844 83.7691 42.8504 83.7637C42.8707 83.7455 42.89 83.7284 42.9104 83.7102C45.2539 81.5894 46.6324 78.6825 46.7909 75.526C46.8112 75.1179 46.8112 74.7109 46.7909 74.3082C46.6527 71.5962 45.5945 69.0363 43.7479 66.9948C41.6272 64.6502 38.7203 63.2728 35.5638 63.1154C32.4084 62.959 29.3772 64.0387 27.0326 66.1583C24.6891 68.2791 23.3106 71.186 23.1521 74.3425C23.1317 74.7441 23.1317 75.1458 23.1521 75.5442C23.241 77.274 23.7069 78.9653 24.522 80.4948C24.5723 80.589 24.5991 80.6897 24.6034 80.7893C24.6173 81.0528 24.4802 81.3131 24.2328 81.4459C23.8901 81.628 23.4648 81.4995 23.2817 81.1567C22.3691 79.4451 21.8475 77.5525 21.7479 75.6181C21.7254 75.1715 21.7243 74.7227 21.7468 74.2729C21.9235 70.7404 23.4659 67.4886 26.089 65.1162C28.7121 62.7437 32.0988 61.5323 35.6334 61.7112C39.1658 61.8879 42.4177 63.4292 44.7901 66.0523C46.8562 68.3348 48.0398 71.1999 48.1951 74.2343C48.2176 74.6842 48.2186 75.1394 48.1962 75.5967C47.8534 82.4324 42.3523 87.8135 35.6559 88.1552Z" fill="#BDD0FB"/>
<defs>
<linearGradient id="paint0_linear_1317_29688" x1="337.32" y1="388.813" x2="70.4627" y2="57.392" gradientUnits="userSpaceOnUse">
<stop stop-color="#DAE3FE"/>
<stop offset="1" stop-color="#E9EFFD"/>
</linearGradient>
<linearGradient id="paint1_linear_1317_29688" x1="296.01" y1="-204.1" x2="79.4364" y2="258.123" gradientUnits="userSpaceOnUse">
<stop stop-color="#FF928E"/>
<stop offset="1" stop-color="#FE7062"/>
</linearGradient>
<linearGradient id="paint2_linear_1317_29688" x1="278.104" y1="183.325" x2="386.275" y2="219.085" gradientUnits="userSpaceOnUse">
<stop stop-color="#4F52FF"/>
<stop offset="1" stop-color="#4042E2"/>
</linearGradient>
<linearGradient id="paint3_linear_1317_29688" x1="280.359" y1="173.534" x2="393.275" y2="188.684" gradientUnits="userSpaceOnUse">
<stop stop-color="#4F52FF"/>
<stop offset="1" stop-color="#4042E2"/>
</linearGradient>
<linearGradient id="paint4_linear_1317_29688" x1="123.436" y1="113.662" x2="237.06" y2="171.048" gradientUnits="userSpaceOnUse">
<stop stop-color="#09005D"/>
<stop offset="1" stop-color="#1A0F91"/>
</linearGradient>
<linearGradient id="paint5_linear_1317_29688" x1="142.933" y1="144.776" x2="238.036" y2="176.216" gradientUnits="userSpaceOnUse">
<stop stop-color="#09005D"/>
<stop offset="1" stop-color="#1A0F91"/>
</linearGradient>
<linearGradient id="paint6_linear_1317_29688" x1="200.559" y1="294.837" x2="185.137" y2="295.376" gradientUnits="userSpaceOnUse">
<stop stop-color="#09005D"/>
<stop offset="1" stop-color="#1A0F91"/>
</linearGradient>
<linearGradient id="paint7_linear_1317_29688" x1="199.424" y1="288.835" x2="195.495" y2="289.376" gradientUnits="userSpaceOnUse">
<stop stop-color="#FEBBBA"/>
<stop offset="1" stop-color="#FF928E"/>
</linearGradient>
<linearGradient id="paint8_linear_1317_29688" x1="276.698" y1="267.891" x2="274.301" y2="283.135" gradientUnits="userSpaceOnUse">
<stop stop-color="#09005D"/>
<stop offset="1" stop-color="#1A0F91"/>
</linearGradient>
<linearGradient id="paint9_linear_1317_29688" x1="270.588" y1="267.867" x2="270.372" y2="271.828" gradientUnits="userSpaceOnUse">
<stop stop-color="#FEBBBA"/>
<stop offset="1" stop-color="#FF928E"/>
</linearGradient>
<linearGradient id="paint10_linear_1317_29688" x1="194.975" y1="161.42" x2="201.301" y2="163.502" gradientUnits="userSpaceOnUse">
<stop stop-color="#FEBBBA"/>
<stop offset="1" stop-color="#FF928E"/>
</linearGradient>
<linearGradient id="paint11_linear_1317_29688" x1="241.389" y1="248.336" x2="270.759" y2="305.036" gradientUnits="userSpaceOnUse">
<stop stop-color="#09005D"/>
<stop offset="1" stop-color="#1A0F91"/>
</linearGradient>
<linearGradient id="paint12_linear_1317_29688" x1="200.262" y1="256.247" x2="235.214" y2="263.377" gradientUnits="userSpaceOnUse">
<stop stop-color="#09005D"/>
<stop offset="1" stop-color="#1A0F91"/>
</linearGradient>
<linearGradient id="paint13_linear_1317_29688" x1="217.703" y1="167.227" x2="240.383" y2="223.005" gradientUnits="userSpaceOnUse">
<stop stop-color="#FEBBBA"/>
<stop offset="1" stop-color="#FF928E"/>
</linearGradient>
<linearGradient id="paint14_linear_1317_29688" x1="225.624" y1="177.925" x2="223.945" y2="198.955" gradientUnits="userSpaceOnUse">
<stop stop-color="#FEBBBA"/>
<stop offset="1" stop-color="#FF928E"/>
</linearGradient>
<linearGradient id="paint15_linear_1317_29688" x1="230.186" y1="187.415" x2="218.831" y2="177.316" gradientUnits="userSpaceOnUse">
<stop stop-color="#09005D"/>
<stop offset="1" stop-color="#1A0F91"/>
</linearGradient>
<linearGradient id="paint16_linear_1317_29688" x1="230.688" y1="200.266" x2="230.021" y2="185.662" gradientUnits="userSpaceOnUse">
<stop stop-color="#FEBBBA"/>
<stop offset="1" stop-color="#FF928E"/>
</linearGradient>
<linearGradient id="paint17_linear_1317_29688" x1="251.977" y1="173.083" x2="255.861" y2="173.875" gradientUnits="userSpaceOnUse">
<stop stop-color="#FEBBBA"/>
<stop offset="1" stop-color="#FF928E"/>
</linearGradient>
</defs>
</svg>
