<svg width="90" height="90" viewBox="0 0 90 90" fill="none" xmlns="http://www.w3.org/2000/svg">
<path d="M45 21.3477C33.155 21.3515 24.3761 29.333 21.993 39.0824C19.9589 47.3993 22.333 55.8889 28.3401 61.7932C30.5495 63.9639 31.8164 67.203 31.8164 70.6793V74.0035L36.4792 79.4527H45H52.7991L58.1836 74.0035V70.687C58.1836 67.2494 59.5123 63.9458 61.8323 61.6234C66.2816 57.1634 68.7305 51.2591 68.7305 44.9996C68.7305 32.2373 58.6608 21.3441 45 21.3477Z" fill="#677EFD"/>
<path d="M58.1836 74.0035V70.687C58.1836 67.2494 59.5123 63.9458 61.8323 61.6234C66.2817 57.1634 68.7305 51.2591 68.7305 44.9996C68.7305 32.2373 58.6608 21.3441 45 21.3477V79.4527H52.7991L58.1836 74.0035Z" fill="#5E72E4"/>
<path d="M8.08594 47.6367H2.63672C1.17932 47.6367 0 46.4574 0 45C0 43.5426 1.17932 42.3633 2.63672 42.3633H8.08594C9.54334 42.3633 10.7227 43.5426 10.7227 45C10.7227 46.4574 9.54334 47.6367 8.08594 47.6367Z" fill="#677EFD"/>
<path d="M87.3633 47.6367H81.9141C80.4567 47.6367 79.2773 46.4574 79.2773 45C79.2773 43.5426 80.4567 42.3633 81.9141 42.3633H87.3633C88.8207 42.3633 90 43.5426 90 45C90 46.4574 88.8207 47.6367 87.3633 47.6367Z" fill="#5E72E4"/>
<path d="M6.18052 67.4124C5.45174 66.1506 5.88433 64.5387 7.14609 63.8101L11.7139 61.1734C12.9704 60.4446 14.585 60.8772 15.3162 62.1389C16.045 63.4007 15.6124 65.0126 14.3507 65.7412L9.78281 68.3779C8.53511 69.0986 6.9174 68.6845 6.18052 67.4124Z" fill="#677EFD"/>
<path d="M74.6836 27.8617C73.9548 26.5999 74.3874 24.988 75.6492 24.2594L80.2171 21.6227C81.4711 20.8914 83.0907 21.3265 83.8193 22.5883C84.5479 23.85 84.1155 25.4619 82.8538 26.1905L78.2859 28.8273C77.0382 29.548 75.4205 29.1338 74.6836 27.8617Z" fill="#5E72E4"/>
<path d="M62.1387 15.3169C60.8769 14.5881 60.4443 12.9763 61.1731 11.7146L63.8098 7.14673C64.5386 5.88497 66.1503 5.45238 67.4121 6.18117C68.6739 6.90995 69.1065 8.52169 68.3777 9.78345L65.741 14.3513C65.0053 15.6213 63.3883 16.0386 62.1387 15.3169Z" fill="#5E72E4"/>
<path d="M24.259 14.3513L21.6223 9.78345C20.8935 8.52169 21.3261 6.90978 22.5879 6.18117C23.8393 5.45238 25.4589 5.88497 26.1902 7.14673L28.8269 11.7146C29.5557 12.9763 29.1231 14.5883 27.8613 15.3169C26.6136 16.0376 24.9959 15.6233 24.259 14.3513Z" fill="#677EFD"/>
<path d="M80.2173 68.3779L75.6494 65.7412C74.3877 65.0124 73.9551 63.4007 74.6839 62.1389C75.4127 60.8772 77.027 60.4446 78.2862 61.1734L82.854 63.8101C84.1158 64.5389 84.5484 66.1506 83.8196 67.4124C83.0838 68.6825 81.4667 69.0997 80.2173 68.3779Z" fill="#5E72E4"/>
<path d="M11.714 28.8273L7.14615 26.1905C5.88439 25.4618 5.4518 23.85 6.18059 22.5883C6.90937 21.3265 8.52375 20.8914 9.78287 21.6227L14.3507 24.2594C15.6125 24.9882 16.0451 26.5999 15.3163 27.8617C14.5799 29.133 12.9626 29.5485 11.714 28.8273Z" fill="#677EFD"/>
<path d="M45 74.0039H31.8164V75.8758C31.8164 83.6984 37.6073 90 45 90C52.2691 90 58.1836 83.9097 58.1836 76.6406V74.0039H45Z" fill="#172B4D"/>
<path d="M58.1836 76.6406V74.0039H45V90C52.2691 90 58.1836 83.9097 58.1836 76.6406Z" fill="#172B4D"/>
<path d="M45 0C43.5426 0 42.3633 1.17932 42.3633 2.63672V8.08594C42.3633 9.54334 43.5426 10.7227 45 10.7227C46.4574 10.7227 47.6367 9.54334 47.6367 8.08594V2.63672C47.6367 1.17932 46.4574 0 45 0Z" fill="#677EFD"/>
<path d="M47.6367 8.08594V2.63672C47.6367 1.17932 46.4574 0 45 0V10.7227C46.4574 10.7227 47.6367 9.54334 47.6367 8.08594Z" fill="#5E72E4"/>
<path d="M45 34.4531C40.6382 34.4531 37.0898 38.0014 37.0898 42.3633C37.0898 43.8207 38.2692 45 39.7266 45C41.184 45 42.3633 43.8207 42.3633 42.3633C42.3633 40.9085 43.5452 39.7266 45 39.7266C46.4548 39.7266 47.6367 40.9085 47.6367 42.3633C47.6367 43.45 46.9853 44.4129 45.9733 44.8146C45.6151 44.9571 45.3141 45.1793 45 45.3832C43.3913 46.4282 42.3633 48.1857 42.3633 50.2733C42.3633 51.7307 43.5426 52.91 45 52.91C46.4574 52.91 47.6367 51.7307 47.6367 50.2733L47.9225 49.7145C50.9532 48.5097 52.9102 45.6231 52.9102 42.3633C52.9102 38.0014 49.3618 34.4531 45 34.4531Z" fill="white"/>
<path d="M45 63.457C46.4562 63.457 47.6367 62.2765 47.6367 60.8203C47.6367 59.3641 46.4562 58.1836 45 58.1836C43.5438 58.1836 42.3633 59.3641 42.3633 60.8203C42.3633 62.2765 43.5438 63.457 45 63.457Z" fill="white"/>
<path d="M47.6367 50.2734L47.9225 49.7146C50.9532 48.5097 52.9102 45.6231 52.9102 42.3633C52.9102 38.0014 49.3618 34.4531 45 34.4531V39.7266C46.4548 39.7266 47.6367 40.9085 47.6367 42.3633C47.6367 43.45 46.9853 44.4129 45.9733 44.8146C45.6151 44.9571 45.3141 45.1793 45 45.3832V52.9102C46.4574 52.9102 47.6367 51.7308 47.6367 50.2734Z" fill="white"/>
<path d="M47.6367 60.8203C47.6367 59.3638 46.4562 58.1836 45 58.1836V63.457C46.4562 63.457 47.6367 62.2765 47.6367 60.8203Z" fill="white"/>
</svg>
