<svg width="77" height="82" viewBox="0 0 77 82" fill="none" xmlns="http://www.w3.org/2000/svg">
<path d="M38.5 82C17.237 82 0 63.6437 0 41C0 18.3563 17.237 0 38.5 0C59.763 0 77 18.3563 77 41C77 63.6437 59.763 82 38.5 82Z" fill="#407BFF"/>
<path d="M38.4988 73.798C21.4885 73.798 7.69883 59.113 7.69883 40.9981C7.69883 22.8832 21.4885 8.19824 38.4988 8.19824C55.5092 8.19824 69.2988 22.8832 69.2988 40.9981C69.2988 59.113 55.5092 73.798 38.4988 73.798Z" fill="white"/>
<path d="M43.625 60.0771H36.8516V33.9678L28.7656 36.4756V30.9678L42.8984 25.9053H43.625V60.0771Z" fill="#282828"/>
</svg>
