<svg width="77" height="82" viewBox="0 0 77 82" fill="none" xmlns="http://www.w3.org/2000/svg">
<path d="M38.5 82C17.237 82 0 63.6437 0 41C0 18.3563 17.237 0 38.5 0C59.763 0 77 18.3563 77 41C77 63.6437 59.763 82 38.5 82Z" fill="#407BFF"/>
<path d="M38.4988 73.798C21.4885 73.798 7.69883 59.113 7.69883 40.9981C7.69883 22.8832 21.4885 8.19824 38.4988 8.19824C55.5092 8.19824 69.2988 22.8832 69.2988 40.9981C69.2988 59.113 55.5092 73.798 38.4988 73.798Z" fill="white"/>
<path d="M43.625 60.0771H36.8516V33.9678L28.7656 36.4756V30.9678L42.8984 25.9053H43.625V60.0771Z" fill="#282828"/>
<path d="M38.5 82C17.237 82 0 63.6437 0 41C0 18.3563 17.237 0 38.5 0C59.763 0 77 18.3563 77 41C77 63.6437 59.763 82 38.5 82Z" fill="#407BFF"/>
<path d="M38.4988 73.798C21.4885 73.798 7.69883 59.113 7.69883 40.9981C7.69883 22.8832 21.4885 8.19824 38.4988 8.19824C55.5092 8.19824 69.2988 22.8832 69.2988 40.9981C69.2988 59.113 55.5092 73.798 38.4988 73.798Z" fill="white"/>
<path d="M51.7109 59H28.3203V54.3594L39.3594 42.5938C40.875 40.9375 41.9922 39.4922 42.7109 38.2578C43.4453 37.0234 43.8125 35.8516 43.8125 34.7422C43.8125 33.2266 43.4297 32.0391 42.6641 31.1797C41.8984 30.3047 40.8047 29.8672 39.3828 29.8672C37.8516 29.8672 36.6406 30.3984 35.75 31.4609C34.875 32.5078 34.4375 33.8906 34.4375 35.6094H27.6406C27.6406 33.5312 28.1328 31.6328 29.1172 29.9141C30.1172 28.1953 31.5234 26.8516 33.3359 25.8828C35.1484 24.8984 37.2031 24.4062 39.5 24.4062C43.0156 24.4062 45.7422 25.25 47.6797 26.9375C49.6328 28.625 50.6094 31.0078 50.6094 34.0859C50.6094 35.7734 50.1719 37.4922 49.2969 39.2422C48.4219 40.9922 46.9219 43.0312 44.7969 45.3594L37.0391 53.5391H51.7109V59Z" fill="#282828"/>
</svg>
