<svg width="77" height="82" viewBox="0 0 77 82" fill="none" xmlns="http://www.w3.org/2000/svg">
<path d="M38.5 82C17.237 82 0 63.6437 0 41C0 18.3563 17.237 0 38.5 0C59.763 0 77 18.3563 77 41C77 63.6437 59.763 82 38.5 82Z" fill="#407BFF"/>
<path d="M38.4988 73.798C21.4885 73.798 7.69883 59.113 7.69883 40.9981C7.69883 22.8832 21.4885 8.19824 38.4988 8.19824C55.5092 8.19824 69.2988 22.8832 69.2988 40.9981C69.2988 59.113 55.5092 73.798 38.4988 73.798Z" fill="white"/>
<path d="M43.625 60.0771H36.8516V33.9678L28.7656 36.4756V30.9678L42.8984 25.9053H43.625V60.0771Z" fill="#282828"/>
<path d="M38.5 82C17.237 82 0 63.6437 0 41C0 18.3563 17.237 0 38.5 0C59.763 0 77 18.3563 77 41C77 63.6437 59.763 82 38.5 82Z" fill="#407BFF"/>
<path d="M38.4988 73.798C21.4885 73.798 7.69883 59.113 7.69883 40.9981C7.69883 22.8832 21.4885 8.19824 38.4988 8.19824C55.5092 8.19824 69.2988 22.8832 69.2988 40.9981C69.2988 59.113 55.5092 73.798 38.4988 73.798Z" fill="white"/>
<path d="M34.0625 40.0146H37.6719C39.3906 40.0146 40.6641 39.585 41.4922 38.7256C42.3203 37.8662 42.7344 36.7256 42.7344 35.3037C42.7344 33.9287 42.3203 32.8584 41.4922 32.0928C40.6797 31.3271 39.5547 30.9443 38.1172 30.9443C36.8203 30.9443 35.7344 31.3037 34.8594 32.0225C33.9844 32.7256 33.5469 33.6475 33.5469 34.7881H26.7734C26.7734 33.0068 27.25 31.4131 28.2031 30.0068C29.1719 28.585 30.5156 27.4756 32.2344 26.6787C33.9688 25.8818 35.875 25.4834 37.9531 25.4834C41.5625 25.4834 44.3906 26.3506 46.4375 28.085C48.4844 29.8037 49.5078 32.1787 49.5078 35.21C49.5078 36.7725 49.0312 38.21 48.0781 39.5225C47.125 40.835 45.875 41.8428 44.3281 42.5459C46.25 43.2334 47.6797 44.2646 48.6172 45.6396C49.5703 47.0146 50.0469 48.6396 50.0469 50.5146C50.0469 53.5459 48.9375 55.9756 46.7188 57.8037C44.5156 59.6318 41.5938 60.5459 37.9531 60.5459C34.5469 60.5459 31.7578 59.6475 29.5859 57.8506C27.4297 56.0537 26.3516 53.6787 26.3516 50.7256H33.125C33.125 52.0068 33.6016 53.0537 34.5547 53.8662C35.5234 54.6787 36.7109 55.085 38.1172 55.085C39.7266 55.085 40.9844 54.6631 41.8906 53.8193C42.8125 52.96 43.2734 51.8271 43.2734 50.4209C43.2734 47.0146 41.3984 45.3115 37.6484 45.3115H34.0625V40.0146Z" fill="#282828"/>
</svg>
