<svg width="511" height="362" viewBox="0 0 511 362" fill="none" xmlns="http://www.w3.org/2000/svg">
<g opacity="0.8">
<g opacity="0.5">
<g opacity="0.5">
<g opacity="0.5">
<g opacity="0.5">
<path opacity="0.5" d="M282.231 105.445C262.503 102.414 243.804 94.0598 227.671 81.3824C203.576 62.4562 153.146 30.2535 105.037 46.295C38.6802 68.4225 38.3841 132.426 55.6683 167.196C72.9525 201.967 195.513 303.788 354.403 287.584C496.585 273.084 524.292 107.139 448.467 77.1109C382.695 51.0714 360.261 117.437 282.231 105.445Z" fill="#CED3E6"/>
</g>
</g>
</g>
</g>
<g opacity="0.5">
<g opacity="0.5">
<g opacity="0.5">
<g opacity="0.5">
<path opacity="0.5" d="M486.918 87.7943C490.321 87.7943 493.079 84.7016 493.079 80.8864C493.079 77.0713 490.321 73.9785 486.918 73.9785C483.515 73.9785 480.756 77.0713 480.756 80.8864C480.756 84.7016 483.515 87.7943 486.918 87.7943Z" fill="#CED3E6"/>
</g>
</g>
</g>
</g>
<g opacity="0.8">
<g opacity="0.8">
<g opacity="0.8">
<g opacity="0.8">
<path opacity="0.8" d="M84.4031 35.3984C86.2953 35.0389 88.2121 36.126 88.8784 38.0006C90.0137 41.2021 87.0357 44.7887 83.0375 43.1794C79.5823 40.5258 81.0796 36.0404 84.4031 35.3984Z" fill="#CED3E6"/>
</g>
</g>
</g>
</g>
<g opacity="0.8">
<g opacity="0.8">
<path opacity="0.8" d="M470.086 27.5236C474.52 27.5236 478.115 23.7831 478.115 19.169C478.115 14.5549 474.52 10.8145 470.086 10.8145C465.651 10.8145 462.057 14.5549 462.057 19.169C462.057 23.7831 465.651 27.5236 470.086 27.5236Z" fill="#CED3E6"/>
</g>
</g>
<g opacity="0.8">
<g opacity="0.8">
<path opacity="0.8" d="M100.94 39.5326C105.419 39.5326 109.051 35.7539 109.051 31.0925C109.051 26.4311 105.419 22.6523 100.94 22.6523C96.4598 22.6523 92.8281 26.4311 92.8281 31.0925C92.8281 35.7539 96.4598 39.5326 100.94 39.5326Z" fill="#CED3E6"/>
</g>
</g>
<g opacity="0.8">
<g opacity="0.8">
<g opacity="0.8">
<g opacity="0.8">
<path opacity="0.8" d="M429.752 280.317C431.545 279.598 433.618 280.292 434.614 282.012C436.3 284.94 434.021 289.04 429.801 288.235C425.926 286.284 426.601 281.584 429.752 280.317Z" fill="#CED3E6"/>
</g>
</g>
</g>
</g>
<g opacity="0.8">
<g opacity="0.8">
<path opacity="0.8" d="M445.225 281.319C449.705 281.319 453.336 277.54 453.336 272.879C453.336 268.217 449.705 264.438 445.225 264.438C440.745 264.438 437.113 268.217 437.113 272.879C437.113 277.54 440.745 281.319 445.225 281.319Z" fill="#CED3E6"/>
</g>
</g>
<g opacity="0.8">
<g opacity="0.8">
<path opacity="0.8" d="M454.958 11.5245C457.688 11.5245 459.902 9.22117 459.902 6.37991C459.902 3.53865 457.688 1.23535 454.958 1.23535C452.227 1.23535 450.014 3.53865 450.014 6.37991C450.014 9.22117 452.227 11.5245 454.958 11.5245Z" fill="#CED3E6"/>
</g>
</g>
</g>
<g opacity="0.8">
<path opacity="0.8" d="M473.057 99.513C473.048 53.5886 436.3 3.26434 390.56 0.225541C389.753 0.174181 388.947 0.122821 388.125 0.0885813C322.558 -3.08718 317.556 80.1246 258.234 89.5064C198.911 98.8881 153.607 51.5085 82.6191 82.4272C18.8625 110.187 1.59468 266.193 188.916 272.451C338.797 277.45 473.081 236.533 473.057 99.513Z" fill="#CED3E6"/>
</g>
<path d="M355.539 328.091C435.372 328.091 500.09 324.619 500.09 320.335C500.09 316.052 435.372 312.58 355.539 312.58C275.706 312.58 210.988 316.052 210.988 320.335C210.988 324.619 275.706 328.091 355.539 328.091Z" fill="#CED3E6"/>
<path d="M453.446 298.619H433.414V320.293H456.835V302.146C456.835 300.194 455.322 298.619 453.446 298.619Z" fill="#CED3E6"/>
<path d="M395.794 252.173H326.262V298.619H395.794V252.173Z" fill="#CED3E6"/>
<path d="M448.954 320.293H257.133V312.247C257.133 304.722 262.998 298.619 270.23 298.619H435.849C443.08 298.619 448.946 304.722 448.946 312.247V320.293H448.954Z" fill="white"/>
<path d="M387.27 252.173H317.738V298.619H387.27V252.173Z" fill="white"/>
<path d="M317.738 266.434L387.27 260.639L387.278 252.173H317.829L317.738 266.434Z" fill="#CED3E6"/>
<path d="M510.678 60.3683V242.517C510.678 247.858 506.516 252.181 501.391 252.181H204.507C199.373 252.181 195.219 247.85 195.219 242.517V60.3683C195.219 55.0269 199.381 50.7041 204.507 50.7041H501.391C506.516 50.7041 510.678 55.0355 510.678 60.3683Z" fill="#CED3E6"/>
<path d="M510.678 60.3683V229.043H481.959V50.7041H501.39C506.516 50.7041 510.678 55.0355 510.678 60.3683Z" fill="#424269"/>
<path d="M498.865 60.3683V242.517C498.865 247.858 494.702 252.181 489.577 252.181H204.507C199.373 252.181 195.219 247.85 195.219 242.517V60.3683C195.219 55.0269 199.381 50.7041 204.507 50.7041H489.577C489.717 50.7041 489.857 50.7041 489.989 50.7127C490.087 50.7212 490.186 50.7212 490.293 50.7298H490.301C490.375 50.7383 490.441 50.7383 490.515 50.7555C490.638 50.764 490.754 50.7811 490.877 50.7983C490.959 50.8068 491.033 50.8239 491.107 50.8325C491.14 50.8411 491.181 50.8411 491.214 50.8496C491.288 50.8582 491.362 50.8753 491.445 50.8924C495.681 51.7998 498.865 55.7031 498.865 60.3683Z" fill="white"/>
<path d="M491.445 50.9012C491.371 50.8841 491.297 50.867 491.214 50.8584C491.181 50.8498 491.14 50.8413 491.107 50.8413C491.025 50.8242 490.951 50.8156 490.877 50.8071C490.754 50.7899 490.638 50.7728 490.515 50.7642C490.441 50.7557 490.375 50.7471 490.301 50.7386H490.293C490.194 50.73 490.095 50.7215 489.989 50.7215C489.849 50.7129 489.717 50.7129 489.577 50.7129H204.507C199.373 50.7129 195.219 55.0443 195.219 60.3771V229.052H498.865V60.3686C498.865 55.7034 495.681 51.8 491.445 50.9012ZM486.821 212.197C486.821 213.652 485.694 214.825 484.296 214.825H209.788C208.39 214.825 207.263 213.652 207.263 212.197V65.8641C207.263 64.4089 208.39 63.2362 209.788 63.2362H484.296C485.694 63.2362 486.821 64.4089 486.821 65.8641V212.197Z" fill="#090951"/>
<path d="M486.82 65.8633V212.197C486.82 213.652 485.693 214.824 484.295 214.824H209.787C208.389 214.824 207.262 213.652 207.262 212.197V65.8633C207.262 64.4081 208.389 63.2354 209.787 63.2354H484.295C485.693 63.2354 486.82 64.4081 486.82 65.8633Z" fill="#CED3E6"/>
<path d="M486.82 65.8633V79.6706H207.262V65.8633C207.262 64.4081 208.389 63.2354 209.787 63.2354H484.295C485.693 63.2354 486.82 64.4081 486.82 65.8633Z" fill="white"/>
<path d="M463.02 73.4732C464.206 73.4732 465.167 72.4729 465.167 71.239C465.167 70.0051 464.206 69.0049 463.02 69.0049C461.834 69.0049 460.873 70.0051 460.873 71.239C460.873 72.4729 461.834 73.4732 463.02 73.4732Z" fill="#DF615C"/>
<path d="M469.979 73.4732C471.165 73.4732 472.126 72.4729 472.126 71.239C472.126 70.0051 471.165 69.0049 469.979 69.0049C468.793 69.0049 467.832 70.0051 467.832 71.239C467.832 72.4729 468.793 73.4732 469.979 73.4732Z" fill="#5392F3"/>
<path d="M452.07 73.6014H233.677C232.574 73.6014 231.678 72.6598 231.678 71.5213V70.9649C231.678 69.8178 232.583 68.8848 233.677 68.8848H452.07C453.173 68.8848 454.069 69.8264 454.069 70.9649V71.5213C454.069 72.6598 453.173 73.6014 452.07 73.6014Z" fill="#D2DCEC"/>
<path d="M217.356 71.2387V73.4301C217.356 73.7383 217.036 73.9351 216.781 73.7811L214.962 72.6854L213.144 71.5897C212.889 71.4356 212.889 71.0504 213.144 70.8963L214.962 69.8007L216.781 68.705C217.036 68.5509 217.356 68.7478 217.356 69.0559V71.2387Z" fill="black"/>
<path d="M220.557 71.2387V73.4301C220.557 73.7383 220.877 73.9351 221.132 73.7811L222.951 72.6854L224.769 71.5897C225.024 71.4356 225.024 71.0504 224.769 70.8963L222.951 69.8007L221.132 68.705C220.877 68.5509 220.557 68.7478 220.557 69.0559V71.2387Z" fill="black"/>
<path d="M475.017 73.0969L474.918 72.9942C474.704 72.7716 474.704 72.4207 474.918 72.1981L477.798 69.2021C478.011 68.9795 478.349 68.9795 478.563 69.2021L478.661 69.3048C478.867 69.5274 478.867 69.8783 478.661 70.1009L475.782 73.0969C475.568 73.3194 475.231 73.3194 475.017 73.0969Z" fill="#39393B"/>
<path d="M478.57 73.0969L478.669 72.9942C478.875 72.7716 478.875 72.4207 478.669 72.1981L475.79 69.2021C475.576 68.9795 475.239 68.9795 475.025 69.2021L474.926 69.3048C474.712 69.5274 474.712 69.8783 474.926 70.1009L477.805 73.0969C478.019 73.3194 478.357 73.3194 478.57 73.0969Z" fill="#39393B"/>
<path d="M449.193 208.936H244.143C241.222 208.936 238.861 206.471 238.861 203.44V88.5053C238.861 85.4665 241.231 83.0098 244.143 83.0098H449.184C452.105 83.0098 454.466 85.475 454.466 88.5053V203.44C454.474 206.479 452.105 208.936 449.193 208.936Z" fill="white"/>
<path d="M301.268 147.44H253.998C253.274 147.44 252.682 146.833 252.682 146.071C252.682 145.317 253.266 144.701 253.998 144.701H301.268C301.992 144.701 302.585 145.309 302.585 146.071C302.585 146.833 301.992 147.44 301.268 147.44Z" fill="#CED3E6"/>
<path d="M301.268 135.885H253.998C253.274 135.885 252.682 135.277 252.682 134.515C252.682 133.762 253.266 133.146 253.998 133.146H301.268C301.992 133.146 302.585 133.753 302.585 134.515C302.585 135.268 301.992 135.885 301.268 135.885Z" fill="#CED3E6"/>
<path d="M301.268 159.005H253.998C253.274 159.005 252.682 158.397 252.682 157.635C252.682 156.882 253.266 156.266 253.998 156.266H301.268C301.992 156.266 302.585 156.873 302.585 157.635C302.585 158.389 301.992 159.005 301.268 159.005Z" fill="#CED3E6"/>
<path d="M446.518 147.44H399.248C398.524 147.44 397.932 146.833 397.932 146.071C397.932 145.317 398.516 144.701 399.248 144.701H446.518C447.242 144.701 447.835 145.309 447.835 146.071C447.835 146.833 447.251 147.44 446.518 147.44Z" fill="#CED3E6"/>
<path d="M446.518 135.885H399.248C398.524 135.885 397.932 135.277 397.932 134.515C397.932 133.762 398.516 133.146 399.248 133.146H446.518C447.242 133.146 447.835 133.753 447.835 134.515C447.835 135.268 447.251 135.885 446.518 135.885Z" fill="#CED3E6"/>
<path d="M446.518 159.005H399.248C398.524 159.005 397.932 158.397 397.932 157.635C397.932 156.882 398.516 156.266 399.248 156.266H446.518C447.242 156.266 447.835 156.873 447.835 157.635C447.835 158.389 447.251 159.005 446.518 159.005Z" fill="#CED3E6"/>
<path d="M238.861 189.385H454.474V207.78C454.474 208.422 453.972 208.944 453.355 208.944H239.98C239.363 208.944 238.861 208.422 238.861 207.78V189.385V189.385Z" fill="#39393B"/>
<path d="M433.298 196.635V194.974H435.289V193.502H432.583C432.188 193.502 431.875 193.836 431.875 194.238V196.635H433.298Z" fill="white"/>
<path d="M433.298 199.58H431.883V202.105C431.883 202.516 432.204 202.841 432.59 202.841H435.297V201.369H433.306V199.58H433.298Z" fill="white"/>
<path d="M439.435 196.635H440.85V194.238C440.85 193.827 440.529 193.502 440.143 193.502H437.543V194.974H439.435V196.635Z" fill="white"/>
<path d="M439.435 199.58V201.36H437.543V202.833H440.143C440.537 202.833 440.85 202.499 440.85 202.097V199.571H439.435V199.58Z" fill="white"/>
<path d="M251.424 198.484V193.827L255.299 196.155L259.182 198.484L255.299 200.821L251.424 203.149V198.484Z" fill="white"/>
<path d="M272.92 202.781H271.9C271.522 202.781 271.209 202.456 271.209 202.062V195.017C271.209 194.623 271.522 194.298 271.9 194.298H272.92C273.299 194.298 273.611 194.623 273.611 195.017V202.062C273.611 202.456 273.299 202.781 272.92 202.781Z" fill="white"/>
<path d="M277.947 202.781H276.927C276.549 202.781 276.236 202.456 276.236 202.062V195.017C276.236 194.623 276.549 194.298 276.927 194.298H277.947C278.326 194.298 278.638 194.623 278.638 195.017V202.062C278.638 202.456 278.326 202.781 277.947 202.781Z" fill="white"/>
<path d="M454.474 185.704H238.861V189.385H454.474V185.704Z" fill="#CED3E6"/>
<path d="M349.494 185.704H238.861V189.376H349.494V185.704Z" fill="#DF615C"/>
<path d="M419.996 171.4H422.431V176.947H425.689V178.908H419.996V171.4V171.4Z" fill="#39393B"/>
<path d="M426.355 171.4H428.791V178.908H426.355V171.4Z" fill="#39393B"/>
<path d="M437.666 171.4L434.614 178.908H432.22L429.168 171.4H431.784L433.503 175.783L435.264 171.4H437.666V171.4Z" fill="#39393B"/>
<path d="M443.904 176.999V178.908H437.906V171.4H443.772V173.309H440.3V174.191H443.352V176.014H440.3V176.999H443.904Z" fill="#39393B"/>
<path d="M413.028 178.18C414.669 178.18 415.998 176.797 415.998 175.09C415.998 173.384 414.669 172 413.028 172C411.388 172 410.059 173.384 410.059 175.09C410.059 176.797 411.388 178.18 413.028 178.18Z" fill="#DF615C"/>
<path d="M265.195 177.178C265.195 178.89 263.632 180.003 261.394 180.003C259.157 180.003 257.594 178.899 257.594 177.178C257.594 176.297 258.022 175.603 258.729 175.15C258.211 174.722 257.89 174.139 257.89 173.412C257.89 171.811 259.33 170.775 261.386 170.775C263.443 170.775 264.883 171.811 264.883 173.412C264.883 174.139 264.57 174.722 264.043 175.15C264.776 175.603 265.195 176.297 265.195 177.178ZM262.324 177.076C262.324 176.511 261.937 176.151 261.394 176.151C260.851 176.151 260.465 176.502 260.465 177.076C260.465 177.641 260.851 177.991 261.394 177.991C261.937 178 262.324 177.649 262.324 177.076ZM260.72 173.54C260.72 174.02 261.008 174.294 261.394 174.294C261.781 174.294 262.069 174.02 262.069 173.54C262.069 173.061 261.781 172.787 261.394 172.787C261.008 172.787 260.72 173.061 260.72 173.54Z" fill="#39393B"/>
<path d="M265.73 175.389C265.73 172.462 267.326 170.775 269.572 170.775C271.81 170.775 273.414 172.462 273.414 175.389C273.414 178.317 271.818 180.003 269.572 180.003C267.326 180.003 265.73 178.317 265.73 175.389ZM270.535 175.389C270.535 173.686 270.124 173.155 269.564 173.155C269.005 173.155 268.593 173.686 268.593 175.389C268.593 177.093 269.005 177.623 269.564 177.623C270.124 177.623 270.535 177.093 270.535 175.389Z" fill="#39393B"/>
<path d="M250.016 175.629C251.456 175.629 252.624 174.414 252.624 172.916C252.624 171.417 251.456 170.202 250.016 170.202C248.576 170.202 247.408 171.417 247.408 172.916C247.408 174.414 248.576 175.629 250.016 175.629Z" fill="#DF615C"/>
<path d="M254.887 179.772H245.146C245.146 179.772 246.257 176.554 249.943 176.554C249.967 176.554 249.992 176.554 250.017 176.554C250.041 176.554 250.066 176.554 250.091 176.554C253.785 176.554 254.887 179.772 254.887 179.772Z" fill="#DF615C"/>
<path d="M279.954 111.694C279.954 111.694 278.655 119.963 272.797 121.444C268.067 122.642 263.616 117.917 262.078 116.051C261.708 115.606 261.51 115.323 261.51 115.323C261.51 115.323 261.157 115.358 260.63 115.358C259.396 115.341 257.208 115.075 256.352 113.5C255.126 111.249 259.577 109.717 259.577 109.717C259.577 109.717 257.298 107.594 257.866 106.053C258.425 104.538 261.486 104.221 261.486 104.221C261.486 104.221 258.187 101.995 259.297 100.052C260.959 97.1334 264.365 100.343 264.636 100.523C264.423 100.266 260.153 95.6697 262.489 94.8479C264.53 94.1289 267.886 96.5171 270.091 98.8797C270.444 99.2563 270.642 99.4703 270.642 99.4703C270.642 99.4703 270.774 99.3676 271.004 99.2049C272.106 98.4345 275.496 96.3801 277.651 98.2548C280.251 100.532 279.954 111.694 279.954 111.694Z" fill="#EA9B7A"/>
<path d="M273.85 116.779C273.702 116.848 273.529 116.848 273.39 116.745C273.176 116.599 273.118 116.3 273.266 116.077C274.039 114.879 274.278 113.663 273.974 112.456C273.2 109.358 269.219 107.218 269.177 107.192C268.947 107.072 268.857 106.781 268.972 106.541C269.087 106.302 269.367 106.207 269.597 106.327C269.778 106.421 273.99 108.69 274.87 112.208C275.241 113.698 274.961 115.178 274.031 116.608C273.982 116.685 273.916 116.736 273.85 116.779Z" fill="#D96C63"/>
<path d="M269.787 104.855C269.787 105.428 269.557 105.882 269.129 106.173C269.039 106.233 268.94 106.284 268.825 106.336C268.586 106.43 268.298 106.498 267.986 106.533C268.216 106.687 268.422 106.858 268.578 107.038C268.742 107.217 268.866 107.406 268.94 107.603C269.039 107.894 269.08 108.33 268.734 108.827C267.986 109.854 266.266 110.273 264.868 110.444C265.871 111.061 266.743 111.9 267.031 112.738C267.212 113.278 267.155 113.791 266.85 114.211C266.636 114.502 266.283 114.759 265.847 114.981C264.752 115.538 263.148 115.88 262.079 116.068C261.709 115.623 261.511 115.341 261.511 115.341C261.511 115.341 261.157 115.384 260.631 115.375C260.697 115.315 260.779 115.281 260.869 115.272C262.589 115.067 265.534 114.433 266.11 113.637C266.184 113.526 266.258 113.372 266.159 113.064C265.838 112.139 264.168 110.915 262.729 110.547C262.498 110.487 262.35 110.265 262.383 110.016C262.408 109.768 262.613 109.588 262.852 109.597C264.004 109.623 267.163 109.417 268.002 108.245C268.125 108.073 268.092 107.979 268.076 107.936C268.002 107.714 267.739 107.491 267.377 107.269C266.636 106.815 265.468 106.404 264.629 106.19C264.53 106.164 264.448 106.113 264.39 106.036C264.292 105.925 264.251 105.762 264.284 105.608C264.341 105.351 264.596 105.189 264.843 105.249C265.007 105.291 265.337 105.377 265.748 105.514C266.529 105.608 267.278 105.651 267.846 105.591C268.183 105.557 268.454 105.48 268.635 105.368C268.742 105.3 268.866 105.171 268.866 104.855C268.874 104.452 268.677 103.93 268.364 103.391C268.265 103.22 268.282 103.006 268.405 102.852L268.413 102.843C268.611 102.578 268.997 102.603 269.162 102.895C269.54 103.554 269.787 104.247 269.787 104.855Z" fill="#D96C63"/>
<path d="M266.382 95.8071C267.18 96.3207 267.879 96.8 268.562 97.4677C269.22 98.1183 269.639 98.4521 270.092 98.8887C270.125 98.8373 270.059 98.94 270.092 98.8887L261.158 59.4613C261.026 58.8535 260.154 59.0419 260.261 59.6496L266.382 95.8071C266.373 95.7985 266.382 95.8071 266.382 95.8071Z" fill="#39393B"/>
<path d="M274.146 117.703C271.052 119.783 270.18 118.243 270.18 118.243L268.609 108.981C268.658 108.929 268.699 108.878 268.741 108.818C269.086 108.33 269.045 107.885 268.946 107.594C268.872 107.389 268.749 107.2 268.584 107.029C268.477 106.909 268.354 106.806 268.222 106.695L268.189 106.49C268.428 106.447 268.642 106.396 268.823 106.319C268.938 106.267 269.037 106.224 269.127 106.156C269.407 105.968 269.604 105.694 269.703 105.377C270.082 105.754 270.542 105.968 271.093 106.028C271.242 106.045 271.39 106.045 271.546 106.045L274.146 117.703Z" fill="#39393B"/>
<path d="M276.836 103.246C276.745 103.332 275.38 104.573 273.784 105.377C272.903 105.823 271.941 106.139 271.094 106.045C270.394 105.968 269.827 105.634 269.415 105.061C267.943 103.006 269.201 100.318 270.09 98.8975C270.444 99.2741 270.641 99.4881 270.641 99.4881C270.641 99.4881 270.773 99.3854 271.003 99.2227C270.246 100.395 268.971 102.818 270.164 104.487C270.419 104.847 270.756 105.044 271.192 105.095C272.829 105.275 275.38 103.306 276.219 102.535C276.408 102.356 276.704 102.373 276.877 102.578C277.041 102.758 277.025 103.066 276.836 103.246Z" fill="#D96C63"/>
<path d="M324.642 93.6751V93.658C324.642 93.658 324.642 93.6409 324.642 93.658L324.634 93.7094L324.609 93.8292L324.552 94.1117L324.428 94.7366C324.387 94.9506 324.338 95.1731 324.288 95.3957C324.239 95.6182 324.198 95.8408 324.14 96.0634C323.943 96.9622 323.729 97.8781 323.49 98.794C323.013 100.626 322.495 102.466 321.903 104.272C321.302 106.079 320.685 107.885 319.986 109.64C319.624 110.513 319.278 111.394 318.892 112.25C318.53 113.123 318.126 113.971 317.74 114.818C316.925 116.505 316.07 118.165 315.157 119.757C314.943 120.168 314.696 120.554 314.457 120.956C314.219 121.35 313.997 121.752 313.742 122.137C313.248 122.908 312.771 123.686 312.244 124.431C311.241 125.955 310.13 127.376 309.028 128.788C307.884 130.158 306.716 131.519 305.474 132.777C305.161 133.094 304.857 133.419 304.544 133.727L303.582 134.635L303.105 135.088L302.981 135.2L303.039 135.14L303.121 135.063C303.236 134.969 303.351 134.883 303.483 134.797C303.993 134.421 304.627 134.13 305.211 133.958C305.359 133.916 305.482 133.873 305.622 133.847C305.688 133.83 305.762 133.822 305.828 133.813L306 133.779C306.116 133.762 306.239 133.753 306.346 133.753C306.436 133.744 306.527 133.736 306.617 133.744C306.659 133.744 306.716 133.753 306.749 133.753C306.782 133.753 306.815 133.753 306.848 133.753C306.905 133.753 306.979 133.77 307.029 133.779C307.07 133.779 307.103 133.787 307.144 133.796L307.193 133.813C307.201 133.813 307.21 133.813 307.218 133.813C307.358 133.856 307.086 133.813 306.683 133.633C306.272 133.453 305.729 133.154 305.137 132.794C304.544 132.426 303.903 131.981 303.236 131.493C301.912 130.517 300.521 129.353 299.139 128.112C297.749 126.862 296.351 125.535 294.96 124.149C293.57 122.771 292.18 121.332 290.814 119.869C289.44 118.405 288.066 116.907 286.725 115.392C286.043 114.639 285.368 113.877 284.71 113.115L282.768 110.906L267.779 122.608L268.281 123.395L268.758 124.123L269.704 125.553C270.346 126.494 270.988 127.427 271.638 128.352C272.954 130.192 274.303 132.015 275.702 133.813C277.117 135.602 278.556 137.382 280.078 139.129C280.843 140.002 281.617 140.875 282.415 141.731C283.213 142.596 284.035 143.452 284.883 144.299C286.585 146.002 288.379 147.672 290.403 149.315C291.423 150.137 292.492 150.942 293.66 151.738C294.837 152.534 296.112 153.313 297.609 154.049C299.106 154.776 300.818 155.487 303.006 155.966L303.409 156.052C303.549 156.078 303.705 156.103 303.853 156.129C304.149 156.172 304.446 156.215 304.742 156.257C305.054 156.292 305.383 156.317 305.704 156.334L306.19 156.36C306.354 156.369 306.535 156.36 306.708 156.36C307.062 156.36 307.415 156.351 307.761 156.334C308.131 156.309 308.51 156.266 308.888 156.215C309.077 156.189 309.258 156.163 309.447 156.137C309.645 156.103 309.842 156.06 310.04 156.018C310.435 155.932 310.821 155.846 311.216 155.727C312.812 155.256 314.392 154.485 315.782 153.518C316.119 153.278 316.44 153.022 316.761 152.756L316.999 152.559L317.213 152.371L317.386 152.208L318.077 151.575L319.451 150.3C319.895 149.863 320.331 149.418 320.775 148.973C322.544 147.209 324.173 145.309 325.761 143.383C327.307 141.423 328.797 139.428 330.146 137.348C331.528 135.285 332.77 133.137 333.955 130.971L334.81 129.328C335.098 128.78 335.353 128.223 335.625 127.667C335.896 127.11 336.168 126.563 336.414 125.998L337.171 124.32C339.129 119.817 340.709 115.186 341.934 110.47C342.535 108.107 343.078 105.728 343.489 103.297C343.695 102.081 343.892 100.866 344.049 99.6158C344.09 99.3076 344.123 98.9909 344.164 98.6742C344.197 98.3574 344.238 98.0407 344.271 97.7154C344.304 97.3987 344.337 97.0563 344.361 96.7225L344.452 95.5326L324.642 93.6751Z" fill="#223EAC"/>
<path d="M278.86 121.479C279.573 121.479 280.152 120.877 280.152 120.135C280.152 119.393 279.573 118.791 278.86 118.791C278.147 118.791 277.568 119.393 277.568 120.135C277.568 120.877 278.147 121.479 278.86 121.479Z" fill="#C77E2E"/>
<path d="M304.454 143.366C304.7 143.366 304.931 143.195 304.988 142.93C306.025 138.615 305.893 133.197 305.885 132.966C305.877 132.649 305.622 132.401 305.317 132.409C305.013 132.418 304.774 132.683 304.783 133C304.783 133.051 304.914 138.487 303.919 142.647C303.845 142.955 304.026 143.263 304.322 143.341C304.363 143.358 304.404 143.366 304.454 143.366Z" fill="#C77E2E"/>
<path d="M307.983 139.197C308.065 139.197 308.147 139.18 308.23 139.137C308.501 138.992 308.616 138.649 308.476 138.367C308.402 138.213 306.617 134.498 305.77 133.385C305.581 133.137 305.235 133.094 304.997 133.291C304.758 133.488 304.717 133.847 304.906 134.095C305.679 135.105 307.473 138.838 307.489 138.872C307.588 139.086 307.777 139.197 307.983 139.197Z" fill="#C77E2E"/>
<path d="M273.604 131.409C273.744 131.409 273.892 131.349 273.999 131.238C278.622 126.273 289.062 118.432 289.169 118.355C289.416 118.166 289.473 117.807 289.292 117.55C289.111 117.293 288.766 117.233 288.519 117.422C288.412 117.499 277.898 125.4 273.209 130.433C272.995 130.664 273.003 131.024 273.217 131.246C273.324 131.357 273.464 131.409 273.604 131.409Z" fill="#C77E2E"/>
<path d="M278.07 127.172C278.194 127.172 278.317 127.129 278.424 127.035C278.663 126.829 278.688 126.47 278.498 126.222L272.921 119.254C272.723 119.014 272.378 118.98 272.139 119.177C271.9 119.374 271.876 119.742 272.065 119.99L277.643 126.958C277.75 127.103 277.914 127.172 278.07 127.172Z" fill="#C77E2E"/>
<path d="M338.289 262.778L345.775 216.828L346.392 213.071L324.847 205.161L323.621 204.707L318.487 202.824C318.487 202.824 318.076 204.784 317.443 208.166C317.369 208.577 317.286 209.005 317.204 209.45C315.18 220.321 311.388 242.714 310.359 262.77H338.289V262.778Z" fill="#1B3151"/>
<path d="M334.472 262.778C337.705 244.46 341.868 217.684 342.114 216.118C342.164 215.784 341.95 215.476 341.629 215.424C341.316 215.373 341.012 215.596 340.963 215.929C340.905 216.315 336.586 244.109 333.287 262.778H334.472Z" fill="#585859"/>
<path d="M381.873 188.152C381.873 188.152 383.494 204.159 379.998 213.07C376.501 221.981 331.197 217.393 319.655 209.372C314.916 206.085 325.002 175.731 325.002 175.731L381.873 188.152Z" fill="#1B3151"/>
<path d="M317.203 209.458C317.886 209.329 318.561 209.15 319.21 208.919C320.247 208.55 321.242 208.054 322.188 207.421C323.167 206.761 324.056 206 324.846 205.161C329.839 199.922 331.312 191.995 331.378 191.61C331.435 191.285 331.23 190.968 330.909 190.9C330.596 190.84 330.292 191.054 330.226 191.388C330.21 191.482 328.679 199.725 323.612 204.707C322.978 205.332 322.287 205.905 321.547 206.402C320.65 207.001 319.696 207.472 318.7 207.814C318.289 207.951 317.869 208.071 317.433 208.165C317.359 208.576 317.277 209.004 317.203 209.458Z" fill="#585859"/>
<path d="M345.149 213.926C345.133 214.243 345.38 214.517 345.7 214.542C345.7 214.542 345.7 214.542 345.709 214.542C346.029 214.559 346.301 214.311 346.317 213.986C346.416 211.794 346.54 209.56 346.679 207.318C346.704 206.924 346.729 206.53 346.753 206.136C347.214 198.826 347.79 191.644 348.226 186.577C348.259 186.166 348.292 185.772 348.333 185.387C348.432 184.274 348.522 183.29 348.596 182.451C348.21 182.391 347.823 182.322 347.444 182.254C347.37 183.093 347.28 184.086 347.181 185.207C347.148 185.592 347.115 185.986 347.074 186.397C346.638 191.422 346.062 198.544 345.61 205.811C345.585 206.213 345.561 206.616 345.536 207.018C345.38 209.338 345.256 211.666 345.149 213.926Z" fill="#585859"/>
<path d="M343.487 206.214C343.668 206.308 344.483 206.701 345.519 207.027C345.881 207.138 346.268 207.249 346.671 207.326C347.033 207.395 347.403 207.455 347.773 207.472C348.481 207.515 349.155 207.438 349.723 207.155C350.43 206.804 350.891 206.162 351.048 205.306C351.467 203.046 352.356 193.733 352.956 187.142C352.997 186.74 353.03 186.346 353.063 185.961C353.162 184.908 353.244 183.949 353.318 183.136C352.931 183.084 352.545 183.042 352.158 182.99C352.084 183.812 352.002 184.779 351.903 185.849C351.87 186.234 351.829 186.628 351.796 187.031C351.196 193.605 350.315 202.909 349.904 205.092C349.813 205.597 349.591 205.922 349.205 206.111C348.588 206.419 347.666 206.35 346.745 206.145C346.35 206.059 345.963 205.94 345.601 205.82C344.935 205.597 344.359 205.34 344.005 205.169C343.718 205.024 343.372 205.144 343.224 205.435C343.084 205.717 343.207 206.068 343.487 206.214Z" fill="#585859"/>
<path d="M376.246 262.778C378.04 245.726 380.113 222.905 381.281 209.68C381.322 209.269 381.355 208.867 381.388 208.473C381.906 202.635 382.219 198.963 382.219 198.963C379.438 197.756 374.395 198.587 369.031 200.17C368.645 200.281 368.258 200.401 367.863 200.521C358.337 203.491 348.234 208.508 348.234 208.508V262.778H376.246Z" fill="#1B3151"/>
<path d="M373.506 262.777C375.053 243.817 376.887 216.425 376.912 216.065C376.937 215.732 376.69 215.441 376.369 215.415C376.048 215.398 375.768 215.646 375.752 215.98C375.727 216.339 373.885 243.834 372.338 262.777H373.506V262.777Z" fill="#1B3151"/>
<path d="M364.654 191.61C364.703 191.892 365.501 196.181 367.862 200.521C369.253 203.08 371.194 205.648 373.843 207.42C376.073 208.91 378.557 209.663 381.272 209.68C381.313 209.269 381.346 208.867 381.379 208.473C378.845 208.473 376.533 207.78 374.477 206.402C372.107 204.818 370.339 202.507 369.03 200.17C366.62 195.856 365.806 191.456 365.797 191.387C365.74 191.062 365.435 190.839 365.123 190.899C364.81 190.959 364.596 191.276 364.654 191.61Z" fill="#1B3151"/>
<path d="M318.068 187.142C330.606 199.323 360.263 205.795 383.117 194.213C385.626 187.082 388.382 161.642 389.122 154.032C389.27 152.517 389.394 151.002 389.484 149.487C389.945 142.194 389.846 134.841 389.509 127.154C389.492 126.734 389.468 126.315 389.451 125.896C389.155 119.57 388.702 113.013 388.283 106.045C387.452 92.2547 383.026 83.7632 375.342 82.4963C371.772 81.9057 368.942 80.8614 366.861 79.8342C366.606 79.7058 366.367 79.5859 366.129 79.4575C363.652 78.1393 362.246 76.958 362.246 76.958H345.109C343.637 79.1922 341.778 80.6046 339.779 81.5975C339.556 81.7088 339.334 81.8115 339.104 81.9142C333.024 84.6449 325.933 84.1056 324.469 91.7326C323.547 96.5262 327.077 106.379 326.706 126.366C326.682 127.83 326.632 129.354 326.558 130.929C326.492 132.41 326.402 133.933 326.287 135.508C326.18 136.972 326.056 138.496 325.908 140.054C325.777 141.415 325.629 142.819 325.464 144.248C325.291 145.72 325.102 147.227 324.888 148.776C323.753 157.105 320.693 176.459 318.068 187.142Z" fill="#3655CE"/>
<path d="M376.799 191.311C376.758 191.311 376.708 191.303 376.659 191.294C376.388 191.217 376.223 190.926 376.297 190.635C385.815 154.323 383.89 117.421 383.874 117.053C383.857 116.762 384.071 116.505 384.359 116.488C384.647 116.471 384.886 116.694 384.902 116.993C384.919 117.361 386.852 154.443 377.292 190.926C377.235 191.149 377.021 191.311 376.799 191.311Z" fill="#C77E2E"/>
<path d="M325.16 144.146C325.439 144.146 325.678 143.932 325.711 143.632C326.846 133.129 326.863 112.243 326.863 112.029C326.863 111.712 326.616 111.455 326.311 111.455C326.007 111.455 325.76 111.712 325.76 112.029C325.76 112.234 325.744 133.069 324.617 143.504C324.584 143.82 324.798 144.103 325.102 144.137C325.118 144.146 325.135 144.146 325.16 144.146Z" fill="#C77E2E"/>
<path d="M349.922 184.925C350.636 184.925 351.214 184.324 351.214 183.581C351.214 182.839 350.636 182.237 349.922 182.237C349.209 182.237 348.631 182.839 348.631 183.581C348.631 184.324 349.209 184.925 349.922 184.925Z" fill="#C77E2E"/>
<path d="M349.715 191.431C350.429 191.431 351.007 190.829 351.007 190.087C351.007 189.345 350.429 188.743 349.715 188.743C349.002 188.743 348.424 189.345 348.424 190.087C348.424 190.829 349.002 191.431 349.715 191.431Z" fill="#C77E2E"/>
<path d="M333.336 118.662C329.972 114.596 331.238 105.548 331.288 105.163C331.329 104.88 331.559 104.675 331.831 104.675H343.241C343.513 104.675 343.751 104.88 343.784 105.163C343.842 105.548 345.1 114.596 341.736 118.662C340.666 119.954 339.251 120.605 337.532 120.605C335.821 120.614 334.406 119.954 333.336 118.662ZM332.324 105.822C332.11 107.731 331.551 114.741 334.175 117.909C335.039 118.953 336.142 119.458 337.54 119.458C338.947 119.458 340.049 118.953 340.905 117.909C343.521 114.741 342.97 107.731 342.756 105.822H332.324Z" fill="#C77E2E"/>
<path d="M363.8 33.0105C360.608 30.862 350.547 29.7834 350.547 29.7834C350.547 29.7834 348.893 25.2552 347.026 23.9712C342.789 21.0351 342.263 26.9843 342.263 26.9843C342.263 26.9843 338.125 20.9495 334.398 22.6786C330.671 24.3992 335.434 30.006 335.434 30.006C335.434 30.006 329.849 28.9274 330.466 33.8837C331.083 38.8399 336.471 40.9885 336.471 40.9885C336.471 40.9885 334.817 43.7876 335.64 48.3158C336.471 52.8355 338.33 53.0581 338.33 53.0581L361.521 55.2152C361.521 55.2152 366.284 55.2152 367.527 48.9664C368.769 42.7176 364.631 40.1325 364.631 40.1325C364.631 40.1325 367.321 35.3731 363.8 33.0105Z" fill="#39393B"/>
<path d="M344.861 73.936V78.4642C345.371 78.8922 345.89 79.2688 346.4 79.5856C353.96 84.3107 362.121 78.4642 362.121 78.4642V62.748L346.918 72.6006L344.861 73.936Z" fill="#EA9B7A"/>
<path d="M344.861 73.8079V78.4731C345.371 78.9011 345.89 79.2777 346.4 79.5944C352.841 76.9408 357.53 69.9131 357.53 69.9131L346.918 72.6095L344.861 73.8079Z" fill="#39393B"/>
<path d="M362.089 73.8672C362.089 73.8672 367.181 74.7574 368.579 80.8179C363.619 86.2193 359.234 90.893 352.143 92.2626V81.4171C352.134 81.4171 358.395 79.7821 362.089 73.8672Z" fill="#0C5AE5"/>
<path d="M344.697 75.4336C344.697 75.4336 340.147 76.4522 338.387 82.5041C342.969 88.3078 345.421 90.4906 352.134 92.2625V81.417C352.134 81.417 348.39 81.3571 344.697 75.4336Z" fill="#0C5AE5"/>
<path d="M342.139 159.706L345.084 167.111L346.408 170.432L350.151 179.831L351.953 176.202L352.595 174.918L354.043 172.007L354.676 170.723L356.132 167.813L356.766 166.529L358.214 163.618L358.855 162.334L360.221 159.604L360.188 159.304L359.974 157.138L359.497 152.216L359.283 150.042L358.798 145.129L358.592 142.954L358.107 138.041L357.893 135.867L357.416 130.953L357.202 128.779L356.725 123.866L356.511 121.691L356.025 116.778L355.811 114.604L355.334 109.69L355.12 107.516L354.643 102.594L354.429 100.428L353.928 95.3438L350.316 95.1982L350.217 96.0457L349.995 97.7662L349.502 101.67L349.279 103.39L348.786 107.294L348.572 109.014L348.07 112.917L347.856 114.638L347.363 118.541L347.141 120.262L346.647 124.165L346.425 125.886L345.931 129.789L345.717 131.51L345.224 135.413L345.002 137.134L344.508 141.037L344.286 142.758L343.792 146.661L343.578 148.39L343.077 152.293L342.863 154.014L342.369 157.909L342.147 159.638L342.139 159.706Z" fill="#39393B"/>
<path d="M349.994 97.7665L354.642 102.594L354.428 100.429L350.216 96.0459L349.994 97.7665Z" fill="#BABAF1"/>
<path d="M349.279 103.39L355.334 109.691L355.12 107.516L349.501 101.67L349.279 103.39Z" fill="#BABAF1"/>
<path d="M348.572 109.015L356.026 116.778L355.812 114.604L348.786 107.294L348.572 109.015Z" fill="#BABAF1"/>
<path d="M347.855 114.639L356.724 123.866L356.51 121.692L348.069 112.918L347.855 114.639Z" fill="#BABAF1"/>
<path d="M347.141 120.263L357.416 130.954L357.202 128.78L347.363 118.542L347.141 120.263Z" fill="#BABAF1"/>
<path d="M346.424 125.887L358.106 138.042L357.892 135.868L346.646 124.166L346.424 125.887Z" fill="#BABAF1"/>
<path d="M345.717 131.51L358.797 145.129L358.592 142.954L345.931 129.789L345.717 131.51Z" fill="#BABAF1"/>
<path d="M345 137.134L359.495 152.216L359.282 150.042L345.222 135.413L345 137.134Z" fill="#BABAF1"/>
<path d="M344.285 142.758L360.187 159.304L359.973 157.138L344.507 141.037L344.285 142.758Z" fill="#BABAF1"/>
<path d="M343.578 148.39L358.213 163.619L358.855 162.335L343.792 146.661L343.578 148.39Z" fill="#BABAF1"/>
<path d="M342.861 154.014L356.131 167.813L356.764 166.529L343.075 152.294L342.861 154.014Z" fill="#BABAF1"/>
<path d="M342.146 159.638L354.042 172.007L354.676 170.723L342.369 157.909L342.146 159.638Z" fill="#BABAF1"/>
<path d="M345.084 167.111L346.408 170.433L351.953 176.202L352.595 174.918L345.084 167.111Z" fill="#BABAF1"/>
<path d="M353.936 95.3438L352.135 98.1258L350.325 95.1982L350.004 97.6978L352.11 99.9234L354.125 97.2783L353.936 95.3438Z" fill="#585859"/>
<path d="M356.955 90.6782L352.135 98.1254L347.52 90.6782L352.135 84.4551L356.955 90.6782Z" fill="#39393B"/>
<path d="M359.752 95.7719C359.875 95.7719 359.998 95.7291 360.097 95.6435C364.869 91.6888 368.924 81.4596 369.097 81.0231C369.212 80.732 369.081 80.3896 368.793 80.2698C368.513 80.1499 368.192 80.2869 368.069 80.5865C368.028 80.6892 364.202 90.3192 359.842 94.351L352.586 84.0961C352.479 83.9506 352.315 83.8564 352.134 83.865C351.953 83.865 351.788 83.9591 351.689 84.1047L344.919 94.1027C343.891 92.1596 341.168 87.0065 338.889 82.23C338.757 81.9476 338.42 81.8277 338.148 81.9732C337.877 82.1188 337.762 82.4611 337.902 82.7436C340.781 88.7784 344.351 95.4039 344.384 95.4723C344.475 95.6435 344.647 95.7548 344.837 95.7634C345.026 95.7719 345.207 95.6778 345.314 95.5237L352.15 85.4315L359.299 95.5323C359.39 95.6607 359.521 95.7377 359.669 95.7634C359.702 95.7719 359.727 95.7719 359.752 95.7719Z" fill="#C77E2E"/>
<path d="M352.149 85.0295C352.453 85.0295 352.7 84.7727 352.7 84.456V81.888C352.7 81.5713 352.453 81.3145 352.149 81.3145C351.845 81.3145 351.598 81.5713 351.598 81.888V84.456C351.59 84.7727 351.836 85.0295 352.149 85.0295Z" fill="#C77E2E"/>
<path d="M339.416 53.8545C339.416 53.8545 336.94 50.8157 335.541 53.8545C334.142 56.8933 335.22 63.0479 338.98 62.0464L339.416 53.8545Z" fill="#D96C63"/>
<path d="M336.775 64.5204C336.775 64.5204 336.759 73.8936 346.129 73.8679C355.442 73.8508 361.785 66.2409 362.114 65.89C362.122 65.8814 362.122 65.8814 362.122 65.8814L362.221 63.9126L362.747 53.692L363.027 48.2307C363.027 48.2307 364.22 38.3952 355.228 36.5976C348.663 35.288 342.509 36.4179 339.4 39.9874C339.301 40.0987 339.202 40.2185 339.112 40.3383C338.133 41.5881 337.508 43.1204 337.343 44.918L337.055 54.7277L336.981 57.1331L336.775 64.5204Z" fill="#EA9B7A"/>
<path d="M347.536 47.691C347.536 47.691 351.469 50.7384 353.805 48.7952C356.142 46.8521 350.695 44.7378 348.902 44.9004C347.109 45.0545 346.368 46.9976 347.536 47.691Z" fill="#39393B"/>
<path d="M343.258 47.691C343.258 47.691 339.325 50.7384 336.989 48.7952C334.653 46.8521 340.099 44.7378 341.892 44.9004C343.677 45.0545 344.426 46.9976 343.258 47.691Z" fill="#39393B"/>
<path d="M346.352 65.7442C347.849 65.8811 348.976 64.9053 349.026 64.854C349.198 64.6999 349.215 64.426 349.067 64.2462C348.919 64.0665 348.655 64.0494 348.483 64.2034C348.425 64.2548 347.125 65.3761 345.603 64.6657C345.398 64.5715 345.151 64.6657 345.06 64.8882C344.97 65.1022 345.06 65.359 345.266 65.4532C345.653 65.6158 346.015 65.71 346.352 65.7442Z" fill="#D96C63"/>
<path d="M350.416 59.0498C350.416 59.0498 344.698 60.2482 341.811 59.9743C341.811 59.9743 342.88 64.3998 347.141 63.287C350.449 62.4139 350.416 59.0498 350.416 59.0498Z" fill="white"/>
<path d="M339.129 40.3296C340.601 39.7903 341.663 40.2953 343.95 41.3397C347.257 42.8548 350.959 41.4937 354.233 39.7475C357.507 38.0098 359.465 40.4237 358.355 42.0159C357.244 43.608 357.359 44.8921 358.593 46.9122C359.827 48.9324 356.257 49.8825 358.231 51.4661C359.062 52.1338 359.013 53.1353 358.675 54.0684C358.305 55.087 359.169 56.1228 360.189 55.9259C361.25 55.6434 362.756 53.6832 362.756 53.6832L363.036 48.2219C363.036 48.2219 364.228 38.3864 355.237 36.5888C348.672 35.2792 342.518 36.4091 339.409 39.9786C339.318 40.0984 339.219 40.2097 339.129 40.3296Z" fill="#39393B"/>
<path d="M352.298 57.1665C353.966 57.1665 355.318 56.6146 355.318 55.9338C355.318 55.253 353.966 54.7012 352.298 54.7012C350.631 54.7012 349.279 55.253 349.279 55.9338C349.279 56.6146 350.631 57.1665 352.298 57.1665Z" fill="#D96C63"/>
<path d="M336.998 57.1322C337.228 57.1579 337.475 57.1665 337.722 57.1665C339.384 57.1665 340.733 56.6101 340.733 55.9338C340.733 55.249 339.384 54.7012 337.722 54.7012C337.5 54.7012 337.278 54.7097 337.064 54.7354L336.998 57.1322Z" fill="#D96C63"/>
<path d="M348.894 53.8712C349.398 53.8712 349.807 53.1124 349.807 52.1763C349.807 51.2403 349.398 50.4814 348.894 50.4814C348.389 50.4814 347.98 51.2403 347.98 52.1763C347.98 53.1124 348.389 53.8712 348.894 53.8712Z" fill="#39393B"/>
<path d="M339.845 53.8712C340.349 53.8712 340.758 53.1124 340.758 52.1763C340.758 51.2403 340.349 50.4814 339.845 50.4814C339.34 50.4814 338.932 51.2403 338.932 52.1763C338.932 53.1124 339.34 53.8712 339.845 53.8712Z" fill="#39393B"/>
<path d="M359.186 62.0889C359.227 62.1916 360.411 65.0506 362.114 65.8895C362.122 65.881 362.122 65.881 362.122 65.881L362.221 63.9122C362.229 63.9122 360.749 63.6468 359.186 62.0889Z" fill="#39393B"/>
<path d="M360.83 55.5749C360.83 55.5749 364.433 50.5416 367.066 54.4963C369.238 57.7577 365.133 66.2492 360.83 63.3388V55.5749Z" fill="#EA9B7A"/>
<path d="M361.324 61.8236C361.513 61.8236 361.669 61.6781 361.694 61.4812C362.097 57.672 365.157 56.3452 365.289 56.2939C365.478 56.2168 365.569 55.9943 365.495 55.7888C365.421 55.5834 365.207 55.4978 365.017 55.5748C364.869 55.6348 361.406 57.1156 360.962 61.3956C360.937 61.6096 361.085 61.7979 361.291 61.8236C361.299 61.8236 361.315 61.8236 361.324 61.8236Z" fill="#39393B"/>
<path d="M364.78 59.4867C364.887 59.4867 364.994 59.4354 365.068 59.3412C365.199 59.1786 365.175 58.9303 365.018 58.8019C364.87 58.6735 363.546 57.5864 362.427 57.886C362.229 57.9373 362.106 58.1513 362.155 58.3568C362.205 58.5622 362.41 58.6906 362.608 58.6307C363.25 58.4595 364.22 59.1272 364.549 59.4011C364.615 59.461 364.706 59.4867 364.78 59.4867Z" fill="#39393B"/>
<path d="M345.059 56.8933C345.265 56.8933 345.429 56.7221 345.429 56.5081C345.429 56.2941 345.265 56.1229 345.059 56.1229C343.694 56.1229 343.06 55.3696 342.846 55.0529C344.327 51.8857 345.791 48.6842 345.808 48.6586C345.898 48.4702 345.816 48.2391 345.635 48.145C345.454 48.0508 345.232 48.1364 345.141 48.3247C345.125 48.359 343.603 51.6717 342.098 54.9073C342.048 55.0101 342.048 55.1299 342.098 55.2412C342.122 55.3011 342.863 56.8933 345.059 56.8933Z" fill="#39393B"/>
<path d="M434.688 91.6386C434.688 91.6386 439.674 96.8773 444.602 94.84C448.575 93.188 449.455 87.4356 449.653 85.2871C449.702 84.7735 449.702 84.4653 449.702 84.4653C449.702 84.4653 449.974 84.3027 450.344 84.0202C451.216 83.3525 452.664 82 452.507 80.4164C452.285 78.1566 448.337 79.4149 448.337 79.4149C448.337 79.4149 448.937 76.6842 447.769 75.8796C446.625 75.0921 444.273 76.4874 444.273 76.4874C444.273 76.4874 445.548 73.1404 443.804 72.3358C441.188 71.1202 440.315 75.2376 440.2 75.503C440.233 75.2034 441.475 62.5945 439.394 63.245C437.576 63.81 435.906 74.3474 435.478 77.215C435.412 77.6687 435.371 77.9254 435.371 77.9254C435.371 77.9254 435.223 77.9169 434.976 77.9254C433.808 77.9597 430.378 78.285 429.744 80.7674C429.004 83.7805 434.688 91.6386 434.688 91.6386Z" fill="#EA9B7A"/>
<path d="M444.89 82.7277C444.47 83.7035 444.257 84.765 444.462 85.5182C444.594 86.0062 444.89 86.34 445.318 86.477C445.614 86.5711 445.992 86.5711 446.412 86.4941C447.473 86.3143 448.789 85.7066 449.653 85.27C449.703 84.7564 449.703 84.4482 449.703 84.4482C449.703 84.4482 449.974 84.2856 450.353 84.0031C450.278 83.9946 450.196 84.0202 450.13 84.0545C448.798 84.8163 446.379 85.9291 445.565 85.6638C445.458 85.6295 445.326 85.5525 445.252 85.2786C445.03 84.4482 445.63 82.6849 446.478 81.6491C446.618 81.4865 446.609 81.2383 446.47 81.0842C446.33 80.9215 446.091 80.8959 445.927 81.0328C445.112 81.6577 442.751 83.1899 441.575 82.7962C441.402 82.7362 441.377 82.6592 441.369 82.6164C441.32 82.4195 441.394 82.1199 441.55 81.7604C441.863 81.0414 442.496 80.1255 442.998 79.5263C443.055 79.4578 443.088 79.3722 443.097 79.2951C443.113 79.1582 443.064 79.0212 442.957 78.9271C442.784 78.773 442.529 78.7901 442.381 78.9699C442.159 79.2352 441.377 80.1939 440.908 81.1869C440.736 81.5464 440.604 81.9145 440.563 82.2483C440.53 82.4623 440.538 82.6678 440.587 82.8475C440.653 83.1043 440.842 83.4467 441.328 83.6094C442.364 83.9603 443.804 83.3526 444.89 82.7277Z" fill="#D96C63"/>
<path d="M438.638 79.1495C438.802 79.2009 438.917 79.3379 438.934 79.5176C438.975 80.074 439.098 80.5534 439.296 80.8358C439.452 81.0584 439.6 81.0841 439.715 81.0841C439.896 81.0755 440.127 80.9814 440.39 80.8273C441.04 80.4421 441.862 79.6803 442.578 78.9355C442.57 79.0211 442.537 79.0982 442.479 79.1667C441.978 79.7659 441.344 80.6818 441.031 81.4008C440.949 81.4522 440.867 81.5121 440.785 81.5549C440.521 81.7089 440.275 81.8202 440.044 81.8887C439.937 81.9144 439.847 81.9315 439.748 81.9315C439.304 81.9486 438.917 81.7432 438.629 81.3323C438.333 80.9043 438.169 80.2709 438.111 79.5775C438.086 79.2865 438.35 79.0639 438.621 79.141C438.629 79.1495 438.638 79.1495 438.638 79.1495Z" fill="#D96C63"/>
<path d="M432.78 83.9173C432.887 83.9259 434.474 84.0971 436.013 83.8317C436.868 83.6862 437.707 83.4037 438.267 82.8816C438.728 82.4536 438.974 81.9143 438.991 81.2808C439.04 79.021 436.819 77.7627 435.486 77.2148C435.42 77.6685 435.379 77.9253 435.379 77.9253C435.379 77.9253 435.231 77.9168 434.984 77.9253C436.103 78.3619 438.209 79.4233 438.168 81.2551C438.16 81.6489 438.012 81.9656 437.724 82.2396C436.638 83.2411 433.841 83.1812 432.862 83.0699C432.64 83.0442 432.434 83.2154 432.409 83.4465C432.393 83.6776 432.557 83.8916 432.78 83.9173Z" fill="#D96C63"/>
<path d="M441.557 92.0404C441.697 92.0147 441.821 91.9206 441.87 91.775C441.952 91.5525 441.845 91.3128 441.631 91.2272C440.496 90.7821 439.723 90.0288 439.353 89.0102C438.39 86.3823 440.192 82.7271 440.208 82.6929C440.315 82.4875 440.233 82.2307 440.035 82.1194C439.838 82.0081 439.591 82.0937 439.484 82.2991C439.402 82.4618 437.493 86.3309 438.588 89.3098C439.048 90.5766 439.978 91.484 441.344 92.0233C441.418 92.049 441.492 92.049 441.557 92.0404Z" fill="#D96C63"/>
<path d="M380.862 85.5186L389.385 93.2226C390.751 94.5494 392.116 95.859 393.49 97.1687C394.856 98.4784 396.221 99.7795 397.595 101.064C398.969 102.348 400.335 103.623 401.7 104.873C403.066 106.122 404.44 107.347 405.797 108.519C407.146 109.701 408.504 110.839 409.771 111.815C410.396 112.303 411.005 112.748 411.506 113.082L411.835 113.304L411.967 113.39C411.992 113.407 412 113.416 412.016 113.433C412.066 113.484 412.099 113.518 412.123 113.553C412.165 113.612 412.165 113.664 412.214 113.707C412.263 113.758 412.395 113.792 412.633 113.775C413.111 113.741 414.007 113.424 415.027 112.808C416.047 112.192 417.183 111.301 418.302 110.257C419.42 109.204 420.564 108.023 421.666 106.739C423.879 104.162 426.01 101.26 428.025 98.2216C430.049 95.1828 431.481 92.8373 433.307 89.6017C436.269 93.3167 440.802 95.1571 445.729 94.5408C444.339 98.4698 442.735 102.288 440.925 106.08C439.09 109.855 437.067 113.595 434.599 117.259C433.365 119.091 432.032 120.914 430.493 122.695C428.955 124.475 427.244 126.23 425.154 127.882C424.11 128.704 422.966 129.508 421.675 130.236C420.383 130.955 418.96 131.614 417.356 132.111C415.76 132.599 413.991 132.932 412.148 132.967C410.305 133.009 408.397 132.753 406.628 132.23C405.739 131.974 404.884 131.657 404.078 131.289L403.485 131.006L402.984 130.75C402.811 130.664 402.671 130.587 402.515 130.501C402.367 130.416 402.202 130.33 402.062 130.253C400.91 129.603 399.923 128.978 398.977 128.353C397.101 127.112 395.415 125.879 393.761 124.629C392.116 123.379 390.537 122.113 388.974 120.846C387.419 119.579 385.88 118.295 384.375 117.002C382.869 115.701 381.372 114.4 379.9 113.09C378.427 111.772 376.971 110.445 375.515 109.11C374.075 107.766 372.635 106.422 371.212 105.061L369.081 103.007L368.028 101.962C367.675 101.611 367.329 101.269 366.959 100.892L380.862 85.5186Z" fill="#223EAC"/>
<path d="M388.999 121.916C388.9 121.916 388.793 121.881 388.703 121.821C383.076 117.721 373.064 109.084 372.965 108.999C372.743 108.81 372.718 108.476 372.899 108.245C373.08 108.014 373.401 107.988 373.623 108.177C373.722 108.262 383.701 116.874 389.295 120.948C389.526 121.12 389.583 121.453 389.419 121.693C389.32 121.83 389.164 121.916 388.999 121.916Z" fill="#C77E2E"/>
<path d="M377.36 112.568C377.335 112.568 377.31 112.568 377.286 112.56L373.32 111.961C373.041 111.918 372.843 111.644 372.884 111.353C372.925 111.062 373.189 110.856 373.468 110.899L377.434 111.498C377.713 111.541 377.911 111.815 377.87 112.106C377.829 112.38 377.615 112.568 377.36 112.568Z" fill="#C77E2E"/>
<path d="M442.973 101.209C443.179 101.098 443.294 100.858 443.244 100.61C443.179 100.319 442.907 100.13 442.619 100.19C435.149 101.885 431.431 94.4722 431.398 94.3952C431.266 94.1298 430.954 94.0185 430.691 94.1555C430.435 94.2925 430.337 94.6178 430.468 94.8831C430.51 94.9687 434.598 103.118 442.85 101.243C442.882 101.252 442.932 101.235 442.973 101.209Z" fill="#C77E2E"/>
<path d="M439.132 101.354C439.239 101.294 439.322 101.208 439.371 101.089L441.831 95.1136C441.946 94.8397 441.822 94.5144 441.559 94.3946C441.296 94.2747 440.983 94.4031 440.868 94.677L438.408 100.652C438.293 100.926 438.417 101.251 438.68 101.371C438.836 101.439 439.001 101.422 439.132 101.354Z" fill="#C77E2E"/>
<path d="M435.536 96.1156C436.036 96.1156 436.441 95.6941 436.441 95.174C436.441 94.654 436.036 94.2324 435.536 94.2324C435.036 94.2324 434.631 94.654 434.631 95.174C434.631 95.6941 435.036 96.1156 435.536 96.1156Z" fill="#C77E2E"/>
<path d="M411.038 120.426C411.178 120.349 411.285 120.204 411.31 120.033C411.318 119.998 411.861 116.591 412.84 114.606C412.972 114.34 412.873 114.006 412.61 113.869C412.346 113.732 412.034 113.844 411.902 114.109C410.857 116.249 410.298 119.707 410.273 119.853C410.224 120.152 410.421 120.426 410.701 120.478C410.824 120.495 410.94 120.478 411.038 120.426Z" fill="#C77E2E"/>
<path d="M414.436 119.202C414.469 119.185 414.502 119.159 414.535 119.133C414.757 118.937 414.782 118.594 414.601 118.363C414.584 118.346 413.128 116.514 412.783 114.734C412.725 114.443 412.446 114.246 412.166 114.306C411.886 114.366 411.697 114.657 411.754 114.948C412.158 117.002 413.729 118.971 413.795 119.056C413.959 119.262 414.223 119.313 414.436 119.202Z" fill="#C77E2E"/>
<path d="M119.155 361.012C184.963 361.012 238.31 357.636 238.31 353.471C238.31 349.306 184.963 345.93 119.155 345.93C53.3475 345.93 0 349.306 0 353.471C0 357.636 53.3475 361.012 119.155 361.012Z" fill="#CED3E6"/>
<path d="M111.727 143.46L123.763 189.256L119.468 184.111C121.056 184.993 122.899 185.669 124.931 186.14C126.963 186.62 129.184 186.893 131.504 187.013C133.824 187.142 136.243 187.116 138.719 187.013C141.195 186.902 143.721 186.714 146.287 186.483H146.304C150.088 186.149 153.42 189.068 153.741 193.005C154.045 196.763 151.487 200.093 147.974 200.684C145.325 201.12 142.635 201.54 139.879 201.873C137.115 202.207 134.285 202.456 131.356 202.524C128.427 202.593 125.392 202.473 122.249 202.002C119.115 201.531 115.865 200.684 112.69 199.254C110.658 198.338 109.21 196.609 108.552 194.58L108.395 194.101L93.9575 149.067C92.3369 144.008 94.9612 138.529 99.8313 136.843C104.693 135.157 109.958 137.887 111.579 142.955C111.628 143.109 111.686 143.306 111.727 143.46Z" fill="#EA9B7A"/>
<path d="M116.359 309.473C116.178 309.473 115.998 309.439 115.817 309.37L52.7591 285.719C51.9365 285.411 51.5087 284.461 51.8048 283.605C52.101 282.749 53.0142 282.295 53.8368 282.612L116.886 306.263C117.709 306.571 118.145 307.521 117.84 308.377C117.626 309.054 117.009 309.473 116.359 309.473Z" fill="#0C5AE5"/>
<path d="M50.6849 309.473C50.035 309.473 49.4262 309.053 49.1877 308.377C48.8915 307.521 49.3193 306.571 50.1419 306.254L113.94 282.209C114.762 281.901 115.676 282.346 115.98 283.202C116.276 284.058 115.848 285.008 115.026 285.325L51.2279 309.37C51.0551 309.438 50.8659 309.473 50.6849 309.473Z" fill="#0C5AE5"/>
<path d="M121.97 351.742C120.629 351.742 119.461 350.707 119.28 349.286L107.894 260.801H60.2374L49.0162 349.286C48.8188 350.835 47.4531 351.931 45.9641 351.725C44.4751 351.52 43.4221 350.099 43.6195 348.55L55.1451 257.617C55.3261 256.204 56.4778 255.151 57.8434 255.151H110.272C111.638 255.151 112.789 256.204 112.97 257.608L124.677 348.55C124.874 350.099 123.83 351.528 122.34 351.734C122.209 351.734 122.094 351.742 121.97 351.742Z" fill="#0C5AE5"/>
<path d="M95.0848 257.976H61.0347C50.2495 257.976 38.6992 251.83 37.0375 240.744C34.8245 225.91 34.2733 211.555 34.8903 198.372C35.5896 183.469 42.4342 169.602 53.6882 160.357C53.6882 160.357 60.4917 191.199 51.936 233.768C55.2102 249.929 95.0848 257.976 95.0848 257.976Z" fill="#8A8FC4"/>
<path d="M87.9842 77.0939C87.9842 77.0939 83.9367 66.9418 73.2173 68.8592C65.731 70.1946 62.5391 79.9016 62.9751 94.8987C63.6168 116.718 56.5254 129.866 56.5254 129.866L65.9367 132.092C65.9449 132.083 89.9092 94.6762 87.9842 77.0939Z" fill="#39393B"/>
<path d="M173.856 313.829H158.645C158.645 313.829 155.124 296.264 153.948 286.42C152.763 276.568 152.154 253.224 152.154 253.224C152.154 253.224 140.036 257.325 114.665 255.775C58.4524 252.36 79.7677 209.389 79.7677 209.389C81.6681 212.119 93.3006 210.228 101.256 211.529C125.664 213.968 146.823 223.932 159.525 229.633C162.586 231.003 165.3 232.458 167.686 233.982C170.746 235.942 172.663 241.908 173.823 249.741C177.287 273.298 173.856 313.829 173.856 313.829Z" fill="#3655CE"/>
<path d="M160.537 305.364C160.282 305.364 160.06 305.175 160.002 304.91C157.806 293.611 157.074 279.547 156.481 268.247C155.988 258.874 155.527 250.023 154.367 248.962C153.429 248.097 149.538 248.773 144.618 249.621C134.82 251.316 120.012 253.867 103.691 249.92C94.7976 247.763 88.2574 243.269 84.2593 236.558C77.3571 224.985 80.5079 210.63 80.5408 210.485C80.6066 210.176 80.9028 209.988 81.199 210.065C81.4951 210.134 81.6761 210.442 81.6021 210.75C81.5692 210.887 78.5335 224.797 85.1971 235.968C89.039 242.413 95.3488 246.736 103.946 248.816C120.062 252.72 134.738 250.186 144.454 248.508C150.27 247.507 153.783 246.899 155.107 248.114C156.539 249.433 156.942 255.904 157.584 268.187C158.176 279.452 158.908 293.474 161.088 304.687C161.146 304.995 160.956 305.295 160.66 305.355C160.603 305.364 160.57 305.364 160.537 305.364Z" fill="#BE8A3A"/>
<path d="M174.145 305.663H174.136L157.222 305.286C156.918 305.278 156.679 305.021 156.688 304.704C156.696 304.387 156.943 304.139 157.247 304.148L174.161 304.524C174.466 304.533 174.696 304.79 174.696 305.106C174.688 305.415 174.441 305.663 174.145 305.663Z" fill="#585859"/>
<path d="M173.438 334.099H162.702L160.637 321.002L159.502 313.829H172.837L173.051 321.002L173.438 334.099Z" fill="#EA9B7A"/>
<path d="M173.437 334.099H162.702L161.163 324.349L160.637 321.002H173.051L173.158 324.469L173.437 334.099Z" fill="#FAAF3A"/>
<path d="M173.158 324.469L161.163 324.349L160.637 321.002H173.051L173.158 324.469Z" fill="#C77E2E"/>
<path d="M199.927 351.741H159.329C159.024 351.167 158.86 350.363 158.794 349.395C158.539 345.826 159.633 340.116 160.168 336.521C160.233 336.102 160.291 335.708 160.332 335.357C160.406 334.758 160.456 334.253 160.456 333.885C160.456 330.948 162.948 331.453 162.948 331.453C167.053 335.648 171.71 329.356 174.424 331.419C174.424 331.419 174.531 331.505 174.786 331.702C175.017 331.89 175.362 332.181 175.839 332.601C176.531 333.2 177.501 334.073 178.818 335.305C182.042 338.327 187.521 340.313 192.186 342.342C192.778 342.599 193.329 342.855 193.848 343.121C194.234 343.318 194.605 343.515 194.95 343.703C198.767 345.843 199.977 347.897 200.256 349.387C200.528 350.825 199.927 351.741 199.927 351.741Z" fill="#0875F7"/>
<path d="M194.958 343.72C193.913 344.584 191.585 346.322 189.718 346.322C189.635 346.322 189.553 346.322 189.471 346.314C188.154 346.202 183.317 343.728 179.377 341.477C177.123 340.185 175.058 338.918 173.577 337.899C171.15 336.23 170.722 335.596 170.632 335.151C170.278 333.482 172.927 332.327 174.786 331.719C175.017 331.907 175.362 332.198 175.839 332.618C173.536 333.268 171.635 334.295 171.726 334.886C171.948 335.382 174.358 337.283 180.101 340.561C184.485 343.061 188.64 345.072 189.561 345.158C190.812 345.261 192.646 344.079 193.847 343.146C194.242 343.326 194.612 343.523 194.958 343.72Z" fill="#084FC7"/>
<path d="M199.926 351.741H159.328C159.023 351.167 158.859 350.363 158.793 349.396H200.264C200.527 350.825 199.926 351.741 199.926 351.741Z" fill="#084FC7"/>
<path d="M163.467 351.741H162.258C163.459 350.312 164.586 348.112 164.438 344.979C164.241 340.802 161.838 337.994 160.16 336.522C160.226 336.102 160.284 335.708 160.325 335.357C162.126 336.787 165.162 339.928 165.401 344.927C165.557 347.923 164.611 350.158 163.467 351.741Z" fill="#084FC7"/>
<path d="M178.135 337.805C177.831 337.805 177.559 337.591 177.485 337.275C177.395 336.898 177.617 336.521 177.97 336.427L180.504 335.768C180.866 335.674 181.228 335.905 181.319 336.273C181.409 336.65 181.187 337.026 180.833 337.121L178.3 337.771C178.242 337.797 178.184 337.805 178.135 337.805Z" fill="white"/>
<path d="M175.617 335.614C175.321 335.614 175.042 335.4 174.967 335.083C174.877 334.707 175.099 334.33 175.453 334.236L177.987 333.577C178.349 333.483 178.711 333.714 178.801 334.082C178.892 334.458 178.669 334.835 178.316 334.921L175.782 335.58C175.724 335.605 175.667 335.614 175.617 335.614Z" fill="white"/>
<path d="M180.668 339.338C180.372 339.338 180.092 339.124 180.018 338.807C179.928 338.43 180.15 338.054 180.504 337.959L183.037 337.3C183.399 337.206 183.761 337.437 183.852 337.805C183.942 338.182 183.72 338.559 183.367 338.653L180.833 339.303C180.775 339.338 180.726 339.338 180.668 339.338Z" fill="white"/>
<path d="M183.201 340.818C182.905 340.818 182.626 340.604 182.551 340.287C182.461 339.911 182.683 339.534 183.037 339.44L185.571 338.781C185.933 338.687 186.295 338.918 186.377 339.286C186.467 339.662 186.245 340.039 185.892 340.133L183.358 340.784C183.317 340.81 183.259 340.818 183.201 340.818Z" fill="white"/>
<path d="M185.975 342.179C185.679 342.179 185.399 341.965 185.325 341.648C185.234 341.271 185.457 340.895 185.81 340.809L188.344 340.15C188.706 340.056 189.068 340.287 189.159 340.655C189.249 341.032 189.027 341.408 188.673 341.502L186.139 342.162C186.082 342.17 186.024 342.179 185.975 342.179Z" fill="white"/>
<path d="M188.969 343.344C188.665 343.344 188.393 343.13 188.319 342.813C188.229 342.436 188.451 342.06 188.804 341.974L191.338 341.315C191.7 341.221 192.062 341.452 192.144 341.82C192.235 342.197 192.013 342.573 191.659 342.659L189.125 343.318C189.076 343.335 189.027 343.344 188.969 343.344Z" fill="white"/>
<path d="M51.6148 195.761C51.6148 195.761 51.1377 199.176 55.5307 200.135L101.337 201.727C101.337 201.727 104.43 200.109 103.871 196.12C103.871 196.111 84.5297 184.804 51.6148 195.761Z" fill="#084FC7"/>
<path d="M101.961 211.52C78.186 225.13 52.2227 214.174 52.2227 214.174C53.4896 210.57 54.4356 206.504 55.1184 202.806C55.9082 198.5 56.3524 194.7 56.5581 192.705C66.6687 192.132 91.4638 191.027 101.171 193.424L101.245 197.473L101.961 211.52Z" fill="#EA9B7A"/>
<path d="M83.1511 207.189C83.6593 207.265 84.2142 206.291 84.3904 205.013C84.5667 203.735 84.2976 202.638 83.7894 202.562C83.2811 202.486 82.7263 203.46 82.55 204.738C82.3737 206.016 82.6429 207.113 83.1511 207.189Z" fill="#D96C63"/>
<path d="M101.245 197.473C91.1175 196.831 71.2007 196.608 55.1094 202.797C55.8991 198.492 56.3434 194.691 56.549 192.696C66.6596 192.123 91.4548 191.019 101.162 193.415L101.245 197.473Z" fill="#D96C63"/>
<path d="M112.54 177.896C112.441 178.204 112.326 178.486 112.203 178.752C112.153 178.854 112.104 178.957 112.055 179.051C110.779 181.508 108.813 183.639 107.16 185.155C106.814 185.471 106.485 185.754 106.181 186.011C105.572 186.524 105.054 186.926 104.7 187.192C104.371 187.432 104.182 187.56 104.182 187.56C104.182 187.586 104.182 187.603 104.173 187.637C104.157 187.817 104.141 188.014 104.124 188.219C104.066 188.998 104.017 189.922 103.984 190.984C103.951 191.831 103.927 192.764 103.91 193.774C103.902 194.519 103.886 195.298 103.877 196.103C90.4431 189.854 62.7686 193.8 51.6215 195.752C51.8272 194.75 52.0082 193.766 52.1809 192.807C52.9707 188.382 53.4149 184.401 53.5877 180.832C53.8509 175.525 53.4067 167.547 52.3208 159.303C52.255 158.764 52.1809 158.233 52.1069 157.703C52.0575 157.352 52.0082 157.009 51.9506 156.658C51.5721 154.073 51.1279 151.479 50.6261 148.963C48.4296 137.989 49.9679 126.476 60.6626 125.115C61.4359 125.012 62.201 124.926 62.9414 124.841C67.9761 124.284 72.1223 124.087 73.2741 124.045C73.488 124.036 73.5949 124.036 73.5949 124.036L94.2603 130.285L96.2265 130.876C97.3535 131.252 98.3983 131.62 99.3691 131.98C99.7804 132.134 100.184 132.288 100.562 132.433C101.566 132.827 102.471 133.204 103.301 133.589C104.955 134.351 106.263 135.096 107.3 135.857C111.832 139.204 111.133 142.988 111.018 150.461C111.018 150.495 111.018 150.529 111.018 150.564C111.018 150.658 111.018 150.752 111.018 150.855C111.018 150.897 111.018 150.94 111.018 150.983C111.018 151.291 111.018 151.591 111.018 151.899C111.026 152.866 111.059 153.825 111.117 154.784C111.191 156.196 111.314 157.6 111.462 158.969C111.52 159.517 111.577 160.065 111.643 160.613C111.701 161.127 111.767 161.632 111.832 162.137C112.639 168.677 113.667 174.412 112.54 177.896Z" fill="#1B3151"/>
<path d="M111.011 150.564C111.011 150.658 111.011 150.752 111.011 150.855C111.011 150.898 111.011 150.941 111.011 150.984C111.011 151.292 111.011 151.591 111.011 151.899L106.667 154.733C106.536 154.818 106.388 154.844 106.24 154.818C106.075 154.793 105.927 154.69 105.828 154.536C105.647 154.236 105.738 153.851 106.017 153.663L110.624 150.658C110.739 150.581 110.879 150.556 111.011 150.564Z" fill="#084FC7"/>
<path d="M82.3818 174.771C82.2173 174.771 82.0528 174.703 81.9294 174.566C81.7073 174.309 81.7237 173.906 81.9705 173.675L86.0098 169.892C86.2566 169.661 86.6433 169.678 86.8654 169.935C87.0875 170.191 87.0711 170.594 86.816 170.825L82.7767 174.608C82.6698 174.711 82.5217 174.771 82.3818 174.771Z" fill="#084FC7"/>
<path d="M111.817 162.136L109.053 164.73C108.937 164.841 108.789 164.893 108.649 164.893C108.485 164.893 108.32 164.824 108.197 164.687C107.975 164.43 107.991 164.028 108.238 163.797L111.627 160.621C111.685 161.126 111.751 161.631 111.817 162.136Z" fill="#084FC7"/>
<path d="M74.1885 159.552C74.098 159.406 74.0569 159.226 74.098 159.047C74.1721 158.704 74.5011 158.499 74.8302 158.576L80.12 159.877C80.449 159.954 80.6465 160.296 80.5724 160.639C80.4984 160.981 80.1693 161.187 79.8402 161.11L74.5505 159.808C74.3942 159.774 74.2708 159.68 74.1885 159.552Z" fill="#084FC7"/>
<path d="M55.3076 170.354C55.1431 170.354 54.9786 170.285 54.8552 170.148C54.633 169.892 54.6495 169.489 54.8963 169.258L58.9356 165.475C59.1824 165.244 59.5691 165.261 59.7912 165.518C60.0133 165.774 59.9968 166.177 59.7418 166.408L55.7025 170.191C55.5956 170.303 55.4557 170.354 55.3076 170.354Z" fill="#084FC7"/>
<path d="M102.332 169.456C102.381 169.293 102.505 169.147 102.661 169.079C102.965 168.942 103.327 169.087 103.459 169.404L105.631 174.592C105.762 174.908 105.622 175.285 105.318 175.422C105.014 175.559 104.652 175.413 104.52 175.097L102.348 169.909C102.291 169.755 102.291 169.592 102.332 169.456Z" fill="#084FC7"/>
<path d="M112.542 177.895C112.444 178.204 112.328 178.486 112.205 178.751C112.156 178.854 112.106 178.957 112.057 179.051L109.104 178.084C108.955 178.032 108.84 177.93 108.766 177.801C108.684 177.656 108.651 177.467 108.709 177.296C108.807 176.962 109.153 176.783 109.466 176.885L112.542 177.895Z" fill="#084FC7"/>
<path d="M95.8573 178.349C96.0219 178.332 96.1946 178.383 96.3263 178.512C96.5731 178.743 96.5895 179.145 96.3674 179.402L92.7148 183.588C92.4926 183.844 92.106 183.862 91.8592 183.63C91.6124 183.399 91.5959 182.997 91.818 182.74L95.4707 178.554C95.5776 178.435 95.7175 178.366 95.8573 178.349Z" fill="#084FC7"/>
<path d="M93.7102 168.693C93.5457 168.668 93.3976 168.565 93.2989 168.411C93.1179 168.12 93.2084 167.726 93.4881 167.538L98.095 164.533C98.3747 164.345 98.7531 164.439 98.9341 164.73C99.1151 165.021 99.0246 165.415 98.7449 165.603L94.138 168.608C94.0064 168.693 93.8501 168.719 93.7102 168.693Z" fill="#084FC7"/>
<path d="M96.648 150.478C96.7549 150.606 96.8207 150.777 96.7961 150.966C96.7632 151.308 96.4588 151.565 96.1297 151.522L90.7248 150.906C90.3957 150.872 90.1489 150.555 90.19 150.212C90.2229 149.87 90.5273 149.613 90.8564 149.656L96.2613 150.272C96.4094 150.289 96.5493 150.366 96.648 150.478Z" fill="#084FC7"/>
<path d="M88.7912 138.28C88.8323 138.108 88.9393 137.963 89.0956 137.877C89.3917 137.715 89.7619 137.826 89.9182 138.134L92.4932 143.116C92.6495 143.424 92.5425 143.809 92.2464 143.972C91.9502 144.135 91.58 144.023 91.4237 143.715L88.8488 138.733C88.7665 138.588 88.7501 138.425 88.7912 138.28Z" fill="#084FC7"/>
<path d="M107.161 185.163C106.816 185.479 106.487 185.762 106.182 186.019L105.475 184.135C105.417 183.981 105.417 183.827 105.475 183.682C105.532 183.519 105.656 183.382 105.82 183.314C106.133 183.185 106.487 183.348 106.61 183.665L107.161 185.163Z" fill="#084FC7"/>
<path d="M57.472 175.576C57.3897 175.422 57.3732 175.242 57.439 175.062C57.5542 174.737 57.8997 174.566 58.2124 174.686L63.3293 176.603C63.6419 176.723 63.8065 177.083 63.6913 177.408C63.5761 177.733 63.2306 177.904 62.918 177.785L57.801 175.867C57.6529 175.824 57.5378 175.713 57.472 175.576Z" fill="#084FC7"/>
<path d="M59.9738 182.774C60.1383 182.774 60.3029 182.843 60.4263 182.988C60.6484 183.245 60.6237 183.648 60.3769 183.879L56.3047 187.628C56.0579 187.859 55.6713 187.833 55.4491 187.577C55.227 187.32 55.2517 186.917 55.4985 186.686L59.5707 182.937C59.6859 182.826 59.834 182.774 59.9738 182.774Z" fill="#084FC7"/>
<path d="M67.3521 188.724C67.459 188.861 67.5084 189.041 67.4755 189.22C67.4179 189.563 67.1053 189.794 66.7762 189.734L61.4207 188.784C61.0916 188.724 60.8695 188.399 60.9271 188.056C60.9846 187.714 61.2973 187.483 61.6263 187.543L66.9819 188.493C67.13 188.518 67.2616 188.604 67.3521 188.724Z" fill="#084FC7"/>
<path d="M71.8355 135.772C71.7943 135.609 71.8108 135.421 71.9095 135.267C72.0905 134.976 72.4689 134.89 72.7486 135.079L77.3144 138.143C77.5941 138.331 77.6764 138.725 77.4954 139.016C77.3144 139.307 76.936 139.393 76.6563 139.205L72.0905 136.14C71.9589 136.046 71.8684 135.917 71.8355 135.772Z" fill="#084FC7"/>
<path d="M102.998 139.384C103.146 139.298 103.318 139.281 103.491 139.341C103.804 139.461 103.968 139.82 103.861 140.146L102.043 145.479C101.928 145.804 101.583 145.975 101.27 145.864C100.957 145.744 100.793 145.384 100.9 145.059L102.718 139.726C102.767 139.572 102.874 139.461 102.998 139.384Z" fill="#084FC7"/>
<path d="M100.555 132.442L97.7495 136.191C97.5438 136.465 97.1654 136.517 96.9021 136.303C96.6389 136.089 96.5895 135.695 96.7952 135.421L99.3619 131.997C99.7733 132.134 100.176 132.288 100.555 132.442Z" fill="#084FC7"/>
<path d="M73.1037 184.17C73.1612 184.35 73.3093 184.478 73.4739 184.513C73.5561 184.53 73.6466 184.53 73.7289 184.496C73.8194 184.461 82.6137 181.5 91.8605 185.489C96.5579 187.517 100.737 188.288 104.118 188.219C104.135 188.014 104.151 187.825 104.168 187.637C104.168 187.611 104.176 187.586 104.176 187.569C104.176 187.569 104.365 187.44 104.694 187.201C101.37 187.372 97.1173 186.636 92.2389 184.538C82.6384 180.404 73.7865 183.391 73.4163 183.52C73.1612 183.614 73.0214 183.905 73.1037 184.17Z" fill="#084FC7"/>
<path d="M94.2534 130.285C93.0934 132.151 90.7077 134.266 85.8704 133.906C79.1986 133.401 74.8055 126.776 73.2754 124.053C73.4811 124.045 73.5962 124.045 73.5962 124.045L94.2534 130.285Z" fill="#084FC7"/>
<path d="M87.1613 142.577C87.3588 142.62 87.5562 142.645 87.7537 142.663C89.5964 142.817 91.0937 142.26 92.196 141.011C95.4045 137.364 94.0882 129.044 94.0306 128.693C93.9812 128.41 93.7262 128.222 93.463 128.273C93.1915 128.325 93.0105 128.59 93.0599 128.864C93.0763 128.941 94.3514 137.039 91.4721 140.317C90.5754 141.336 89.3825 141.772 87.8441 141.644C81.378 141.105 74.1303 124.01 74.0562 123.839C73.9493 123.582 73.6531 123.463 73.4063 123.574C73.1595 123.685 73.0444 123.993 73.1513 124.25C73.431 124.961 80.3085 141.13 87.1613 142.577Z" fill="white"/>
<path d="M107.3 135.857C106.872 140.788 108.041 148.929 111.101 154.784C111.027 153.517 110.994 152.25 111.01 150.983C111.01 150.94 111.01 150.897 111.01 150.855C111.01 150.726 111.019 150.598 111.019 150.469C111.126 142.996 111.825 139.204 107.3 135.857Z" fill="#EA9B7A"/>
<path d="M69.2853 144.538C66.9161 154.056 58.2452 161.692 52.322 159.312C52.2479 158.781 52.1821 158.242 52.0999 157.711C52.0505 157.36 52.0011 157.018 51.9436 156.667C51.5651 154.082 51.1209 151.488 50.6191 148.972C48.4225 137.998 49.9692 126.485 60.6556 125.124C61.4289 125.021 62.194 124.935 62.9426 124.85C68.2899 127.229 72.0166 133.581 69.2853 144.538Z" fill="#EA9B7A"/>
<path d="M70.5037 137.278L84.3903 190.128L79.4379 184.187C81.2724 185.197 83.3949 185.985 85.7477 186.532C88.0923 187.08 90.659 187.397 93.3327 187.542C96.0146 187.688 98.8034 187.662 101.658 187.542C104.513 187.423 107.433 187.2 110.395 186.935H110.411C114.78 186.55 118.621 189.914 118.992 194.459C119.345 198.79 116.392 202.634 112.328 203.319C109.276 203.824 106.166 204.303 102.983 204.688C99.7989 205.073 96.5329 205.356 93.1435 205.441C89.7623 205.518 86.2578 205.39 82.638 204.842C79.0265 204.294 75.2752 203.319 71.6061 201.666C69.2615 200.614 67.5915 198.611 66.8264 196.274L66.6536 195.726L49.9864 143.75C48.1107 137.903 51.1463 131.594 56.7569 129.643C62.3675 127.691 68.4388 130.85 70.3145 136.688C70.3967 136.876 70.4543 137.098 70.5037 137.278Z" fill="#EA9B7A"/>
<path d="M76.7232 188.441C76.5834 188.441 76.4435 188.364 76.3612 188.227C76.2461 188.021 76.3201 187.765 76.5175 187.645C76.6492 187.568 79.6848 185.787 82.8603 185.53C83.0906 185.513 83.2881 185.685 83.3045 185.924C83.321 186.164 83.1565 186.369 82.9261 186.386C79.9398 186.626 76.9536 188.372 76.9289 188.389C76.8631 188.424 76.789 188.441 76.7232 188.441Z" fill="#D96C63"/>
<path d="M81.7728 186.532C81.6988 186.532 81.6248 186.515 81.5589 186.472C79.6421 185.265 77.3222 185.077 77.2975 185.077C77.0672 185.06 76.9026 184.854 76.9191 184.623C76.9356 184.392 77.1248 184.213 77.3551 184.23C77.4621 184.238 79.8972 184.427 81.9785 185.745C82.1759 185.865 82.2335 186.13 82.1184 186.335C82.0443 186.455 81.9045 186.532 81.7728 186.532Z" fill="#D96C63"/>
<path d="M94.1542 158.678C100.299 159.971 102.99 153.362 103.014 153.294C103.121 153.028 102.998 152.729 102.743 152.626C102.488 152.515 102.2 152.643 102.093 152.909C101.994 153.157 99.6743 158.798 94.3434 157.676C88.741 156.495 78.2931 145.033 78.1944 144.913C78.0052 144.708 77.6926 144.699 77.4952 144.896C77.2977 145.093 77.2895 145.419 77.4787 145.624C77.9147 146.095 88.2556 157.428 94.1542 158.678Z" fill="#084FC7"/>
<path d="M84.4969 117.052C84.4969 117.052 74.6331 115.117 71.8525 104.76C69.2035 94.8985 71.2437 89.7796 73.9997 84.4553C76.0728 80.4406 82.6541 75.0222 91.8762 76.9653C101.189 78.9255 108.157 83.9074 109.185 91.8768C111.102 106.788 99.5435 124.978 84.4969 117.052Z" fill="#39393B"/>
<path d="M72.3126 106.36C72.1316 106.36 71.9588 106.266 71.8683 106.086C71.6873 105.761 67.5411 97.9969 70.9881 87.7763C73.1435 81.3905 77.3802 78.54 80.5639 77.2646C84.0027 75.8864 86.8902 76.0148 87.0136 76.0234C87.2933 76.0405 87.5154 76.2887 87.499 76.5883C87.4825 76.8794 87.2522 77.1105 86.9643 77.0934C86.9396 77.0934 84.1343 76.9735 80.893 78.2747C76.5822 80.0123 73.5795 83.3251 71.9588 88.1272C68.6764 97.8685 72.7239 105.478 72.765 105.555C72.9049 105.812 72.8144 106.137 72.5758 106.283C72.4853 106.334 72.4031 106.36 72.3126 106.36Z" fill="#FAAF3A"/>
<path d="M103.624 106.522C103.624 106.522 106.832 103.886 107.68 107.378C108.527 110.871 106.141 117.077 102.406 115.194L103.624 106.522Z" fill="#D96C63"/>
<path d="M100.488 112.942C98.892 113.49 97.4852 114.962 97.1232 116.785C96.5967 119.508 98.2914 122.161 100.899 122.718C103.515 123.265 106.066 121.502 106.6 118.789C106.995 116.751 106.148 114.748 104.593 113.644C104.075 113.267 103.474 113.002 102.816 112.865C102.8 112.865 102.783 112.856 102.767 112.856C102.676 113.199 102.717 113.473 102.898 113.687C103.425 113.832 103.902 114.081 104.322 114.406C105.531 115.365 106.181 116.982 105.86 118.634C105.416 120.929 103.252 122.418 101.047 121.956C98.8426 121.493 97.4112 119.242 97.8554 116.948C98.1845 115.279 99.3691 114.098 100.858 113.721L100.488 112.942Z" fill="#FAAF3A"/>
<path d="M93.8985 121.494L92.5575 130.242C92.5575 130.242 86.2641 136.928 74.7715 124.935C77.8565 122.547 79.0329 117 78.6709 113.422C78.6709 113.422 79.5758 113.987 80.9744 115.305C81.2459 115.562 81.5996 115.759 81.9369 116.007C84.9725 118.147 89.6288 120.946 93.8985 121.494Z" fill="#EA9B7A"/>
<path d="M93.8987 121.494L93.2652 125.637C89.8183 124.037 83.7223 120.621 80.9746 115.297C81.2708 115.519 81.5998 115.751 81.9371 115.999C84.9728 118.147 89.6291 120.946 93.8987 121.494Z" fill="#39393B"/>
<path d="M106.733 104.417C106.552 105.342 106.388 106.223 106.215 107.062C106.034 107.969 105.861 108.825 105.689 109.63C104.413 115.682 103.369 118.926 101.674 120.142C93.0935 126.279 79.1329 113.85 78.6804 113.448C78.6722 113.439 78.6722 113.439 78.6722 113.439C78.664 112.729 78.664 112.018 78.6722 111.325C78.7791 105.436 79.7417 100.146 81.2718 95.2578C82.0369 89.9164 86.0186 85.6364 91.1438 84.8317C96.4582 84.0014 100.456 87.2029 102.957 88.6153C106.733 90.7553 108.214 96.7045 106.733 104.417Z" fill="#EA9B7A"/>
<path d="M81.5681 89.7619C81.5681 89.7619 87.5736 77.7437 99.5516 81.0992C111.53 84.4547 112.163 90.2413 112.377 93.1346C112.591 96.0279 106.174 90.9004 106.174 90.9004C106.174 90.9004 105.952 96.687 103.813 94.9065C101.189 92.7151 98.26 87.9986 98.26 87.9986C98.26 87.9986 91.1275 95.2917 84.3487 93.3229C80.4904 92.2101 81.5681 89.7619 81.5681 89.7619Z" fill="#39393B"/>
<path d="M96.2765 116.204C94.7217 116.204 93.6522 115.082 93.6029 115.023C93.4383 114.843 93.4383 114.56 93.6111 114.389C93.7838 114.218 94.0471 114.218 94.2116 114.398C94.2692 114.458 95.5032 115.733 97.1321 115.151C97.3542 115.074 97.601 115.194 97.6751 115.425C97.7491 115.656 97.6339 115.913 97.4118 115.99C97.0169 116.144 96.6385 116.204 96.2765 116.204Z" fill="#D96C63"/>
<path d="M92.6971 108.928C92.6971 108.928 98.4722 110.708 101.467 110.708C101.467 110.708 99.9694 115.159 95.6916 113.601C92.3598 112.395 92.6971 108.928 92.6971 108.928Z" fill="white"/>
<path d="M103.417 96.4133C103.417 96.4133 101.92 96.2506 102.159 97.7658C102.405 99.2809 105.655 98.3564 107.267 101.387C107.267 101.387 108.822 98.2109 103.417 96.4133Z" fill="#39393B"/>
<path d="M96.7462 95.0091C96.7462 95.0091 98.1859 95.4714 97.3961 96.7639C96.6064 98.0565 93.9574 95.8908 91.3413 98.0308C91.3413 98.0308 91.1027 94.4784 96.7462 95.0091Z" fill="#39393B"/>
<path d="M90.7362 106.485C92.4817 106.854 94.0091 106.574 94.1479 105.86C94.2866 105.147 92.9841 104.269 91.2386 103.901C89.4931 103.532 87.9657 103.812 87.8269 104.525C87.6882 105.239 88.9907 106.116 90.7362 106.485Z" fill="#D96C63"/>
<path d="M111.193 106.326L106.529 105.496C106.504 105.702 106.455 105.907 106.414 106.104C106.406 106.138 106.397 106.172 106.381 106.207L111.078 107.037C111.267 107.071 111.448 106.934 111.481 106.737C111.514 106.549 111.391 106.361 111.193 106.326Z" fill="white"/>
<path d="M98.7384 102.183C98.7384 101.934 98.7301 101.686 98.6972 101.447C98.5409 100.128 97.9815 98.9128 97.1259 97.9712C96.3362 97.1066 95.3078 96.4732 94.115 96.1993C94.0985 96.1907 94.0738 96.1907 94.0574 96.1821C91.3261 95.5915 88.636 97.0895 87.5254 99.6233C87.4267 99.8458 87.3444 100.068 87.2704 100.3C87.2046 100.505 87.1552 100.719 87.1058 100.933C86.7932 102.525 87.0976 104.1 87.8627 105.384C88.1177 105.821 88.4386 106.223 88.7923 106.574C89.5656 107.353 90.5528 107.918 91.6716 108.158C93.572 108.569 95.4395 107.969 96.7804 106.72C97.6854 105.881 98.3517 104.734 98.615 103.407C98.615 103.398 98.615 103.398 98.615 103.39C98.6972 102.987 98.7384 102.585 98.7384 102.183ZM91.8197 107.447C91.7868 107.439 91.7621 107.439 91.7375 107.43C90.2649 107.088 89.072 106.112 88.3728 104.836C87.7722 103.732 87.5336 102.414 87.7969 101.078C87.8545 100.805 87.9285 100.539 88.019 100.282C88.0272 100.265 88.0355 100.248 88.0355 100.231C88.7676 98.2537 90.5528 96.9097 92.5601 96.7899C93.0044 96.7642 93.4568 96.7899 93.9175 96.8926C94.9047 97.1066 95.7603 97.5945 96.4431 98.2708C97.6936 99.512 98.3188 101.378 97.9486 103.261C97.3563 106.172 94.6168 108.055 91.8197 107.447Z" fill="white"/>
<path d="M109.184 99.6826C109.028 99.597 108.864 99.52 108.699 99.443C108.502 99.3574 108.296 99.2889 108.082 99.2204C107.934 99.1776 107.794 99.1348 107.638 99.1091C107.358 99.0492 107.087 99.015 106.815 98.9978C106.486 98.9722 106.157 98.9807 105.836 99.0235C104.94 99.1262 104.092 99.4344 103.344 99.9223C102.521 100.453 101.822 101.198 101.344 102.097C101.213 102.328 101.106 102.567 101.007 102.807C100.999 102.824 100.999 102.833 100.991 102.85C100.867 103.175 100.769 103.518 100.695 103.868C100.226 106.231 101.139 108.559 102.858 109.946C103.418 110.4 104.059 110.751 104.767 110.965C104.874 110.999 104.981 111.033 105.096 111.05C105.145 111.067 105.203 111.076 105.26 111.093C105.828 111.213 106.396 111.247 106.947 111.196C107.037 111.187 107.128 111.179 107.21 111.17C107.449 111.136 107.687 111.093 107.926 111.025C108.362 110.905 108.79 110.734 109.184 110.52C110.69 109.698 111.842 108.208 112.212 106.342C112.755 103.603 111.447 100.915 109.184 99.6826ZM111.529 106.188C111.504 106.308 111.48 106.419 111.447 106.531C111.406 106.693 111.356 106.847 111.299 107.01C110.887 108.149 110.131 109.073 109.176 109.681C108.831 109.903 108.452 110.083 108.057 110.22C107.811 110.306 107.564 110.366 107.301 110.417C107.227 110.434 107.152 110.443 107.078 110.451C106.535 110.52 105.968 110.503 105.4 110.383C105.351 110.374 105.293 110.357 105.244 110.348C105.211 110.34 105.178 110.331 105.153 110.323C104.323 110.1 103.582 109.672 102.982 109.099C102.891 109.013 102.809 108.927 102.727 108.842C101.583 107.609 101.024 105.82 101.377 104.014C101.46 103.612 101.583 103.218 101.739 102.858C102.258 101.677 103.163 100.761 104.257 100.222C104.931 99.8881 105.68 99.7083 106.453 99.7083C106.577 99.7083 106.7 99.7169 106.832 99.7254C107.054 99.7426 107.276 99.7768 107.498 99.8196C107.663 99.8538 107.819 99.8966 107.975 99.948C108.189 100.016 108.395 100.102 108.6 100.196C108.757 100.273 108.913 100.359 109.069 100.444C110.937 101.574 111.99 103.86 111.529 106.188Z" fill="white"/>
<path d="M80.0876 100.727C80.0465 100.719 80.0054 100.702 79.9725 100.676C79.8079 100.565 79.7668 100.342 79.8655 100.179C82.2019 96.3787 87.8207 99.7942 87.8701 99.8284C88.0346 99.9311 88.0922 100.154 87.9935 100.325C87.8948 100.496 87.6809 100.556 87.5163 100.453C87.467 100.419 82.424 97.3631 80.4496 100.573C80.3756 100.693 80.2275 100.753 80.0876 100.727Z" fill="white"/>
<path d="M101.262 103.013C101.171 102.996 101.089 102.936 101.04 102.859C100.291 101.66 98.6951 102.2 98.6786 102.2C98.4977 102.26 98.3002 102.157 98.2344 101.969C98.1686 101.78 98.2755 101.575 98.4565 101.515C99.1887 101.258 100.793 101.13 101.624 102.465C101.731 102.636 101.681 102.859 101.517 102.961C101.443 103.013 101.352 103.03 101.262 103.013Z" fill="white"/>
<g opacity="0.8">
<g opacity="0.8">
<g opacity="0.8">
<g opacity="0.8">
<g opacity="0.8">
<g opacity="0.8">
<g opacity="0.8">
<path opacity="0.8" d="M106.215 107.062C106.034 107.969 105.861 108.825 105.688 109.63C104.1 109.227 102.957 108.414 103.088 107.738C103.228 107.07 104.594 106.779 106.215 107.062Z" fill="#D96C63"/>
</g>
</g>
</g>
</g>
</g>
</g>
</g>
<path d="M94.0669 103.861C94.5924 103.972 95.1735 103.266 95.3649 102.284C95.5563 101.301 95.2855 100.415 94.76 100.304C94.2346 100.193 93.6534 100.9 93.462 101.882C93.2707 102.864 93.5415 103.751 94.0669 103.861Z" fill="#39393B"/>
<path d="M103.397 105.822C103.922 105.933 104.504 105.227 104.695 104.244C104.886 103.262 104.616 102.376 104.09 102.265C103.565 102.154 102.984 102.861 102.792 103.843C102.601 104.825 102.872 105.712 103.397 105.822Z" fill="#39393B"/>
<path d="M99.8786 106.874C100.331 106.968 100.652 106.951 100.677 106.951C100.784 106.943 100.89 106.891 100.965 106.806C101.039 106.72 101.063 106.6 101.055 106.489L100.454 101.909C100.422 101.687 100.224 101.524 100.01 101.558C99.7963 101.593 99.64 101.798 99.6729 102.021L100.208 106.104C99.8128 106.044 99.2205 105.873 98.6857 105.41C98.5212 105.265 98.2662 105.29 98.1263 105.462C97.9865 105.633 98.0111 105.898 98.1757 106.044C98.7598 106.54 99.3932 106.771 99.8786 106.874Z" fill="#39393B"/>
<path d="M82.5295 110.117C82.4637 110.22 80.6374 112.951 78.6876 113.447C78.6794 113.438 78.6794 113.438 78.6794 113.438C78.663 112.728 78.6712 112.017 78.6794 111.324C78.7452 111.324 80.6045 111.375 82.5295 110.117Z" fill="#39393B"/>
<path d="M82.127 102.936C82.127 102.936 79.3793 96.8756 75.8171 100.428C72.8802 103.364 75.4469 113.157 80.5475 111.06L82.127 102.936Z" fill="#EA9B7A"/>
<path d="M75.3727 108.166C73.7767 108.714 72.37 110.186 72.008 112.009C71.4815 114.731 73.1762 117.385 75.7841 117.941C78.4001 118.489 80.9504 116.726 81.4851 114.012C81.88 111.975 81.0327 109.972 79.4778 108.868C78.9595 108.491 78.359 108.226 77.7009 108.089C77.6844 108.089 77.668 108.08 77.6515 108.08C77.561 108.422 77.6021 108.696 77.7831 108.91C78.3096 109.056 78.7868 109.304 79.2064 109.629C80.4157 110.588 81.0656 112.206 80.7447 113.858C80.3005 116.152 78.1369 117.642 75.9321 117.179C73.7274 116.717 72.2959 114.466 72.7402 112.172C73.0693 110.503 74.2539 109.321 75.7429 108.945L75.3727 108.166Z" fill="#FAAF3A"/>
<path d="M80.3332 109.373C80.3496 109.373 80.3579 109.382 80.3743 109.382C80.5882 109.399 80.7857 109.236 80.8021 109.005C81.2052 104.426 77.8816 102.106 77.7418 102.012C77.5608 101.883 77.314 101.943 77.1906 102.131C77.0672 102.32 77.1248 102.577 77.3058 102.705C77.4292 102.791 80.3743 104.862 80.0124 108.937C80.0041 109.142 80.144 109.33 80.3332 109.373Z" fill="#39393B"/>
<path d="M77.1912 106.163C77.2734 106.18 77.3721 106.171 77.4544 106.129C77.8493 105.915 79.0092 105.435 79.6427 105.752C79.8401 105.855 80.0787 105.769 80.1692 105.564C80.2597 105.358 80.1857 105.11 79.9882 105.016C78.8858 104.459 77.2734 105.307 77.0924 105.41C76.895 105.512 76.821 105.761 76.9279 105.966C76.9773 106.06 77.0842 106.137 77.1912 106.163Z" fill="#39393B"/>
<path d="M85.6641 92.6553C85.6641 92.6553 81.9703 103.09 81.7729 105.196C81.5014 108.063 77.857 98.2365 81.5179 89.8477L85.6641 92.6553Z" fill="#39393B"/>
<path d="M147.381 313.881H132.17C132.17 313.881 128.649 296.316 127.473 286.472C126.288 276.619 125.68 253.276 125.68 253.276C125.68 253.276 113.562 257.376 88.1906 255.827C31.9778 252.412 53.2931 209.44 53.2931 209.44C55.1934 212.171 69.442 215.929 77.389 217.239C101.798 219.678 120.349 223.984 133.051 229.693C136.111 231.063 138.826 232.518 141.211 234.042C144.272 236.002 146.189 241.968 147.349 249.801C150.812 273.358 147.381 313.881 147.381 313.881Z" fill="#3655CE"/>
<path d="M134.054 305.424C133.799 305.424 133.577 305.236 133.52 304.97C131.323 293.671 130.591 279.607 129.999 268.308C129.505 258.935 129.044 250.084 127.884 249.022C126.947 248.158 123.055 248.834 118.136 249.681C108.338 251.376 93.5299 253.927 77.2082 249.981C68.3152 247.824 61.775 243.33 57.7769 236.619C50.8747 225.046 54.0255 210.691 54.0584 210.545C54.1242 210.237 54.4204 210.049 54.7165 210.126C55.0127 210.194 55.1937 210.502 55.1196 210.81C55.0867 210.947 52.0511 224.866 58.7147 236.028C62.5565 242.474 68.8664 246.797 77.4633 248.877C93.5793 252.78 108.256 250.246 117.971 248.569C123.788 247.567 127.3 246.959 128.625 248.175C130.056 249.493 130.459 255.964 131.101 268.248C131.693 279.513 132.426 293.534 134.606 304.748C134.663 305.056 134.474 305.356 134.178 305.416C134.129 305.416 134.096 305.424 134.054 305.424Z" fill="#FAAF3A"/>
<path d="M147.67 305.714H147.662L130.748 305.338C130.443 305.329 130.205 305.073 130.213 304.756C130.221 304.439 130.468 304.191 130.773 304.199L147.687 304.576C147.991 304.585 148.229 304.841 148.221 305.158C148.205 305.475 147.966 305.714 147.67 305.714Z" fill="#585859"/>
<path d="M146.961 334.159H136.226L134.161 321.054L133.025 313.881H146.361L146.575 321.054L146.961 334.159Z" fill="#EA9B7A"/>
<path d="M146.961 334.159H136.225L134.687 324.401L134.16 321.054H146.574L146.673 324.521L146.961 334.159Z" fill="#FAAF3A"/>
<path d="M146.673 324.52L134.687 324.401L134.16 321.054H146.574L146.673 324.52Z" fill="#C77E2E"/>
<path d="M173.451 351.801H132.844C132.54 351.228 132.375 350.423 132.309 349.456C132.054 345.878 133.149 340.177 133.683 336.582C133.749 336.162 133.807 335.768 133.848 335.417C133.922 334.818 133.971 334.313 133.971 333.945C133.971 331.009 136.464 331.514 136.464 331.514C140.569 335.708 145.225 329.417 147.94 331.48C147.94 331.48 148.047 331.565 148.302 331.762C148.532 331.951 148.878 332.242 149.355 332.661C150.046 333.26 151.017 334.133 152.333 335.366C155.558 338.379 161.037 340.374 165.701 342.402C166.294 342.659 166.845 342.916 167.363 343.181C167.75 343.378 168.12 343.575 168.466 343.763C172.283 345.903 173.492 347.958 173.772 349.447C174.043 350.877 173.451 351.801 173.451 351.801Z" fill="#0875F7"/>
<path d="M168.474 343.772C167.429 344.636 165.101 346.374 163.233 346.374C163.151 346.374 163.069 346.374 162.986 346.365C161.67 346.254 156.833 343.78 152.892 341.529C150.638 340.236 148.573 338.969 147.092 337.951C144.666 336.282 144.238 335.648 144.147 335.203C143.794 333.534 146.443 332.378 148.302 331.771C148.532 331.959 148.878 332.25 149.355 332.669C147.051 333.32 145.151 334.347 145.241 334.938C145.472 335.434 147.874 337.335 153.616 340.613C158.001 343.112 162.155 345.124 163.077 345.21C164.327 345.312 166.162 344.131 167.363 343.198C167.766 343.378 168.128 343.575 168.474 343.772Z" fill="#084FC7"/>
<path d="M173.45 351.801H132.843C132.539 351.228 132.374 350.423 132.309 349.456H173.779C174.042 350.877 173.45 351.801 173.45 351.801Z" fill="#084FC7"/>
<path d="M136.991 351.802H135.781C136.982 350.372 138.11 348.172 137.961 345.039C137.764 340.862 135.362 338.054 133.684 336.582C133.749 336.163 133.807 335.769 133.848 335.418C135.65 336.847 138.685 339.989 138.924 344.988C139.072 347.984 138.126 350.218 136.991 351.802Z" fill="#084FC7"/>
<path d="M151.658 337.865C151.362 337.865 151.083 337.651 151.009 337.335C150.918 336.958 151.14 336.581 151.494 336.487L154.028 335.836C154.39 335.742 154.752 335.973 154.842 336.342C154.933 336.718 154.71 337.095 154.357 337.189L151.823 337.848C151.765 337.857 151.708 337.865 151.658 337.865Z" fill="white"/>
<path d="M149.133 335.666C148.829 335.666 148.557 335.452 148.483 335.135C148.393 334.758 148.615 334.382 148.968 334.288L151.502 333.628C151.864 333.534 152.226 333.765 152.309 334.134C152.399 334.51 152.177 334.887 151.823 334.981L149.289 335.631C149.24 335.657 149.191 335.666 149.133 335.666Z" fill="white"/>
<path d="M154.192 339.397C153.887 339.397 153.616 339.183 153.542 338.867C153.451 338.49 153.673 338.113 154.027 338.019L156.561 337.369C156.923 337.275 157.285 337.506 157.367 337.874C157.458 338.25 157.235 338.627 156.882 338.721L154.348 339.372C154.299 339.389 154.241 339.397 154.192 339.397Z" fill="white"/>
<path d="M156.727 340.87C156.431 340.87 156.151 340.656 156.077 340.339C155.986 339.962 156.209 339.586 156.562 339.492L159.096 338.833C159.458 338.738 159.82 338.97 159.91 339.338C160.001 339.714 159.779 340.091 159.425 340.185L156.891 340.836C156.834 340.861 156.784 340.87 156.727 340.87Z" fill="white"/>
<path d="M159.49 342.231C159.186 342.231 158.915 342.017 158.841 341.701C158.75 341.324 158.972 340.947 159.326 340.862L161.86 340.203C162.222 340.109 162.584 340.34 162.674 340.708C162.765 341.084 162.543 341.461 162.189 341.555L159.655 342.214C159.597 342.231 159.548 342.231 159.49 342.231Z" fill="white"/>
<path d="M162.492 343.395C162.196 343.395 161.917 343.181 161.842 342.865C161.752 342.488 161.974 342.111 162.328 342.017L164.862 341.358C165.224 341.264 165.586 341.495 165.676 341.863C165.767 342.24 165.544 342.616 165.191 342.702L162.657 343.361C162.599 343.387 162.542 343.395 162.492 343.395Z" fill="white"/>
<path d="M203.396 208.806V212.316C203.396 214.336 202.228 215.971 200.78 215.971H18.5926C17.1447 215.971 15.9766 214.336 15.9766 212.316V208.806C15.9766 206.786 17.1447 205.151 18.5926 205.151H200.78C202.228 205.151 203.396 206.786 203.396 208.806Z" fill="#223EAC"/>
<path d="M203.405 209.919H15.9766V211.528H203.405V209.919Z" fill="#3655CE"/>
<path d="M197.926 224.985H26.6716C25.9065 224.985 25.2812 224.343 25.2812 223.539V215.929H199.316V223.539C199.316 224.335 198.691 224.985 197.926 224.985Z" fill="#39393B"/>
<path d="M190.234 269.702H37.0781V275.917H190.234V269.702Z" fill="#1B3151"/>
<path d="M26.038 352.906L55.6869 224.985H45.272L15.623 352.906H26.038Z" fill="#39393B"/>
<path d="M201.077 352.906L171.42 224.985H181.835L211.484 352.906H201.077Z" fill="#39393B"/>
<path d="M32.6183 175.746L29.4062 176.259L33.1132 201.484L36.3253 200.971L32.6183 175.746Z" fill="#FAAF3A"/>
<path d="M32.6127 175.739L29.4043 176.253L30.1118 173.702L30.4738 172.375L31.2059 173.522L32.6127 175.739Z" fill="#EA9B7A"/>
<path d="M36.0578 199.134L32.8457 199.646L33.1155 201.483L36.3276 200.97L36.0578 199.134Z" fill="#39393B"/>
<path d="M36.3319 202.455L33.543 202.9C33.4278 202.917 33.3127 202.832 33.2962 202.712L33.1152 201.471L36.3319 200.957L36.5128 202.198C36.5293 202.327 36.447 202.438 36.3319 202.455Z" fill="#DF615C"/>
<path d="M31.2055 173.522L30.1113 173.702L30.4733 172.375L31.2055 173.522Z" fill="#39393B"/>
<path d="M32.8464 199.634L36.0586 199.122L35.8655 197.811L32.6534 198.322L32.8464 199.634Z" fill="#C77E2E"/>
<path d="M30.3827 177.366L33.1304 196.043C33.1551 196.189 33.2785 196.283 33.4101 196.257C33.55 196.232 33.6405 196.103 33.6158 195.966L30.8681 177.289C30.8434 177.143 30.72 177.049 30.5884 177.075C30.4567 177.092 30.358 177.229 30.3827 177.366Z" fill="#C77E2E"/>
<path d="M31.6425 177.168L34.3902 195.846C34.4066 195.992 34.5383 196.086 34.6699 196.06C34.8098 196.035 34.9002 195.906 34.8756 195.769L32.1278 177.091C32.1032 176.946 31.9798 176.852 31.8481 176.877C31.7165 176.894 31.6178 177.023 31.6425 177.168Z" fill="#C77E2E"/>
<path d="M38.4312 175.854L35.1816 175.865L35.2584 201.383L38.508 201.372L38.4312 175.854Z" fill="#21B573"/>
<path d="M38.4292 175.859L35.1797 175.868L36.2409 173.454L36.7921 172.195L37.3515 173.445L38.4292 175.859Z" fill="#EA9B7A"/>
<path d="M38.5015 199.523L35.252 199.534L35.2575 201.392L38.5071 201.381L38.5015 199.523Z" fill="#39393B"/>
<path d="M38.2973 202.848L35.4756 202.857C35.3522 202.857 35.2617 202.754 35.2617 202.634V201.385L38.5112 201.376V202.626C38.5112 202.746 38.4207 202.848 38.2973 202.848Z" fill="#DF615C"/>
<path d="M37.3508 173.445L36.2402 173.454L36.7914 172.195L37.3508 173.445Z" fill="#39393B"/>
<path d="M35.2583 199.53L38.5078 199.52L38.5037 198.193L35.2542 198.204L35.2583 199.53Z" fill="#217C58"/>
<path d="M35.9863 177.126L36.0438 196.018C36.0438 196.164 36.1588 196.275 36.2902 196.275C36.4298 196.275 36.5366 196.155 36.5366 196.018L36.4791 177.126C36.4791 176.981 36.3641 176.87 36.2327 176.87C36.1013 176.861 35.9863 176.981 35.9863 177.126Z" fill="#217C58"/>
<path d="M37.2617 177.117L37.3192 196.009C37.3192 196.155 37.4342 196.266 37.5656 196.266C37.7052 196.266 37.812 196.146 37.812 196.009L37.7545 177.117C37.7545 176.972 37.6395 176.86 37.5081 176.86C37.3767 176.86 37.2617 176.972 37.2617 177.117Z" fill="#217C58"/>
<path d="M44.0315 176.208L40.8145 175.731L37.3615 200.994L40.5786 201.47L44.0315 176.208Z" fill="#0875F7"/>
<path d="M44.0389 176.219L40.8223 175.739L42.2043 173.505L42.9283 172.35L43.3067 173.668L44.0389 176.219Z" fill="#EA9B7A"/>
<path d="M40.8322 199.639L37.6152 199.162L37.3643 201.001L40.5812 201.478L40.8322 199.639Z" fill="#39393B"/>
<path d="M40.1809 202.909L37.3921 202.498C37.2769 202.481 37.1946 202.37 37.2111 202.241L37.3838 201L40.6005 201.479L40.4277 202.721C40.403 202.84 40.2961 202.926 40.1809 202.909Z" fill="#DF615C"/>
<path d="M43.3075 173.668L42.2051 173.505L42.929 172.35L43.3075 173.668Z" fill="#39393B"/>
<path d="M37.6326 199.177L40.8496 199.653L41.0291 198.34L37.8121 197.864L37.6326 199.177Z" fill="#084FC7"/>
<path d="M41.4467 177.101L38.8965 195.804C38.88 195.95 38.9705 196.078 39.1104 196.095C39.2502 196.112 39.3736 196.018 39.3901 195.873L41.9403 177.161C41.9568 177.015 41.8663 176.887 41.7264 176.87C41.5948 176.861 41.4714 176.964 41.4467 177.101Z" fill="#084FC7"/>
<path d="M42.7143 177.289L40.164 195.993C40.1476 196.138 40.2381 196.267 40.3779 196.284C40.5178 196.301 40.6412 196.207 40.6576 196.061L43.2079 177.358C43.2244 177.212 43.1339 177.084 42.994 177.066C42.8542 177.049 42.7308 177.144 42.7143 177.289Z" fill="#084FC7"/>
<path d="M45.1002 185.951L44.9274 187.321L44.7711 188.562L44.5408 190.445L44.3845 191.678L44.1541 193.578L43.9978 194.794L43.7593 196.711L43.6112 197.909L43.3726 199.844L43.2245 201.025L42.986 202.977L42.8379 204.141L42.7145 205.151H29.9302L29.8068 204.141L29.6588 202.977L29.4202 201.025L29.2721 199.844L29.0335 197.909L28.8855 196.711L28.6469 194.794L28.4988 193.578L28.2602 191.678L28.1039 190.445L27.8736 188.562L27.7173 187.321L27.5527 185.951H45.1002Z" fill="#DF615C"/>
<path d="M44.927 187.321L44.7707 188.563H27.8731L27.7168 187.321H44.927Z" fill="#B11722"/>
<path d="M44.5384 190.445L44.3821 191.678H28.2579L28.1016 190.445H44.5384Z" fill="#B11722"/>
<path d="M44.1534 193.578L43.9971 194.794H28.6461L28.498 193.578H44.1534Z" fill="#B11722"/>
<path d="M43.7586 196.712L43.6105 197.91H29.0328L28.8848 196.712H43.7586Z" fill="#B11722"/>
<path d="M43.372 199.845L43.2239 201.026H29.4196L29.2715 199.845H43.372Z" fill="#B11722"/>
<path d="M42.9854 202.978L42.8373 204.142H29.8063L29.6582 202.978H42.9854Z" fill="#B11722"/>
<path d="M202.335 137.314L191.434 185.284L191.146 186.543L190.414 189.77C190.093 191.174 188.901 192.158 187.518 192.158H114.087C112.162 192.158 110.747 190.292 111.191 188.349L123.112 135.885C123.433 134.489 124.626 133.505 126.008 133.505H199.439C201.364 133.505 202.779 135.371 202.335 137.314Z" fill="#39393B"/>
<path d="M191.435 185.275L191.155 186.542H114.902V185.275H191.435Z" fill="#585859"/>
<path d="M143.679 145.368C143.07 148.767 139.928 151.523 136.662 151.523C133.396 151.523 131.24 148.767 131.849 145.368C132.458 141.97 135.6 139.214 138.866 139.214C142.141 139.214 144.288 141.97 143.679 145.368Z" fill="#FAAF3A"/>
<path d="M136.999 144.196C136.876 144.872 136.547 145.428 136.267 145.428C135.987 145.428 135.848 144.88 135.971 144.196C136.094 143.519 136.423 142.963 136.703 142.963C136.991 142.963 137.123 143.511 136.999 144.196Z" fill="#39393B"/>
<path d="M140.085 144.196C139.961 144.872 139.632 145.428 139.353 145.428C139.065 145.428 138.941 144.88 139.056 144.196C139.18 143.519 139.509 142.963 139.789 142.963C140.077 142.963 140.208 143.511 140.085 144.196Z" fill="#39393B"/>
<path d="M137.278 148.373C134.736 148.373 134.629 145.728 134.621 145.703C134.621 145.557 134.728 145.42 134.876 145.386C135.024 145.352 135.139 145.446 135.148 145.591C135.148 145.686 135.246 147.843 137.377 147.843C139.5 147.843 140.372 145.686 140.413 145.591C140.47 145.446 140.627 145.36 140.758 145.386C140.89 145.42 140.956 145.557 140.898 145.703C140.882 145.72 139.82 148.373 137.278 148.373Z" fill="#39393B"/>
<path d="M166.655 164.877C166.301 168.181 163.447 170.852 160.279 170.852C157.112 170.852 154.817 168.173 155.171 164.877C155.516 161.573 158.379 158.902 161.546 158.902C164.714 158.902 167.009 161.582 166.655 164.877Z" fill="#585859"/>
<path d="M128.92 133.505L116.226 192.158H114.087C112.162 192.158 110.747 190.292 111.191 188.349L123.112 135.884C123.433 134.489 124.626 133.496 126.008 133.496H128.92V133.505Z" fill="#585859"/>
<path d="M150.186 192.158L147.957 205.195H155.32L157.549 192.158H150.186Z" fill="white"/>
<path d="M136.949 202.952L138.454 200.752C138.989 199.964 139.861 199.502 140.79 199.502H160.962C162.032 199.502 163.011 200.118 163.504 201.103L164.516 203.123C164.993 204.064 164.335 205.203 163.307 205.203H138.059C136.949 205.194 136.307 203.885 136.949 202.952Z" fill="white"/>
<path d="M94.9199 205.186H155.518L156.176 202.807C156.587 201.309 155.509 199.819 154.012 199.819H98.0954C97.0918 199.819 96.2115 200.513 95.9318 201.514L94.9199 205.186Z" fill="white"/>
</svg>
