<svg width="644" height="367" viewBox="0 0 644 367" fill="none" xmlns="http://www.w3.org/2000/svg">
<path d="M218.151 86.9671V76.6299C218.151 75.6214 217.351 74.8045 216.364 74.8045H213.758C212.998 74.8045 212.317 74.27 212.149 73.5136C211.251 69.4997 209.711 65.7279 207.638 62.3393C207.223 61.6636 207.302 60.7862 207.855 60.2214L209.691 58.3456C210.392 57.6296 210.392 56.4698 209.691 55.7538L202.535 48.4421C201.834 47.726 200.699 47.726 199.998 48.4421L198.172 50.3078C197.619 50.8726 196.76 50.9532 196.099 50.5297C192.772 48.4118 189.091 46.8385 185.162 45.9208C184.422 45.7493 183.898 45.0535 183.898 44.2769V41.6245C183.898 40.616 183.099 39.7891 182.102 39.7891H171.984C170.997 39.7891 170.188 40.606 170.188 41.6245V44.2769C170.188 45.0535 169.674 45.7493 168.924 45.9208C164.996 46.8385 161.304 48.4118 157.977 50.5297C157.316 50.9532 156.457 50.8726 155.905 50.3078L154.078 48.4421C153.378 47.726 152.242 47.726 151.542 48.4421L144.385 55.7538C143.684 56.4698 143.684 57.6296 144.385 58.3456L146.211 60.2114C146.764 60.7761 146.843 61.6535 146.429 62.3292C144.356 65.7279 142.826 69.4896 141.918 73.5035C141.75 74.2599 141.069 74.7944 140.309 74.7944H137.713C136.725 74.7944 135.916 75.6113 135.916 76.6198V86.957C135.916 87.9655 136.716 88.7925 137.713 88.7925H140.318C141.078 88.7925 141.76 89.3169 141.927 90.0834C142.826 94.0973 144.365 97.8691 146.438 101.258C146.853 101.933 146.774 102.811 146.221 103.376L144.385 105.251C143.684 105.967 143.684 107.127 144.385 107.843L151.542 115.155C152.242 115.871 153.378 115.871 154.078 115.155L155.914 113.279C156.467 112.714 157.326 112.634 157.987 113.057C161.304 115.175 164.996 116.738 168.924 117.656C169.665 117.827 170.188 118.523 170.188 119.3V121.962C170.188 122.971 170.987 123.798 171.984 123.798H182.102C183.089 123.798 183.898 122.981 183.898 121.962V119.3C183.898 118.523 184.412 117.827 185.162 117.656C189.091 116.738 192.772 115.165 196.099 113.057C196.76 112.634 197.619 112.714 198.172 113.279L200.008 115.155C200.709 115.871 201.844 115.871 202.545 115.155L209.701 107.843C210.402 107.127 210.402 105.967 209.701 105.251L207.865 103.376C207.312 102.811 207.233 101.933 207.648 101.258C209.721 97.8691 211.251 94.0973 212.159 90.0834C212.327 89.327 213.008 88.7925 213.768 88.7925H216.374C217.351 88.8026 218.151 87.9756 218.151 86.9671ZM177.048 110.949C161.294 110.949 148.541 97.8892 148.541 81.7934C148.541 65.7178 161.294 52.6677 177.048 52.6677C192.802 52.6677 205.555 65.7279 205.555 81.7934C205.555 97.8892 192.802 110.949 177.048 110.949Z" stroke="#DEE3FC" stroke-width="0.7896" stroke-miterlimit="10"/>
<path d="M264.682 121.963V114.924C264.682 114.238 264.139 113.673 263.458 113.673H261.681C261.158 113.673 260.704 113.31 260.585 112.796C259.973 110.063 258.927 107.491 257.515 105.182C257.229 104.718 257.288 104.123 257.663 103.739L258.907 102.469C259.381 101.985 259.381 101.188 258.907 100.704L254.031 95.7218C253.557 95.2377 252.777 95.2377 252.304 95.7218L251.06 96.9925C250.685 97.3757 250.102 97.4362 249.648 97.1438C247.388 95.7016 244.871 94.6326 242.196 94.0073C241.692 93.8863 241.337 93.4223 241.337 92.8878V91.0826C241.337 90.3968 240.794 89.832 240.113 89.832H233.213C232.542 89.832 231.989 90.3867 231.989 91.0826V92.8878C231.989 93.4223 231.634 93.8863 231.13 94.0073C228.455 94.6326 225.938 95.7016 223.678 97.1438C223.224 97.4362 222.641 97.3757 222.266 96.9925L221.023 95.7218C220.549 95.2377 219.769 95.2377 219.295 95.7218L214.419 100.704C213.945 101.188 213.945 101.985 214.419 102.469L215.663 103.739C216.038 104.123 216.097 104.718 215.811 105.182C214.399 107.491 213.353 110.063 212.741 112.796C212.622 113.31 212.168 113.673 211.645 113.673H209.869C209.197 113.673 208.645 114.228 208.645 114.924V121.963C208.645 122.649 209.187 123.214 209.869 123.214H211.645C212.168 123.214 212.622 123.577 212.741 124.091C213.353 126.824 214.399 129.396 215.811 131.706C216.097 132.169 216.038 132.765 215.663 133.148L214.419 134.418C213.945 134.903 213.945 135.699 214.419 136.183L219.295 141.165C219.769 141.65 220.549 141.65 221.023 141.165L222.276 139.885C222.651 139.501 223.234 139.441 223.688 139.733C225.948 141.176 228.465 142.245 231.14 142.87C231.644 142.991 231.999 143.455 231.999 143.989V145.805C231.999 146.49 232.542 147.055 233.223 147.055H240.123C240.794 147.055 241.347 146.5 241.347 145.805V143.989C241.347 143.455 241.702 142.991 242.206 142.87C244.881 142.245 247.398 141.176 249.658 139.733C250.112 139.441 250.695 139.501 251.07 139.885L252.323 141.165C252.797 141.65 253.577 141.65 254.051 141.165L258.927 136.183C259.401 135.699 259.401 134.903 258.927 134.418L257.673 133.138C257.298 132.754 257.239 132.159 257.525 131.695C258.937 129.386 259.983 126.814 260.595 124.081C260.713 123.567 261.168 123.204 261.691 123.204H263.467C264.139 123.204 264.682 122.649 264.682 121.963ZM236.678 137.182C226.55 137.182 218.348 128.781 218.348 118.434C218.348 108.096 226.55 99.7054 236.678 99.7054C246.805 99.7054 255.008 108.106 255.008 118.434C255.008 128.781 246.805 137.182 236.678 137.182Z" fill="#DEE3FC"/>
<path d="M134.848 308.487C136.696 308.487 138.194 306.956 138.194 305.068C138.194 303.179 136.696 301.648 134.848 301.648C133 301.648 131.502 303.179 131.502 305.068C131.502 306.956 133 308.487 134.848 308.487Z" fill="#A4AFFF"/>
<path d="M582.62 215.18C584.468 215.18 585.966 213.649 585.966 211.761C585.966 209.872 584.468 208.342 582.62 208.342C580.772 208.342 579.273 209.872 579.273 211.761C579.273 213.649 580.772 215.18 582.62 215.18Z" fill="#A4AFFF"/>
<path d="M575.94 93.2397C577.788 93.2397 579.286 91.7091 579.286 89.821C579.286 87.9329 577.788 86.4023 575.94 86.4023C574.092 86.4023 572.594 87.9329 572.594 89.821C572.594 91.7091 574.092 93.2397 575.94 93.2397Z" fill="#A4AFFF"/>
<path d="M455.768 50.5098C456.924 50.5098 457.861 49.5525 457.861 48.3716C457.861 47.1907 456.924 46.2334 455.768 46.2334C454.613 46.2334 453.676 47.1907 453.676 48.3716C453.676 49.5525 454.613 50.5098 455.768 50.5098Z" fill="#A4AFFF"/>
<path d="M145.835 21.9795C146.991 21.9795 147.927 21.0222 147.927 19.8413C147.927 18.6604 146.991 17.7031 145.835 17.7031C144.679 17.7031 143.742 18.6604 143.742 19.8413C143.742 21.0222 144.679 21.9795 145.835 21.9795Z" fill="#A4AFFF"/>
<path d="M192.237 153.892C193.393 153.892 194.33 152.934 194.33 151.753C194.33 150.573 193.393 149.615 192.237 149.615C191.081 149.615 190.145 150.573 190.145 151.753C190.145 152.934 191.081 153.892 192.237 153.892Z" fill="#A4AFFF"/>
<path d="M115.321 310.624C116.477 310.624 117.414 309.666 117.414 308.486C117.414 307.305 116.477 306.348 115.321 306.348C114.165 306.348 113.229 307.305 113.229 308.486C113.229 309.666 114.165 310.624 115.321 310.624Z" fill="#A4AFFF"/>
<path d="M533.592 310.504C535.44 310.504 536.939 308.973 536.939 307.085C536.939 305.197 535.44 303.666 533.592 303.666C531.744 303.666 530.246 305.197 530.246 307.085C530.246 308.973 531.744 310.504 533.592 310.504Z" fill="#A4AFFF"/>
<path d="M604.661 310.504C606.509 310.504 608.007 308.973 608.007 307.085C608.007 305.197 606.509 303.666 604.661 303.666C602.813 303.666 601.314 305.197 601.314 307.085C601.314 308.973 602.813 310.504 604.661 310.504Z" fill="#A4AFFF"/>
<path d="M205.553 13.9507C207.401 13.9507 208.899 12.4201 208.899 10.532C208.899 8.64389 207.401 7.11328 205.553 7.11328C203.705 7.11328 202.207 8.64389 202.207 10.532C202.207 12.4201 203.705 13.9507 205.553 13.9507Z" fill="#A4AFFF"/>
<path d="M431.694 170.471C434.164 170.471 436.166 168.426 436.166 165.903C436.166 163.379 434.164 161.334 431.694 161.334C429.225 161.334 427.223 163.379 427.223 165.903C427.223 168.426 429.225 170.471 431.694 170.471Z" fill="#A4AFFF"/>
<path d="M101.839 113.966C104.308 113.966 106.31 111.92 106.31 109.397C106.31 106.874 104.308 104.828 101.839 104.828C99.3692 104.828 97.3672 106.874 97.3672 109.397C97.3672 111.92 99.3692 113.966 101.839 113.966Z" fill="#A4AFFF"/>
<path d="M93.7369 41.1909H88.1105C87.7452 41.1909 87.459 40.8884 87.459 40.5253V34.7769C87.459 34.4038 87.7551 34.1113 88.1105 34.1113H93.7369C94.1021 34.1113 94.3884 34.4139 94.3884 34.7769V40.5253C94.3884 40.8884 94.0922 41.1909 93.7369 41.1909Z" fill="white"/>
<path d="M103.004 41.1909H97.378C97.0128 41.1909 96.7266 40.8884 96.7266 40.5253V34.7769C96.7266 34.4038 97.0227 34.1113 97.378 34.1113H103.004C103.37 34.1113 103.656 34.4139 103.656 34.7769V40.5253C103.666 40.8884 103.37 41.1909 103.004 41.1909Z" fill="white"/>
<path d="M112.282 41.1909H106.655C106.29 41.1909 106.004 40.8884 106.004 40.5253V34.7769C106.004 34.4038 106.3 34.1113 106.655 34.1113H112.282C112.647 34.1113 112.933 34.4139 112.933 34.7769V40.5253C112.943 40.8884 112.647 41.1909 112.282 41.1909Z" fill="white"/>
<path d="M566.129 290.02H560.503C560.138 290.02 559.852 289.717 559.852 289.344V283.595C559.852 283.222 560.148 282.93 560.503 282.93H566.129C566.495 282.93 566.781 283.232 566.781 283.595V289.344C566.791 289.727 566.495 290.02 566.129 290.02Z" fill="#DEE3FC"/>
<path d="M575.407 290.02H569.78C569.415 290.02 569.129 289.717 569.129 289.344V283.595C569.129 283.222 569.425 282.93 569.78 282.93H575.407C575.772 282.93 576.058 283.232 576.058 283.595V289.344C576.068 289.727 575.772 290.02 575.407 290.02Z" fill="#DEE3FC"/>
<path d="M584.688 290.02H579.062C578.696 290.02 578.41 289.717 578.41 289.344V283.595C578.41 283.222 578.706 282.93 579.062 282.93H584.688C585.053 282.93 585.339 283.232 585.339 283.595V289.344C585.339 289.727 585.053 290.02 584.688 290.02Z" fill="#DEE3FC"/>
<path d="M137.278 286.138H131.651C131.286 286.138 131 285.836 131 285.473V279.724C131 279.351 131.296 279.059 131.651 279.059H137.278C137.643 279.059 137.929 279.361 137.929 279.724V285.473C137.929 285.846 137.643 286.138 137.278 286.138Z" fill="#DEE3FC"/>
<path d="M146.555 286.138H140.929C140.564 286.138 140.277 285.836 140.277 285.473V279.724C140.277 279.351 140.573 279.059 140.929 279.059H146.555C146.92 279.059 147.207 279.361 147.207 279.724V285.473C147.207 285.846 146.911 286.138 146.555 286.138Z" fill="#DEE3FC"/>
<path d="M155.823 286.138H150.196C149.831 286.138 149.545 285.836 149.545 285.473V279.724C149.545 279.351 149.841 279.059 150.196 279.059H155.823C156.188 279.059 156.474 279.361 156.474 279.724V285.473C156.484 285.846 156.188 286.138 155.823 286.138Z" fill="#DEE3FC"/>
<path d="M388.688 347.042H255.135C243.497 347.042 234.061 337.401 234.061 325.511V21.7876C234.061 9.89722 243.497 0.255859 255.135 0.255859H388.688C400.326 0.255859 409.763 9.89722 409.763 21.7876V325.511C409.763 337.401 400.326 347.042 388.688 347.042Z" fill="#3945BA"/>
<path d="M388.017 342.11H255.806C245.61 342.11 237.348 333.669 237.348 323.251V22.1502C237.348 11.7322 245.61 3.29102 255.806 3.29102H388.007C398.204 3.29102 406.466 11.7322 406.466 22.1502V323.251C406.476 333.669 398.204 342.11 388.017 342.11Z" fill="white"/>
<path d="M399.072 21.5558V322.313C399.072 329.362 393.475 335.081 386.575 335.081H257.256C250.357 335.081 244.76 329.362 244.76 322.313V21.5558C244.76 14.5063 250.357 8.78809 257.256 8.78809H278.824C280.019 8.78809 281.114 9.47388 281.647 10.5731L283.937 15.2425C284.984 17.4007 287.136 18.7521 289.475 18.7521H354.346C356.686 18.7521 358.838 17.4007 359.884 15.2425L362.174 10.5731C362.707 9.48396 363.803 8.78809 364.997 8.78809H386.565C393.475 8.78809 399.072 14.5063 399.072 21.5558Z" fill="#DEE3FC"/>
<path d="M349.137 13.2856H296.891C295.677 13.2856 294.689 12.2772 294.689 11.0369C294.689 9.79651 295.677 8.78809 296.891 8.78809H349.137C350.351 8.78809 351.339 9.79651 351.339 11.0369C351.339 12.2772 350.351 13.2856 349.137 13.2856Z" fill="#DEE3FC"/>
<path d="M378.541 324.644H262.272C257.702 324.644 254 320.862 254 316.192V274.248C254 269.579 257.702 265.797 262.272 265.797H378.541C383.111 265.797 386.813 269.579 386.813 274.248V316.192C386.813 320.862 383.111 324.644 378.541 324.644Z" stroke="#698BD1" stroke-miterlimit="10" stroke-linecap="round" stroke-linejoin="round" stroke-dasharray="2.84 2.84"/>
<path d="M372.651 180.244H314.976C311.679 180.244 309.014 177.511 309.014 174.152V145.027C309.014 141.658 311.689 138.936 314.976 138.936H372.651C375.948 138.936 378.613 141.669 378.613 145.027V174.152C378.613 177.511 375.948 180.244 372.651 180.244Z" stroke="#698BD1" stroke-miterlimit="10" stroke-linecap="round" stroke-linejoin="round" stroke-dasharray="2.84 2.84"/>
<path d="M385.065 256.016H265.943C262.014 256.016 258.836 252.769 258.836 248.755V197.421C258.836 193.408 262.014 190.16 265.943 190.16H385.065C388.994 190.16 392.172 193.408 392.172 197.421V248.755C392.172 252.759 388.994 256.016 385.065 256.016Z" fill="#4B5A9B"/>
<path d="M386.813 192.075V243.439C386.813 247.443 383.635 250.68 379.716 250.68H261.097C257.178 250.68 254 247.443 254 243.439V192.075C254 188.072 257.178 184.824 261.097 184.824H379.716C383.635 184.824 386.813 188.072 386.813 192.075Z" fill="#7F95F4"/>
<path d="M299.881 245.324H264.938C262.292 245.324 260.141 243.126 260.141 240.423V204.722C260.141 202.019 262.292 199.82 264.938 199.82H299.881C302.526 199.82 304.678 202.019 304.678 204.722V240.423C304.678 243.136 302.526 245.324 299.881 245.324Z" fill="white"/>
<path d="M341.298 205.581H310.52C309.681 205.581 309 204.885 309 204.028C309 203.171 309.681 202.475 310.52 202.475H341.298C342.137 202.475 342.818 203.171 342.818 204.028C342.808 204.885 342.137 205.581 341.298 205.581Z" fill="#B2C1F9"/>
<path d="M327.271 211.762H310.52C309.681 211.762 309 211.066 309 210.209C309 209.352 309.681 208.656 310.52 208.656H327.271C328.11 208.656 328.791 209.352 328.791 210.209C328.781 211.066 328.11 211.762 327.271 211.762Z" fill="#B2C1F9"/>
<path d="M378.769 211.762H333.442C332.603 211.762 331.922 211.066 331.922 210.209C331.922 209.352 332.603 208.656 333.442 208.656H378.769C379.608 208.656 380.289 209.352 380.289 210.209C380.279 211.066 379.608 211.762 378.769 211.762Z" fill="#B2C1F9"/>
<path d="M336.441 217.946H310.52C309.681 217.946 309 217.25 309 216.393C309 215.536 309.681 214.84 310.52 214.84H336.441C337.28 214.84 337.961 215.536 337.961 216.393C337.951 217.25 337.27 217.946 336.441 217.946Z" fill="#B2C1F9"/>
<path d="M358.436 217.946H342.149C341.31 217.946 340.629 217.25 340.629 216.393C340.629 215.536 341.31 214.84 342.149 214.84H358.436C359.275 214.84 359.956 215.536 359.956 216.393C359.956 217.25 359.275 217.946 358.436 217.946Z" fill="#B2C1F9"/>
<path d="M378.77 217.946H363.766C362.927 217.946 362.246 217.25 362.246 216.393C362.246 215.536 362.927 214.84 363.766 214.84H378.77C379.609 214.84 380.29 215.536 380.29 216.393C380.28 217.25 379.609 217.946 378.77 217.946Z" fill="#B2C1F9"/>
<path d="M378.767 224.127H310.52C309.681 224.127 309 223.432 309 222.574C309 221.717 309.681 221.021 310.52 221.021H378.767C379.606 221.021 380.288 221.717 380.288 222.574C380.278 223.432 379.606 224.127 378.767 224.127Z" fill="#B2C1F9"/>
<path d="M348.079 230.299H310.52C309.681 230.299 309 229.603 309 228.756C309 227.899 309.681 227.203 310.52 227.203H348.079C348.918 227.203 349.599 227.899 349.599 228.756C349.599 229.613 348.918 230.299 348.079 230.299Z" fill="#B2C1F9"/>
<path d="M378.767 230.299H354.139C353.3 230.299 352.619 229.603 352.619 228.756C352.619 227.899 353.3 227.203 354.139 227.203H378.767C379.606 227.203 380.287 227.899 380.287 228.756C380.277 229.613 379.606 230.299 378.767 230.299Z" fill="#B2C1F9"/>
<path d="M332.591 236.481H310.52C309.681 236.481 309 235.785 309 234.928C309 234.071 309.681 233.375 310.52 233.375H332.591C333.43 233.375 334.112 234.071 334.112 234.928C334.102 235.795 333.421 236.481 332.591 236.481Z" fill="#B2C1F9"/>
<path d="M360.627 236.481H338.555C337.716 236.481 337.035 235.785 337.035 234.928C337.035 234.071 337.716 233.375 338.555 233.375H360.627C361.466 233.375 362.147 234.071 362.147 234.928C362.147 235.795 361.466 236.481 360.627 236.481Z" fill="#B2C1F9"/>
<path d="M378.768 236.481H365.965C365.126 236.481 364.445 235.785 364.445 234.928C364.445 234.071 365.126 233.375 365.965 233.375H378.768C379.607 233.375 380.288 234.071 380.288 234.928C380.278 235.795 379.607 236.481 378.768 236.481Z" fill="#B2C1F9"/>
<path d="M341.298 242.665H310.52C309.681 242.665 309 241.969 309 241.112C309 240.254 309.681 239.559 310.52 239.559H341.298C342.137 239.559 342.818 240.254 342.818 241.112C342.808 241.979 342.137 242.665 341.298 242.665Z" fill="#B2C1F9"/>
<path d="M378.768 205.581H347.991C347.152 205.581 346.471 204.885 346.471 204.028C346.471 203.171 347.152 202.475 347.991 202.475H378.768C379.607 202.475 380.288 203.171 380.288 204.028C380.279 204.885 379.607 205.581 378.768 205.581Z" fill="#B2C1F9"/>
<path d="M386.813 192.075V194.233H254V192.075C254 188.072 257.178 184.824 261.097 184.824H379.716C383.635 184.824 386.813 188.072 386.813 192.075Z" fill="#3052CE"/>
<path d="M360.131 191.38C361.041 191.38 361.779 190.626 361.779 189.696C361.779 188.766 361.041 188.012 360.131 188.012C359.22 188.012 358.482 188.766 358.482 189.696C358.482 190.626 359.22 191.38 360.131 191.38Z" fill="#DEE3FC"/>
<path d="M368.553 191.38C369.463 191.38 370.201 190.626 370.201 189.696C370.201 188.766 369.463 188.012 368.553 188.012C367.642 188.012 366.904 188.766 366.904 189.696C366.904 190.626 367.642 191.38 368.553 191.38Z" fill="#DEE3FC"/>
<path d="M376.973 191.38C377.883 191.38 378.621 190.626 378.621 189.696C378.621 188.766 377.883 188.012 376.973 188.012C376.062 188.012 375.324 188.766 375.324 189.696C375.324 190.626 376.062 191.38 376.973 191.38Z" fill="#DEE3FC"/>
<path d="M295.123 180.246H268.837C264.938 180.246 261.779 177.018 261.779 173.035V146.178C261.779 142.194 264.938 138.967 268.837 138.967H295.123C299.022 138.967 302.181 142.194 302.181 146.178V173.035C302.181 177.008 299.022 180.246 295.123 180.246Z" stroke="#495AD6" stroke-width="0.8956" stroke-miterlimit="10"/>
<path d="M275.677 153.631L269.854 159.581L275.717 165.571" stroke="#495AD6" stroke-width="1.6716" stroke-miterlimit="10" stroke-linecap="round" stroke-linejoin="round"/>
<path d="M288.284 153.631L294.098 159.581L288.234 165.571" stroke="#495AD6" stroke-width="1.6716" stroke-miterlimit="10" stroke-linecap="round" stroke-linejoin="round"/>
<path d="M284.701 153.631L279.252 165.571" stroke="#495AD6" stroke-width="1.6716" stroke-miterlimit="10" stroke-linecap="round" stroke-linejoin="round"/>
<path d="M386.815 38.2066V122.185C386.815 126.743 383.202 130.434 378.74 130.434H262.076C257.625 130.434 254.002 126.743 254.002 122.185V38.2066C254.002 33.6481 257.625 29.957 262.076 29.957H378.74C383.202 29.957 386.815 33.6481 386.815 38.2066Z" fill="#B2C1F9"/>
<path d="M359.918 76.1558C370.549 76.1558 379.166 67.3511 379.166 56.49C379.166 45.6289 370.549 36.8242 359.918 36.8242C349.288 36.8242 340.67 45.6289 340.67 56.49C340.67 67.3511 349.288 76.1558 359.918 76.1558Z" fill="#F0F4FF"/>
<path d="M332.071 130.435H262.076C257.625 130.435 254.002 126.743 254.002 122.185V108.963L284.631 54.7563C286.23 51.9224 290.238 51.9224 291.837 54.7563L314.965 95.6814L332.14 126.078C332.969 127.53 332.841 129.184 332.071 130.435Z" fill="white"/>
<path d="M362.257 130.434H295.322L314.965 95.6806L325.547 76.9527C326.988 74.4012 330.591 74.4012 332.032 76.9527L362.257 130.434Z" fill="#F0F4FF"/>
<path d="M495.019 286.48H443.414V365.709H495.019V286.48Z" fill="#193091"/>
<path d="M514.783 286.48H495.021V365.709H514.783V286.48Z" fill="#495AD6"/>
<path d="M512.354 289.527H497.844V292.059H512.354V289.527Z" fill="#B2C1F9"/>
<path d="M512.354 294.953H497.844V297.485H512.354V294.953Z" fill="#B2C1F9"/>
<path d="M512.354 300.389H497.844V302.92H512.354V300.389Z" fill="#B2C1F9"/>
<path d="M512.354 305.824H497.844V308.356H512.354V305.824Z" fill="#B2C1F9"/>
<path d="M512.354 311.25H497.844V313.781H512.354V311.25Z" fill="#B2C1F9"/>
<path d="M512.354 316.686H497.844V319.217H512.354V316.686Z" fill="#B2C1F9"/>
<path d="M512.354 322.113H497.844V324.645H512.354V322.113Z" fill="#B2C1F9"/>
<path d="M512.354 327.547H497.844V330.079H512.354V327.547Z" fill="#B2C1F9"/>
<path d="M512.354 332.984H497.844V335.516H512.354V332.984Z" fill="#B2C1F9"/>
<path d="M512.354 338.41H497.844V340.942H512.354V338.41Z" fill="#B2C1F9"/>
<path d="M512.354 343.846H497.844V346.377H512.354V343.846Z" fill="#B2C1F9"/>
<path d="M512.354 349.281H497.844V351.812H512.354V349.281Z" fill="#B2C1F9"/>
<path d="M512.354 354.707H497.844V357.238H512.354V354.707Z" fill="#B2C1F9"/>
<path d="M512.354 360.143H497.844V362.674H512.354V360.143Z" fill="#B2C1F9"/>
<path d="M435.034 365.709H461.261C461.261 365.709 462.722 360.939 459.554 355.029C459.554 355.029 457.441 356.754 451.124 355.584C451.124 355.584 448.488 357.873 446.662 358.771C444.826 359.679 434.324 361.786 435.034 365.709Z" fill="#281616"/>
<path d="M436.86 290.162C438.558 300.49 446.366 335.424 449.732 356.058C455.871 356.593 458.823 355.877 460.382 355.503C460.076 348.303 459.474 331.088 459.543 323.544C459.662 310.786 460.244 293.964 454.746 284.727L436.258 286.209C436.366 287.207 436.475 288.014 436.564 288.599C436.663 289.164 436.761 289.678 436.86 290.162Z" fill="#7F95F4"/>
<path d="M387.594 365.709H413.821C413.821 365.709 415.282 360.939 412.113 355.029C412.113 355.029 410.001 356.754 403.684 355.584C403.684 355.584 401.048 357.873 399.222 358.771C397.386 359.679 386.893 361.786 387.594 365.709Z" fill="#281616"/>
<path d="M402.924 355.455C407.938 356.725 411.561 356.594 413.288 356.403C414.68 348.103 416.881 329.849 418.865 321.297C421.945 307.994 424.956 289.71 422.863 283.185L404.681 278.516C404.612 279.111 403.131 335.083 402.924 355.455Z" fill="#7F95F4"/>
<path d="M475.288 259.483C474.923 255.812 474.499 253.129 474.499 253.129L454.184 258.202L436.93 262.216C430.534 263.668 422.805 265.423 415.994 266.996C408.344 268.771 403.27 274.701 404.948 282.527L406.863 292.018C417.553 291.866 467.836 286.945 472.13 284.726C476.986 282.225 478.447 273.36 475.288 259.483Z" fill="#7F95F4"/>
<path d="M505.612 259.483C505.247 255.812 503.5 251.869 503.5 251.869L484.518 258.203L467.264 262.216C460.868 263.669 453.139 265.424 446.328 266.997C438.678 268.772 433.604 274.702 435.282 282.528L437.197 292.018C447.887 291.867 492.583 290.273 502.464 284.727C507.221 282.054 508.781 273.361 505.612 259.483Z" fill="#7F95F4"/>
<path d="M448.754 229.733C448.754 229.733 457.776 225.568 460.263 229.743C461.626 232.032 460.678 236.278 457.608 238.063C454.528 239.848 437.136 247.362 420.731 251.547C420.731 251.547 420.03 249.217 418.895 246.767C418.895 246.767 426.258 243.65 433.582 238.396C440.887 233.142 448.754 229.733 448.754 229.733Z" fill="#E5918F"/>
<path d="M451.004 200.949L443.275 232.505C443.275 232.505 444.075 240.483 451.962 236.57C459.849 232.657 465.07 207.515 465.07 207.515L451.004 200.949Z" fill="#E5918F"/>
<path d="M464.094 218.599C463.136 218.367 462.228 218.105 461.34 217.833C460.441 217.56 459.583 217.278 458.763 216.986C451.419 214.414 447.441 211.318 447.441 211.318C449.751 201.061 452.535 194.163 455.012 189.625C455.081 189.514 455.141 189.413 455.2 189.292C455.269 189.181 455.328 189.07 455.397 188.959C456.73 186.7 458.645 184.804 460.777 183.241C460.994 183.08 461.201 182.939 461.428 182.777L462.346 199.256L462.504 200.95L464.094 218.599Z" fill="#2F558C"/>
<path d="M464.092 218.598C463.134 218.366 462.226 218.104 461.338 217.831C460.44 217.559 459.581 217.277 458.762 216.984C460.302 205.891 461.703 198.912 461.703 198.912L462.493 200.949L464.092 218.598Z" fill="#C7E5F2"/>
<path d="M509.736 190.109C509.549 194.99 508.71 202.816 507.989 210.692C507.762 213.183 507.535 215.695 507.348 218.105C507.219 219.608 504.998 227.645 504.91 229.088C504.515 235.966 501.218 241.109 504.337 251.587C505.087 254.098 505.275 255.389 505.275 256.418C505.275 257.134 504.367 257.89 504.001 258.092C502.689 258.869 500.122 259.403 496.993 259.796H496.983C490.834 260.563 482.542 260.704 477.538 260.704C470.815 260.704 460.727 259.615 459.454 257.88C458.289 256.297 459.365 253.987 459.918 250.811C462.396 236.46 461.517 228.977 461.359 218.609C461.359 218.347 461.349 218.095 461.349 217.822C461.093 201.838 460.066 188.162 460.787 183.231C461.004 183.069 461.211 182.928 461.438 182.767C462.504 182.021 463.551 181.365 464.567 180.78C464.656 180.74 464.765 180.669 464.873 180.599C465.179 180.417 465.495 180.246 465.801 180.084C465.91 180.014 466.028 179.963 466.156 179.903C468.437 178.763 471.753 177.553 473.658 176.877C473.905 176.797 474.122 176.716 474.31 176.665C476.106 176.554 478.051 176.534 480.153 176.585C481.979 176.645 484.773 176.887 487.813 177.291C487.823 177.291 487.823 177.291 487.823 177.291C491.258 177.745 495.009 178.4 497.99 179.237C497.99 179.237 498.02 179.247 498.049 179.257C498.612 179.439 502.254 180.831 506.045 184.976C507.279 186.357 508.572 188.051 509.736 190.109Z" fill="#1B3151"/>
<path d="M504.336 251.577C505.086 254.089 505.274 255.379 505.274 256.408C505.274 257.124 504.366 257.881 504 258.082C502.688 258.859 500.121 259.393 496.992 259.787C498.275 259.625 500.496 257.548 500.496 255.662C500.496 254.341 498.828 245.446 499.282 239.697C499.746 233.969 500.654 224.842 498.917 217.53C497.17 210.228 495.531 200.617 495.531 200.617L505.333 206.668C505.333 206.668 506.596 208.474 507.988 210.672C507.761 213.163 507.534 215.674 507.347 218.085C507.218 219.607 501.217 241.109 504.336 251.577Z" fill="#C7E5F2"/>
<path d="M461.225 147.861C461.225 147.861 462.074 158.33 465.469 159.036C468.865 159.742 468.036 155.294 468.036 155.294L467.562 150.322L461.225 147.861Z" fill="#002C54"/>
<path d="M476.897 185.823C470.244 185.016 472.732 178.411 473.64 176.888C473.887 176.807 475.022 176.454 475.111 176.394C475.121 176.384 475.13 176.384 475.13 176.384C475.348 176.202 475.515 175.93 475.644 175.597C476.295 173.852 475.999 170.383 475.97 170.161C475.97 170.151 475.97 170.151 475.97 170.151V169.526C476.078 169.112 476.187 168.719 476.276 168.346L479.77 165.532L487.173 159.582C487.173 159.582 485.199 169.526 486.788 175.799C486.907 176.273 487.153 176.938 487.765 177.301C487.765 177.311 487.775 177.301 487.775 177.301C487.973 177.432 488.219 177.523 488.515 177.574C490.351 178.451 487.815 187.144 476.897 185.823Z" fill="#E5918F"/>
<path d="M482.761 165.904C482.761 165.904 482.702 172.54 475.645 175.596C476.296 173.862 476 170.392 475.98 170.16L478.932 167.79L482.761 165.904Z" fill="#CC6362"/>
<path d="M462.85 149.355C462.85 149.355 464.389 171.089 470.134 172.934C470.134 172.934 477.449 173.64 482.71 166.419C484.22 164.342 486.135 163.868 486.757 161.356C487.774 157.272 489.205 149.748 487.379 145.22C484.773 138.755 463.096 133.632 462.85 149.355Z" fill="#E5918F"/>
<path d="M487.459 141.629C487.36 137.686 483.451 136.203 483.451 136.203C479.562 134.338 471.468 135.144 463.127 137.051C461.172 137.494 458.715 136.274 457.352 137.242C455.704 138.412 457.343 143.757 457.343 143.757C460.56 153.711 472.396 150.474 475.959 149.243C476.808 151.805 476.699 155.365 478.802 157.211C480.006 158.259 482.089 158.29 484.221 157.927C484.478 158.431 485.465 158.885 485.662 159.581C486.333 161.91 486.235 165.551 486.215 168.354L487.222 167.85C487.35 167.084 497.734 141.952 487.459 141.629Z" fill="#002C54"/>
<path d="M466.786 160.36C468.162 160.121 469.033 158.463 468.732 156.656C468.431 154.85 467.072 153.579 465.696 153.819C464.32 154.058 463.449 155.716 463.75 157.523C464.051 159.329 465.41 160.6 466.786 160.36Z" stroke="white" stroke-width="0.501" stroke-miterlimit="10"/>
<path d="M473.715 159.028C475.091 158.789 475.962 157.131 475.661 155.325C475.361 153.518 474.002 152.248 472.626 152.487C471.25 152.726 470.379 154.384 470.679 156.191C470.98 157.997 472.339 159.267 473.715 159.028Z" stroke="white" stroke-width="0.501" stroke-miterlimit="10"/>
<path d="M468.734 156.677C468.734 156.677 469.04 156.173 470.64 156.314" stroke="white" stroke-width="0.501" stroke-miterlimit="10"/>
<path d="M475.734 155.779L481.667 154.811" stroke="white" stroke-width="0.501" stroke-miterlimit="10"/>
<path d="M482.111 162.507C486.198 164.111 487.471 153.833 483.592 153.379C480.65 153.036 480.532 157.232 480.532 157.232C480.532 157.232 479.772 161.599 482.111 162.507Z" fill="#E5918F"/>
<g opacity="0.5">
<g opacity="0.5">
<path opacity="0.5" d="M483.453 154.922C483.453 154.922 483.187 155.204 482.95 155.658C482.703 156.112 482.496 156.737 482.456 157.413C482.417 157.746 482.427 158.089 482.446 158.412C482.456 158.734 482.496 159.047 482.515 159.309C482.545 159.582 482.565 159.814 482.584 159.975C482.604 160.136 482.604 160.237 482.604 160.237C482.604 160.237 482.545 160.167 482.456 160.026C482.377 159.884 482.229 159.693 482.12 159.43C482.002 159.168 481.884 158.855 481.824 158.502C481.745 158.149 481.726 157.756 481.755 157.353C481.795 156.959 481.893 156.566 482.051 156.223C482.209 155.88 482.436 155.608 482.644 155.406C483.068 155.003 483.453 154.922 483.453 154.922Z" fill="#CC6362"/>
</g>
<g opacity="0.5">
<path opacity="0.5" d="M484.093 156.879C484.093 156.879 483.925 156.899 483.698 156.99C483.471 157.07 483.185 157.242 482.978 157.453C482.76 157.675 482.622 157.937 482.553 158.149C482.474 158.361 482.454 158.502 482.454 158.502L481.783 158.26C481.783 158.26 481.862 158.089 482.03 157.857C482.188 157.625 482.454 157.342 482.77 157.161C483.086 156.98 483.432 156.889 483.678 156.879C483.925 156.848 484.093 156.879 484.093 156.879Z" fill="#CC6362"/>
</g>
</g>
<path d="M521.383 233.887C521.383 233.887 521.383 233.887 521.383 233.897C519.586 236.025 512.775 237.579 509.498 234.634C508.472 233.696 507.307 231.225 506.162 228.159C503.26 220.323 500.506 208.594 500.506 208.594L515.756 200.637C515.756 200.637 517.721 209.623 519.409 218.165C519.409 218.165 519.418 218.245 519.458 218.407C520.011 221.14 520.524 223.833 520.919 226.142C520.939 226.213 520.939 226.263 520.948 226.324C521.343 229.077 521.6 231.951 521.383 233.887Z" fill="#E5918F"/>
<path d="M494.744 197.683C496.215 203.935 500.844 215.795 500.844 215.795C504.082 216.34 508.435 215.735 512.038 214.414C516.194 212.891 519.165 209.684 519.165 209.684C519.165 209.684 516.095 200.87 513.341 194.536C510.873 188.848 509.383 186.73 508.317 185.601C506.708 183.876 504.102 181.9 502.266 181.002L494.744 197.683Z" fill="#2F558C"/>
<path d="M514.02 201.768L505.077 197.825L498.029 179.268C498.029 179.268 499.322 179.671 501.02 180.367C501.02 180.367 501.02 180.367 501.03 180.367C501.06 180.387 501.139 180.407 501.257 180.458C501.297 180.478 501.346 180.488 501.385 180.518C502.906 181.244 508.799 184.794 512.885 197.694C512.915 197.805 512.954 197.915 512.984 198.016C513.418 199.499 513.734 200.699 513.912 201.314C513.931 201.375 513.941 201.435 513.961 201.496C513.981 201.597 514.001 201.687 514.02 201.768Z" fill="#2F558C"/>
<path d="M521.387 233.887C521.387 233.887 521.387 233.887 521.387 233.897C521.258 235.037 520.952 235.854 520.4 236.146C520.311 236.207 519.057 236.963 518.968 237.024C517.103 238.194 513.727 240.17 509.522 242.016C499.325 246.514 484.509 251.738 476.523 254.128C476.523 254.128 475.734 251.818 474.51 249.418C474.51 249.418 481.735 245.989 488.832 240.432C495.949 234.886 506.176 228.149 506.176 228.149L508.762 225.043C508.762 225.043 517.942 216.41 519.422 218.144C519.422 218.144 519.432 218.225 519.472 218.386C519.689 219.284 520.419 222.602 520.933 226.122C520.952 226.192 520.952 226.243 520.962 226.303C521.347 229.077 521.604 231.951 521.387 233.887Z" fill="#E5918F"/>
<path d="M475.547 248.903C475.547 248.903 473.75 250.013 471.924 249.619C470.907 249.398 470.503 248.984 469.752 248.843C469.002 248.712 467.008 248.46 466.021 247.965C465.034 247.471 464.649 247.421 464.689 248.429C464.728 249.438 466.673 250.315 467.196 250.598C467.719 250.88 468.39 251.778 468.459 251.889C468.528 252 465.212 253.775 464.323 253.412C464.323 253.412 464.057 254.228 464.205 254.682C464.353 255.136 465.034 255.298 465.093 255.529C465.153 255.761 464.935 256.225 465.083 256.588C465.231 256.952 465.843 256.952 466.09 257.547C466.337 258.131 466.061 258.142 466.248 258.767C466.426 259.382 467.196 259.493 467.344 259.806C467.492 260.118 467.413 260.491 467.739 260.713C468.064 260.935 471.045 259.957 472.131 259.473C473.217 258.989 476.129 254.723 479.347 253.26L475.547 248.903Z" fill="#E5918F"/>
<path d="M490.787 268.007H467.59V265.688H490.787C491.408 265.688 491.922 266.202 491.922 266.847C491.922 267.482 491.418 268.007 490.787 268.007Z" fill="#375F84"/>
<path d="M478.24 268.005H420.169C419.468 268.005 418.866 267.531 418.679 266.846L406.794 223.127C406.528 222.159 407.248 221.201 408.225 221.201H464.381C465.694 221.201 466.839 222.089 467.184 223.38L479.029 266.936C479.177 267.471 478.783 268.005 478.24 268.005Z" fill="#375F84"/>
<path d="M476.134 268.005H418.064C417.373 268.005 416.761 267.531 416.573 266.846L404.689 223.127C404.422 222.159 405.143 221.201 406.12 221.201H462.276C463.588 221.201 464.733 222.089 465.079 223.38L476.924 266.936C477.072 267.471 476.677 268.005 476.134 268.005Z" fill="#211749"/>
<path d="M245.967 239.757L252.699 232.708C252.699 232.708 252.936 229.561 253.301 228.906C253.666 228.24 254.614 225.79 255.087 225.517C255.561 225.255 256.499 225.517 256.499 225.517C256.499 225.517 257.437 225.195 257.851 225.195C258.266 225.195 259.056 225.588 259.056 225.588C259.056 225.588 260.062 225.517 260.477 225.517C260.892 225.517 261.03 225.638 261.03 225.638C261.03 225.638 262.649 223.732 263.438 223.087C264.228 222.441 265.422 221.261 265.778 221.272C266.113 221.272 266.261 221.877 266.015 222.522C265.768 223.168 264.702 224.196 264.702 224.196L261.642 228.946C261.642 228.946 262.165 228.734 262.441 228.553C262.718 228.371 264.593 226.586 264.702 226.516C264.81 226.445 265.649 225.87 266.143 226.445C266.636 227.02 262.935 231.538 262.343 232.153C261.75 232.768 258.355 234.523 258.355 234.523C258.355 234.523 254.762 241.119 254.416 241.542C254.071 241.966 245.967 239.757 245.967 239.757Z" fill="#E49191"/>
<path d="M252.302 207.231C252.302 207.231 248.542 229.469 245.008 229.983C245.008 229.983 230.892 230.568 227.744 213.06C225.019 197.882 235.956 194.645 241.079 195.804C246.202 196.964 253.398 197.731 252.302 207.231Z" fill="#E49191"/>
<path d="M239.827 226.424C239.827 226.424 237.853 229.147 237.152 235.743C237.152 235.743 231.269 236.6 225.85 233.746C225.85 233.746 228.771 224.437 229.127 214.332" fill="#E49191"/>
<path d="M235.838 192.094C228.119 193.839 228.741 198.751 228.741 198.751C225.128 199.668 224.348 201.191 224.378 207.999C224.407 214.816 226.826 222.996 228.148 223.661C229.471 224.327 237.022 224.357 237.654 224.125C238.286 223.893 240.921 217.64 240.309 216.541C239.697 215.442 240.339 211.115 242.096 210.954C243.853 210.792 243.508 213.576 243.508 213.576L244.949 213.253L246.064 210.46C256.261 211.075 258.896 199.205 258.896 199.205C256.458 197.561 243.557 190.35 235.838 192.094Z" fill="#002C54"/>
<path d="M150.19 342.645L157.988 343.795L155.402 353.103L146.952 350.925C146.952 350.925 143.517 346.164 148.709 342.645C148.956 342.473 149.775 342.544 150.19 342.645Z" fill="#E5918F"/>
<path d="M208.417 318.733L196.917 283.162C196.917 283.162 193.433 281.892 191.646 283.162C191.646 283.162 179.663 289.748 180.946 308.506C181.913 322.656 184.835 337.995 186.02 344.147L155.341 342.987C155.341 342.987 151.56 347.586 154.008 353.566C154.008 353.566 192.564 364.156 197.993 365.134C202.405 365.931 207.242 366.546 209.572 364.499C213.668 360.918 208.417 318.733 208.417 318.733Z" fill="#1B3151"/>
<path d="M186.516 342.645L194.314 343.795L191.728 353.103L183.278 350.925C183.278 350.925 179.843 346.164 185.035 342.645C185.282 342.473 186.101 342.544 186.516 342.645Z" fill="#E5918F"/>
<path d="M183.68 347.527C183.503 349.362 185.072 351.006 184.786 351.47C184.499 351.924 179.258 360.92 179.258 360.92C179.258 360.92 183.216 362.685 182.575 365.226H172.546C172.546 365.226 169.93 362.816 169.989 359.357C169.989 359.357 170.67 355.373 172.457 351.853C174.244 348.334 178.31 340.376 178.31 340.376C178.31 340.376 179.544 339.872 181.657 340.447C184.124 341.123 186.503 342.666 186.503 342.666C186.503 342.666 184.115 342.999 183.68 347.527Z" fill="#467CDB"/>
<path d="M263.999 357.046C261.522 347.606 238.236 307.316 230.349 296.434C214.161 289.254 196.916 283.162 196.916 283.162C189.78 284.907 186.266 299.591 190.313 309.383C193.087 316.1 210.696 333.003 221.485 342.957L191.557 342.916C191.557 342.916 188.033 348.302 191.231 353.415C191.231 353.415 241 364.973 245.363 365.628C249.726 366.284 259.528 365.628 259.528 365.628C259.528 365.628 266.082 364.983 263.999 357.046Z" fill="#1B3151"/>
<path d="M147.356 347.527C147.178 349.362 148.748 351.006 148.462 351.47C148.175 351.924 142.934 360.92 142.934 360.92C142.934 360.92 146.892 362.685 146.25 365.226H136.222C136.222 365.226 133.606 362.816 133.665 359.357C133.665 359.357 134.346 355.373 136.133 351.853C137.919 348.334 141.986 340.376 141.986 340.376C141.986 340.376 143.22 339.872 145.332 340.447C147.8 341.123 150.179 342.666 150.179 342.666C150.179 342.666 147.79 342.999 147.356 347.527Z" fill="#467CDB"/>
<path d="M301.47 232.91L285.419 261.754L273.92 250.045L264.404 264.517L267.168 265.868L266.171 266.716C266.171 266.716 288.351 277.759 291.016 275.318C293.672 272.888 306.06 236.188 306.06 236.188L301.47 232.91Z" fill="#E49191"/>
<path d="M275.973 251.879C275.973 251.879 272.943 264.939 266.882 271.131L251.375 265.1C251.375 265.1 244.179 277.465 237.141 286.945C234.436 290.605 233.538 295.759 230.36 296.435C230.162 296.364 229.975 296.303 229.777 296.253C221.16 293.611 208.446 296.414 197.953 292.431C186.365 288.024 188.616 285.543 188.616 285.543C188.616 285.543 195.644 272.604 199.631 258.898C201.408 252.837 202.642 247.22 203.461 242.833C204.932 235.067 211.023 228.996 218.702 227.937C218.791 227.927 218.87 227.907 218.959 227.897C227.744 226.757 250.743 229.531 255.215 231.487C259.686 233.444 275.973 251.879 275.973 251.879Z" fill="#3655CE"/>
<path d="M251.375 265.1C251.375 265.1 244.179 277.464 237.141 286.944C234.436 290.605 233.538 295.758 230.359 296.434C231.751 295.93 234.061 288.447 234.88 286.762C235.709 285.088 237.022 283.404 239.865 277.525C242.698 271.635 246.548 263.002 246.548 263.002L251.375 265.1Z" fill="#5996EF"/>
<path d="M221.488 342.958C221.488 342.958 221.735 342.908 222.159 342.847C222.594 342.807 223.206 342.706 223.946 342.676C225.427 342.595 227.411 342.655 229.375 342.928C230.352 343.069 231.33 343.25 232.238 343.482C233.146 343.704 233.975 343.956 234.676 344.218C235.377 344.46 235.939 344.733 236.344 344.914C236.739 345.096 236.956 345.217 236.956 345.217C236.956 345.217 236.709 345.187 236.285 345.116C235.86 345.025 235.248 344.945 234.528 344.813C233.087 344.561 231.162 344.249 229.237 343.987C228.279 343.835 227.312 343.724 226.404 343.603C225.496 343.482 224.647 343.382 223.926 343.281C222.466 343.089 221.488 342.958 221.488 342.958Z" fill="black"/>
<path d="M313.462 222.289C313.205 222.259 311.557 223.611 310.767 224.276L311.685 222.481C311.685 222.481 312.899 221.291 313.333 220.635C313.768 219.98 313.541 219.324 313.195 219.294C312.949 219.274 311.507 220.444 310.668 221.14L310.856 220.777C310.856 220.777 312.07 219.587 312.504 218.931C312.939 218.275 312.712 217.62 312.366 217.59C312.021 217.549 309.237 219.94 309.237 219.94L307.885 221.795L308.911 219.768C308.911 219.768 309.454 219.092 309.81 218.366C310.165 217.63 309.908 217.408 309.711 217.166C309.513 216.924 307.638 218.346 307.154 218.921C306.68 219.496 305.16 221.805 305.042 222.128L303.472 225.436C303.374 224.478 303.216 222.834 303.107 221.785C302.949 220.272 301.607 219.919 301.567 220.656C301.518 221.392 300.778 224.992 300.946 226.949C301.113 228.905 301.439 230.186 301.558 231.285C301.676 232.385 300.561 234.583 300.561 234.583C300.561 234.583 305.032 237.417 305.763 236.57C306.503 235.723 308.072 233.837 308.832 232.566C309.879 230.821 310.579 228.532 310.579 228.532L311.971 225.486C311.971 225.486 313.185 224.296 313.62 223.641C314.034 222.985 313.807 222.33 313.462 222.289Z" fill="#E49191"/>
<path d="M569.858 130.434H517.483C514.127 130.434 511.402 133.217 511.402 136.646V149.293C511.402 152.459 513.722 155.071 516.713 155.455C517.147 155.515 517.483 155.888 517.483 156.342V163.261C517.483 163.664 517.986 163.825 518.213 163.503L523.553 155.878C523.721 155.636 523.988 155.505 524.274 155.505H569.868C573.224 155.505 575.948 152.722 575.948 149.293V136.646C575.938 133.217 573.214 130.434 569.858 130.434Z" stroke="white" stroke-width="0.8956" stroke-miterlimit="10"/>
<path d="M523.515 144.997C524.622 144.997 525.519 144.08 525.519 142.95C525.519 141.819 524.622 140.902 523.515 140.902C522.409 140.902 521.512 141.819 521.512 142.95C521.512 144.08 522.409 144.997 523.515 144.997Z" stroke="white" stroke-width="0.8956" stroke-miterlimit="10"/>
<path d="M533.592 144.997C534.698 144.997 535.595 144.08 535.595 142.95C535.595 141.819 534.698 140.902 533.592 140.902C532.485 140.902 531.588 141.819 531.588 142.95C531.588 144.08 532.485 144.997 533.592 144.997Z" stroke="white" stroke-width="0.8956" stroke-miterlimit="10"/>
<path d="M543.672 144.997C544.778 144.997 545.676 144.08 545.676 142.95C545.676 141.819 544.778 140.902 543.672 140.902C542.565 140.902 541.668 141.819 541.668 142.95C541.668 144.08 542.565 144.997 543.672 144.997Z" stroke="white" stroke-width="0.8956" stroke-miterlimit="10"/>
<path d="M553.75 144.997C554.857 144.997 555.754 144.08 555.754 142.95C555.754 141.819 554.857 140.902 553.75 140.902C552.643 140.902 551.746 141.819 551.746 142.95C551.746 144.08 552.643 144.997 553.75 144.997Z" stroke="white" stroke-width="0.8956" stroke-miterlimit="10"/>
<path d="M563.826 144.997C564.933 144.997 565.83 144.08 565.83 142.95C565.83 141.819 564.933 140.902 563.826 140.902C562.719 140.902 561.822 141.819 561.822 142.95C561.822 144.08 562.719 144.997 563.826 144.997Z" stroke="white" stroke-width="0.8956" stroke-miterlimit="10"/>
<path d="M155.973 185.861H208.348C211.704 185.861 214.429 188.645 214.429 192.074V204.72C214.429 207.887 212.109 210.499 209.118 210.882C208.684 210.943 208.348 211.316 208.348 211.77V218.688C208.348 219.092 207.845 219.253 207.618 218.93L202.278 211.306C202.11 211.074 201.843 210.933 201.557 210.933H155.963C152.607 210.933 149.883 208.149 149.883 204.72V192.074C149.893 188.645 152.617 185.861 155.973 185.861Z" stroke="white" stroke-width="0.8956" stroke-miterlimit="10"/>
<path d="M202.314 200.425C203.421 200.425 204.318 199.508 204.318 198.377C204.318 197.247 203.421 196.33 202.314 196.33C201.208 196.33 200.311 197.247 200.311 198.377C200.311 199.508 201.208 200.425 202.314 200.425Z" stroke="white" stroke-width="0.8956" stroke-miterlimit="10"/>
<path d="M192.238 200.425C193.345 200.425 194.242 199.508 194.242 198.377C194.242 197.247 193.345 196.33 192.238 196.33C191.132 196.33 190.234 197.247 190.234 198.377C190.234 199.508 191.132 200.425 192.238 200.425Z" stroke="white" stroke-width="0.8956" stroke-miterlimit="10"/>
<path d="M182.162 200.425C183.269 200.425 184.166 199.508 184.166 198.377C184.166 197.247 183.269 196.33 182.162 196.33C181.055 196.33 180.158 197.247 180.158 198.377C180.158 199.508 181.055 200.425 182.162 200.425Z" stroke="white" stroke-width="0.8956" stroke-miterlimit="10"/>
<path d="M172.082 200.425C173.189 200.425 174.086 199.508 174.086 198.377C174.086 197.247 173.189 196.33 172.082 196.33C170.975 196.33 170.078 197.247 170.078 198.377C170.078 199.508 170.975 200.425 172.082 200.425Z" stroke="white" stroke-width="0.8956" stroke-miterlimit="10"/>
<path d="M162.004 200.425C163.11 200.425 164.008 199.508 164.008 198.377C164.008 197.247 163.11 196.33 162.004 196.33C160.897 196.33 160 197.247 160 198.377C160 199.508 160.897 200.425 162.004 200.425Z" stroke="white" stroke-width="0.8956" stroke-miterlimit="10"/>
<path d="M472.305 101.267H376.834C371.573 101.267 367.299 96.9105 367.299 91.5252C367.299 86.1499 371.563 81.7832 376.834 81.7832H472.305C477.567 81.7832 481.841 86.1399 481.841 91.5252C481.841 96.9105 477.567 101.267 472.305 101.267Z" fill="white" stroke="#495AD6" stroke-width="0.8956" stroke-miterlimit="10"/>
<path d="M465.83 96.0435C468.632 96.0435 470.903 93.7226 470.903 90.8596C470.903 87.9967 468.632 85.6758 465.83 85.6758C463.027 85.6758 460.756 87.9967 460.756 90.8596C460.756 93.7226 463.027 96.0435 465.83 96.0435Z" stroke="#495AD6" stroke-width="1.6716" stroke-miterlimit="10"/>
<path d="M469.422 94.5195L472.215 97.3843" stroke="#495AD6" stroke-width="1.6716" stroke-miterlimit="10" stroke-linecap="round"/>
<path d="M327.691 366.182H303.675C299.47 366.182 296.064 362.703 296.064 358.407V333.869C296.064 329.573 299.47 326.094 303.675 326.094H327.691C331.896 326.094 335.301 329.573 335.301 333.869V358.407C335.301 362.703 331.896 366.182 327.691 366.182Z" fill="#193091"/>
<path d="M320.544 366.182H296.528C292.323 366.182 288.918 362.703 288.918 358.407V333.869C288.918 329.573 292.323 326.094 296.528 326.094H320.544C324.749 326.094 328.155 329.573 328.155 333.869V358.407C328.145 362.703 324.739 366.182 320.544 366.182Z" fill="#495AD6"/>
<path d="M303.903 338.569L315.166 345.215C315.857 345.629 315.857 346.647 315.166 347.061L303.903 353.707C303.212 354.12 302.344 353.606 302.344 352.779V339.497C302.334 338.67 303.203 338.166 303.903 338.569Z" fill="white"/>
<path d="M436.378 112.493H416.212C415.373 112.493 414.691 111.797 414.691 110.95C414.691 110.092 415.373 109.396 416.212 109.396H436.378C437.217 109.396 437.898 110.092 437.898 110.95C437.898 111.797 437.217 112.493 436.378 112.493Z" fill="#F0F4FF"/>
<path d="M456.557 112.493H441.967C441.128 112.493 440.447 111.797 440.447 110.95C440.447 110.092 441.128 109.396 441.967 109.396H456.557C457.396 109.396 458.077 110.092 458.077 110.95C458.077 111.797 457.396 112.493 456.557 112.493Z" fill="#F0F4FF"/>
<path d="M424.791 119.299H416.223C415.384 119.299 414.703 118.603 414.703 117.756C414.703 116.899 415.384 116.203 416.223 116.203H424.791C425.63 116.203 426.311 116.899 426.311 117.756C426.301 118.603 425.62 119.299 424.791 119.299Z" fill="#F0F4FF"/>
<path d="M456.555 119.299H429.874C429.035 119.299 428.354 118.603 428.354 117.756C428.354 116.899 429.035 116.203 429.874 116.203H456.555C457.394 116.203 458.075 116.899 458.075 117.756C458.075 118.603 457.394 119.299 456.555 119.299Z" fill="#F0F4FF"/>
<path d="M442.794 126.107H416.212C415.373 126.107 414.691 125.412 414.691 124.565C414.691 123.707 415.373 123.012 416.212 123.012H442.794C443.633 123.012 444.314 123.707 444.314 124.565C444.314 125.412 443.633 126.107 442.794 126.107Z" fill="#F0F4FF"/>
<path d="M456.555 126.107H447.987C447.148 126.107 446.467 125.412 446.467 124.565C446.467 123.707 447.148 123.012 447.987 123.012H456.555C457.394 123.012 458.075 123.707 458.075 124.565C458.075 125.412 457.394 126.107 456.555 126.107Z" fill="#F0F4FF"/>
<path d="M181.037 270.617H110.638C108.555 270.617 106.867 268.893 106.867 266.765V230.458C106.867 228.33 108.555 226.605 110.638 226.605H181.037C183.12 226.605 184.808 228.33 184.808 230.458V266.765C184.808 268.893 183.12 270.617 181.037 270.617Z" fill="#211749"/>
<path d="M110.186 232.547H181.503" stroke="white" stroke-width="0.8956" stroke-miterlimit="10" stroke-linecap="round"/>
<path d="M179.617 230.408C180.096 230.408 180.485 230.011 180.485 229.521C180.485 229.03 180.096 228.633 179.617 228.633C179.137 228.633 178.748 229.03 178.748 229.521C178.748 230.011 179.137 230.408 179.617 230.408Z" fill="white"/>
<path d="M175.115 230.408C175.594 230.408 175.983 230.011 175.983 229.521C175.983 229.03 175.594 228.633 175.115 228.633C174.635 228.633 174.246 229.03 174.246 229.521C174.246 230.011 174.635 230.408 175.115 230.408Z" fill="white"/>
<path d="M170.603 230.408C171.083 230.408 171.472 230.011 171.472 229.521C171.472 229.03 171.083 228.633 170.603 228.633C170.123 228.633 169.734 229.03 169.734 229.521C169.734 230.011 170.123 230.408 170.603 230.408Z" fill="white"/>
<path d="M123.472 238.476H111.37C110.709 238.476 110.176 237.931 110.176 237.256C110.176 236.58 110.709 236.035 111.37 236.035H123.472C124.133 236.035 124.666 236.58 124.666 237.256C124.666 237.931 124.133 238.476 123.472 238.476Z" fill="#6589D1"/>
<path d="M123.472 244.103H111.37C110.709 244.103 110.176 243.558 110.176 242.882C110.176 242.207 110.709 241.662 111.37 241.662H123.472C124.133 241.662 124.666 242.207 124.666 242.882C124.666 243.558 124.133 244.103 123.472 244.103Z" fill="#6589D1"/>
<path d="M123.472 249.741H111.37C110.709 249.741 110.176 249.197 110.176 248.521C110.176 247.845 110.709 247.301 111.37 247.301H123.472C124.133 247.301 124.666 247.845 124.666 248.521C124.666 249.187 124.133 249.741 123.472 249.741Z" fill="#6589D1"/>
<path d="M123.472 255.369H111.37C110.709 255.369 110.176 254.824 110.176 254.148C110.176 253.472 110.709 252.928 111.37 252.928H123.472C124.133 252.928 124.666 253.472 124.666 254.148C124.666 254.824 124.133 255.369 123.472 255.369Z" fill="#6589D1"/>
<path d="M123.472 260.996H111.37C110.709 260.996 110.176 260.451 110.176 259.775C110.176 259.099 110.709 258.555 111.37 258.555H123.472C124.133 258.555 124.666 259.099 124.666 259.775C124.666 260.451 124.133 260.996 123.472 260.996Z" fill="#6589D1"/>
<path d="M123.472 266.634H111.37C110.709 266.634 110.176 266.089 110.176 265.414C110.176 264.738 110.709 264.193 111.37 264.193H123.472C124.133 264.193 124.666 264.738 124.666 265.414C124.666 266.079 124.133 266.634 123.472 266.634Z" fill="#6589D1"/>
<path d="M180.309 238.476H128.161C127.5 238.476 126.967 237.931 126.967 237.255C126.967 236.58 127.5 236.035 128.161 236.035H180.309C180.971 236.035 181.504 236.58 181.504 237.255C181.504 237.931 180.971 238.476 180.309 238.476Z" fill="#3B5FB7"/>
<path d="M180.309 244.103H128.161C127.5 244.103 126.967 243.558 126.967 242.883C126.967 242.207 127.5 241.662 128.161 241.662H180.309C180.971 241.662 181.504 242.207 181.504 242.883C181.504 243.558 180.971 244.103 180.309 244.103Z" fill="#3B5FB7"/>
<path d="M180.309 249.741H128.161C127.5 249.741 126.967 249.197 126.967 248.521C126.967 247.845 127.5 247.301 128.161 247.301H180.309C180.971 247.301 181.504 247.845 181.504 248.521C181.504 249.187 180.971 249.741 180.309 249.741Z" fill="#3B5FB7"/>
<path d="M180.309 255.369H128.161C127.5 255.369 126.967 254.824 126.967 254.148C126.967 253.472 127.5 252.928 128.161 252.928H180.309C180.971 252.928 181.504 253.472 181.504 254.148C181.504 254.824 180.971 255.369 180.309 255.369Z" fill="#3B5FB7"/>
<path d="M180.309 260.996H128.161C127.5 260.996 126.967 260.451 126.967 259.775C126.967 259.099 127.5 258.555 128.161 258.555H180.309C180.971 258.555 181.504 259.099 181.504 259.775C181.504 260.451 180.971 260.996 180.309 260.996Z" fill="#3B5FB7"/>
<path d="M180.309 266.634H128.161C127.5 266.634 126.967 266.089 126.967 265.414C126.967 264.738 127.5 264.193 128.161 264.193H180.309C180.971 264.193 181.504 264.738 181.504 265.414C181.504 266.079 180.971 266.634 180.309 266.634Z" fill="#3B5FB7"/>
<path d="M560.366 263.013H539.628C536.558 263.013 534.07 260.472 534.07 257.335V236.147C534.07 233.01 536.558 230.469 539.628 230.469H560.366C563.436 230.469 565.924 233.01 565.924 236.147V257.335C565.934 260.472 563.436 263.013 560.366 263.013Z" fill="#193091"/>
<path d="M559.003 260.199H536.053C533.595 260.199 531.602 258.162 531.602 255.65V232.203C531.602 229.691 533.595 227.654 536.053 227.654H559.003C561.461 227.654 563.455 229.691 563.455 232.203V255.65C563.455 258.151 561.461 260.199 559.003 260.199Z" fill="#7E89FD" stroke="#DEE3FC" stroke-miterlimit="10"/>
<path d="M541.086 253.643C540.998 253.643 540.909 253.633 540.82 253.603C540.297 253.451 539.991 252.897 540.139 252.362L544.956 234.935C545.104 234.401 545.657 234.088 546.17 234.239C546.693 234.391 546.999 234.945 546.851 235.48L542.034 252.907C541.916 253.351 541.521 253.643 541.086 253.643Z" fill="white"/>
<path d="M549.151 253.643C549.062 253.643 548.973 253.633 548.884 253.603C548.361 253.451 548.055 252.897 548.203 252.362L553.02 234.935C553.168 234.401 553.721 234.088 554.234 234.239C554.758 234.391 555.064 234.945 554.916 235.48L550.099 252.907C549.97 253.351 549.575 253.643 549.151 253.643Z" fill="white"/>
<path d="M556.052 240.977H538.995C538.452 240.977 538.008 240.523 538.008 239.968C538.008 239.413 538.452 238.959 538.995 238.959H556.052C556.595 238.959 557.039 239.413 557.039 239.968C557.039 240.523 556.605 240.977 556.052 240.977Z" fill="white"/>
<path d="M556.052 248.933H538.995C538.452 248.933 538.008 248.479 538.008 247.925C538.008 247.37 538.452 246.916 538.995 246.916H556.052C556.595 246.916 557.039 247.37 557.039 247.925C557.039 248.479 556.605 248.933 556.052 248.933Z" fill="white"/>
<path d="M175.697 159.599H163.358C162.608 159.599 162.006 158.984 162.006 158.218C162.006 157.451 162.608 156.836 163.358 156.836H175.697C176.447 156.836 177.049 157.451 177.049 158.218C177.049 158.984 176.447 159.599 175.697 159.599Z" fill="#F0F4FF"/>
<path d="M188.124 165.732H163.358C162.608 165.732 162.006 165.117 162.006 164.35C162.006 163.584 162.608 162.969 163.358 162.969H188.124C188.874 162.969 189.477 163.584 189.477 164.35C189.477 165.117 188.874 165.732 188.124 165.732Z" fill="#F0F4FF"/>
<path d="M166.292 171.873H163.37C162.62 171.873 162.018 171.258 162.018 170.491C162.018 169.725 162.62 169.109 163.37 169.109H166.292C167.042 169.109 167.644 169.725 167.644 170.491C167.644 171.248 167.032 171.873 166.292 171.873Z" fill="#F0F4FF"/>
<path d="M188.124 171.873H170.88C170.129 171.873 169.527 171.258 169.527 170.491C169.527 169.725 170.129 169.109 170.88 169.109H188.124C188.874 169.109 189.476 169.725 189.476 170.491C189.476 171.248 188.874 171.873 188.124 171.873Z" fill="#F0F4FF"/>
<path d="M188.124 159.599H180.641C179.891 159.599 179.289 158.984 179.289 158.218C179.289 157.451 179.891 156.836 180.641 156.836H188.124C188.874 156.836 189.476 157.451 189.476 158.218C189.476 158.984 188.874 159.599 188.124 159.599Z" fill="#F0F4FF"/>
<path d="M118.556 348.121C116.947 348.121 115.447 348.574 114.154 349.351C113.641 344.641 109.732 340.99 104.984 340.99C99.8903 340.99 95.7544 345.206 95.7544 350.42C95.7544 350.773 95.7742 351.116 95.8137 351.449C95.3892 351.368 94.9549 351.318 94.5107 351.318C90.6216 351.318 87.4629 354.545 87.4629 358.518C87.4629 362.492 90.6216 365.719 94.5107 365.719H118.546C123.304 365.719 127.164 361.776 127.164 356.915C127.173 352.054 123.314 348.121 118.556 348.121Z" fill="white"/>
<path d="M57.412 310.322C57.1751 309.001 57.2145 307.66 57.5304 306.369C58.6162 302.032 59.8599 293.863 57.0961 285.049C52.4864 270.345 33.8008 257.314 33.8008 257.314C33.8008 257.314 38.8744 279.018 43.0399 288.266C46.09 295.033 51.4302 302.738 54.4013 306.792C55.2206 307.922 55.7833 309.213 56.03 310.594C59.0505 327.679 58.6162 340.9 58.6063 341.102L60.008 341.163C60.0277 340.941 60.4719 327.588 57.412 310.322Z" fill="#DEE3FC"/>
<path d="M72.3176 296.495C76.0291 284.504 77.7565 270.375 77.7565 270.375C77.7565 270.375 61.0055 284.504 59.6236 295.426C58.7845 302.123 59.8309 307.488 60.7686 310.655C61.1634 311.996 61.3115 313.398 61.1634 314.789C59.4656 330.875 60.7982 343.199 60.818 343.391L62.0814 343.239C62.0617 343.058 60.8278 331.591 62.2789 316.393C62.4763 314.315 63.2956 312.349 64.5886 310.715C66.9873 307.7 70.4125 302.647 72.3176 296.495Z" fill="#B4C1EF"/>
<path d="M89.3456 269.82C89.3456 269.82 71.2917 276.668 66.5734 291.725C63.701 300.892 65.0533 309.364 66.1786 313.751C66.4945 314.981 66.4747 316.272 66.1786 317.503C61.9539 334.839 61.8848 352.78 61.8848 353.012H63.3259C63.3259 352.78 63.395 335.262 67.4717 318.269C67.8764 316.585 68.597 314.991 69.6137 313.6C72.6934 309.364 77.9348 301.74 80.9652 295.013C85.2393 285.553 89.3456 269.82 89.3456 269.82Z" fill="#DEE3FC"/>
<path d="M57.4916 333.366C57.0376 327.063 55.3595 321.385 53.3261 316.625C52.9214 315.667 52.7733 314.628 52.9017 313.6C53.1583 311.613 53.257 308.517 52.4772 304.594C51.0163 297.201 41.4119 281.237 27.5137 280.299C27.5137 280.299 32.3109 288.175 34.7787 294.771C37.8979 303.111 42.3595 311.835 49.7528 315.183C51.0558 315.768 52.0725 316.877 52.6154 318.219C54.3922 322.636 55.8234 327.789 56.2282 333.467L57.4916 333.366Z" fill="#B4C1EF"/>
<path d="M48.0957 365.708H71.0356L76.9878 328.554C77.2543 326.911 76.0106 325.418 74.3819 325.418H44.7494C43.1207 325.418 41.877 326.911 42.1435 328.554L48.0957 365.708Z" fill="#DEE3FC"/>
<path d="M1 365.709H642.826" stroke="white" stroke-width="1.1144" stroke-miterlimit="10" stroke-linecap="round"/>
</svg>
