<svg width="625" height="362" viewBox="0 0 625 362" fill="none" xmlns="http://www.w3.org/2000/svg">
<path d="M54.5018 361.999C54.5018 361.999 30.128 328.753 41.7613 288.91C53.4107 249.051 83.3044 218.605 73.6608 172.498C62.2039 117.739 89.0328 71.5658 136.529 77.5157C216.117 87.5095 273.353 25.359 302.476 19.144C388.772 0.730873 404.513 68.0522 451.094 74.6153C551.606 88.7691 582.687 134.081 579.093 220.975C577.906 249.565 654.878 306.809 610.688 361.999H54.5018Z" fill="#E2E9FB"/>
<path d="M252.189 63.0586H104.598V71.8591H252.189V63.0586Z" fill="#D3DDF8"/>
<path d="M252.189 129.853H104.598V138.653H252.189V129.853Z" fill="#D3DDF8"/>
<path d="M252.189 196.626H104.598V205.426H252.189V196.626Z" fill="#D3DDF8"/>
<path d="M111.421 9.72754H102.9V205.427H111.421V9.72754Z" fill="#D3DDF8"/>
<path d="M181.507 9.72754H172.986V205.427H181.507V9.72754Z" fill="#D3DDF8"/>
<path d="M251.595 9.72754H243.074V205.427H251.595V9.72754Z" fill="#D3DDF8"/>
<path d="M158.362 164.889C156.613 167.011 156.083 170.723 155.393 173.325C154.848 175.397 154.383 177.502 153.981 179.606H152.634C153.596 173.855 154.447 167.988 155.971 162.436C157.078 158.392 159.565 156.404 163.352 155.26C166.529 154.299 169.771 153.487 172.98 152.592C173.477 152.459 164.299 152.807 160.127 153.984C158.667 154.398 156.822 154.796 155.185 155.492C157.207 149.36 159.822 143.294 162.63 137.195C162.903 136.615 145.124 153.702 149.569 179.623H148.285C148.237 179.557 148.205 179.49 148.157 179.441C146.344 173.159 146.664 166.364 144.209 160.265C141.931 154.63 137.582 150.354 132.913 146.774C132.48 146.443 132.111 147.056 132.271 147.437C134.566 152.956 138.433 157.415 140.84 162.818C142.797 167.21 144.354 171.85 145.91 176.457C143.872 174.154 141.45 172.579 137.968 172.148C132.56 171.485 130.153 174.734 128.42 179.606C128.228 180.137 129.03 180.452 129.271 179.988C130.955 176.855 135.192 176.06 138.401 176.06C141.642 176.06 144.177 177.684 146.616 179.623H142.749L145.718 198.268H156.067L159.036 179.623H156.469C157.335 177.502 158.073 175.314 159.036 173.209C160.304 170.441 161.539 167.922 165.037 168.436C167.235 168.767 169.498 169.679 171.632 170.276C172.194 170.425 161.427 161.16 158.362 164.889Z" fill="#D3DDF8"/>
<path d="M370.808 94.767C354.906 82.3867 345.471 71.1167 341.636 66.0949V0H337.625V66.0949C333.79 71.1167 324.371 82.3867 308.453 94.767H331.624C331.624 99.2253 335.122 102.855 339.454 102.855C343.77 102.855 347.284 99.2419 347.284 94.767H370.808Z" fill="#D3DDF8"/>
<path d="M574.204 175.333H385.358C382.213 175.333 379.662 172.698 379.662 169.449V33.1824C379.662 29.934 382.213 27.2988 385.358 27.2988H574.204C577.349 27.2988 579.9 29.934 579.9 33.1824V169.449C579.9 172.698 577.349 175.333 574.204 175.333Z" fill="#D3DDF8"/>
<path d="M562.205 165.937H397.365C394.621 165.937 392.391 163.633 392.391 160.799V41.835C392.391 39.001 394.621 36.6973 397.365 36.6973H562.205C564.949 36.6973 567.18 39.001 567.18 41.835V160.783C567.18 163.633 564.949 165.937 562.205 165.937Z" fill="#E2E9FB"/>
<path d="M544.69 65.1987L498.863 69.8887L504.551 129.178L550.377 124.488L544.69 65.1987Z" fill="white"/>
<path d="M494.251 100.126L449.512 88.8574L435.846 146.741L480.586 158.009L494.251 100.126Z" fill="white"/>
<path d="M521.302 78.1123C523.146 78.1123 524.64 76.569 524.64 74.6651C524.64 72.7612 523.146 71.2178 521.302 71.2178C519.459 71.2178 517.965 72.7612 517.965 74.6651C517.965 76.569 519.459 78.1123 521.302 78.1123Z" fill="#D3DDF8"/>
<path d="M470.728 103.934C472.572 103.934 474.066 102.39 474.066 100.486C474.066 98.5824 472.572 97.0391 470.728 97.0391C468.885 97.0391 467.391 98.5824 467.391 100.486C467.391 102.39 468.885 103.934 470.728 103.934Z" fill="#D3DDF8"/>
<path d="M484.355 115.085L451.938 106.884L451.537 108.574L483.954 116.775L484.355 115.085Z" fill="#E2E9FB"/>
<path d="M482.39 121.459L449.973 113.262L449.572 114.952L481.99 123.15L482.39 121.459Z" fill="#E2E9FB"/>
<path d="M480.39 127.932L447.973 119.73L447.572 121.421L479.99 129.622L480.39 127.932Z" fill="#E2E9FB"/>
<path d="M476.386 140.765L443.969 132.567L443.568 134.258L475.986 142.455L476.386 140.765Z" fill="#E2E9FB"/>
<path d="M474.371 147.257L441.953 139.056L441.552 140.746L473.97 148.947L474.371 147.257Z" fill="#E2E9FB"/>
<path d="M540.468 85.3606L540.291 83.6299L506.987 87.2652L507.164 88.9959L540.468 85.3606Z" fill="#E2E9FB"/>
<path d="M540.468 90.4622L540.291 88.7314L506.987 92.3667L507.164 94.0974L540.468 90.4622Z" fill="#E2E9FB"/>
<path d="M541.927 110.078L541.75 108.348L508.446 111.983L508.623 113.714L541.927 110.078Z" fill="#E2E9FB"/>
<path d="M542.784 114.929L542.607 113.198L509.304 116.834L509.481 118.564L542.784 114.929Z" fill="#E2E9FB"/>
<path d="M439.138 94.7393L411.762 98.7314L415.874 128.813L443.25 124.821L439.138 94.7393Z" fill="#D3DDF8"/>
<path d="M492.766 50.4566L465.652 44.8682L459.896 74.661L487.01 80.2494L492.766 50.4566Z" fill="#D3DDF8"/>
<path d="M519.077 361.812C521.523 361.812 523.506 359.764 523.506 357.237C523.506 354.711 521.523 352.663 519.077 352.663C516.631 352.663 514.648 354.711 514.648 357.237C514.648 359.764 516.631 361.812 519.077 361.812Z" fill="#83A5F2"/>
<path d="M538.606 361.812C541.052 361.812 543.035 359.764 543.035 357.237C543.035 354.711 541.052 352.663 538.606 352.663C536.161 352.663 534.178 354.711 534.178 357.237C534.178 359.764 536.161 361.812 538.606 361.812Z" fill="#83A5F2"/>
<path d="M558.151 361.812C560.597 361.812 562.58 359.764 562.58 357.237C562.58 354.711 560.597 352.663 558.151 352.663C555.705 352.663 553.723 354.711 553.723 357.237C553.723 359.764 555.705 361.812 558.151 361.812Z" fill="#83A5F2"/>
<path d="M543.553 243.942H533.701V354.786H543.553V243.942Z" fill="#B3C0EC"/>
<path d="M547.349 277.421H529.875V294.956H547.349V277.421Z" fill="#83A5F2"/>
<path d="M545.201 284.196H532.027V301.731H545.201V284.196Z" fill="#83A5F2"/>
<path d="M565.083 355.714H512.131C512.131 352.35 514.778 349.615 518.036 349.615H559.162C562.435 349.615 565.083 352.35 565.083 355.714Z" fill="#6F8FE4"/>
<path d="M587.737 196.444L587.079 200.438L574.916 277.389H521.162L532.795 203.571C533.469 199.461 536.935 196.444 540.963 196.444H587.737Z" fill="white"/>
<path d="M587.247 199.494L574.923 277.389H524.17L535.306 206.621C535.98 202.51 539.446 199.511 543.473 199.511H587.247V199.494Z" fill="#B3C0EC"/>
<path d="M580.183 278.947L570.314 277.389L582.413 200.753C582.83 198.267 584.916 196.444 587.355 196.444C590.468 196.444 592.811 199.328 592.297 202.494L580.183 278.947Z" fill="#83A5F2"/>
<path d="M484.691 284.58H547.367C549.87 284.58 551.892 282.492 551.892 279.906C551.892 277.321 549.87 275.232 547.367 275.232H484.691C482.188 275.232 480.166 277.321 480.166 279.906C480.166 282.492 482.188 284.58 484.691 284.58Z" fill="#B3C0EC"/>
<path d="M539.906 284.58H576.571C579.074 284.58 581.096 282.492 581.096 279.906C581.096 277.321 579.074 275.232 576.571 275.232H539.906C537.403 275.232 535.381 277.321 535.381 279.906C535.381 282.492 537.403 284.58 539.906 284.58Z" fill="#83A5F2"/>
<path d="M575.065 212.571H540.71C540.02 212.571 539.475 212.007 539.475 211.295C539.475 210.582 540.02 210.019 540.71 210.019H575.065C575.755 210.019 576.3 210.599 576.3 211.295C576.316 212.007 575.755 212.571 575.065 212.571Z" fill="#83A5F2"/>
<path d="M571.629 229.111H537.275C536.585 229.111 536.039 228.547 536.039 227.835C536.039 227.122 536.601 226.559 537.275 226.559H571.629C572.319 226.559 572.865 227.122 572.865 227.835C572.865 228.531 572.319 229.111 571.629 229.111Z" fill="#83A5F2"/>
<path d="M568.197 245.634H533.843C533.153 245.634 532.607 245.071 532.607 244.358C532.607 243.646 533.153 243.082 533.843 243.082H568.197C568.871 243.082 569.433 243.646 569.433 244.358C569.433 245.071 568.887 245.634 568.197 245.634Z" fill="#83A5F2"/>
<path d="M231.792 337.641L220.319 338.254C221.057 347.949 216.372 352.557 206.76 353.468C201.112 353.999 201.561 361.175 201.561 361.175H232.819C232.819 361.175 236.59 357.794 232.594 350.551C231.631 348.761 231.792 337.641 231.792 337.641Z" fill="#FBBCBE"/>
<path d="M206.776 353.469C201.128 353.999 201.577 361.175 201.577 361.175H232.834C232.834 361.175 236.605 357.794 232.61 350.552C230.492 351.795 225.1 353.104 218.409 348.729C215.826 350.883 210.691 353.087 206.776 353.469Z" fill="#0C1540"/>
<path d="M213.246 351.695C213.246 351.695 218.589 348.413 219.231 345.529C219.889 342.645 223.195 345.264 223.532 346.06C223.852 346.872 219.616 351.612 213.246 351.695Z" fill="#0C1540"/>
<path d="M221.433 179.528C217.116 198.521 218.416 234.054 217.726 265.047C217.165 289.708 217.566 326.667 216.924 342.047C216.924 342.047 229.841 344.715 235.313 341.981C235.313 341.981 244.699 278.074 247.026 269.306C249.353 260.539 256.91 204.471 250.845 180.539C244.78 156.607 223.134 172.07 221.433 179.528Z" fill="#1B3151"/>
<path d="M250.284 204.601C250.284 204.601 242.999 240.449 240.833 265.127C239.966 275.021 235.297 341.978 235.297 341.978C235.297 341.978 241.731 297.909 243.93 286.009C247.01 269.303 255.884 225.45 255.884 225.45L250.284 204.601Z" fill="#D3DDF8"/>
<path d="M270.219 337.641L281.692 338.254C280.953 347.949 285.639 352.557 295.25 353.468C300.899 353.999 300.449 361.175 300.449 361.175H269.176C269.176 361.175 265.405 357.794 269.4 350.551C270.379 348.761 270.219 337.641 270.219 337.641Z" fill="#FBBCBE"/>
<path d="M295.234 353.469C300.883 353.999 300.433 361.175 300.433 361.175H269.176C269.176 361.175 265.405 357.794 269.4 350.552C271.518 351.795 276.91 353.104 283.601 348.729C286.184 350.883 291.319 353.087 295.234 353.469Z" fill="#0C1540"/>
<path d="M288.765 351.695C288.765 351.695 283.422 348.413 282.78 345.529C282.138 342.645 278.817 345.264 278.48 346.06C278.159 346.872 282.395 351.612 288.765 351.695Z" fill="#0C1540"/>
<path d="M285.294 342.045C285.294 342.045 272.376 344.714 266.905 341.979C266.905 341.979 259.395 276.1 257.053 267.332C254.726 258.565 245.307 204.486 251.356 180.554C257.422 156.605 279.084 172.085 280.769 179.543C281.475 182.625 282.02 186.537 282.469 191.045C284.732 214.148 285.55 252.582 285.101 273.232C284.973 278.901 284.892 284.768 284.828 290.635C284.62 310.39 284.78 330.179 285.294 342.045Z" fill="#2B4872"/>
<path d="M282.464 191.027C282.127 190.282 281.774 189.552 281.405 188.856C280.459 187.017 279.464 185.376 277.506 184.812C276.287 184.464 274.65 184.763 273.366 184.779C271.617 184.812 265.937 184.15 265.729 186.95C269.788 195.917 273.832 204.933 276.56 214.446C279.368 224.257 281.774 233.969 281.389 244.145C281.197 249.731 280.876 255.316 281.261 260.885C281.662 266.785 282.866 272.602 283.844 278.436C284.502 282.463 284.711 286.54 284.839 290.617C284.887 284.75 284.984 278.883 285.112 273.215C285.545 252.581 284.727 214.147 282.464 191.027Z" fill="#D3DDF8"/>
<path d="M230.496 73.7705C230.496 73.7705 230.624 81.2783 231.314 84.9908L232.887 84.1289C232.887 84.1289 232.39 77.251 232.566 74.3175L230.496 73.7705Z" fill="#6F8FE4"/>
<path d="M240.207 88.9022C240.03 90.5264 239.549 93.2278 237.976 94.0565C237.896 94.0896 237.816 94.1394 237.736 94.1725C233.981 95.9127 230.355 92.4986 230.435 87.5597C230.499 83.9467 232.601 81.4773 235.842 81.0961C236.179 81.0629 236.532 81.0795 236.869 81.1623C237.912 81.3944 238.875 82.1402 239.356 83.234C240.046 84.7422 240.319 87.858 240.207 88.9022Z" fill="#2647C8"/>
<path d="M240.205 88.9038C240.029 90.528 239.547 93.2295 237.975 94.0581C237.895 94.0913 237.814 94.141 237.734 94.1742C239.515 89.8319 239.676 85.0256 236.852 81.1475C237.895 81.3795 238.857 82.1253 239.339 83.2191C240.045 84.7439 240.317 87.8597 240.205 88.9038Z" fill="#6F8FE4"/>
<path d="M258.702 84.9888L256.632 84.7401C256.648 84.591 258.237 69.5754 252.428 62.8963C250.599 60.7915 248.288 59.7805 245.352 59.7805C245.32 59.7805 245.288 59.7805 245.255 59.7805C241.019 59.8136 237.778 61.0898 235.628 63.5758C231.969 67.8021 232.563 74.2326 232.579 74.2989L230.493 74.5309C230.461 74.2325 229.771 67.1059 234.055 62.1505C236.623 59.1838 240.377 57.6591 245.239 57.6094C248.786 57.6259 251.738 58.869 253.984 61.4378C260.403 68.8462 258.766 84.3258 258.702 84.9888Z" fill="#6F8FE4"/>
<path d="M235.406 132.006C231.715 139.531 207.406 162.336 202.913 166.711C197.505 171.982 185.904 166.114 188.439 159.585C190.67 153.8 216.985 123.256 220.724 120.537C227.463 115.648 240.027 122.593 235.406 132.006Z" fill="#FBBCBE"/>
<path d="M223.322 149.909C231.345 141.954 237.763 130.634 239.817 126.524C244.679 116.746 233.607 108.426 226.74 113.315C225.023 114.541 212.812 122.331 205.848 131.214C208.72 140.214 221.733 149.329 223.322 149.909Z" fill="#223EAC"/>
<path d="M237.553 110.265C237.553 110.265 230.733 109.652 227.139 113.414C223.545 117.176 217.479 133.634 219.678 152.594C221.876 171.554 215.955 204.601 215.955 204.601C215.955 204.601 247.485 212.076 286.83 203.541C286.83 203.541 283.894 133.866 274.571 115.121C271.603 109.171 257.739 109.155 255.637 108.972C253.535 108.773 237.553 110.265 237.553 110.265Z" fill="#3655CE"/>
<path d="M239.255 101.961C239.255 101.961 240.347 108.524 238.357 109.386C236.351 110.248 233.688 110.546 233.688 110.546C233.688 110.546 244.599 126.854 257.002 109.038C257.002 109.038 253.296 109.088 252.156 107.546C251.017 106.005 250.295 98.3645 250.873 93.3262L239.255 101.961Z" fill="#FBBCBE"/>
<path d="M252.157 107.546C251.018 106.005 250.296 98.3645 250.874 93.3262L244.247 98.2485C245.562 99.4584 247.552 102.856 247.488 103.055C249.205 106.403 250.184 111.126 246.814 113.695C244.23 115.684 240.781 115.584 237.604 114.606C241.872 117.888 249.125 120.324 257.003 109.038C257.003 109.038 253.312 109.088 252.157 107.546Z" fill="#DA91A7"/>
<path d="M189.662 166.318C184.351 160.351 172.413 133.138 170.07 128.05C167.246 121.901 174.499 114.31 178.077 120.26C181.527 125.995 203.093 157.451 204.248 161.28C206.318 168.158 196.305 173.776 189.662 166.318Z" fill="#FBBCBE"/>
<path d="M257.722 83.6283C257.626 83.0648 253.935 79.9656 253.534 80.1644C253.47 80.1644 253.742 93.2906 253.149 94.4839C252.715 95.3623 252.058 97.3511 253.277 97.8483C254.416 98.3123 255.844 97.6494 256.47 96.6716C260.482 90.44 257.962 85.0702 257.722 83.6283Z" fill="#0C1540"/>
<path d="M233.688 75.6768V95.5152C233.688 100.885 238.277 105.227 243.941 105.227C249.605 105.227 254.194 100.885 254.194 95.5152V95.0677C254.194 95.0677 259.457 96.2444 259.457 90.2946C259.457 84.3447 256.152 85.1734 256.152 85.1734V75.6768H233.688Z" fill="#FBBCBE"/>
<path d="M256.139 85.1729V73.0908H248.164C248.164 73.1405 248.164 77.4331 248.164 77.4994V98.0836C248.164 101.68 244.794 104.597 241.296 104.481C240.205 104.448 239.21 104.133 238.344 103.636C239.948 104.63 241.858 105.227 243.928 105.227C249.592 105.227 254.181 100.885 254.181 95.5147V95.0672C254.181 95.0672 259.444 96.2439 259.444 90.2941C259.46 84.3442 256.139 85.1729 256.139 85.1729Z" fill="#DA91A7"/>
<path d="M256.461 65.7978C256.461 65.7812 256.461 65.7647 256.445 65.7481C250.957 56.1852 231.686 68.7976 227.77 63.0301C225.251 65.7481 228.38 75.6259 232.119 76.554C234.638 77.1838 246.544 76.7197 248.887 75.6756C249.946 79.9681 250.861 88.4537 253.139 88.4372C254.262 88.4372 256.557 86.5146 256.124 85.1722C261.82 84.2109 261.932 67.5049 256.461 65.7978Z" fill="#0C1540"/>
<path d="M258.71 84.9888L256.641 84.7401C256.657 84.591 258.245 69.5754 252.436 62.8963C250.607 60.7915 248.297 59.7805 245.36 59.7805C245.328 59.7805 245.296 59.7805 245.264 59.7805C243.531 59.7971 241.958 60.0125 240.562 60.4434L239.969 58.3717C241.557 57.8911 243.322 57.6259 245.248 57.6094C248.794 57.6259 251.746 58.869 253.993 61.4378C260.411 68.8462 258.775 84.3258 258.71 84.9888Z" fill="#6F8FE4"/>
<path d="M245.741 104.679C244.923 104.679 244.361 104.646 244.297 104.646L244.377 103.204C244.441 103.204 250.17 103.519 252.48 102.093C254.085 101.116 255.096 96.1435 255.353 93.2432L256.749 93.3758C256.668 94.221 255.946 101.662 253.202 103.336C251.293 104.497 247.747 104.679 245.741 104.679Z" fill="#6F8FE4"/>
<path d="M251.919 90.8065C252.079 92.4307 252.577 95.1322 254.149 95.9608C254.23 95.994 254.31 96.0437 254.39 96.0768C258.145 97.817 261.771 94.4029 261.691 89.464C261.627 85.851 259.525 83.3816 256.284 83.0004C255.947 82.9672 255.594 82.9838 255.257 83.0667C254.214 83.2987 253.251 84.0445 252.769 85.1384C252.079 86.63 251.807 89.7458 251.919 90.8065Z" fill="#2647C8"/>
<path d="M251.921 90.8091C252.081 92.4333 252.579 95.1348 254.151 95.9635C254.232 95.9966 254.312 96.0463 254.392 96.0794C252.611 91.7372 252.45 86.9309 255.275 83.0527C254.232 83.2848 253.269 84.0306 252.787 85.1244C252.081 86.6326 251.809 89.7484 251.921 90.8091Z" fill="#6F8FE4"/>
<path d="M258.225 91.9167C258.867 90.5908 258.995 89.1655 258.626 87.7402C258.321 86.5303 260.118 86.0165 260.423 87.2264C260.921 89.1655 260.696 91.1046 259.829 92.8945C259.3 94.005 257.695 93.0271 258.225 91.9167Z" fill="#6F8FE4"/>
<path d="M245.006 105.904C246.397 105.904 247.525 104.739 247.525 103.302C247.525 101.865 246.397 100.7 245.006 100.7C243.614 100.7 242.486 101.865 242.486 103.302C242.486 104.739 243.614 105.904 245.006 105.904Z" fill="#2647C8"/>
<path d="M317.367 174.865L305.188 212.354C304.386 214.84 301.77 216.182 299.363 215.337L239.223 194.471C236.992 193.709 235.805 191.223 236.543 188.919L248.834 151.082C249.637 148.596 252.252 147.253 254.659 148.099L314.462 168.849C316.869 169.677 318.169 172.379 317.367 174.865Z" fill="#1D3599"/>
<path d="M314.398 173.839L302.203 211.328C301.401 213.814 298.786 215.156 296.379 214.327L236.238 193.462C234.008 192.683 232.821 190.197 233.559 187.909L245.866 150.072C246.668 147.586 249.284 146.244 251.691 147.089L311.494 167.839C313.901 168.651 315.201 171.336 314.398 173.839Z" fill="#120D80"/>
<path opacity="0.15" d="M265.28 203.524L259.07 201.369L262.312 150.754L268.521 152.908L265.28 203.524Z" fill="#F0F5FF"/>
<path opacity="0.15" d="M285.754 210.612L272.275 205.939L275.517 155.34L288.995 160.014L285.754 210.612Z" fill="#F0F5FF"/>
<path d="M284.826 121.152C290.763 126.953 305.012 157.514 307.804 163.199C311.158 170.044 304.819 177.783 298.754 174.601C293.587 171.883 271.476 136.913 270.016 132.455C267.384 124.367 277.397 113.893 284.826 121.152Z" fill="#FBBCBE"/>
<path d="M296.445 134.298C290.042 124.901 280.19 116.647 276.564 113.929C267.931 107.482 258.303 117.542 261.946 125.299C262.844 127.238 267.835 137.944 275.28 146.397C284.314 144.806 295.658 135.823 296.445 134.298Z" fill="#223EAC"/>
<path d="M246.533 205.793C247.544 202.877 248.442 200.042 247.511 202.164C246.324 204.882 242.794 204.733 243.965 202.048C245.442 198.667 246.773 194.706 249.164 191.839C251.748 188.723 261.006 188.159 264.167 186.104C265.435 185.276 268.837 191.756 268.179 192.866C265.996 196.579 261.118 197.59 260.781 198.137C260.172 199.96 260.075 201.037 259.69 202.81C259.193 205.081 255.518 206.092 256.016 203.838C256.337 202.413 255.663 202.446 255.149 204.451C254.491 207.036 250.64 207.832 251.298 205.28C251.571 204.202 251.363 203.705 250.881 205.131C249.87 207.981 245.538 208.644 246.533 205.793Z" fill="#FBBCBE"/>
<path d="M305.525 174.353C299.877 179.971 273.787 192.899 268.909 195.434C263.02 198.501 255.51 191.175 261.19 187.347C266.678 183.651 296.636 160.68 300.311 159.404C306.938 157.1 312.602 167.309 305.525 174.353Z" fill="#FBBCBE"/>
<path d="M176.774 113.944C176.325 113.48 174.175 112.486 172.297 112.071C171.463 110.679 171.126 109.27 171.126 107.414C171.11 105.26 171.206 103.536 169.794 101.796C169.586 101.531 169.2 101.481 168.912 101.613C168.125 101.961 168.157 102.89 168.045 103.668C167.981 104.182 167.901 104.696 167.82 105.226C167.74 103.917 167.483 102.74 166.537 101.564C166.328 101.298 165.943 101.249 165.654 101.381C164.868 101.729 164.9 102.657 164.788 103.436C164.772 103.552 164.756 103.668 164.74 103.785C164.691 103.718 164.659 103.652 164.611 103.586C164.403 103.32 164.018 103.271 163.729 103.403C162.942 103.751 162.975 104.679 162.862 105.458C162.718 106.486 162.557 107.58 162.461 108.674C162.22 108.359 161.932 108.06 161.579 107.779C161.306 107.563 160.937 107.596 160.68 107.795C159.974 108.309 160.199 109.204 160.263 110C160.407 112.104 160.552 114.474 161.177 116.496C162.22 119.877 166.087 123.59 169.216 124.468C169.249 124.485 169.265 124.452 169.297 124.452C170.051 124.816 170.853 125.197 171.126 125.529C171.8 126.341 177.544 127.75 178.315 123.341C178.587 119.91 179.293 116.513 176.774 113.944Z" fill="#FBBCBE"/>
<path d="M161.329 116.378L173.684 114.223L170.186 89.2969L157.814 91.468L161.329 116.378Z" fill="#0C1540"/>
<path d="M157.888 90.3906L165.045 89.2139L165.205 90.3408L161.579 90.9706L158.995 91.4347C158.129 91.5839 157.535 92.5617 157.68 93.6058L160.488 113.593C160.632 114.638 161.466 115.367 162.333 115.218L168.543 114.173L168.88 116.527L161.739 117.836C160.873 117.985 160.038 117.256 159.894 116.212L156.572 92.5783C156.428 91.5176 157.022 90.5397 157.888 90.3906Z" fill="#0C1540"/>
<path d="M157.422 92.4462L160.744 116.08C160.888 117.091 161.642 117.804 162.477 117.721C162.509 117.721 162.541 117.704 162.589 117.704L173.035 115.881C173.901 115.732 174.495 114.754 174.335 113.71L171.013 90.0761C170.869 89.032 170.034 88.3028 169.168 88.452L158.722 90.275C158.69 90.275 158.642 90.2916 158.61 90.2916C157.807 90.4905 157.278 91.4352 157.422 92.4462ZM171.735 113.594L163.183 115.085C162.316 115.235 161.482 114.505 161.337 113.461L158.529 93.4737C158.385 92.4296 158.963 91.4518 159.845 91.3026L162.429 90.8551L162.605 91.2694C162.701 91.5346 162.926 91.7004 163.167 91.6506L165.333 91.2694C165.574 91.2197 165.75 91.0043 165.766 90.7059L165.814 90.2419L168.398 89.7944C169.264 89.6453 170.082 90.3745 170.243 91.4186L173.051 111.406C173.179 112.467 172.602 113.445 171.735 113.594Z" fill="#2647C8"/>
<path d="M172.372 106.35C172.581 105.936 173.175 105.754 173.511 106.102C175.1 107.676 177.459 109.333 178.277 111.538C179.079 113.676 178.807 116.294 178.63 118.532C178.582 119.095 178.101 119.228 177.699 119.079C177.491 119.244 177.202 119.311 176.961 119.145C174.603 117.637 175.485 115.217 174.699 112.897C173.897 110.56 171.024 109.184 172.372 106.35Z" fill="#FBBCBE"/>
<path d="M144.01 207.316C143.817 206.604 143.641 205.891 143.448 205.178C143.143 204.051 141.442 204.532 141.747 205.659C141.94 206.372 142.116 207.084 142.309 207.797C142.598 208.924 144.299 208.443 144.01 207.316Z" fill="#83A5F2"/>
<path d="M144.105 213.961C143.078 214.756 142.163 215.618 141.361 216.646C140.655 217.557 141.891 218.85 142.613 217.938C143.319 217.043 144.105 216.231 144.987 215.535C145.886 214.839 145.02 213.265 144.105 213.961Z" fill="#83A5F2"/>
<path d="M95.1188 323.53C95.3435 326.994 95.5521 330.457 95.7446 333.921C96.1458 333.905 96.5469 333.905 96.9481 333.888C96.6913 329.645 96.4346 325.386 96.1618 321.143C95.5039 310.818 94.5733 300.509 91.5887 290.582C88.7004 280.952 84.368 271.87 80.0837 262.838C79.7468 262.125 78.7038 262.755 79.0408 263.467C83.4534 272.749 87.8981 282.079 90.7543 292.024C93.7068 302.266 94.4609 312.923 95.1188 323.53Z" fill="#0C1540"/>
<path d="M103.657 334.487C104.138 312.312 106.336 290.253 112.562 268.873C112.787 268.111 111.631 267.779 111.407 268.542C105.149 290.037 102.951 312.196 102.453 334.487C102.854 334.487 103.255 334.487 103.657 334.487Z" fill="#0C1540"/>
<path d="M92.2504 334.966C92.6516 334.933 93.0527 334.916 93.4539 334.883C92.6034 330.127 91.4963 325.436 90.0842 320.812C87.0676 311.017 82.8635 299.747 72.9632 295.554C72.2411 295.256 71.9362 296.449 72.6422 296.748C83.04 301.156 87.0836 314.249 89.8917 324.458C90.8384 327.922 91.6086 331.436 92.2504 334.966Z" fill="#0C1540"/>
<path d="M130.451 294.196C125.894 297.61 121.786 301.09 119.636 306.642C117.053 313.338 115.657 320.73 114.197 327.773C113.715 330.094 113.282 332.414 112.881 334.734C113.282 334.751 113.683 334.767 114.084 334.801C114.341 333.326 114.614 331.867 114.903 330.409C116.138 324.094 117.598 317.829 119.331 311.631C120.31 308.117 121.449 304.637 123.728 301.786C125.798 299.201 128.461 297.229 131.061 295.273C131.687 294.809 131.077 293.732 130.451 294.196Z" fill="#0C1540"/>
<path d="M133.503 238.211C136.183 238.874 138.847 238.51 141.334 237.532C140.355 242.172 138.991 246.73 137.066 251.039C133.118 255.083 123.186 261.878 123.731 261.961C125.994 262.326 128.208 262.226 130.439 261.994C128.417 264.53 126.17 266.883 123.715 268.972C118.645 273.314 112.21 276.198 108.632 282.148C108.552 282.28 108.439 282.363 108.327 282.363C108.199 282.711 107.749 282.91 107.493 282.512C99.5018 269.833 101.203 253.989 102.904 239.736C102.984 239.057 103.064 238.394 103.16 237.714C105.343 241.377 107.766 244.824 110.911 247.741C111.344 248.139 107.043 234.913 104.845 228.764C105.728 225.466 106.995 222.284 108.905 219.351C112.868 213.252 118.468 208.014 123.812 203.241C124.02 203.042 124.261 202.86 124.485 202.661C124.887 205.91 125.705 209.075 127.005 212.075C127.229 212.605 128.224 203.473 128.497 199.264C129.813 198.22 131.112 197.175 132.46 196.181C134.225 194.839 136.584 192.419 138.975 193.413C141.302 194.358 144.415 205.86 144.447 208.926C144.463 210.235 144.431 211.578 144.382 212.904C144.382 213.484 144.35 214.064 144.318 214.627C144.045 219.947 143.372 225.317 142.585 230.538C142.361 230.77 142.12 231.002 141.863 231.217C139.2 233.554 133.006 238.095 133.503 238.211Z" fill="#83A5F2"/>
<path d="M139.276 225.235C135.024 227.588 130.628 229.892 125.685 229.56C128.574 221.986 131.654 214.495 134.928 207.087C135.249 206.357 134.142 205.893 133.821 206.606C129.472 216.417 125.477 226.395 121.802 236.504C119.861 231.466 118.689 226.262 118.288 220.826C118.224 220.03 117.037 220.213 117.101 221.008C117.518 226.743 118.802 232.262 120.92 237.582C121 237.781 121.128 237.88 121.289 237.93C120.486 240.134 119.716 242.355 118.962 244.576C117.454 241.311 116.475 237.897 116.042 234.284C115.945 233.488 114.758 233.67 114.854 234.466C115.336 238.477 116.459 242.305 118.224 245.902C118.272 246.001 118.352 246.084 118.417 246.134C114.405 257.95 110.859 269.95 107.81 282.081C107.618 282.844 108.805 282.993 108.997 282.231C110.04 278.087 111.148 273.977 112.303 269.867C112.447 269.966 112.624 270.016 112.833 269.933C115.32 268.955 117.55 267.497 119.476 265.607C120.037 265.06 119.299 264.083 118.737 264.63C116.956 266.386 114.918 267.729 112.64 268.674C116.282 255.846 120.486 243.2 125.204 230.77C125.22 230.77 125.236 230.787 125.252 230.787C130.531 231.251 135.201 228.881 139.742 226.378C140.416 225.997 139.95 224.853 139.276 225.235Z" fill="#0C1540"/>
<path d="M144.302 214.646C141.558 217.115 138.445 219.104 135.011 220.562C134.289 220.861 133.824 219.734 134.53 219.435C138.204 217.877 141.51 215.706 144.366 212.938C144.366 213.485 144.334 214.082 144.302 214.646Z" fill="#0C1540"/>
<path d="M34.1312 286.821C32.671 289.092 30.5529 290.6 28.146 291.545C31.9168 294.279 35.8641 296.716 40.0842 298.572C45.5559 298.887 57.0448 297.229 56.7239 297.66C55.376 299.434 53.7393 300.842 52.0064 302.152C55.1033 302.665 58.2483 302.881 61.3612 302.765C67.8117 302.566 74.2622 300.378 80.7126 302.334C80.8571 302.384 80.9854 302.367 81.0817 302.301C81.4026 302.467 81.8519 302.301 81.7717 301.87C79.0439 287.285 67.3784 276.844 56.772 267.563C56.2746 267.115 55.7772 266.684 55.2637 266.254C56.1462 270.38 56.7079 274.524 56.403 278.75C56.3549 279.33 50.6746 266.8 48.1554 260.851C45.3473 259.027 42.3628 257.536 39.0733 256.674C32.2538 254.868 24.8405 254.768 17.9087 254.851C17.6198 254.851 17.331 254.884 17.0582 254.884C18.9196 257.519 20.4279 260.37 21.4869 263.453C21.6795 264 14.9562 257.983 11.9717 255.083C10.351 255.199 8.7464 255.298 7.1418 255.464C5.00769 255.663 1.75036 255.464 0.707371 257.768C-0.303526 260.005 5.07187 270.48 7.09367 272.75C7.96015 273.712 8.84268 274.673 9.75731 275.617C10.1424 276.032 10.5436 276.43 10.9447 276.827C14.6513 280.54 18.6628 284.004 22.6743 287.302C22.9952 287.318 23.3162 287.335 23.6371 287.318C27.0388 287.219 34.4039 286.39 34.1312 286.821Z" fill="#83A5F2"/>
<path d="M21.4868 281.168C26.0439 280.057 30.6652 278.814 33.9546 275.268C26.9104 271.671 19.786 268.224 12.5813 265.009C11.8753 264.694 12.3567 263.616 13.0467 263.915C22.6101 268.191 32.013 272.815 41.2715 277.754C39.3139 272.782 36.6985 268.191 33.409 263.965C32.9276 263.335 33.8904 262.688 34.3718 263.302C37.8537 267.776 40.5976 272.666 42.6194 277.969C42.6996 278.168 42.6676 278.334 42.5873 278.466C44.6091 279.56 46.6149 280.654 48.6206 281.781C47.5295 278.4 45.973 275.251 43.887 272.318C43.4378 271.671 44.3845 271.025 44.8498 271.655C47.1604 274.903 48.8934 278.45 50.0166 282.262C50.0487 282.378 50.0487 282.477 50.0327 282.56C60.6712 288.526 71.101 294.924 81.2742 301.752C81.916 302.183 81.1619 303.094 80.5361 302.664C77.0701 300.327 73.5721 298.056 70.042 295.835C70.0099 296.001 69.8976 296.15 69.705 296.233C67.2981 297.161 64.7629 297.592 62.1474 297.493C61.3932 297.459 61.2649 296.25 62.019 296.283C64.4259 296.366 66.7686 296.001 68.999 295.172C57.9594 288.245 46.647 281.798 35.0939 275.848C35.0778 275.864 35.0778 275.881 35.0618 275.897C31.644 279.759 26.782 281.135 21.9201 282.328C21.1659 282.494 20.7487 281.35 21.4868 281.168Z" fill="#0C1540"/>
<path d="M10.9491 276.793C14.5274 276.777 18.0414 276.147 21.4111 274.92C22.1171 274.655 21.6999 273.512 21.0099 273.777C17.3836 275.086 13.6128 275.716 9.76172 275.583C10.1308 275.998 10.548 276.396 10.9491 276.793Z" fill="#0C1540"/>
<path d="M202.933 261.611C201.472 267.545 187.464 267.147 182.843 267.727C172.638 269.003 162.657 270.362 153.912 276.445C143.611 283.621 134.127 292.488 124.724 300.874C124.131 301.404 123.457 301.438 122.895 301.205C122.799 301.172 122.398 299.266 121.964 296.366C120.97 289.587 119.862 277.34 122.269 271.108C123.97 266.733 126.473 262.772 129.49 259.291C129.506 261.446 129.843 263.584 130.902 265.407C131.159 265.838 133.838 257.534 135.218 253.789C136.021 253.159 136.823 252.546 137.641 251.982C139.535 250.673 141.557 249.496 143.659 248.502C144.108 248.286 144.557 248.071 145.007 247.872C146.691 247.126 148.44 246.463 150.205 245.9C150.671 245.751 151.152 245.602 151.634 245.469C153.27 244.988 154.955 244.591 156.656 244.276C156.463 247.325 156.528 250.342 157.169 253.374C157.298 254.004 159.608 246.878 160.443 243.679C162.015 243.464 163.604 243.364 165.208 243.298C165.192 245.287 165.337 247.275 165.786 249.231C165.898 249.695 169.011 245.27 170.231 243.281C175.237 243.464 180.179 244.242 184.785 245.651C185.186 245.767 185.587 245.883 185.972 246.032C187.24 246.447 188.459 246.894 189.663 247.408C194.091 249.281 204.232 254.949 202.965 261.429C202.965 261.495 202.949 261.562 202.933 261.611Z" fill="#83A5F2"/>
<path d="M147.975 264.63C131.544 274.906 122.783 301.175 122.896 301.208C123.473 301.456 124.131 301.423 124.725 300.876C134.112 292.49 143.611 283.623 153.913 276.447C162.642 270.365 172.638 269.006 182.843 267.729C187.449 267.149 201.473 267.564 202.933 261.614C184.657 259.376 164.102 254.537 147.975 264.63Z" fill="#0C1540"/>
<path d="M147.608 258.829C147.801 254.354 148.667 250.045 150.224 245.918C150.689 245.769 151.17 245.62 151.652 245.487C149.951 249.763 149.02 254.205 148.828 258.846C148.763 259.624 147.576 259.624 147.608 258.829Z" fill="#0C1540"/>
<path d="M142.709 260.136C142.612 256.209 142.917 252.33 143.655 248.502C144.105 248.286 144.554 248.071 145.003 247.872C144.169 251.916 143.816 255.976 143.912 260.136C143.928 260.949 142.725 260.932 142.709 260.136Z" fill="#0C1540"/>
<path d="M181.902 255.646C181.79 256.442 180.603 256.425 180.699 255.646C181.148 251.884 182.817 248.735 184.807 245.669C185.208 245.785 185.609 245.901 185.994 246.05C184.069 248.967 182.32 252.033 181.902 255.646Z" fill="#0C1540"/>
<path d="M30.438 218.621C29.5875 224.686 42.6971 229.841 46.7407 232.194C55.6944 237.398 64.4234 242.602 70.2481 251.668C77.1157 262.358 82.6035 274.307 88.1875 285.76C88.5405 286.489 89.1502 286.787 89.76 286.787C89.8723 286.804 90.9474 285.196 92.4075 282.694C95.8414 276.81 101.393 265.938 101.458 259.226C101.506 254.519 100.655 249.862 99.1469 245.453C98.3446 247.442 97.2214 249.282 95.5847 250.541C95.1835 250.839 95.7772 242.105 95.8895 238.111C95.3921 237.216 94.8626 236.338 94.317 235.492C93.0494 233.52 91.6213 231.664 90.0488 229.907C89.7118 229.526 89.3909 229.145 89.0379 228.797C87.7542 227.438 86.3903 226.145 84.9622 224.919C84.5932 224.604 84.2081 224.272 83.8069 223.957C82.4751 222.863 81.0631 221.836 79.6189 220.875C78.6722 223.775 77.4848 226.526 75.7679 229.095C75.4149 229.625 75.9123 222.134 76.3295 218.853C74.9495 218.041 73.5214 217.311 72.0613 216.615C71.3392 218.455 70.4727 220.245 69.3334 221.886C69.0607 222.283 67.8091 216.947 67.424 214.626C62.7385 212.82 57.8766 211.593 53.0949 211.063C52.6777 211.013 52.2605 210.964 51.8594 210.931C50.5436 210.815 49.2278 210.748 47.9441 210.748C43.1624 210.732 31.6896 211.975 30.4701 218.455C30.454 218.488 30.454 218.554 30.438 218.621Z" fill="#83A5F2"/>
<path d="M30.438 218.619C29.5875 224.685 42.6971 229.839 46.7407 232.193C55.6944 237.397 64.4234 242.601 70.2481 251.667C77.1157 262.356 82.6035 274.306 88.1875 285.758C88.5405 286.487 89.1502 286.786 89.76 286.786C89.8723 286.802 91.4929 259.058 80.1003 243.082C68.9483 227.403 48.1527 223.757 30.438 218.619Z" fill="#0C1540"/>
<path d="M82.6205 237.864C84.0968 233.654 84.8991 229.329 84.9793 224.904C84.6102 224.589 84.2251 224.257 83.824 223.942C83.824 228.566 83.0377 233.041 81.4973 237.4C81.2406 238.146 82.3477 238.61 82.6205 237.864Z" fill="#0C1540"/>
<path d="M86.6465 241.013C88.1869 237.417 89.3262 233.721 90.0643 229.893C89.7273 229.511 89.4064 229.13 89.0534 228.782C88.3313 232.859 87.1599 236.737 85.5233 240.533C85.2184 241.279 86.3256 241.726 86.6465 241.013Z" fill="#0C1540"/>
<path d="M52.0977 221.405C51.9051 222.184 53.0123 222.631 53.2209 221.886C54.1837 218.24 53.8146 214.66 53.1086 211.047C52.6914 210.997 52.2742 210.947 51.873 210.914C52.547 214.378 53.0444 217.892 52.0977 221.405Z" fill="#0C1540"/>
<path d="M132.997 335.909C132.997 338.23 132.757 340.484 132.307 342.671C130.671 350.577 126.226 357.405 120.096 361.996H83.5275C77.414 357.405 72.9693 350.577 71.3326 342.671C70.8833 340.5 70.6426 338.23 70.6426 335.909C70.6426 333.49 70.8993 331.153 71.3967 328.882C71.7979 326.96 72.3916 325.103 73.1137 323.33H130.526C131.264 325.103 131.842 326.96 132.243 328.882C132.741 331.153 132.997 333.49 132.997 335.909Z" fill="#211749"/>
<path opacity="0.08" d="M84.4868 323.329H73.0941C72.372 325.102 71.7784 326.959 71.3772 328.881C70.8798 331.135 70.623 333.489 70.623 335.908C70.623 338.229 70.8637 340.483 71.313 342.67C72.9497 350.576 77.3944 357.404 83.508 361.995H88.5785C82.465 357.388 79.6088 336.422 84.4868 323.329Z" fill="black"/>
<path opacity="0.64" d="M128.322 326.53C127.793 324.259 124.423 325.221 124.937 327.491C126.349 333.607 127.167 340.153 124.167 345.904C123.092 347.959 126.124 349.782 127.183 347.727C130.665 341.065 129.959 333.623 128.322 326.53Z" fill="white"/>
<path d="M431.125 189.854C431.125 189.854 437.351 215.559 437.351 227.807C437.351 227.807 487.446 226.896 507.006 227.807C507.006 227.807 505.723 202.649 505.033 187.285C505.017 187.285 449.803 190.782 431.125 189.854Z" fill="white"/>
<path d="M431.127 189.854C431.127 189.854 427.468 190.003 422.43 187.55C422.43 187.55 427.548 220.382 426.955 227.127L437.352 227.807C437.352 227.823 437.128 204.62 431.127 189.854Z" fill="#F5F8FF"/>
<path d="M506.109 208.764C506.109 208.764 500.605 209.675 489.742 210.355C489.742 210.355 497.22 211.366 506.205 211.034L506.109 208.764Z" fill="#D3DDF8"/>
<path d="M505.018 194.691C505.018 194.691 491.588 200.26 474.467 201.172C474.467 201.172 491.492 201.636 505.66 201.172L505.018 194.691Z" fill="#D3DDF8"/>
<path d="M436.759 217.149C436.759 217.149 454.249 216.568 459.801 215.425L436.357 213.154L436.759 217.149Z" fill="#D3DDF8"/>
<path d="M424.213 199.186C424.213 199.186 426.347 201.357 431.979 203.196L424.646 202.881L424.213 199.186Z" fill="#D3DDF8"/>
<path d="M429.281 220.696L437.128 223.381L436.887 220.216C436.887 220.216 432.025 221.625 429.281 220.696Z" fill="#D3DDF8"/>
<path d="M422.447 187.566C422.447 187.566 459.818 187.881 493.836 184.831C493.836 184.831 496.885 185.676 505.036 187.284C505.036 187.284 455.374 190.234 431.144 189.853C431.128 189.853 429.251 190.549 422.447 187.566Z" fill="#D3DDF8"/>
<path d="M385.21 219.961C385.499 219.961 385.788 219.895 386.061 219.746C386.927 219.265 387.248 218.154 386.767 217.26L368.426 182.439L392.64 150.087L409.328 163.015C410.114 163.628 411.221 163.462 411.815 162.65C412.408 161.838 412.248 160.694 411.462 160.081L393.378 146.06C392.608 145.463 391.5 145.612 390.907 146.408L364.912 181.146C364.479 181.726 364.415 182.505 364.752 183.151L383.638 219.016C383.975 219.613 384.585 219.961 385.21 219.961Z" fill="#0C1540"/>
<path d="M409.65 169.463L418.123 161.623L414.962 157.994C412.86 155.574 409.265 155.375 406.939 157.546C404.596 159.718 404.403 163.43 406.505 165.833L409.65 169.463Z" fill="#0C1540"/>
<path d="M433.467 168.487L414.613 185.955L414.565 185.906L414.276 185.591L407.585 177.868C405.419 175.365 404.344 172.249 404.344 169.133C404.344 166.316 405.226 163.515 406.943 161.178C407.12 160.946 407.296 160.731 407.489 160.499C407.81 160.117 408.147 159.753 408.532 159.405C413.747 154.582 421.754 155.029 426.423 160.399L433.467 168.487Z" fill="#2647C8"/>
<path d="M429.189 171.003C430.039 170.39 430.889 169.743 431.692 169.047L425.065 161.44C420.813 156.551 413.833 155.722 408.698 159.252C408.505 159.484 408.313 159.7 408.152 159.932C412.998 157.844 418.775 159.004 422.465 163.263L429.189 171.003Z" fill="#6F8FE4"/>
<path d="M414.608 185.958C415.923 187.482 421.235 184.814 426.434 179.975C431.648 175.152 434.793 169.997 433.462 168.473C432.499 167.362 429.418 168.489 425.792 171.041C424.444 171.986 423.032 173.146 421.636 174.439C420.224 175.732 418.972 177.058 417.913 178.35C415.057 181.798 413.645 184.847 414.608 185.958Z" fill="#0C1540"/>
<path d="M417.916 178.363C419.89 180.385 423.083 180.484 425.185 178.528C427.287 176.589 427.544 173.291 425.811 171.054C424.463 171.998 423.051 173.159 421.655 174.451C420.243 175.761 418.975 177.086 417.916 178.363Z" fill="url(#paint0_linear_1272_48236)"/>
<path d="M392.326 150.882C394.125 150.882 395.583 149.376 395.583 147.518C395.583 145.66 394.125 144.153 392.326 144.153C390.527 144.153 389.068 145.66 389.068 147.518C389.068 149.376 390.527 150.882 392.326 150.882Z" fill="#6F8FE4"/>
<path d="M392.325 149.455C393.361 149.455 394.202 148.587 394.202 147.516C394.202 146.445 393.361 145.577 392.325 145.577C391.288 145.577 390.447 146.445 390.447 147.516C390.447 148.587 391.288 149.455 392.325 149.455Z" fill="#2647C8"/>
<path d="M367.203 186.186C369.002 186.186 370.46 184.68 370.46 182.821C370.46 180.963 369.002 179.457 367.203 179.457C365.404 179.457 363.945 180.963 363.945 182.821C363.945 184.68 365.404 186.186 367.203 186.186Z" fill="#6F8FE4"/>
<path d="M367.202 184.76C368.238 184.76 369.079 183.892 369.079 182.821C369.079 181.75 368.238 180.882 367.202 180.882C366.165 180.882 365.324 181.75 365.324 182.821C365.324 183.892 366.165 184.76 367.202 184.76Z" fill="#2647C8"/>
<path d="M361.223 225.548H407.435C407.435 221.206 404.017 217.676 399.813 217.676H368.844C364.624 217.692 361.223 221.206 361.223 225.548Z" fill="#2647C8"/>
<path d="M420.194 232.147H343.654V362.001H420.194V232.147Z" fill="#6F8FE4"/>
<path d="M467.824 232.147H406.4V362.001H467.824V232.147Z" fill="#211749"/>
<path d="M467.834 232.147H343.654V240.517H467.834V232.147Z" fill="#1D3599"/>
<path d="M567.609 232.146H561.287V362H567.609V232.146Z" fill="#1D3599"/>
<path d="M561.29 232.146H559.557V361.999H561.29V232.146Z" fill="#6F8FE4"/>
<path d="M571.989 225.549H331.508V233.421H571.989V225.549Z" fill="#6F8FE4"/>
<path d="M571.991 225.55H489.867V233.422H571.991V225.55Z" fill="#2647C8"/>
<path d="M399.001 269.304H351.296C349.258 269.304 347.605 267.597 347.605 265.492V248.604C347.605 246.499 349.258 244.792 351.296 244.792H399.001C401.039 244.792 402.691 246.499 402.691 248.604V265.492C402.707 267.597 401.055 269.304 399.001 269.304Z" fill="#DCE4FB"/>
<path d="M400.801 249.018V265.044C400.801 266.52 399.645 267.713 398.201 267.713H352.117C350.689 267.713 349.518 266.52 349.518 265.044V249.018C349.518 248.537 349.646 248.09 349.871 247.692C350.32 246.897 351.154 246.35 352.117 246.35H398.201C399.164 246.35 399.998 246.897 400.448 247.692C400.672 248.09 400.801 248.554 400.801 249.018Z" fill="#83A5F2"/>
<path opacity="0.36" d="M400.446 247.692H349.869C350.318 246.897 351.153 246.35 352.116 246.35H398.2C399.162 246.35 399.997 246.897 400.446 247.692Z" fill="#0E1766"/>
<path d="M375.159 260.057C376.488 260.057 377.566 258.944 377.566 257.571C377.566 256.198 376.488 255.085 375.159 255.085C373.83 255.085 372.752 256.198 372.752 257.571C372.752 258.944 373.83 260.057 375.159 260.057Z" fill="#E2E9FB"/>
<path d="M399.001 300.745H351.296C349.258 300.745 347.605 299.037 347.605 296.933V280.044C347.605 277.939 349.258 276.232 351.296 276.232H399.001C401.039 276.232 402.691 277.939 402.691 280.044V296.933C402.707 299.037 401.055 300.745 399.001 300.745Z" fill="#DCE4FB"/>
<path d="M400.801 280.456V296.483C400.801 297.958 399.645 299.151 398.201 299.151H352.117C350.689 299.151 349.518 297.958 349.518 296.483V280.456C349.518 279.976 349.646 279.528 349.871 279.131C350.32 278.335 351.154 277.788 352.117 277.788H398.201C399.164 277.788 399.998 278.335 400.448 279.131C400.672 279.528 400.801 279.992 400.801 280.456Z" fill="#83A5F2"/>
<path opacity="0.36" d="M400.446 279.131H349.869C350.318 278.335 351.153 277.788 352.116 277.788H398.2C399.162 277.788 399.997 278.335 400.446 279.131Z" fill="#0E1766"/>
<path d="M375.159 291.496C376.488 291.496 377.566 290.383 377.566 289.01C377.566 287.637 376.488 286.524 375.159 286.524C373.83 286.524 372.752 287.637 372.752 289.01C372.752 290.383 373.83 291.496 375.159 291.496Z" fill="#E2E9FB"/>
<path d="M399.001 332.165H351.296C349.258 332.165 347.605 330.458 347.605 328.354V311.465C347.605 309.36 349.258 307.653 351.296 307.653H399.001C401.039 307.653 402.691 309.36 402.691 311.465V328.354C402.707 330.458 401.055 332.165 399.001 332.165Z" fill="#DCE4FB"/>
<path d="M400.801 311.897V327.923C400.801 329.398 399.645 330.592 398.201 330.592H352.117C350.689 330.592 349.518 329.398 349.518 327.923V311.897C349.518 311.416 349.646 310.969 349.871 310.571C350.32 309.775 351.154 309.229 352.117 309.229H398.201C399.164 309.229 399.998 309.775 400.448 310.571C400.672 310.969 400.801 311.433 400.801 311.897Z" fill="#83A5F2"/>
<path opacity="0.36" d="M400.446 310.571H349.869C350.318 309.775 351.153 309.229 352.116 309.229H398.2C399.162 309.229 399.997 309.775 400.446 310.571Z" fill="#0E1766"/>
<path d="M375.159 322.936C376.488 322.936 377.566 321.823 377.566 320.45C377.566 319.077 376.488 317.964 375.159 317.964C373.83 317.964 372.752 319.077 372.752 320.45C372.752 321.823 373.83 322.936 375.159 322.936Z" fill="#E2E9FB"/>
<defs>
<linearGradient id="paint0_linear_1272_48236" x1="427.357" y1="172.845" x2="419.244" y2="179.893" gradientUnits="userSpaceOnUse">
<stop offset="1.09e-06" stop-color="#FFD000"/>
<stop offset="1" stop-color="#FF7300"/>
</linearGradient>
</defs>
</svg>
