<svg width="50" height="50" viewBox="0 0 50 50" fill="none" xmlns="http://www.w3.org/2000/svg">
<path d="M46.875 37.5V43.75C46.875 45.4734 45.4734 46.875 43.75 46.875H6.25C4.52656 46.875 3.125 45.4734 3.125 43.75V37.5C3.125 36.6375 3.82344 35.9375 4.6875 35.9375C5.55156 35.9375 6.25 36.6375 6.25 37.5V43.75H43.75V37.5C43.75 36.6375 44.4484 35.9375 45.3125 35.9375C46.1766 35.9375 46.875 36.6375 46.875 37.5Z" fill="#518FF5"/>
<path d="M12.9578 16.7297C12.3469 16.1188 12.3469 15.1313 12.9578 14.5203L23.8938 3.58438C24.5047 2.97188 25.5031 2.97969 26.1063 3.58438L37.0422 14.5203C37.6531 15.1313 37.6531 16.1188 37.0422 16.7297C36.7375 17.0344 36.3375 17.1875 35.9375 17.1875C35.5375 17.1875 35.1375 17.0344 34.8328 16.7297L26.5625 8.45938V35.9375C26.5625 36.8 25.8641 37.5 25 37.5C24.136 37.5 23.4375 36.8 23.4375 35.9375V8.45938L15.1672 16.7297C14.5563 17.3406 13.5688 17.3406 12.9578 16.7297Z" fill="#518FF5"/>
</svg>
