<svg width="18" height="23" viewBox="0 0 18 23" fill="none" xmlns="http://www.w3.org/2000/svg">
<path d="M2 1C0.8954 1 0 1.9 0 3V11V15V21C0 22.1 0.8954 23 2 23H16C17.105 23 18 22.1 18 21V15V11V7L12 1H2Z" fill="#008BF5"/>
<path d="M2 0C0.8954 0 0 0.9 0 2V10V14V20C0 21.1 0.8954 22 2 22H16C17.105 22 18 21.1 18 20V14V10V6L12 0H2Z" fill="#008BF5"/>
<path d="M18 6L12 0V4C12 5.1 12.895 6 14 6H18Z" fill="#4DAEF8"/>
<path d="M5.74512 10.916C5.66536 10.916 5.62549 10.868 5.62549 10.772V10.5718C5.62549 10.4757 5.66536 10.4277 5.74512 10.4277C5.83138 10.4277 5.92253 10.3862 6.01855 10.3032C6.11458 10.2186 6.1626 10.0265 6.1626 9.72705V9.03125C6.1626 8.75944 6.22526 8.57796 6.35059 8.48682C6.47591 8.39404 6.74528 8.34766 7.15869 8.34766C7.25635 8.34766 7.30518 8.38835 7.30518 8.46973V8.71387C7.30518 8.79525 7.25635 8.83594 7.15869 8.83594C7.00081 8.83594 6.90885 8.87419 6.88281 8.95068C6.8584 9.02718 6.84619 9.1167 6.84619 9.21924V9.8418C6.84619 10.1087 6.79167 10.3032 6.68262 10.4253C6.57357 10.5474 6.43197 10.6287 6.25781 10.6694V10.6743C6.43197 10.715 6.57357 10.7964 6.68262 10.9185C6.79167 11.0405 6.84619 11.235 6.84619 11.502V12.1245C6.84619 12.2271 6.8584 12.3166 6.88281 12.3931C6.90885 12.4696 7.00081 12.5078 7.15869 12.5078C7.25635 12.5078 7.30518 12.5485 7.30518 12.6299V12.874C7.30518 12.9554 7.25635 12.9961 7.15869 12.9961C6.74528 12.9961 6.47591 12.9497 6.35059 12.8569C6.22526 12.7658 6.1626 12.5843 6.1626 12.3125V11.6167C6.1626 11.3172 6.11458 11.126 6.01855 11.043C5.92253 10.9583 5.83138 10.916 5.74512 10.916ZM9.43652 12.9961C9.33887 12.9961 9.29004 12.9554 9.29004 12.874V12.6299C9.29004 12.5485 9.33887 12.5078 9.43652 12.5078C9.5944 12.5078 9.68555 12.4696 9.70996 12.3931C9.736 12.3166 9.74902 12.2271 9.74902 12.1245V11.502C9.74902 11.235 9.80355 11.0405 9.9126 10.9185C10.0216 10.7964 10.1632 10.715 10.3374 10.6743V10.6694C10.1632 10.6287 10.0216 10.5474 9.9126 10.4253C9.80355 10.3032 9.74902 10.1087 9.74902 9.8418V9.21924C9.74902 9.1167 9.736 9.02718 9.70996 8.95068C9.68555 8.87419 9.5944 8.83594 9.43652 8.83594C9.33887 8.83594 9.29004 8.79525 9.29004 8.71387V8.46973C9.29004 8.38835 9.33887 8.34766 9.43652 8.34766C9.84993 8.34766 10.1193 8.39404 10.2446 8.48682C10.37 8.57796 10.4326 8.75944 10.4326 9.03125V9.72705C10.4326 10.0265 10.4806 10.2186 10.5767 10.3032C10.6727 10.3862 10.7638 10.4277 10.8501 10.4277C10.9299 10.4277 10.9697 10.4757 10.9697 10.5718V10.772C10.9697 10.868 10.9299 10.916 10.8501 10.916C10.7638 10.916 10.6727 10.9583 10.5767 11.043C10.4806 11.126 10.4326 11.3172 10.4326 11.6167V12.3125C10.4326 12.5843 10.37 12.7658 10.2446 12.8569C10.1193 12.9497 9.84993 12.9961 9.43652 12.9961ZM2.21973 18.9536C2.13346 18.9032 2.10091 18.8421 2.12207 18.7705L2.22461 18.436C2.25391 18.34 2.3304 18.3302 2.4541 18.4067C2.5599 18.4735 2.6779 18.5068 2.80811 18.5068C2.98714 18.5068 3.10352 18.445 3.15723 18.3213C3.21257 18.1976 3.24023 17.9917 3.24023 17.7036V15.6821C3.24023 15.5601 3.2972 15.499 3.41113 15.499H3.78223C3.89616 15.499 3.95312 15.5601 3.95312 15.6821V17.6548C3.95312 18.2537 3.85221 18.6419 3.65039 18.8193C3.4502 18.9951 3.17188 19.083 2.81543 19.083C2.56641 19.083 2.36784 19.0399 2.21973 18.9536ZM4.74658 18.7388C4.64567 18.6623 4.62126 18.585 4.67334 18.5068L4.86133 18.2236C4.92318 18.1309 5.01351 18.126 5.13232 18.209C5.22347 18.2725 5.34229 18.3384 5.48877 18.4067C5.63688 18.4735 5.79232 18.5068 5.95508 18.5068C6.06901 18.5068 6.17887 18.4938 6.28467 18.4678C6.39046 18.4417 6.47103 18.3913 6.52637 18.3164C6.58171 18.2415 6.60938 18.1528 6.60938 18.0503C6.60938 17.9771 6.59717 17.9128 6.57275 17.8574C6.54834 17.8021 6.50846 17.7565 6.45312 17.7207C6.39779 17.6849 6.34082 17.6548 6.28223 17.6304C6.17969 17.5881 6.05029 17.5465 5.89404 17.5059C5.73942 17.4635 5.58643 17.4131 5.43506 17.3545C5.29997 17.3024 5.17627 17.2308 5.06396 17.1396C4.95166 17.0485 4.86458 16.946 4.80273 16.832C4.74089 16.7181 4.70996 16.5659 4.70996 16.3755C4.70996 16.1493 4.7832 15.9556 4.92969 15.7944C5.07617 15.6333 5.24463 15.5299 5.43506 15.4844C5.62549 15.4388 5.81755 15.416 6.01123 15.416C6.20329 15.416 6.40104 15.4453 6.60449 15.5039C6.80957 15.5625 6.96419 15.6357 7.06836 15.7236C7.1709 15.8099 7.19613 15.888 7.14404 15.958L6.94629 16.2241C6.87956 16.3153 6.79004 16.3226 6.67773 16.2461C6.60612 16.1973 6.50765 16.1427 6.38232 16.0825C6.25863 16.0223 6.12923 15.9922 5.99414 15.9922C5.89811 15.9922 5.80941 16.0003 5.72803 16.0166C5.64827 16.0329 5.57747 16.0719 5.51562 16.1338C5.45378 16.1956 5.42285 16.2721 5.42285 16.3633C5.42285 16.4512 5.44564 16.5228 5.49121 16.5781C5.53678 16.6318 5.58724 16.6725 5.64258 16.7002C5.69792 16.7262 5.75407 16.7482 5.81104 16.7661C5.98682 16.8231 6.14388 16.8735 6.28223 16.9175C6.42057 16.9598 6.54834 17.007 6.66553 17.0591C6.82829 17.1323 6.9528 17.2056 7.03906 17.2788C7.12533 17.3521 7.19613 17.4521 7.25146 17.5791C7.30843 17.7061 7.33691 17.8574 7.33691 18.0332C7.33691 18.2936 7.25391 18.5093 7.08789 18.6802C6.92188 18.8494 6.73714 18.9585 6.53369 19.0073C6.33187 19.0578 6.13493 19.083 5.94287 19.083C5.65967 19.083 5.42936 19.0553 5.25195 19C5.07454 18.9463 4.90609 18.8592 4.74658 18.7388ZM7.71777 17.2495C7.71777 16.688 7.86263 16.242 8.15234 15.9116C8.44206 15.5812 8.85547 15.416 9.39258 15.416C9.92969 15.416 10.3431 15.5812 10.6328 15.9116C10.9225 16.242 11.0674 16.688 11.0674 17.2495C11.0674 17.811 10.9225 18.257 10.6328 18.5874C10.3431 18.9178 9.92969 19.083 9.39258 19.083C8.85547 19.083 8.44206 18.9178 8.15234 18.5874C7.86263 18.257 7.71777 17.811 7.71777 17.2495ZM8.47949 17.2495C8.47949 17.6564 8.55192 17.9681 8.69678 18.1846C8.84326 18.3994 9.0752 18.5068 9.39258 18.5068C9.70996 18.5068 9.94108 18.3994 10.0859 18.1846C10.2324 17.9681 10.3057 17.6564 10.3057 17.2495C10.3057 16.8426 10.2324 16.5317 10.0859 16.3169C9.94108 16.1004 9.70996 15.9922 9.39258 15.9922C9.0752 15.9922 8.84326 16.1004 8.69678 16.3169C8.55192 16.5317 8.47949 16.8426 8.47949 17.2495ZM11.8389 19C11.7249 19 11.668 18.939 11.668 18.8169V15.6821C11.668 15.5601 11.7249 15.499 11.8389 15.499H12.2002C12.3402 15.499 12.446 15.556 12.5176 15.6699L13.7627 17.6694H13.7798C13.7716 17.5718 13.7676 17.4741 13.7676 17.3765V15.6821C13.7676 15.5601 13.8245 15.499 13.9385 15.499H14.3096C14.4235 15.499 14.4805 15.5601 14.4805 15.6821V18.8169C14.4805 18.939 14.4235 19 14.3096 19H13.9727C13.8327 19 13.7269 18.943 13.6553 18.8291L12.3857 16.793H12.3687C12.3768 16.8906 12.3809 16.9883 12.3809 17.0859V18.8169C12.3809 18.939 12.3239 19 12.21 19H11.8389Z" fill="white"/>
</svg>
