<svg width="18" height="23" viewBox="0 0 18 23" fill="none" xmlns="http://www.w3.org/2000/svg">
<path d="M2 1C0.8954 1 0 1.9 0 3V11V15V21C0 22.1 0.8954 23 2 23H16C17.105 23 18 22.1 18 21V15V11V7L12 1H2Z" fill="#E5252A"/>
<path d="M2 0C0.8954 0 0 0.9 0 2V10V14V20C0 21.1 0.8954 22 2 22H16C17.105 22 18 21.1 18 20V14V10V6L12 0H2Z" fill="#E5252A"/>
<path d="M18 6L12 0V4C12 5.1 12.895 6 14 6H18Z" fill="#ED676A"/>
<path d="M2.78613 19C2.62663 19 2.54688 18.9146 2.54688 18.7437V14.355C2.54688 14.1841 2.62663 14.0986 2.78613 14.0986H4.06445C4.88477 14.0986 5.45329 14.2319 5.77002 14.4985C6.08903 14.7651 6.24854 15.1434 6.24854 15.6333C6.24854 16.1232 6.08903 16.5015 5.77002 16.7681C5.45329 17.0347 4.88477 17.168 4.06445 17.168H3.54492V18.7437C3.54492 18.9146 3.46517 19 3.30566 19H2.78613ZM3.54492 16.334H4.06104C4.51676 16.334 4.82666 16.2804 4.99072 16.1733C5.15479 16.064 5.23682 15.884 5.23682 15.6333C5.23682 15.3826 5.15479 15.2038 4.99072 15.0967C4.82666 14.9873 4.51676 14.9326 4.06104 14.9326H3.54492V16.334ZM7.3252 19C7.16569 19 7.08594 18.9146 7.08594 18.7437V14.355C7.08594 14.1841 7.16569 14.0986 7.3252 14.0986H8.51807C9.56624 14.0986 10.2749 14.3105 10.644 14.7344C11.0155 15.1582 11.2012 15.7609 11.2012 16.5425C11.2012 17.3241 11.0155 17.929 10.644 18.3574C10.2749 18.7858 9.56624 19 8.51807 19H7.3252ZM8.08398 18.1523H8.45312C9.15951 18.1523 9.61637 18.0213 9.82373 17.7593C10.0311 17.495 10.1348 17.0894 10.1348 16.5425C10.1348 15.9956 10.0311 15.5923 9.82373 15.3325C9.61637 15.0705 9.15951 14.9395 8.45312 14.9395H8.08398V18.1523ZM12.2812 19C12.1217 19 12.042 18.9146 12.042 18.7437V14.355C12.042 14.1841 12.1217 14.0986 12.2812 14.0986H14.9849C15.1558 14.0986 15.2412 14.1727 15.2412 14.3208V14.7241C15.2412 14.8722 15.1558 14.9463 14.9849 14.9463H13.04V16.1357H14.7046C14.8755 16.1357 14.9609 16.2098 14.9609 16.3579V16.7612C14.9609 16.9093 14.8755 16.9834 14.7046 16.9834H13.04V18.7437C13.04 18.9146 12.9603 19 12.8008 19H12.2812Z" fill="white"/>
</svg>
