<svg width="18" height="23" viewBox="0 0 18 23" fill="none" xmlns="http://www.w3.org/2000/svg">
<path d="M2 1C0.8954 1 0 1.9 0 3V11V15V21C0 22.1 0.8954 23 2 23H16C17.105 23 18 22.1 18 21V15V11V7L12 1H2Z" fill="#00733B"/>
<path d="M2 0C0.8954 0 0 0.9 0 2V10V14V20C0 21.1 0.8954 22 2 22H16C17.105 22 18 21.1 18 20V14V10V6L12 0H2Z" fill="#00733B"/>
<path d="M18 6L12 0V4C12 5.1 12.895 6 14 6H18Z" fill="#4D9D76"/>
<path d="M2.56738 19C2.34863 19 2.30534 18.902 2.4375 18.7061L3.95166 16.4707L2.56055 14.3926C2.42839 14.1966 2.47168 14.0986 2.69043 14.0986H3.38086C3.50163 14.0986 3.60417 14.1659 3.68848 14.3003L4.62158 15.7769L5.55469 14.3003C5.639 14.1659 5.74154 14.0986 5.8623 14.0986H6.55273C6.77148 14.0986 6.81478 14.1966 6.68262 14.3926L5.28809 16.4707L6.80566 18.7061C6.93783 18.902 6.89453 19 6.67578 19H5.9751C5.85661 19 5.75407 18.9328 5.66748 18.7983L4.62158 17.1646L3.57568 18.7983C3.4891 18.9328 3.38656 19 3.26807 19H2.56738ZM7.63281 19C7.47331 19 7.39355 18.9146 7.39355 18.7437V14.355C7.39355 14.1841 7.47331 14.0986 7.63281 14.0986H8.18652C8.32324 14.0986 8.3916 14.1841 8.3916 14.355V18.1523H10.3843C10.5552 18.1523 10.6406 18.2264 10.6406 18.3745V18.7778C10.6406 18.9259 10.5552 19 10.3843 19H7.63281ZM11.4233 18.6343C11.2821 18.5272 11.2479 18.4189 11.3208 18.3096L11.584 17.9131C11.6706 17.7832 11.797 17.7764 11.9634 17.8926C12.091 17.9814 12.2573 18.0737 12.4624 18.1694C12.6698 18.2629 12.8874 18.3096 13.1152 18.3096C13.2747 18.3096 13.4285 18.2913 13.5767 18.2549C13.7248 18.2184 13.8376 18.1478 13.915 18.043C13.9925 17.9382 14.0312 17.814 14.0312 17.6704C14.0312 17.5679 14.0142 17.4779 13.98 17.4004C13.9458 17.3229 13.89 17.2591 13.8125 17.209C13.735 17.1589 13.6553 17.1167 13.5732 17.0825C13.4297 17.0233 13.2485 16.9652 13.0298 16.9082C12.8133 16.849 12.5991 16.7783 12.3872 16.6963C12.1981 16.6234 12.0249 16.5231 11.8677 16.3955C11.7104 16.2679 11.5885 16.1243 11.502 15.9648C11.4154 15.8053 11.3721 15.5923 11.3721 15.3257C11.3721 15.009 11.4746 14.7378 11.6797 14.5122C11.8848 14.2866 12.1206 14.1419 12.3872 14.0781C12.6538 14.0143 12.9227 13.9824 13.1938 13.9824C13.4627 13.9824 13.7396 14.0234 14.0244 14.1055C14.3115 14.1875 14.528 14.29 14.6738 14.4131C14.8174 14.5339 14.8527 14.6432 14.7798 14.7412L14.5029 15.1138C14.4095 15.2414 14.2842 15.2516 14.127 15.1445C14.0267 15.0762 13.8888 14.9998 13.7134 14.9155C13.5402 14.8312 13.359 14.7891 13.1699 14.7891C13.0355 14.7891 12.9113 14.8005 12.7974 14.8232C12.6857 14.846 12.5866 14.9007 12.5 14.9873C12.4134 15.0739 12.3701 15.181 12.3701 15.3086C12.3701 15.4316 12.402 15.5319 12.4658 15.6094C12.5296 15.6846 12.6003 15.7415 12.6777 15.7803C12.7552 15.8167 12.8338 15.8475 12.9136 15.8726C13.1597 15.9523 13.3796 16.0229 13.5732 16.0845C13.7669 16.1437 13.9458 16.2098 14.1099 16.2827C14.3377 16.3853 14.512 16.4878 14.6328 16.5903C14.7536 16.6929 14.8527 16.833 14.9302 17.0107C15.0099 17.1885 15.0498 17.4004 15.0498 17.6465C15.0498 18.0111 14.9336 18.313 14.7012 18.5522C14.4688 18.7892 14.2101 18.9419 13.9253 19.0103C13.6427 19.0809 13.367 19.1162 13.0981 19.1162C12.7017 19.1162 12.3792 19.0775 12.1309 19C11.8825 18.9248 11.6466 18.8029 11.4233 18.6343Z" fill="white"/>
</svg>
