<svg width="18" height="23" viewBox="0 0 18 23" fill="none" xmlns="http://www.w3.org/2000/svg">
<path d="M2 1C0.8954 1 0 1.9 0 3V11V15V21C0 22.1 0.8954 23 2 23H16C17.105 23 18 22.1 18 21V15V11V7L12 1H2Z" fill="#7542ED"/>
<path d="M2 0C0.8954 0 0 0.9 0 2V10V14V20C0 21.1 0.8954 22 2 22H16C17.105 22 18 21.1 18 20V14V10V6L12 0H2Z" fill="#7542ED"/>
<path d="M18 6L12 0V4C12 5.1 12.895 6 14 6H18Z" fill="#9F7BF2"/>
<path d="M2.56738 19C2.34863 19 2.30534 18.902 2.4375 18.7061L3.95166 16.4707L2.56055 14.3926C2.42839 14.1966 2.47168 14.0986 2.69043 14.0986H3.38086C3.50163 14.0986 3.60417 14.1659 3.68848 14.3003L4.62158 15.7769L5.55469 14.3003C5.639 14.1659 5.74154 14.0986 5.8623 14.0986H6.55273C6.77148 14.0986 6.81478 14.1966 6.68262 14.3926L5.28809 16.4707L6.80566 18.7061C6.93783 18.902 6.89453 19 6.67578 19H5.9751C5.85661 19 5.75407 18.9328 5.66748 18.7983L4.62158 17.1646L3.57568 18.7983C3.4891 18.9328 3.38656 19 3.26807 19H2.56738ZM7.63281 19C7.47331 19 7.39355 18.9146 7.39355 18.7437V14.355C7.39355 14.1841 7.47331 14.0986 7.63281 14.0986H8.62402C8.75618 14.0986 8.85075 14.1898 8.90771 14.3721L9.83398 17.3696C9.875 17.4995 9.90348 17.6066 9.91943 17.6909C9.93538 17.7729 9.94906 17.8709 9.96045 17.9849H9.98096C9.99235 17.8709 10.006 17.7729 10.022 17.6909C10.0379 17.6066 10.0664 17.4995 10.1074 17.3696L11.0337 14.3721C11.0907 14.1898 11.1852 14.0986 11.3174 14.0986H12.3086C12.4681 14.0986 12.5479 14.1841 12.5479 14.355V18.7437C12.5479 18.9146 12.4681 19 12.3086 19H11.7891C11.6296 19 11.5498 18.9146 11.5498 18.7437V15.9204C11.5498 15.7837 11.5555 15.647 11.5669 15.5103H11.543L10.5552 18.7231C10.4982 18.9077 10.4002 19 10.2612 19H9.68018C9.54118 19 9.4432 18.9077 9.38623 18.7231L8.39844 15.5103H8.37451C8.3859 15.647 8.3916 15.7837 8.3916 15.9204V18.7437C8.3916 18.9146 8.31185 19 8.15234 19H7.63281ZM13.8809 19C13.7214 19 13.6416 18.9146 13.6416 18.7437V14.355C13.6416 14.1841 13.7214 14.0986 13.8809 14.0986H14.4346C14.5713 14.0986 14.6396 14.1841 14.6396 14.355V18.1523H16.6323C16.8032 18.1523 16.8887 18.2264 16.8887 18.3745V18.7778C16.8887 18.9259 16.8032 19 16.6323 19H13.8809Z" fill="white"/>
</svg>
