<svg width="342" height="236" viewBox="0 0 342 236" fill="none" xmlns="http://www.w3.org/2000/svg">
<path d="M170.623 235.86C264.856 235.86 341.246 231.583 341.246 226.306C341.246 221.029 264.856 216.752 170.623 216.752C76.3906 216.752 0 221.029 0 226.306C0 231.583 76.3906 235.86 170.623 235.86Z" fill="#ADB5BD"/>
<path d="M59.6677 202.301C59.6677 202.301 58.4445 193.717 52.7245 192.772C46.9957 191.835 48.7293 187.683 47.2333 186.071C45.7373 184.467 41.8477 189.202 45.1829 193.802C48.5181 198.393 45.7901 196.95 47.2333 201.221C48.6677 205.491 60.1869 209.416 59.6677 202.301Z" fill="#263238"/>
<path opacity="0.2" d="M59.6677 202.301C59.6677 202.301 58.4445 193.717 52.7245 192.772C46.9957 191.835 48.7293 187.683 47.2333 186.071C45.7373 184.467 41.8477 189.202 45.1829 193.802C48.5181 198.393 45.7901 196.95 47.2333 201.221C48.6677 205.491 60.1869 209.416 59.6677 202.301Z" fill="white"/>
<path d="M59.4295 207.87C59.4295 207.87 55.0383 199.126 57.3439 184.846C59.6495 170.565 68.2999 165.028 60.7759 149.322C53.2519 133.615 44.6631 122.415 48.9575 111.266" stroke="#263238" stroke-width="0.9024" stroke-miterlimit="10" stroke-linecap="round" stroke-linejoin="round"/>
<path d="M56.1204 206.157C56.1204 206.157 52.4156 200.806 57.766 198.054C63.1076 195.303 64.1812 197.522 67.4812 195.539C70.7812 193.556 73.2892 188.77 73.8524 191.834C74.4156 194.898 70.5964 196.653 71.9516 198.054C73.298 199.464 62.9668 208.57 56.1204 206.157Z" fill="#263238"/>
<path d="M47.39 115.731C47.39 115.731 43.782 105.223 51.9836 105.004C60.1852 104.784 51.1476 114.617 47.39 115.731Z" fill="#263238"/>
<path d="M54.5195 123.817C54.5195 123.817 56.9659 114.263 62.7827 116.272C68.5995 118.289 60.3187 123.994 54.5195 123.817Z" fill="#263238"/>
<path d="M44.6366 124.644C44.6366 124.644 45.5166 117.014 39.339 116.862C33.1614 116.71 35.9158 123.411 44.6366 124.644Z" fill="#263238"/>
<path d="M48.747 140.198C48.747 140.198 40.4574 133.108 37.4742 138.383C34.4998 143.667 43.731 144.764 48.747 140.198Z" fill="#263238"/>
<path d="M63.416 138.94C63.416 138.94 64.9736 127.166 71.6704 130.863C78.3672 134.56 69.2504 140.122 63.416 138.94Z" fill="#263238"/>
<path d="M69.3118 155.796C69.3118 155.796 64.3662 143.904 73.5533 145.246C82.7405 146.588 75.7885 152.91 69.3118 155.796Z" fill="#263238"/>
<path d="M55.2142 160.041C55.2142 160.041 47.4526 151.281 41.5302 154.057C35.599 156.834 40.4478 165.553 55.2142 160.041Z" fill="#263238"/>
<path d="M62.2539 179.462C62.2539 179.462 68.8627 165.384 74.7411 170.127C80.6107 174.879 70.9923 181.968 62.2539 179.462Z" fill="#263238"/>
<path d="M52.6523 178.635C52.6523 178.635 54.3947 167.713 47.8563 168.591C41.3179 169.469 43.0251 176.153 52.6523 178.635Z" fill="#263238"/>
<g opacity="0.2">
<path opacity="0.2" d="M47.39 115.731C47.39 115.731 43.782 105.223 51.9836 105.004C60.1852 104.784 51.1476 114.617 47.39 115.731Z" fill="white"/>
<path opacity="0.2" d="M54.5195 123.817C54.5195 123.817 56.9659 114.263 62.7827 116.272C68.5995 118.289 60.3187 123.994 54.5195 123.817Z" fill="white"/>
<path opacity="0.2" d="M44.6366 124.644C44.6366 124.644 45.5166 117.014 39.339 116.862C33.1614 116.71 35.9158 123.411 44.6366 124.644Z" fill="white"/>
<path opacity="0.2" d="M48.747 140.198C48.747 140.198 40.4574 133.108 37.4742 138.383C34.4998 143.667 43.731 144.764 48.747 140.198Z" fill="white"/>
<path opacity="0.2" d="M63.416 138.94C63.416 138.94 64.9736 127.166 71.6704 130.863C78.3672 134.56 69.2504 140.122 63.416 138.94Z" fill="white"/>
<path opacity="0.2" d="M69.3118 155.796C69.3118 155.796 64.3662 143.904 73.5533 145.246C82.7405 146.588 75.7885 152.91 69.3118 155.796Z" fill="white"/>
<path opacity="0.2" d="M55.2142 160.041C55.2142 160.041 47.4526 151.281 41.5302 154.057C35.599 156.834 40.4478 165.553 55.2142 160.041Z" fill="white"/>
<path opacity="0.2" d="M62.2539 179.462C62.2539 179.462 68.8627 165.384 74.7411 170.127C80.6107 174.879 70.9923 181.968 62.2539 179.462Z" fill="white"/>
<path opacity="0.2" d="M52.6523 178.635C52.6523 178.635 54.3947 167.713 47.8563 168.591C41.3179 169.469 43.0251 176.153 52.6523 178.635Z" fill="white"/>
</g>
<path d="M42.5859 122.145C42.5859 122.145 46.1147 127.175 50.9371 129.766C50.9371 129.766 54.1315 123.858 56.6219 122.423" stroke="#263238" stroke-width="0.9024" stroke-miterlimit="10" stroke-linecap="round" stroke-linejoin="round"/>
<path d="M42.3848 139.498C42.3848 139.498 51.352 139.219 58.4536 144.368C58.4536 144.368 62.396 137.962 67.5704 135.033" stroke="#263238" stroke-width="0.9024" stroke-miterlimit="10" stroke-linecap="round" stroke-linejoin="round"/>
<path d="M72.0133 150.166C72.0133 150.166 68.1589 159.889 63.2485 163.67C63.2485 163.67 53.0581 158.007 45.5781 157.863" stroke="#263238" stroke-width="0.9024" stroke-miterlimit="10" stroke-linecap="round" stroke-linejoin="round"/>
<path d="M48.6152 172.135C48.6152 172.135 53.6488 181.562 57.4064 183.622C57.4064 183.622 60.9176 178.87 68.512 176.684" stroke="#263238" stroke-width="0.9024" stroke-miterlimit="10" stroke-linecap="round" stroke-linejoin="round"/>
<path d="M56.6935 204.883C56.6935 204.883 53.5167 200.038 49.9351 199.346C46.3535 198.654 44.8047 194.696 43.4847 197.076C42.1647 199.464 45.8079 207.356 56.6935 204.883Z" fill="#263238"/>
<path d="M40.2187 223.897H74.8731L77.1963 203.396H37.9043L40.2187 223.897Z" fill="#407BFF"/>
<path d="M37.0944 207.28H78.0056L78.5248 202.941H36.5664L37.0944 207.28Z" fill="#407BFF"/>
<path opacity="0.3" d="M37.0944 207.28H78.0056L78.5248 202.941H36.5664L37.0944 207.28Z" fill="white"/>
<path d="M305.321 8.91211L302.312 36.6375H287.246L284.236 8.91211H305.321Z" fill="white"/>
<path opacity="0.3" d="M305.321 8.91211L302.312 36.6375H287.246L284.236 8.91211H305.321Z" fill="white"/>
<path d="M297.576 30.6797H291.971V230.623H297.576V30.6797Z" fill="white"/>
<path opacity="0.3" d="M297.576 30.6797H291.971V230.623H297.576V30.6797Z" fill="white"/>
<path d="M300.727 34.949H288.829L286.189 10.5996H303.367L300.727 34.949Z" fill="white"/>
<path opacity="0.4" d="M300.727 34.949H288.829L286.189 10.5996H303.367L300.727 34.949Z" fill="white"/>
<path d="M293.211 35.3291H292.401L291.521 9.75586H292.331L293.211 35.3291Z" fill="white"/>
<path opacity="0.3" d="M293.211 35.3291H292.401L291.521 9.75586H292.331L293.211 35.3291Z" fill="white"/>
<path opacity="0.2" d="M305.321 8.91211L302.311 36.6375H292.842L291.707 8.91211H305.321Z" fill="white"/>
<path d="M294.778 0C294.778 0 285.846 8.45688 279 8.45688L281.121 9.7904H294.778H308.436L310.557 8.45688C303.71 8.45688 294.778 0 294.778 0Z" fill="white"/>
<path opacity="0.4" d="M310.557 8.45688L308.436 9.7904H281.121L279 8.45688C285.846 8.45688 294.778 0 294.778 0C294.778 0 303.71 8.45688 310.557 8.45688Z" fill="white"/>
<path opacity="0.2" d="M310.556 8.45688L308.435 9.7904H290.695C290.158 8.95484 289.779 8.34715 289.779 8.34715C294.54 6.22871 294.778 0 294.778 0C294.778 0 303.71 8.45688 310.556 8.45688Z" fill="white"/>
<path d="M299.592 226.926H289.965C288.759 226.926 287.791 227.863 287.791 229.011V230.623H301.765V229.011C301.765 227.854 300.789 226.926 299.592 226.926Z" fill="white"/>
<path opacity="0.5" d="M299.592 226.926H289.965C288.759 226.926 287.791 227.863 287.791 229.011V230.623H301.765V229.011C301.765 227.854 300.789 226.926 299.592 226.926Z" fill="white"/>
<path d="M174.07 14H148.788C144.485 14 141 17.3422 141 21.4694V42.5694C141 46.6966 144.485 50.0388 148.788 50.0388H158.785L161.425 56.698L164.065 50.0388H174.062C178.365 50.0388 181.85 46.6966 181.85 42.5694V21.4694C181.85 17.3422 178.365 14 174.07 14Z" fill="#407BFF"/>
<path opacity="0.7" d="M174.07 14H148.788C144.485 14 141 17.3422 141 21.4694V42.5694C141 46.6966 144.485 50.0388 148.788 50.0388H158.785L161.425 56.698L164.065 50.0388H174.062C178.365 50.0388 181.85 46.6966 181.85 42.5694V21.4694C181.85 17.3422 178.365 14 174.07 14Z" fill="white"/>
<path d="M161.426 43.9615C168.356 43.9615 173.975 38.573 173.975 31.9261C173.975 25.2791 168.356 19.8906 161.426 19.8906C154.495 19.8906 148.877 25.2791 148.877 31.9261C148.877 38.573 154.495 43.9615 161.426 43.9615Z" fill="#407BFF"/>
<path d="M160.115 37.303C159.772 37.303 159.455 37.1596 159.235 36.9148L154.316 31.3528C153.902 30.8886 153.964 30.1881 154.448 29.7914C154.932 29.3948 155.662 29.4538 156.076 29.918L160.124 34.4841L166.803 26.9387C167.216 26.4745 167.947 26.4154 168.431 26.8121C168.915 27.2088 168.976 27.9093 168.563 28.3735L161.004 36.9148C160.775 37.1596 160.449 37.303 160.115 37.303Z" fill="white"/>
<path d="M262.347 226.11H268.155L256.275 161.797H250.467L262.347 226.11Z" fill="white"/>
<path d="M134.607 226.11H140.423L128.543 161.797H122.727L134.607 226.11Z" fill="white"/>
<path opacity="0.3" d="M262.347 226.11H268.155L256.275 161.797H250.467L262.347 226.11Z" fill="white"/>
<path opacity="0.3" d="M134.607 226.11H140.423L128.543 161.797H122.727L134.607 226.11Z" fill="white"/>
<path d="M259.311 193.953H84.0586V199.6H259.311V193.953Z" fill="white"/>
<path opacity="0.5" d="M259.311 193.953H84.0586V199.6H259.311V193.953Z" fill="white"/>
<path d="M208.755 226.11H202.947L214.827 161.797H220.635L208.755 226.11Z" fill="white"/>
<path d="M81.0228 226.11H75.2148L87.086 161.797H92.9028L81.0228 226.11Z" fill="white"/>
<path opacity="0.3" d="M208.755 226.11H202.947L214.827 161.797H220.635L208.755 226.11Z" fill="white"/>
<path opacity="0.3" d="M81.0228 226.11H75.2148L87.086 161.797H92.9028L81.0228 226.11Z" fill="white"/>
<path d="M133.717 159.298H139.498L149.178 107.688H143.397L133.717 159.298Z" fill="white"/>
<path opacity="0.3" d="M133.717 159.298H139.498L149.178 107.688H143.397L133.717 159.298Z" fill="white"/>
<path d="M248.549 159.298H254.33L264.01 107.688H258.229L248.549 159.298Z" fill="white"/>
<path d="M191.129 159.298H196.91L206.59 107.688H200.809L191.129 159.298Z" fill="white"/>
<path opacity="0.3" d="M248.549 159.298H254.33L264.01 107.688H258.229L248.549 159.298Z" fill="white"/>
<path opacity="0.3" d="M191.129 159.298H196.91L206.59 107.688H200.809L191.129 159.298Z" fill="white"/>
<path d="M123.729 111.216H275.59L277.403 101.561H125.541L123.729 111.216Z" fill="white"/>
<path d="M120.455 128.687H272.317L274.129 119.031H122.268L120.455 128.687Z" fill="white"/>
<path d="M117.172 146.166H269.034L270.846 136.502H118.985L117.172 146.166Z" fill="white"/>
<path d="M267.538 157.779H74V164.464H267.538V157.779Z" fill="white"/>
<path opacity="0.5" d="M123.729 111.216H275.59L277.403 101.561H125.541L123.729 111.216Z" fill="white"/>
<path opacity="0.5" d="M120.455 128.687H272.317L274.129 119.031H122.268L120.455 128.687Z" fill="white"/>
<path opacity="0.5" d="M117.172 146.166H269.034L270.846 136.502H118.985L117.172 146.166Z" fill="white"/>
<path opacity="0.5" d="M267.538 157.779H74V164.464H267.538V157.779Z" fill="white"/>
<path opacity="0.2" d="M220.018 157.779H74V164.464H220.018V157.779Z" fill="white"/>
<path d="M205.049 88.9247C202.585 91.5411 200.068 93.955 197.323 96.3013C195.95 97.466 194.533 98.6138 192.984 99.711C192.21 100.26 191.4 100.808 190.485 101.34C190.027 101.602 189.535 101.863 188.98 102.125C188.417 102.378 187.801 102.648 186.895 102.868C186.419 102.969 185.865 103.07 185.082 103.045C184.879 103.036 184.642 103.011 184.457 102.977L184.14 102.91C183.929 102.859 183.709 102.809 183.515 102.758C182.785 102.53 182.16 102.251 181.641 101.973C180.585 101.407 179.749 100.808 178.957 100.201C177.382 98.9936 176.079 97.7108 174.803 96.411C172.295 93.7861 170.122 91.06 168.107 88.1229C167.438 87.1523 167.728 85.8441 168.74 85.2111C169.576 84.6878 170.641 84.7807 171.363 85.3715L171.407 85.4137C174.02 87.5574 176.695 89.7434 179.344 91.7183C180.655 92.7143 182.011 93.6427 183.295 94.4192C183.929 94.799 184.571 95.1197 185.091 95.3138C185.355 95.4235 185.548 95.4573 185.654 95.4742C185.671 95.4742 185.663 95.4573 185.671 95.4573C185.601 95.4404 185.478 95.4235 185.381 95.4235C185.038 95.4066 184.923 95.432 184.871 95.432C184.818 95.432 185.003 95.3476 185.223 95.2125C185.443 95.0775 185.715 94.9002 185.988 94.7061C186.551 94.3179 187.159 93.8537 187.757 93.3557C188.963 92.3598 190.186 91.271 191.4 90.1485C193.811 87.9035 196.258 85.5149 198.59 83.2024L198.634 83.1602C200.323 81.4891 203.104 81.4469 204.847 83.0674C206.554 84.6541 206.633 87.2452 205.049 88.9247Z" fill="#E9B376"/>
<path d="M202.824 81.3633V93.4578C202.824 93.4578 200.157 95.5847 196.884 97.931C195.247 99.1042 193.461 100.328 191.789 101.366C189.245 102.953 186.957 104.118 185.796 104.05C182.329 103.847 174.805 98.6906 174.805 98.6906L179.75 90.7908C179.75 90.7908 185.435 94.1246 185.796 94.3524C186.157 94.5719 198.081 81.4392 202.824 81.3633Z" fill="#407BFF"/>
<path opacity="0.2" d="M196.884 97.9314C195.247 99.1045 193.461 100.328 191.789 101.366C192.185 94.4288 195.591 91.7617 195.591 91.7617C196.647 93.7029 196.99 95.872 196.884 97.9314Z" fill="black"/>
<path d="M207.628 49.5602C201.556 54.312 202.269 67.9848 209.097 76.9565C209.097 76.9565 223.67 78.1297 231.766 74.6524C239.862 71.1751 230.913 49.037 222.359 47.2983C213.805 45.5512 207.628 49.5602 207.628 49.5602Z" fill="#263238"/>
<path d="M207.989 63.7657C205.762 60.0774 203.553 50.152 212.811 47.0798C224.365 43.2481 229.54 50.3124 230.543 57.3176C231.537 64.3228 227.428 69.6146 219.789 69.0914C212.151 68.5765 209.52 66.3146 207.989 63.7657Z" fill="#263238"/>
<path d="M195.581 91.7616C194.455 96.8847 196.435 108.954 196.761 118.044L223.97 121.048C223.979 118.196 224.525 114.052 226.302 107.485C227.323 103.637 228.775 98.9441 230.773 93.188C231.063 92.3355 231.371 91.4578 231.697 90.5547C233.131 86.5373 230.658 82.4776 226.381 81.8362C225.246 81.6589 224.023 81.507 222.782 81.3973C217.933 80.9246 213.956 80.5702 209.626 80.7305C208.192 80.7727 206.696 80.8824 205.261 80.9922C200.122 81.4142 196.637 86.9677 195.581 91.7616Z" fill="#263238"/>
<path d="M222.651 67.1504C221.278 71.1509 219.465 78.5191 222.061 81.3633C222.061 81.3633 218.083 80.5784 209.292 85.1951C207.013 81.6756 208.905 80.6966 208.905 80.6966C213.771 79.861 214.097 76.5103 213.692 73.3285L222.651 67.1504Z" fill="#EBB376"/>
<path opacity="0.2" d="M218.999 69.666L213.701 73.3205C213.798 74.0717 213.851 74.8397 213.807 75.574C215.646 75.4137 218.374 73.6497 218.805 71.8604C219.016 70.9658 219.096 70.0965 218.999 69.666Z" fill="black"/>
<path d="M224.462 57.8071C224.559 64.4832 224.744 67.3106 221.514 70.9735C216.648 76.4849 208.076 75.1344 205.903 68.6188C203.949 62.753 204.125 52.8191 210.699 49.6794C217.176 46.5988 224.365 51.1311 224.462 57.8071Z" fill="#FFB573"/>
<path d="M218.559 51.5623C216.631 53.8833 221.023 61.1924 224.49 62.4415C231.222 60.3062 224.323 44.6331 218.559 51.5623Z" fill="#263238"/>
<path d="M210.311 48.4475C207.75 49.5278 205.348 54.1445 205.031 55.8662C208.842 56.1363 218.645 51.9163 218.645 51.9163C218.645 51.9163 225.562 53.1401 221.839 50.1439C218.126 47.1562 210.311 48.4475 210.311 48.4475Z" fill="#263238"/>
<path d="M212.284 61.5453C212.653 61.5188 212.917 61.0603 212.875 60.5211C212.833 59.9819 212.5 59.5662 212.132 59.5927C211.763 59.6192 211.499 60.0777 211.541 60.6169C211.583 61.1561 211.916 61.5718 212.284 61.5453Z" fill="#263238"/>
<path d="M205.899 62.0064C206.267 61.9801 206.532 61.5216 206.49 60.9824C206.448 60.4432 206.115 60.0275 205.747 60.0538C205.379 60.0802 205.114 60.5387 205.156 61.0779C205.198 61.6171 205.531 62.0328 205.899 62.0064Z" fill="#263238"/>
<path d="M205.921 60.0695L204.539 59.791C204.539 59.791 205.314 60.7531 205.921 60.0695Z" fill="#263238"/>
<path d="M209.211 61.6562C209.211 61.6562 208.437 64.0532 207.469 65.2517C208.27 65.8678 209.51 65.4711 209.51 65.4711L209.211 61.6562Z" fill="#ED893E"/>
<path d="M212.75 67.3689C212.495 67.4279 212.222 67.4701 211.923 67.487C211.835 67.4955 211.756 67.4279 211.747 67.3435C211.738 67.2591 211.817 67.1747 211.896 67.1747C214.378 66.9975 215.399 65.2504 215.408 65.2335C215.452 65.1576 215.548 65.1238 215.636 65.1745C215.716 65.2167 215.742 65.3179 215.698 65.3939C215.663 65.4614 214.809 66.9131 212.75 67.3689Z" fill="#263238"/>
<path d="M226.812 63.7671C226.424 65.1006 225.421 66.1387 224.383 66.6789C222.816 67.4891 221.637 66.2315 221.743 64.6195C221.84 63.1594 222.773 60.9819 224.506 60.8384C226.222 60.6865 227.26 62.2479 226.812 63.7671Z" fill="#FFB573"/>
<path d="M216.005 58.9389C215.864 58.9727 215.723 58.9136 215.644 58.7954C214.852 57.5294 212.872 57.386 212.854 57.3775C212.67 57.3691 212.529 57.2087 212.546 57.0399C212.555 56.8627 212.714 56.7361 212.898 56.7445C212.995 56.753 215.239 56.9218 216.207 58.4663C216.304 58.6182 216.251 58.8123 216.093 58.9052C216.075 58.9136 216.04 58.9305 216.005 58.9389Z" fill="#263238"/>
<path d="M205.033 58.1367C204.919 58.162 204.804 58.1282 204.716 58.0438C204.593 57.9172 204.593 57.7147 204.725 57.5965C206.054 56.3727 207.55 56.6934 207.611 56.7103C207.787 56.7525 207.902 56.9213 207.858 57.0901C207.814 57.2589 207.638 57.3686 207.462 57.3264C207.409 57.318 206.239 57.0817 205.183 58.0523C205.139 58.0945 205.086 58.1198 205.033 58.1367Z" fill="#263238"/>
<path d="M212.302 59.6145L210.92 59.3359C210.92 59.3359 211.694 60.2981 212.302 59.6145Z" fill="#263238"/>
<path d="M187.573 84.2662L188.233 86.2412C188.479 86.9839 189.086 87.5662 189.861 87.8026L193.486 88.9166C194.938 89.364 196.522 89.1023 197.737 88.233L198.494 87.6928C197.631 84.3422 194.129 81.3291 194.129 81.3291L193.231 80.3669C192.43 79.506 191.137 79.4048 190.257 80.139L188.242 81.827C187.538 82.401 187.274 83.3716 187.573 84.2662Z" fill="#EBB376"/>
<path d="M163.215 86.0728L163.875 88.0478C164.122 88.7905 164.729 89.3729 165.503 89.6092L169.129 90.7233C170.581 91.1706 172.156 90.9089 173.379 90.0396L174.136 89.4995C173.274 86.1488 169.771 83.1357 169.771 83.1357L168.874 82.1736C168.073 81.3127 166.779 81.2114 165.899 81.9457L163.884 83.6337C163.18 84.216 162.916 85.1866 163.215 86.0728Z" fill="#EBB376"/>
<path opacity="0.2" d="M215.803 96.6724C217.554 101.618 222.016 105.307 226.293 107.492C227.314 103.644 228.766 98.9512 230.763 93.1951C228.079 89.5997 224.322 87.0424 219.543 87.7345C219.543 87.7345 214.034 91.6675 215.803 96.6724Z" fill="black"/>
<path d="M119.24 194.796L123.834 196.577C123.834 196.577 162.871 140.105 166.479 142.232C179.564 149.921 206.466 163.661 219.199 155.339C231.933 147.026 224.374 125.082 224.374 125.082C224.374 125.082 199.619 116.743 196.557 121.9C195.959 122.896 195.123 124.913 194.454 126.652C193.811 128.281 193.319 129.665 193.319 129.665C193.319 129.665 193.31 129.665 193.301 129.656C192.553 129.319 168.283 118.119 156.851 122.727C145.244 127.42 119.24 194.796 119.24 194.796Z" fill="#EBB376"/>
<path d="M203.88 158.353C203.88 158.353 191.604 159.121 174.787 153.644C174.787 153.644 170.643 198.612 167.862 223.02L162.221 222.261C162.221 222.261 152.638 155.644 154.539 147.516C156.431 139.397 166.683 138.865 166.683 138.865C166.683 138.865 186.298 152.673 203.88 158.353Z" fill="#EBB376"/>
<path d="M203.878 158.352C203.605 158.302 191.602 158.783 179.326 155.44L180.928 149.043C187.105 152.951 195.721 155.339 203.878 158.352Z" fill="#407BFF"/>
<path opacity="0.4" d="M203.878 158.352C203.605 158.302 191.602 158.783 179.326 155.44L180.928 149.043C187.105 152.951 195.721 155.339 203.878 158.352Z" fill="white"/>
<path d="M179.882 148.377L178.412 155.5L180.647 156.235L182.372 149.947L179.882 148.377Z" fill="#407BFF"/>
<path opacity="0.6" d="M179.882 148.377L178.412 155.5L180.647 156.235L182.372 149.947L179.882 148.377Z" fill="white"/>
<path opacity="0.2" d="M156.571 175.832C155.682 158.133 155.304 148.959 158.34 145.296C161.376 141.633 166.128 140.975 166.128 140.975C170.07 150.554 187.274 156.529 187.723 156.69C187.732 156.69 187.732 156.69 187.732 156.69C194.147 157.973 203.651 158.293 203.888 158.344C194.156 156.411 187.116 152.942 180.929 149.035C172.367 143.625 166.682 138.848 166.682 138.848C166.682 138.848 156.43 139.379 154.538 147.499C153.764 150.816 154.916 163.923 156.527 178.262C156.588 177.368 156.597 176.558 156.571 175.832Z" fill="black"/>
<path d="M114.656 191.092C114.568 190.923 114.533 190.653 114.832 190.299C114.973 190.13 115.175 190.029 115.43 190.012C115.906 189.97 116.522 190.223 117.085 190.544C116.654 189.995 116.319 189.421 116.469 189.058C116.566 188.822 116.812 188.695 117.208 188.695C117.578 188.695 117.886 188.822 118.132 189.075C118.906 189.877 118.739 191.708 118.73 191.793C118.73 191.827 118.722 191.852 118.704 191.877C118.695 191.894 118.686 191.903 118.669 191.919C118.651 191.936 118.625 191.953 118.607 191.962C118.581 191.97 118.563 191.978 118.537 191.978C118.202 191.978 117.05 191.978 116.082 191.793C115.413 191.658 114.832 191.447 114.656 191.092ZM115.457 190.4C115.316 190.409 115.219 190.459 115.14 190.544C114.938 190.78 114.999 190.89 115.017 190.923C115.219 191.329 116.689 191.531 117.93 191.565C117.226 191.05 116.108 190.341 115.457 190.4ZM117.208 189.084C117.094 189.084 116.891 189.1 116.847 189.202C116.715 189.514 117.472 190.485 118.334 191.329C118.334 190.763 118.273 189.809 117.824 189.345C117.701 189.219 117.56 189.143 117.393 189.109C117.34 189.084 117.278 189.075 117.208 189.084Z" fill="#263238"/>
<path d="M156.711 218.404C156.562 218.286 156.403 218.058 156.509 217.611C156.562 217.4 156.702 217.222 156.914 217.104C157.318 216.876 157.996 216.851 158.647 216.902C158.014 216.589 157.459 216.201 157.424 215.813C157.406 215.56 157.574 215.349 157.926 215.18C158.251 215.028 158.595 215.011 158.929 215.146C159.985 215.551 160.654 217.282 160.689 217.358C160.698 217.383 160.706 217.417 160.698 217.45C160.698 217.467 160.689 217.476 160.689 217.493C160.68 217.518 160.662 217.543 160.645 217.56C160.627 217.577 160.618 217.585 160.592 217.594H160.583C160.17 217.788 158.436 218.573 157.354 218.573C157.098 218.573 156.87 218.522 156.711 218.404ZM157.134 217.442C157.01 217.509 156.94 217.594 156.914 217.704C156.843 217.999 156.94 218.075 156.966 218.1C157.336 218.379 158.753 217.957 159.888 217.484C159.017 217.307 157.688 217.13 157.134 217.442ZM158.119 215.534C158.014 215.585 157.838 215.678 157.846 215.788C157.873 216.125 158.99 216.691 160.143 217.096C159.897 216.589 159.404 215.745 158.797 215.509C158.691 215.467 158.595 215.45 158.489 215.45C158.366 215.45 158.242 215.475 158.119 215.534Z" fill="#263238"/>
<path d="M126.73 194.678C126.985 194.121 119.734 191.438 119.734 191.438C119.734 191.438 113.371 193.75 108.707 192.839C104.043 191.927 105.231 195.387 109.93 197.472C114.63 199.557 118.22 201.143 121.564 202.62C124.908 204.089 124.134 200.435 126.73 194.678Z" fill="#263238"/>
<path d="M169.224 216.664C169.198 216.057 161.454 216.622 161.454 216.622C161.454 216.622 156.746 221.332 152.117 222.429C147.497 223.526 150.119 226.168 155.302 226.109C160.486 226.05 164.437 226.007 168.115 225.965C171.794 225.915 169.453 222.935 169.224 216.664Z" fill="#263238"/>
<path d="M224.375 125.082C224.375 125.082 199.62 116.743 196.558 121.9C195.959 122.896 195.123 124.913 194.455 126.652C193.812 128.281 193.319 129.665 193.319 129.665C193.319 129.665 193.311 129.665 193.302 129.656C193.276 129.639 191.269 128.762 191.269 128.762L182.971 152.503C196.162 159.517 214.809 160.336 222.439 155.348C235.172 147.026 224.375 125.082 224.375 125.082Z" fill="#407BFF"/>
<g opacity="0.4">
<path opacity="0.4" d="M224.375 125.082C224.375 125.082 199.62 116.743 196.558 121.9C195.959 122.896 195.123 124.913 194.455 126.652C193.812 128.281 193.319 129.665 193.319 129.665C193.319 129.665 193.311 129.665 193.302 129.656C193.276 129.639 191.269 128.762 191.269 128.762L182.971 152.503C196.162 159.517 214.809 160.336 222.439 155.348C235.172 147.026 224.375 125.082 224.375 125.082Z" fill="white"/>
</g>
<path opacity="0.3" d="M193.32 129.658L207.603 135.473C207.603 135.473 200.272 129.539 194.447 126.645C193.813 128.282 193.32 129.658 193.32 129.658Z" fill="black"/>
<path d="M196.197 122.551L196.699 116.693L224.375 120.221L224.736 125.876L196.197 122.551Z" fill="#407BFF"/>
<path opacity="0.4" d="M196.197 122.551L196.699 116.693L224.375 120.221L224.736 125.876L196.197 122.551Z" fill="white"/>
<path d="M196.761 117.268L198.204 117.47L197.755 122.036L196.559 121.901L196.761 117.268Z" fill="#263238"/>
<path d="M199.577 117.656L215.179 119.834L214.774 123.986L199.137 122.197L199.577 117.656Z" fill="#263238"/>
<path d="M224.375 125.083L216.156 124.146L216.552 120.027H216.561L223.979 121.057L224.375 125.083Z" fill="#263238"/>
<path opacity="0.2" d="M196.761 117.268L198.204 117.47L197.755 122.036L196.559 121.901L196.761 117.268Z" fill="black"/>
<path opacity="0.2" d="M199.577 117.656L215.179 119.834L214.774 123.986L199.137 122.197L199.577 117.656Z" fill="black"/>
<path opacity="0.2" d="M224.375 125.083L216.156 124.146L216.552 120.027H216.561L223.979 121.057L224.375 125.083Z" fill="black"/>
<path d="M203.291 122.744L207.735 123.31C208.184 123.369 208.597 123.065 208.659 122.626L209.055 119.773C209.116 119.343 208.8 118.946 208.342 118.887L203.898 118.322C203.449 118.263 203.036 118.567 202.974 119.005L202.578 121.858C202.516 122.297 202.833 122.694 203.291 122.744Z" stroke="white" stroke-miterlimit="10" stroke-linecap="round" stroke-linejoin="round"/>
<path d="M206.477 120.82L208.043 121.057" stroke="white" stroke-miterlimit="10" stroke-linecap="round" stroke-linejoin="round"/>
<path d="M190.089 127.117L192.395 128.282L184.571 153.788L181.289 153.163L190.089 127.117Z" fill="#407BFF"/>
<path opacity="0.6" d="M190.089 127.117L192.395 128.282L184.571 153.788L181.289 153.163L190.089 127.117Z" fill="white"/>
<path d="M188.242 101.366H168.856C168.108 101.366 167.448 100.784 167.386 100.066L164.684 75.3876C164.623 74.6702 165.168 74.0879 165.916 74.0879H185.303C186.051 74.0879 186.711 74.6702 186.772 75.3876L189.474 100.066C189.544 100.784 188.99 101.366 188.242 101.366Z" fill="#263238"/>
<path opacity="0.6" d="M188.242 101.366H168.856C168.108 101.366 167.448 100.784 167.386 100.066L164.684 75.3876C164.623 74.6702 165.168 74.0879 165.916 74.0879H185.303C186.051 74.0879 186.711 74.6702 186.772 75.3876L189.474 100.066C189.544 100.784 188.99 101.366 188.242 101.366Z" fill="white"/>
<path opacity="0.2" d="M187.432 101.366H168.856C168.108 101.366 167.448 100.784 167.386 100.066L164.684 75.3876C164.623 74.6702 165.168 74.0879 165.916 74.0879H184.493C185.241 74.0879 185.901 74.6702 185.963 75.3876L188.664 100.066C188.735 100.784 188.18 101.366 187.432 101.366Z" fill="white"/>
<path d="M176.123 85.7012C174.971 85.7012 174.108 86.6043 174.214 87.7183C174.319 88.8324 175.331 89.7355 176.493 89.7355C177.655 89.7355 178.508 88.8324 178.403 87.7183C177.241 87.7268 176.229 86.8153 176.123 85.7012Z" fill="#263238"/>
<path opacity="0.3" d="M180.323 76.0382H170.079C169.578 76.0382 169.103 75.7428 168.874 75.2954L168.258 74.0801H181.775L181.379 75.2954C181.247 75.7428 180.824 76.0382 180.323 76.0382Z" fill="black"/>
<path d="M229.759 132.526H226.16C226.16 132.526 221.663 119.579 219.041 108.607C218.258 105.375 217.651 102.311 217.36 99.8042C216.929 96.0822 217.413 92.7737 218.231 90.0307C219.851 84.6375 222.79 81.405 222.79 81.405L222.059 81.3628C228.871 81.2953 232.549 83.5572 233.007 87.6253C233.473 91.6849 225.931 115.832 225.579 119.056C225.236 122.288 229.759 132.526 229.759 132.526Z" fill="#407BFF"/>
<path d="M206.511 80.9082C206.511 80.9082 199.313 91.7958 197.377 96.4209C195.45 101.054 196.558 114.297 196.558 114.297C196.558 114.297 192.871 98.3537 195.247 90.4538C197.614 82.554 201.715 80.9335 206.511 80.9082Z" fill="#407BFF"/>
<path d="M231.186 90.7156C228.986 93.8806 226.69 96.7249 223.926 99.5017C222.536 100.886 221.066 102.228 219.21 103.494C218.268 104.127 217.247 104.76 215.813 105.266C215.091 105.511 214.229 105.73 213.155 105.764C212.61 105.764 212.029 105.73 211.413 105.579C211.131 105.519 210.77 105.393 210.542 105.308L210.084 105.106C208.878 104.549 207.937 103.924 207.074 103.283C206.212 102.633 205.446 101.966 204.716 101.291C203.264 99.9321 201.997 98.5142 200.782 97.0794C198.38 94.1845 196.312 91.1883 194.429 87.9811C193.839 86.9683 194.209 85.6854 195.265 85.1199C196.154 84.6388 197.236 84.8245 197.914 85.4913L197.958 85.5335C200.448 88.0064 203.035 90.4878 205.605 92.7835C206.898 93.9313 208.218 95.0285 209.53 95.9991C210.814 96.9613 212.231 97.8137 213.226 98.1513L213.402 98.2104C213.393 98.1935 213.243 98.1513 213.19 98.1344C213.023 98.0922 212.909 98.0669 212.821 98.0669C212.671 98.05 212.715 98.05 212.838 97.9741C213.111 97.8306 213.657 97.493 214.185 97.071C215.267 96.2101 216.411 95.0538 217.52 93.8469C219.72 91.4162 221.911 88.6479 223.891 86.0061L223.962 85.9133C225.378 84.0227 228.124 83.5923 230.095 84.9427C232.022 86.2847 232.498 88.842 231.186 90.7156Z" fill="#E9B376"/>
<path opacity="0.2" d="M230.235 93.8463C230.235 93.8463 223.899 104.211 219.041 108.608C218.258 105.375 217.651 102.312 217.36 99.805C216.929 96.0829 217.413 92.7744 218.231 90.0314C220.247 88.4447 222.235 86.8664 223.247 86.0646C225.747 84.0644 230.235 93.8463 230.235 93.8463Z" fill="black"/>
<path d="M230.684 84.2505C234.002 85.9638 232.999 90.5636 228.651 96.0158C224.304 101.468 216.437 108.836 212.301 107.486C208.174 106.144 203.492 100.869 203.492 100.869L206.502 92.6989C206.502 92.6989 212.433 97.0118 213.665 96.7923C214.897 96.5729 220.934 89.0866 222.676 86.7572C224.419 84.4446 227.085 82.3937 230.684 84.2505Z" fill="#407BFF"/>
<path d="M168.837 84.739L168.714 86.3595C168.643 87.2288 167.966 87.9293 167.068 88.0559L164.771 88.3851L165.317 82.4434L167.235 82.7725C168.221 82.9244 168.916 83.7769 168.837 84.739Z" fill="#FFB573"/>
</svg>
