<svg width="573" height="465" viewBox="0 0 573 465" fill="none" xmlns="http://www.w3.org/2000/svg">
<path d="M424.669 413.863C472.159 376.991 493.309 274.747 416.199 224.611C365.148 191.425 333.398 210.356 275.968 188.402C205.858 161.608 195.408 80.6549 110.128 120.488C64.9485 141.585 33.6285 201.044 28.1185 268.621C22.7185 334.799 45.6885 380.207 92.6285 411.28C202.858 416.069 313.309 415.201 424.669 413.863Z" fill="#DFF3FC"/>
<path d="M229.569 123.041C222.399 152.449 249.029 181.561 277.099 193.63C305.159 205.71 337.339 204.27 367.409 198.511C380.379 196.03 393.719 192.537 403.789 184.093C413.869 175.648 419.709 160.985 414.189 149.141C409.319 138.695 397.449 133.344 386.139 130.597C374.829 127.851 362.809 126.727 352.739 120.948C343.179 115.465 336.399 106.387 328.089 99.1984C312.729 85.9342 291.159 79.3583 271.199 83.5551C251.219 87.7518 235.669 98.0445 229.569 123.041Z" fill="#DFF3FC"/>
<path d="M555.862 238.148V206.956H544.282C542.894 201.502 540.778 196.363 538.058 191.625L546.245 183.251L524.642 161.191L516.441 169.551C511.8 166.774 506.768 164.612 501.426 163.195V151.371H470.879V163.195C465.538 164.612 460.505 166.774 455.865 169.551L447.664 161.191L426.06 183.251L434.247 191.625C431.528 196.363 429.425 201.502 428.023 206.956H416.443V238.148H428.023C429.425 243.602 431.528 248.741 434.247 253.48L426.06 261.854L447.664 283.913L455.865 275.553C460.505 278.33 465.538 280.478 470.879 281.909V293.733H501.426V281.909C506.768 280.478 511.8 278.33 516.441 275.553L524.642 283.913L546.245 261.854L538.058 253.48C540.778 248.741 542.894 243.602 544.282 238.148H555.862ZM486.174 249.572C471.552 249.572 459.706 237.476 459.706 222.545C459.706 207.629 471.566 195.533 486.174 195.533C500.781 195.533 512.628 207.629 512.628 222.545C512.628 237.461 500.767 249.572 486.174 249.572Z" fill="#A2C7EB"/>
<path d="M463.573 316.293L457.756 300.818L452.008 303.066C450.297 300.632 448.293 298.499 446.064 296.667L448.559 290.927L433.741 284.185L431.232 289.925C428.414 289.452 425.512 289.352 422.596 289.682L420.395 283.812L405.24 289.753L407.441 295.622C405.058 297.369 402.969 299.416 401.175 301.692L395.553 299.144L388.95 314.274L394.572 316.837C394.109 319.714 394.025 322.677 394.334 325.654L388.586 327.902L394.404 343.376L400.152 341.129C401.862 343.562 403.867 345.695 406.096 347.527L403.6 353.267L418.418 360.01L420.928 354.269C423.746 354.742 426.647 354.828 429.563 354.513L431.764 360.382L446.905 354.441L444.704 348.572C447.087 346.826 449.176 344.779 450.97 342.503L456.592 345.051L463.195 329.92L457.573 327.358C458.036 324.481 458.134 321.517 457.812 318.54L463.573 316.293ZM431.134 335.503C423.886 338.337 415.755 334.644 412.965 327.243C410.189 319.843 413.806 311.54 421.054 308.706C428.302 305.871 436.433 309.565 439.208 316.965C441.998 324.352 438.367 332.654 431.134 335.503Z" stroke="#A2C7EB" stroke-miterlimit="10"/>
<path d="M413.933 262.04L410.008 251.59L406.125 253.107C404.975 251.461 403.615 250.015 402.101 248.784L403.798 244.905L393.788 240.353L392.092 244.232C390.185 243.917 388.223 243.846 386.26 244.075L384.774 240.109L374.54 244.118L376.026 248.083C374.414 249.257 372.998 250.645 371.792 252.191L367.993 250.459L363.535 260.68L367.334 262.412C367.026 264.359 366.956 266.348 367.18 268.367L363.297 269.884L367.222 280.334L371.105 278.817C372.269 280.463 373.615 281.909 375.129 283.14L373.433 287.019L383.442 291.571L385.138 287.692C387.045 288.007 388.994 288.078 390.97 287.849L392.456 291.814L402.69 287.806L401.204 283.841C402.816 282.653 404.232 281.279 405.438 279.733L409.237 281.465L413.695 271.244L409.896 269.512C410.204 267.565 410.274 265.561 410.05 263.557L413.933 262.04ZM392.022 275.009C387.129 276.927 381.634 274.422 379.755 269.426C377.877 264.43 380.33 258.819 385.223 256.901C390.115 254.982 395.611 257.488 397.489 262.483C399.368 267.479 396.914 273.091 392.022 275.009Z" stroke="#A2C7EB" stroke-miterlimit="10"/>
<path d="M410.372 79.0531C410.372 94.7276 403.195 108.699 392.036 117.717C383.821 124.373 373.432 128.324 362.105 128.324C350.82 128.324 340.418 124.373 332.175 117.717C321.002 108.684 313.838 94.7133 313.838 79.0531C313.838 51.8408 335.441 29.7676 362.105 29.7676C388.769 29.7676 410.372 51.8408 410.372 79.0531Z" fill="#0097D8" stroke="#0097D8" stroke-miterlimit="10"/>
<path d="M362.106 78.9648C370.832 78.9648 377.905 71.7419 377.905 62.832C377.905 53.9221 370.832 46.6992 362.106 46.6992C353.38 46.6992 346.307 53.9221 346.307 62.832C346.307 71.7419 353.38 78.9648 362.106 78.9648Z" fill="white"/>
<path d="M392.037 111.504C383.822 118.16 373.434 122.111 362.106 122.111C350.821 122.111 340.419 118.16 332.176 111.504C335.26 97.6329 338.106 85.6657 341.064 82.631C345.241 78.3651 356.33 75.8887 362.092 75.8887C367.854 75.8887 379.462 78.9091 381.607 81.0993C385.995 85.5512 389.766 97.8476 392.037 111.504Z" fill="white"/>
<path d="M292.754 200.529V176.194C292.754 169.552 298.025 164.17 304.53 164.17H379.615C386.12 164.17 391.391 169.552 391.391 176.194V200.529C391.391 207.17 386.12 212.553 379.615 212.553H304.544C298.039 212.567 292.754 207.17 292.754 200.529Z" fill="#0097D8"/>
<path d="M324.464 199.254L288.127 235.399L347.021 205.009" fill="#0097D8"/>
<path d="M301.865 175.592V175.463C301.865 174.476 302.65 173.674 303.618 173.674H340.74C341.707 173.674 342.492 174.476 342.492 175.463V175.592C342.492 176.58 341.707 177.382 340.74 177.382H303.618C302.65 177.382 301.865 176.58 301.865 175.592Z" fill="white"/>
<path d="M344.16 175.592V175.463C344.16 174.476 344.945 173.674 345.913 173.674H378.31C379.278 173.674 380.063 174.476 380.063 175.463V175.592C380.063 176.58 379.278 177.382 378.31 177.382H345.913C344.945 177.382 344.16 176.58 344.16 175.592Z" fill="white"/>
<path d="M330.016 183.738V183.609C330.016 182.622 330.801 181.82 331.768 181.82H378.311C379.278 181.82 380.063 182.622 380.063 183.609V183.738C380.063 184.726 379.278 185.527 378.311 185.527H331.768C330.801 185.527 330.016 184.726 330.016 183.738Z" fill="white"/>
<path d="M301.865 183.738V183.609C301.865 182.622 302.65 181.82 303.618 181.82H324.408C325.375 181.82 326.16 182.622 326.16 183.609V183.738C326.16 184.726 325.375 185.527 324.408 185.527H303.618C302.65 185.527 301.865 184.726 301.865 183.738Z" fill="white"/>
<path d="M336.479 191.883V191.754C336.479 190.766 337.264 189.965 338.231 189.965H378.311C379.278 189.965 380.064 190.766 380.064 191.754V191.883C380.064 192.87 379.278 193.672 378.311 193.672H338.231C337.264 193.672 336.479 192.87 336.479 191.883Z" fill="white"/>
<path d="M301.865 191.883V191.754C301.865 190.766 302.65 189.965 303.618 189.965H331.305C332.272 189.965 333.057 190.766 333.057 191.754V191.883C333.057 192.87 332.272 193.672 331.305 193.672H303.618C302.65 193.672 301.865 192.87 301.865 191.883Z" fill="white"/>
<path d="M301.865 200.027V199.898C301.865 198.911 302.65 198.109 303.618 198.109H313.894C314.861 198.109 315.646 198.911 315.646 199.898V200.027C315.646 201.015 314.861 201.816 313.894 201.816H303.618C302.65 201.816 301.865 201.015 301.865 200.027Z" fill="white"/>
<path d="M319.277 200.027V199.898C319.277 198.911 320.062 198.109 321.03 198.109H378.311C379.279 198.109 380.064 198.911 380.064 199.898V200.027C380.064 201.015 379.279 201.816 378.311 201.816H321.03C320.062 201.816 319.277 201.015 319.277 200.027Z" fill="white"/>
<path d="M65.3097 193.498C90.9528 193.498 111.741 172.271 111.741 146.087C111.741 119.902 90.9528 98.6758 65.3097 98.6758C39.6667 98.6758 18.8789 119.902 18.8789 146.087C18.8789 172.271 39.6667 193.498 65.3097 193.498Z" fill="#0097D8"/>
<path d="M54.3607 180.845C60.5779 180.845 65.618 175.698 65.618 169.35C65.618 163.002 60.5779 157.855 54.3607 157.855C48.1435 157.855 43.1035 163.002 43.1035 169.35C43.1035 175.698 48.1435 180.845 54.3607 180.845Z" fill="white"/>
<path d="M48.4588 173.472L47.9121 166.185L53.8281 162.062L60.2768 165.226L60.8236 172.513L54.9076 176.636L48.4588 173.472Z" fill="#0097D8"/>
<path d="M76.2436 134.305C82.4608 134.305 87.5008 129.159 87.5008 122.811C87.5008 116.463 82.4608 111.316 76.2436 111.316C70.0264 111.316 64.9863 116.463 64.9863 122.811C64.9863 129.159 70.0264 134.305 76.2436 134.305Z" fill="white"/>
<path d="M70.6641 126.233L71.0566 116.971L77.8978 110.873L84.3466 114.037L83.954 123.298L77.1128 129.396L70.6641 126.233Z" fill="#0097D8"/>
<path d="M62.1565 164.037L53.5488 159.814L59.9134 144.827C60.32 143.882 60.7546 142.938 61.2312 142.021L68.7033 127.578L77.311 131.801L71.1707 146.559C70.694 147.704 70.1753 148.821 69.6005 149.909L62.1565 164.037Z" fill="white"/>
<path d="M97.5547 171.581C99.2089 170.794 125.859 172.039 125.859 172.039L106.653 154.031L97.5547 171.581Z" fill="#0097D8"/>
<path d="M173.241 94.0117C198.443 94.0117 218.873 73.1506 218.873 47.417C218.873 21.6834 198.443 0.822266 173.241 0.822266C148.039 0.822266 127.609 21.6834 127.609 47.417C127.609 73.1506 148.039 94.0117 173.241 94.0117Z" fill="#0097D8"/>
<path d="M174.771 7.70703H171.729V46.8447H174.771V7.70703Z" fill="white"/>
<path d="M139.571 69.4245L141.303 71.9785L173.242 49.4007L171.511 46.8467L139.571 69.4245Z" fill="white"/>
<path d="M173.243 51.7119C175.566 51.7119 177.448 49.7892 177.448 47.4175C177.448 45.0457 175.566 43.123 173.243 43.123C170.92 43.123 169.037 45.0457 169.037 47.4175C169.037 49.7892 170.92 51.7119 173.243 51.7119Z" fill="white"/>
<path d="M297.145 362.945C294.439 320.344 312.692 276.254 343.436 251.031C344.389 293.847 326.319 337.178 297.145 362.945Z" fill="#A2C7EB"/>
<path d="M338.416 262.498C325.463 287.148 314.261 312.943 304.953 339.554C293.64 371.862 284.737 406.189 265.363 433.272" stroke="#6F8BBF" stroke-miterlimit="10" stroke-linecap="round"/>
<path d="M287.443 389.741C303.004 354.198 333.888 327.343 367.94 319.742C353.445 357.834 320.837 386.893 287.443 389.741Z" fill="#A2C7EB"/>
<path d="M359.583 327.574C336.325 348.474 312.675 368.787 288.633 388.498" stroke="#6F8BBF" stroke-miterlimit="10" stroke-linecap="round"/>
<path d="M278.262 420.705C299.052 388.998 337.408 372.449 369.147 381.496C345.805 412.803 307.365 429.394 278.262 420.705Z" fill="#A2C7EB"/>
<path d="M361.534 383.785C334.281 401.192 304.883 414.046 274.574 421.776" stroke="#6F8BBF" stroke-miterlimit="10" stroke-linecap="round"/>
<path d="M289.488 378.965C296.133 343.263 286.166 303.468 263.974 277.143C254.876 312.229 263.553 353.341 289.488 378.965Z" fill="#A2C7EB"/>
<path d="M266.258 286.246C270.632 319.457 278.412 350.563 290.469 380.968" stroke="#6F8BBF" stroke-miterlimit="10" stroke-linecap="round"/>
<path d="M278.078 409.37C275.246 372.667 256.825 338.196 229.881 319.172C231.437 338.612 236.498 357.35 244.531 374.384C253.769 393.953 267.34 406.364 278.078 409.37Z" fill="#A2C7EB"/>
<path d="M233.875 326.602C244.473 357.206 259.726 385.578 278.75 410.142" stroke="#6F8BBF" stroke-miterlimit="10" stroke-linecap="round"/>
<path d="M486.164 400.563C500.87 361.498 534.698 329.805 572.002 320.156C555.656 358.692 522.291 389.756 486.164 400.563Z" fill="#A2C7EB"/>
<path d="M562.96 328.273C541.623 344.836 521.352 363.144 502.454 382.97C479.491 407.047 457.832 433.902 429.836 449.963" stroke="#6F8BBF" stroke-miterlimit="10" stroke-linecap="round"/>
<path d="M466.832 420.39C494.856 395.21 532.931 384.159 566.072 391.574C537.978 419.474 497.492 431.771 466.832 420.39Z" fill="#A2C7EB"/>
<path d="M555.543 395.082C526.594 404.015 497.532 412.246 468.373 419.79" stroke="#6F8BBF" stroke-miterlimit="10" stroke-linecap="round"/>
<path d="M446.283 444.153C477.391 424.571 517.934 425.816 542.355 447.102C509.158 465.253 468.517 464.007 446.283 444.153Z" fill="#A2C7EB"/>
<path d="M534.714 445.957C503.648 450.109 472.484 449.308 442.609 443.566" stroke="#6F8BBF" stroke-miterlimit="10" stroke-linecap="round"/>
<path d="M472.972 411.644C493.174 382.613 500.337 343.004 491.295 310.309C469.159 337.765 460.327 378.004 472.972 411.644Z" fill="#A2C7EB"/>
<path d="M489.655 319.355C480.179 350.762 474.585 381.711 473.043 413.834" stroke="#6F8BBF" stroke-miterlimit="10" stroke-linecap="round"/>
<path d="M450.682 433.976C462.906 400.107 460.467 361.714 444.289 333.543C437.868 351.508 434.812 370.303 435.079 388.827C435.373 410.098 442.382 426.818 450.682 433.976Z" fill="#A2C7EB"/>
<path d="M444.823 341.816C441.907 373.495 443.996 405.13 450.949 434.934" stroke="#6F8BBF" stroke-miterlimit="10" stroke-linecap="round"/>
<path d="M256.04 369.5C256.04 369.5 259.11 398.23 262.545 400.535C268.685 404.672 339.762 414.234 339.762 414.234L337.434 433.115C337.434 433.115 240.087 442.048 235.951 437.081C228.773 428.463 216.156 386.893 216.156 386.893L256.04 369.5Z" fill="#E06A58"/>
<path d="M209.104 295.536L216.968 276.254C216.968 276.254 238.305 286.489 245.343 299.129C252.871 312.642 262.081 384.488 262.081 384.488C262.081 384.488 224.412 393.349 217.487 389.584C210.561 385.819 209.104 295.536 209.104 295.536Z" fill="#0F1B4A"/>
<path d="M149.2 206.039C143.691 203.978 137.859 202.174 131.957 202.632C126.055 203.09 120.027 206.283 118.022 211.579C116.592 215.33 117.251 219.753 114.994 223.131C112.835 226.366 108.545 227.712 104.536 227.984C100.512 228.27 96.4609 227.726 92.4655 228.256C80.1288 229.931 71.3249 243.616 75.3764 254.825C76.9885 259.291 80.297 263.557 79.54 268.209C78.7409 273.191 73.624 276.469 71.5211 281.092C68.7314 287.248 72.0679 294.706 77.5773 298.9C83.0868 303.08 90.2505 304.669 97.2039 305.728C106.779 307.188 116.662 307.876 126.125 305.814C135.588 303.753 144.63 298.657 149.523 290.698C151.696 287.176 153.013 283.197 155.537 279.89C160.752 273.062 169.99 270.413 177.266 265.575C185.215 260.264 191.047 249.929 186.365 241.841C181.85 234.068 170.103 232.336 165.392 224.677C163.444 221.514 162.981 217.749 161.719 214.299C160.429 210.835 157.345 209.088 149.2 206.039Z" fill="#0A2240"/>
<path d="M181.304 301.391C182.692 303.023 184.332 304.812 186.603 304.97C189 305.141 191.005 303.409 192.547 301.734C200.51 293.131 205.767 282.567 207.898 271.673C205.921 270.528 204.015 269.426 202.29 268.395C200.692 267.422 199.486 266.062 198.8 264.473C198.323 263.299 198.155 262.068 198.281 260.78C199.402 250.015 200.398 244.017 204.099 233.095C186.519 229.044 169.935 224.234 160.402 216.104C159.238 221.114 157.864 230.919 154.934 240.639C151.808 250.931 146.929 261.109 138.658 265.489C154.892 275.281 169.374 287.448 181.304 301.391Z" fill="#F9A07B"/>
<path d="M198.28 260.794C198.154 262.082 198.322 263.327 198.799 264.487C188.397 277.37 165.139 260.536 154.934 240.653C157.864 230.933 159.237 221.127 160.401 216.117C169.92 224.248 186.518 229.072 204.098 233.109C200.397 244.031 199.402 250.015 198.28 260.794Z" fill="#E06A58"/>
<path d="M227.244 416.54C224.945 432.086 241.375 448.82 241.782 457.122C206.889 457.122 133.794 459.298 96.5735 454.131C94.8772 444.54 113.256 422.967 113.256 401.667C113.256 398.847 113.144 395.755 112.92 392.434C112.331 382.929 110.957 371.62 109.429 360.025C105.279 328.919 99.7558 295.652 103.835 288.752C111.826 275.31 130.513 266.178 139.78 262.255C142.962 260.91 145.037 260.18 145.191 260.094C156.813 280.335 180.463 297.598 189.393 296.825C191.874 296.625 199.234 294.005 204.099 268.998C205.992 270.1 207.884 271.116 209.763 272.104C219.001 277.014 227.665 281.065 230.16 287.378C236.749 303.997 243.212 345.897 241.782 360.798C240.338 375.829 234.422 387.309 230.272 402.397C229.305 405.933 228.422 409.683 227.707 413.72C227.525 414.622 227.385 415.567 227.244 416.54Z" fill="#3655CE"/>
<path d="M241.782 457.124C206.889 457.124 133.794 459.3 96.5735 454.133C94.8772 444.542 113.256 422.969 113.256 401.669C113.256 398.849 113.144 395.757 112.92 392.436C112.331 382.931 110.957 371.622 109.429 360.027C116.032 367.141 125.663 337.08 129.925 345.884C152.986 393.409 171.168 405.906 202.767 405.906C212.188 405.906 220.88 404.575 230.272 402.399C229.305 405.935 228.422 409.685 227.707 413.722C227.539 414.638 227.384 415.583 227.244 416.556C224.945 432.073 241.375 448.807 241.782 457.124Z" fill="#3655CE"/>
<path d="M209.762 272.104C208.262 283.227 203.818 298.215 190.892 302.166C173.425 307.505 148.149 274.18 139.779 262.255C142.962 260.91 145.036 260.18 145.191 260.094C156.812 280.335 180.462 297.599 189.392 296.826C191.874 296.626 199.234 294.006 204.098 268.998C205.991 270.086 207.883 271.102 209.762 272.104Z" fill="#3655CE"/>
<path d="M216.941 440.389L216.814 452.8L434.108 454.117L434.557 440.045L216.941 440.389Z" fill="#325F73"/>
<path d="M528.288 329.663L523.451 324.653L365.177 323.594L285.773 440.847L289.923 444.254L528.288 329.663Z" fill="#325F73"/>
<path d="M368.234 327.93L289.924 444.252L439.506 445.011L528.288 329.662L368.234 327.93Z" fill="#0B2D50"/>
<path d="M406.029 402.183C415.645 402.183 423.44 398.203 423.44 393.293C423.44 388.384 415.645 384.404 406.029 384.404C396.413 384.404 388.617 388.384 388.617 393.293C388.617 398.203 396.413 402.183 406.029 402.183Z" fill="#3C738C"/>
<path d="M240.423 191.623C231.693 189.962 222.616 199.572 220.149 213.088C217.682 226.604 222.76 238.907 231.491 240.568C240.221 242.229 249.298 232.619 251.765 219.104C254.232 205.588 249.154 193.284 240.423 191.623Z" fill="#56C4F9"/>
<path d="M251.794 176.694C250.167 188.46 245.023 201.43 237.522 215.759C234.887 204.021 233.205 189.72 230.877 175.419C228.508 161.09 225.494 146.761 220.265 135.052C219.087 132.461 217.812 129.984 216.424 127.694C219.522 127.393 222.662 127.694 225.648 128.538C230.317 129.812 234.691 132.274 238.265 135.567C244.209 140.964 248.191 148.321 250.56 156.08C252.509 162.522 252.859 169.364 251.794 176.694Z" fill="#0B2D50"/>
<path d="M242.989 188.862C242.905 191.181 242.75 193.543 242.54 195.891C239.344 233.968 223.685 260.093 199.726 260.093C165.898 260.093 143.973 221.357 143.973 183.408C143.973 145.975 166.431 118.877 192.717 122.012C207.871 123.787 218.946 128.926 226.811 136.456C232.012 141.466 235.769 147.521 238.334 154.407C241.264 162.122 242.68 170.854 242.975 180.259C242.975 180.288 243.003 180.316 243.003 180.345C243.115 183.122 243.087 185.956 242.989 188.862Z" fill="#F9A07B"/>
<path d="M242.988 188.862C241.979 185.183 240.479 181.59 238.432 178.369C218.483 189.019 194.707 193.128 172.164 189.234C167.874 192.884 163.683 196.477 159.463 200.07C159.547 182.75 159.785 171.026 166.402 162.637C172.613 154.764 182.973 151.801 192.786 150.513C203.833 149.038 215.062 149.096 226.081 150.728C230.301 151.329 234.675 152.259 238.348 154.435C241.278 162.151 242.694 170.883 242.988 180.287C242.988 180.316 243.016 180.345 243.016 180.373C243.114 183.122 243.086 185.956 242.988 188.862Z" fill="#E06A58"/>
<path d="M247.868 165.414C243.228 169.422 237.41 172.743 230.877 175.434C212.288 183.092 188.133 185.626 169.306 184.696C160.053 205.452 156.31 212.896 153.941 231.004C144.899 222.343 137.539 206.483 135.352 194.015C133.193 181.589 133.403 168.549 136.796 156.338C142.137 137.085 155.609 126.778 164.946 121.768C167.273 120.465 169.376 119.563 171.002 118.905C182.932 114.195 196.376 114.625 208.615 118.447C215.288 120.565 220.909 124.144 225.634 128.553C235.181 137.357 241.083 149.281 244.896 158.213C246.102 160.947 247.069 163.424 247.868 165.414Z" fill="#0B2D50"/>
<path d="M251.794 176.693C251.023 172.528 249.873 168.491 248.247 164.598C247.336 162.393 246.215 160.26 244.911 158.199C240.663 151.385 234.481 145.774 227.009 143.298C224.878 140.249 222.635 137.5 220.279 135.067C211.798 126.263 201.844 121.225 191.302 119.464C182.526 118.018 173.4 118.834 164.975 121.754C167.302 120.452 169.405 119.55 171.031 118.891C182.961 114.182 196.405 114.611 208.644 118.433C215.317 120.552 220.938 124.13 225.663 128.539C230.331 129.813 234.705 132.275 238.28 135.568C244.224 140.964 248.205 148.322 250.574 156.08C252.509 162.522 252.86 169.364 251.794 176.693Z" fill="#225570"/>
<path d="M180.086 200.041C186.338 196.39 192.829 194.744 201.927 198.137" stroke="#0B2D50" stroke-width="2" stroke-miterlimit="10" stroke-linecap="round"/>
<path d="M222.9 199.785C228.256 195.704 236.19 195.288 240.326 199.785" stroke="#0B2D50" stroke-width="2" stroke-miterlimit="10" stroke-linecap="round"/>
<path d="M216.437 220.598C216.984 223.489 216.69 229.888 215.344 232.765" stroke="#CC454E" stroke-width="2" stroke-miterlimit="10" stroke-linecap="round"/>
<path d="M195.31 222.544C196.735 222.544 197.889 220.686 197.889 218.393C197.889 216.101 196.735 214.242 195.31 214.242C193.885 214.242 192.73 216.101 192.73 218.393C192.73 220.686 193.885 222.544 195.31 222.544Z" fill="#262D40"/>
<path d="M229.027 220.612C230.451 220.612 231.606 218.753 231.606 216.46C231.606 214.167 230.451 212.309 229.027 212.309C227.602 212.309 226.447 214.167 226.447 216.46C226.447 218.753 227.602 220.612 229.027 220.612Z" fill="#262D40"/>
<path d="M213.239 238.419C213.239 238.419 212.735 239.421 211.767 240.781C210.253 242.857 207.674 245.72 204.155 246.836H204.141C202.655 247.323 201.043 247.495 199.248 247.165C193.977 246.206 192.589 241.239 192.337 237.417C192.281 236.673 192.281 235.986 192.295 235.356C192.323 233.81 192.491 232.779 192.491 232.779C200.889 237.503 213.239 238.419 213.239 238.419Z" fill="#CC454E"/>
<path d="M213.241 238.419C213.241 238.419 212.737 239.421 211.769 240.78C207.479 240.723 198.704 238.476 192.297 235.356C192.325 233.81 192.493 232.779 192.493 232.779C200.89 237.503 213.241 238.419 213.241 238.419Z" fill="white"/>
<path d="M204.142 246.822C202.656 247.309 201.044 247.481 199.249 247.152C193.978 246.193 192.59 241.225 192.338 237.402C194.889 237.717 197.357 238.719 199.403 240.309C201.548 241.984 203.189 244.26 204.142 246.822Z" fill="#E8729B"/>
<path d="M154.024 193.472C154.024 193.472 153.73 175.621 161.006 157.885C170.132 135.626 188.735 126.106 206.778 125.462C228.521 124.675 242.133 139.576 242.133 139.576C242.133 139.576 235.054 126.822 221.091 123.157C211.923 120.752 198.086 120.366 186.983 124.975C175.543 129.714 161.286 142.869 156.127 156.769C150.982 170.668 148.473 192.312 148.473 192.312L154.024 193.472Z" fill="#3D86E0"/>
<path d="M167.854 212.088C166.388 197.683 157.651 186.806 148.341 187.794C139.031 188.783 132.673 201.262 134.139 215.667C135.606 230.072 144.342 240.949 153.652 239.96C162.962 238.972 169.321 226.493 167.854 212.088Z" fill="#56C4F9"/>
<path d="M157.385 214.101C155.796 203.304 149.635 195.299 143.625 196.222C137.615 197.144 134.03 206.644 135.619 217.441C137.208 228.238 143.368 236.243 149.379 235.32C155.389 234.398 158.974 224.898 157.385 214.101Z" fill="#3D86E0"/>
<path d="M206.919 260.621C211.905 260.621 215.947 258.051 215.947 254.881C215.947 251.711 211.905 249.141 206.919 249.141C201.933 249.141 197.891 251.711 197.891 254.881C197.891 258.051 201.933 260.621 206.919 260.621Z" fill="#3A92C9"/>
<path d="M161.566 235.686C161.566 235.686 174.828 253.092 197.89 254.882" stroke="#3A92C9" stroke-width="2" stroke-miterlimit="10" stroke-linecap="round"/>
<path d="M216.815 407.249L215.946 430.138C215.946 430.138 134.875 454.946 121.486 447.101C114.954 443.265 108.855 422.165 104.299 401.566C99.5327 379.922 96.4766 358.851 96.4766 358.851L144.001 349.346C144.001 349.346 144.029 378.934 145.641 396.041C146.216 402.411 147.043 407.049 148.15 407.807C152.342 410.627 216.815 407.249 216.815 407.249Z" fill="#F9A07B"/>
<path d="M145.641 396.01C137.005 398.873 120.337 403.296 104.299 401.55C99.5327 379.906 96.4766 358.835 96.4766 358.835L144.001 349.33C144.001 349.316 144.029 378.904 145.641 396.01Z" fill="#E06A58"/>
<path d="M214.503 407.477C226.559 404.843 246.971 398.516 255.439 396.34C261.453 394.794 277.112 403.068 281.247 410.87C283.056 414.277 284.766 433.573 278.5 431.583C275.359 430.581 275.878 422.307 274.897 418.929C274.098 416.181 271.546 413.518 267.663 411.228C270.257 417.827 270.158 423.581 269.878 430.71C269.822 432.285 269.724 433.931 268.981 435.291C268.224 436.651 266.598 437.624 265.196 437.023C263.766 436.422 263.275 434.604 262.953 433.015C261.845 427.518 260.724 422.021 260.275 415.808C260.387 421.921 260.261 428.048 259.883 434.146C259.602 438.812 257.331 441.375 254.541 440.559C253.294 440.201 252.789 439.027 252.256 437.481C251.415 440.473 249.312 443.78 246.593 442.52C244.938 441.761 243.915 435.663 244.209 429.393C238.994 432.7 233.106 434.103 226.321 434.418C220.237 434.704 214.012 433.544 210.354 429.322C210.718 422.722 212.849 412.96 214.503 407.477Z" fill="#F9A07B"/>
<path d="M252.382 436.535C252.789 431.582 252.368 426.558 251.135 421.777" stroke="#CC454E" stroke-miterlimit="10" stroke-linecap="round"/>
<path d="M138.659 301.334C135.21 291.414 122.579 271.115 122.579 271.115C122.579 271.115 103.303 279.303 96.462 293.203C84.8823 316.736 90.7703 384.302 90.7703 384.302C106.373 390.973 137.692 391.073 151.024 389.155C151.024 389.155 145.57 321.16 138.659 301.334Z" fill="#0F1B4A"/>
<path d="M141.113 305.484C146.37 331.179 149.188 355.142 150.085 378.618" stroke="#F2AE30" stroke-miterlimit="10" stroke-linecap="round"/>
<path d="M553.689 450.035H0.949219V464.192H553.689V450.035Z" fill="#0B2D50"/>
</svg>
