<svg width="242" height="179" viewBox="0 0 242 179" fill="none" xmlns="http://www.w3.org/2000/svg">
<path opacity="0.3" d="M226.359 137.921H197.655C200.725 134.234 202.687 128.648 202.687 122.394V117.798C202.687 104.492 210.094 93.7007 219.227 93.7007C228.591 93.7007 236.183 82.6397 236.183 68.9996C236.183 55.3595 228.591 44.2985 219.227 44.2985H216.448C207.314 44.2985 199.908 33.5072 199.908 20.2012C199.908 9.09336 193.729 0.0898438 186.104 0.0898438H78.2527C69.7663 0.0898438 62.8916 10.1133 62.8916 22.4697C62.8916 30.9222 66.1042 38.2727 70.8517 42.0828H51.9053C44.0055 42.0828 37.5968 50.7171 37.5968 61.3736C37.5968 74.1403 29.9218 84.4861 20.454 84.4861H17.5759C7.86693 84.4861 0 95.0957 0 108.179C0 121.268 7.86693 131.872 17.5759 131.872C27.0436 131.872 34.7187 142.218 34.7187 154.984V159.392C34.7187 170.043 41.1219 178.683 49.0272 178.683H115.597C116.102 178.748 116.606 178.783 117.121 178.783H226.359C234.999 178.783 242 169.633 242 158.349C242 147.071 234.994 137.921 226.359 137.921Z" fill="#A0BFE4"/>
<path d="M100.049 124.78L97.8516 124.336L88.3077 178.033L90.5054 178.477L100.049 124.78Z" fill="#194655"/>
<path d="M163.414 178.733H166.058L156.203 124.338L154.008 124.783L163.414 178.733Z" fill="#194655"/>
<path d="M115.017 178.733H117.661L107.807 124.338L105.611 124.783L115.017 178.733Z" fill="#194655"/>
<path d="M139.329 178.734L137.18 178.761L146.627 124.58L148.822 125.025L139.329 178.734Z" fill="#194655"/>
<path d="M129.736 51.0821C138.441 52.0768 149.703 53.1264 161.006 73.5811C173.365 95.9427 166.855 129.339 157.104 138.622C147.353 147.904 115.496 159.362 88.7213 142.205C88.7213 142.205 72.5533 131.807 80.8512 114.551C93.6227 87.996 91.8136 82.462 97.5242 72.0533C103.24 61.6501 111.265 48.9718 129.736 51.0821Z" fill="#F9E0B2"/>
<path d="M161.012 73.5803C153.296 59.616 145.601 54.6974 138.721 52.6641C141.38 55.5987 144.076 59.3742 146.776 64.2598C159.136 86.6214 152.626 120.018 142.875 129.3C134.226 137.533 108.194 147.474 83.7383 137.654C86.2534 140.621 88.7222 142.209 88.7222 142.209C115.497 159.367 147.354 147.908 157.105 138.626C166.861 129.339 173.366 95.9419 161.012 73.5803Z" fill="#F8CC7F"/>
<path d="M101.795 85.0664L99.5586 92.2218L106.377 89.364L101.795 85.0664Z" fill="#F79C8D"/>
<path d="M108.828 63.7715C108.375 63.7935 107.127 64.2331 105.308 67.8932C102.984 72.5645 99.582 86.6718 99.582 86.6718L109.725 90.6891L111.029 87.7434L113.178 65.074C113.178 65.074 108.952 63.766 108.828 63.7715Z" fill="#163088"/>
<path d="M122.238 61.7373C119.336 61.7428 112.157 62.6386 108.827 63.7707C108.827 63.7707 106.379 86.1268 111.033 103.114C112.074 106.917 110.172 118.875 110.172 118.875L140.235 118.452C140.235 118.452 136.674 89.5396 138.014 84.8683C139.354 80.197 139.39 63.9191 139.39 63.9191C139.39 63.9191 139.184 63.8861 132.638 62.6825C129.577 62.1275 125.335 61.7373 122.238 61.7373Z" fill="#3150BC"/>
<path d="M125.743 160.367C125.743 160.367 125.079 168.523 123.857 170.781C122.636 173.04 123.919 176.882 123.986 177.409C124.053 177.937 126.558 178.69 130.552 178.239C134.541 177.788 134.479 176.81 134.155 175.227C133.835 173.645 131.707 171.611 131.583 170.105C131.454 168.6 132.804 163.175 132.804 163.175L125.743 160.367Z" fill="#F8A491"/>
<path d="M113.559 112.143C113.559 112.143 92.8091 110.918 88.1706 113.902C83.5372 116.886 89.0107 123.008 89.0107 123.008C89.0107 123.008 105.905 130.811 134.19 132.548C140.89 132.96 141.468 113.99 140.215 112.418C138.963 110.852 113.559 112.143 113.559 112.143Z" fill="#163088"/>
<path d="M131.046 178.871C135.154 178.404 134.649 176.261 134.314 174.634C134.108 173.612 132.927 172.414 132.226 171.276C131.86 171.59 131.263 172.134 129.479 172.694C127.624 173.277 125.088 172.123 123.47 171.403C122.892 173.683 122.867 176.596 122.918 177.036C122.98 177.58 126.933 179.339 131.046 178.871Z" fill="#34548A"/>
<path d="M128.778 127.921C127.948 134.588 123.846 167.775 123.846 167.775L133.37 169.028C133.37 169.028 145.085 125.707 144.482 119.084C143.879 112.457 139.498 111.902 139.498 111.902C139.498 111.902 130.968 110.275 128.778 127.921Z" fill="#3150BC"/>
<path d="M119.65 33.534C119.65 33.534 122.815 29.9783 125.361 34.3034C125.361 34.3034 127.32 33.1273 128.696 35.2212C128.696 35.2212 132.236 34.0836 133.097 39.733C133.097 39.733 134.922 39.3648 135.159 41.6785C135.401 43.9866 134.298 45.5309 134.298 45.5309C134.298 45.5309 135.324 46.3497 134.855 48.4765C134.458 50.2846 133.056 50.5594 133.056 50.5594C133.056 50.5594 132.68 53.6039 131.438 54.5217C130.201 55.4395 128.515 54.9998 128.515 54.9998C128.515 54.9998 128.067 56.6485 126.624 56.5056C125.181 56.3572 123.392 54.8899 121.774 55.5494C120.156 56.2089 115.96 55.5109 115.96 55.5109C115.96 55.5109 111.249 53.2742 112.656 48.1358C112.656 48.1358 110.177 45.7507 112.347 42.893C112.347 42.893 110.765 38.4196 113.893 35.7762C117.037 33.1328 119.65 33.534 119.65 33.534Z" fill="#12355A"/>
<path d="M120.186 57.6935L119.614 62.2274C119.614 62.2274 118.331 68.7561 119.98 70.0146C121.63 71.2731 127 62.0405 127 62.0405L126.433 50.5547L120.186 57.6935Z" fill="#F8A491"/>
<path d="M126.62 54.2752C125.254 58.1935 122.007 60.6006 119.703 61.5349L120.188 57.6934L126.434 50.5547L126.62 54.2752Z" fill="#F37458"/>
<path d="M122.619 38.4918C119.269 37.2608 115.698 39.6349 115.187 43.3169C114.966 44.9162 114.765 46.933 114.729 49.1313C114.641 54.4236 117.208 59.5729 119.46 59.5729C121.712 59.5729 127.943 56.1492 128.17 48.6312C128.309 43.9929 126.134 39.7778 122.619 38.4918Z" fill="#F8A491"/>
<path d="M126.506 49.2301C126.506 50.3952 127.233 51.3459 128.129 51.3459C129.026 51.3459 129.753 50.4007 129.753 49.2301C129.753 48.065 129.026 47.1143 128.129 47.1143C127.233 47.1143 126.506 48.0595 126.506 49.2301Z" fill="#F8A491"/>
<path d="M112.853 35.8533C110.523 37.8207 109.709 40.8104 111.028 42.5305C112.347 44.2506 115.311 44.0473 117.635 42.0854C119.96 40.1234 120.779 37.1283 119.46 35.4082C118.14 33.688 115.182 33.8914 112.853 35.8533Z" fill="#12355A"/>
<path d="M139.71 66.409C136.901 65.2879 135.525 92.1999 135.144 103.279C130.165 103.79 121.491 103.285 119.331 103.109C118.316 103.026 115.971 102.114 114.961 101.977C113.925 101.834 112.987 101.757 112.476 101.85C112.291 101.883 107.101 104.142 106.658 104.636C106.106 105.252 104.617 106.796 104.869 107.467C105.122 108.137 107.73 105.604 107.73 105.604L109.008 104.845C107.42 106.494 104.39 108.665 104.828 109.456C105.256 110.225 107.987 108.022 109.936 106.521C108.266 108.126 106.189 110.995 106.668 111.44C107.096 111.841 109.456 108.522 111.982 107.566C112.915 107.208 113.847 108.192 114.584 108.313C115.126 108.401 115.961 108.588 116.491 108.428L119.223 107.604C120.156 107.692 120.176 108.28 121.114 108.489C122.207 108.736 123.996 108.994 125.387 109.357C133.386 111.434 136.056 112.402 138.504 112.396C145.926 112.385 146.353 69.0579 139.71 66.409Z" fill="#F8A491"/>
<path d="M145.046 91.6779C145.572 80.3295 145.494 66.3431 139.511 63.958C137.15 63.0183 132.986 68.6788 133.733 91.9087C136.934 92.189 141.624 92.4143 145.046 91.6779Z" fill="#163088"/>
<path d="M111.559 86.8027H112.172L121.341 110.753L120.712 110.648L111.559 86.8027Z" fill="#F79C8D"/>
<path d="M97.8854 167.347C97.8854 167.347 98.7152 170.177 97.2309 172.051C95.7414 173.925 89.5566 175.76 88.7475 176.777C87.9383 177.794 87.995 178.657 87.995 178.657L105.354 178.151L105.163 172.578L104.364 168.578L97.8854 167.347Z" fill="#F8A491"/>
<path d="M96.1536 172.985C96.1536 172.985 100.612 174.903 102.766 173.766C104.92 172.628 104.853 172.315 105.477 172.738C106.101 173.161 106.322 178.382 106.322 178.382L86.8043 178.992C85.4437 178.959 84.7582 177.898 85.8612 176.986C86.6188 176.36 87.4898 175.942 87.9897 175.64C89.5205 174.716 96.1536 172.985 96.1536 172.985Z" fill="#34548A"/>
<path d="M98.5449 117.375C97.2049 114.374 94.1537 110.467 88.7833 112.819C83.6654 115.061 82.2893 120.579 83.9025 126.223C85.5157 131.867 96.1535 165.06 96.5246 169.627L105.013 169.688C105.013 169.688 103.472 143.402 103.091 137.049C102.73 130.938 100.869 122.563 98.5449 117.375Z" fill="#3150BC"/>
<path d="M84.7613 86.8027H113.144C113.897 86.8027 114.572 87.2863 114.855 88.0282L123.596 110.758H139.244C139.682 110.758 140.037 111.137 140.037 111.604C140.037 112.072 139.682 112.451 139.244 112.451H94.7084C93.4818 112.451 92.3737 111.687 91.8738 110.494L83.076 89.5945C82.5193 88.2756 83.4161 86.8027 84.7613 86.8027Z" fill="#7B6A67"/>
<path d="M100.045 100.037C100.236 101.059 101.071 101.741 101.911 101.559C102.751 101.378 103.271 100.411 103.081 99.3884C102.89 98.3662 102.055 97.6848 101.215 97.8661C100.375 98.042 99.849 99.0147 100.045 100.037Z" fill="white"/>
<path opacity="0.3" d="M179.84 54.6542C187.579 54.6542 193.853 47.9494 193.853 39.6786C193.853 31.4079 187.579 24.7031 179.84 24.7031C172.1 24.7031 165.826 31.4079 165.826 39.6786C165.826 47.9494 172.1 54.6542 179.84 54.6542Z" fill="#A0BFE4"/>
<path d="M169.932 39.3818H164.768V39.805H169.932V39.3818Z" fill="#194655"/>
<path d="M194.938 39.3818H189.773V39.805H194.938V39.3818Z" fill="#194655"/>
<path d="M180.02 23.6865H179.623V29.2095H180.02V23.6865Z" fill="#194655"/>
<path d="M180.02 50.3018H179.623V55.8248H180.02V50.3018Z" fill="#194655"/>
<path d="M180.266 39.6788C180.266 39.9316 180.075 40.1349 179.838 40.1349C179.601 40.1349 179.41 39.9316 179.41 39.6788C179.41 39.426 179.601 39.2227 179.838 39.2227C180.075 39.2227 180.266 39.426 180.266 39.6788Z" fill="#194655"/>
<path d="M179.839 39.8818C179.793 39.8818 179.742 39.8598 179.705 39.8214L172.021 31.6109C171.949 31.5285 171.949 31.4021 172.021 31.3196C172.093 31.2372 172.217 31.2372 172.289 31.3196L179.973 39.5301C180.046 39.6125 180.046 39.7389 179.973 39.8214C179.937 39.8598 179.891 39.8818 179.839 39.8818Z" fill="#194655"/>
<path d="M182.313 47.9769C182.282 47.9604 182.256 47.9274 182.246 47.889L179.762 39.8709C179.736 39.7939 179.777 39.7115 179.849 39.684C179.921 39.6565 179.999 39.7005 180.024 39.7774L182.509 47.7955C182.534 47.8725 182.493 47.9549 182.421 47.9824C182.38 47.9934 182.344 47.9934 182.313 47.9769Z" fill="#194655"/>
<path d="M202.177 73.4548L203.429 71.2895L202.424 70.8553C202.202 70.7619 202.099 70.4926 202.187 70.2563C202.275 70.02 202.527 69.9101 202.749 70.0035L203.908 70.5036L205.027 68.5582L203.955 68.0966C203.733 68.0032 203.63 67.7339 203.718 67.4976C203.805 67.2613 204.058 67.1513 204.279 67.2448L205.506 67.7778L206.805 65.5521C206.913 65.3653 207.14 65.2883 207.331 65.3708L207.516 65.4532C207.764 65.5576 207.861 65.8764 207.722 66.1182L206.516 68.223L208.294 68.9924L209.593 66.7666C209.701 66.5798 209.928 66.5029 210.119 66.5853L210.325 66.6732C210.572 66.7776 210.67 67.0964 210.531 67.3382L209.325 69.443L210.33 69.8771C210.552 69.9706 210.655 70.2398 210.567 70.4761C210.48 70.7125 210.227 70.8224 210.006 70.729L208.846 70.2289L207.743 72.1798L208.815 72.6414C209.037 72.7348 209.14 73.0041 209.052 73.2404C208.964 73.4767 208.712 73.5867 208.49 73.4932L207.264 72.9602L205.939 75.2573C205.831 75.4496 205.604 75.5266 205.413 75.4441L205.192 75.3507C204.944 75.2463 204.846 74.9276 204.986 74.6858L206.238 72.5205L204.46 71.7511L203.135 74.0483C203.027 74.2406 202.8 74.3175 202.61 74.2351L202.393 74.1417C202.135 74.0098 202.037 73.6966 202.177 73.4548ZM206.712 71.7182L207.831 69.7727L206.052 69.0033L204.934 70.9488L206.712 71.7182Z" fill="#12355A"/>
<path d="M185.086 14.5192L186.044 12.211L184.802 10.0568C184.663 9.80946 184.843 9.50171 185.111 9.52919L187.467 9.78748L189.003 7.86402C189.178 7.6442 189.513 7.73762 189.57 8.0179L190.064 10.4854L192.255 11.4471C192.502 11.5571 192.528 11.9253 192.296 12.0682L190.245 13.3322L190.064 15.8491C190.044 16.1349 189.724 16.2723 189.523 16.08L187.76 14.3928L185.457 14.9863C185.199 15.0633 184.977 14.783 185.086 14.5192Z" fill="#F8CC7F"/>
<path d="M175.566 80.4889L175.417 78.5764L173.855 77.6257C173.675 77.5157 173.69 77.241 173.881 77.153L175.541 76.4056L175.906 74.5261C175.948 74.3117 176.2 74.2403 176.334 74.4052L177.509 75.856L179.298 75.6472C179.504 75.6252 179.643 75.856 179.535 76.0484L178.602 77.6916L179.344 79.4392C179.427 79.6371 179.262 79.8569 179.061 79.802L177.308 79.3678L175.979 80.6593C175.824 80.8077 175.582 80.7033 175.566 80.4889Z" fill="#F58D80"/>
<path d="M86.5218 49.3066L87.2279 47.614L86.3208 46.0367C86.2178 45.8554 86.3518 45.6301 86.5476 45.6521L88.2742 45.8444L89.4029 44.4375C89.5317 44.2782 89.774 44.3441 89.8204 44.5475L90.1863 46.3555L91.7892 47.0644C91.9696 47.1468 91.9902 47.4161 91.8201 47.5205L90.3151 48.4493L90.1811 50.2958C90.1657 50.5046 89.9286 50.609 89.7843 50.4662L88.4906 49.2297L86.8002 49.6638C86.6043 49.7023 86.4445 49.499 86.5218 49.3066Z" fill="#51C0A5"/>
<path d="M53.4323 100.712L55.5402 98.7227L58.9212 101.987L62.3435 99.4811L65.2451 101.487L66.1986 99.9208L62.3125 97.239L59.0707 99.613L55.5557 96.2168L52.3809 99.2118L53.4323 100.712Z" fill="#12355A"/>
<path d="M20.2975 103.175L22.0704 100.108L20.6479 99.4928C20.3387 99.3609 20.1892 98.9818 20.3129 98.6465C20.4366 98.3168 20.7922 98.1574 21.1066 98.2893L22.7456 98.9982L24.3279 96.245L22.8074 95.591C22.4982 95.4591 22.3487 95.0799 22.4724 94.7446C22.5961 94.4149 22.9518 94.2555 23.2661 94.3874L25.003 95.1403L26.843 91.9859C26.9976 91.7166 27.312 91.6067 27.5852 91.7276L27.848 91.843C28.1985 91.9914 28.3325 92.442 28.1366 92.7827L26.4255 95.7558L28.9407 96.844L30.7806 93.6895C30.9352 93.4202 31.2496 93.3103 31.5228 93.4312L31.8114 93.5576C32.1619 93.706 32.2959 94.1566 32.1 94.4974L30.3889 97.4705L31.8114 98.086C32.1207 98.2179 32.2701 98.5971 32.1464 98.9323C32.0227 99.262 31.6671 99.4214 31.3527 99.2895L29.7138 98.5806L28.1573 101.345L29.6777 101.999C29.9869 102.131 30.1364 102.51 30.0127 102.845C29.889 103.175 29.5334 103.334 29.219 103.202L27.4821 102.449L25.606 105.703C25.4514 105.972 25.137 106.082 24.8587 105.961L24.5495 105.829C24.199 105.681 24.065 105.23 24.2609 104.889L26.0338 101.823L23.5187 100.735L21.6427 103.988C21.488 104.258 21.1736 104.367 20.8953 104.247L20.5861 104.115C20.2356 103.966 20.1016 103.516 20.2975 103.175ZM26.7142 100.718L28.2964 97.9651L25.7813 96.8769L24.199 99.6302L26.7142 100.718Z" fill="#51C0A5"/>
<path d="M179.84 22.1855C170.8 22.1855 163.471 30.0168 163.471 39.6726C163.471 49.3339 170.8 57.1597 179.84 57.1597C188.88 57.1597 196.209 49.3284 196.209 39.6726C196.209 30.0168 188.88 22.1855 179.84 22.1855ZM180.721 54.6207C172.995 55.1373 166.341 48.8668 165.857 40.6124C165.372 32.3579 171.243 25.2466 178.969 24.73C186.694 24.2134 193.348 30.4839 193.833 38.7383C194.312 46.9928 188.442 54.1041 180.721 54.6207Z" fill="#194655"/>
</svg>
