<svg width="560" height="560" viewBox="0 0 560 560" fill="none" xmlns="http://www.w3.org/2000/svg">
<path d="M523 19H0V542H523V19Z" fill="white"/>
<path d="M242.805 177.072C225.299 113.579 146.429 93.128 101.226 140.582C100.576 141.266 99.9265 141.96 99.2769 142.666C34.4737 213.114 65.0833 386.702 200.323 430.696C335.563 474.69 476.235 394.352 484.131 322.526C492.039 250.701 429.643 228.133 332.819 248.226C278.119 259.56 253.702 216.608 242.805 177.072Z" fill="#BBE2F2"/>
<path d="M355.299 187.936C337.199 190.882 332.193 206.909 346.159 218.288C350.774 222.051 357.371 225.176 366.767 226.733C402.562 232.669 421.546 216.832 407.199 196.302C398.351 183.635 373.241 185.013 355.299 187.936Z" fill="#BBE2F2"/>
<path d="M66.7967 316.221C55.5519 301.75 39.0767 305.021 35.7727 322.728C34.6863 328.586 35.1007 335.866 38.2255 344.859C50.1423 379.12 73.1359 388.214 84.3023 365.792C91.1791 351.96 77.9407 330.568 66.7967 316.221Z" fill="#BBE2F2"/>
<path d="M496.898 330.87C495.23 339.595 502.442 345.778 510.596 342.418C513.295 341.309 516.017 339.158 518.436 335.395C527.665 321.048 522.983 308.739 510.148 309.994C502.218 310.778 498.545 322.224 496.898 330.87Z" fill="#BBE2F2"/>
<path d="M451.157 238.784C459.849 240.598 466.154 233.498 462.929 225.277C461.865 222.555 459.77 219.8 456.041 217.314C441.85 207.85 429.463 212.307 430.505 225.176C431.154 233.117 442.533 236.992 451.157 238.784Z" fill="#BBE2F2"/>
<path d="M239.78 145.41C246.668 151.021 255.527 147.616 256.446 138.835C256.748 135.934 256.154 132.518 253.993 128.598C245.75 113.658 232.702 111.922 227.706 123.827C224.626 131.174 232.959 139.843 239.78 145.41Z" fill="#BBE2F2"/>
<path d="M154.873 444.662C154.94 448.885 155.008 453.275 155.108 457.722H195.832C195.91 452.861 195.966 448.19 196.011 443.822C196.134 431.973 196.145 422.218 196.134 416.147C196.134 411.846 196.112 409.405 196.112 409.405L154.582 408.968C154.582 408.968 154.582 412.552 154.616 418.421C154.649 424.95 154.716 434.291 154.873 444.662Z" fill="#18315B"/>
<path d="M154.627 418.432C154.649 424.95 154.728 434.291 154.885 444.662C167.675 445.637 181.697 445.648 196.022 443.822C196.145 431.973 196.157 422.218 196.145 416.147L154.627 418.432Z" fill="#000B29"/>
<path d="M103.556 435.299C103.601 441.941 103.68 449.546 103.814 457.722H144.537C144.638 452.928 144.716 448.202 144.784 443.677C144.929 433.966 144.996 425.23 145.03 418.958C145.064 412.776 145.064 408.979 145.064 408.979L103.523 409.416C103.523 409.416 103.489 413.818 103.5 421.232C103.5 425.152 103.523 429.901 103.556 435.299Z" fill="#18315B"/>
<path d="M103.5 421.232C103.5 425.152 103.522 429.912 103.556 435.299C111.822 437.741 126.628 441.526 144.783 443.677C144.929 433.966 144.996 425.23 145.03 418.958L103.5 421.232Z" fill="#000B29"/>
<path d="M171.777 190.49C171.777 190.49 178.318 184.184 178.295 177.968C178.273 171.741 174.039 173.578 171.777 167.787C169.503 161.986 162.761 158.446 159.065 159.163C155.369 159.869 147.551 145.443 136.956 147.986C126.361 150.528 127.279 164.114 122.721 166.096C118.162 168.078 119.428 176.142 121.836 177.979C124.244 179.816 125.263 187.208 126.607 187.04C127.962 186.861 171.777 190.49 171.777 190.49Z" fill="#18315B"/>
<path d="M127.725 190.344C127.725 190.344 123.615 184.856 120.546 189.392C117.488 193.928 121.811 207.323 129.304 204.053L127.725 190.344Z" fill="#F97853"/>
<path d="M127.669 199.92C127.389 199.92 127.142 199.741 127.064 199.461C125.899 195.328 121.621 193.648 121.576 193.626C121.251 193.502 121.083 193.133 121.206 192.808C121.33 192.483 121.699 192.315 122.024 192.438C122.226 192.517 126.952 194.342 128.285 199.114C128.374 199.45 128.184 199.797 127.848 199.898C127.792 199.909 127.725 199.92 127.669 199.92Z" fill="#EA5143"/>
<path d="M123.345 197.837C123.233 197.837 123.11 197.803 122.998 197.736C122.707 197.546 122.617 197.154 122.807 196.862C122.841 196.818 123.603 195.653 125.182 194.947C125.495 194.802 125.876 194.947 126.022 195.272C126.167 195.586 126.022 195.966 125.697 196.112C124.476 196.661 123.871 197.546 123.871 197.557C123.759 197.725 123.558 197.837 123.345 197.837Z" fill="#EA5143"/>
<path d="M170.128 190.344C170.128 190.344 174.238 184.856 177.307 189.392C180.365 193.928 176.042 207.323 168.549 204.053L170.128 190.344Z" fill="#F97853"/>
<path d="M170.185 199.92C170.465 199.92 170.711 199.741 170.79 199.461C171.955 195.328 176.233 193.648 176.278 193.626C176.603 193.502 176.771 193.133 176.647 192.808C176.524 192.483 176.155 192.315 175.83 192.438C175.628 192.517 170.902 194.342 169.569 199.114C169.479 199.45 169.67 199.797 170.006 199.898C170.062 199.909 170.129 199.92 170.185 199.92Z" fill="#EA5143"/>
<path d="M174.507 197.837C174.619 197.837 174.742 197.803 174.854 197.736C175.145 197.546 175.235 197.154 175.044 196.862C175.011 196.818 174.249 195.653 172.67 194.947C172.356 194.802 171.976 194.947 171.83 195.272C171.684 195.586 171.83 195.966 172.155 196.112C173.376 196.661 173.98 197.546 173.98 197.557C174.092 197.725 174.294 197.837 174.507 197.837Z" fill="#EA5143"/>
<path d="M159.052 215.421V228.749C159.052 228.749 155.076 235.536 149.7 235.995C144.336 236.466 139.564 230.149 139.564 230.149V216.362L159.052 215.421Z" fill="#FFA681"/>
<path d="M159.052 215.421V221.334C155.446 225.333 149.04 226.33 139.564 224.941V216.362L159.052 215.421Z" fill="#F97853"/>
<path d="M173.096 181.205C172.849 186.379 172.356 192.853 171.371 198.038C171.124 199.326 170.844 200.547 170.531 201.634C167.731 211.456 160.708 228.29 141.075 221.278C132.406 218.187 128.385 208.522 126.593 198.699C125.384 192.024 125.193 185.282 125.283 180.466C125.372 175.549 128.06 171.058 132.339 168.627C143.931 162.053 156.161 164.506 164.214 167.597C169.814 169.747 173.387 175.235 173.096 181.205Z" fill="#FFA681"/>
<path d="M126.605 198.688C126.605 198.688 128.509 210.045 130.313 214.178C132.116 218.31 137.033 219.094 138.881 222.589C141.513 227.573 145.522 231.526 152.13 229.118C157.618 227.114 157.372 224.302 160.452 222.13C165.727 218.411 168.337 214.312 168.549 210.918C168.762 207.525 171.383 198.027 171.383 198.027L168.549 197.826C168.549 197.826 166.937 201.163 164.562 204.848C162.177 199.618 150.708 203.426 150.708 203.426L148.513 204.131L146.261 203.426C146.261 203.426 134.658 199.786 132.362 205.262C130.962 203.112 129.82 200.704 129.293 198.139L126.605 198.688ZM148.524 205.901C161.684 203.638 159.332 211.344 159.242 211.624C158.346 212.475 157.439 213.181 156.543 213.674C151.447 216.429 150.898 216.014 148.882 216.104C146.833 216.205 144.01 215.6 141.154 213.998C140.258 213.494 138.925 212.531 137.469 211.198C137.458 211.198 135.386 204.131 148.524 205.901Z" fill="#18315B"/>
<path d="M138.969 194.656C139.872 194.656 140.604 193.503 140.604 192.08C140.604 190.657 139.872 189.504 138.969 189.504C138.066 189.504 137.334 190.657 137.334 192.08C137.334 193.503 138.066 194.656 138.969 194.656Z" fill="#18315B"/>
<path d="M158.436 194.656C159.339 194.656 160.071 193.503 160.071 192.08C160.071 190.657 159.339 189.504 158.436 189.504C157.533 189.504 156.801 190.657 156.801 192.08C156.801 193.503 157.533 194.656 158.436 194.656Z" fill="#18315B"/>
<path d="M164.887 183.602C164.887 183.602 158.122 180.925 152.914 183.176L153.44 186.077C153.44 186.077 161.09 185.427 164.943 186.995C165.268 185.875 165.324 184.744 164.887 183.602Z" fill="#18315B"/>
<path d="M132.721 183.613C132.721 183.613 139.531 180.925 144.783 183.187L144.257 186.11C144.257 186.11 136.551 185.461 132.676 187.029C132.329 185.898 132.273 184.766 132.721 183.613Z" fill="#18315B"/>
<path d="M149.151 202.877C150.215 202.877 151.279 202.462 151.447 202.395C151.772 202.261 151.929 201.891 151.795 201.566C151.66 201.242 151.291 201.085 150.966 201.219C150.395 201.454 149.017 201.813 148.423 201.454C148.311 201.387 148.154 201.253 148.11 200.861C147.886 198.654 148.49 191.24 148.49 191.162C148.524 190.814 148.255 190.512 147.908 190.478C147.561 190.445 147.258 190.714 147.225 191.061C147.202 191.374 146.609 198.666 146.844 200.984C146.934 201.858 147.393 202.306 147.762 202.53C148.177 202.787 148.658 202.877 149.151 202.877Z" fill="#F97853"/>
<path d="M141.074 207.166C141.556 209.586 143.146 214.032 148.533 214.032C153.932 214.032 155.444 209.966 155.959 207.166H141.074Z" fill="white"/>
<path d="M173.095 181.205C172.849 186.379 172.356 192.853 171.37 198.038L168.537 197.837C168.537 197.837 169.22 193.469 169.534 190.613C169.847 187.768 170.385 182.437 167.954 181.776C165.535 181.115 166.958 175.045 163.575 172.413C160.204 169.77 152.711 167.451 147.727 170.509C142.754 173.566 137.098 171.875 134.802 172.413C132.506 172.939 129.393 176.098 130.233 179.054C131.084 182 128.553 183.803 127.937 186.861C127.321 189.918 129.281 198.15 129.281 198.15L126.582 198.699C125.372 192.024 125.182 185.282 125.271 180.466C125.361 175.549 128.049 171.058 132.327 168.627C143.919 162.053 156.15 164.506 164.202 167.597C169.814 169.747 173.386 175.235 173.095 181.205Z" fill="#18315B"/>
<path d="M204.724 429.43C191.912 432.678 179.11 434.773 166.297 435.736C165.715 435.781 165.144 435.826 164.561 435.859C162.803 435.982 161.033 436.072 159.275 436.15C150.561 436.52 141.836 436.374 133.123 435.702C131.364 435.568 129.606 435.411 127.848 435.232C127.288 435.176 126.728 435.12 126.156 435.053C115.74 433.922 105.336 432.04 94.9196 429.419C94.8188 419.821 94.9308 389.48 95.5244 356.574C95.5916 352.621 95.67 348.634 95.7596 344.635C96.678 301.269 98.4588 257.242 101.662 252.84C104.731 248.618 113.993 243.253 122.841 238.414C123.368 238.123 123.894 237.843 124.42 237.552C126.414 236.477 128.352 235.424 130.188 234.427C134.108 232.288 137.491 230.395 139.585 228.928V230.138C139.585 230.138 144.345 236.443 149.721 235.973C154.616 235.547 158.345 229.902 158.972 228.883C161.28 230.507 165.424 232.747 170.24 235.29C171.572 235.995 172.961 236.723 174.372 237.474C174.888 237.742 175.414 238.022 175.94 238.302C185.729 243.488 196.28 249.346 199.449 253.691C199.684 254.016 199.908 254.554 200.121 255.293C201.992 261.643 203.156 282.699 203.862 308.202C203.862 308.291 203.862 308.381 203.873 308.482C203.907 309.512 203.929 310.554 203.952 311.595C203.963 311.73 203.963 311.864 203.963 312.01C204.198 320.958 204.366 330.366 204.5 339.83C204.512 340.581 204.523 341.331 204.534 342.082C204.534 342.462 204.545 342.832 204.545 343.213C204.579 345.072 204.601 346.942 204.612 348.79C204.635 350.157 204.646 351.523 204.657 352.89C205.004 387.117 204.859 419.384 204.724 429.43Z" fill="#006BDE"/>
<path d="M203.94 311.618C200.86 306.589 197.545 301.448 194.431 296.901C194.42 296.89 194.409 296.878 194.409 296.867C193.098 294.963 191.821 293.16 190.612 291.514C190.589 291.48 190.567 291.458 190.545 291.424C190.164 290.909 189.794 290.405 189.425 289.912C189.369 289.822 189.324 289.744 189.29 289.643C189.189 289.318 189.301 288.949 189.593 288.725C189.973 288.445 190.5 288.512 190.78 288.893C194.521 293.854 199.314 300.978 203.839 308.224C203.839 308.314 203.839 308.403 203.85 308.504C203.884 309.534 203.917 310.565 203.94 311.618Z" fill="#264CBE"/>
<path d="M199.561 253.019C199.561 253.019 218.87 288.4 230.652 306.342C230.652 306.342 237.35 300.194 246.052 291.962C255.494 283.035 268.407 268.128 268.407 268.128L275.553 276.606C275.553 276.606 246.545 328.821 233.531 335.373C220.516 341.936 196.537 295.49 196.537 295.49L199.561 253.019Z" fill="#006BDE"/>
<path d="M117.778 392.482C117.767 392.482 117.755 392.482 117.744 392.482C117.263 392.459 116.882 392.056 116.904 391.574C117.912 363.003 103.095 353.741 102.949 353.651C102.535 353.405 102.4 352.867 102.647 352.453C102.893 352.038 103.431 351.904 103.845 352.15C104.013 352.251 107.922 354.626 111.719 360.73C115.179 366.296 119.2 376.174 118.651 391.642C118.629 392.112 118.248 392.482 117.778 392.482Z" fill="#264CBE"/>
<path d="M180.992 365.557C180.544 365.557 180.152 365.21 180.118 364.75C179.648 358.736 181.63 354.346 184.139 348.79C184.878 347.166 185.629 345.486 186.413 343.594C191.285 331.778 188.832 318.27 188.809 318.136C188.72 317.666 189.033 317.206 189.504 317.117C189.974 317.027 190.433 317.341 190.523 317.811C190.635 318.382 193.088 331.968 188.025 344.254C187.241 346.17 186.469 347.861 185.729 349.496C183.232 355.029 181.417 359.038 181.854 364.605C181.888 365.086 181.529 365.501 181.048 365.546C181.037 365.557 181.014 365.557 180.992 365.557Z" fill="#264CBE"/>
<path d="M130.178 234.438C130.547 237.25 131.096 240.901 131.701 245.045C131.88 246.277 132.071 247.554 132.25 248.864C132.855 253.142 133.482 257.802 134.019 262.517C134.165 263.782 134.299 265.048 134.423 266.314C134.893 270.973 135.251 275.61 135.375 279.922C135.419 281.221 135.431 282.498 135.431 283.73C135.419 287.022 135.24 290.035 134.837 292.622C134.579 294.258 134.355 295.848 134.154 297.416C133.986 298.715 133.84 299.981 133.706 301.235C133.202 306.096 132.944 310.621 132.866 314.888C132.843 316.187 132.843 317.453 132.855 318.696C132.888 323.534 133.168 328.048 133.571 332.349C133.695 333.637 133.818 334.902 133.952 336.146C134.479 340.838 135.106 345.307 135.711 349.72C135.89 350.986 136.058 352.24 136.215 353.506C136.472 355.522 136.719 357.549 136.931 359.576C137.155 361.726 137.301 364.258 137.368 367.046C137.402 368.267 137.424 369.544 137.424 370.866C137.447 375.043 137.335 379.68 137.144 384.518C137.088 385.784 137.043 387.061 136.976 388.36C136.763 392.862 136.472 397.488 136.159 402.046C136.069 403.334 135.968 404.611 135.879 405.877C135.531 410.626 135.139 415.262 134.736 419.563C134.613 420.874 134.501 422.15 134.378 423.382C133.919 428.12 133.482 432.331 133.101 435.702C141.826 436.374 150.539 436.52 159.264 436.139C159.466 432.566 160.026 426.787 160.575 420C160.675 418.757 160.776 417.48 160.877 416.17C161.202 411.846 161.504 407.232 161.695 402.573C161.751 401.296 161.795 400.008 161.829 398.731C161.963 394.083 161.963 389.458 161.762 385.123C161.706 383.813 161.627 382.525 161.527 381.27C161.426 379.994 161.303 378.739 161.157 377.541C160.731 374.136 160.575 370.866 160.597 367.64C160.597 366.363 160.631 365.086 160.698 363.81C160.899 359.374 161.381 354.939 161.941 350.224C162.087 348.97 162.243 347.704 162.4 346.405C162.904 342.216 163.431 337.77 163.845 332.898C163.957 331.654 164.058 330.378 164.147 329.067C164.439 324.89 164.629 320.41 164.663 315.515C164.674 314.25 164.663 312.973 164.651 311.651C164.607 307.418 164.427 302.893 164.08 298.021C164.047 297.584 164.024 297.147 163.991 296.71C163.923 295.859 163.867 294.997 163.834 294.134C163.61 289.688 163.666 285.118 163.923 280.549C163.991 279.272 164.08 277.984 164.17 276.707C164.517 272.138 165.032 267.613 165.626 263.278C165.805 261.99 165.984 260.714 166.163 259.459C166.88 254.71 167.642 250.23 168.347 246.232C168.583 244.922 168.807 243.656 169.019 242.446C169.501 239.747 169.915 237.339 170.218 235.301C165.413 232.758 161.258 230.518 158.951 228.894C158.323 229.914 154.594 235.558 149.699 235.984C144.335 236.454 139.563 230.149 139.563 230.149V228.939C137.48 230.406 134.098 232.31 130.178 234.438Z" fill="white"/>
<path d="M131.701 245.045C131.88 246.277 132.071 247.554 132.25 248.864C137.066 248.976 142.722 248.248 149.543 246.68C156.845 245 163.285 245.291 168.359 246.232C168.594 244.922 168.818 243.656 169.031 242.446C163.532 241.427 156.588 241.136 148.692 242.962C141.96 244.518 136.349 245.224 131.701 245.045Z" fill="#E3E3E3"/>
<path d="M134.02 262.517C134.165 263.782 134.3 265.048 134.423 266.314C138.746 266.202 143.719 265.474 149.532 264.13C155.568 262.741 161.023 262.707 165.615 263.278C165.794 261.99 165.973 260.714 166.152 259.459C161.18 258.843 155.255 258.899 148.669 260.411C143.036 261.722 138.186 262.427 134.02 262.517Z" fill="#E3E3E3"/>
<path d="M135.385 279.922C135.43 281.221 135.441 282.498 135.441 283.73C139.529 283.539 144.177 282.822 149.542 281.59C154.85 280.37 159.7 280.19 163.911 280.56C163.978 279.283 164.068 277.995 164.158 276.718C159.622 276.349 154.402 276.562 148.679 277.872C143.639 279.037 139.238 279.72 135.385 279.922Z" fill="#E3E3E3"/>
<path d="M133.717 301.235C138.208 301.19 143.405 300.451 149.542 299.04C154.918 297.797 159.824 297.64 164.08 298.021C164.046 297.584 164.024 297.147 163.99 296.71C163.923 295.859 163.867 294.997 163.834 294.134C159.376 293.798 154.269 294.034 148.691 295.322C143.114 296.61 138.309 297.315 134.176 297.416C133.997 298.715 133.851 299.992 133.717 301.235Z" fill="#E3E3E3"/>
<path d="M132.866 318.696C137.548 318.73 143.013 318.013 149.532 316.501C155.165 315.202 160.272 315.078 164.652 315.526C164.663 314.261 164.652 312.984 164.64 311.662C159.992 311.237 154.605 311.416 148.68 312.782C142.509 314.205 137.29 314.922 132.877 314.888C132.866 316.187 132.855 317.453 132.866 318.696Z" fill="#E3E3E3"/>
<path d="M133.582 332.338C133.705 333.626 133.828 334.891 133.963 336.134C138.398 336.067 143.505 335.339 149.531 333.95C154.817 332.73 159.644 332.55 163.833 332.898C163.945 331.654 164.046 330.378 164.136 329.067C159.6 328.698 154.392 328.91 148.668 330.221C142.844 331.576 137.838 332.293 133.582 332.338Z" fill="#E3E3E3"/>
<path d="M135.723 349.72C135.902 350.986 136.07 352.24 136.227 353.506C140.113 353.259 144.503 352.565 149.532 351.411C154.035 350.37 158.201 350.09 161.931 350.235C162.076 348.981 162.233 347.715 162.39 346.416C158.279 346.226 153.665 346.539 148.67 347.693C143.787 348.813 139.497 349.496 135.723 349.72Z" fill="#E3E3E3"/>
<path d="M137.391 367.046C137.424 368.267 137.447 369.544 137.447 370.866C141.031 370.563 145.029 369.902 149.543 368.85C153.507 367.931 157.226 367.606 160.597 367.64C160.597 366.363 160.631 365.086 160.698 363.81C157.035 363.776 153.003 364.134 148.691 365.131C144.491 366.106 140.751 366.744 137.391 367.046Z" fill="#E3E3E3"/>
<path d="M136.988 388.36C140.684 388.08 144.839 387.397 149.532 386.31C153.956 385.291 158.067 385 161.763 385.146C161.707 383.835 161.628 382.547 161.528 381.293C157.641 381.181 153.329 381.517 148.681 382.592C144.403 383.578 140.572 384.227 137.156 384.518C137.111 385.784 137.055 387.072 136.988 388.36Z" fill="#E3E3E3"/>
<path d="M135.891 405.888C139.867 405.664 144.369 404.958 149.543 403.771C153.945 402.752 158.033 402.461 161.695 402.595C161.751 401.318 161.796 400.03 161.83 398.754C157.865 398.619 153.452 398.944 148.681 400.053C143.988 401.139 139.833 401.811 136.171 402.058C136.081 403.334 135.98 404.611 135.891 405.888Z" fill="#E3E3E3"/>
<path d="M134.389 423.405C138.723 423.293 143.707 422.565 149.531 421.221C153.496 420.314 157.203 419.978 160.574 420.011C160.675 418.768 160.776 417.491 160.877 416.181C157.158 416.125 153.07 416.483 148.68 417.491C143.36 418.712 138.745 419.418 134.747 419.574C134.635 420.885 134.512 422.162 134.389 423.405Z" fill="#E3E3E3"/>
<path d="M164.551 435.87C165.133 435.837 165.704 435.792 166.287 435.747C169.725 415.542 167.743 385.874 167.004 376.79C166.242 367.349 167.709 355.219 171.036 343.504C173.612 334.41 172.032 313.309 170.767 296.363C170.408 291.603 170.072 287.112 169.871 283.416C169.221 271.488 173.544 249.402 175.919 238.336C175.392 238.056 174.866 237.776 174.351 237.507C171.965 248.461 167.485 271.051 168.168 283.517C168.37 287.224 168.706 291.726 169.064 296.498C170.33 313.32 171.898 334.242 169.4 343.045C166.018 354.95 164.528 367.304 165.312 376.936C166.052 386.019 168.045 415.867 164.551 435.87Z" fill="#264CBE"/>
<path d="M129.337 353.641C131.353 366.062 130.715 374.137 129.987 383.478C129.752 386.502 129.505 389.615 129.326 393.065C128.788 403.873 126.963 425.657 126.145 435.065C126.705 435.132 127.265 435.188 127.836 435.244C128.643 425.825 130.48 403.996 131.028 393.143C131.196 389.727 131.443 386.614 131.678 383.612C132.417 374.159 133.067 365.994 131.006 353.372C130.569 350.662 130.099 347.906 129.64 345.174C127.355 331.633 124.98 317.633 126.1 310.924C126.369 309.289 126.716 307.43 127.097 305.458C128.62 297.361 130.513 287.292 129.92 278.545C129.326 269.876 125.776 246.412 124.409 237.575C123.883 237.855 123.356 238.146 122.83 238.437C124.252 247.689 127.646 270.245 128.228 278.668C128.811 287.191 126.94 297.148 125.44 305.156C125.07 307.138 124.712 308.997 124.443 310.655C123.278 317.644 125.563 331.162 127.982 345.476C128.441 348.186 128.9 350.93 129.337 353.641Z" fill="#264CBE"/>
<path d="M95.9394 267.254C95.9394 267.254 78.6466 324.912 74.3682 345.464C70.0898 366.016 69.7538 408.722 69.7538 408.722C69.7538 408.722 62.1938 424.413 62.0146 431.39C61.8242 438.838 65.733 444.752 65.285 449.624C64.837 454.496 70.773 451.853 69.093 441.986C67.413 432.118 72.173 423.181 74.2226 423.472C76.2722 423.763 72.5202 434.246 74.3458 438.021C76.1714 441.795 78.5234 434.459 80.8754 430.002C83.3058 425.376 83.1714 415.285 82.0626 408.083C80.9538 400.882 94.013 357.123 94.0802 344.445L110.611 288.568C110.611 288.579 105.146 265.25 95.9394 267.254Z" fill="#FFA681"/>
<path d="M112.728 287.179C112.146 290.886 110.096 297.248 107.442 305.245C107.218 305.917 106.982 306.611 106.758 307.306C106.747 307.339 106.736 307.373 106.725 307.406C106.064 309.4 105.37 311.483 104.653 313.634C104.653 313.645 104.642 313.656 104.642 313.667C101.707 322.571 98.4592 332.752 95.7376 343.224C94.7968 346.808 93.9232 350.426 93.1504 354.032C92.1536 358.635 91.3136 363.227 90.6976 367.718C88.4912 383.902 84.2576 404.41 84.2576 404.41C78.0528 406.952 68.3648 403.592 68.3648 403.592C68.3648 403.592 68.1184 374.058 69.496 362.589C71.2096 348.398 73.3824 338.307 76.0816 326.704C83.5072 294.795 96.5776 263.581 100.162 255.293C100.442 254.632 100.666 254.117 100.822 253.758H103.902C110.006 257.645 114.307 277.2 112.728 287.179Z" fill="#006BDE"/>
<path d="M67.873 397.701L68.3546 404.499C68.3546 404.499 77.5723 407.49 84.4827 405.384L86.3083 399.325C79.6554 399.672 73.5178 399.504 67.873 397.701Z" fill="#009CF8"/>
<path d="M107.442 305.245C107.442 305.346 107.419 305.446 107.386 305.547C107.173 306.118 106.96 306.712 106.758 307.317C106.747 307.35 106.736 307.384 106.725 307.418C106.042 309.344 105.358 311.438 104.653 313.645C104.653 313.656 104.642 313.667 104.642 313.678C101.035 325.158 97.3616 339.584 95.6704 348.813C95.6928 346.954 95.704 345.094 95.7376 343.235C94.7968 346.819 93.9232 350.437 93.1504 354.043C93.4976 350.661 94.4608 345.598 95.7824 339.853C98.448 328.238 102.536 313.846 105.784 304.965C105.941 304.528 106.434 304.304 106.87 304.461C107.229 304.584 107.442 304.898 107.442 305.245Z" fill="#264CBE"/>
<path d="M333.199 457.722C331.339 447.395 329.503 435.758 327.834 424.458C327.464 421.96 327.106 419.474 326.759 417.032C325.426 407.669 324.227 398.821 323.264 391.474C322.895 388.685 322.57 386.109 322.267 383.813C321.338 376.477 320.789 371.93 320.789 371.93L279.607 373.486L238.301 371.93C238.301 371.93 237.237 380.934 235.535 394.005C235.221 396.379 234.885 398.888 234.538 401.509C233.619 408.363 232.578 415.934 231.447 423.685C231.435 423.797 231.413 423.909 231.402 424.021C231.043 426.44 230.685 428.87 230.315 431.301C230.315 431.334 230.304 431.368 230.293 431.402C229.408 437.282 228.479 443.15 227.538 448.795C227.146 451.125 226.754 453.421 226.362 455.65C226.239 456.344 226.115 457.027 225.992 457.71H333.199V457.722Z" fill="#006BDE"/>
<path d="M243.912 388.181C246.058 388.181 247.798 386.441 247.798 384.294C247.798 382.148 246.058 380.408 243.912 380.408C241.765 380.408 240.025 382.148 240.025 384.294C240.025 386.441 241.765 388.181 243.912 388.181Z" fill="#264CBE"/>
<path d="M253.545 403.222C255.691 403.222 257.431 401.482 257.431 399.336C257.431 397.19 255.691 395.45 253.545 395.45C251.398 395.45 249.658 397.19 249.658 399.336C249.658 401.482 251.398 403.222 253.545 403.222Z" fill="#264CBE"/>
<path d="M272.494 395.461C274.64 395.461 276.38 393.721 276.38 391.574C276.38 389.428 274.64 387.688 272.494 387.688C270.347 387.688 268.607 389.428 268.607 391.574C268.607 393.721 270.347 395.461 272.494 395.461Z" fill="#264CBE"/>
<path d="M242.591 419.182C244.738 419.182 246.478 417.442 246.478 415.296C246.478 413.15 244.738 411.41 242.591 411.41C240.445 411.41 238.705 413.15 238.705 415.296C238.705 417.442 240.445 419.182 242.591 419.182Z" fill="#264CBE"/>
<path d="M266.267 417.525C268.414 417.525 270.154 415.785 270.154 413.638C270.154 411.492 268.414 409.752 266.267 409.752C264.121 409.752 262.381 411.492 262.381 413.638C262.381 415.785 264.121 417.525 266.267 417.525Z" fill="#264CBE"/>
<path d="M238.054 397.645C238.054 399.661 236.508 401.33 234.537 401.509C234.884 398.888 235.22 396.379 235.534 394.005C237.012 394.554 238.054 395.965 238.054 397.645Z" fill="#264CBE"/>
<path d="M304.851 440.328C306.998 440.328 308.738 438.588 308.738 436.442C308.738 434.295 306.998 432.555 304.851 432.555C302.705 432.555 300.965 434.295 300.965 436.442C300.965 438.588 302.705 440.328 304.851 440.328Z" fill="#264CBE"/>
<path d="M303.025 419.182C305.172 419.182 306.912 417.442 306.912 415.296C306.912 413.15 305.172 411.41 303.025 411.41C300.879 411.41 299.139 413.15 299.139 415.296C299.139 417.442 300.879 419.182 303.025 419.182Z" fill="#264CBE"/>
<path d="M327.834 424.458C327.364 424.659 326.848 424.76 326.311 424.76C324.172 424.76 322.436 423.024 322.436 420.885C322.436 418.746 324.172 417.009 326.311 417.009C326.468 417.009 326.613 417.021 326.759 417.043C327.106 419.473 327.464 421.96 327.834 424.458Z" fill="#264CBE"/>
<path d="M306.902 455.829C309.048 455.829 310.788 454.089 310.788 451.942C310.788 449.796 309.048 448.056 306.902 448.056C304.756 448.056 303.016 449.796 303.016 451.942C303.016 454.089 304.756 455.829 306.902 455.829Z" fill="#264CBE"/>
<path d="M323.5 449.635C325.646 449.635 327.386 447.895 327.386 445.749C327.386 443.602 325.646 441.862 323.5 441.862C321.353 441.862 319.613 443.602 319.613 445.749C319.613 447.895 321.353 449.635 323.5 449.635Z" fill="#264CBE"/>
<path d="M292.834 457.722C292.14 456.702 290.964 456.03 289.631 456.03C288.298 456.03 287.133 456.702 286.428 457.722H292.834Z" fill="#264CBE"/>
<path d="M240.037 443.71C242.183 443.71 243.923 441.97 243.923 439.824C243.923 437.678 242.183 435.938 240.037 435.938C237.89 435.938 236.15 437.678 236.15 439.824C236.15 441.97 237.89 443.71 240.037 443.71Z" fill="#264CBE"/>
<path d="M233.676 427.56C233.676 429.531 232.209 431.155 230.305 431.402C230.316 431.368 230.316 431.334 230.327 431.301C230.697 428.87 231.055 426.44 231.413 424.021C232.735 424.637 233.676 425.992 233.676 427.56Z" fill="#264CBE"/>
<path d="M229.139 451.931C229.139 453.69 227.975 455.168 226.373 455.65C226.765 453.421 227.157 451.125 227.549 448.795C228.512 449.512 229.139 450.654 229.139 451.931Z" fill="#264CBE"/>
<path d="M249.67 457.464C251.816 457.464 253.556 455.724 253.556 453.578C253.556 451.431 251.816 449.691 249.67 449.691C247.523 449.691 245.783 451.431 245.783 453.578C245.783 455.724 247.523 457.464 249.67 457.464Z" fill="#264CBE"/>
<path d="M270.142 454.429C272.289 454.429 274.029 452.689 274.029 450.542C274.029 448.396 272.289 446.656 270.142 446.656C267.996 446.656 266.256 448.396 266.256 450.542C266.256 452.689 267.996 454.429 270.142 454.429Z" fill="#264CBE"/>
<path d="M255.539 435.344C257.685 435.344 259.425 433.604 259.425 431.458C259.425 429.311 257.685 427.571 255.539 427.571C253.392 427.571 251.652 429.311 251.652 431.458C251.652 433.604 253.392 435.344 255.539 435.344Z" fill="#264CBE"/>
<path d="M276.381 431.458C278.527 431.458 280.267 429.718 280.267 427.571C280.267 425.425 278.527 423.685 276.381 423.685C274.234 423.685 272.494 425.425 272.494 427.571C272.494 429.718 274.234 431.458 276.381 431.458Z" fill="#264CBE"/>
<path d="M285.756 410.984C287.902 410.984 289.642 409.244 289.642 407.098C289.642 404.951 287.902 403.211 285.756 403.211C283.609 403.211 281.869 404.951 281.869 407.098C281.869 409.244 283.609 410.984 285.756 410.984Z" fill="#264CBE"/>
<path d="M323.265 391.474C322.996 391.541 322.716 391.563 322.436 391.563C320.285 391.563 318.561 389.827 318.561 387.688C318.561 385.605 320.207 383.891 322.279 383.813C322.57 386.109 322.895 388.685 323.265 391.474Z" fill="#264CBE"/>
<path d="M299.14 395.461C301.287 395.461 303.027 393.721 303.027 391.574C303.027 389.428 301.287 387.688 299.14 387.688C296.994 387.688 295.254 389.428 295.254 391.574C295.254 393.721 296.994 395.461 299.14 395.461Z" fill="#264CBE"/>
<path d="M313.351 409.293C315.498 409.293 317.238 407.553 317.238 405.406C317.238 403.26 315.498 401.52 313.351 401.52C311.205 401.52 309.465 403.26 309.465 405.406C309.465 407.553 311.205 409.293 313.351 409.293Z" fill="#264CBE"/>
<path d="M289.642 443.71C291.789 443.71 293.529 441.97 293.529 439.824C293.529 437.678 291.789 435.938 289.642 435.938C287.496 435.938 285.756 437.678 285.756 439.824C285.756 441.97 287.496 443.71 289.642 443.71Z" fill="#264CBE"/>
<path d="M323.298 372.949C301.57 387.128 261.687 386.019 236.621 372.949C239.018 358.03 242.165 343.101 241.493 323.243C241.415 321.07 241.325 318.909 241.213 316.758C241.113 314.888 241.012 313.04 240.889 311.214C238.727 278.186 233.093 251.182 235.86 247.699C237.069 246.176 239.085 244.518 241.572 242.838C242.546 242.178 243.588 241.506 244.697 240.822C247.295 239.232 250.185 237.642 253.097 236.085C259.985 232.411 266.985 228.995 270.49 226.666C273.962 228.178 276.74 229.006 279.719 228.995C279.798 228.995 279.887 228.995 279.977 228.984C280.055 228.995 280.145 228.995 280.223 228.995C283.202 229.006 285.98 228.178 289.452 226.666C292.7 228.827 298.826 231.851 305.076 235.133C309.668 237.552 314.327 240.117 317.956 242.614C320.33 244.238 322.268 245.84 323.455 247.341C324.833 249.066 324.25 256.659 323.074 267.893C321.91 278.947 320.174 293.552 319.121 309.59C318.83 314.048 318.594 318.618 318.426 323.243C317.754 343.101 320.902 358.03 323.298 372.949Z" fill="#009CF8"/>
<path d="M310.016 356.451C310.016 356.451 310.005 356.451 310.016 356.451C292.521 356.373 277.581 348.41 268.139 341.746C257.925 334.533 251.731 327.23 251.675 327.163C251.373 326.805 251.417 326.278 251.776 325.976C252.134 325.674 252.661 325.718 252.963 326.077C253.019 326.144 259.101 333.312 269.147 340.402C278.387 346.92 292.981 354.693 310.016 354.771C310.486 354.771 310.856 355.152 310.856 355.611C310.856 356.082 310.475 356.451 310.016 356.451Z" fill="#006BDE"/>
<path d="M298.435 346.27C283.539 343.347 270.356 331.934 269.751 331.408C269.404 331.106 269.371 330.568 269.673 330.221C269.975 329.874 270.513 329.84 270.86 330.142C271.017 330.277 286.529 343.694 302.343 345.139C302.814 345.173 303.15 345.587 303.105 346.058C303.06 346.517 302.657 346.864 302.187 346.819C300.932 346.696 299.678 346.506 298.435 346.27Z" fill="#006BDE"/>
<path d="M276.382 269.203C275.99 269.203 275.631 268.923 275.553 268.52C275.463 268.061 275.766 267.624 276.225 267.534C297.55 263.491 303.978 249.771 304.046 249.626C304.236 249.2 304.74 249.01 305.166 249.2C305.591 249.39 305.782 249.894 305.591 250.309C305.322 250.902 298.726 264.97 276.55 269.181C276.482 269.203 276.426 269.203 276.382 269.203Z" fill="#006BDE"/>
<path d="M305.065 235.133C300.831 244.787 290.426 254.789 276.885 252.448C263.781 250.186 257.565 243.253 253.074 236.085C259.962 232.4 266.962 228.995 270.468 226.666C273.94 228.178 276.717 229.006 279.697 228.995C279.775 228.995 279.865 228.995 279.954 228.984C280.033 228.995 280.122 228.995 280.212 228.995C283.191 229.006 285.969 228.178 289.441 226.666C292.7 228.816 298.826 231.84 305.065 235.133Z" fill="#FFA681"/>
<path d="M293.752 227.371C293.383 227.371 293.08 227.662 293.08 228.032C293.08 228.57 292.856 241.338 281.399 242.323C270.77 243.242 266.368 233.072 265.013 228.85C264.934 228.603 264.699 228.435 264.442 228.435H264.318C263.915 228.435 263.624 228.838 263.747 229.219C265.192 233.576 269.829 244.093 280.659 243.701C280.939 243.69 281.231 243.678 281.511 243.645C294.189 242.547 294.413 228.166 294.413 228.021C294.424 227.674 294.122 227.371 293.752 227.371Z" fill="white"/>
<path d="M301.851 159.522C301.851 159.522 312.088 175.381 310.968 191.901C309.848 208.421 312.48 227.494 297.696 226.654C282.912 225.814 256.547 232.579 248.159 219.71C239.781 206.853 301.851 159.522 301.851 159.522Z" fill="#18315B"/>
<path d="M305.649 188.686C305.649 188.686 308.303 212.632 296.946 219.229C285.578 225.826 277.357 218.456 277.357 218.456C277.357 218.456 301.314 185.08 305.649 188.686Z" fill="#000B29"/>
<path d="M258.452 188.574C258.452 188.574 254.375 183.131 251.34 187.634C248.305 192.136 252.594 205.419 260.02 202.171L258.452 188.574Z" fill="#F97853"/>
<path d="M258.396 198.072C258.116 198.072 257.869 197.893 257.791 197.613C256.637 193.514 252.392 191.845 252.348 191.834C252.023 191.71 251.866 191.352 251.989 191.027C252.112 190.702 252.471 190.534 252.796 190.658C252.997 190.736 257.679 192.55 259 197.277C259.09 197.613 258.9 197.96 258.564 198.05C258.508 198.061 258.452 198.072 258.396 198.072Z" fill="#EA5143"/>
<path d="M254.105 196C253.993 196 253.87 195.966 253.769 195.899C253.478 195.709 253.389 195.328 253.579 195.037C253.613 194.992 254.363 193.838 255.931 193.133C256.245 192.987 256.614 193.133 256.76 193.446C256.905 193.76 256.76 194.13 256.446 194.275C255.225 194.824 254.643 195.698 254.632 195.709C254.509 195.899 254.307 196 254.105 196Z" fill="#EA5143"/>
<path d="M300.496 188.574C300.496 188.574 304.573 183.131 307.608 187.634C310.643 192.136 306.353 205.419 298.928 202.171L300.496 188.574Z" fill="#F97853"/>
<path d="M300.553 198.072C300.833 198.072 301.079 197.893 301.157 197.613C302.311 193.514 306.556 191.845 306.601 191.834C306.925 191.71 307.082 191.352 306.959 191.027C306.836 190.702 306.477 190.534 306.153 190.658C305.951 190.736 301.269 192.55 299.948 197.277C299.858 197.613 300.049 197.96 300.385 198.05C300.441 198.061 300.497 198.072 300.553 198.072Z" fill="#EA5143"/>
<path d="M304.842 196C304.954 196 305.077 195.966 305.178 195.899C305.469 195.709 305.559 195.328 305.368 195.037C305.335 194.992 304.584 193.838 303.016 193.133C302.703 192.987 302.333 193.133 302.188 193.446C302.042 193.76 302.188 194.13 302.501 194.275C303.722 194.824 304.304 195.698 304.316 195.709C304.428 195.899 304.64 196 304.842 196Z" fill="#EA5143"/>
<path d="M289.521 213.45V226.666C289.521 226.666 285.578 233.397 280.247 233.856C274.927 234.326 270.189 228.066 270.189 228.066V214.39L289.521 213.45Z" fill="#FFA681"/>
<path d="M289.521 213.45V219.307C285.948 223.272 279.598 224.683 270.201 223.294V214.368L289.521 213.45Z" fill="#F97853"/>
<path d="M303.453 179.514C303.206 184.643 302.714 191.072 301.739 196.202C301.493 197.478 301.224 198.688 300.91 199.763C298.133 209.496 291.178 226.195 271.701 219.24C263.099 216.171 259.112 206.595 257.342 196.851C256.133 190.232 255.954 183.546 256.043 178.774C256.133 173.902 258.798 169.445 263.043 167.037C274.534 160.518 286.664 162.949 294.65 166.018C300.182 168.146 303.733 173.589 303.453 179.514Z" fill="#FFA681"/>
<path d="M269.27 191.901C270.167 191.901 270.895 190.758 270.895 189.347C270.895 187.937 270.167 186.794 269.27 186.794C268.374 186.794 267.646 187.937 267.646 189.347C267.646 190.758 268.374 191.901 269.27 191.901Z" fill="#18315B"/>
<path d="M289.331 191.901C290.228 191.901 290.955 190.758 290.955 189.347C290.955 187.937 290.228 186.794 289.331 186.794C288.434 186.794 287.707 187.937 287.707 189.347C287.707 190.758 288.434 191.901 289.331 191.901Z" fill="#18315B"/>
<path d="M266.056 181.742C267.4 181.362 270.133 180.712 273 180.701C273.762 180.701 274.333 181.373 274.199 182.112V182.134C274.087 182.728 273.56 183.154 272.955 183.12C270.995 183.03 265.866 183.299 263.447 184.285C263.402 183.859 263.648 183.4 263.995 182.997C264.533 182.381 265.272 181.966 266.056 181.742Z" fill="#18315B"/>
<path d="M292.299 181.798C290.955 181.418 288.222 180.768 285.355 180.757C284.593 180.757 284.022 181.429 284.156 182.168V182.19C284.268 182.784 284.795 183.21 285.4 183.176C287.36 183.086 292.489 183.355 294.908 184.341C294.953 183.915 294.707 183.456 294.36 183.053C293.811 182.437 293.083 182.022 292.299 181.798Z" fill="#18315B"/>
<path d="M279.687 201.006C279.205 201.006 278.724 200.917 278.32 200.682C277.951 200.458 277.503 200.021 277.413 199.147C277.178 196.84 277.76 189.605 277.794 189.302C277.828 188.955 278.13 188.698 278.466 188.731C278.813 188.765 279.071 189.067 279.037 189.403C279.026 189.482 278.432 196.829 278.656 199.013C278.701 199.394 278.847 199.528 278.97 199.595C279.564 199.942 280.919 199.584 281.49 199.36C281.815 199.226 282.173 199.382 282.308 199.707C282.442 200.032 282.285 200.39 281.96 200.525C281.804 200.592 280.751 201.006 279.687 201.006Z" fill="#F97853"/>
<path d="M271.723 204.971C272.193 207.357 273.772 211.747 279.092 211.747C284.423 211.747 285.913 207.738 286.428 204.971H271.723Z" fill="white"/>
<path d="M279.003 215.41C277.469 215.41 276.114 214.581 276.058 214.547C275.766 214.368 275.677 213.976 275.856 213.685C276.035 213.394 276.427 213.304 276.718 213.483C276.73 213.494 277.838 214.155 279.003 214.155C280.269 214.155 281.4 213.483 281.411 213.483C281.714 213.304 282.094 213.405 282.274 213.696C282.453 213.987 282.363 214.379 282.061 214.558C282.005 214.592 280.638 215.41 279.003 215.41Z" fill="#F97853"/>
<path d="M305.973 178.483C305.772 179.054 305.212 179.424 304.461 179.637C304.517 181.026 304.372 182.683 304.237 184.285C303.465 193.357 301.169 194.947 300.653 192.707C300.317 191.218 300.329 182.672 300.497 179.883C298.705 179.771 297.17 179.469 297.17 179.469L295.065 170.666L294.325 179.368C291.167 180.466 283.809 178.707 283.809 178.707L281.333 170.027L279.81 178.382C275.073 180.69 269.159 179.155 269.159 179.155L267.804 170.139L264.668 179.155C264.668 179.155 254.565 182.784 254.453 179.155C254.386 177.05 255.932 171.114 257.231 166.51C258.653 161.493 261.946 157.259 266.404 154.862C278.937 148.142 292.186 151.715 296.722 154.426C306.377 160.171 305.973 178.483 305.973 178.483Z" fill="#18315B"/>
<path d="M260.019 160.194C260.019 160.194 251.709 170.083 248.965 187.746C246.232 205.408 242.446 218.456 253.086 224.291C264.611 230.608 263.614 217.661 263.446 214.144C263.278 210.627 253.478 201.006 260.019 173.914C262.125 165.166 260.019 160.194 260.019 160.194Z" fill="#18315B"/>
<path d="M258.07 196.694C258.07 196.694 258.07 196.706 258.07 196.717C258.07 196.851 258.082 197.546 258.138 198.643C258.16 199.326 258.205 200.155 258.272 201.096C258.664 207.043 259.818 217.325 263.222 220.886C264.566 222.298 267.153 223.003 270.2 223.294V218.624C266.985 217.101 264.488 214.592 262.55 211.512C261.352 208.914 259.28 204.848 258.317 198.453L258.07 196.694Z" fill="#000B29"/>
<path d="M302.131 203.941C302.942 203.941 303.598 203.284 303.598 202.474C303.598 201.663 302.942 201.006 302.131 201.006C301.321 201.006 300.664 201.663 300.664 202.474C300.664 203.284 301.321 203.941 302.131 203.941Z" fill="white"/>
<path d="M333.569 313.264C329.403 325.192 310.744 324.318 289.497 317.8C289.464 317.789 289.441 317.778 289.408 317.766C289.341 317.744 289.273 317.722 289.206 317.71L286.283 316.781C285.88 316.646 285.477 316.512 285.073 316.378C282.789 315.616 280.481 314.787 278.163 313.902C270.569 311.024 262.92 307.597 255.707 303.957L255.752 303.834L257.925 298.189L258.664 296.274C258.664 296.274 298.054 300.563 317.867 296.419C318.203 296.352 318.528 296.274 318.853 296.206C318.774 295.77 318.752 295.322 318.629 294.896C308.134 259.168 319.614 252.314 323.456 247.33C323.445 247.33 341.432 290.752 333.569 313.264Z" fill="#009CF8"/>
<path d="M327.152 302.21C327.04 302.266 326.906 302.299 326.782 302.299C326.469 302.299 326.178 302.131 326.032 301.829C324.531 298.76 319.435 296.923 317.867 296.43C318.203 296.363 318.528 296.285 318.853 296.218C318.774 295.781 318.696 295.344 318.629 294.907C320.622 295.568 325.819 297.573 327.544 301.101C327.746 301.504 327.566 302.008 327.152 302.21Z" fill="#006BDE"/>
<path d="M271.98 300.709C263.939 300.709 257.409 300.25 256.849 300.205C256.39 300.171 256.043 299.768 256.076 299.309C256.11 298.85 256.513 298.502 256.972 298.536C257.275 298.558 286.82 300.653 298.468 295.926C298.894 295.747 299.387 295.96 299.566 296.386C299.745 296.811 299.532 297.304 299.107 297.483C292.644 300.093 281.299 300.709 271.98 300.709Z" fill="#006BDE"/>
<path d="M286.281 316.781C293.024 314.922 299.15 313.107 302.689 311.976C307.606 310.397 311.672 305.435 313.52 301.213C313.71 300.787 314.203 300.597 314.628 300.787C315.054 300.978 315.244 301.47 315.065 301.896C313.06 306.466 308.625 311.853 303.216 313.589C300.651 314.418 296.731 315.582 292.195 316.882C290.257 317.43 288.196 317.397 286.281 316.781Z" fill="#006BDE"/>
<path d="M304.459 311.002C243.576 331.509 224.85 318.091 224.85 318.091C220.751 281.03 235.859 247.699 235.859 247.699C240.317 255.058 245.368 267.893 245.368 267.893L246.701 296.307L246.6 297.091L246.555 297.461L246.309 299.398L246.298 299.443C246.432 299.466 246.555 299.499 246.69 299.533C265.103 303.419 298.781 299.074 298.781 299.074L304.459 311.002Z" fill="#009CF8"/>
<path d="M246.679 299.533C243.398 302.288 240.273 305.458 237.484 309.109C237.204 309.478 236.678 309.546 236.308 309.266C235.938 308.986 235.871 308.459 236.14 308.09C239.265 303.979 242.815 300.462 246.534 297.461L246.287 299.398L246.276 299.443C246.422 299.477 246.545 299.51 246.679 299.533Z" fill="#006BDE"/>
<path d="M298.77 299.085C298.77 299.085 305.512 283.774 315.76 285.141L318.851 296.206C313.24 298.592 312.422 308.202 304.459 311.013L298.77 299.085Z" fill="#FFA681"/>
<path d="M258.674 296.262C258.674 296.262 254.418 286.272 243.218 283.371C232.018 280.47 224.884 285.746 224.133 287.739C223.383 289.733 228.356 287.829 228.356 287.829C228.356 287.829 225.119 288.747 223.26 291.794C221.401 294.84 227.785 291.558 227.785 291.558C227.785 291.558 223.204 293.563 222.622 295.422C222.039 297.282 228.076 294.134 229.218 294.202C229.218 294.202 223.831 296.341 223.865 298.267C223.898 300.182 230.058 297.058 234.662 297.304C239.265 297.55 246.31 299.454 246.31 299.454C250.073 300.171 253.668 300.698 256.927 300.854L258.674 296.262Z" fill="#FFA681"/>
<path d="M366.845 140.93C362.701 140.93 359.33 137.558 359.33 133.414C359.33 129.27 362.701 125.899 366.845 125.899C370.989 125.899 374.361 129.27 374.361 133.414C374.361 137.558 370.989 140.93 366.845 140.93ZM366.845 128.251C364.001 128.251 361.682 130.57 361.682 133.414C361.682 136.259 364.001 138.578 366.845 138.578C369.69 138.578 372.008 136.259 372.008 133.414C371.997 130.57 369.69 128.251 366.845 128.251Z" fill="#006BDE"/>
<path d="M432.443 128.15C428.299 128.15 424.928 124.779 424.928 120.635C424.928 116.491 428.299 113.12 432.443 113.12C436.587 113.12 439.958 116.491 439.958 120.635C439.958 124.779 436.587 128.15 432.443 128.15ZM432.443 115.472C429.598 115.472 427.28 117.79 427.28 120.635C427.28 123.48 429.598 125.798 432.443 125.798C435.288 125.798 437.606 123.48 437.606 120.635C437.606 117.79 435.288 115.472 432.443 115.472Z" fill="#009CF8"/>
<path d="M441.741 152.589C441.091 152.589 440.564 152.062 440.564 151.413V146.216C440.564 145.566 441.091 145.04 441.741 145.04C442.39 145.04 442.917 145.566 442.917 146.216V151.413C442.917 152.062 442.39 152.589 441.741 152.589Z" fill="#006BDE"/>
<path d="M441.741 161.694C441.091 161.694 440.564 161.168 440.564 160.518V155.322C440.564 154.672 441.091 154.146 441.741 154.146C442.39 154.146 442.917 154.672 442.917 155.322V160.518C442.917 161.168 442.39 161.694 441.741 161.694Z" fill="#006BDE"/>
<path d="M449.032 154.538H444.362C443.712 154.538 443.186 154.011 443.186 153.362C443.186 152.712 443.712 152.186 444.362 152.186H449.032C449.682 152.186 450.208 152.712 450.208 153.362C450.219 154.011 449.693 154.538 449.032 154.538Z" fill="#006BDE"/>
<path d="M439.108 154.538H434.438C433.788 154.538 433.262 154.011 433.262 153.362C433.262 152.712 433.788 152.186 434.438 152.186H439.108C439.758 152.186 440.284 152.712 440.284 153.362C440.284 154.011 439.758 154.538 439.108 154.538Z" fill="#006BDE"/>
<path d="M402.014 121.083C401.364 121.083 400.838 120.557 400.838 119.907V114.71C400.838 114.061 401.364 113.534 402.014 113.534C402.663 113.534 403.19 114.061 403.19 114.71V119.907C403.201 120.557 402.675 121.083 402.014 121.083Z" fill="#1C31B5"/>
<path d="M402.014 130.178C401.364 130.178 400.838 129.651 400.838 129.002V123.805C400.838 123.155 401.364 122.629 402.014 122.629C402.663 122.629 403.19 123.155 403.19 123.805V129.002C403.201 129.651 402.675 130.178 402.014 130.178Z" fill="#1C31B5"/>
<path d="M409.317 123.032H404.647C403.997 123.032 403.471 122.506 403.471 121.856C403.471 121.206 403.997 120.68 404.647 120.68H409.317C409.967 120.68 410.493 121.206 410.493 121.856C410.493 122.506 409.967 123.032 409.317 123.032Z" fill="#1C31B5"/>
<path d="M399.393 123.032H394.723C394.073 123.032 393.547 122.506 393.547 121.856C393.547 121.206 394.073 120.68 394.723 120.68H399.393C400.043 120.68 400.569 121.206 400.569 121.856C400.569 122.506 400.043 123.032 399.393 123.032Z" fill="#1C31B5"/>
<path d="M98.0781 114.33C98.0781 110.186 101.449 106.814 105.593 106.814C109.737 106.814 113.109 110.186 113.109 114.33C113.109 118.474 109.737 121.845 105.593 121.845C101.449 121.856 98.0781 118.474 98.0781 114.33ZM100.43 114.33C100.43 117.174 102.749 119.493 105.593 119.493C108.438 119.493 110.757 117.174 110.757 114.33C110.757 111.485 108.438 109.166 105.593 109.166C102.749 109.166 100.43 111.485 100.43 114.33Z" fill="#006BDE"/>
<path d="M67.8828 142.99C67.8828 138.846 71.254 135.475 75.398 135.475C79.542 135.475 82.9132 138.846 82.9132 142.99C82.9132 147.134 79.542 150.506 75.398 150.506C71.254 150.517 67.8828 147.134 67.8828 142.99ZM70.2348 142.99C70.2348 145.835 72.5532 148.154 75.398 148.154C78.2428 148.154 80.5612 145.835 80.5612 142.99C80.5612 140.146 78.2428 137.827 75.398 137.827C72.5532 137.827 70.2348 140.146 70.2348 142.99Z" fill="#009CF8"/>
<path d="M52.2483 153.541C52.8979 153.541 53.4243 153.014 53.4243 152.365V147.168C53.4243 146.518 52.8979 145.992 52.2483 145.992C51.5987 145.992 51.0723 146.518 51.0723 147.168V152.365C51.0723 153.014 51.5987 153.541 52.2483 153.541Z" fill="#006BDE"/>
<path d="M52.2483 162.646C52.8979 162.646 53.4243 162.12 53.4243 161.47V156.274C53.4243 155.624 52.8979 155.098 52.2483 155.098C51.5987 155.098 51.0723 155.624 51.0723 156.274V161.47C51.0723 162.12 51.5987 162.646 52.2483 162.646Z" fill="#006BDE"/>
<path d="M44.9455 155.49H49.6159C50.2655 155.49 50.7919 154.963 50.7919 154.314C50.7919 153.664 50.2655 153.138 49.6159 153.138H44.9455C44.2959 153.138 43.7695 153.664 43.7695 154.314C43.7695 154.963 44.2959 155.49 44.9455 155.49Z" fill="#006BDE"/>
<path d="M54.8791 155.49H59.5495C60.1991 155.49 60.7255 154.963 60.7255 154.314C60.7255 153.664 60.1991 153.138 59.5495 153.138H54.8791C54.2295 153.138 53.7031 153.664 53.7031 154.314C53.7031 154.963 54.2183 155.49 54.8791 155.49Z" fill="#006BDE"/>
<path d="M79.4301 113.557C80.0797 113.557 80.6061 113.03 80.6061 112.381V107.184C80.6061 106.534 80.0797 106.008 79.4301 106.008C78.7805 106.008 78.2541 106.534 78.2541 107.184V112.381C78.2429 113.03 78.7693 113.557 79.4301 113.557Z" fill="#1C31B5"/>
<path d="M79.4301 122.662C80.0797 122.662 80.6061 122.136 80.6061 121.486V116.29C80.6061 115.64 80.0797 115.114 79.4301 115.114C78.7805 115.114 78.2541 115.64 78.2541 116.29V121.486C78.2429 122.136 78.7693 122.662 79.4301 122.662Z" fill="#1C31B5"/>
<path d="M72.1272 115.506H76.7976C77.4472 115.506 77.9736 114.979 77.9736 114.33C77.9736 113.68 77.4472 113.154 76.7976 113.154H72.1272C71.4776 113.154 70.9512 113.68 70.9512 114.33C70.9512 114.979 71.4664 115.506 72.1272 115.506Z" fill="#1C31B5"/>
<path d="M82.051 115.506H86.7214C87.371 115.506 87.8974 114.979 87.8974 114.33C87.8974 113.68 87.371 113.154 86.7214 113.154H82.051C81.4014 113.154 80.875 113.68 80.875 114.33C80.875 114.979 81.4014 115.506 82.051 115.506Z" fill="#1C31B5"/>
<path d="M304.292 114.867C304.158 114.878 304.012 114.867 303.878 114.811C302.444 114.206 301.604 113.926 301.593 113.926C301.156 113.781 300.921 113.31 301.067 112.862C301.212 112.426 301.683 112.19 302.131 112.336C302.164 112.347 303.026 112.638 304.527 113.266C304.953 113.445 305.154 113.938 304.975 114.363C304.852 114.654 304.583 114.845 304.292 114.867Z" fill="#BBE2F2"/>
<path d="M346.976 159.79C347.547 161.314 348.085 162.882 348.566 164.45C348.689 164.842 349.059 165.077 349.451 165.032C349.507 165.032 349.552 165.021 349.608 164.998C350.045 164.864 350.302 164.394 350.168 163.957C349.675 162.355 349.126 160.754 348.544 159.208C348.387 158.771 347.905 158.558 347.469 158.715C347.032 158.872 346.808 159.365 346.976 159.79Z" fill="#BBE2F2"/>
<path d="M349.865 169.198C350.245 170.766 350.593 172.39 350.895 174.014C350.973 174.451 351.377 174.742 351.802 174.698C351.825 174.698 351.847 174.698 351.869 174.686C352.329 174.597 352.62 174.16 352.541 173.712C352.239 172.054 351.881 170.408 351.489 168.806C351.377 168.358 350.929 168.078 350.481 168.19C350.033 168.291 349.753 168.75 349.865 169.198Z" fill="#BBE2F2"/>
<path d="M353.392 194.488C353.807 194.443 354.132 194.096 354.143 193.67C354.165 191.99 354.154 190.299 354.109 188.664C354.098 188.205 353.706 187.835 353.247 187.846C352.776 187.858 352.418 188.25 352.44 188.709C352.485 190.333 352.496 191.99 352.474 193.648C352.463 194.107 352.832 194.488 353.303 194.499C353.325 194.488 353.359 194.488 353.392 194.488Z" fill="#BBE2F2"/>
<path d="M352.385 177.934C351.925 177.99 351.601 178.416 351.657 178.875C351.757 179.637 351.847 180.398 351.925 181.149C352.015 182.011 352.105 182.896 352.172 183.781C352.205 184.24 352.609 184.587 353.068 184.554C353.079 184.554 353.079 184.554 353.09 184.554C353.538 184.509 353.874 184.106 353.841 183.658C353.773 182.762 353.684 181.866 353.594 180.981C353.516 180.219 353.426 179.435 353.325 178.662C353.269 178.214 352.855 177.89 352.407 177.934C352.396 177.934 352.385 177.934 352.385 177.934Z" fill="#BBE2F2"/>
<path d="M345.105 155.243C345.261 155.579 345.609 155.77 345.956 155.736C346.045 155.725 346.124 155.702 346.213 155.669C346.639 155.478 346.829 154.986 346.639 154.56C345.956 153.037 345.217 151.514 344.444 150.035C344.231 149.621 343.727 149.464 343.313 149.688C342.898 149.901 342.741 150.405 342.965 150.819C343.716 152.264 344.433 153.754 345.105 155.243Z" fill="#BBE2F2"/>
<path d="M308.324 116.894C309.758 117.634 311.214 118.429 312.636 119.269C312.793 119.358 312.972 119.403 313.151 119.381C313.409 119.358 313.644 119.213 313.79 118.978C314.025 118.574 313.891 118.07 313.499 117.835C312.043 116.973 310.564 116.155 309.097 115.405C308.683 115.192 308.178 115.36 307.966 115.774C307.753 116.178 307.921 116.682 308.324 116.894Z" fill="#BBE2F2"/>
<path d="M320.812 124.779C320.992 124.914 321.204 124.97 321.406 124.947C321.63 124.925 321.843 124.813 321.988 124.622C322.268 124.253 322.201 123.726 321.832 123.446C320.51 122.438 319.132 121.453 317.755 120.512C317.374 120.254 316.848 120.355 316.59 120.736C316.332 121.117 316.433 121.643 316.814 121.901C318.158 122.819 319.513 123.782 320.812 124.779Z" fill="#BBE2F2"/>
<path d="M334.879 138.488C335.07 138.723 335.35 138.824 335.619 138.802C335.775 138.79 335.921 138.723 336.055 138.622C336.414 138.331 336.481 137.805 336.19 137.446C335.148 136.147 334.051 134.859 332.931 133.627C332.617 133.28 332.091 133.258 331.743 133.571C331.396 133.885 331.374 134.411 331.687 134.758C332.785 135.957 333.86 137.222 334.879 138.488Z" fill="#BBE2F2"/>
<path d="M328.26 131.208C328.45 131.387 328.697 131.466 328.932 131.443C329.122 131.421 329.302 131.342 329.447 131.197C329.772 130.861 329.761 130.334 329.436 130.01C328.249 128.845 326.994 127.714 325.729 126.616C325.382 126.314 324.844 126.358 324.553 126.706C324.25 127.053 324.284 127.579 324.642 127.882C325.874 128.957 327.095 130.077 328.26 131.208Z" fill="#BBE2F2"/>
<path d="M340.525 146.541C340.704 146.821 341.017 146.966 341.331 146.933C341.454 146.922 341.566 146.877 341.678 146.81C342.07 146.563 342.193 146.048 341.958 145.656C341.085 144.234 340.166 142.822 339.203 141.456C338.934 141.075 338.419 140.986 338.038 141.254C337.657 141.523 337.568 142.038 337.837 142.419C338.777 143.763 339.685 145.152 340.525 146.541Z" fill="#BBE2F2"/>
<path d="M304.281 109.144L307.943 95.5696L263.031 95.9504L304.281 109.144Z" fill="#009CF8"/>
<path d="M263.031 95.9504L302.097 112.414L302.198 112.459L303.878 115.248L304.281 109.144L263.031 95.9504Z" fill="#006BDE"/>
<path d="M303.878 115.248L300.238 114.677L302.198 112.459L303.878 115.248Z" fill="#006BDE"/>
<path d="M297.281 110.387L302.198 112.459L292.073 123.872L263.031 95.9504L297.281 110.387Z" fill="#009CF8"/>
<path d="M510.787 466.267V467.085C510.787 471.8 506.957 475.63 502.242 475.63H58.7663C54.0399 475.63 50.2207 471.8 50.2207 467.085V466.267C50.2207 461.552 54.0511 457.722 58.7663 457.722H502.23C506.957 457.722 510.787 461.552 510.787 466.267Z" fill="#1C31B5"/>
<path d="M510.787 466.267V466.682H50.2207V466.267C50.2207 461.552 54.0511 457.722 58.7663 457.722H502.23C506.957 457.722 510.787 461.552 510.787 466.267Z" fill="#006BDE"/>
<path d="M348.364 430.83H209.059C205.732 430.83 203.033 428.131 203.033 424.805V351.915C203.033 348.589 205.732 345.89 209.059 345.89H348.376C351.702 345.89 354.401 348.589 354.401 351.915V424.805C354.39 428.131 351.702 430.83 348.364 430.83Z" fill="#18315B"/>
<path d="M290.438 430.73H266.996V457.453H290.438V430.73Z" fill="#000B29"/>
<path d="M278.453 401.038C284.88 401.038 290.09 395.828 290.09 389.402C290.09 382.975 284.88 377.765 278.453 377.765C272.026 377.765 266.816 382.975 266.816 389.402C266.816 395.828 272.026 401.038 278.453 401.038Z" fill="#1D567E"/>
<path d="M308.57 457.464H248.102V455.426C248.102 451.315 251.439 447.978 255.55 447.978H301.134C305.244 447.978 308.582 451.315 308.582 455.426V457.464H308.57Z" fill="#18315B"/>
<path d="M391.377 446.337C391.377 446.337 390.481 460.811 387.681 461.02C387.307 461.049 373.483 461.049 373.483 461.049L355.837 460.947C355.837 460.947 355.954 456.692 361.109 455.792C366.268 454.893 374.901 451.268 378.028 444.444C381.316 437.266 391.377 446.337 391.377 446.337Z" fill="#163560"/>
<path d="M397.739 277.412C397.739 277.412 390.052 279.388 385.165 277.916C380.279 276.444 371.867 278.863 370.512 280.645C369.158 282.428 369.655 283.137 372.073 283.752C374.491 284.366 383.054 288.02 388.681 285.905C394.308 283.79 401.65 283.714 401.65 283.714L397.739 277.412Z" fill="#FFA681"/>
<path d="M464.182 210.592C464.182 210.592 455.545 272.007 441.244 277.507C434.186 280.221 403.001 286.373 393.779 286.991C393.779 286.991 391.519 285.158 392.07 277.691C392.07 277.691 424.743 265.69 429.385 259.164C436.294 249.45 425.097 219.483 433.765 210.357C442.43 201.235 457.029 197.315 464.182 210.592Z" fill="#4A75CB"/>
<path d="M463.076 447.227V433.837H484.147C484.717 433.837 485.182 433.371 485.182 432.801V430.654C485.182 430.084 484.717 429.619 484.147 429.619H463.076V353.397C463.076 351.26 461.326 349.509 459.19 349.509H455.022C452.886 349.509 451.136 351.26 451.136 353.397V429.619H430.065C429.495 429.619 429.03 430.084 429.03 430.654V432.801C429.03 433.371 429.495 433.837 430.065 433.837H451.136V447.227C435.891 448.38 423.678 453.87 420.251 460.966H493.961C490.534 453.87 478.321 448.38 463.076 447.227Z" fill="#A6C7F9"/>
<path d="M461.27 339.981C458.751 344.255 455.836 348.264 452.833 352.057C443.55 363.783 433.445 373.45 431.686 382.585C431.335 384.406 430.781 386.369 430.053 388.433C429.319 390.526 428.41 392.727 427.36 395.004C423.419 403.566 417.53 413.157 411.65 421.877C401.481 436.949 391.924 449.526 391.924 449.526L374.391 448.779C375.094 447.021 382.74 426.209 392.968 400.776C397.124 390.45 401.538 379.469 405.801 368.877C406.368 367.462 406.937 366.053 407.498 364.66C408.801 361.417 410.083 358.229 411.336 355.123C420.941 331.241 428.591 312.224 428.591 312.224C428.591 312.224 466.979 297.674 470.967 307.101C474.258 314.874 471.581 322.489 461.27 339.981Z" fill="#18315B"/>
<path d="M431.973 404.984C431.973 404.984 444.167 412.824 442.984 415.37C442.825 415.709 436.088 427.785 436.088 427.785L427.394 443.152C427.394 443.152 423.739 440.977 425.467 436.031C427.198 431.085 428.239 421.776 423.811 415.721C419.153 409.351 431.973 404.984 431.973 404.984Z" fill="#163560"/>
<path d="M415.471 305.315C415.471 305.315 367.285 335.345 361.905 355.528C356.525 375.711 426.004 418.764 426.004 418.764C426.004 418.764 433.624 412.036 434.969 407.102C434.969 407.102 403.562 369.457 396.752 361.018C392.568 355.835 458.613 343.078 466.683 330.52C474.754 317.962 471.864 307.395 471.864 307.395L415.471 305.315Z" fill="#18315B"/>
<path d="M506.414 343.879H407.794C405.823 343.879 404.209 345.493 404.209 347.466V367.199C404.209 369.172 405.823 370.787 407.794 370.787H506.414C508.386 370.787 510 369.172 510 367.199V347.466C510 345.493 508.386 343.879 506.414 343.879Z" fill="#1C468A"/>
<path d="M437.756 200.066C433.021 202.999 430.413 206.722 430.413 206.722C441.958 209.711 461.096 199.006 461.096 199.006C461.096 199.006 453.665 194.009 450.912 183.034C450.772 182.48 450.646 181.913 450.532 181.331C450.171 179.482 449.946 177.48 449.908 175.321L444.604 180.074L435.787 187.977C435.787 187.977 435.987 191.258 437.091 196.897C437.284 197.885 437.506 198.939 437.756 200.066Z" fill="#E49963"/>
<path d="M473.265 254.554C471.613 276.804 474.392 310.634 472.518 316.495C470.898 321.552 451.846 318.56 444.485 316.869C441.76 316.245 438.459 315.352 435.051 314.298C425.541 311.353 415.179 307.145 414.068 304.023C414.024 303.899 413.989 303.779 413.967 303.665C413.866 303.212 413.888 302.788 413.986 302.357C414.356 300.765 415.784 299.042 415.951 295.103C416.138 290.702 416.11 285.522 416.277 279.949C416.287 279.322 416.293 278.638 416.363 278.011L416.366 277.783C416.369 277.663 416.372 277.545 416.376 277.425C416.534 271.209 416.86 264.677 417.236 258.195C417.477 254.127 417.752 250.096 418.072 246.233C418.901 236.265 420.018 227.402 421.499 221.798C423.917 212.662 429.247 206.703 434.098 202.337L437.608 199.326C441.526 200.18 446.153 199.614 450.34 197.628C454.872 195.475 456.438 193.933 457.226 194.513C467.689 202.593 475.218 227.351 473.265 254.554Z" fill="#006BDE"/>
<path d="M435.103 314.342C425.593 311.398 415.231 307.189 414.121 304.067C414.076 303.944 414.041 303.824 414.019 303.71C414.026 303.273 414.032 302.836 414.038 302.402C414.409 300.809 415.836 299.087 416.004 295.148C416.19 290.746 416.162 285.566 416.33 279.993C416.339 279.366 416.345 278.682 416.415 278.055L416.418 277.827C416.421 277.707 416.425 277.59 416.428 277.47L452.348 261.169C452.348 261.169 454.417 290.132 435.103 314.342Z" fill="#009CF8"/>
<path d="M435.791 187.977C435.791 187.977 435.991 191.258 437.095 196.897C445.706 194.114 449.612 186.331 450.916 183.031C451.286 182.1 451.447 181.521 451.447 181.521C451.447 181.521 451.112 181.448 450.536 181.328C449.327 181.071 447.045 180.587 444.608 180.071L435.791 187.977Z" fill="#FFA681"/>
<path d="M432.303 187.892C432.303 187.892 451.222 190.026 452.367 178.218C453.516 166.411 456.728 158.735 444.699 156.87C432.67 155.008 429.882 159.286 428.54 163.133C427.198 166.981 427.413 187.033 432.303 187.892Z" fill="#FFA681"/>
<path d="M452.286 179.035C452.286 179.035 451.087 163.361 433.867 161.737C422.072 160.626 428.649 150.468 429.905 148.847C429.905 148.847 438.941 150.088 448.204 151.617C467.645 154.834 454.195 176.594 452.286 179.035Z" fill="#2B478B"/>
<path d="M360.741 292.796L359.086 293.334L344.998 249.949L346.654 249.411L360.741 292.796Z" fill="#4A75CB"/>
<path d="M406.887 292.29L359.055 293.314L358.993 290.452L406.825 289.428L406.887 292.29Z" fill="#4A75CB"/>
<path d="M401.689 286.852C401.689 286.852 394.265 289.663 389.246 288.739C384.226 287.814 376.134 291.145 374.982 293.067C373.833 294.989 374.403 295.638 376.875 295.983C379.346 296.329 388.258 299.017 393.619 296.294C398.98 293.571 406.266 292.684 406.266 292.684L401.689 286.852Z" fill="#FFA681"/>
<path d="M460.367 213.112C460.367 213.112 458.551 275.104 444.942 282.149C438.23 285.626 407.911 295.179 398.81 296.813C398.81 296.813 396.36 295.239 396.085 287.757C396.085 287.757 427.235 272.226 431.131 265.225C436.926 254.807 422.495 226.256 430.106 216.234C437.72 206.212 451.797 200.703 460.367 213.112Z" fill="#006BDE"/>
</svg>
