<svg width="249" height="249" viewBox="0 0 249 249" fill="none" xmlns="http://www.w3.org/2000/svg">
<g clip-path="url(#clip0_1284_23905)">
<path d="M85.7756 39.3713C82.6998 46.2532 81.3481 55.8138 74.3374 57.8024C69.9639 59.0445 65.6205 56.1839 61.5414 54.1137C49.8868 48.1791 33.1259 48.0536 25.965 59.3582C11.7032 81.8732 43.1044 97.4374 38.9111 106.546C33.0899 119.181 22.2944 128.49 18.2453 141.865C17.3142 144.945 16.5873 148.239 17.2661 151.394C18.2273 155.855 21.8979 159.242 25.959 160.93C30.02 162.617 34.4716 162.881 38.839 163.1C41.7347 163.251 44.8045 163.445 47.1955 165.164C48.4931 166.093 49.4963 167.423 50.2232 168.878C53.7076 175.885 50.5657 184.279 49.7667 192.133C48.8716 200.929 51.3767 210.395 57.6425 216.33C63.9143 222.264 74.1691 223.713 80.9816 218.469C84.0214 216.129 86.1601 212.76 88.473 209.636C92.6602 203.978 97.8687 198.752 104.411 196.675C112.034 194.26 120.307 196.475 127.642 199.724C134.977 202.974 141.958 207.277 149.683 209.297C158.55 211.612 168.144 210.721 176.483 206.807C180.892 204.737 185.404 201.029 185.458 195.973C185.494 192.422 183.271 189.179 183.241 185.628C183.199 180.22 188.294 176.155 193.352 175.045C198.41 173.935 203.667 174.825 208.815 174.374C219.25 173.458 229.03 166.588 233.794 156.827C234.774 154.826 235.567 152.593 235.26 150.366C234.635 145.773 229.956 143.327 226.213 140.843C221.659 137.813 217.784 133.678 214.979 128.861C213.387 126.132 212.113 123.014 212.426 119.833C212.948 114.582 217.46 110.944 221.287 107.494C226.976 102.368 231.902 96.3082 235.819 89.6082C239.255 83.7301 241.977 77.0427 241.514 70.1672C241.051 63.2979 236.63 56.3658 230.16 55.0672C222.969 53.6244 216.415 59.0696 210.281 63.2539C204.147 67.4383 195.214 70.2864 190.138 64.7658C185.837 60.0922 187.218 52.4701 185.374 46.2783C183.53 40.0802 177.528 35.1494 171.364 35.9022C161.044 37.1631 155.162 52.0686 144.793 51.3911C137.771 50.9268 133.373 43.5055 130.069 37.0063C127.84 32.615 100.476 6.45512 85.7756 39.3713Z" fill="#E3ECF7"/>
<path d="M53.7979 68.559C54.9085 69.9511 56.2363 71.1653 57.7492 72.1345L57.8229 76.0403C57.831 76.4736 58.1794 76.3063 62.2293 77.7786C62.6043 77.907 62.5625 77.5348 64.7698 74.542C66.5306 74.6958 68.2746 74.5353 69.9414 74.0951L72.5927 76.8033C72.8877 77.1039 73.0218 76.723 76.8645 74.7198C76.9794 74.6575 77.0438 74.5241 77.0258 74.389L76.508 70.519C77.8171 69.3381 78.9591 67.9263 79.8706 66.3169C83.3794 66.1638 83.7022 66.4219 83.8253 66.0157C85.0926 61.5716 85.3899 61.4506 85.0729 61.1975L82.1347 58.8517C82.2793 56.9794 82.1283 55.1244 81.7144 53.3527L84.2613 50.5334C84.544 50.2211 84.1858 50.0772 82.3019 45.9912C82.1237 45.6202 81.9199 45.911 78.3507 46.3702C77.2401 44.9782 75.9129 43.7639 74.3994 42.7948L74.3257 38.889C74.3176 38.455 73.9692 38.6229 69.9193 37.1506C69.5466 37.0229 69.5971 37.3791 67.3794 40.3878C65.6186 40.2341 63.874 40.3946 62.2078 40.8348L59.5565 38.1266C59.4636 38.0316 59.3242 38.0099 59.2093 38.0723L55.2847 40.2101C55.1704 40.2724 55.1054 40.4057 55.1234 40.5409L55.6412 44.4109C54.3321 45.5918 53.1901 47.003 52.2786 48.613C48.7698 48.766 48.447 48.508 48.3239 48.9142C47.0572 53.3564 46.7588 53.4786 47.0763 53.7323L50.0145 56.0781C49.8699 57.9505 50.0209 59.8055 50.4348 61.5772C48.0551 64.3236 47.6534 64.3841 47.8368 64.765L49.8473 68.9381C50.0267 69.3115 50.2473 69.0165 53.7979 68.559Z" fill="#91B3FA"/>
<path d="M61.4824 57.149C61.6472 54.4507 63.8336 52.408 66.3718 52.5827C68.9088 52.7574 70.8304 55.0828 70.6661 57.7811C70.5018 60.4732 68.3085 62.5215 65.7767 62.3474C63.2449 62.1733 61.3186 59.8417 61.4824 57.149ZM65.8208 61.6202L65.8249 61.622L65.8208 61.6202ZM62.8507 57.2428C62.7358 59.133 64.0885 60.7701 65.865 60.8924C68.7189 61.0887 70.395 57.4916 68.5007 55.1989C66.6156 52.9167 63.0371 54.1889 62.8507 57.2428Z" fill="#BDD0FB"/>
<path d="M42.9788 64.7841C42.8017 64.1545 42.6461 63.5087 42.5161 62.8649C42.4633 62.6025 42.62 62.3439 42.8668 62.2877C43.4879 62.1457 43.3997 62.8834 43.8549 64.5063C43.9274 64.7637 43.7893 65.0341 43.5477 65.1113C43.3068 65.1878 43.0514 65.0428 42.9788 64.7841Z" fill="#91B3FA"/>
<path d="M42.0004 56.3902C42.0515 55.1006 42.1966 53.7579 42.4486 52.4147C42.567 51.7825 43.4634 51.9764 43.345 52.6054C42.6907 56.0858 43.2016 56.9316 42.437 56.897C42.1833 56.8846 41.99 56.6569 42.0004 56.3902ZM44.61 46.9051C44.383 46.7878 44.2884 46.4965 44.3987 46.2551C44.9467 45.0581 45.5888 43.8963 46.3075 42.8024C46.6541 42.2759 47.4036 42.8321 47.057 43.3593C46.3656 44.4112 45.7479 45.5285 45.2207 46.6804C45.0274 47.1045 44.5548 46.9039 44.61 46.9051ZM50.5171 38.8022C50.459 38.7739 50.4056 38.7319 50.3615 38.6769C50.1972 38.4726 50.2199 38.1664 50.4115 37.9911C51.3641 37.1244 52.3876 36.3305 53.4541 35.6323C53.6689 35.4916 53.9511 35.5632 54.0829 35.791C54.2152 36.0194 54.1485 36.3194 53.9337 36.4595C52.9078 37.1318 51.9226 37.8954 51.0059 38.7294C50.866 38.8572 50.6744 38.8788 50.5171 38.8022ZM58.9618 33.8613C58.8475 33.8051 58.7557 33.6995 58.7157 33.5619C58.6414 33.3051 58.7772 33.0334 59.0187 32.955C60.217 32.5649 61.4535 32.2723 62.6953 32.0871C62.9456 32.0501 63.1766 32.2352 63.212 32.5013C63.2469 32.7668 63.0727 33.0131 62.8225 33.0501C61.6283 33.2285 60.4387 33.5094 59.2863 33.8847C59.1755 33.9211 59.0605 33.9094 58.9618 33.8613ZM68.2983 32.4316C68.3267 32.1649 68.5531 31.9729 68.8039 32.0031C70.0533 32.1538 71.2974 32.4087 72.502 32.7618C73.0838 32.9291 72.844 33.8699 72.2588 33.6989C71.1 33.3594 69.9029 33.1137 68.7012 32.9692C68.4446 32.9371 68.271 32.6927 68.2983 32.4316Z" fill="#91B3FA"/>
<path d="M79.2119 37.1469C77.8307 36.1351 77.2223 36.0308 77.5323 35.4628C77.6589 35.2307 77.9341 35.1474 78.157 35.2863C78.6899 35.6147 79.2194 35.9715 79.7309 36.3462C79.9387 36.4987 79.991 36.8012 79.8476 37.0222C79.7065 37.2401 79.4243 37.3012 79.2119 37.1469Z" fill="#91B3FA"/>
<path d="M89.0784 54.317C88.8648 52.5416 88.5327 51.9953 89.1371 51.8619C89.3844 51.807 89.6259 51.9761 89.6776 52.2391C89.803 52.8805 89.9063 53.5385 89.9853 54.1935C90.0172 54.4596 89.8401 54.7034 89.5899 54.7374C89.3397 54.7719 89.1104 54.5837 89.0784 54.317Z" fill="#91B3FA"/>
<path d="M58.1934 81.1705C58.432 80.4038 58.9724 81.1933 62.2299 81.7718C62.825 81.8761 62.6775 82.8366 62.0796 82.7305C60.8616 82.5144 59.6517 82.1959 58.4836 81.7847C58.2479 81.7026 58.1127 81.4285 58.1934 81.1705ZM67.589 82.5533C67.5687 82.286 67.7556 82.0508 68.0076 82.0292C71.3272 81.7391 71.8967 80.9989 72.0761 81.7866C72.1353 82.0477 71.9844 82.3101 71.7388 82.373C70.5417 82.6805 69.3115 82.891 68.0819 82.9978C67.8305 83.02 67.6099 82.8212 67.589 82.5533ZM76.7379 79.9056C76.3815 79.1902 77.2836 79.3272 79.9373 77.2209C80.4221 76.837 80.9696 77.6154 80.4842 78C79.4955 78.7846 78.443 79.4939 77.3562 80.1069C77.1333 80.2328 76.8564 80.1433 76.7379 79.9056ZM84.1731 73.6448C83.5803 73.1337 84.4645 72.8849 86.1289 69.8422C86.4326 69.2866 87.2239 69.7743 86.9196 70.3311C86.3002 71.4632 85.5931 72.5534 84.8163 73.5732C84.6567 73.7819 84.3693 73.8133 84.1731 73.6448ZM88.3861 64.1832C89.2906 60.7775 88.8384 59.946 89.5966 60.0447C89.8474 60.0768 90.0256 60.3194 89.9954 60.5861C89.8456 61.8911 89.6006 63.1906 89.2662 64.4481C89.1977 64.7061 88.9452 64.8567 88.7019 64.7839C88.4593 64.7098 88.317 64.4419 88.3861 64.1832Z" fill="#91B3FA"/>
<path d="M53.0443 79.0172C52.5241 78.6604 52.0103 78.2783 51.5186 77.8808C51.3177 77.7184 51.2782 77.4135 51.4309 77.1993C51.8158 76.661 52.1978 77.2801 53.5395 78.1993C53.7514 78.345 53.8129 78.6456 53.6759 78.8716C53.5377 79.1006 53.2527 79.1605 53.0443 79.0172Z" fill="#91B3FA"/>
<path d="M60.4962 67.8496C60.1194 67.6205 60.0433 67.168 60.2222 66.839C60.412 66.4902 60.8346 66.3723 61.1592 66.573C61.7676 66.9471 62.4195 67.2551 63.0971 67.4878C63.2451 67.507 66.7296 68.9854 70.6912 66.8347C78.5479 62.5542 77.6196 50.2221 69.2079 47.3393C64.369 45.6799 59.1899 48.1844 57.1133 52.9778C55.0216 57.8052 57.3862 60.3165 55.9388 60.6727C55.5702 60.764 55.2015 60.5196 55.1156 60.1276C54.6535 58.0114 54.7423 55.7952 55.3728 53.7174C57.2851 47.4078 63.6759 43.9107 69.6288 45.9515C76.0347 48.1473 79.3032 55.8477 76.4306 62.4765C74.1142 67.823 68.2878 70.8003 62.6756 68.8755C61.9168 68.6144 61.183 68.2693 60.4962 67.8496Z" fill="#BDD0FB"/>
</g>
<path opacity="0.4" d="M193.097 141.687C205.437 141.687 215.44 131.467 215.44 118.86C215.44 106.253 205.437 96.0332 193.097 96.0332C180.757 96.0332 170.754 106.253 170.754 118.86C170.754 131.467 180.757 141.687 193.097 141.687Z" fill="#E5E5FF"/>
<path d="M44.6363 248.205C44.0592 247.751 43.4863 247.292 42.9176 246.829L43.1212 246.568C43.6888 247.03 44.2596 247.488 44.8357 247.941L44.6363 248.205ZM212.054 246.708L211.818 246.477C212.317 245.944 212.812 245.394 213.29 244.843L213.535 245.065C213.054 245.619 212.555 246.172 212.054 246.708ZM41.2231 245.42C40.6629 244.944 40.1058 244.464 39.5551 243.98L39.7682 243.726C40.3179 244.21 40.8728 244.689 41.432 245.162L41.2231 245.42ZM214.96 243.37L214.707 243.156C215.167 242.588 215.625 242.005 216.066 241.42L216.325 241.623C215.882 242.212 215.422 242.799 214.96 243.37ZM37.9134 242.506C37.3711 242.009 36.833 241.507 36.3012 241L36.5249 240.756C37.0556 241.261 37.5916 241.761 38.1328 242.257L37.9134 242.506ZM217.628 239.831L217.362 239.637C217.78 239.041 218.194 238.424 218.595 237.806L218.869 237.991C218.464 238.612 218.047 239.231 217.628 239.831ZM34.7186 239.461C34.1964 238.942 33.6794 238.418 33.1687 237.887L33.4019 237.652C33.9104 238.181 34.4264 238.703 34.9465 239.221L34.7186 239.461ZM31.6536 236.279C31.1535 235.737 30.6608 235.189 30.1734 234.637L30.416 234.413C30.9014 234.964 31.393 235.509 31.891 236.049L31.6536 236.279ZM220.041 236.104L219.761 235.93C219.921 235.661 220.08 235.392 220.237 235.12C220.449 234.753 220.655 234.383 220.857 234.011L221.143 234.173C220.94 234.547 220.733 234.92 220.519 235.29C220.361 235.562 220.202 235.834 220.041 236.104ZM28.73 232.961C28.2552 232.396 27.7879 231.826 27.3268 231.25L27.58 231.038C28.039 231.612 28.5053 232.181 28.978 232.744L28.73 232.961ZM222.158 232.193L221.865 232.044C222.186 231.383 222.494 230.706 222.782 230.032L223.081 230.165C222.791 230.845 222.481 231.527 222.158 232.193ZM25.9657 229.503C25.5226 228.921 25.0795 228.322 24.6469 227.724L24.9107 227.525C25.3411 228.123 25.7832 228.719 26.2242 229.3L25.9657 229.503ZM223.911 228.099L223.605 227.979C223.864 227.285 224.109 226.581 224.332 225.888L224.643 225.993C224.418 226.69 224.172 227.399 223.911 228.099ZM23.3734 225.91C22.9567 225.298 22.5441 224.678 22.1474 224.062L22.4207 223.879C22.8153 224.491 23.2268 225.111 23.6414 225.719L23.3734 225.91ZM225.277 223.852L224.962 223.762C225.154 223.053 225.333 222.329 225.491 221.61L225.81 221.684C225.651 222.409 225.471 223.137 225.277 223.852ZM20.97 222.179C20.5881 221.55 20.2093 220.907 19.8442 220.266L20.127 220.097C20.491 220.736 20.8687 221.377 21.2485 222.003L20.97 222.179ZM226.241 219.494L225.92 219.436C226.045 218.705 226.154 217.966 226.243 217.241L226.568 217.282C226.478 218.014 226.368 218.758 226.241 219.494ZM18.7712 218.321C18.6214 218.041 18.4737 217.759 18.327 217.477C18.1318 217.1 17.9409 216.721 17.7531 216.343L18.0453 216.192C18.2321 216.569 18.422 216.946 18.6161 217.321C18.7617 217.602 18.9094 217.882 19.0582 218.162L18.7712 218.321ZM226.787 215.057L226.461 215.032C226.516 214.294 226.553 213.548 226.571 212.816L226.898 212.825C226.879 213.562 226.842 214.313 226.787 215.057ZM16.8003 214.332C16.4954 213.659 16.1968 212.971 15.9141 212.289L16.2158 212.159C16.4975 212.838 16.794 213.521 17.0979 214.192L16.8003 214.332ZM226.57 210.597C226.551 209.859 226.513 209.114 226.458 208.382L226.784 208.356C226.84 209.094 226.878 209.845 226.897 210.588L226.57 210.597ZM15.0954 210.216C14.8337 209.52 14.5815 208.814 14.3463 208.116L14.6554 208.008C14.8896 208.701 15.1397 209.405 15.4003 210.097L15.0954 210.216ZM226.233 206.175C226.139 205.443 226.025 204.706 225.893 203.984L226.215 203.922C226.348 204.65 226.463 205.394 226.558 206.131L226.233 206.175ZM13.6689 205.993C13.4558 205.285 13.2521 204.562 13.0633 203.846L13.3788 203.76C13.5676 204.472 13.7702 205.19 13.9823 205.895L13.6689 205.993ZM225.437 201.816C225.266 201.098 225.073 200.378 224.865 199.676L225.178 199.579C225.388 200.288 225.583 201.013 225.755 201.737L225.437 201.816ZM12.5294 201.679C12.3638 200.956 12.2097 200.22 12.0705 199.494L12.3912 199.43C12.5305 200.152 12.6835 200.883 12.8481 201.603L12.5294 201.679ZM224.174 197.572C223.928 196.884 223.656 196.19 223.368 195.512L223.668 195.38C223.959 196.063 224.233 196.762 224.482 197.457L224.174 197.572ZM11.6854 197.294C11.5693 196.557 11.4659 195.813 11.3762 195.082L11.7012 195.041C11.7898 195.768 11.8932 196.508 12.0082 197.241L11.6854 197.294ZM222.444 193.505C222.117 192.846 221.768 192.19 221.405 191.558L221.688 191.389C222.053 192.028 222.405 192.688 222.735 193.354L222.444 193.505ZM11.1431 192.86C11.0787 192.12 11.0259 191.37 10.988 190.631L11.315 190.613C11.353 191.349 11.4058 192.094 11.4701 192.831L11.1431 192.86ZM220.254 189.679C219.855 189.07 219.431 188.462 218.992 187.873L219.253 187.671C219.696 188.266 220.124 188.878 220.526 189.493L220.254 189.679ZM10.9099 188.398C10.9036 188.03 10.9004 187.661 10.9004 187.293C10.9004 186.916 10.9036 186.539 10.9109 186.162L11.238 186.167C11.2317 186.542 11.2275 186.917 11.2275 187.293C11.2275 187.66 11.2306 188.026 11.237 188.393L10.9099 188.398ZM217.622 186.15C217.153 185.595 216.659 185.045 216.155 184.517L216.389 184.284C216.899 184.816 217.397 185.371 217.87 185.932L217.622 186.15ZM11.3161 183.943L10.989 183.925C11.0291 183.184 11.0819 182.433 11.1483 181.694L11.4743 181.724C11.4089 182.46 11.3562 183.206 11.3161 183.943ZM214.591 182.98C214.057 182.485 213.502 182.002 212.94 181.542L213.145 181.281C213.712 181.745 214.273 182.234 214.812 182.733L214.591 182.98ZM211.207 180.206C210.62 179.781 210.012 179.369 209.399 178.977L209.572 178.694C210.191 179.088 210.804 179.506 211.394 179.933L211.207 180.206ZM11.7117 179.513L11.3878 179.47C11.4807 178.729 11.5883 177.985 11.7065 177.257L12.0293 177.312C11.9111 178.036 11.8046 178.776 11.7117 179.513ZM207.527 177.855C206.899 177.503 206.249 177.162 205.596 176.842L205.737 176.54C206.395 176.864 207.051 177.207 207.684 177.562L207.527 177.855ZM203.612 175.938C202.955 175.66 202.273 175.393 201.585 175.144L201.694 174.83C202.387 175.08 203.075 175.349 203.738 175.629L203.612 175.938ZM12.426 175.125L12.1053 175.057C12.2509 174.329 12.4123 173.595 12.5853 172.875L12.9029 172.954C12.732 173.672 12.5706 174.402 12.426 175.125ZM199.525 174.457C198.851 174.25 198.146 174.051 197.432 173.867L197.512 173.542C198.23 173.729 198.939 173.928 199.619 174.136L199.525 174.457ZM195.314 173.366C194.627 173.217 193.909 173.076 193.178 172.944L193.235 172.615C193.969 172.748 194.691 172.89 195.382 173.039L195.314 173.366ZM191.028 172.592C190.311 172.485 189.59 172.388 188.869 172.298L188.909 171.966C189.633 172.055 190.355 172.153 191.076 172.26L191.028 172.592ZM186.703 172.052C185.981 171.976 185.257 171.907 184.532 171.844L184.561 171.511C185.287 171.575 186.013 171.644 186.736 171.719L186.703 172.052ZM182.358 171.662C181.633 171.604 180.908 171.549 180.183 171.496L180.208 171.162C180.933 171.216 181.658 171.271 182.384 171.328L182.358 171.662ZM178.007 171.335C177.281 171.281 176.556 171.227 175.831 171.17L175.855 170.837C176.58 170.894 177.304 170.948 178.03 171.002L178.007 171.335ZM173.657 170.99C172.931 170.926 172.207 170.859 171.484 170.784L171.517 170.451C172.239 170.525 172.961 170.593 173.685 170.656L173.657 170.99ZM13.46 170.806L13.1456 170.714C13.345 169.997 13.5613 169.278 13.786 168.577L14.0973 168.68C13.8725 169.379 13.6583 170.093 13.46 170.806ZM169.314 170.542C168.59 170.453 167.869 170.357 167.149 170.252L167.196 169.921C167.913 170.026 168.632 170.122 169.353 170.21L169.314 170.542ZM164.992 169.901C164.27 169.774 163.548 169.633 162.846 169.482L162.913 169.155C163.61 169.304 164.329 169.444 165.047 169.571L164.992 169.901ZM160.716 168.983C159.997 168.799 159.288 168.599 158.607 168.391L158.701 168.071C159.376 168.277 160.082 168.475 160.796 168.658L160.716 168.983ZM156.524 167.698C155.832 167.448 155.144 167.179 154.479 166.897L154.604 166.588C155.265 166.868 155.947 167.135 156.634 167.383L156.524 167.698ZM14.8115 166.581L14.5045 166.465C14.7556 165.771 15.0247 165.071 15.3043 164.385L15.606 164.513C15.3296 165.196 15.0616 165.891 14.8115 166.581ZM152.481 165.982C151.825 165.659 151.172 165.312 150.54 164.95L150.7 164.658C151.326 165.016 151.974 165.36 152.625 165.681L152.481 165.982ZM148.663 163.799C148.068 163.408 147.46 162.984 146.856 162.538L147.047 162.266C147.646 162.709 148.249 163.13 148.84 163.517L148.663 163.799ZM16.4796 162.479L16.1821 162.339C16.488 161.663 16.8098 160.987 17.139 160.329L17.4302 160.481C17.1042 161.135 16.7835 161.807 16.4796 162.479ZM145.112 161.187C144.564 160.742 143.997 160.264 143.426 159.765L143.639 159.51C144.208 160.007 144.772 160.483 145.316 160.926L145.112 161.187ZM18.4589 158.526L18.174 158.362C18.5296 157.718 18.9031 157.07 19.284 156.438L19.5625 156.614C19.1837 157.241 18.8124 157.885 18.4589 158.526ZM141.785 158.289C141.245 157.791 140.71 157.287 140.178 156.778L140.402 156.533C140.933 157.041 141.466 157.544 142.005 158.04L141.785 158.289ZM138.59 155.247L137.011 153.711L137.236 153.469L138.816 155.006L138.59 155.247ZM20.74 154.749L20.4688 154.563C20.874 153.948 21.2981 153.335 21.7275 152.738L21.9913 152.936C21.564 153.529 21.1441 154.139 20.74 154.749ZM135.424 152.184C134.892 151.678 134.357 151.177 133.816 150.682L134.035 150.433C134.577 150.929 135.114 151.432 135.647 151.939L135.424 152.184ZM23.3122 151.177L23.0569 150.968C23.5106 150.389 23.9812 149.813 24.4559 149.256L24.7028 149.476C24.2312 150.03 23.7628 150.602 23.3122 151.177ZM132.175 149.222C131.604 148.728 131.036 148.256 130.489 147.818L130.691 147.555C131.241 147.995 131.813 148.47 132.387 148.966L132.175 149.222ZM26.1599 147.834L25.9225 147.605C26.4236 147.063 26.9406 146.527 27.4576 146.013L27.6855 146.252C27.1717 146.763 26.6589 147.295 26.1599 147.834ZM128.749 146.487C128.17 146.06 127.571 145.631 126.967 145.21L127.151 144.934C127.758 145.356 128.359 145.787 128.94 146.215L128.749 146.487ZM29.2734 144.735L29.055 144.486C29.5952 143.992 30.1523 143.501 30.7125 143.028L30.9204 143.286C30.3643 143.756 29.8104 144.243 29.2734 144.735ZM125.151 143.982C124.546 143.584 123.925 143.187 123.306 142.803L123.475 142.517C124.098 142.903 124.72 143.302 125.328 143.701L125.151 143.982ZM32.6243 141.907L32.4259 141.641C33.0062 141.19 33.6013 140.748 34.1942 140.326L34.381 140.599C33.7923 141.02 33.2014 141.46 32.6243 141.907ZM121.431 141.673C120.801 141.304 120.167 140.943 119.528 140.591L119.685 140.296C120.325 140.65 120.962 141.012 121.593 141.382L121.431 141.673ZM117.6 139.557C116.953 139.221 116.302 138.892 115.648 138.572L115.789 138.27C116.447 138.591 117.1 138.921 117.748 139.26L117.6 139.557ZM36.1894 139.366L36.0132 139.085C36.6262 138.685 37.2529 138.293 37.8786 137.919L38.0442 138.208C37.4217 138.578 36.7982 138.969 36.1894 139.366ZM113.673 137.634C113.011 137.329 112.345 137.033 111.678 136.744L111.805 136.435C112.476 136.725 113.144 137.023 113.808 137.329L113.673 137.634ZM39.9412 137.122L39.7872 136.828C40.4244 136.481 41.0796 136.139 41.7359 135.813L41.8794 136.114C41.2263 136.438 40.5743 136.777 39.9412 137.122ZM109.662 135.902C108.987 135.628 108.31 135.364 107.629 135.106L107.742 134.793C108.425 135.05 109.105 135.317 109.783 135.59L109.662 135.902ZM43.8513 135.183L43.7194 134.877C44.3831 134.579 45.0625 134.289 45.7378 134.016L45.8581 134.326C45.187 134.599 44.5118 134.886 43.8513 135.183ZM105.578 134.358C105.173 134.216 104.767 134.076 104.361 133.939C104.078 133.844 103.795 133.749 103.511 133.657L103.612 133.339C103.896 133.431 104.18 133.526 104.463 133.621C104.871 133.759 105.278 133.899 105.685 134.042L105.578 134.358ZM47.8954 133.543L47.7846 133.229C48.4662 132.979 49.1625 132.735 49.8525 132.505L49.9538 132.823C49.267 133.053 48.5738 133.294 47.8954 133.543ZM101.431 133.002C100.735 132.792 100.037 132.589 99.3354 132.395L99.4208 132.073C100.125 132.268 100.825 132.472 101.523 132.682L101.431 133.002ZM52.0334 132.168L51.9416 131.847C52.6348 131.64 53.3438 131.439 54.0486 131.251L54.1319 131.574C53.4292 131.762 52.7234 131.961 52.0334 132.168ZM97.2284 131.835C96.5236 131.656 95.8178 131.486 95.1087 131.323L95.1805 130.996C95.8916 131.16 96.6006 131.33 97.3065 131.51L97.2284 131.835ZM56.2442 131.044L56.1703 130.718C56.8719 130.552 57.5915 130.394 58.3068 130.247L58.3712 130.575C57.6601 130.721 56.9437 130.879 56.2442 131.044ZM92.9786 130.859C92.2674 130.713 91.5542 130.575 90.8389 130.444L90.8959 130.116C91.6133 130.246 92.3286 130.385 93.0429 130.532L92.9786 130.859ZM60.5119 130.168L60.456 129.84C61.1682 129.715 61.8941 129.597 62.6147 129.492L62.6611 129.822C61.9447 129.927 61.2209 130.043 60.5119 130.168ZM88.6918 130.079C87.9744 129.966 87.2559 129.86 86.5363 129.764L86.5785 129.433C87.3002 129.53 88.0218 129.636 88.7414 129.749L88.6918 130.079ZM64.8208 129.534L64.7829 129.202C65.5024 129.116 66.2346 129.039 66.9574 128.972L66.9869 129.305C66.2663 129.372 65.5372 129.448 64.8208 129.534ZM84.3734 129.499C83.6517 129.419 82.929 129.349 82.2063 129.287L82.2337 128.954C82.9596 129.016 83.6844 129.087 84.4082 129.167L84.3734 129.499ZM69.1561 129.136L69.135 128.803C69.8577 128.755 70.5921 128.718 71.318 128.69L71.3306 129.024C70.6079 129.051 69.8767 129.088 69.1561 129.136ZM80.035 129.126C79.3101 129.082 78.5853 129.045 77.8605 129.018L77.8721 128.684C78.6001 128.711 79.327 128.747 80.055 128.792L80.035 129.126ZM73.5062 128.967L73.502 128.632C74.23 128.623 74.958 128.623 75.687 128.631L75.6828 128.965C74.9569 128.957 74.2321 128.957 73.5062 128.967Z" fill="#9192FF"/>
<path d="M161.893 96.7608C158.516 96.7608 155.768 93.9539 155.768 90.5025C155.768 87.051 158.516 84.2441 161.893 84.2441C165.271 84.2441 168.019 87.0521 168.019 90.5025C168.019 93.9529 165.271 96.7608 161.893 96.7608ZM161.893 84.5783C158.696 84.5783 156.095 87.2353 156.095 90.5025C156.095 93.7685 158.695 96.4267 161.893 96.4267C165.091 96.4267 167.692 93.7696 167.692 90.5025C167.692 87.2364 165.09 84.5783 161.893 84.5783Z" fill="#9192FF"/>
<path d="M19.239 109.24C15.8617 109.24 13.1133 106.433 13.1133 102.982C13.1133 99.5305 15.8607 96.7236 19.239 96.7236C22.6173 96.7236 25.3647 99.5305 25.3647 102.982C25.3647 106.433 22.6163 109.24 19.239 109.24ZM19.239 97.0589C16.0422 97.0589 13.4404 99.7159 13.4404 102.983C13.4404 106.25 16.0411 108.907 19.239 108.907C22.4369 108.907 25.0377 106.25 25.0377 102.983C25.0377 99.7159 22.4359 97.0589 19.239 97.0589Z" fill="#9192FF"/>
<path d="M232.13 159.158C231.6 159.158 231.075 159.089 230.568 158.952L230.652 158.629C231.332 158.811 232.056 158.866 232.755 158.789L232.79 159.121C232.572 159.146 232.35 159.158 232.13 159.158ZM234.925 158.47L234.776 158.173C235.407 157.841 235.969 157.399 236.446 156.856L236.689 157.08C236.185 157.652 235.591 158.12 234.925 158.47ZM228.552 157.98C227.942 157.531 227.423 156.978 227.009 156.337L227.283 156.153C227.674 156.759 228.165 157.283 228.743 157.708L228.552 157.98ZM237.851 155.138L237.545 155.019C237.799 154.343 237.927 153.63 237.927 152.899H238.254C238.255 153.671 238.119 154.425 237.851 155.138ZM226.145 154.24C226.051 153.803 226.004 153.351 226.004 152.899C226.004 152.588 226.026 152.274 226.071 151.966L226.395 152.016C226.352 152.308 226.331 152.604 226.331 152.899C226.331 153.327 226.376 153.754 226.465 154.169L226.145 154.24ZM237.916 152.508C237.869 151.781 237.695 151.078 237.398 150.42L237.694 150.28C238.009 150.976 238.193 151.718 238.242 152.487L237.916 152.508ZM227.083 149.978L226.798 149.813C227.17 149.146 227.652 148.56 228.231 148.07L228.44 148.328C227.891 148.792 227.435 149.348 227.083 149.978ZM236.18 148.66C235.671 148.151 235.081 147.747 234.429 147.459L234.558 147.152C235.248 147.456 235.87 147.883 236.409 148.421L236.18 148.66ZM230.283 147.281L230.18 146.965C230.888 146.722 231.636 146.613 232.386 146.647L232.372 146.981C231.662 146.95 230.952 147.053 230.283 147.281Z" fill="#9192FF"/>
<path d="M59.0318 96.7349L58.1445 95.8294L59.0318 94.9229L59.2629 95.1589L58.6077 95.8294L59.2629 96.4988L59.0318 96.7349Z" fill="#9192FF"/>
<path d="M67.5883 105.477L66.1618 104.019L66.3929 103.783L67.8193 105.241L67.5883 105.477ZM64.7354 102.563L63.3089 101.106L63.54 100.87L64.9664 102.327L64.7354 102.563ZM61.8835 99.6485L60.457 98.1911L60.6881 97.9551L62.1146 99.4124L61.8835 99.6485Z" fill="#9192FF"/>
<path d="M69.899 107.84L69.0117 106.933L69.2428 106.697L69.899 107.368L70.5542 106.697L70.7853 106.933L69.899 107.84Z" fill="#9192FF"/>
<path d="M72.2154 105.477L71.9844 105.241L73.4108 103.783L73.6419 104.019L72.2154 105.477ZM75.0673 102.563L74.8362 102.327L76.2627 100.87L76.4938 101.106L75.0673 102.563ZM77.9202 99.6485L77.6892 99.4124L79.1156 97.9551L79.3467 98.1911L77.9202 99.6485Z" fill="#9192FF"/>
<path d="M80.7721 96.7349L80.541 96.4988L81.1962 95.8294L80.541 95.1589L80.7721 94.9229L81.6594 95.8294L80.7721 96.7349Z" fill="#9192FF"/>
<path d="M79.1137 93.7021L77.6872 92.2448L77.9183 92.0088L79.3447 93.4661L79.1137 93.7021ZM76.2618 90.7886L74.8353 89.3313L75.0664 89.0952L76.4929 90.5525L76.2618 90.7886ZM73.4089 87.875L71.9824 86.4177L72.2135 86.1816L73.6399 87.639L73.4089 87.875Z" fill="#9192FF"/>
<path d="M69.2428 84.9599L69.0117 84.7238L69.899 83.8184L70.7853 84.7238L70.5542 84.9599L69.899 84.2905L69.2428 84.9599Z" fill="#9192FF"/>
<path d="M60.6881 93.7021L60.457 93.4661L61.8835 92.0088L62.1146 92.2448L60.6881 93.7021ZM63.541 90.7886L63.31 90.5525L64.7364 89.0952L64.9675 89.3313L63.541 90.7886ZM66.3929 87.875L66.1618 87.639L67.5883 86.1816L67.8193 86.4177L66.3929 87.875Z" fill="#9192FF"/>
<path d="M211.829 114.599L203.928 106.527L211.829 98.4541L219.731 106.527L211.829 114.599ZM204.39 106.527L211.829 114.127L219.268 106.527L211.829 98.9262L204.39 106.527Z" fill="#9192FF"/>
<path opacity="0.4" d="M232.188 237.432C241.375 237.432 248.823 229.823 248.823 220.437C248.823 211.051 241.375 203.441 232.188 203.441C223.001 203.441 215.553 211.051 215.553 220.437C215.553 229.823 223.001 237.432 232.188 237.432Z" fill="#E5E5FF"/>
<path opacity="0.4" d="M54.3423 107.587C63.5298 107.587 70.9777 99.9784 70.9777 90.5921C70.9777 81.2058 63.5298 73.5967 54.3423 73.5967C45.1549 73.5967 37.707 81.2058 37.707 90.5921C37.707 99.9784 45.1549 107.587 54.3423 107.587Z" fill="#E5E5FF"/>
<path opacity="0.5" d="M162.767 113.753C163.73 113.753 164.512 112.955 164.512 111.97C164.512 110.986 163.73 110.188 162.767 110.188C161.803 110.188 161.021 110.986 161.021 111.97C161.021 112.955 161.803 113.753 162.767 113.753Z" fill="#D1D1FF"/>
<path opacity="0.5" d="M233.585 189.001C234.549 189.001 235.33 188.203 235.33 187.218C235.33 186.234 234.549 185.436 233.585 185.436C232.621 185.436 231.84 186.234 231.84 187.218C231.84 188.203 232.621 189.001 233.585 189.001Z" fill="#D1D1FF"/>
<path opacity="0.5" d="M92.8193 92.7318C93.7831 92.7318 94.5645 91.9335 94.5645 90.9489C94.5645 89.9642 93.7831 89.166 92.8193 89.166C91.8555 89.166 91.0742 89.9642 91.0742 90.9489C91.0742 91.9335 91.8555 92.7318 92.8193 92.7318Z" fill="#D1D1FF"/>
<path opacity="0.5" d="M21.5673 128.981C22.5311 128.981 23.3124 128.183 23.3124 127.198C23.3124 126.213 22.5311 125.415 21.5673 125.415C20.6036 125.415 19.8223 126.213 19.8223 127.198C19.8223 128.183 20.6036 128.981 21.5673 128.981Z" fill="#D1D1FF"/>
<path d="M134.34 206.178H101.186V242.501H134.34V206.178Z" fill="#D1D1FF"/>
<path opacity="0.15" d="M134.34 206.178H101.186V226.691H134.34V206.178Z" fill="#1B1B43"/>
<path d="M149.391 248.073H86.1348C86.1348 243.356 89.8782 239.531 94.4951 239.531H141.03C145.648 239.531 149.391 243.356 149.391 248.073Z" fill="#D1D1FF"/>
<path d="M117.762 230.17C121.898 230.17 125.251 226.745 125.251 222.519C125.251 218.294 121.898 214.868 117.762 214.868C113.626 214.868 110.273 218.294 110.273 222.519C110.273 226.745 113.626 230.17 117.762 230.17Z" fill="white"/>
<path d="M193.012 121.793H42.5117V222.222H193.012V121.793Z" fill="#D1D1FF"/>
<path d="M109.653 239.531H97.5469V239.754H109.653V239.531Z" fill="#1B1B43"/>
<path d="M137.465 239.531H125.359V239.754H137.465V239.531Z" fill="#1B1B43"/>
<path d="M187.865 129.056H47.6621V213.9H187.865V129.056Z" fill="white"/>
<g opacity="0.2">
<path opacity="0.2" d="M199.999 218.578C200.691 212.864 194.104 207.23 186.371 206.925C186.352 203.127 180.143 200.166 175.468 201.728C175.695 197.319 169.834 193.303 163.919 193.814C166.346 173.486 128.036 172.18 116.029 171.335C111.713 171.031 107.468 170.179 103.124 170.258C96.0689 170.384 89.4726 173.204 84.1455 177.905C81.4097 180.319 79.9231 183.771 81.5279 186.69C75.4042 184.995 68.1264 185.828 62.9797 188.815C57.8331 191.801 54.995 196.837 55.7483 201.648C52.6706 200.115 48.1296 200.482 45.57 202.47C43.0104 204.459 42.7319 207.837 44.9444 210.043C42.3141 209.371 39.1636 210.031 37.3964 211.624C35.6291 213.217 35.3654 215.635 36.7633 217.417L40.3284 241.148L205.23 236.988L199.999 218.578Z" fill="#D1D1FF"/>
</g>
<g opacity="0.5">
<path opacity="0.5" d="M181.788 234.303C181.897 228.159 179.465 222.01 175.206 217.67C170.948 213.331 164.924 210.859 158.911 210.985C156.964 204.852 149.946 200.929 143.84 202.562C142.577 197.277 137.924 193.395 132.884 191.64C127.844 189.886 122.402 189.901 117.078 189.934C111.214 189.97 105.234 190.025 99.6717 191.921C94.1083 193.817 88.93 197.898 87.1923 203.621C83.6673 202.152 79.3373 202.973 76.5635 205.638C73.7897 208.301 72.7199 212.667 73.9385 216.351C68.9322 214.568 63.0343 215.712 59.0156 219.244C54.9968 222.777 53.0091 228.564 53.9861 233.887L181.788 234.303Z" fill="#D1D1FF"/>
</g>
<path opacity="0.7" d="M104.413 171.388L94.9316 226.513H142.047L131.029 171.388L116.963 165.898L104.413 171.388Z" fill="#FFF2E0"/>
<path d="M110.079 169.001L106.348 192.643L110.484 187.332L111.517 202.911L116.17 187.686L121.341 207.867L121.858 184.5L129.614 195.475L124.443 164.672L110.079 169.001Z" fill="#FFA121"/>
<path opacity="0.4" d="M112.175 168.539L109.598 183.628L112.454 180.238L113.168 190.18L116.383 180.464L119.953 193.343L120.311 178.43L125.667 185.435L122.096 165.776L112.175 168.539Z" fill="white"/>
<path opacity="0.5" d="M72.8278 178.939C71.4541 178.648 70.15 177.937 69.2902 177.41C68.9642 177.211 68.6234 176.935 68.6392 176.463C68.6519 176.084 68.8935 175.696 69.1414 175.363C70.7673 173.187 73.368 171.617 75.5066 171.752C77.7624 171.896 79.193 174.222 77.4975 177.028C76.2926 179.025 74.5075 179.295 72.8278 178.939Z" fill="#D1D1FF"/>
<path opacity="0.5" d="M156.615 182.536C158.045 183.288 159.75 183.621 161.138 183.517C161.761 183.469 162.444 183.307 162.804 182.784C163.05 182.425 163.096 181.961 163.085 181.523C163.028 179.193 161.528 176.973 159.591 175.815C158.011 174.87 155.73 174.833 154.48 176.368C153.723 177.298 153.51 178.66 153.947 179.784C154.415 180.986 155.419 181.908 156.615 182.536Z" fill="#D1D1FF"/>
<path opacity="0.5" d="M88.5343 189.149C89.6589 189.149 90.5706 188.218 90.5706 187.069C90.5706 185.92 89.6589 184.988 88.5343 184.988C87.4097 184.988 86.498 185.92 86.498 187.069C86.498 188.218 87.4097 189.149 88.5343 189.149Z" fill="#D1D1FF"/>
<path opacity="0.5" d="M147.499 197.617C148.624 197.617 149.535 196.685 149.535 195.536C149.535 194.387 148.624 193.456 147.499 193.456C146.375 193.456 145.463 194.387 145.463 195.536C145.463 196.685 146.375 197.617 147.499 197.617Z" fill="#D1D1FF"/>
<path opacity="0.5" d="M164.804 203.707C165.527 203.707 166.113 203.109 166.113 202.371C166.113 201.633 165.527 201.034 164.804 201.034C164.082 201.034 163.496 201.633 163.496 202.371C163.496 203.109 164.082 203.707 164.804 203.707Z" fill="#D1D1FF"/>
<path opacity="0.5" d="M74.9391 198.21C75.6617 198.21 76.2474 197.612 76.2474 196.874C76.2474 196.136 75.6617 195.537 74.9391 195.537C74.2166 195.537 73.6309 196.136 73.6309 196.874C73.6309 197.612 74.2166 198.21 74.9391 198.21Z" fill="#D1D1FF"/>
<path d="M150.28 144.787C149.597 146.517 148.116 147.786 146.33 148.174L129.268 151.876L129.092 141.251L150.28 144.787Z" fill="#D1D1FF"/>
<path d="M150.279 144.787H131.658V117.66C139.315 139.811 150.279 135.129 150.279 144.787Z" fill="#3335CF"/>
<path d="M85.252 144.787C85.9346 146.517 87.4159 147.786 89.2021 148.174L106.264 151.876L106.44 141.251L85.252 144.787Z" fill="#D1D1FF"/>
<path d="M85.25 144.787H103.871V117.66C96.2143 139.811 85.25 135.129 85.25 144.787Z" fill="#3335CF"/>
<path d="M130.302 157.275C136.688 138.604 135.065 117.957 125.48 100.774C125.305 100.459 125.127 100.146 124.946 99.833H117.723H117.716H110.492C110.312 100.146 110.133 100.459 109.958 100.774C100.374 117.957 98.7501 138.604 105.136 157.275L106.994 162.705L104.412 171.388H109.964H117.717H117.724H125.477H131.03L128.447 162.705L130.302 157.275Z" fill="#C5C5FF"/>
<path d="M110.492 99.8306H117.716H124.947L117.719 87.7666L110.492 99.8306Z" fill="#1B1B43"/>
<path d="M106.995 162.716L128.439 162.704L131.028 171.389H104.412L106.995 162.716Z" fill="#3335CF"/>
<path d="M117.719 177.089C116.822 177.089 116.094 176.346 116.094 175.429V146.991C116.094 146.075 116.821 145.331 117.719 145.331C118.615 145.331 119.343 146.074 119.343 146.991V175.429C119.343 176.346 118.616 177.089 117.719 177.089Z" fill="#1B1B43"/>
<path d="M117.718 124.638C121.843 124.638 125.188 121.221 125.188 117.007C125.188 112.792 121.843 109.375 117.718 109.375C113.592 109.375 110.248 112.792 110.248 117.007C110.248 121.221 113.592 124.638 117.718 124.638Z" fill="white"/>
<path d="M117.719 122.411C120.64 122.411 123.008 119.991 123.008 117.007C123.008 114.023 120.64 111.604 117.719 111.604C114.798 111.604 112.43 114.023 112.43 117.007C112.43 119.991 114.798 122.411 117.719 122.411Z" fill="#3335CF"/>
<path d="M115.915 116.22C116.45 116.22 116.885 115.777 116.885 115.23C116.885 114.683 116.45 114.239 115.915 114.239C115.379 114.239 114.945 114.683 114.945 115.23C114.945 115.777 115.379 116.22 115.915 116.22Z" fill="white"/>
<path d="M117.721 137.425C117.676 137.425 117.633 137.423 117.59 137.422L117.605 136.977L117.721 136.979C117.957 136.979 118.193 136.956 118.422 136.909L118.507 137.346C118.25 137.398 117.986 137.425 117.721 137.425ZM116.681 137.286C116.384 137.205 116.096 137.088 115.824 136.94L116.03 136.547C116.271 136.68 116.528 136.783 116.792 136.855L116.681 137.286ZM119.384 137.058L119.203 136.652C119.452 136.536 119.689 136.391 119.907 136.221L120.173 136.574C119.928 136.766 119.663 136.929 119.384 137.058ZM115.067 136.404C114.836 136.197 114.628 135.963 114.449 135.707L114.804 135.448C114.964 135.675 115.15 135.884 115.355 136.069L115.067 136.404ZM120.833 135.921L120.496 135.637C120.67 135.422 120.82 135.185 120.941 134.934L121.332 135.131C121.196 135.412 121.028 135.678 120.833 135.921ZM114.002 134.887C113.884 134.597 113.799 134.293 113.75 133.983L114.18 133.911C114.224 134.187 114.3 134.458 114.406 134.716L114.002 134.887ZM121.644 134.245L121.218 134.145C121.281 133.873 121.311 133.593 121.311 133.311H121.747C121.747 133.626 121.712 133.94 121.644 134.245ZM114.139 133.073L113.703 133.044C113.723 132.73 113.778 132.419 113.867 132.119L114.284 132.248C114.205 132.516 114.157 132.793 114.139 133.073ZM121.293 132.948C121.266 132.669 121.208 132.393 121.12 132.129L121.533 131.985C121.632 132.282 121.697 132.591 121.728 132.904L121.293 132.948ZM114.61 131.479L114.233 131.256C114.387 130.984 114.571 130.73 114.781 130.501L115.1 130.805C114.912 131.01 114.748 131.237 114.61 131.479ZM120.768 131.371C120.623 131.134 120.451 130.913 120.257 130.715L120.565 130.399C120.783 130.621 120.976 130.869 121.138 131.134L120.768 131.371ZM115.725 130.263L115.482 129.893C115.737 129.718 116.013 129.573 116.3 129.462L116.454 129.879C116.197 129.977 115.953 130.107 115.725 130.263ZM119.615 130.194C119.381 130.046 119.131 129.926 118.873 129.836L119.012 129.414C119.303 129.514 119.583 129.65 119.845 129.816L119.615 130.194ZM117.249 129.676L117.192 129.234C117.496 129.193 117.81 129.187 118.112 129.217L118.07 129.662C117.802 129.635 117.521 129.639 117.249 129.676Z" fill="#1B1B43"/>
<path d="M236.2 221.92H204.27V227.148H236.2V221.92Z" fill="#D1D1FF"/>
<g opacity="0.4">
<path opacity="0.4" d="M234.111 226.321C234.299 226.321 234.453 226.163 234.453 225.971V223.093C234.453 222.902 234.299 222.744 234.111 222.744C233.924 222.744 233.77 222.902 233.77 223.093V225.971C233.77 226.164 233.924 226.321 234.111 226.321Z" fill="#3335CF"/>
<path opacity="0.4" d="M228.439 226.321C228.627 226.321 228.781 226.163 228.781 225.971V223.093C228.781 222.902 228.627 222.744 228.439 222.744C228.252 222.744 228.098 222.902 228.098 223.093V225.971C228.098 226.164 228.252 226.321 228.439 226.321Z" fill="#3335CF"/>
<path opacity="0.4" d="M222.77 226.321C222.957 226.321 223.111 226.163 223.111 225.971V223.093C223.111 222.902 222.957 222.744 222.77 222.744C222.582 222.744 222.428 222.902 222.428 223.093V225.971C222.428 226.164 222.582 226.321 222.77 226.321Z" fill="#3335CF"/>
<path opacity="0.4" d="M217.098 226.321C217.286 226.321 217.44 226.163 217.44 225.971V223.093C217.44 222.902 217.286 222.744 217.098 222.744C216.91 222.744 216.756 222.902 216.756 223.093V225.971C216.756 226.164 216.909 226.321 217.098 226.321Z" fill="#3335CF"/>
<path opacity="0.4" d="M211.428 226.321C211.616 226.321 211.77 226.163 211.77 225.971V223.093C211.77 222.902 211.616 222.744 211.428 222.744C211.24 222.744 211.086 222.902 211.086 223.093V225.971C211.086 226.164 211.24 226.321 211.428 226.321Z" fill="#3335CF"/>
<path opacity="0.4" d="M206.357 226.321C206.545 226.321 206.699 226.163 206.699 225.971V223.093C206.699 222.902 206.545 222.744 206.357 222.744C206.17 222.744 206.016 222.902 206.016 223.093V225.971C206.016 226.164 206.169 226.321 206.357 226.321Z" fill="#3335CF"/>
</g>
<path d="M236.2 227.151H204.27V232.379H236.2V227.151Z" fill="#D1D1FF"/>
<g opacity="0.4">
<path opacity="0.4" d="M234.111 231.552C234.299 231.552 234.453 231.395 234.453 231.203V228.325C234.453 228.133 234.299 227.976 234.111 227.976C233.924 227.976 233.77 228.133 233.77 228.325V231.203C233.77 231.396 233.924 231.552 234.111 231.552Z" fill="#3335CF"/>
<path opacity="0.4" d="M228.439 231.552C228.627 231.552 228.781 231.395 228.781 231.203V228.325C228.781 228.133 228.627 227.976 228.439 227.976C228.252 227.976 228.098 228.133 228.098 228.325V231.203C228.098 231.396 228.252 231.552 228.439 231.552Z" fill="#3335CF"/>
<path opacity="0.4" d="M222.77 231.552C222.957 231.552 223.111 231.395 223.111 231.203V228.325C223.111 228.133 222.957 227.976 222.77 227.976C222.582 227.976 222.428 228.133 222.428 228.325V231.203C222.428 231.396 222.582 231.552 222.77 231.552Z" fill="#3335CF"/>
<path opacity="0.4" d="M217.098 231.552C217.286 231.552 217.44 231.395 217.44 231.203V228.325C217.44 228.133 217.286 227.976 217.098 227.976C216.91 227.976 216.756 228.133 216.756 228.325V231.203C216.756 231.396 216.909 231.552 217.098 231.552Z" fill="#3335CF"/>
<path opacity="0.4" d="M211.428 231.552C211.616 231.552 211.77 231.395 211.77 231.203V228.325C211.77 228.133 211.616 227.976 211.428 227.976C211.24 227.976 211.086 228.133 211.086 228.325V231.203C211.086 231.396 211.24 231.552 211.428 231.552Z" fill="#3335CF"/>
<path opacity="0.4" d="M206.357 231.552C206.545 231.552 206.699 231.395 206.699 231.203V228.325C206.699 228.133 206.545 227.976 206.357 227.976C206.17 227.976 206.016 228.133 206.016 228.325V231.203C206.016 231.396 206.169 231.552 206.357 231.552Z" fill="#3335CF"/>
</g>
<path opacity="0.15" d="M236.2 227.151H204.27V229.018H236.2V227.151Z" fill="#1B1B43"/>
<path d="M233.437 232.382H201.508V237.61H233.437V232.382Z" fill="#D1D1FF"/>
<g opacity="0.4">
<path opacity="0.4" d="M231.352 236.784C231.539 236.784 231.693 236.626 231.693 236.434V233.556C231.693 233.364 231.539 233.207 231.352 233.207C231.164 233.207 231.01 233.364 231.01 233.556V236.434C231.011 236.626 231.164 236.784 231.352 236.784Z" fill="#3335CF"/>
<path opacity="0.4" d="M225.678 236.784C225.866 236.784 226.02 236.626 226.02 236.434V233.556C226.02 233.364 225.866 233.207 225.678 233.207C225.49 233.207 225.336 233.364 225.336 233.556V236.434C225.336 236.626 225.49 236.784 225.678 236.784Z" fill="#3335CF"/>
<path opacity="0.4" d="M220.01 236.784C220.198 236.784 220.352 236.626 220.352 236.434V233.556C220.352 233.364 220.198 233.207 220.01 233.207C219.822 233.207 219.668 233.364 219.668 233.556V236.434C219.668 236.626 219.822 236.784 220.01 236.784Z" fill="#3335CF"/>
<path opacity="0.4" d="M214.336 236.784C214.524 236.784 214.678 236.626 214.678 236.434V233.556C214.678 233.364 214.524 233.207 214.336 233.207C214.148 233.207 213.994 233.364 213.994 233.556V236.434C213.994 236.626 214.148 236.784 214.336 236.784Z" fill="#3335CF"/>
<path opacity="0.4" d="M208.668 236.784C208.856 236.784 209.01 236.626 209.01 236.434V233.556C209.01 233.364 208.856 233.207 208.668 233.207C208.48 233.207 208.326 233.364 208.326 233.556V236.434C208.326 236.626 208.479 236.784 208.668 236.784Z" fill="#3335CF"/>
<path opacity="0.4" d="M203.596 236.784C203.784 236.784 203.938 236.626 203.938 236.434V233.556C203.938 233.364 203.784 233.207 203.596 233.207C203.408 233.207 203.254 233.364 203.254 233.556V236.434C203.254 236.626 203.408 236.784 203.596 236.784Z" fill="#3335CF"/>
</g>
<path d="M233.437 237.613H201.508V242.841H233.437V237.613Z" fill="#D1D1FF"/>
<g opacity="0.4">
<path opacity="0.4" d="M231.352 242.016C231.539 242.016 231.693 241.858 231.693 241.667V238.789C231.693 238.597 231.539 238.439 231.352 238.439C231.164 238.439 231.01 238.597 231.01 238.789V241.667C231.011 241.858 231.164 242.016 231.352 242.016Z" fill="#3335CF"/>
<path opacity="0.4" d="M225.678 242.016C225.866 242.016 226.02 241.858 226.02 241.667V238.789C226.02 238.597 225.866 238.439 225.678 238.439C225.49 238.439 225.336 238.597 225.336 238.789V241.667C225.336 241.858 225.49 242.016 225.678 242.016Z" fill="#3335CF"/>
<path opacity="0.4" d="M220.01 242.016C220.198 242.016 220.352 241.858 220.352 241.667V238.789C220.352 238.597 220.198 238.439 220.01 238.439C219.822 238.439 219.668 238.597 219.668 238.789V241.667C219.668 241.858 219.822 242.016 220.01 242.016Z" fill="#3335CF"/>
<path opacity="0.4" d="M214.336 242.016C214.524 242.016 214.678 241.858 214.678 241.667V238.789C214.678 238.597 214.524 238.439 214.336 238.439C214.148 238.439 213.994 238.597 213.994 238.789V241.667C213.994 241.858 214.148 242.016 214.336 242.016Z" fill="#3335CF"/>
<path opacity="0.4" d="M208.668 242.016C208.856 242.016 209.01 241.858 209.01 241.667V238.789C209.01 238.597 208.856 238.439 208.668 238.439C208.48 238.439 208.326 238.597 208.326 238.789V241.667C208.326 241.858 208.479 242.016 208.668 242.016Z" fill="#3335CF"/>
<path opacity="0.4" d="M203.596 242.016C203.784 242.016 203.938 241.859 203.938 241.667V238.789C203.938 238.597 203.784 238.439 203.596 238.439C203.408 238.439 203.254 238.597 203.254 238.789V241.667C203.254 241.859 203.408 242.016 203.596 242.016Z" fill="#3335CF"/>
</g>
<path opacity="0.15" d="M233.437 237.613H201.508V239.764H233.437V237.613Z" fill="#1B1B43"/>
<path d="M235.911 242.845H203.98V248.073H235.911V242.845Z" fill="#D1D1FF"/>
<g opacity="0.4">
<path opacity="0.4" d="M233.824 247.246C234.012 247.246 234.166 247.089 234.166 246.897V244.019C234.166 243.827 234.012 243.67 233.824 243.67C233.636 243.67 233.482 243.827 233.482 244.019V246.897C233.482 247.089 233.635 247.246 233.824 247.246Z" fill="#3335CF"/>
<path opacity="0.4" d="M228.15 247.246C228.338 247.246 228.492 247.089 228.492 246.897V244.019C228.492 243.827 228.338 243.67 228.15 243.67C227.963 243.67 227.809 243.827 227.809 244.019V246.897C227.809 247.089 227.963 247.246 228.15 247.246Z" fill="#3335CF"/>
<path opacity="0.4" d="M222.482 247.246C222.67 247.246 222.824 247.089 222.824 246.897V244.019C222.824 243.827 222.67 243.67 222.482 243.67C222.295 243.67 222.141 243.827 222.141 244.019V246.897C222.141 247.089 222.295 247.246 222.482 247.246Z" fill="#3335CF"/>
<path opacity="0.4" d="M216.809 247.246C216.996 247.246 217.15 247.089 217.15 246.897V244.019C217.15 243.827 216.996 243.67 216.809 243.67C216.621 243.67 216.467 243.827 216.467 244.019V246.897C216.467 247.089 216.621 247.246 216.809 247.246Z" fill="#3335CF"/>
<path opacity="0.4" d="M211.139 247.246C211.327 247.246 211.481 247.089 211.481 246.897V244.019C211.481 243.827 211.327 243.67 211.139 243.67C210.951 243.67 210.797 243.827 210.797 244.019V246.897C210.797 247.089 210.951 247.246 211.139 247.246Z" fill="#3335CF"/>
<path opacity="0.4" d="M206.066 247.246C206.254 247.246 206.408 247.089 206.408 246.897V244.019C206.408 243.827 206.254 243.67 206.066 243.67C205.879 243.67 205.725 243.827 205.725 244.019V246.897C205.725 247.089 205.879 247.246 206.066 247.246Z" fill="#3335CF"/>
</g>
<path d="M178.023 124.308C178.023 124.308 179.242 118.181 178.165 118.378C177.085 118.574 176.971 120.188 176.971 120.188C176.971 120.188 176.509 114.442 175.353 114.758C174.198 115.073 175.006 119.637 175.006 119.637C174.004 119.244 172.271 119.48 171.5 121.369C170.486 121.716 170.161 122.838 170.46 123.888L172.065 127.876L174.736 129.437L178.023 124.308Z" fill="#FFBC96"/>
<path d="M197.027 126.721C193.381 128.138 190.915 130.185 185.213 135.065L178.023 124.308L172.064 127.876L179.956 142.761C181.478 145.631 185.035 146.631 187.779 144.955L197.025 139.314V126.721H197.027Z" fill="#23406D"/>
<path d="M172.84 124.509C172.526 124.509 172.024 124.25 171.256 123.703L171.433 123.444C172.7 124.349 172.897 124.181 172.897 124.181C173.021 124.058 172.654 123.193 172.141 122.401L172.399 122.228C172.741 122.756 173.496 124.026 173.113 124.407C173.045 124.474 172.955 124.509 172.84 124.509Z" fill="#D28572"/>
<path d="M173.912 123.828C173.265 123.828 172.344 122.581 172.145 122.303L172.393 122.118C172.885 122.811 173.714 123.673 173.982 123.495C174.005 123.48 174.036 123.452 174.051 123.379C174.132 123.002 173.677 122.096 173.371 121.613L173.625 121.433C174.003 121.951 174.734 122.77 175.078 122.77C175.12 122.767 175.148 122.756 175.173 122.72C175.464 122.313 174.875 121.31 174.647 120.991L174.895 120.806C174.999 120.95 175.898 122.243 175.421 122.907C175.337 123.024 175.22 123.085 175.08 123.087C175.078 123.087 175.078 123.087 175.077 123.087C174.819 123.087 174.5 122.86 174.206 122.583C174.324 122.897 174.398 123.213 174.349 123.446C174.319 123.583 174.251 123.691 174.146 123.76C174.078 123.807 173.997 123.828 173.912 123.828Z" fill="#D28572"/>
<path d="M184.906 247.833L195.59 243.215L198.261 247.622L199.553 238.304C196.515 239.722 192.787 240.829 189.639 241.34L184.906 247.833Z" fill="#1B1B43"/>
<path d="M191.681 197.037C191.681 197.666 192.093 237.967 192.093 237.967L189.635 241.339C192.783 240.827 196.511 239.72 199.549 238.302L205.448 195.776L191.681 197.037Z" fill="#FFBC96"/>
<path d="M228.234 232.041C226.525 235.218 222.844 239.194 219.77 240.69L218.42 247.7C222.658 247.464 223.909 243.48 226.106 238.682L230.33 241.555C229.652 238.343 228.959 235.171 228.234 232.041Z" fill="#1B1B43"/>
<path d="M228.236 232.042C224.882 217.56 220.808 204.012 214.03 191.974L203.74 198.359C203.997 198.932 220.793 235.398 220.793 235.398L219.774 240.69C222.844 239.195 226.526 235.217 228.236 232.042Z" fill="#FFBC96"/>
<path d="M224.508 200.244H188.297C188.051 185.723 189.548 171.051 193.179 159.698C193.685 158.117 194.227 156.6 194.819 155.158L215.214 157.916C215.368 158.332 215.517 158.754 215.658 159.176C220.057 171.63 222.93 185.39 224.508 200.244Z" fill="#5576F3"/>
<path opacity="0.6" d="M215.655 159.176C207.199 159.931 199.568 160.196 193.178 159.698C193.683 158.117 194.226 156.6 194.817 155.158L215.213 157.916C215.366 158.332 215.514 158.754 215.655 159.176Z" fill="#1B1B43"/>
<path d="M216.513 145.334C215.742 152.047 215.107 157.884 215.205 158.091C214.725 157.948 200.609 156.856 194.627 156.399C193.136 156.285 191.983 155.02 191.975 153.492L191.877 133.943C191.698 130.807 193.615 127.955 196.531 126.952C198.688 126.209 200.974 125.737 203.396 125.536L212.87 126.82C214.91 127.097 216.808 127.846 218.442 128.961C217.954 132.998 217.183 139.498 216.513 145.334Z" fill="#23406D"/>
<path d="M215.218 158.262H215.152L215.1 158.215L215.212 158.094V157.937L215.215 158.09L215.32 157.978L215.326 157.984L215.215 158.097L215.218 158.262Z" fill="#102048"/>
<path d="M234 163.592L233.781 180.762L210.92 173.166L211.141 155.996L234 163.592Z" fill="#EBEBFF"/>
<path d="M220.888 162.221L220.773 173.19L215.193 171.337L215.341 160.174L220.888 162.221Z" fill="#C5C5FF"/>
<path d="M224.005 137.293C223.259 133.804 221.225 130.857 218.439 128.963C217.951 132.999 217.182 139.497 216.51 145.334L221.423 168.664L228.633 169.806L224.005 137.293Z" fill="#23406D"/>
<path d="M228.632 169.807L221.422 168.665L223.221 177.206C224.324 177.961 225.903 178.515 227.751 178.949C228.836 179.207 229.835 178.256 229.674 177.129L228.632 169.807Z" fill="#FFBC96"/>
<path d="M222.293 171.955C222.293 171.955 220.944 177.695 221.42 178.042C222.858 179.091 224.295 173.792 224.295 173.792L222.293 171.955Z" fill="#FFBC96"/>
<path d="M208.604 118.926V126.149C208.604 128.423 206.798 130.267 204.574 130.267C202.348 130.267 200.543 128.423 200.543 126.149V118.926H208.604Z" fill="#FFBC96"/>
<path d="M207.1 120.896C206.108 123.692 203.093 125.934 200.543 126.147V120.832L207.1 120.896Z" fill="#1B1B43"/>
<path d="M210.119 109.838C212.661 109.838 214.722 107.733 214.722 105.135C214.722 102.538 212.661 100.433 210.119 100.433C207.577 100.433 205.516 102.538 205.516 105.135C205.516 107.733 207.577 109.838 210.119 109.838Z" fill="#1B1B43"/>
<path d="M211.566 112.082C211.38 115.848 207.612 118.694 203.399 118.694C199.187 118.694 195.426 115.658 195.426 111.885C195.426 108.115 199.957 104.172 204.17 104.172C208.384 104.17 211.799 107.399 211.566 112.082Z" fill="#1B1B43"/>
<path d="M209.24 116.261C209.24 116.374 209.24 116.488 209.228 116.601C209.185 117.515 208.962 118.377 208.605 119.164C208.593 119.208 208.573 119.246 208.556 119.284C208.105 120.235 207.47 121.072 206.713 121.771C205.278 123.107 203.416 123.9 201.702 123.9C201.289 123.9 200.9 123.856 200.543 123.762C199.169 123.428 198.17 122.464 197.535 121.098C197.128 120.242 196.87 119.222 196.733 118.095C196.665 117.509 196.629 116.898 196.629 116.263C196.629 115.992 196.641 115.728 196.66 115.463C196.721 114.752 196.851 114.065 197.055 113.423C197.967 110.476 200.254 108.385 202.936 108.385C206.06 108.385 208.655 111.225 209.149 114.953C209.192 115.218 209.216 115.482 209.229 115.759C209.232 115.922 209.24 116.092 209.24 116.261Z" fill="#FFBC96"/>
<path d="M208.756 116.608C206.907 115.9 203.741 114.055 203.246 111.766C199.493 111.529 198.779 111.917 196.543 113.853L197.083 110.271L202.822 106.611L208.176 108.264L210.488 113.458L208.756 116.608Z" fill="#1B1B43"/>
<path d="M208.015 119.177C208.967 119.532 210.072 118.889 210.482 117.742C210.893 116.594 210.453 115.375 209.5 115.02C208.548 114.664 207.443 115.307 207.032 116.454C206.622 117.602 207.062 118.821 208.015 119.177Z" fill="#FFBC96"/>
<path d="M208.554 118.147C208.451 117.8 208.431 117.428 208.507 117.055C208.551 116.871 208.627 116.687 208.747 116.531C208.869 116.379 209.03 116.259 209.21 116.207L209.267 116.315C209.018 116.545 208.872 116.809 208.803 117.127C208.721 117.441 208.717 117.782 208.674 118.134L208.554 118.147Z" fill="#1B1B43"/>
<path d="M197.845 117.654C198.062 117.654 198.238 117.425 198.238 117.143C198.238 116.86 198.062 116.631 197.845 116.631C197.627 116.631 197.451 116.86 197.451 117.143C197.451 117.425 197.627 117.654 197.845 117.654Z" fill="#1B1B43"/>
<path d="M201.376 117.257C201.631 117.257 201.838 116.988 201.838 116.657C201.838 116.325 201.631 116.057 201.376 116.057C201.121 116.057 200.914 116.325 200.914 116.657C200.914 116.988 201.121 117.257 201.376 117.257Z" fill="#1B1B43"/>
<path d="M199.279 117.573C199.307 117.804 199.277 118.044 199.209 118.269C199.15 118.497 199.004 118.706 198.964 118.872C198.945 118.959 198.945 118.997 198.98 119.046C199.021 119.096 199.104 119.145 199.186 119.18C199.359 119.25 199.574 119.26 199.79 119.28L199.802 119.402C199.586 119.464 199.356 119.498 199.109 119.442C198.983 119.413 198.867 119.352 198.758 119.241C198.644 119.12 198.623 118.91 198.67 118.787C198.763 118.526 198.882 118.369 198.966 118.174C199.052 117.983 199.115 117.782 199.159 117.568L199.279 117.573Z" fill="#D28572"/>
<path d="M199.527 120.877C200.023 120.966 200.529 120.978 200.943 120.751C201.368 120.545 201.656 120.13 201.897 119.676L202.01 119.717C201.917 120.245 201.59 120.771 201.077 121.031C200.563 121.287 199.958 121.232 199.488 120.995L199.527 120.877Z" fill="#1B1B43"/>
<path d="M198.309 115.476C198.396 115.712 197.99 115.934 197.537 116.091C197.084 116.248 196.747 116.282 196.667 116.044C196.586 115.807 196.911 115.542 197.343 115.328C197.799 115.104 198.098 114.902 198.309 115.476Z" fill="#1B1B43"/>
<path d="M200.254 115.106C200.235 115.363 200.886 115.464 201.577 115.485C202.267 115.507 202.745 115.443 202.753 115.185C202.76 114.928 202.204 114.762 201.517 114.68C200.797 114.593 200.301 114.48 200.254 115.106Z" fill="#1B1B43"/>
<path opacity="0.2" d="M204.584 119.948C205.519 119.948 206.277 119.174 206.277 118.218C206.277 117.263 205.519 116.488 204.584 116.488C203.649 116.488 202.891 117.263 202.891 118.218C202.891 119.174 203.649 119.948 204.584 119.948Z" fill="#FE5B52"/>
<path opacity="0.2" d="M198.11 119.795C198.11 120.312 197.888 120.778 197.531 121.099C197.124 120.243 196.866 119.223 196.729 118.096C197.519 118.246 198.11 118.945 198.11 119.795Z" fill="#FE5B52"/>
<path d="M192.348 136.156L192.039 136.152L191.94 145.073L192.249 145.076L192.348 136.156Z" fill="#1B1B43"/>
<path d="M216.511 145.334L215.517 141.728C214.697 144.906 214.857 147.35 216.127 148.622L216.511 145.334Z" fill="#1B1B43"/>
<path d="M204.518 133.314C204.342 133.314 204.163 133.306 203.984 133.291C202.21 133.139 200.673 132.219 199.973 130.89L200.244 130.74C200.895 131.977 202.338 132.834 204.009 132.977C206.069 133.151 208.006 132.254 209.334 130.509L209.577 130.702C208.299 132.38 206.478 133.314 204.518 133.314Z" fill="#1B3151"/>
<path d="M51.2155 205.488H0.46875V213.797H51.2155V205.488Z" fill="#D1D1FF"/>
<g opacity="0.4">
<path opacity="0.4" d="M3.78351 212.483C3.48504 212.483 3.24023 212.233 3.24023 211.928V207.354C3.24023 207.049 3.48504 206.799 3.78351 206.799C4.08197 206.799 4.32678 207.049 4.32678 207.354V211.928C4.32678 212.234 4.08197 212.483 3.78351 212.483Z" fill="#3335CF"/>
<path opacity="0.4" d="M12.7972 212.483C12.4987 212.483 12.2539 212.233 12.2539 211.928V207.354C12.2539 207.049 12.4987 206.799 12.7972 206.799C13.0956 206.799 13.3405 207.049 13.3405 207.354V211.928C13.3405 212.235 13.0973 212.483 12.7972 212.483Z" fill="#3335CF"/>
<path opacity="0.4" d="M21.8128 212.483C21.5143 212.483 21.2695 212.233 21.2695 211.928V207.354C21.2695 207.049 21.5143 206.799 21.8128 206.799C22.1113 206.799 22.3561 207.049 22.3561 207.354V211.928C22.3561 212.235 22.1113 212.483 21.8128 212.483Z" fill="#3335CF"/>
<path opacity="0.4" d="M30.8265 212.483C30.528 212.483 30.2832 212.233 30.2832 211.928V207.354C30.2832 207.049 30.528 206.799 30.8265 206.799C31.1249 206.799 31.3698 207.049 31.3698 207.354V211.928C31.3698 212.235 31.1249 212.483 30.8265 212.483Z" fill="#3335CF"/>
<path opacity="0.4" d="M39.8382 212.483C39.5397 212.483 39.2949 212.233 39.2949 211.928V207.354C39.2949 207.049 39.5397 206.799 39.8382 206.799C40.1367 206.799 40.3815 207.049 40.3815 207.354V211.928C40.3815 212.235 40.1367 212.483 39.8382 212.483Z" fill="#3335CF"/>
<path opacity="0.4" d="M47.8988 212.483C47.6003 212.483 47.3555 212.233 47.3555 211.928V207.354C47.3555 207.049 47.6003 206.799 47.8988 206.799C48.1973 206.799 48.4421 207.049 48.4421 207.354V211.928C48.4421 212.235 48.1973 212.483 47.8988 212.483Z" fill="#3335CF"/>
</g>
<path d="M51.2155 213.802H0.46875V222.11H51.2155V213.802Z" fill="#D1D1FF"/>
<g opacity="0.4">
<path opacity="0.4" d="M3.78351 220.796C3.48504 220.796 3.24023 220.546 3.24023 220.241V215.667C3.24023 215.362 3.48504 215.112 3.78351 215.112C4.08197 215.112 4.32678 215.362 4.32678 215.667V220.241C4.32678 220.548 4.08197 220.796 3.78351 220.796Z" fill="#3335CF"/>
<path opacity="0.4" d="M12.7972 220.796C12.4987 220.796 12.2539 220.546 12.2539 220.241V215.667C12.2539 215.362 12.4987 215.112 12.7972 215.112C13.0956 215.112 13.3405 215.362 13.3405 215.667V220.241C13.3405 220.548 13.0973 220.796 12.7972 220.796Z" fill="#3335CF"/>
<path opacity="0.4" d="M21.8128 220.796C21.5143 220.796 21.2695 220.546 21.2695 220.241V215.667C21.2695 215.362 21.5143 215.112 21.8128 215.112C22.1113 215.112 22.3561 215.362 22.3561 215.667V220.241C22.3561 220.548 22.1113 220.796 21.8128 220.796Z" fill="#3335CF"/>
<path opacity="0.4" d="M30.8265 220.796C30.528 220.796 30.2832 220.546 30.2832 220.241V215.667C30.2832 215.362 30.528 215.112 30.8265 215.112C31.1249 215.112 31.3698 215.362 31.3698 215.667V220.241C31.3698 220.548 31.1249 220.796 30.8265 220.796Z" fill="#3335CF"/>
<path opacity="0.4" d="M39.8382 220.796C39.5397 220.796 39.2949 220.546 39.2949 220.241V215.667C39.2949 215.362 39.5397 215.112 39.8382 215.112C40.1367 215.112 40.3815 215.362 40.3815 215.667V220.241C40.3815 220.548 40.1367 220.796 39.8382 220.796Z" fill="#3335CF"/>
<path opacity="0.4" d="M47.8988 220.796C47.6003 220.796 47.3555 220.546 47.3555 220.241V215.667C47.3555 215.362 47.6003 215.112 47.8988 215.112C48.1973 215.112 48.4421 215.362 48.4421 215.667V220.241C48.4421 220.548 48.1973 220.796 47.8988 220.796Z" fill="#3335CF"/>
</g>
<path opacity="0.15" d="M51.2155 213.802H0.46875V216.769H51.2155V213.802Z" fill="#1B1B43"/>
<path d="M55.6061 222.115H4.85938V230.424H55.6061V222.115Z" fill="#D1D1FF"/>
<g opacity="0.4">
<path opacity="0.4" d="M8.17609 229.112C7.87763 229.112 7.63281 228.862 7.63281 228.557V223.983C7.63281 223.678 7.87763 223.428 8.17609 223.428C8.47455 223.428 8.71936 223.678 8.71936 223.983V228.557C8.71936 228.862 8.47455 229.112 8.17609 229.112Z" fill="#3335CF"/>
<path opacity="0.4" d="M17.1878 229.112C16.8893 229.112 16.6445 228.862 16.6445 228.557V223.983C16.6445 223.678 16.8893 223.428 17.1878 223.428C17.4863 223.428 17.7311 223.678 17.7311 223.983V228.557C17.7311 228.862 17.4863 229.112 17.1878 229.112Z" fill="#3335CF"/>
<path opacity="0.4" d="M26.2015 229.112C25.903 229.112 25.6582 228.862 25.6582 228.557V223.983C25.6582 223.678 25.903 223.428 26.2015 223.428C26.4999 223.428 26.7448 223.678 26.7448 223.983V228.557C26.7448 228.862 26.4999 229.112 26.2015 229.112Z" fill="#3335CF"/>
<path opacity="0.4" d="M35.2152 229.112C34.9167 229.112 34.6719 228.862 34.6719 228.557V223.983C34.6719 223.678 34.9167 223.428 35.2152 223.428C35.5136 223.428 35.7584 223.678 35.7584 223.983V228.557C35.7584 228.862 35.5153 229.112 35.2152 229.112Z" fill="#3335CF"/>
<path opacity="0.4" d="M44.2288 229.112C43.9304 229.112 43.6855 228.862 43.6855 228.557V223.983C43.6855 223.678 43.9304 223.428 44.2288 223.428C44.5273 223.428 44.7721 223.678 44.7721 223.983V228.557C44.7721 228.862 44.5273 229.112 44.2288 229.112Z" fill="#3335CF"/>
<path opacity="0.4" d="M52.2894 229.112C51.9909 229.112 51.7461 228.862 51.7461 228.557V223.983C51.7461 223.678 51.9909 223.428 52.2894 223.428C52.5878 223.428 52.8326 223.678 52.8326 223.983V228.557C52.8326 228.862 52.5895 229.112 52.2894 229.112Z" fill="#3335CF"/>
</g>
<path d="M55.6061 230.43H4.85938V238.738H55.6061V230.43Z" fill="#D1D1FF"/>
<g opacity="0.4">
<path opacity="0.4" d="M8.17609 237.426C7.87763 237.426 7.63281 237.176 7.63281 236.871V232.297C7.63281 231.992 7.87763 231.742 8.17609 231.742C8.47455 231.742 8.71936 231.992 8.71936 232.297V236.871C8.71936 237.176 8.47455 237.426 8.17609 237.426Z" fill="#3335CF"/>
<path opacity="0.4" d="M17.1878 237.426C16.8893 237.426 16.6445 237.176 16.6445 236.871V232.297C16.6445 231.992 16.8893 231.742 17.1878 231.742C17.4863 231.742 17.7311 231.992 17.7311 232.297V236.871C17.7311 237.176 17.4863 237.426 17.1878 237.426Z" fill="#3335CF"/>
<path opacity="0.4" d="M26.2015 237.426C25.903 237.426 25.6582 237.176 25.6582 236.871V232.297C25.6582 231.992 25.903 231.742 26.2015 231.742C26.4999 231.742 26.7448 231.992 26.7448 232.297V236.871C26.7448 237.176 26.4999 237.426 26.2015 237.426Z" fill="#3335CF"/>
<path opacity="0.4" d="M35.2152 237.426C34.9167 237.426 34.6719 237.176 34.6719 236.871V232.297C34.6719 231.992 34.9167 231.742 35.2152 231.742C35.5136 231.742 35.7584 231.992 35.7584 232.297V236.871C35.7584 237.176 35.5153 237.426 35.2152 237.426Z" fill="#3335CF"/>
<path opacity="0.4" d="M44.2288 237.426C43.9304 237.426 43.6855 237.176 43.6855 236.871V232.297C43.6855 231.992 43.9304 231.742 44.2288 231.742C44.5273 231.742 44.7721 231.992 44.7721 232.297V236.871C44.7721 237.176 44.5273 237.426 44.2288 237.426Z" fill="#3335CF"/>
<path opacity="0.4" d="M52.2894 237.426C51.9909 237.426 51.7461 237.176 51.7461 236.871V232.297C51.7461 231.992 51.9909 231.742 52.2894 231.742C52.5878 231.742 52.8326 231.992 52.8326 232.297V236.871C52.8326 237.176 52.5895 237.426 52.2894 237.426Z" fill="#3335CF"/>
</g>
<path opacity="0.15" d="M55.6061 230.43H4.85938V233.847H55.6061V230.43Z" fill="#1B1B43"/>
<path d="M51.6803 238.743H0.933594V247.052H51.6803V238.743Z" fill="#D1D1FF"/>
<g opacity="0.4">
<path opacity="0.4" d="M4.25226 245.739C3.95379 245.739 3.70898 245.489 3.70898 245.184V240.61C3.70898 240.305 3.95379 240.055 4.25226 240.055C4.55072 240.055 4.79553 240.305 4.79553 240.61V245.184C4.79553 245.489 4.55072 245.739 4.25226 245.739Z" fill="#3335CF"/>
<path opacity="0.4" d="M13.264 245.739C12.9655 245.739 12.7207 245.489 12.7207 245.184V240.61C12.7207 240.305 12.9655 240.055 13.264 240.055C13.5624 240.055 13.8073 240.305 13.8073 240.61V245.184C13.8073 245.489 13.5624 245.739 13.264 245.739Z" fill="#3335CF"/>
<path opacity="0.4" d="M22.2737 245.739C21.9753 245.739 21.7305 245.489 21.7305 245.184V240.61C21.7305 240.305 21.9753 240.055 22.2737 240.055C22.5722 240.055 22.817 240.305 22.817 240.61V245.184C22.817 245.489 22.5722 245.739 22.2737 245.739Z" fill="#3335CF"/>
<path opacity="0.4" d="M31.2894 245.739C30.9909 245.739 30.7461 245.489 30.7461 245.184V240.61C30.7461 240.305 30.9909 240.055 31.2894 240.055C31.5878 240.055 31.8326 240.305 31.8326 240.61V245.184C31.8326 245.489 31.5895 245.739 31.2894 245.739Z" fill="#3335CF"/>
<path opacity="0.4" d="M40.305 245.739C40.0065 245.739 39.7617 245.489 39.7617 245.184V240.61C39.7617 240.305 40.0065 240.055 40.305 240.055C40.6035 240.055 40.8483 240.305 40.8483 240.61V245.184C40.8483 245.489 40.6035 245.739 40.305 245.739Z" fill="#3335CF"/>
<path opacity="0.4" d="M48.3655 245.739C48.0671 245.739 47.8223 245.489 47.8223 245.184V240.61C47.8223 240.305 48.0671 240.055 48.3655 240.055C48.664 240.055 48.9088 240.305 48.9088 240.61V245.184C48.9088 245.489 48.664 245.739 48.3655 245.739Z" fill="#3335CF"/>
</g>
<path d="M63.3457 149.422L65.3981 145.162C65.3981 145.162 65.7787 140.49 66.7312 140.166C67.5142 139.899 67.7473 143.085 67.7473 143.085C67.7473 143.085 70.4151 137.506 71.1127 138.155C71.8119 138.804 70.1602 143.151 70.1602 143.151L71.9762 143.992C73.2556 144.584 73.8928 146.066 73.4552 147.43L73.0611 148.656C72.9085 149.131 72.6419 149.561 72.2864 149.905L68.6796 153.403L64.0013 154.053L63.3457 149.422Z" fill="#FFBC96"/>
<path d="M38.9862 144.345L53.4586 156.386L64.0325 147.709L69.9265 154.969L57.2918 166.072C54.8554 168.213 51.3425 168.496 48.606 166.773L36.9941 159.456L38.9862 144.345Z" fill="#5576F3"/>
<path d="M69.3216 146.962C69.2595 146.962 69.2009 146.95 69.1489 146.921C68.7951 146.731 68.8236 146.051 69.2445 144.647L69.5764 144.75C69.0667 146.451 69.3082 146.606 69.3115 146.607C69.4842 146.695 70.2622 145.999 70.9145 145.165L71.1862 145.386C70.7921 145.888 69.8866 146.962 69.3216 146.962Z" fill="#D28572"/>
<path d="M71.7623 148.967C71.6801 148.967 71.5996 148.955 71.5208 148.928C71.3699 148.877 71.2642 148.769 71.2156 148.616C71.1251 148.334 71.2525 147.907 71.442 147.487C71.1553 147.725 70.8484 147.916 70.5868 147.943C70.4309 147.957 70.2951 147.919 70.1877 147.828C69.5371 147.283 70.7662 145.486 71.0194 145.132L71.2995 145.341C70.7444 146.119 70.1257 147.319 70.4074 147.556C70.4309 147.575 70.4661 147.6 70.5516 147.592C70.9758 147.549 71.7673 146.739 72.1664 146.238L72.4414 146.453C72.0289 147.047 71.4219 148.13 71.5426 148.507C71.5577 148.551 71.5812 148.577 71.6281 148.592C72.1563 148.774 73.0031 147.78 73.258 147.419L73.5397 147.626C73.434 147.775 72.5655 148.967 71.7623 148.967Z" fill="#D28572"/>
<path d="M76.8594 232.886L78.4188 246.875H97.8328L89.8596 239.967L86.9135 232.354L76.8594 232.886Z" fill="#A7A7CC"/>
<path d="M47.5078 184.955L69.5644 187.297C75.6982 187.948 80.804 192.393 82.407 198.478L91.9966 234.892L86.7382 235.01L67.9614 208.212L47.5078 184.955Z" fill="#1B3151"/>
<path d="M57.2148 181.532L63.6286 180.292L68.7697 184.248L57.8504 184.424L57.2148 181.532Z" fill="#FFBC96"/>
<path d="M46.2713 139.471L45.8051 141.448L44.4671 147.156L44.2742 147.971L34.3945 145.762L36.4738 135.93L39.767 135.221L46.2713 139.471Z" fill="#FFBC96"/>
<path d="M45.8061 141.448L44.468 147.157L44.4479 147.178C41.9595 144.685 40.2525 142.092 39.3789 139.387L45.8061 141.448Z" fill="#1B1B43"/>
<path d="M50.3912 134.842C50.3912 134.842 52.1635 137.384 51.6353 138.309C51.1071 139.234 49.1855 138.232 49.1855 138.232L50.3912 134.842Z" fill="#FFBC96"/>
<path d="M52.074 129.736C52.074 129.736 50.6001 142.663 46.7871 142.752C42.974 142.841 38.1214 139.033 38.1214 139.033L37.6016 131.418L44.6207 126.371L52.074 129.736Z" fill="#FFBC96"/>
<path d="M44.1007 133.542C44.5115 131.81 45.3197 130.261 47.4811 129.336C50.5748 132.031 53.7758 131.083 57.0573 127.344C57.0573 127.344 52.4209 127.698 49.1713 123.359C45.9217 119.02 39.0753 124.024 39.0753 124.024C33.0958 124.466 32.9214 132.303 35.9983 138.102C36.9005 136.353 40.2021 134.648 42.5848 134.561L44.1007 133.542Z" fill="#1B1B43"/>
<path d="M43.9266 136.124C44.9656 135.903 45.5878 134.645 45.3164 133.313C45.045 131.981 43.9828 131.08 42.9438 131.301C41.9048 131.522 41.2825 132.781 41.5539 134.113C41.8253 135.445 42.8876 136.345 43.9266 136.124Z" fill="#FFBC96"/>
<path d="M43.4772 134.442C43.6432 133.746 43.3917 133.049 42.7461 132.77L42.7679 132.633C42.9691 132.619 43.1754 132.689 43.3481 132.812C43.5191 132.939 43.6499 133.119 43.7304 133.314C43.883 133.708 43.8478 134.183 43.5962 134.503L43.4772 134.442Z" fill="#1B1B43"/>
<path d="M49.3955 134.997C49.6752 135.078 49.9793 134.866 50.0746 134.523C50.17 134.179 50.0206 133.836 49.7408 133.754C49.4611 133.673 49.1571 133.886 49.0617 134.229C48.9663 134.572 49.1157 134.916 49.3955 134.997Z" fill="#1B1B43"/>
<path d="M46.959 137.954C47.1669 140.411 48.4329 140.817 49.0684 139.158L46.959 137.954Z" fill="white"/>
<path d="M51.4855 133.209C51.4402 133.62 50.8986 133.41 50.2212 133.331C49.5438 133.252 49.0038 133.182 49.0323 132.925C49.0608 132.668 49.6343 132.524 50.3117 132.603C50.9875 132.68 51.5291 132.815 51.4855 133.209Z" fill="#1B1B43"/>
<path opacity="0.2" d="M46.1654 137.298C46.9267 137.298 47.5438 136.667 47.5438 135.89C47.5438 135.112 46.9267 134.481 46.1654 134.481C45.4042 134.481 44.7871 135.112 44.7871 135.89C44.7871 136.667 45.4042 137.298 46.1654 137.298Z" fill="#FE5B52"/>
<path d="M72.1777 232.886L73.7372 246.875H93.1511L85.1779 239.968L82.2318 232.354L72.1777 232.886Z" fill="#D1D1FF"/>
<path d="M21.2188 183.125L23.5059 196.397C24.4047 201.616 28.6419 205.558 33.8132 205.987L61.4318 208.27L69.9248 235.01H86.738L75.5119 198.221C74.1972 193.911 70.7581 190.629 66.4605 189.579L47.5076 184.953L30.0588 179.05L21.2188 183.125Z" fill="#23406D"/>
<path d="M61.4297 208.006L65.6183 208.271C65.6183 208.271 65.1857 211.783 63.192 213.613L61.4297 208.006Z" fill="#BE443D"/>
<path d="M85.3764 240.279L84.9941 239.687L81.8824 241.783L82.2646 242.375L85.3764 240.279Z" fill="#102048"/>
<path d="M48.5643 160.281L47.7108 180.277L47.5096 184.909V184.952H47.2815L36.493 184.909L21.5996 184.846C19.9211 184.839 18.6534 183.28 18.9519 181.587C21.1016 169.539 23.979 157.83 29.1502 147.176C30.495 144.413 33.6357 143.012 36.6103 143.798L40.1115 144.72C41.4211 145.067 42.677 145.626 43.7384 146.476C45.6869 148.041 46.7399 150.13 47.5096 153.085C48.1283 155.437 48.4469 157.852 48.5643 160.281Z" fill="#5576F3"/>
<path d="M72.6888 184.325H55.7129V186.845H72.6888V184.325Z" fill="#1B1B43"/>
<path d="M50.975 184.245L47.5091 184.911L47.281 184.954L36.4925 184.911C32.0406 180.257 30.565 170.737 30.0586 158.865L47.7103 180.277L50.975 184.245Z" fill="#1B1B43"/>
<path d="M38.9557 150.366L45.8893 171.97L59.6978 180.292L57.2714 188.615L42.7117 183.833C38.9171 182.704 35.9475 178.497 34.7889 174.637L30.0586 158.865L38.9557 150.366Z" fill="#5576F3"/>
<path d="M72.6881 186.845H70.2617L83.6661 159.22H86.0924L72.6881 186.845Z" fill="#1B1B43"/>
<path d="M59.6102 180.445L45.7447 172.088L45.7246 172.023L38.791 150.421L39.1214 150.31L46.0348 171.85L59.7863 180.14L59.6102 180.445Z" fill="#4766EA"/>
<path d="M230.177 100.146C224.877 100.146 220.579 104.536 220.579 109.951C220.579 111.796 221.078 113.521 221.946 114.995L219 118.657L224.517 117.868C226.104 119.054 228.059 119.756 230.175 119.756C235.476 119.756 239.772 115.366 239.772 109.951C239.772 104.537 235.478 100.146 230.177 100.146Z" fill="#9192FF"/>
<path d="M224.946 111.251C225.649 111.251 226.219 110.669 226.219 109.951C226.219 109.233 225.649 108.651 224.946 108.651C224.243 108.651 223.674 109.233 223.674 109.951C223.674 110.669 224.243 111.251 224.946 111.251Z" fill="white"/>
<path d="M230.179 111.251C230.881 111.251 231.451 110.669 231.451 109.951C231.451 109.233 230.881 108.651 230.179 108.651C229.476 108.651 228.906 109.233 228.906 109.951C228.906 110.669 229.476 111.251 230.179 111.251Z" fill="white"/>
<path d="M235.413 111.251C236.116 111.251 236.685 110.669 236.685 109.951C236.685 109.233 236.116 108.651 235.413 108.651C234.71 108.651 234.141 109.233 234.141 109.951C234.141 110.669 234.71 111.251 235.413 111.251Z" fill="white"/>
<path d="M13.1691 150.076C18.4697 150.076 22.767 154.466 22.767 159.882C22.767 161.726 22.268 163.452 21.4007 164.925L24.3465 168.588L18.8295 167.799C17.2427 168.985 15.2876 169.687 13.1712 169.687C7.87048 169.687 3.57422 165.296 3.57422 159.882C3.57106 154.466 7.86837 150.076 13.1691 150.076Z" fill="#9192FF"/>
<path d="M18.4013 161.182C19.104 161.182 19.6737 160.6 19.6737 159.882C19.6737 159.164 19.104 158.582 18.4013 158.582C17.6986 158.582 17.1289 159.164 17.1289 159.882C17.1289 160.6 17.6986 161.182 18.4013 161.182Z" fill="white"/>
<path d="M13.1669 161.182C13.8697 161.182 14.4393 160.6 14.4393 159.882C14.4393 159.164 13.8697 158.582 13.1669 158.582C12.4642 158.582 11.8945 159.164 11.8945 159.882C11.8945 160.6 12.4642 161.182 13.1669 161.182Z" fill="white"/>
<path d="M7.93259 161.182C8.63533 161.182 9.20502 160.6 9.20502 159.882C9.20502 159.164 8.63533 158.582 7.93259 158.582C7.22984 158.582 6.66016 159.164 6.66016 159.882C6.66016 160.6 7.22984 161.182 7.93259 161.182Z" fill="white"/>
<defs>
<clipPath id="clip0_1284_23905">
<rect width="221.676" height="231.486" fill="white" transform="translate(17.1172 0.0869141)"/>
</clipPath>
</defs>
</svg>
