<svg width="75" height="75" viewBox="0 0 61 61" fill="none" xmlns="http://www.w3.org/2000/svg">
<path d="M5.35156 6.09374C5.35156 5.89759 5.42948 5.70947 5.56818 5.57078C5.70688 5.43208 5.895 5.35416 6.09115 5.35416H46.0286C46.2248 5.35416 46.4129 5.43208 46.5516 5.57078C46.6903 5.70947 46.7682 5.89759 46.7682 6.09374V35.6771C46.7682 36.2655 47.002 36.8299 47.4181 37.246C47.8342 37.6621 48.3985 37.8958 48.987 37.8958C49.5754 37.8958 50.1398 37.6621 50.5559 37.246C50.972 36.8299 51.2057 36.2655 51.2057 35.6771V6.09374C51.2057 4.72069 50.6603 3.40388 49.6894 2.43299C48.7185 1.4621 47.4017 0.916656 46.0286 0.916656H6.09115C4.7181 0.916656 3.40129 1.4621 2.4304 2.43299C1.4595 3.40388 0.914063 4.72069 0.914062 6.09374V54.9062C0.914062 57.764 3.2334 60.0833 6.09115 60.0833H26.7995C27.3879 60.0833 27.9523 59.8496 28.3684 59.4335C28.7845 59.0174 29.0182 58.453 29.0182 57.8646C29.0182 57.2761 28.7845 56.7118 28.3684 56.2957C27.9523 55.8796 27.3879 55.6458 26.7995 55.6458H6.09115C5.895 55.6458 5.70688 55.5679 5.56818 55.4292C5.42948 55.2905 5.35156 55.1024 5.35156 54.9062V6.09374Z" fill="#1DA1F2"/>
<path d="M13.4922 15.7083C12.9037 15.7083 12.3394 15.9421 11.9233 16.3582C11.5072 16.7743 11.2734 17.3386 11.2734 17.9271C11.2734 18.5155 11.5072 19.0799 11.9233 19.496C12.3394 19.9121 12.9037 20.1458 13.4922 20.1458H38.638C39.2265 20.1458 39.7908 19.9121 40.2069 19.496C40.623 19.0799 40.8568 18.5155 40.8568 17.9271C40.8568 17.3386 40.623 16.7743 40.2069 16.3582C39.7908 15.9421 39.2265 15.7083 38.638 15.7083H13.4922ZM11.2734 29.7604C11.2734 29.172 11.5072 28.6076 11.9233 28.1915C12.3394 27.7754 12.9037 27.5417 13.4922 27.5417H26.8047C27.3931 27.5417 27.9575 27.7754 28.3736 28.1915C28.7897 28.6076 29.0234 29.172 29.0234 29.7604C29.0234 30.3489 28.7897 30.9132 28.3736 31.3293C27.9575 31.7454 27.3931 31.9792 26.8047 31.9792H13.4922C12.9037 31.9792 12.3394 31.7454 11.9233 31.3293C11.5072 30.9132 11.2734 30.3489 11.2734 29.7604ZM59.4351 43.1617C59.6531 42.9586 59.8279 42.7136 59.9492 42.4414C60.0705 42.1693 60.1357 41.8755 60.1409 41.5776C60.1462 41.2796 60.0914 40.9837 59.9798 40.7075C59.8682 40.4312 59.7021 40.1802 59.4914 39.9695C59.2807 39.7588 59.0298 39.5927 58.7535 39.4811C58.4772 39.3696 58.1813 39.3148 57.8834 39.32C57.5855 39.3253 57.2917 39.3905 57.0195 39.5117C56.7473 39.633 56.5024 39.8079 56.2993 40.0258L41.5964 54.7288L35.7684 48.9008C35.5653 48.6829 35.3204 48.508 35.0482 48.3867C34.776 48.2655 34.4822 48.2003 34.1843 48.195C33.8864 48.1898 33.5905 48.2446 33.3142 48.3561C33.0379 48.4677 32.787 48.6338 32.5763 48.8445C32.3656 49.0552 32.1995 49.3062 32.0879 49.5825C31.9763 49.8587 31.9215 50.1546 31.9268 50.4526C31.932 50.7505 31.9972 51.0443 32.1185 51.3164C32.2398 51.5886 32.4146 51.8336 32.6326 52.0367L40.0284 59.4325C40.4445 59.848 41.0084 60.0814 41.5964 60.0814C42.1843 60.0814 42.7483 59.848 43.1643 59.4325L59.4351 43.1617Z" fill="#1DA1F2"/>
<path d="M19.1875 49L18.2891 39.5156H18.2422C18.1953 40.1302 18.0521 41.0156 17.8125 42.1719L16.375 49H14.6641L17.0781 37.5781H19.6016L20.4531 46.5547H20.5L25.2344 37.5781H27.9219L25.5391 49H23.7656L25.1875 42.1875C25.3906 41.2188 25.6146 40.3281 25.8594 39.5156H25.8125L20.7891 49H19.1875Z" fill="#1DA1F2"/>
</svg>
