<svg width="75" height="75" viewBox="0 0 101 40" fill="none" xmlns="http://www.w3.org/2000/svg">
<path d="M30.8711 16.4297C29.9596 16.4297 29.2539 16.7734 28.7539 17.4609C28.2539 18.1432 28.0039 19.0964 28.0039 20.3203C28.0039 22.8672 28.9596 24.1406 30.8711 24.1406C31.6732 24.1406 32.6445 23.9401 33.7852 23.5391V25.5703C32.8477 25.9609 31.8008 26.1562 30.6445 26.1562C28.9831 26.1562 27.7122 25.6536 26.832 24.6484C25.9518 23.638 25.5117 22.1901 25.5117 20.3047C25.5117 19.1172 25.7279 18.0781 26.1602 17.1875C26.5924 16.2917 27.2122 15.6068 28.0195 15.1328C28.832 14.6536 29.7826 14.4141 30.8711 14.4141C31.9805 14.4141 33.0951 14.6823 34.2148 15.2188L33.4336 17.1875C33.0065 16.9844 32.5768 16.8073 32.1445 16.6562C31.7122 16.5052 31.2878 16.4297 30.8711 16.4297ZM36.2227 26V14.5781H38.6445V24H43.2773V26H36.2227ZM55.6367 20.2734C55.6367 22.1641 55.168 23.6172 54.2305 24.6328C53.293 25.6484 51.9492 26.1562 50.1992 26.1562C48.4492 26.1562 47.1055 25.6484 46.168 24.6328C45.2305 23.6172 44.7617 22.1589 44.7617 20.2578C44.7617 18.3568 45.2305 16.9062 46.168 15.9062C47.1107 14.901 48.4596 14.3984 50.2148 14.3984C51.9701 14.3984 53.3112 14.9036 54.2383 15.9141C55.1706 16.9245 55.6367 18.3776 55.6367 20.2734ZM47.3008 20.2734C47.3008 21.5495 47.543 22.5104 48.0273 23.1562C48.5117 23.8021 49.2357 24.125 50.1992 24.125C52.1315 24.125 53.0977 22.8411 53.0977 20.2734C53.0977 17.7005 52.1367 16.4141 50.2148 16.4141C49.2513 16.4141 48.5247 16.7396 48.0352 17.3906C47.5456 18.0365 47.3008 18.9974 47.3008 20.2734ZM64.7461 22.8281C64.7461 23.8594 64.3737 24.6719 63.6289 25.2656C62.8893 25.8594 61.8581 26.1562 60.5352 26.1562C59.3164 26.1562 58.2383 25.9271 57.3008 25.4688V23.2188C58.0716 23.5625 58.7227 23.8047 59.2539 23.9453C59.7904 24.0859 60.2799 24.1562 60.7227 24.1562C61.2539 24.1562 61.6602 24.0547 61.9414 23.8516C62.2279 23.6484 62.3711 23.3464 62.3711 22.9453C62.3711 22.7214 62.3086 22.5234 62.1836 22.3516C62.0586 22.1745 61.8737 22.0052 61.6289 21.8438C61.3893 21.6823 60.8971 21.4245 60.1523 21.0703C59.4544 20.7422 58.931 20.4271 58.582 20.125C58.2331 19.8229 57.9544 19.4714 57.7461 19.0703C57.5378 18.6693 57.4336 18.2005 57.4336 17.6641C57.4336 16.6536 57.7747 15.8594 58.457 15.2812C59.1445 14.7031 60.0924 14.4141 61.3008 14.4141C61.8945 14.4141 62.4596 14.4844 62.9961 14.625C63.5378 14.7656 64.1029 14.9635 64.6914 15.2188L63.9102 17.1016C63.3008 16.8516 62.7956 16.6771 62.3945 16.5781C61.9987 16.4792 61.6081 16.4297 61.2227 16.4297C60.7643 16.4297 60.4128 16.5365 60.168 16.75C59.9232 16.9635 59.8008 17.2422 59.8008 17.5859C59.8008 17.7995 59.8503 17.987 59.9492 18.1484C60.0482 18.3047 60.2044 18.4583 60.418 18.6094C60.6367 18.7552 61.1497 19.0208 61.957 19.4062C63.0247 19.9167 63.7565 20.4297 64.1523 20.9453C64.5482 21.4557 64.7461 22.0833 64.7461 22.8281ZM73.3945 26H66.8164V14.5781H73.3945V16.5625H69.2383V19.0703H73.1055V21.0547H69.2383V24H73.3945V26Z" fill="#1DA1F2"/>
<path fill-rule="evenodd" clip-rule="evenodd" d="M80.9845 9.64537L89.555 19.5096C89.7157 19.6998 89.796 19.9199 89.796 20.1659C89.7942 20.4194 89.7079 20.6625 89.555 20.8452L80.6052 30.897C80.1527 31.3277 79.7498 31.3277 79.3978 30.897C79.0445 30.4663 79.0445 30.0233 79.3978 29.5654L87.7627 20.1659L79.7829 10.9769C79.5029 10.5109 79.5289 10.0883 79.8609 9.70651C80.1929 9.32607 80.5674 9.30569 80.9845 9.64537V9.64537ZM91.6179 9.64537L100.188 19.5096C100.349 19.6998 100.429 19.9199 100.429 20.1659C100.428 20.4194 100.341 20.6625 100.188 20.8452L91.2386 30.897C90.7861 31.3277 90.3832 31.3277 90.0312 30.897C89.6779 30.4663 89.6779 30.0233 90.0312 29.5654L98.3961 20.1659L90.4163 10.9769C90.1363 10.5109 90.1623 10.0883 90.4943 9.70651C90.8263 9.32607 91.2008 9.30569 91.6179 9.64537V9.64537Z" fill="#1DA1F2"/>
<path d="M8.73859 10.5113C8.8972 10.3537 9.11105 10.2643 9.33461 10.2621C9.55816 10.2599 9.77374 10.3451 9.93543 10.4995C10.0146 10.5745 10.0779 10.6647 10.1216 10.7646C10.1653 10.8645 10.1885 10.9722 10.1898 11.0813C10.1912 11.1904 10.1706 11.2986 10.1293 11.3996C10.088 11.5006 10.0269 11.5922 9.94961 11.6691L2.03364 19.5934L10.3868 27.7551C10.465 27.8311 10.5272 27.922 10.5697 28.0225C10.6122 28.1229 10.634 28.2309 10.634 28.34C10.634 28.449 10.6122 28.557 10.5697 28.6574C10.5272 28.7579 10.465 28.8488 10.3868 28.9248C10.2265 29.0801 10.0121 29.167 9.78893 29.167C9.56575 29.167 9.35134 29.0801 9.19109 28.9248L0.247225 20.1877C0.169498 20.1122 0.107601 20.0219 0.0651539 19.9222C0.0227066 19.8226 0.000560536 19.7154 1.05038e-05 19.607C-0.000539528 19.4987 0.0205175 19.3913 0.0619505 19.2912C0.103383 19.1911 0.164361 19.1002 0.241318 19.0239L8.73859 10.5113ZM19.372 10.5113C19.5305 10.3541 19.7442 10.2649 19.9674 10.2627C20.1907 10.2605 20.406 10.3454 20.5677 10.4995C20.6468 10.5745 20.7101 10.6647 20.7538 10.7646C20.7975 10.8645 20.8207 10.9722 20.822 11.0813C20.8234 11.1904 20.8028 11.2986 20.7615 11.3996C20.7203 11.5006 20.6592 11.5922 20.5818 11.6691L12.6659 19.5934L21.019 27.7551C21.0972 27.8311 21.1594 27.922 21.2019 28.0225C21.2444 28.1229 21.2663 28.2309 21.2663 28.34C21.2663 28.449 21.2444 28.557 21.2019 28.6574C21.1594 28.7579 21.0972 28.8488 21.019 28.9248C20.8587 29.0801 20.6443 29.167 20.4211 29.167C20.198 29.167 19.9836 29.0801 19.8233 28.9248L10.8806 20.1877C10.8029 20.1122 10.741 20.0219 10.6986 19.9222C10.6561 19.8226 10.634 19.7154 10.6334 19.607C10.6329 19.4987 10.6539 19.3913 10.6954 19.2912C10.7368 19.1911 10.7978 19.1002 10.8747 19.0239L19.372 10.5113Z" fill="#1DA1F2"/>
</svg>
