<svg width="40" height="38" viewBox="0 0 40 38" version="1.1" xmlns="http://www.w3.org/2000/svg" xmlns:xlink="http://www.w3.org/1999/xlink"><title>Page 1</title><desc>Created with Sketch.</desc><g id="web" stroke="none" stroke-width="1" fill="none" fill-rule="evenodd"><g id="product-details-v1-copy" transform="translate(-87.000000, -2786.000000)" fill="#000"><path d="M112.311634,2799.06429 C112.384467,2799.21186 112.525251,2799.31414 112.688108,2799.3378 L124.755488,2801.09113 L116.022999,2809.60295 C115.905149,2809.71782 115.851373,2809.88333 115.879198,2810.04554 L117.940897,2822.06396 L107.147677,2816.38944 C107.002011,2816.31285 106.827989,2816.31285 106.682323,2816.38944 L95.889103,2822.06396 L97.9508016,2810.04554 C97.9786269,2809.88333 97.924851,2809.71782 97.8070006,2809.60295 L89.0745116,2801.09113 L101.141892,2799.3378 C101.304749,2799.31414 101.445533,2799.21186 101.518366,2799.06429 L106.915,2788.12976 L112.311634,2799.06429 Z M100.621634,2798.62171 L100.998108,2798.3482 L100.737972,2798.38599 L100.621634,2798.62171 Z M97.1089994,2810.31905 L96.9651984,2809.87646 L96.9207519,2810.13556 L97.1089994,2810.31905 Z M87.9281076,2800.2472 C87.5179901,2800.30678 87.354232,2800.81078 87.6509994,2801.10005 L96.9207519,2810.13556 L94.7321984,2822.89346 C94.662129,2823.30192 95.0908565,2823.61342 95.4576766,2823.42056 L106.915,2817.39689 L118.372323,2823.42056 C118.739144,2823.61342 119.167871,2823.30192 119.097802,2822.89346 L116.909248,2810.13556 L126.179001,2801.10005 C126.475768,2800.81078 126.31201,2800.30678 125.901892,2800.2472 L113.092028,2798.38599 L107.363366,2786.77871 C107.179958,2786.4071 106.650042,2786.4071 106.466634,2786.77871 L100.737972,2798.38599 L87.9281076,2800.2472 Z" id="Page-1"/></g></g></svg>