<svg width="49" height="49" viewBox="0 0 49 49" fill="none" xmlns="http://www.w3.org/2000/svg">
<g clip-path="url(#clip0)">
<path d="M16.4641 48.7199C14.7725 48.4378 8.60158 46.0339 8.60158 46.0339C8.60158 46.0339 6.03221 39.5709 6.03174 37.5861V0.879883H24.9693L26.1887 24.7999L24.9693 48.7199H16.4641Z" fill="#F4F2F1"/>
<path d="M24.9685 0.879883H43.9061V48.7199H24.9685V0.879883Z" fill="#E5DEDD"/>
<path d="M13.4777 45.2627V41.1796H9.63707C7.64309 41.1796 6.03199 39.5707 6.03162 37.5859V42.1176C6.03162 45.7639 9.00104 48.7198 12.664 48.7198H16.464C14.7723 48.4377 13.4777 47.0352 13.4777 45.2627Z" fill="#E5DEDD"/>
<path d="M27.348 10.3169H38.8335V13.1189H27.348V10.3169Z" fill="#DAD0CD"/>
<path d="M27.3477 15.9209H38.8332V18.7229H27.3477V15.9209Z" fill="#DAD0CD"/>
<path d="M18.9183 29.2231L13.2834 34.8322L15.2739 36.8135L18.9183 33.1858L24.9687 39.2088L26.1882 38.1871L24.9687 35.2461L18.9183 29.2231Z" fill="#FC6284"/>
<path d="M11.2446 21.5249V24.327H24.9687L26.9152 22.9259L24.9687 21.5249H11.2446Z" fill="#E5DEDD"/>
<path d="M35.9237 34.1556V36.5601H38.7386V29.2363H31.3812V32.0383H34.0699L27.9081 38.172L24.9688 35.246V39.2087L27.9081 42.1347L35.9237 34.1556Z" fill="#D9438A"/>
<path d="M24.9688 21.5249H38.8323V24.3269H24.9688V21.5249Z" fill="#DAD0CD"/>
<path d="M15.1213 18.7197L12.4739 14.1015V13.0131H13.3564C13.876 13.0131 14.3124 12.9003 14.6654 12.6748C15.0183 12.4395 15.2439 12.1159 15.3419 11.7041H12.4739V10.6157H15.3272C15.239 10.2431 15.0576 9.93422 14.783 9.68909C14.5085 9.43415 14.1261 9.30669 13.6358 9.30669H12.4739V8.2183H19.1071V9.30669H16.798C17.1412 9.67928 17.3569 10.1156 17.4451 10.6157H19.1071V11.7041H17.4746C17.3765 12.4297 17.0971 12.9984 16.6362 13.4102C16.1754 13.8122 15.5821 14.0867 14.8566 14.2338L17.7393 18.7197H15.1213Z" fill="#FFCC00"/>
</g>
<defs>
<clipPath id="clip0">
<rect width="48.0589" height="47.84" fill="white" transform="translate(0.938843 0.879883)"/>
</clipPath>
</defs>
</svg>
