<svg width="74" height="75" viewBox="0 0 74 75" fill="none" xmlns="http://www.w3.org/2000/svg">
<path d="M73.8001 37.2399C73.8001 57.5643 57.3244 74.0399 37.0001 74.0399C16.6757 74.0399 0.200073 57.5643 0.200073 37.2399C0.200073 16.9156 16.6757 0.439941 37.0001 0.439941C57.3244 0.439941 73.8001 16.9156 73.8001 37.2399Z" fill="#FEBBBA"/>
<g clip-path="url(#clip0)">
<path d="M21.5187 31.0826L20.4751 29.8935L36.8189 15.561L52.5934 29.903L51.5308 31.0747L36.7999 17.6799L21.5187 31.0826Z" fill="#2C3E50"/>
<path d="M36.809 21.554C38.8543 21.554 40.5123 19.896 40.5123 17.8507C40.5123 15.8055 38.8543 14.1475 36.809 14.1475C34.7637 14.1475 33.1057 15.8055 33.1057 17.8507C33.1057 19.896 34.7637 21.554 36.809 21.554Z" fill="#2C3E50"/>
<path d="M61.8401 28.9985H11.2401V59.4123H61.8401V28.9985Z" fill="#E04F5F"/>
<path d="M18.814 38.9892C19.5809 38.8643 20.7273 38.771 21.997 38.771C23.5656 38.771 24.6646 39.005 25.4157 39.6012C26.0434 40.1024 26.3882 40.8409 26.3882 41.8117C26.3882 43.1621 25.4331 44.0856 24.5207 44.4145V44.4619C25.2591 44.7592 25.6671 45.466 25.9343 46.4369C26.2632 47.6292 26.5921 49.0096 26.7961 49.4176H24.3499C24.1776 49.1203 23.9261 48.2569 23.6115 46.954C23.33 45.6368 22.8746 45.2763 21.9021 45.262H21.1811V49.4176H18.814V38.9892ZM21.1811 43.5369H22.1235C23.3142 43.5369 24.0194 42.9408 24.0194 42.0157C24.0194 41.0448 23.3616 40.5578 22.2643 40.542C21.6839 40.542 21.355 40.5879 21.1811 40.6195V43.5369Z" fill="white"/>
<path d="M34.4053 44.949H30.5154V47.4584H34.8591V49.4192H28.1151V38.8501H34.6394V40.8093H30.5154V43.0056H34.4053V44.949Z" fill="white"/>
<path d="M36.4932 49.4192V38.8501H39.2857L41.482 42.7226C42.1082 43.8358 42.7375 45.153 43.2072 46.3452H43.2546C43.0965 44.949 43.0506 43.5227 43.0506 41.9383V38.8501H45.2454V49.4208H42.7375L40.4779 45.3427C39.8517 44.2137 39.1607 42.8507 38.6421 41.611L38.5962 41.6268C38.6595 43.023 38.6911 44.5126 38.6911 46.2377V49.4223H36.4932V49.4192Z" fill="white"/>
<path d="M49.3569 40.8568H46.517V38.8486H54.6414V40.8568H51.7572V49.4193H49.3569V40.8568Z" fill="white"/>
</g>
<defs>
<clipPath id="clip0">
<rect width="50.6" height="50.6" fill="white" transform="translate(11.24 11.48)"/>
</clipPath>
</defs>
</svg>
