<svg width="66" height="66" viewBox="0 0 66 66" fill="none" xmlns="http://www.w3.org/2000/svg">
<path d="M50.3243 62.1659H12.6859C10.9061 62.1659 9.46326 60.7231 9.46326 58.9433V7.05698C9.46326 5.27717 10.9061 3.83432 12.6859 3.83432H50.3243C52.1042 3.83432 53.547 5.27717 53.547 7.05698V58.9433C53.547 60.7231 52.1042 62.1659 50.3243 62.1659Z" fill="#FFEACF"/>
<path d="M17.1986 58.9433V7.05698C17.1986 5.27717 18.6413 3.83432 20.4213 3.83432H12.6869C10.907 3.83432 9.46423 5.27717 9.46423 7.05698V58.9433C9.46423 60.7231 10.907 62.1659 12.6869 62.1659H20.4213C18.6413 62.1659 17.1986 60.7231 17.1986 58.9433Z" fill="#FFD59A"/>
<path d="M48.3107 20.4301H32.6719C32.1024 20.4301 31.6407 19.9683 31.6407 19.3988V17.6139C31.6407 17.0444 32.1024 16.5826 32.6719 16.5826H48.3107C48.8802 16.5826 49.342 17.0444 49.342 17.6139V19.3988C49.342 19.9683 48.8804 20.4301 48.3107 20.4301Z" fill="#FCDA4F"/>
<path d="M49.342 12.8343H13.6685C13.0277 12.8343 12.5084 12.3148 12.5084 11.6741C12.5084 11.0335 13.0277 10.514 13.6685 10.514H49.342C49.9828 10.514 50.5022 11.0335 50.5022 11.6741C50.5022 12.3148 49.9828 12.8343 49.342 12.8343Z" fill="#A56021"/>
<path d="M29.2017 19.6663H13.6685C13.0277 19.6663 12.5084 19.1468 12.5084 18.5062C12.5084 17.8655 13.0277 17.346 13.6685 17.346H29.2017C29.8425 17.346 30.3619 17.8655 30.3619 18.5062C30.3619 19.1468 29.8424 19.6663 29.2017 19.6663Z" fill="#A56021"/>
<path d="M48.3107 55.9982H14.6996C14.1301 55.9982 13.6683 55.5365 13.6683 54.967V46.5486C13.6683 45.9791 14.1301 45.5174 14.6996 45.5174H48.3107C48.8802 45.5174 49.342 45.9791 49.342 46.5486V54.967C49.342 55.5365 48.8804 55.9982 48.3107 55.9982Z" fill="#FCDA4F"/>
<path d="M48.3107 28.1645H32.6719C32.1024 28.1645 31.6407 27.7027 31.6407 27.1332V25.3482C31.6407 24.7787 32.1024 24.317 32.6719 24.317H48.3107C48.8802 24.317 49.342 24.7787 49.342 25.3482V27.1332C49.342 27.7027 48.8804 28.1645 48.3107 28.1645Z" fill="#FCDA4F"/>
<path d="M29.2017 27.4007H13.6685C13.0277 27.4007 12.5084 26.8812 12.5084 26.2405C12.5084 25.5999 13.0277 25.0804 13.6685 25.0804H29.2017C29.8425 25.0804 30.3619 25.5999 30.3619 26.2405C30.3619 26.8812 29.8424 27.4007 29.2017 27.4007Z" fill="#A56021"/>
<path d="M48.3107 35.8988H32.6719C32.1024 35.8988 31.6407 35.4371 31.6407 34.8676V33.0826C31.6407 32.5131 32.1024 32.0514 32.6719 32.0514H48.3107C48.8802 32.0514 49.342 32.5131 49.342 33.0826V34.8676C49.342 35.4371 48.8804 35.8988 48.3107 35.8988Z" fill="#FCDA4F"/>
<path d="M29.2017 35.1351H13.6685C13.0277 35.1351 12.5084 34.6156 12.5084 33.9749C12.5084 33.3342 13.0277 32.8148 13.6685 32.8148H29.2017C29.8425 32.8148 30.3619 33.3342 30.3619 33.9749C30.3619 34.6156 29.8424 35.1351 29.2017 35.1351Z" fill="#A56021"/>
<path d="M49.342 41.5804H13.6685C13.0277 41.5804 12.5084 41.0609 12.5084 40.4202C12.5084 39.7796 13.0277 39.2601 13.6685 39.2601H49.342C49.9828 39.2601 50.5022 39.7796 50.5022 40.4202C50.5022 41.0609 49.9828 41.5804 49.342 41.5804Z" fill="#A56021"/>
<path d="M45.7189 29.1801L45.0958 29.0005C44.2932 28.7692 43.8791 27.7546 44.1705 26.7341L47.0477 16.6631C47.3393 15.6426 48.2261 15.0028 49.0287 15.234L49.6518 15.4134C50.4544 15.6447 50.8687 16.6593 50.5771 17.6798L47.7 27.7508C47.4084 28.7714 46.5215 29.4113 45.7189 29.1801Z" fill="#FFC34C"/>
<path d="M43.1798 42.4112L40.7383 51.1576L40.7643 51.2993L41.4812 53.9477C41.5672 54.2654 41.8891 54.3602 42.126 54.1375L44.2089 52.1797L46.6504 43.4333L43.1798 42.4112Z" fill="#FFEA63"/>
<path d="M42.2151 51.7084L42.1891 51.5667L44.6258 42.837L43.1798 42.4111L40.7383 51.1576L40.7644 51.2992L41.4814 53.9476C41.5673 54.2654 41.8892 54.3601 42.1261 54.1375L42.7212 53.5782L42.2151 51.7084Z" fill="#FFD551"/>
<path d="M41.0806 52.6776L41.4106 53.8693C41.5043 54.2074 41.8546 54.3083 42.1126 54.0714L43.0212 53.2365L41.0806 52.6776Z" fill="#A56021"/>
<path d="M45.116 49.6629L41.0957 48.5055C40.7257 48.399 40.521 47.9787 40.6386 47.5669L51.0497 11.1069C51.498 9.53685 53.0051 8.59325 54.4157 8.99931L54.6675 9.07175C56.0781 9.47794 56.8582 11.08 56.4099 12.6501L45.9989 49.1102C45.8813 49.522 45.486 49.7695 45.116 49.6629Z" fill="#FFA730"/>
<path d="M43.5254 49.1754C43.1554 49.0689 42.9507 48.6487 43.0683 48.2368L53.4794 11.7768C53.801 10.6505 54.6682 9.84982 55.6532 9.63532C55.377 9.37802 55.0459 9.18092 54.6675 9.07187L54.4158 8.99942C53.0052 8.59324 51.4981 9.53683 51.0498 11.107L40.6387 47.567C40.5211 47.9789 40.7257 48.3991 41.0958 48.5056L45.1161 49.663C45.1778 49.6808 45.2404 49.6879 45.3021 49.6869L43.5254 49.1754Z" fill="#E58D23"/>
<path d="M55.1594 17.0908L49.966 15.6592C49.5885 15.5551 49.3668 15.1648 49.4708 14.7872L49.5969 14.3299C49.7009 13.9524 50.0913 13.7307 50.4688 13.8347L55.6622 15.2664C56.0397 15.3704 56.2614 15.7607 56.1573 16.1383L56.0313 16.5957C55.9271 16.9732 55.5368 17.1948 55.1594 17.0908Z" fill="#FFEA63"/>
<path d="M52.0386 15.4309L52.1317 15.0931C52.2449 14.6826 52.6357 14.4323 53.0048 14.534L50.4535 13.8307C50.0844 13.729 49.6936 13.9793 49.5804 14.3898L49.4873 14.7276C49.3741 15.1381 49.5816 15.5534 49.9506 15.6551L52.5019 16.3584C52.1329 16.2566 51.9255 15.8414 52.0386 15.4309Z" fill="#FFD551"/>
<path d="M52.1637 23.5874C52.0957 23.5874 52.0266 23.5783 51.9576 23.5593C51.5459 23.4457 51.304 23.0198 51.4176 22.6081L51.846 21.054C51.9595 20.6425 52.3845 20.4 52.7972 20.514C53.2089 20.6275 53.4507 21.0535 53.3372 21.4652L52.9088 23.0193C52.8143 23.3622 52.503 23.5874 52.1637 23.5874Z" fill="#FFC34C"/>
<path d="M49.0879 34.7458C49.0198 34.7458 48.9507 34.7368 48.8817 34.7177C48.47 34.6041 48.2282 34.1783 48.3417 33.7665L50.8215 24.7701C50.9351 24.3584 51.361 24.1163 51.7727 24.2301C52.1845 24.3437 52.4263 24.7695 52.3127 25.1813L49.8329 34.1777C49.7385 34.5206 49.4271 34.7458 49.0879 34.7458Z" fill="#FFC34C"/>
<path d="M51.0939 58.6254C50.6669 58.6254 50.3205 58.279 50.3205 57.8519V37.3451C50.3205 36.9181 50.6669 36.5717 51.0939 36.5717C51.521 36.5717 51.8674 36.9181 51.8674 37.3451V57.8519C51.8674 58.2791 51.5211 58.6254 51.0939 58.6254Z" fill="#FCF9DE"/>
<path d="M13.6685 10.514C13.0277 10.514 12.5084 11.0335 12.5084 11.6741C12.5084 12.3148 13.0277 12.8343 13.6685 12.8343H17.1978V10.514H13.6685Z" fill="#8C4C17"/>
<path d="M13.6685 39.2601C13.0277 39.2601 12.5084 39.7796 12.5084 40.4202C12.5084 41.0609 13.0277 41.5804 13.6685 41.5804H17.1978V39.2601H13.6685Z" fill="#8C4C17"/>
<path d="M13.6685 32.8148C13.0277 32.8148 12.5084 33.3342 12.5084 33.9749C12.5084 34.6156 13.0277 35.1351 13.6685 35.1351H17.1978V32.8148H13.6685Z" fill="#8C4C17"/>
<path d="M13.6685 25.0804C13.0277 25.0804 12.5084 25.5999 12.5084 26.2405C12.5084 26.8812 13.0277 27.4007 13.6685 27.4007H17.1978V25.0804H13.6685Z" fill="#8C4C17"/>
<path d="M13.6685 17.346C13.0277 17.346 12.5084 17.8655 12.5084 18.5062C12.5084 19.1468 13.0277 19.6663 13.6685 19.6663H17.1978V17.346H13.6685Z" fill="#8C4C17"/>
<path d="M14.6996 45.5174C14.1301 45.5174 13.6683 45.9791 13.6683 46.5486V54.967C13.6683 55.5365 14.1301 55.9982 14.6996 55.9982H17.1977V45.5174H14.6996Z" fill="#FFC34C"/>
<path d="M21.435 9.19774C22.5143 9.19774 23.3892 8.32281 23.3892 7.24353C23.3892 6.16424 22.5143 5.28931 21.435 5.28931C20.3557 5.28931 19.4808 6.16424 19.4808 7.24353C19.4808 8.32281 20.3557 9.19774 21.435 9.19774Z" fill="#FFD59A"/>
</svg>
