<svg width="430" height="159" viewBox="0 0 430 159" fill="none" xmlns="http://www.w3.org/2000/svg">
<path d="M146.676 134.486L147.662 140.514C145.741 140.918 144.023 141.121 142.506 141.121C140.03 141.121 138.109 140.729 136.744 139.945C135.379 139.162 134.419 138.138 133.863 136.875C133.307 135.586 133.029 132.894 133.029 128.8V105.637H128.025V100.33H133.029V90.3596L139.815 86.2654V100.33H146.676V105.637H139.815V129.179C139.815 131.125 139.929 132.376 140.156 132.932C140.409 133.488 140.8 133.93 141.331 134.259C141.887 134.587 142.671 134.752 143.682 134.752C144.44 134.752 145.438 134.663 146.676 134.486ZM179.658 135.624C177.13 137.772 174.692 139.288 172.341 140.173C170.016 141.057 167.514 141.5 164.835 141.5C160.412 141.5 157.013 140.426 154.637 138.277C152.262 136.104 151.074 133.336 151.074 129.975C151.074 128.004 151.516 126.209 152.401 124.592C153.311 122.949 154.486 121.635 155.926 120.649C157.392 119.664 159.035 118.918 160.855 118.413C162.194 118.059 164.216 117.718 166.92 117.389C172.43 116.732 176.486 115.949 179.089 115.039C179.114 114.104 179.127 113.51 179.127 113.257C179.127 110.477 178.483 108.518 177.194 107.381C175.45 105.839 172.859 105.069 169.422 105.069C166.213 105.069 163.837 105.637 162.295 106.774C160.779 107.886 159.654 109.87 158.921 112.726L152.249 111.816C152.856 108.961 153.854 106.661 155.244 104.917C156.634 103.148 158.643 101.796 161.272 100.861C163.9 99.9002 166.945 99.42 170.408 99.42C173.845 99.42 176.638 99.8244 178.786 100.633C180.934 101.442 182.514 102.465 183.525 103.704C184.535 104.917 185.243 106.459 185.648 108.329C185.875 109.491 185.989 111.589 185.989 114.622V123.72C185.989 130.064 186.128 134.082 186.406 135.775C186.709 137.443 187.29 139.048 188.15 140.59H181.023C180.315 139.175 179.86 137.519 179.658 135.624ZM179.089 120.384C176.612 121.395 172.897 122.254 167.944 122.962C165.138 123.366 163.154 123.821 161.992 124.327C160.829 124.832 159.932 125.578 159.3 126.563C158.668 127.524 158.353 128.598 158.353 129.786C158.353 131.605 159.035 133.122 160.4 134.335C161.79 135.548 163.812 136.154 166.465 136.154C169.094 136.154 171.431 135.586 173.479 134.448C175.526 133.286 177.029 131.706 177.99 129.71C178.723 128.168 179.089 125.894 179.089 122.886V120.384ZM192.054 140.59L206.763 119.664L193.154 100.33H201.683L207.863 109.769C209.025 111.564 209.96 113.067 210.668 114.281C211.78 112.613 212.803 111.134 213.739 109.845L220.524 100.33H228.675L214.762 119.285L229.736 140.59H221.358L213.094 128.08L210.895 124.706L200.319 140.59H192.054ZM241.716 140.59H235.385V85.0144H242.209V104.841C245.09 101.227 248.767 99.42 253.24 99.42C255.717 99.42 258.055 99.9255 260.254 100.936C262.478 101.922 264.297 103.325 265.713 105.144C267.153 106.939 268.278 109.112 269.087 111.665C269.895 114.217 270.3 116.947 270.3 119.853C270.3 126.753 268.594 132.085 265.182 135.851C261.77 139.617 257.676 141.5 252.899 141.5C248.148 141.5 244.42 139.516 241.716 135.548V140.59ZM241.64 120.157C241.64 124.984 242.297 128.471 243.611 130.62C245.759 134.133 248.666 135.889 252.33 135.889C255.313 135.889 257.891 134.6 260.064 132.022C262.238 129.419 263.324 125.552 263.324 120.422C263.324 115.165 262.275 111.286 260.178 108.784C258.105 106.282 255.591 105.031 252.634 105.031C249.652 105.031 247.074 106.332 244.9 108.935C242.727 111.513 241.64 115.254 241.64 120.157ZM276.1 120.46C276.1 113.004 278.172 107.482 282.317 103.893C285.779 100.911 290 99.42 294.979 99.42C300.514 99.42 305.037 101.24 308.55 104.879C312.063 108.493 313.82 113.497 313.82 119.891C313.82 125.072 313.036 129.154 311.469 132.136C309.928 135.093 307.666 137.393 304.684 139.036C301.727 140.678 298.492 141.5 294.979 141.5C289.343 141.5 284.781 139.693 281.293 136.079C277.831 132.465 276.1 127.258 276.1 120.46ZM283.113 120.46C283.113 125.616 284.238 129.482 286.487 132.06C288.736 134.613 291.567 135.889 294.979 135.889C298.365 135.889 301.183 134.6 303.433 132.022C305.682 129.444 306.807 125.514 306.807 120.232C306.807 115.254 305.669 111.488 303.395 108.935C301.145 106.357 298.34 105.069 294.979 105.069C291.567 105.069 288.736 106.345 286.487 108.897C284.238 111.45 283.113 115.304 283.113 120.46ZM348.128 135.624C345.601 137.772 343.162 139.288 340.812 140.173C338.486 141.057 335.984 141.5 333.305 141.5C328.883 141.5 325.483 140.426 323.108 138.277C320.732 136.104 319.544 133.336 319.544 129.975C319.544 128.004 319.987 126.209 320.871 124.592C321.781 122.949 322.956 121.635 324.397 120.649C325.863 119.664 327.505 118.918 329.325 118.413C330.664 118.059 332.686 117.718 335.39 117.389C340.9 116.732 344.956 115.949 347.559 115.039C347.585 114.104 347.597 113.51 347.597 113.257C347.597 110.477 346.953 108.518 345.664 107.381C343.92 105.839 341.33 105.069 337.892 105.069C334.683 105.069 332.307 105.637 330.765 106.774C329.249 107.886 328.124 109.87 327.392 112.726L320.719 111.816C321.326 108.961 322.324 106.661 323.714 104.917C325.104 103.148 327.114 101.796 329.742 100.861C332.37 99.9002 335.416 99.42 338.878 99.42C342.315 99.42 345.108 99.8244 347.256 100.633C349.404 101.442 350.984 102.465 351.995 103.704C353.006 104.917 353.713 106.459 354.118 108.329C354.345 109.491 354.459 111.589 354.459 114.622V123.72C354.459 130.064 354.598 134.082 354.876 135.775C355.179 137.443 355.761 139.048 356.62 140.59H349.493C348.785 139.175 348.33 137.519 348.128 135.624ZM347.559 120.384C345.083 121.395 341.368 122.254 336.414 122.962C333.609 123.366 331.625 123.821 330.462 124.327C329.3 124.832 328.402 125.578 327.771 126.563C327.139 127.524 326.823 128.598 326.823 129.786C326.823 131.605 327.505 133.122 328.87 134.335C330.26 135.548 332.282 136.154 334.936 136.154C337.564 136.154 339.902 135.586 341.949 134.448C343.996 133.286 345.5 131.706 346.46 129.71C347.193 128.168 347.559 125.894 347.559 122.886V120.384ZM364.998 140.59V100.33H371.139V106.433C372.706 103.577 374.147 101.695 375.461 100.785C376.8 99.8749 378.266 99.42 379.858 99.42C382.158 99.42 384.496 100.153 386.872 101.619L384.521 107.95C382.853 106.964 381.185 106.471 379.517 106.471C378.026 106.471 376.687 106.926 375.499 107.836C374.311 108.721 373.464 109.959 372.959 111.551C372.201 113.977 371.822 116.631 371.822 119.512V140.59H364.998ZM417.048 140.59V135.51C414.495 139.503 410.742 141.5 405.789 141.5C402.579 141.5 399.622 140.615 396.918 138.846C394.239 137.077 392.154 134.613 390.663 131.454C389.197 128.269 388.464 124.617 388.464 120.498C388.464 116.479 389.134 112.84 390.473 109.58C391.813 106.294 393.822 103.78 396.501 102.036C399.18 100.292 402.175 99.42 405.485 99.42C407.912 99.42 410.072 99.9381 411.968 100.974C413.863 101.985 415.405 103.312 416.593 104.955V85.0144H423.379V140.59H417.048ZM395.477 120.498C395.477 125.653 396.564 129.508 398.737 132.06C400.911 134.613 403.476 135.889 406.433 135.889C409.415 135.889 411.943 134.676 414.015 132.25C416.113 129.798 417.161 126.07 417.161 121.066C417.161 115.557 416.1 111.513 413.977 108.935C411.854 106.357 409.238 105.069 406.13 105.069C403.097 105.069 400.557 106.307 398.51 108.784C396.488 111.26 395.477 115.165 395.477 120.498Z" fill="white"/>
<path d="M146.676 134.486L147.359 134.375L147.25 133.706L146.579 133.802L146.676 134.486ZM147.662 140.514L147.805 141.191L148.451 141.055L148.345 140.402L147.662 140.514ZM133.863 136.875L133.228 137.149L133.23 137.153L133.863 136.875ZM133.029 105.637H133.72V104.946H133.029V105.637ZM128.025 105.637H127.333V106.329H128.025V105.637ZM128.025 100.33V99.6383H127.333V100.33H128.025ZM133.029 100.33V101.021H133.72V100.33H133.029ZM133.029 90.3596L132.672 89.7675L132.337 89.9692V90.3596H133.029ZM139.815 86.2654H140.506V85.0405L139.458 85.6733L139.815 86.2654ZM139.815 100.33H139.123V101.021H139.815V100.33ZM146.676 100.33H147.368V99.6383H146.676V100.33ZM146.676 105.637V106.329H147.368V105.637H146.676ZM139.815 105.637V104.946H139.123V105.637H139.815ZM140.156 132.932L139.516 133.194L139.521 133.206L139.526 133.218L140.156 132.932ZM141.331 134.259L140.967 134.847L140.973 134.851L140.979 134.854L141.331 134.259ZM145.994 134.598L146.98 140.626L148.345 140.402L147.359 134.375L145.994 134.598ZM147.52 139.837C145.633 140.235 143.963 140.429 142.506 140.429V141.812C144.082 141.812 145.85 141.602 147.805 141.191L147.52 139.837ZM142.506 140.429C140.087 140.429 138.305 140.044 137.088 139.346L136.4 140.545C137.913 141.414 139.972 141.812 142.506 141.812V140.429ZM137.088 139.346C135.833 138.625 134.984 137.706 134.496 136.596L133.23 137.153C133.854 138.57 134.926 139.699 136.4 140.545L137.088 139.346ZM134.498 136.601C134.263 136.056 134.062 135.146 133.925 133.818C133.79 132.505 133.72 130.834 133.72 128.8H132.337C132.337 130.86 132.407 132.582 132.55 133.96C132.69 135.324 132.907 136.405 133.228 137.149L134.498 136.601ZM133.72 128.8V105.637H132.337V128.8H133.72ZM133.029 104.946H128.025V106.329H133.029V104.946ZM128.716 105.637V100.33H127.333V105.637H128.716ZM128.025 101.021H133.029V99.6383H128.025V101.021ZM133.72 100.33V90.3596H132.337V100.33H133.72ZM133.386 90.9517L140.172 86.8575L139.458 85.6733L132.672 89.7675L133.386 90.9517ZM139.123 86.2654V100.33H140.506V86.2654H139.123ZM139.815 101.021H146.676V99.6383H139.815V101.021ZM145.985 100.33V105.637H147.368V100.33H145.985ZM146.676 104.946H139.815V106.329H146.676V104.946ZM139.123 105.637V129.179H140.506V105.637H139.123ZM139.123 129.179C139.123 130.163 139.152 130.985 139.211 131.639C139.269 132.276 139.361 132.815 139.516 133.194L140.796 132.67C140.724 132.493 140.645 132.129 140.589 131.514C140.535 130.918 140.506 130.141 140.506 129.179H139.123ZM139.526 133.218C139.837 133.902 140.323 134.448 140.967 134.847L141.695 133.671C141.278 133.413 140.98 133.074 140.786 132.646L139.526 133.218ZM140.979 134.854C141.686 135.272 142.611 135.443 143.682 135.443V134.06C142.731 134.06 142.088 133.903 141.683 133.664L140.979 134.854ZM143.682 135.443C144.487 135.443 145.521 135.35 146.774 135.171L146.579 133.802C145.355 133.977 144.393 134.06 143.682 134.06V135.443ZM179.658 135.624L180.345 135.55L180.207 134.25L179.21 135.097L179.658 135.624ZM172.341 140.173L172.098 139.526L172.095 139.527L172.341 140.173ZM154.637 138.277L154.171 138.788L154.174 138.79L154.637 138.277ZM152.401 124.592L151.796 124.257L151.794 124.26L152.401 124.592ZM155.926 120.649L155.54 120.076L155.536 120.079L155.926 120.649ZM160.855 118.413L160.678 117.744L160.67 117.746L160.855 118.413ZM166.92 117.389L166.838 116.703L166.837 116.703L166.92 117.389ZM179.089 115.039L179.317 115.692L179.768 115.534L179.78 115.057L179.089 115.039ZM177.194 107.381L176.736 107.899L176.736 107.9L177.194 107.381ZM162.295 106.774L162.704 107.332L162.706 107.331L162.295 106.774ZM158.921 112.726L158.828 113.411L159.438 113.495L159.591 112.898L158.921 112.726ZM152.249 111.816L151.573 111.673L151.418 112.401L152.156 112.502L152.249 111.816ZM155.244 104.917L155.785 105.348L155.788 105.344L155.244 104.917ZM161.272 100.861L161.503 101.512L161.509 101.51L161.272 100.861ZM183.525 103.704L182.989 104.141L182.993 104.146L183.525 103.704ZM185.648 108.329L186.326 108.196L186.323 108.183L185.648 108.329ZM186.406 135.775L185.723 135.887L185.725 135.899L186.406 135.775ZM188.15 140.59V141.281H189.327L188.754 140.253L188.15 140.59ZM181.023 140.59L180.404 140.899L180.595 141.281H181.023V140.59ZM179.089 120.384H179.781V119.355L178.828 119.744L179.089 120.384ZM167.944 122.962L167.846 122.277L167.845 122.277L167.944 122.962ZM159.3 126.563L159.878 126.943L159.882 126.936L159.3 126.563ZM160.4 134.335L159.94 134.852L159.945 134.856L160.4 134.335ZM173.479 134.448L173.814 135.053L173.82 135.05L173.479 134.448ZM177.99 129.71L178.613 130.01L178.614 130.007L177.99 129.71ZM179.21 135.097C176.725 137.209 174.354 138.677 172.098 139.526L172.585 140.82C175.029 139.9 177.536 138.335 180.106 136.151L179.21 135.097ZM172.095 139.527C169.855 140.379 167.437 140.808 164.835 140.808V142.191C167.592 142.191 170.178 141.736 172.587 140.819L172.095 139.527ZM164.835 140.808C160.518 140.808 157.308 139.76 155.101 137.764L154.174 138.79C156.718 141.091 160.307 142.191 164.835 142.191V140.808ZM155.104 137.767C152.879 135.731 151.765 133.152 151.765 129.975H150.382C150.382 133.521 151.645 136.477 154.171 138.788L155.104 137.767ZM151.765 129.975C151.765 128.112 152.182 126.432 153.007 124.924L151.794 124.26C150.85 125.986 150.382 127.896 150.382 129.975H151.765ZM153.006 124.927C153.867 123.371 154.972 122.14 156.317 121.22L155.536 120.079C154 121.13 152.754 122.527 151.796 124.257L153.006 124.927ZM156.312 121.223C157.712 120.282 159.287 119.566 161.04 119.079L160.67 117.746C158.783 118.27 157.072 119.046 155.541 120.076L156.312 121.223ZM161.031 119.081C162.323 118.74 164.307 118.403 167.004 118.076L166.837 116.703C164.125 117.032 162.065 117.378 160.678 117.744L161.031 119.081ZM167.002 118.076C172.522 117.417 176.64 116.627 179.317 115.692L178.861 114.386C176.332 115.27 172.337 116.047 166.838 116.703L167.002 118.076ZM179.78 115.057C179.806 114.125 179.819 113.521 179.819 113.257H178.436C178.436 113.498 178.423 114.082 178.398 115.02L179.78 115.057ZM179.819 113.257C179.819 110.398 179.16 108.194 177.651 106.863L176.736 107.9C177.805 108.843 178.436 110.556 178.436 113.257H179.819ZM177.652 106.863C175.733 105.167 172.949 104.377 169.422 104.377V105.76C172.769 105.76 175.167 106.512 176.736 107.899L177.652 106.863ZM169.422 104.377C166.155 104.377 163.602 104.951 161.885 106.218L162.706 107.331C164.072 106.323 166.27 105.76 169.422 105.76V104.377ZM161.886 106.217C160.186 107.464 159.003 109.627 158.251 112.554L159.591 112.898C160.306 110.114 161.372 108.309 162.704 107.332L161.886 106.217ZM159.015 112.041L152.343 111.131L152.156 112.502L158.828 113.411L159.015 112.041ZM152.926 111.96C153.516 109.178 154.479 106.986 155.785 105.348L154.703 104.486C153.229 106.336 152.195 108.743 151.573 111.673L152.926 111.96ZM155.788 105.344C157.08 103.7 158.969 102.414 161.503 101.512L161.04 100.209C158.318 101.177 156.188 102.596 154.7 104.49L155.788 105.344ZM161.509 101.51C164.046 100.583 167.008 100.112 170.408 100.112V98.7285C166.883 98.7285 163.754 99.2172 161.034 100.211L161.509 101.51ZM170.408 100.112C173.799 100.112 176.501 100.512 178.542 101.28L179.03 99.9859C176.775 99.1371 173.891 98.7285 170.408 98.7285V100.112ZM178.542 101.28C180.623 102.064 182.082 103.03 182.989 104.141L184.06 103.266C182.946 101.901 181.245 100.82 179.03 99.9859L178.542 101.28ZM182.993 104.146C183.919 105.258 184.586 106.691 184.972 108.475L186.323 108.183C185.9 106.226 185.152 104.576 184.056 103.261L182.993 104.146ZM184.969 108.462C185.182 109.55 185.297 111.586 185.297 114.622H186.68C186.68 111.592 186.568 109.432 186.326 108.196L184.969 108.462ZM185.297 114.622V123.72H186.68V114.622H185.297ZM185.297 123.72C185.297 130.045 185.434 134.127 185.723 135.887L187.088 135.663C186.821 134.037 186.68 130.082 186.68 123.72H185.297ZM185.725 135.899C186.043 137.645 186.651 139.321 187.546 140.927L188.754 140.253C187.93 138.775 187.375 137.242 187.086 135.652L185.725 135.899ZM188.15 139.898H181.023V141.281H188.15V139.898ZM181.641 140.281C180.977 138.953 180.541 137.38 180.345 135.55L178.97 135.697C179.179 137.658 179.653 139.397 180.404 140.899L181.641 140.281ZM178.828 119.744C176.431 120.722 172.783 121.572 167.846 122.277L168.042 123.646C173.012 122.936 176.794 122.068 179.35 121.024L178.828 119.744ZM167.845 122.277C165.035 122.683 162.971 123.147 161.716 123.692L162.268 124.961C163.338 124.495 165.242 124.05 168.042 123.646L167.845 122.277ZM161.716 123.692C160.439 124.248 159.43 125.079 158.718 126.19L159.882 126.936C160.434 126.076 161.22 125.416 162.268 124.961L161.716 123.692ZM158.723 126.183C158.014 127.26 157.661 128.467 157.661 129.786H159.044C159.044 128.728 159.323 127.787 159.878 126.943L158.723 126.183ZM157.661 129.786C157.661 131.804 158.428 133.508 159.94 134.852L160.859 133.818C159.641 132.736 159.044 131.407 159.044 129.786H157.661ZM159.945 134.856C161.506 136.218 163.717 136.846 166.465 136.846V135.463C163.907 135.463 162.073 134.877 160.854 133.814L159.945 134.856ZM166.465 136.846C169.197 136.846 171.652 136.254 173.814 135.053L173.143 133.844C171.21 134.917 168.991 135.463 166.465 135.463V136.846ZM173.82 135.05C175.981 133.822 177.588 132.141 178.613 130.01L177.367 129.41C176.471 131.272 175.07 132.75 173.137 133.847L173.82 135.05ZM178.614 130.007C179.413 128.327 179.781 125.929 179.781 122.886H178.398C178.398 125.858 178.032 128.01 177.365 129.413L178.614 130.007ZM179.781 122.886V120.384H178.398V122.886H179.781ZM192.054 140.59L191.488 140.192L190.723 141.281H192.054V140.59ZM206.763 119.664L207.329 120.061L207.609 119.663L207.329 119.266L206.763 119.664ZM193.154 100.33V99.6383H191.821L192.588 100.728L193.154 100.33ZM201.683 100.33L202.262 99.9511L202.057 99.6383H201.683V100.33ZM207.863 109.769L208.443 109.393L208.441 109.391L207.863 109.769ZM210.668 114.281L210.071 114.629L210.629 115.586L211.243 114.664L210.668 114.281ZM213.739 109.845L214.298 110.251L214.302 110.247L213.739 109.845ZM220.524 100.33V99.6383H220.168L219.961 99.9283L220.524 100.33ZM228.675 100.33L229.232 100.739L230.04 99.6383H228.675V100.33ZM214.762 119.285L214.205 118.875L213.911 119.276L214.196 119.682L214.762 119.285ZM229.736 140.59V141.281H231.068L230.302 140.192L229.736 140.59ZM221.358 140.59L220.781 140.971L220.986 141.281H221.358V140.59ZM213.094 128.08L212.515 128.457L212.517 128.461L213.094 128.08ZM210.895 124.706L211.475 124.328L210.902 123.449L210.32 124.322L210.895 124.706ZM200.319 140.59V141.281H200.689L200.894 140.973L200.319 140.59ZM192.62 140.988L207.329 120.061L206.197 119.266L191.488 140.192L192.62 140.988ZM207.329 119.266L193.719 99.9318L192.588 100.728L206.198 120.062L207.329 119.266ZM193.154 101.021H201.683V99.6383H193.154V101.021ZM201.105 100.709L207.284 110.148L208.441 109.391L202.262 99.9511L201.105 100.709ZM207.282 110.145C208.442 111.935 209.37 113.429 210.071 114.629L211.265 113.932C210.55 112.706 209.609 111.193 208.443 109.393L207.282 110.145ZM211.243 114.664C212.351 113.002 213.37 111.531 214.298 110.251L213.179 109.439C212.237 110.737 211.208 112.223 210.092 113.897L211.243 114.664ZM214.302 110.247L221.087 100.731L219.961 99.9283L213.176 109.444L214.302 110.247ZM220.524 101.021H228.675V99.6383H220.524V101.021ZM228.117 99.9207L214.205 118.875L215.32 119.694L229.232 100.739L228.117 99.9207ZM214.196 119.682L229.171 140.987L230.302 140.192L215.328 118.887L214.196 119.682ZM229.736 139.898H221.358V141.281H229.736V139.898ZM221.935 140.209L213.671 127.699L212.517 128.461L220.781 140.971L221.935 140.209ZM213.673 127.702L211.475 124.328L210.316 125.083L212.515 128.457L213.673 127.702ZM210.32 124.322L199.743 140.207L200.894 140.973L211.471 125.089L210.32 124.322ZM200.319 139.898H192.054V141.281H200.319V139.898ZM241.716 140.59V141.281H242.407V140.59H241.716ZM235.385 140.59H234.693V141.281H235.385V140.59ZM235.385 85.0144V84.3228H234.693V85.0144H235.385ZM242.209 85.0144H242.9V84.3228H242.209V85.0144ZM242.209 104.841H241.517V106.818L242.749 105.272L242.209 104.841ZM260.254 100.936L259.965 101.565L259.973 101.569L260.254 100.936ZM265.713 105.144L265.167 105.569L265.173 105.577L265.713 105.144ZM265.182 135.851L264.669 135.387L264.669 135.387L265.182 135.851ZM241.716 135.548L242.287 135.158L241.024 133.305V135.548H241.716ZM243.611 130.62L244.201 130.259L244.201 130.259L243.611 130.62ZM260.064 132.022L260.593 132.468L260.595 132.465L260.064 132.022ZM260.178 108.784L259.645 109.225L259.648 109.228L260.178 108.784ZM244.9 108.935L245.429 109.381L245.431 109.379L244.9 108.935ZM241.716 139.898H235.385V141.281H241.716V139.898ZM236.076 140.59V85.0144H234.693V140.59H236.076ZM235.385 85.7059H242.209V84.3228H235.385V85.7059ZM241.517 85.0144V104.841H242.9V85.0144H241.517ZM242.749 105.272C245.504 101.816 248.985 100.112 253.24 100.112V98.7285C248.549 98.7285 244.675 100.638 241.668 104.41L242.749 105.272ZM253.24 100.112C255.62 100.112 257.859 100.596 259.965 101.565L260.542 100.308C258.251 99.2545 255.814 98.7285 253.24 98.7285V100.112ZM259.973 101.569C262.099 102.511 263.825 103.844 265.167 105.569L266.258 104.72C264.769 102.805 262.856 101.333 260.534 100.304L259.973 101.569ZM265.173 105.577C266.552 107.295 267.64 109.389 268.427 111.874L269.746 111.456C268.915 108.835 267.754 106.582 266.252 104.711L265.173 105.577ZM268.427 111.874C269.213 114.353 269.608 117.012 269.608 119.853H270.991C270.991 116.882 270.578 114.082 269.746 111.456L268.427 111.874ZM269.608 119.853C269.608 126.643 267.93 131.788 264.669 135.387L265.694 136.315C269.257 132.383 270.991 126.862 270.991 119.853H269.608ZM264.669 135.387C261.379 139.018 257.467 140.808 252.899 140.808V142.191C257.885 142.191 262.161 140.215 265.694 136.315L264.669 135.387ZM252.899 140.808C248.379 140.808 244.864 138.94 242.287 135.158L241.144 135.937C243.976 140.092 247.916 142.191 252.899 142.191V140.808ZM241.024 135.548V140.59H242.407V135.548H241.024ZM240.948 120.157C240.948 125.013 241.604 128.663 243.021 130.98L244.201 130.259C242.991 128.28 242.332 124.954 242.332 120.157H240.948ZM243.021 130.98C245.277 134.669 248.392 136.581 252.33 136.581V135.198C248.94 135.198 246.242 133.597 244.201 130.259L243.021 130.98ZM252.33 136.581C255.545 136.581 258.307 135.179 260.593 132.468L259.535 131.577C257.474 134.021 255.081 135.198 252.33 135.198V136.581ZM260.595 132.465C262.914 129.688 264.016 125.635 264.016 120.422H262.633C262.633 125.47 261.561 129.15 259.533 131.579L260.595 132.465ZM264.016 120.422C264.016 115.095 262.957 111.022 260.708 108.339L259.648 109.228C261.594 111.549 262.633 115.235 262.633 120.422H264.016ZM260.71 108.343C258.521 105.7 255.819 104.339 252.634 104.339V105.722C255.363 105.722 257.689 106.864 259.645 109.225L260.71 108.343ZM252.634 104.339C249.417 104.339 246.654 105.756 244.369 108.492L245.431 109.379C247.493 106.909 249.886 105.722 252.634 105.722V104.339ZM244.372 108.49C242.054 111.238 240.948 115.163 240.948 120.157H242.332C242.332 115.344 243.399 111.788 245.429 109.381L244.372 108.49ZM282.317 103.893L281.866 103.369L281.864 103.371L282.317 103.893ZM308.55 104.879L308.053 105.359L308.055 105.361L308.55 104.879ZM311.469 132.136L310.857 131.814L310.856 131.816L311.469 132.136ZM304.684 139.036L304.35 138.43L304.348 138.431L304.684 139.036ZM281.293 136.079L280.794 136.557L280.796 136.559L281.293 136.079ZM286.487 132.06L285.966 132.515L285.968 132.517L286.487 132.06ZM303.395 108.935L302.874 109.39L302.878 109.395L303.395 108.935ZM276.791 120.46C276.791 113.129 278.826 107.831 282.77 104.416L281.864 103.371C277.519 107.133 275.408 112.879 275.408 120.46H276.791ZM282.768 104.417C286.094 101.553 290.15 100.112 294.979 100.112V98.7285C289.85 98.7285 285.465 100.269 281.866 103.369L282.768 104.417ZM294.979 100.112C300.346 100.112 304.683 101.868 308.053 105.359L309.048 104.399C305.392 100.611 300.682 98.7285 294.979 98.7285V100.112ZM308.055 105.361C311.411 108.814 313.128 113.627 313.128 119.891H314.511C314.511 113.368 312.716 108.172 309.046 104.397L308.055 105.361ZM313.128 119.891C313.128 125.015 312.352 128.971 310.857 131.814L312.082 132.458C313.721 129.337 314.511 125.129 314.511 119.891H313.128ZM310.856 131.816C309.379 134.65 307.216 136.851 304.35 138.43L305.017 139.641C308.116 137.934 310.477 135.536 312.083 132.456L310.856 131.816ZM304.348 138.431C301.498 140.014 298.379 140.808 294.979 140.808V142.191C298.605 142.191 301.956 141.342 305.019 139.64L304.348 138.431ZM294.979 140.808C289.505 140.808 285.132 139.06 281.791 135.598L280.796 136.559C284.43 140.325 289.18 142.191 294.979 142.191V140.808ZM281.793 135.6C278.492 132.155 276.791 127.145 276.791 120.46H275.408C275.408 127.371 277.17 132.774 280.794 136.557L281.793 135.6ZM282.422 120.46C282.422 125.701 283.563 129.761 285.966 132.515L287.008 131.606C284.913 129.204 283.805 125.53 283.805 120.46H282.422ZM285.968 132.517C288.349 135.219 291.369 136.581 294.979 136.581V135.198C291.765 135.198 289.123 134.006 287.006 131.603L285.968 132.517ZM294.979 136.581C298.567 136.581 301.575 135.204 303.954 132.477L302.912 131.568C300.792 133.997 298.163 135.198 294.979 135.198V136.581ZM303.954 132.477C306.359 129.72 307.498 125.595 307.498 120.232H306.115C306.115 125.434 305.005 129.169 302.912 131.568L303.954 132.477ZM307.498 120.232C307.498 115.16 306.34 111.202 303.911 108.475L302.878 109.395C304.998 111.774 306.115 115.347 306.115 120.232H307.498ZM303.916 108.481C301.538 105.755 298.544 104.377 294.979 104.377V105.76C298.136 105.76 300.753 106.96 302.874 109.39L303.916 108.481ZM294.979 104.377C291.369 104.377 288.349 105.738 285.968 108.44L287.006 109.355C289.123 106.951 291.765 105.76 294.979 105.76V104.377ZM285.968 108.44C283.563 111.17 282.422 115.22 282.422 120.46H283.805C283.805 115.389 284.913 111.73 287.006 109.355L285.968 108.44ZM348.128 135.624L348.816 135.55L348.677 134.25L347.68 135.097L348.128 135.624ZM340.812 140.173L340.568 139.526L340.566 139.527L340.812 140.173ZM323.108 138.277L322.641 138.788L322.644 138.79L323.108 138.277ZM320.871 124.592L320.266 124.257L320.264 124.26L320.871 124.592ZM324.397 120.649L324.011 120.076L324.006 120.079L324.397 120.649ZM329.325 118.413L329.148 117.744L329.14 117.746L329.325 118.413ZM335.39 117.389L335.309 116.703L335.307 116.703L335.39 117.389ZM347.559 115.039L347.788 115.692L348.238 115.534L348.251 115.057L347.559 115.039ZM345.664 107.381L345.206 107.899L345.206 107.9L345.664 107.381ZM330.765 106.774L331.174 107.332L331.176 107.331L330.765 106.774ZM327.392 112.726L327.298 113.411L327.908 113.495L328.061 112.898L327.392 112.726ZM320.719 111.816L320.043 111.673L319.888 112.401L320.626 112.502L320.719 111.816ZM323.714 104.917L324.255 105.348L324.258 105.344L323.714 104.917ZM329.742 100.861L329.974 101.512L329.979 101.51L329.742 100.861ZM351.995 103.704L351.459 104.141L351.464 104.146L351.995 103.704ZM354.118 108.329L354.797 108.196L354.794 108.183L354.118 108.329ZM354.876 135.775L354.194 135.887L354.196 135.899L354.876 135.775ZM356.62 140.59V141.281H357.797L357.224 140.253L356.62 140.59ZM349.493 140.59L348.874 140.899L349.065 141.281H349.493V140.59ZM347.559 120.384H348.251V119.355L347.298 119.744L347.559 120.384ZM336.414 122.962L336.316 122.277L336.315 122.277L336.414 122.962ZM327.771 126.563L328.348 126.943L328.353 126.936L327.771 126.563ZM328.87 134.335L328.411 134.852L328.415 134.856L328.87 134.335ZM341.949 134.448L342.285 135.053L342.29 135.05L341.949 134.448ZM346.46 129.71L347.083 130.01L347.085 130.007L346.46 129.71ZM347.68 135.097C345.195 137.209 342.824 138.677 340.568 139.526L341.055 140.82C343.5 139.9 346.006 138.335 348.576 136.151L347.68 135.097ZM340.566 139.527C338.325 140.379 335.907 140.808 333.305 140.808V142.191C336.062 142.191 338.648 141.736 341.057 140.819L340.566 139.527ZM333.305 140.808C328.988 140.808 325.779 139.76 323.572 137.764L322.644 138.79C325.188 141.091 328.777 142.191 333.305 142.191V140.808ZM323.575 137.767C321.349 135.731 320.236 133.152 320.236 129.975H318.853C318.853 133.521 320.115 136.477 322.641 138.788L323.575 137.767ZM320.236 129.975C320.236 128.112 320.653 126.432 321.478 124.924L320.264 124.26C319.32 125.986 318.853 127.896 318.853 129.975H320.236ZM321.476 124.927C322.338 123.371 323.442 122.14 324.787 121.22L324.006 120.079C322.47 121.13 321.224 122.527 320.266 124.257L321.476 124.927ZM324.783 121.223C326.183 120.282 327.757 119.566 329.51 119.079L329.14 117.746C327.254 118.27 325.542 119.046 324.011 120.076L324.783 121.223ZM329.502 119.081C330.794 118.74 332.777 118.403 335.474 118.076L335.307 116.703C332.595 117.032 330.535 117.378 329.148 117.744L329.502 119.081ZM335.472 118.076C340.992 117.417 345.11 116.627 347.788 115.692L347.331 114.386C344.802 115.27 340.808 116.047 335.309 116.703L335.472 118.076ZM348.251 115.057C348.276 114.125 348.289 113.521 348.289 113.257H346.906C346.906 113.498 346.894 114.082 346.868 115.02L348.251 115.057ZM348.289 113.257C348.289 110.398 347.63 108.194 346.121 106.863L345.206 107.9C346.276 108.843 346.906 110.556 346.906 113.257H348.289ZM346.122 106.863C344.203 105.167 341.42 104.377 337.892 104.377V105.76C341.239 105.76 343.637 106.512 345.206 107.899L346.122 106.863ZM337.892 104.377C334.625 104.377 332.072 104.951 330.355 106.218L331.176 107.331C332.542 106.323 334.74 105.76 337.892 105.76V104.377ZM330.357 106.217C328.656 107.464 327.473 109.627 326.722 112.554L328.061 112.898C328.776 110.114 329.842 108.309 331.174 107.332L330.357 106.217ZM327.485 112.041L320.813 111.131L320.626 112.502L327.298 113.411L327.485 112.041ZM321.396 111.96C321.987 109.178 322.949 106.986 324.255 105.348L323.174 104.486C321.699 106.336 320.665 108.743 320.043 111.673L321.396 111.96ZM324.258 105.344C325.55 103.7 327.439 102.414 329.974 101.512L329.51 100.209C326.788 101.177 324.659 102.596 323.171 104.49L324.258 105.344ZM329.979 101.51C332.516 100.583 335.478 100.112 338.878 100.112V98.7285C335.353 98.7285 332.225 99.2172 329.505 100.211L329.979 101.51ZM338.878 100.112C342.269 100.112 344.971 100.512 347.013 101.28L347.5 99.9859C345.245 99.1371 342.361 98.7285 338.878 98.7285V100.112ZM347.013 101.28C349.093 102.064 350.552 103.03 351.459 104.141L352.531 103.266C351.416 101.901 349.715 100.82 347.5 99.9859L347.013 101.28ZM351.464 104.146C352.389 105.258 353.056 106.691 353.442 108.475L354.794 108.183C354.371 106.226 353.622 104.576 352.526 103.261L351.464 104.146ZM353.439 108.462C353.652 109.55 353.767 111.586 353.767 114.622H355.15C355.15 111.592 355.038 109.432 354.796 108.196L353.439 108.462ZM353.767 114.622V123.72H355.15V114.622H353.767ZM353.767 123.72C353.767 130.045 353.905 134.127 354.194 135.887L355.558 135.663C355.291 134.037 355.15 130.082 355.15 123.72H353.767ZM354.196 135.899C354.513 137.645 355.121 139.321 356.016 140.927L357.224 140.253C356.4 138.775 355.845 137.242 355.556 135.652L354.196 135.899ZM356.62 139.898H349.493V141.281H356.62V139.898ZM350.111 140.281C349.447 138.953 349.011 137.38 348.816 135.55L347.44 135.697C347.65 137.658 348.123 139.397 348.874 140.899L350.111 140.281ZM347.298 119.744C344.901 120.722 341.253 121.572 336.316 122.277L336.512 123.646C341.482 122.936 345.264 122.068 347.821 121.024L347.298 119.744ZM336.315 122.277C333.505 122.683 331.441 123.147 330.186 123.692L330.738 124.961C331.809 124.495 333.712 124.05 336.513 123.646L336.315 122.277ZM330.186 123.692C328.909 124.248 327.9 125.079 327.188 126.19L328.353 126.936C328.904 126.076 329.69 125.416 330.738 124.961L330.186 123.692ZM327.193 126.183C326.484 127.26 326.131 128.467 326.131 129.786H327.514C327.514 128.728 327.793 127.787 328.348 126.943L327.193 126.183ZM326.131 129.786C326.131 131.804 326.899 133.508 328.411 134.852L329.329 133.818C328.112 132.736 327.514 131.407 327.514 129.786H326.131ZM328.415 134.856C329.977 136.218 332.187 136.846 334.936 136.846V135.463C332.377 135.463 330.543 134.877 329.325 133.814L328.415 134.856ZM334.936 136.846C337.667 136.846 340.123 136.254 342.285 135.053L341.613 133.844C339.681 134.917 337.461 135.463 334.936 135.463V136.846ZM342.29 135.05C344.452 133.822 346.058 132.141 347.083 130.01L345.837 129.41C344.941 131.272 343.54 132.75 341.607 133.847L342.29 135.05ZM347.085 130.007C347.883 128.327 348.251 125.929 348.251 122.886H346.868C346.868 125.858 346.503 128.01 345.836 129.413L347.085 130.007ZM348.251 122.886V120.384H346.868V122.886H348.251ZM364.998 140.59H364.306V141.281H364.998V140.59ZM364.998 100.33V99.6383H364.306V100.33H364.998ZM371.139 100.33H371.831V99.6383H371.139V100.33ZM371.139 106.433H370.448V109.131L371.745 106.766L371.139 106.433ZM375.461 100.785L375.072 100.213L375.067 100.216L375.461 100.785ZM386.872 101.619L387.52 101.859L387.717 101.328L387.235 101.03L386.872 101.619ZM384.521 107.95L384.17 108.545L384.882 108.966L385.17 108.19L384.521 107.95ZM375.499 107.836L375.912 108.391L375.919 108.385L375.499 107.836ZM372.959 111.551L372.3 111.342L372.299 111.345L372.959 111.551ZM371.822 140.59V141.281H372.513V140.59H371.822ZM365.689 140.59V100.33H364.306V140.59H365.689ZM364.998 101.021H371.139V99.6383H364.998V101.021ZM370.448 100.33V106.433H371.831V100.33H370.448ZM371.745 106.766C373.304 103.926 374.68 102.166 375.855 101.353L375.067 100.216C373.613 101.223 372.109 103.229 370.533 106.101L371.745 106.766ZM375.849 101.357C377.076 100.523 378.407 100.112 379.858 100.112V98.7285C378.125 98.7285 376.524 99.2264 375.072 100.213L375.849 101.357ZM379.858 100.112C382.005 100.112 384.219 100.794 386.509 102.207L387.235 101.03C384.773 99.5115 382.311 98.7285 379.858 98.7285V100.112ZM386.223 101.378L383.873 107.709L385.17 108.19L387.52 101.859L386.223 101.378ZM384.873 107.354C383.116 106.316 381.328 105.78 379.517 105.78V107.163C381.043 107.163 382.591 107.612 384.17 108.545L384.873 107.354ZM379.517 105.78C377.874 105.78 376.386 106.285 375.078 107.287L375.919 108.385C376.987 107.567 378.179 107.163 379.517 107.163V105.78ZM375.086 107.281C373.767 108.263 372.843 109.63 372.3 111.342L373.618 111.76C374.085 110.288 374.855 109.178 375.912 108.391L375.086 107.281ZM372.299 111.345C371.517 113.846 371.13 116.57 371.13 119.512H372.513C372.513 116.692 372.884 114.109 373.619 111.757L372.299 111.345ZM371.13 119.512V140.59H372.513V119.512H371.13ZM371.822 139.898H364.998V141.281H371.822V139.898ZM417.048 140.59H416.356V141.281H417.048V140.59ZM417.048 135.51H417.739V133.144L416.465 135.138L417.048 135.51ZM396.918 138.846L396.537 139.423L396.539 139.425L396.918 138.846ZM390.663 131.454L390.034 131.743L390.037 131.749L390.663 131.454ZM390.473 109.58L391.113 109.843L391.113 109.841L390.473 109.58ZM411.968 100.974L411.636 101.581L411.642 101.584L411.968 100.974ZM416.593 104.955L416.032 105.36L417.284 107.091V104.955H416.593ZM416.593 85.0144V84.3228H415.901V85.0144H416.593ZM423.379 85.0144H424.07V84.3228H423.379V85.0144ZM423.379 140.59V141.281H424.07V140.59H423.379ZM414.015 132.25L413.49 131.8L413.489 131.801L414.015 132.25ZM398.51 108.784L397.977 108.343L397.974 108.346L398.51 108.784ZM417.739 140.59V135.51H416.356V140.59H417.739ZM416.465 135.138C414.046 138.921 410.519 140.808 405.789 140.808V142.191C410.965 142.191 414.944 140.085 417.63 135.882L416.465 135.138ZM405.789 140.808C402.714 140.808 399.889 139.963 397.296 138.267L396.539 139.425C399.355 141.267 402.443 142.191 405.789 142.191V140.808ZM397.299 138.269C394.735 136.576 392.73 134.213 391.288 131.158L390.037 131.749C391.578 135.012 393.743 137.578 396.537 139.423L397.299 138.269ZM391.291 131.164C389.873 128.085 389.155 124.535 389.155 120.498H387.772C387.772 124.7 388.52 128.453 390.034 131.743L391.291 131.164ZM389.155 120.498C389.155 116.557 389.812 113.009 391.113 109.843L389.833 109.317C388.455 112.671 387.772 116.402 387.772 120.498H389.155ZM391.113 109.841C392.406 106.671 394.33 104.274 396.878 102.615L396.123 101.456C393.314 103.285 391.219 105.918 389.833 109.319L391.113 109.841ZM396.878 102.615C399.441 100.947 402.303 100.112 405.485 100.112V98.7285C402.046 98.7285 398.919 99.6366 396.123 101.456L396.878 102.615ZM405.485 100.112C407.81 100.112 409.854 100.607 411.636 101.581L412.3 100.368C410.29 99.2692 408.013 98.7285 405.485 98.7285V100.112ZM411.642 101.584C413.451 102.549 414.91 103.808 416.032 105.36L417.153 104.55C415.9 102.816 414.276 101.422 412.293 100.364L411.642 101.584ZM417.284 104.955V85.0144H415.901V104.955H417.284ZM416.593 85.7059H423.379V84.3228H416.593V85.7059ZM422.687 85.0144V140.59H424.07V85.0144H422.687ZM423.379 139.898H417.048V141.281H423.379V139.898ZM394.786 120.498C394.786 125.733 395.887 129.779 398.211 132.508L399.264 131.612C397.241 129.236 396.169 125.574 396.169 120.498H394.786ZM398.211 132.508C400.496 135.192 403.245 136.581 406.433 136.581V135.198C403.707 135.198 401.326 134.033 399.264 131.612L398.211 132.508ZM406.433 136.581C409.633 136.581 412.347 135.267 414.541 132.699L413.489 131.801C411.538 134.085 409.197 135.198 406.433 135.198V136.581ZM414.54 132.699C416.791 130.07 417.853 126.149 417.853 121.066H416.47C416.47 125.992 415.435 129.527 413.49 131.8L414.54 132.699ZM417.853 121.066C417.853 115.493 416.784 111.256 414.511 108.496L413.443 109.375C415.416 111.771 416.47 115.621 416.47 121.066H417.853ZM414.511 108.496C412.268 105.772 409.462 104.377 406.13 104.377V105.76C409.015 105.76 411.441 106.943 413.443 109.375L414.511 108.496ZM406.13 104.377C402.877 104.377 400.146 105.718 397.977 108.343L399.043 109.224C400.968 106.896 403.317 105.76 406.13 105.76V104.377ZM397.974 108.346C395.803 111.006 394.786 115.104 394.786 120.498H396.169C396.169 115.227 397.173 111.515 399.046 109.221L397.974 108.346Z" fill="white"/>
<path d="M21.82 147.18H0V69.4102L21.82 88.2202V147.18Z" fill="url(#paint0_linear_457_12443)"/>
<path d="M100.36 94.6797H78.5195V147.19H100.36V94.6797Z" fill="url(#paint1_linear_457_12443)"/>
<path d="M61.1496 78.0498L45.7096 91.5698L0.349609 51.8498L15.7896 38.3398L61.1496 78.0498Z" fill="url(#paint2_linear_457_12443)"/>
<path d="M161.62 22.2998L88.16 86.5598L43.5 46.0898L58.93 32.5798L88.88 58.7998L146.19 8.75977L161.62 22.2998Z" fill="url(#paint3_linear_457_12443)"/>
<path d="M75.8701 30.74L91.2901 44.27L126.5 13.54L111.08 0L75.8701 30.74Z" fill="url(#paint4_linear_457_12443)"/>
<defs>
<linearGradient id="paint0_linear_457_12443" x1="0" y1="108.3" x2="21.82" y2="108.3" gradientUnits="userSpaceOnUse">
<stop offset="0.01" stop-color="white"/>
<stop offset="1" stop-color="white"/>
</linearGradient>
<linearGradient id="paint1_linear_457_12443" x1="1793.4" y1="6444.71" x2="2270.16" y2="6444.71" gradientUnits="userSpaceOnUse">
<stop offset="0.01" stop-color="white"/>
<stop offset="1" stop-color="#067AE5"/>
</linearGradient>
<linearGradient id="paint2_linear_457_12443" x1="21.6296" y1="3495.63" x2="3718.27" y2="3495.63" gradientUnits="userSpaceOnUse">
<stop offset="0.01" stop-color="white"/>
<stop offset="1" stop-color="#067AE5"/>
</linearGradient>
<linearGradient id="paint3_linear_457_12443" x1="5181.72" y1="3716.71" x2="19134.1" y2="3716.71" gradientUnits="userSpaceOnUse">
<stop offset="0.01" stop-color="white"/>
<stop offset="1" stop-color="#067AE5"/>
</linearGradient>
<linearGradient id="paint4_linear_457_12443" x1="3917.17" y1="980.138" x2="6480.57" y2="980.138" gradientUnits="userSpaceOnUse">
<stop offset="0.01" stop-color="white"/>
<stop offset="1" stop-color="#067AE5"/>
</linearGradient>
</defs>
</svg>
