<svg width="429" height="161" viewBox="0 0 429 161" fill="none" xmlns="http://www.w3.org/2000/svg">
<path d="M145.676 136.486L146.662 142.514C144.741 142.918 143.023 143.121 141.506 143.121C139.03 143.121 137.109 142.729 135.744 141.945C134.379 141.162 133.419 140.138 132.863 138.875C132.307 137.586 132.029 134.894 132.029 130.8V107.637H127.025V102.33H132.029V92.3596L138.815 88.2654V102.33H145.676V107.637H138.815V131.179C138.815 133.125 138.929 134.376 139.156 134.932C139.409 135.488 139.8 135.93 140.331 136.259C140.887 136.587 141.671 136.752 142.682 136.752C143.44 136.752 144.438 136.663 145.676 136.486ZM178.658 137.624C176.13 139.772 173.692 141.288 171.341 142.173C169.016 143.057 166.514 143.5 163.835 143.5C159.412 143.5 156.013 142.426 153.637 140.277C151.262 138.104 150.074 135.336 150.074 131.975C150.074 130.004 150.516 128.209 151.401 126.592C152.311 124.949 153.486 123.635 154.926 122.649C156.392 121.664 158.035 120.918 159.855 120.413C161.194 120.059 163.216 119.718 165.92 119.389C171.43 118.732 175.486 117.949 178.089 117.039C178.114 116.104 178.127 115.51 178.127 115.257C178.127 112.477 177.483 110.518 176.194 109.381C174.45 107.839 171.859 107.069 168.422 107.069C165.213 107.069 162.837 107.637 161.295 108.774C159.779 109.886 158.654 111.87 157.921 114.726L151.249 113.816C151.856 110.961 152.854 108.661 154.244 106.917C155.634 105.148 157.643 103.796 160.272 102.861C162.9 101.9 165.945 101.42 169.408 101.42C172.845 101.42 175.638 101.824 177.786 102.633C179.934 103.442 181.514 104.465 182.525 105.704C183.535 106.917 184.243 108.459 184.648 110.329C184.875 111.491 184.989 113.589 184.989 116.622V125.72C184.989 132.064 185.128 136.082 185.406 137.775C185.709 139.443 186.29 141.048 187.15 142.59H180.023C179.315 141.175 178.86 139.519 178.658 137.624ZM178.089 122.384C175.612 123.395 171.897 124.254 166.944 124.962C164.138 125.366 162.154 125.821 160.992 126.327C159.829 126.832 158.932 127.578 158.3 128.563C157.668 129.524 157.353 130.598 157.353 131.786C157.353 133.605 158.035 135.122 159.4 136.335C160.79 137.548 162.812 138.154 165.465 138.154C168.094 138.154 170.431 137.586 172.479 136.448C174.526 135.286 176.029 133.706 176.99 131.71C177.723 130.168 178.089 127.894 178.089 124.886V122.384ZM191.054 142.59L205.763 121.664L192.154 102.33H200.683L206.863 111.769C208.025 113.564 208.96 115.067 209.668 116.281C210.78 114.613 211.803 113.134 212.739 111.845L219.524 102.33H227.675L213.762 121.285L228.736 142.59H220.358L212.094 130.08L209.895 126.706L199.319 142.59H191.054ZM240.716 142.59H234.385V87.0144H241.209V106.841C244.09 103.227 247.767 101.42 252.24 101.42C254.717 101.42 257.055 101.925 259.254 102.936C261.478 103.922 263.297 105.325 264.713 107.144C266.153 108.939 267.278 111.112 268.087 113.665C268.895 116.217 269.3 118.947 269.3 121.853C269.3 128.753 267.594 134.085 264.182 137.851C260.77 141.617 256.676 143.5 251.899 143.5C247.148 143.5 243.42 141.516 240.716 137.548V142.59ZM240.64 122.157C240.64 126.984 241.297 130.471 242.611 132.62C244.759 136.133 247.666 137.889 251.33 137.889C254.313 137.889 256.891 136.6 259.064 134.022C261.238 131.419 262.324 127.552 262.324 122.422C262.324 117.165 261.275 113.286 259.178 110.784C257.105 108.282 254.591 107.031 251.634 107.031C248.652 107.031 246.074 108.332 243.9 110.935C241.727 113.513 240.64 117.254 240.64 122.157ZM275.1 122.46C275.1 115.004 277.172 109.482 281.317 105.893C284.779 102.911 289 101.42 293.979 101.42C299.514 101.42 304.037 103.24 307.55 106.879C311.063 110.493 312.82 115.497 312.82 121.891C312.82 127.072 312.036 131.154 310.469 134.136C308.928 137.093 306.666 139.393 303.684 141.036C300.727 142.678 297.492 143.5 293.979 143.5C288.343 143.5 283.781 141.693 280.293 138.079C276.831 134.465 275.1 129.258 275.1 122.46ZM282.113 122.46C282.113 127.616 283.238 131.482 285.487 134.06C287.736 136.613 290.567 137.889 293.979 137.889C297.365 137.889 300.183 136.6 302.433 134.022C304.682 131.444 305.807 127.514 305.807 122.232C305.807 117.254 304.669 113.488 302.395 110.935C300.145 108.357 297.34 107.069 293.979 107.069C290.567 107.069 287.736 108.345 285.487 110.897C283.238 113.45 282.113 117.304 282.113 122.46ZM347.128 137.624C344.601 139.772 342.162 141.288 339.812 142.173C337.486 143.057 334.984 143.5 332.305 143.5C327.883 143.5 324.483 142.426 322.108 140.277C319.732 138.104 318.544 135.336 318.544 131.975C318.544 130.004 318.987 128.209 319.871 126.592C320.781 124.949 321.956 123.635 323.397 122.649C324.863 121.664 326.505 120.918 328.325 120.413C329.664 120.059 331.686 119.718 334.39 119.389C339.9 118.732 343.956 117.949 346.559 117.039C346.585 116.104 346.597 115.51 346.597 115.257C346.597 112.477 345.953 110.518 344.664 109.381C342.92 107.839 340.33 107.069 336.892 107.069C333.683 107.069 331.307 107.637 329.765 108.774C328.249 109.886 327.124 111.87 326.392 114.726L319.719 113.816C320.326 110.961 321.324 108.661 322.714 106.917C324.104 105.148 326.114 103.796 328.742 102.861C331.37 101.9 334.416 101.42 337.878 101.42C341.315 101.42 344.108 101.824 346.256 102.633C348.404 103.442 349.984 104.465 350.995 105.704C352.006 106.917 352.713 108.459 353.118 110.329C353.345 111.491 353.459 113.589 353.459 116.622V125.72C353.459 132.064 353.598 136.082 353.876 137.775C354.179 139.443 354.761 141.048 355.62 142.59H348.493C347.785 141.175 347.33 139.519 347.128 137.624ZM346.559 122.384C344.083 123.395 340.368 124.254 335.414 124.962C332.609 125.366 330.625 125.821 329.462 126.327C328.3 126.832 327.402 127.578 326.771 128.563C326.139 129.524 325.823 130.598 325.823 131.786C325.823 133.605 326.505 135.122 327.87 136.335C329.26 137.548 331.282 138.154 333.936 138.154C336.564 138.154 338.902 137.586 340.949 136.448C342.996 135.286 344.5 133.706 345.46 131.71C346.193 130.168 346.559 127.894 346.559 124.886V122.384ZM363.998 142.59V102.33H370.139V108.433C371.706 105.577 373.147 103.695 374.461 102.785C375.8 101.875 377.266 101.42 378.858 101.42C381.158 101.42 383.496 102.153 385.872 103.619L383.521 109.95C381.853 108.964 380.185 108.471 378.517 108.471C377.026 108.471 375.687 108.926 374.499 109.836C373.311 110.721 372.464 111.959 371.959 113.551C371.201 115.977 370.822 118.631 370.822 121.512V142.59H363.998ZM416.048 142.59V137.51C413.495 141.503 409.742 143.5 404.789 143.5C401.579 143.5 398.622 142.615 395.918 140.846C393.239 139.077 391.154 136.613 389.663 133.454C388.197 130.269 387.464 126.617 387.464 122.498C387.464 118.479 388.134 114.84 389.473 111.58C390.813 108.294 392.822 105.78 395.501 104.036C398.18 102.292 401.175 101.42 404.485 101.42C406.912 101.42 409.072 101.938 410.968 102.974C412.863 103.985 414.405 105.312 415.593 106.955V87.0144H422.379V142.59H416.048ZM394.477 122.498C394.477 127.653 395.564 131.508 397.737 134.06C399.911 136.613 402.476 137.889 405.433 137.889C408.415 137.889 410.943 136.676 413.015 134.25C415.113 131.798 416.161 128.07 416.161 123.066C416.161 117.557 415.1 113.513 412.977 110.935C410.854 108.357 408.238 107.069 405.13 107.069C402.097 107.069 399.557 108.307 397.51 110.784C395.488 113.26 394.477 117.165 394.477 122.498Z" fill="#303030"/>
<path d="M145.676 136.486L146.359 136.375L146.25 135.706L145.579 135.802L145.676 136.486ZM146.662 142.514L146.805 143.191L147.451 143.055L147.345 142.402L146.662 142.514ZM132.863 138.875L132.228 139.149L132.23 139.153L132.863 138.875ZM132.029 107.637H132.72V106.946H132.029V107.637ZM127.025 107.637H126.333V108.329H127.025V107.637ZM127.025 102.33V101.638H126.333V102.33H127.025ZM132.029 102.33V103.021H132.72V102.33H132.029ZM132.029 92.3596L131.672 91.7675L131.337 91.9692V92.3596H132.029ZM138.815 88.2654H139.506V87.0405L138.458 87.6733L138.815 88.2654ZM138.815 102.33H138.123V103.021H138.815V102.33ZM145.676 102.33H146.368V101.638H145.676V102.33ZM145.676 107.637V108.329H146.368V107.637H145.676ZM138.815 107.637V106.946H138.123V107.637H138.815ZM139.156 134.932L138.516 135.194L138.521 135.206L138.526 135.218L139.156 134.932ZM140.331 136.259L139.967 136.847L139.973 136.851L139.979 136.854L140.331 136.259ZM144.994 136.598L145.98 142.626L147.345 142.402L146.359 136.375L144.994 136.598ZM146.52 141.837C144.633 142.235 142.963 142.429 141.506 142.429V143.812C143.082 143.812 144.85 143.602 146.805 143.191L146.52 141.837ZM141.506 142.429C139.087 142.429 137.305 142.044 136.088 141.346L135.4 142.545C136.913 143.414 138.972 143.812 141.506 143.812V142.429ZM136.088 141.346C134.833 140.625 133.984 139.706 133.496 138.596L132.23 139.153C132.854 140.57 133.926 141.699 135.4 142.545L136.088 141.346ZM133.498 138.601C133.263 138.056 133.062 137.146 132.925 135.818C132.79 134.505 132.72 132.834 132.72 130.8H131.337C131.337 132.86 131.407 134.582 131.55 135.96C131.69 137.324 131.907 138.405 132.228 139.149L133.498 138.601ZM132.72 130.8V107.637H131.337V130.8H132.72ZM132.029 106.946H127.025V108.329H132.029V106.946ZM127.716 107.637V102.33H126.333V107.637H127.716ZM127.025 103.021H132.029V101.638H127.025V103.021ZM132.72 102.33V92.3596H131.337V102.33H132.72ZM132.386 92.9517L139.172 88.8575L138.458 87.6733L131.672 91.7675L132.386 92.9517ZM138.123 88.2654V102.33H139.506V88.2654H138.123ZM138.815 103.021H145.676V101.638H138.815V103.021ZM144.985 102.33V107.637H146.368V102.33H144.985ZM145.676 106.946H138.815V108.329H145.676V106.946ZM138.123 107.637V131.179H139.506V107.637H138.123ZM138.123 131.179C138.123 132.163 138.152 132.985 138.211 133.639C138.269 134.276 138.361 134.815 138.516 135.194L139.796 134.67C139.724 134.493 139.645 134.129 139.589 133.514C139.535 132.918 139.506 132.141 139.506 131.179H138.123ZM138.526 135.218C138.837 135.902 139.323 136.448 139.967 136.847L140.695 135.671C140.278 135.413 139.98 135.074 139.786 134.646L138.526 135.218ZM139.979 136.854C140.686 137.272 141.611 137.443 142.682 137.443V136.06C141.731 136.06 141.088 135.903 140.683 135.664L139.979 136.854ZM142.682 137.443C143.487 137.443 144.521 137.35 145.774 137.171L145.579 135.802C144.355 135.977 143.393 136.06 142.682 136.06V137.443ZM178.658 137.624L179.345 137.55L179.207 136.25L178.21 137.097L178.658 137.624ZM171.341 142.173L171.098 141.526L171.095 141.527L171.341 142.173ZM153.637 140.277L153.171 140.788L153.174 140.79L153.637 140.277ZM151.401 126.592L150.796 126.257L150.794 126.26L151.401 126.592ZM154.926 122.649L154.54 122.076L154.536 122.079L154.926 122.649ZM159.855 120.413L159.678 119.744L159.67 119.746L159.855 120.413ZM165.92 119.389L165.838 118.703L165.837 118.703L165.92 119.389ZM178.089 117.039L178.317 117.692L178.768 117.534L178.78 117.057L178.089 117.039ZM176.194 109.381L175.736 109.899L175.736 109.9L176.194 109.381ZM161.295 108.774L161.704 109.332L161.706 109.331L161.295 108.774ZM157.921 114.726L157.828 115.411L158.438 115.495L158.591 114.898L157.921 114.726ZM151.249 113.816L150.573 113.673L150.418 114.401L151.156 114.502L151.249 113.816ZM154.244 106.917L154.785 107.348L154.788 107.344L154.244 106.917ZM160.272 102.861L160.503 103.512L160.509 103.51L160.272 102.861ZM182.525 105.704L181.989 106.141L181.993 106.146L182.525 105.704ZM184.648 110.329L185.326 110.196L185.323 110.183L184.648 110.329ZM185.406 137.775L184.723 137.887L184.725 137.899L185.406 137.775ZM187.15 142.59V143.281H188.327L187.754 142.253L187.15 142.59ZM180.023 142.59L179.404 142.899L179.595 143.281H180.023V142.59ZM178.089 122.384H178.781V121.355L177.828 121.744L178.089 122.384ZM166.944 124.962L166.846 124.277L166.845 124.277L166.944 124.962ZM158.3 128.563L158.878 128.943L158.882 128.936L158.3 128.563ZM159.4 136.335L158.94 136.852L158.945 136.856L159.4 136.335ZM172.479 136.448L172.814 137.053L172.82 137.05L172.479 136.448ZM176.99 131.71L177.613 132.01L177.614 132.007L176.99 131.71ZM178.21 137.097C175.725 139.209 173.354 140.677 171.098 141.526L171.585 142.82C174.029 141.9 176.536 140.335 179.106 138.151L178.21 137.097ZM171.095 141.527C168.855 142.379 166.437 142.808 163.835 142.808V144.191C166.592 144.191 169.178 143.736 171.587 142.819L171.095 141.527ZM163.835 142.808C159.518 142.808 156.308 141.76 154.101 139.764L153.174 140.79C155.718 143.091 159.307 144.191 163.835 144.191V142.808ZM154.104 139.767C151.879 137.731 150.765 135.152 150.765 131.975H149.382C149.382 135.521 150.645 138.477 153.171 140.788L154.104 139.767ZM150.765 131.975C150.765 130.112 151.182 128.432 152.007 126.924L150.794 126.26C149.85 127.986 149.382 129.896 149.382 131.975H150.765ZM152.006 126.927C152.867 125.371 153.972 124.14 155.317 123.22L154.536 122.079C153 123.13 151.754 124.527 150.796 126.257L152.006 126.927ZM155.312 123.223C156.712 122.282 158.287 121.566 160.04 121.079L159.67 119.746C157.783 120.27 156.072 121.046 154.541 122.076L155.312 123.223ZM160.031 121.081C161.323 120.74 163.307 120.403 166.004 120.076L165.837 118.703C163.125 119.032 161.065 119.378 159.678 119.744L160.031 121.081ZM166.002 120.076C171.522 119.417 175.64 118.627 178.317 117.692L177.861 116.386C175.332 117.27 171.337 118.047 165.838 118.703L166.002 120.076ZM178.78 117.057C178.806 116.125 178.819 115.521 178.819 115.257H177.436C177.436 115.498 177.423 116.082 177.398 117.02L178.78 117.057ZM178.819 115.257C178.819 112.398 178.16 110.194 176.651 108.863L175.736 109.9C176.805 110.843 177.436 112.556 177.436 115.257H178.819ZM176.652 108.863C174.733 107.167 171.949 106.377 168.422 106.377V107.76C171.769 107.76 174.167 108.512 175.736 109.899L176.652 108.863ZM168.422 106.377C165.155 106.377 162.602 106.951 160.885 108.218L161.706 109.331C163.072 108.323 165.27 107.76 168.422 107.76V106.377ZM160.886 108.217C159.186 109.464 158.003 111.627 157.251 114.554L158.591 114.898C159.306 112.114 160.372 110.309 161.704 109.332L160.886 108.217ZM158.015 114.041L151.343 113.131L151.156 114.502L157.828 115.411L158.015 114.041ZM151.926 113.96C152.516 111.178 153.479 108.986 154.785 107.348L153.703 106.486C152.229 108.336 151.195 110.743 150.573 113.673L151.926 113.96ZM154.788 107.344C156.08 105.7 157.969 104.414 160.503 103.512L160.04 102.209C157.318 103.177 155.188 104.596 153.7 106.49L154.788 107.344ZM160.509 103.51C163.046 102.583 166.008 102.112 169.408 102.112V100.728C165.883 100.728 162.754 101.217 160.034 102.211L160.509 103.51ZM169.408 102.112C172.799 102.112 175.501 102.512 177.542 103.28L178.03 101.986C175.775 101.137 172.891 100.728 169.408 100.728V102.112ZM177.542 103.28C179.623 104.064 181.082 105.03 181.989 106.141L183.06 105.266C181.946 103.901 180.245 102.82 178.03 101.986L177.542 103.28ZM181.993 106.146C182.919 107.258 183.586 108.691 183.972 110.475L185.323 110.183C184.9 108.226 184.152 106.576 183.056 105.261L181.993 106.146ZM183.969 110.462C184.182 111.55 184.297 113.586 184.297 116.622H185.68C185.68 113.592 185.568 111.432 185.326 110.196L183.969 110.462ZM184.297 116.622V125.72H185.68V116.622H184.297ZM184.297 125.72C184.297 132.045 184.434 136.127 184.723 137.887L186.088 137.663C185.821 136.037 185.68 132.082 185.68 125.72H184.297ZM184.725 137.899C185.043 139.645 185.651 141.321 186.546 142.927L187.754 142.253C186.93 140.775 186.375 139.242 186.086 137.652L184.725 137.899ZM187.15 141.898H180.023V143.281H187.15V141.898ZM180.641 142.281C179.977 140.953 179.541 139.38 179.345 137.55L177.97 137.697C178.179 139.658 178.653 141.397 179.404 142.899L180.641 142.281ZM177.828 121.744C175.431 122.722 171.783 123.572 166.846 124.277L167.042 125.646C172.012 124.936 175.794 124.068 178.35 123.024L177.828 121.744ZM166.845 124.277C164.035 124.683 161.971 125.147 160.716 125.692L161.268 126.961C162.338 126.495 164.242 126.05 167.042 125.646L166.845 124.277ZM160.716 125.692C159.439 126.248 158.43 127.079 157.718 128.19L158.882 128.936C159.434 128.076 160.22 127.416 161.268 126.961L160.716 125.692ZM157.723 128.183C157.014 129.26 156.661 130.467 156.661 131.786H158.044C158.044 130.728 158.323 129.787 158.878 128.943L157.723 128.183ZM156.661 131.786C156.661 133.804 157.428 135.508 158.94 136.852L159.859 135.818C158.641 134.736 158.044 133.407 158.044 131.786H156.661ZM158.945 136.856C160.506 138.218 162.717 138.846 165.465 138.846V137.463C162.907 137.463 161.073 136.877 159.854 135.814L158.945 136.856ZM165.465 138.846C168.197 138.846 170.652 138.254 172.814 137.053L172.143 135.844C170.21 136.917 167.991 137.463 165.465 137.463V138.846ZM172.82 137.05C174.981 135.822 176.588 134.141 177.613 132.01L176.367 131.41C175.471 133.272 174.07 134.75 172.137 135.847L172.82 137.05ZM177.614 132.007C178.413 130.327 178.781 127.929 178.781 124.886H177.398C177.398 127.858 177.032 130.01 176.365 131.413L177.614 132.007ZM178.781 124.886V122.384H177.398V124.886H178.781ZM191.054 142.59L190.488 142.192L189.723 143.281H191.054V142.59ZM205.763 121.664L206.329 122.061L206.609 121.663L206.329 121.266L205.763 121.664ZM192.154 102.33V101.638H190.821L191.588 102.728L192.154 102.33ZM200.683 102.33L201.262 101.951L201.057 101.638H200.683V102.33ZM206.863 111.769L207.443 111.393L207.441 111.391L206.863 111.769ZM209.668 116.281L209.071 116.629L209.629 117.586L210.243 116.664L209.668 116.281ZM212.739 111.845L213.298 112.251L213.302 112.247L212.739 111.845ZM219.524 102.33V101.638H219.168L218.961 101.928L219.524 102.33ZM227.675 102.33L228.232 102.739L229.04 101.638H227.675V102.33ZM213.762 121.285L213.205 120.875L212.911 121.276L213.196 121.682L213.762 121.285ZM228.736 142.59V143.281H230.068L229.302 142.192L228.736 142.59ZM220.358 142.59L219.781 142.971L219.986 143.281H220.358V142.59ZM212.094 130.08L211.515 130.457L211.517 130.461L212.094 130.08ZM209.895 126.706L210.475 126.328L209.902 125.449L209.32 126.322L209.895 126.706ZM199.319 142.59V143.281H199.689L199.894 142.973L199.319 142.59ZM191.62 142.988L206.329 122.061L205.197 121.266L190.488 142.192L191.62 142.988ZM206.329 121.266L192.719 101.932L191.588 102.728L205.198 122.062L206.329 121.266ZM192.154 103.021H200.683V101.638H192.154V103.021ZM200.105 102.709L206.284 112.148L207.441 111.391L201.262 101.951L200.105 102.709ZM206.282 112.145C207.442 113.935 208.37 115.429 209.071 116.629L210.265 115.932C209.55 114.706 208.609 113.193 207.443 111.393L206.282 112.145ZM210.243 116.664C211.351 115.002 212.37 113.531 213.298 112.251L212.179 111.439C211.237 112.737 210.208 114.223 209.092 115.897L210.243 116.664ZM213.302 112.247L220.087 102.731L218.961 101.928L212.176 111.444L213.302 112.247ZM219.524 103.021H227.675V101.638H219.524V103.021ZM227.117 101.921L213.205 120.875L214.32 121.694L228.232 102.739L227.117 101.921ZM213.196 121.682L228.171 142.987L229.302 142.192L214.328 120.887L213.196 121.682ZM228.736 141.898H220.358V143.281H228.736V141.898ZM220.935 142.209L212.671 129.699L211.517 130.461L219.781 142.971L220.935 142.209ZM212.673 129.702L210.475 126.328L209.316 127.083L211.515 130.457L212.673 129.702ZM209.32 126.322L198.743 142.207L199.894 142.973L210.471 127.089L209.32 126.322ZM199.319 141.898H191.054V143.281H199.319V141.898ZM240.716 142.59V143.281H241.407V142.59H240.716ZM234.385 142.59H233.693V143.281H234.385V142.59ZM234.385 87.0144V86.3228H233.693V87.0144H234.385ZM241.209 87.0144H241.9V86.3228H241.209V87.0144ZM241.209 106.841H240.517V108.818L241.749 107.272L241.209 106.841ZM259.254 102.936L258.965 103.565L258.973 103.569L259.254 102.936ZM264.713 107.144L264.167 107.569L264.173 107.577L264.713 107.144ZM264.182 137.851L263.669 137.387L263.669 137.387L264.182 137.851ZM240.716 137.548L241.287 137.158L240.024 135.305V137.548H240.716ZM242.611 132.62L243.201 132.259L243.201 132.259L242.611 132.62ZM259.064 134.022L259.593 134.468L259.595 134.465L259.064 134.022ZM259.178 110.784L258.645 111.225L258.648 111.228L259.178 110.784ZM243.9 110.935L244.429 111.381L244.431 111.379L243.9 110.935ZM240.716 141.898H234.385V143.281H240.716V141.898ZM235.076 142.59V87.0144H233.693V142.59H235.076ZM234.385 87.7059H241.209V86.3228H234.385V87.7059ZM240.517 87.0144V106.841H241.9V87.0144H240.517ZM241.749 107.272C244.504 103.816 247.985 102.112 252.24 102.112V100.728C247.549 100.728 243.675 102.638 240.668 106.41L241.749 107.272ZM252.24 102.112C254.62 102.112 256.859 102.596 258.965 103.565L259.542 102.308C257.251 101.255 254.814 100.728 252.24 100.728V102.112ZM258.973 103.569C261.099 104.511 262.825 105.844 264.167 107.569L265.258 106.72C263.769 104.805 261.856 103.333 259.534 102.304L258.973 103.569ZM264.173 107.577C265.552 109.295 266.64 111.389 267.427 113.874L268.746 113.456C267.915 110.835 266.754 108.582 265.252 106.711L264.173 107.577ZM267.427 113.874C268.213 116.353 268.608 119.012 268.608 121.853H269.991C269.991 118.882 269.578 116.082 268.746 113.456L267.427 113.874ZM268.608 121.853C268.608 128.643 266.93 133.788 263.669 137.387L264.694 138.315C268.257 134.383 269.991 128.862 269.991 121.853H268.608ZM263.669 137.387C260.379 141.018 256.467 142.808 251.899 142.808V144.191C256.885 144.191 261.161 142.215 264.694 138.315L263.669 137.387ZM251.899 142.808C247.379 142.808 243.864 140.94 241.287 137.158L240.144 137.937C242.976 142.092 246.916 144.191 251.899 144.191V142.808ZM240.024 137.548V142.59H241.407V137.548H240.024ZM239.948 122.157C239.948 127.013 240.604 130.663 242.021 132.98L243.201 132.259C241.991 130.28 241.332 126.954 241.332 122.157H239.948ZM242.021 132.98C244.277 136.669 247.392 138.581 251.33 138.581V137.198C247.94 137.198 245.242 135.597 243.201 132.259L242.021 132.98ZM251.33 138.581C254.545 138.581 257.307 137.179 259.593 134.468L258.535 133.577C256.474 136.021 254.081 137.198 251.33 137.198V138.581ZM259.595 134.465C261.914 131.688 263.016 127.635 263.016 122.422H261.633C261.633 127.47 260.561 131.15 258.533 133.579L259.595 134.465ZM263.016 122.422C263.016 117.095 261.957 113.022 259.708 110.339L258.648 111.228C260.594 113.549 261.633 117.235 261.633 122.422H263.016ZM259.71 110.343C257.521 107.7 254.819 106.339 251.634 106.339V107.722C254.363 107.722 256.689 108.864 258.645 111.225L259.71 110.343ZM251.634 106.339C248.417 106.339 245.654 107.756 243.369 110.492L244.431 111.379C246.493 108.909 248.886 107.722 251.634 107.722V106.339ZM243.372 110.49C241.054 113.238 239.948 117.163 239.948 122.157H241.332C241.332 117.344 242.399 113.788 244.429 111.381L243.372 110.49ZM281.317 105.893L280.866 105.369L280.864 105.371L281.317 105.893ZM307.55 106.879L307.053 107.359L307.055 107.361L307.55 106.879ZM310.469 134.136L309.857 133.814L309.856 133.816L310.469 134.136ZM303.684 141.036L303.35 140.43L303.348 140.431L303.684 141.036ZM280.293 138.079L279.794 138.557L279.796 138.559L280.293 138.079ZM285.487 134.06L284.966 134.515L284.968 134.517L285.487 134.06ZM302.395 110.935L301.874 111.39L301.878 111.395L302.395 110.935ZM275.791 122.46C275.791 115.129 277.826 109.831 281.77 106.416L280.864 105.371C276.519 109.133 274.408 114.879 274.408 122.46H275.791ZM281.768 106.417C285.094 103.553 289.15 102.112 293.979 102.112V100.728C288.85 100.728 284.465 102.269 280.866 105.369L281.768 106.417ZM293.979 102.112C299.346 102.112 303.683 103.868 307.053 107.359L308.048 106.399C304.392 102.611 299.682 100.728 293.979 100.728V102.112ZM307.055 107.361C310.411 110.814 312.128 115.627 312.128 121.891H313.511C313.511 115.368 311.716 110.172 308.046 106.397L307.055 107.361ZM312.128 121.891C312.128 127.015 311.352 130.971 309.857 133.814L311.082 134.458C312.721 131.337 313.511 127.129 313.511 121.891H312.128ZM309.856 133.816C308.379 136.65 306.216 138.851 303.35 140.43L304.017 141.641C307.116 139.934 309.477 137.536 311.083 134.456L309.856 133.816ZM303.348 140.431C300.498 142.014 297.379 142.808 293.979 142.808V144.191C297.605 144.191 300.956 143.342 304.019 141.64L303.348 140.431ZM293.979 142.808C288.505 142.808 284.132 141.06 280.791 137.598L279.796 138.559C283.43 142.325 288.18 144.191 293.979 144.191V142.808ZM280.793 137.6C277.492 134.155 275.791 129.145 275.791 122.46H274.408C274.408 129.371 276.17 134.774 279.794 138.557L280.793 137.6ZM281.422 122.46C281.422 127.701 282.563 131.761 284.966 134.515L286.008 133.606C283.913 131.204 282.805 127.53 282.805 122.46H281.422ZM284.968 134.517C287.349 137.219 290.369 138.581 293.979 138.581V137.198C290.765 137.198 288.123 136.006 286.006 133.603L284.968 134.517ZM293.979 138.581C297.567 138.581 300.575 137.204 302.954 134.477L301.912 133.568C299.792 135.997 297.163 137.198 293.979 137.198V138.581ZM302.954 134.477C305.359 131.72 306.498 127.595 306.498 122.232H305.115C305.115 127.434 304.005 131.169 301.912 133.568L302.954 134.477ZM306.498 122.232C306.498 117.16 305.34 113.202 302.911 110.475L301.878 111.395C303.998 113.774 305.115 117.347 305.115 122.232H306.498ZM302.916 110.481C300.538 107.755 297.544 106.377 293.979 106.377V107.76C297.136 107.76 299.753 108.96 301.874 111.39L302.916 110.481ZM293.979 106.377C290.369 106.377 287.349 107.738 284.968 110.44L286.006 111.355C288.123 108.951 290.765 107.76 293.979 107.76V106.377ZM284.968 110.44C282.563 113.17 281.422 117.22 281.422 122.46H282.805C282.805 117.389 283.913 113.73 286.006 111.355L284.968 110.44ZM347.128 137.624L347.816 137.55L347.677 136.25L346.68 137.097L347.128 137.624ZM339.812 142.173L339.568 141.526L339.566 141.527L339.812 142.173ZM322.108 140.277L321.641 140.788L321.644 140.79L322.108 140.277ZM319.871 126.592L319.266 126.257L319.264 126.26L319.871 126.592ZM323.397 122.649L323.011 122.076L323.006 122.079L323.397 122.649ZM328.325 120.413L328.148 119.744L328.14 119.746L328.325 120.413ZM334.39 119.389L334.309 118.703L334.307 118.703L334.39 119.389ZM346.559 117.039L346.788 117.692L347.238 117.534L347.251 117.057L346.559 117.039ZM344.664 109.381L344.206 109.899L344.206 109.9L344.664 109.381ZM329.765 108.774L330.174 109.332L330.176 109.331L329.765 108.774ZM326.392 114.726L326.298 115.411L326.908 115.495L327.061 114.898L326.392 114.726ZM319.719 113.816L319.043 113.673L318.888 114.401L319.626 114.502L319.719 113.816ZM322.714 106.917L323.255 107.348L323.258 107.344L322.714 106.917ZM328.742 102.861L328.974 103.512L328.979 103.51L328.742 102.861ZM350.995 105.704L350.459 106.141L350.464 106.146L350.995 105.704ZM353.118 110.329L353.797 110.196L353.794 110.183L353.118 110.329ZM353.876 137.775L353.194 137.887L353.196 137.899L353.876 137.775ZM355.62 142.59V143.281H356.797L356.224 142.253L355.62 142.59ZM348.493 142.59L347.874 142.899L348.065 143.281H348.493V142.59ZM346.559 122.384H347.251V121.355L346.298 121.744L346.559 122.384ZM335.414 124.962L335.316 124.277L335.315 124.277L335.414 124.962ZM326.771 128.563L327.348 128.943L327.353 128.936L326.771 128.563ZM327.87 136.335L327.411 136.852L327.415 136.856L327.87 136.335ZM340.949 136.448L341.285 137.053L341.29 137.05L340.949 136.448ZM345.46 131.71L346.083 132.01L346.085 132.007L345.46 131.71ZM346.68 137.097C344.195 139.209 341.824 140.677 339.568 141.526L340.055 142.82C342.5 141.9 345.006 140.335 347.576 138.151L346.68 137.097ZM339.566 141.527C337.325 142.379 334.907 142.808 332.305 142.808V144.191C335.062 144.191 337.648 143.736 340.057 142.819L339.566 141.527ZM332.305 142.808C327.988 142.808 324.779 141.76 322.572 139.764L321.644 140.79C324.188 143.091 327.777 144.191 332.305 144.191V142.808ZM322.575 139.767C320.349 137.731 319.236 135.152 319.236 131.975H317.853C317.853 135.521 319.115 138.477 321.641 140.788L322.575 139.767ZM319.236 131.975C319.236 130.112 319.653 128.432 320.478 126.924L319.264 126.26C318.32 127.986 317.853 129.896 317.853 131.975H319.236ZM320.476 126.927C321.338 125.371 322.442 124.14 323.787 123.22L323.006 122.079C321.47 123.13 320.224 124.527 319.266 126.257L320.476 126.927ZM323.783 123.223C325.183 122.282 326.757 121.566 328.51 121.079L328.14 119.746C326.254 120.27 324.542 121.046 323.011 122.076L323.783 123.223ZM328.502 121.081C329.794 120.74 331.777 120.403 334.474 120.076L334.307 118.703C331.595 119.032 329.535 119.378 328.148 119.744L328.502 121.081ZM334.472 120.076C339.992 119.417 344.11 118.627 346.788 117.692L346.331 116.386C343.802 117.27 339.808 118.047 334.309 118.703L334.472 120.076ZM347.251 117.057C347.276 116.125 347.289 115.521 347.289 115.257H345.906C345.906 115.498 345.894 116.082 345.868 117.02L347.251 117.057ZM347.289 115.257C347.289 112.398 346.63 110.194 345.121 108.863L344.206 109.9C345.276 110.843 345.906 112.556 345.906 115.257H347.289ZM345.122 108.863C343.203 107.167 340.42 106.377 336.892 106.377V107.76C340.239 107.76 342.637 108.512 344.206 109.899L345.122 108.863ZM336.892 106.377C333.625 106.377 331.072 106.951 329.355 108.218L330.176 109.331C331.542 108.323 333.74 107.76 336.892 107.76V106.377ZM329.357 108.217C327.656 109.464 326.473 111.627 325.722 114.554L327.061 114.898C327.776 112.114 328.842 110.309 330.174 109.332L329.357 108.217ZM326.485 114.041L319.813 113.131L319.626 114.502L326.298 115.411L326.485 114.041ZM320.396 113.96C320.987 111.178 321.949 108.986 323.255 107.348L322.174 106.486C320.699 108.336 319.665 110.743 319.043 113.673L320.396 113.96ZM323.258 107.344C324.55 105.7 326.439 104.414 328.974 103.512L328.51 102.209C325.788 103.177 323.659 104.596 322.171 106.49L323.258 107.344ZM328.979 103.51C331.516 102.583 334.478 102.112 337.878 102.112V100.728C334.353 100.728 331.225 101.217 328.505 102.211L328.979 103.51ZM337.878 102.112C341.269 102.112 343.971 102.512 346.013 103.28L346.5 101.986C344.245 101.137 341.361 100.728 337.878 100.728V102.112ZM346.013 103.28C348.093 104.064 349.552 105.03 350.459 106.141L351.531 105.266C350.416 103.901 348.715 102.82 346.5 101.986L346.013 103.28ZM350.464 106.146C351.389 107.258 352.056 108.691 352.442 110.475L353.794 110.183C353.371 108.226 352.622 106.576 351.526 105.261L350.464 106.146ZM352.439 110.462C352.652 111.55 352.767 113.586 352.767 116.622H354.15C354.15 113.592 354.038 111.432 353.796 110.196L352.439 110.462ZM352.767 116.622V125.72H354.15V116.622H352.767ZM352.767 125.72C352.767 132.045 352.905 136.127 353.194 137.887L354.558 137.663C354.291 136.037 354.15 132.082 354.15 125.72H352.767ZM353.196 137.899C353.513 139.645 354.121 141.321 355.016 142.927L356.224 142.253C355.4 140.775 354.845 139.242 354.556 137.652L353.196 137.899ZM355.62 141.898H348.493V143.281H355.62V141.898ZM349.111 142.281C348.447 140.953 348.011 139.38 347.816 137.55L346.44 137.697C346.65 139.658 347.123 141.397 347.874 142.899L349.111 142.281ZM346.298 121.744C343.901 122.722 340.253 123.572 335.316 124.277L335.512 125.646C340.482 124.936 344.264 124.068 346.821 123.024L346.298 121.744ZM335.315 124.277C332.505 124.683 330.441 125.147 329.186 125.692L329.738 126.961C330.809 126.495 332.712 126.05 335.513 125.646L335.315 124.277ZM329.186 125.692C327.909 126.248 326.9 127.079 326.188 128.19L327.353 128.936C327.904 128.076 328.69 127.416 329.738 126.961L329.186 125.692ZM326.193 128.183C325.484 129.26 325.131 130.467 325.131 131.786H326.514C326.514 130.728 326.793 129.787 327.348 128.943L326.193 128.183ZM325.131 131.786C325.131 133.804 325.899 135.508 327.411 136.852L328.329 135.818C327.112 134.736 326.514 133.407 326.514 131.786H325.131ZM327.415 136.856C328.977 138.218 331.187 138.846 333.936 138.846V137.463C331.377 137.463 329.543 136.877 328.325 135.814L327.415 136.856ZM333.936 138.846C336.667 138.846 339.123 138.254 341.285 137.053L340.613 135.844C338.681 136.917 336.461 137.463 333.936 137.463V138.846ZM341.29 137.05C343.452 135.822 345.058 134.141 346.083 132.01L344.837 131.41C343.941 133.272 342.54 134.75 340.607 135.847L341.29 137.05ZM346.085 132.007C346.883 130.327 347.251 127.929 347.251 124.886H345.868C345.868 127.858 345.503 130.01 344.836 131.413L346.085 132.007ZM347.251 124.886V122.384H345.868V124.886H347.251ZM363.998 142.59H363.306V143.281H363.998V142.59ZM363.998 102.33V101.638H363.306V102.33H363.998ZM370.139 102.33H370.831V101.638H370.139V102.33ZM370.139 108.433H369.448V111.131L370.745 108.766L370.139 108.433ZM374.461 102.785L374.072 102.213L374.067 102.216L374.461 102.785ZM385.872 103.619L386.52 103.859L386.717 103.328L386.235 103.03L385.872 103.619ZM383.521 109.95L383.17 110.545L383.882 110.966L384.17 110.19L383.521 109.95ZM374.499 109.836L374.912 110.391L374.919 110.385L374.499 109.836ZM371.959 113.551L371.3 113.342L371.299 113.345L371.959 113.551ZM370.822 142.59V143.281H371.513V142.59H370.822ZM364.689 142.59V102.33H363.306V142.59H364.689ZM363.998 103.021H370.139V101.638H363.998V103.021ZM369.448 102.33V108.433H370.831V102.33H369.448ZM370.745 108.766C372.304 105.926 373.68 104.166 374.855 103.353L374.067 102.216C372.613 103.223 371.109 105.229 369.533 108.101L370.745 108.766ZM374.849 103.357C376.076 102.523 377.407 102.112 378.858 102.112V100.728C377.125 100.728 375.524 101.226 374.072 102.213L374.849 103.357ZM378.858 102.112C381.005 102.112 383.219 102.794 385.509 104.207L386.235 103.03C383.773 101.512 381.311 100.728 378.858 100.728V102.112ZM385.223 103.378L382.873 109.709L384.17 110.19L386.52 103.859L385.223 103.378ZM383.873 109.354C382.116 108.316 380.328 107.78 378.517 107.78V109.163C380.043 109.163 381.591 109.612 383.17 110.545L383.873 109.354ZM378.517 107.78C376.874 107.78 375.386 108.285 374.078 109.287L374.919 110.385C375.987 109.567 377.179 109.163 378.517 109.163V107.78ZM374.086 109.281C372.767 110.263 371.843 111.63 371.3 113.342L372.618 113.76C373.085 112.288 373.855 111.178 374.912 110.391L374.086 109.281ZM371.299 113.345C370.517 115.846 370.13 118.57 370.13 121.512H371.513C371.513 118.692 371.884 116.109 372.619 113.757L371.299 113.345ZM370.13 121.512V142.59H371.513V121.512H370.13ZM370.822 141.898H363.998V143.281H370.822V141.898ZM416.048 142.59H415.356V143.281H416.048V142.59ZM416.048 137.51H416.739V135.144L415.465 137.138L416.048 137.51ZM395.918 140.846L395.537 141.423L395.539 141.425L395.918 140.846ZM389.663 133.454L389.034 133.743L389.037 133.749L389.663 133.454ZM389.473 111.58L390.113 111.843L390.113 111.841L389.473 111.58ZM410.968 102.974L410.636 103.581L410.642 103.584L410.968 102.974ZM415.593 106.955L415.032 107.36L416.284 109.091V106.955H415.593ZM415.593 87.0144V86.3228H414.901V87.0144H415.593ZM422.379 87.0144H423.07V86.3228H422.379V87.0144ZM422.379 142.59V143.281H423.07V142.59H422.379ZM413.015 134.25L412.49 133.8L412.489 133.801L413.015 134.25ZM397.51 110.784L396.977 110.343L396.974 110.346L397.51 110.784ZM416.739 142.59V137.51H415.356V142.59H416.739ZM415.465 137.138C413.046 140.921 409.519 142.808 404.789 142.808V144.191C409.965 144.191 413.944 142.085 416.63 137.882L415.465 137.138ZM404.789 142.808C401.714 142.808 398.889 141.963 396.296 140.267L395.539 141.425C398.355 143.267 401.443 144.191 404.789 144.191V142.808ZM396.299 140.269C393.735 138.576 391.73 136.213 390.288 133.158L389.037 133.749C390.578 137.012 392.743 139.578 395.537 141.423L396.299 140.269ZM390.291 133.164C388.873 130.085 388.155 126.535 388.155 122.498H386.772C386.772 126.7 387.52 130.453 389.034 133.743L390.291 133.164ZM388.155 122.498C388.155 118.557 388.812 115.009 390.113 111.843L388.833 111.317C387.455 114.671 386.772 118.402 386.772 122.498H388.155ZM390.113 111.841C391.406 108.671 393.33 106.274 395.878 104.615L395.123 103.456C392.314 105.285 390.219 107.918 388.833 111.319L390.113 111.841ZM395.878 104.615C398.441 102.947 401.303 102.112 404.485 102.112V100.728C401.046 100.728 397.919 101.637 395.123 103.456L395.878 104.615ZM404.485 102.112C406.81 102.112 408.854 102.607 410.636 103.581L411.3 102.368C409.29 101.269 407.013 100.728 404.485 100.728V102.112ZM410.642 103.584C412.451 104.549 413.91 105.808 415.032 107.36L416.153 106.55C414.9 104.816 413.276 103.422 411.293 102.364L410.642 103.584ZM416.284 106.955V87.0144H414.901V106.955H416.284ZM415.593 87.7059H422.379V86.3228H415.593V87.7059ZM421.687 87.0144V142.59H423.07V87.0144H421.687ZM422.379 141.898H416.048V143.281H422.379V141.898ZM393.786 122.498C393.786 127.733 394.887 131.779 397.211 134.508L398.264 133.612C396.241 131.236 395.169 127.574 395.169 122.498H393.786ZM397.211 134.508C399.496 137.192 402.245 138.581 405.433 138.581V137.198C402.707 137.198 400.326 136.033 398.264 133.612L397.211 134.508ZM405.433 138.581C408.633 138.581 411.347 137.267 413.541 134.699L412.489 133.801C410.538 136.085 408.197 137.198 405.433 137.198V138.581ZM413.54 134.699C415.791 132.07 416.853 128.149 416.853 123.066H415.47C415.47 127.992 414.435 131.527 412.49 133.8L413.54 134.699ZM416.853 123.066C416.853 117.493 415.784 113.256 413.511 110.496L412.443 111.375C414.416 113.771 415.47 117.621 415.47 123.066H416.853ZM413.511 110.496C411.268 107.772 408.462 106.377 405.13 106.377V107.76C408.015 107.76 410.441 108.943 412.443 111.375L413.511 110.496ZM405.13 106.377C401.877 106.377 399.146 107.718 396.977 110.343L398.043 111.224C399.968 108.896 402.317 107.76 405.13 107.76V106.377ZM396.974 110.346C394.803 113.006 393.786 117.104 393.786 122.498H395.169C395.169 117.227 396.173 113.515 398.046 111.221L396.974 110.346Z" fill="#303030"/>
<path d="M21.82 147.18H0V69.4102L21.82 88.2202V147.18Z" fill="url(#paint0_linear_457_12443)"/>
<path d="M100.36 94.6797H78.5195V147.19H100.36V94.6797Z" fill="url(#paint1_linear_457_12443)"/>
<path d="M61.1496 78.0498L45.7096 91.5698L0.349609 51.8498L15.7896 38.3398L61.1496 78.0498Z" fill="url(#paint2_linear_457_12443)"/>
<path d="M161.62 22.2998L88.16 86.5598L43.5 46.0898L58.93 32.5798L88.88 58.7998L146.19 8.75977L161.62 22.2998Z" fill="url(#paint3_linear_457_12443)"/>
<path d="M75.8701 30.74L91.2901 44.27L126.5 13.54L111.08 0L75.8701 30.74Z" fill="url(#paint4_linear_457_12443)"/>
<defs>
<linearGradient id="paint0_linear_457_12443" x1="0" y1="108.3" x2="21.82" y2="108.3" gradientUnits="userSpaceOnUse">
<stop offset="0.01" stop-color="#11BEEF"/>
<stop offset="1" stop-color="#067AE5"/>
</linearGradient>
<linearGradient id="paint1_linear_457_12443" x1="1793.4" y1="6444.71" x2="2270.16" y2="6444.71" gradientUnits="userSpaceOnUse">
<stop offset="0.01" stop-color="#11BEEF"/>
<stop offset="1" stop-color="#067AE5"/>
</linearGradient>
<linearGradient id="paint2_linear_457_12443" x1="21.6296" y1="3495.63" x2="3718.27" y2="3495.63" gradientUnits="userSpaceOnUse">
<stop offset="0.01" stop-color="#11BEEF"/>
<stop offset="1" stop-color="#067AE5"/>
</linearGradient>
<linearGradient id="paint3_linear_457_12443" x1="5181.72" y1="3716.71" x2="19134.1" y2="3716.71" gradientUnits="userSpaceOnUse">
<stop offset="0.01" stop-color="#11BEEF"/>
<stop offset="1" stop-color="#067AE5"/>
</linearGradient>
<linearGradient id="paint4_linear_457_12443" x1="3917.17" y1="980.138" x2="6480.57" y2="980.138" gradientUnits="userSpaceOnUse">
<stop offset="0.01" stop-color="#11BEEF"/>
<stop offset="1" stop-color="#067AE5"/>
</linearGradient>
</defs>
</svg>
