<svg width="38" height="38" viewBox="0 0 38 38" fill="none" xmlns="http://www.w3.org/2000/svg">
<g clip-path="url(#clip0)">
<path d="M35.9156 19.5959L36.2641 19.0333L35.9156 18.4703C35.8572 18.3763 34.4549 16.138 31.7308 13.8948C28.1075 10.9118 23.8391 9.33481 19.3865 9.33481C14.9351 9.33481 10.6562 10.9109 7.01224 13.8926C4.27248 16.1346 2.85439 18.3713 2.7954 18.4655L2.43945 19.0333L2.7954 19.601C2.85439 19.6952 4.27248 21.9319 7.01224 24.1739C10.6562 27.1556 14.9351 28.7317 19.3865 28.7317C23.8391 28.7317 28.1075 27.1548 31.7308 24.1717C34.4549 21.9285 35.8572 19.6902 35.9156 19.5959ZM30.2792 22.5633C27.0199 25.2269 23.3549 26.5772 19.3865 26.5772C15.4167 26.5772 11.7399 25.2261 8.45842 22.5608C6.76124 21.1824 5.6106 19.7867 5.04705 19.0333C5.61088 18.2793 6.76152 16.8838 8.45842 15.5055C11.7399 12.8405 15.4164 11.489 19.3865 11.489C23.3549 11.489 27.0196 12.8396 30.2792 15.5029C31.9687 16.8835 33.1094 18.2812 33.6653 19.0333C33.1089 19.7856 31.9684 21.1833 30.2792 22.5633Z" fill="#324CDD"/>
<path d="M19.3538 12.5611C15.7453 12.5611 12.8096 15.4645 12.8096 19.0333C12.8096 22.602 15.7453 25.5054 19.3538 25.5054C22.9623 25.5054 25.898 22.602 25.898 19.0333C25.898 15.4645 22.9623 12.5611 19.3538 12.5611ZM19.3538 23.3512C16.9464 23.3512 14.9878 21.4141 14.9878 19.0333C14.9878 16.6524 16.9464 14.7153 19.3538 14.7153C21.7612 14.7153 23.7198 16.6524 23.7198 19.0333C23.7198 21.4141 21.7612 23.3512 19.3538 23.3512Z" fill="#324CDD"/>
<path d="M2.9448 2.80485H7.49178V0.650635H0.766602V7.22099H2.9448V2.80485Z" fill="#324CDD"/>
<path d="M31.2158 0.650635V2.80485H35.7628V7.22099H37.941V0.650635H31.2158Z" fill="#324CDD"/>
<path d="M2.9448 30.8455H0.766602V37.4159H7.49178V35.2617H2.9448V30.8455Z" fill="#324CDD"/>
<path d="M35.7628 35.2617H31.2158V37.4159H37.941V30.8455H35.7628V35.2617Z" fill="#324CDD"/>
</g>
<defs>
<clipPath id="clip0">
<rect width="37.1745" height="36.7653" fill="white" transform="translate(0.766602 0.650635)"/>
</clipPath>
</defs>
</svg>
