<svg width="56" height="55" viewBox="0 0 56 55" fill="none" xmlns="http://www.w3.org/2000/svg">
<g clip-path="url(#clip0)">
<path d="M17.4764 12.1388H34.3441C34.7873 12.1388 35.1465 11.7834 35.1465 11.3451C35.1465 10.9067 34.7873 10.5514 34.3441 10.5514H17.4764C17.0331 10.5514 16.6738 10.9067 16.6738 11.3451C16.6738 11.7834 17.0331 12.1388 17.4764 12.1388Z" fill="#324CDD"/>
<path d="M2.39042 19.899H19.258C19.7012 19.899 20.0605 19.5437 20.0605 19.1053C20.0605 18.667 19.7012 18.3118 19.258 18.3118H2.39042C1.94718 18.3118 1.58789 18.667 1.58789 19.1053C1.58789 19.5437 1.94718 19.899 2.39042 19.899Z" fill="#324CDD"/>
<path d="M6.91895 28.065C6.91895 28.5034 7.27824 28.8588 7.72147 28.8588H24.5891C25.0323 28.8588 25.3916 28.5034 25.3916 28.065C25.3916 27.6267 25.0323 27.2714 24.5891 27.2714H7.72147C7.27824 27.2714 6.91895 27.6267 6.91895 28.065Z" fill="#324CDD"/>
<path d="M16.5724 37.2894H1.41678C0.97355 37.2894 0.614258 37.6446 0.614258 38.083C0.614258 38.5213 0.97355 38.8767 1.41678 38.8767H16.5724C17.0156 38.8767 17.3749 38.5213 17.3749 38.083C17.3749 37.6446 17.0156 37.2894 16.5724 37.2894Z" fill="#324CDD"/>
<path d="M43.842 17.1149C46.2627 17.1149 48.2252 15.1739 48.2252 12.7797C48.2252 10.3856 46.2626 8.44464 43.842 8.44464C41.4208 8.44464 39.458 10.3857 39.458 12.7797C39.4579 15.1739 41.4207 17.1149 43.842 17.1149Z" fill="#324CDD"/>
<path d="M51.0527 15.8666C48.5358 19.3534 45.1654 19.7572 41.5386 17.6278C41.2918 17.483 40.1964 16.8862 39.9539 16.7437C34.1195 13.3182 28.2919 14.6615 24.3837 20.0743C22.723 22.3764 26.564 24.5585 28.2061 22.2832C30.2254 19.4866 32.793 18.6774 35.6011 19.5632C34.1633 22.0315 32.9062 24.4848 31.1324 27.9704C29.3581 31.4559 25.4407 34.2394 21.6767 32.0624C18.9607 30.4924 16.5114 34.3513 19.2192 35.9164C24.358 38.8867 30.3834 37.0627 33.4594 33.2017C33.5661 33.2581 33.6788 33.309 33.8025 33.3518C36.3153 34.2176 39.6093 36.5228 40.613 37.3397C41.6163 38.1567 43.3403 42.3186 44.364 44.4097C45.606 46.947 49.6168 45.099 48.3703 42.5509C47.2098 40.1783 45.2619 35.4431 43.7426 34.2451C42.5238 33.2843 40.1577 31.496 38.1509 30.4816C39.5086 27.8807 40.9223 25.3079 42.4104 22.7795C47.1541 24.2169 51.6629 22.5237 54.8742 18.075C56.5363 15.7732 52.6961 13.5911 51.0527 15.8666Z" fill="#324CDD"/>
</g>
<defs>
<clipPath id="clip0">
<rect width="54.6684" height="54.0665" fill="white" transform="translate(0.614258)"/>
</clipPath>
</defs>
</svg>
