<svg width="75" height="75" viewBox="0 0 60 60" fill="none" xmlns="http://www.w3.org/2000/svg">
<path d="M4.4375 5.17708C4.4375 4.98093 4.51542 4.79282 4.65412 4.65412C4.79282 4.51542 4.98093 4.4375 5.17708 4.4375H45.1146C45.3107 4.4375 45.4989 4.51542 45.6376 4.65412C45.7762 4.79282 45.8542 4.98093 45.8542 5.17708V34.7604C45.8542 35.3489 46.0879 35.9132 46.504 36.3293C46.9201 36.7454 47.4845 36.9792 48.0729 36.9792C48.6614 36.9792 49.2257 36.7454 49.6418 36.3293C50.0579 35.9132 50.2917 35.3489 50.2917 34.7604V5.17708C50.2917 3.80404 49.7462 2.48722 48.7753 1.51633C47.8044 0.545441 46.4876 0 45.1146 0H5.17708C3.80404 0 2.48722 0.545441 1.51633 1.51633C0.545441 2.48722 0 3.80404 0 5.17708V53.9896C0 56.8473 2.31933 59.1667 5.17708 59.1667H25.8854C26.4739 59.1667 27.0382 58.9329 27.4543 58.5168C27.8704 58.1007 28.1042 57.5364 28.1042 56.9479C28.1042 56.3595 27.8704 55.7951 27.4543 55.379C27.0382 54.9629 26.4739 54.7292 25.8854 54.7292H5.17708C4.98093 54.7292 4.79282 54.6512 4.65412 54.5126C4.51542 54.3739 4.4375 54.1857 4.4375 53.9896V5.17708Z" fill="#1DA1F2"/>
<path d="M12.5781 14.7917C11.9897 14.7917 11.4253 15.0254 11.0092 15.4415C10.5931 15.8576 10.3594 16.422 10.3594 17.0104C10.3594 17.5989 10.5931 18.1632 11.0092 18.5793C11.4253 18.9954 11.9897 19.2292 12.5781 19.2292H37.724C38.3124 19.2292 38.8768 18.9954 39.2928 18.5793C39.7089 18.1632 39.9427 17.5989 39.9427 17.0104C39.9427 16.422 39.7089 15.8576 39.2928 15.4415C38.8768 15.0254 38.3124 14.7917 37.724 14.7917H12.5781ZM10.3594 28.8438C10.3594 28.2553 10.5931 27.691 11.0092 27.2749C11.4253 26.8588 11.9897 26.625 12.5781 26.625H25.8906C26.4791 26.625 27.0434 26.8588 27.4595 27.2749C27.8756 27.691 28.1094 28.2553 28.1094 28.8438C28.1094 29.4322 27.8756 29.9966 27.4595 30.4127C27.0434 30.8288 26.4791 31.0625 25.8906 31.0625H12.5781C11.9897 31.0625 11.4253 30.8288 11.0092 30.4127C10.5931 29.9966 10.3594 29.4322 10.3594 28.8438ZM58.521 42.245C58.739 42.0419 58.9139 41.7969 59.0351 41.5248C59.1564 41.2526 59.2216 40.9588 59.2269 40.6609C59.2321 40.363 59.1773 40.0671 59.0657 39.7908C58.9541 39.5145 58.788 39.2636 58.5774 39.0529C58.3667 38.8422 58.1157 38.6761 57.8394 38.5645C57.5632 38.4529 57.2672 38.3981 56.9693 38.4034C56.6714 38.4086 56.3776 38.4738 56.1054 38.5951C55.8333 38.7164 55.5883 38.8912 55.3852 39.1092L40.6823 53.8121L34.8544 47.9842C34.6512 47.7662 34.4063 47.5914 34.1341 47.4701C33.862 47.3488 33.5682 47.2836 33.2703 47.2784C32.9723 47.2731 32.6764 47.3279 32.4001 47.4395C32.1239 47.5511 31.8729 47.7172 31.6622 47.9279C31.4515 48.1386 31.2854 48.3895 31.1738 48.6658C31.0623 48.9421 31.0074 49.238 31.0127 49.5359C31.018 49.8338 31.0832 50.1276 31.2044 50.3998C31.3257 50.6719 31.5005 50.9169 31.7185 51.12L39.1144 58.5159C39.5304 58.9314 40.0943 59.1647 40.6823 59.1647C41.2703 59.1647 41.8342 58.9314 42.2502 58.5159L58.521 42.245Z" fill="#1DA1F2"/>
<path d="M22.5156 38.099C21.7135 38.099 20.9974 38.3308 20.3672 38.7943C19.737 39.2579 19.2318 39.9349 18.8516 40.8256C18.4766 41.711 18.2891 42.6849 18.2891 43.7474C18.2891 44.6849 18.5026 45.4037 18.9297 45.9037C19.362 46.3985 19.9974 46.6459 20.8359 46.6459C21.5703 46.6459 22.4271 46.4688 23.4062 46.1146V47.7162C22.4688 48.0651 21.4948 48.2396 20.4844 48.2396C19.1927 48.2396 18.1797 47.8542 17.4453 47.0834C16.7161 46.3073 16.3516 45.2214 16.3516 43.8256C16.3516 42.4714 16.625 41.2136 17.1719 40.0521C17.724 38.8907 18.4583 38.0079 19.375 37.4037C20.2917 36.7995 21.3385 36.4974 22.5156 36.4974C23.6458 36.4974 24.6589 36.737 25.5547 37.2162L24.8203 38.7396C24.4922 38.5625 24.1432 38.4115 23.7734 38.2865C23.4036 38.1615 22.9844 38.099 22.5156 38.099Z" fill="#1DA1F2"/>
</svg>
