<svg width="75" height="75" viewBox="0 0 82 13" fill="none" xmlns="http://www.w3.org/2000/svg">
<path d="M9.60486 6.17969C9.60486 8.0599 9.0684 9.5 7.99549 10.5C6.92778 11.5 5.38351 12 3.36267 12H0.1283V0.578125H3.71424C5.57882 0.578125 7.02674 1.07031 8.05799 2.05469C9.08924 3.03906 9.60486 4.41406 9.60486 6.17969ZM7.08924 6.24219C7.08924 3.78906 6.0059 2.5625 3.83924 2.5625H2.55017V10H3.58924C5.92257 10 7.08924 8.7474 7.08924 6.24219ZM22.3392 6.27344C22.3392 8.16406 21.8705 9.61719 20.933 10.6328C19.9955 11.6484 18.6517 12.1562 16.9017 12.1562C15.1517 12.1562 13.808 11.6484 12.8705 10.6328C11.933 9.61719 11.4642 8.15885 11.4642 6.25781C11.4642 4.35677 11.933 2.90625 12.8705 1.90625C13.8132 0.901042 15.1622 0.398438 16.9174 0.398438C18.6726 0.398438 20.0137 0.903646 20.9408 1.91406C21.8731 2.92448 22.3392 4.3776 22.3392 6.27344ZM14.0033 6.27344C14.0033 7.54948 14.2455 8.51042 14.7299 9.15625C15.2142 9.80208 15.9382 10.125 16.9017 10.125C18.834 10.125 19.8002 8.84115 19.8002 6.27344C19.8002 3.70052 18.8392 2.41406 16.9174 2.41406C15.9538 2.41406 15.2273 2.73958 14.7377 3.39062C14.2481 4.03646 14.0033 4.9974 14.0033 6.27344ZM27.1283 5.64844H27.9095C28.6752 5.64844 29.2403 5.52083 29.6049 5.26562C29.9694 5.01042 30.1517 4.60938 30.1517 4.0625C30.1517 3.52083 29.9642 3.13542 29.5892 2.90625C29.2194 2.67708 28.6439 2.5625 27.8627 2.5625H27.1283V5.64844ZM27.1283 7.61719V12H24.7064V0.578125H28.0345C29.5866 0.578125 30.7351 0.861979 31.4799 1.42969C32.2247 1.99219 32.597 2.84896 32.597 4C32.597 4.67188 32.4122 5.27083 32.0424 5.79688C31.6726 6.31771 31.1491 6.72656 30.472 7.02344C32.1908 9.59115 33.3106 11.25 33.8314 12H31.1439L28.4174 7.61719H27.1283ZM40.1049 12L37.3549 3.03906H37.2845C37.3835 4.86198 37.433 6.07812 37.433 6.6875V12H35.2689V0.578125H38.5658L41.2689 9.3125H41.3158L44.183 0.578125H47.4799V12H45.222V6.59375C45.222 6.33854 45.2247 6.04427 45.2299 5.71094C45.2403 5.3776 45.2767 4.49219 45.3392 3.05469H45.2689L42.3236 12H40.1049ZM57.3549 12L56.5267 9.28125H52.3627L51.5345 12H48.9252L52.9564 0.53125H55.9174L59.9642 12H57.3549ZM55.9486 7.25C55.183 4.78646 54.7507 3.39323 54.6517 3.07031C54.558 2.7474 54.4903 2.49219 54.4486 2.30469C54.2767 2.97135 53.7845 4.61979 52.972 7.25H55.9486ZM71.5424 12H68.4642L63.4955 3.35938H63.4252C63.5241 4.88542 63.5736 5.97396 63.5736 6.625V12H61.4095V0.578125H64.4642L69.4252 9.13281H69.4799C69.4017 7.64844 69.3627 6.59896 69.3627 5.98438V0.578125H71.5424V12ZM78.8314 12H76.4095V2.59375H73.308V0.578125H81.933V2.59375H78.8314V12Z" fill="#1DA1F2"/>
</svg>
