<svg width="75" height="75" viewBox="0 0 101 40" fill="none" xmlns="http://www.w3.org/2000/svg">
<path d="M38.1875 20.1797C38.1875 22.0599 37.651 23.5 36.5781 24.5C35.5104 25.5 33.9661 26 31.9453 26H28.7109V14.5781H32.2969C34.1615 14.5781 35.6094 15.0703 36.6406 16.0547C37.6719 17.0391 38.1875 18.4141 38.1875 20.1797ZM35.6719 20.2422C35.6719 17.7891 34.5885 16.5625 32.4219 16.5625H31.1328V24H32.1719C34.5052 24 35.6719 22.7474 35.6719 20.2422ZM42.9766 19.9531H43.7734C44.5182 19.9531 45.0755 19.8073 45.4453 19.5156C45.8151 19.2188 46 18.7891 46 18.2266C46 17.6589 45.8438 17.2396 45.5312 16.9688C45.224 16.6979 44.7396 16.5625 44.0781 16.5625H42.9766V19.9531ZM48.4453 18.1406C48.4453 19.3698 48.0599 20.3099 47.2891 20.9609C46.5234 21.612 45.4323 21.9375 44.0156 21.9375H42.9766V26H40.5547V14.5781H44.2031C45.5885 14.5781 46.6406 14.8776 47.3594 15.4766C48.0833 16.0703 48.4453 16.9583 48.4453 18.1406ZM55.0078 26H52.5859V16.5938H49.4844V14.5781H58.1094V16.5938H55.0078V26ZM58.9062 22.6875V20.7344H63.1016V22.6875H58.9062ZM71.7656 17.1328C71.7656 17.8464 71.5495 18.4531 71.1172 18.9531C70.6849 19.4531 70.0781 19.7969 69.2969 19.9844V20.0312C70.2188 20.1458 70.9167 20.4271 71.3906 20.875C71.8646 21.3177 72.1016 21.9167 72.1016 22.6719C72.1016 23.7708 71.7031 24.6276 70.9062 25.2422C70.1094 25.8516 68.9714 26.1562 67.4922 26.1562C66.2526 26.1562 65.1536 25.9505 64.1953 25.5391V23.4844C64.638 23.7083 65.125 23.8906 65.6562 24.0312C66.1875 24.1719 66.7135 24.2422 67.2344 24.2422C68.0312 24.2422 68.6198 24.1068 69 23.8359C69.3802 23.5651 69.5703 23.1302 69.5703 22.5312C69.5703 21.9948 69.3516 21.6146 68.9141 21.3906C68.4766 21.1667 67.7786 21.0547 66.8203 21.0547H65.9531V19.2031H66.8359C67.7214 19.2031 68.3672 19.0885 68.7734 18.8594C69.1849 18.625 69.3906 18.2266 69.3906 17.6641C69.3906 16.7995 68.849 16.3672 67.7656 16.3672C67.3906 16.3672 67.0078 16.4297 66.6172 16.5547C66.2318 16.6797 65.8021 16.8958 65.3281 17.2031L64.2109 15.5391C65.2526 14.7891 66.4948 14.4141 67.9375 14.4141C69.1198 14.4141 70.0521 14.6536 70.7344 15.1328C71.4219 15.612 71.7656 16.2786 71.7656 17.1328Z" fill="#1DA1F2"/>
<path fill-rule="evenodd" clip-rule="evenodd" d="M81.5197 9.64537L90.0902 19.5096C90.2509 19.6998 90.3312 19.9199 90.3312 20.1659C90.3293 20.4194 90.2431 20.6625 90.0902 20.8452L81.1404 30.897C80.6879 31.3277 80.285 31.3277 79.9329 30.897C79.5797 30.4663 79.5797 30.0233 79.9329 29.5654L88.2979 20.1659L80.3181 10.9769C80.0381 10.5109 80.0641 10.0883 80.3961 9.70651C80.7281 9.32607 81.1026 9.30569 81.5197 9.64537ZM92.1531 9.64537L100.724 19.5096C100.884 19.6998 100.965 19.9199 100.965 20.1659C100.963 20.4194 100.876 20.6625 100.724 20.8452L91.7738 30.897C91.3213 31.3277 90.9184 31.3277 90.5663 30.897C90.2131 30.4663 90.2131 30.0233 90.5663 29.5654L98.9313 20.1659L90.9515 10.9769C90.6715 10.5109 90.6975 10.0883 91.0295 9.70651C91.3615 9.32607 91.736 9.30569 92.1531 9.64537Z" fill="#1DA1F2"/>
<path d="M9.27374 10.5113C9.43235 10.3537 9.64621 10.2643 9.86976 10.2621C10.0933 10.2599 10.3089 10.3451 10.4706 10.4995C10.5498 10.5745 10.6131 10.6647 10.6568 10.7646C10.7005 10.8645 10.7237 10.9722 10.725 11.0813C10.7263 11.1904 10.7057 11.2986 10.6645 11.3996C10.6232 11.5006 10.5621 11.5922 10.4848 11.6691L2.56879 19.5934L10.9219 27.7551C11.0002 27.8311 11.0624 27.922 11.1048 28.0225C11.1473 28.1229 11.1692 28.2309 11.1692 28.34C11.1692 28.449 11.1473 28.557 11.1048 28.6574C11.0624 28.7579 11.0002 28.8488 10.9219 28.9248C10.7617 29.0801 10.5473 29.167 10.3241 29.167C10.1009 29.167 9.8865 29.0801 9.72625 28.9248L0.782382 20.1877C0.704654 20.1122 0.642757 20.0219 0.60031 19.9222C0.557863 19.8226 0.535717 19.7154 0.535167 19.607C0.534617 19.4987 0.555674 19.3913 0.597107 19.2912C0.63854 19.1911 0.699517 19.1002 0.776474 19.0239L9.27374 10.5113ZM19.9071 10.5113C20.0657 10.3541 20.2793 10.2649 20.5026 10.2627C20.7258 10.2605 20.9412 10.3454 21.1028 10.4995C21.182 10.5745 21.2453 10.6647 21.289 10.7646C21.3327 10.8645 21.3559 10.9722 21.3572 11.0813C21.3585 11.1904 21.3379 11.2986 21.2967 11.3996C21.2554 11.5006 21.1943 11.5922 21.117 11.6691L13.201 19.5934L21.5541 27.7551C21.6324 27.8311 21.6946 27.922 21.7371 28.0225C21.7795 28.1229 21.8014 28.2309 21.8014 28.34C21.8014 28.449 21.7795 28.557 21.7371 28.6574C21.6946 28.7579 21.6324 28.8488 21.5541 28.9248C21.3939 29.0801 21.1795 29.167 20.9563 29.167C20.7331 29.167 20.5187 29.0801 20.3585 28.9248L11.4158 20.1877C11.3381 20.1122 11.2762 20.0219 11.2337 19.9222C11.1913 19.8226 11.1691 19.7154 11.1686 19.607C11.168 19.4987 11.1891 19.3913 11.2305 19.2912C11.2719 19.1911 11.3329 19.1002 11.4099 19.0239L19.9071 10.5113Z" fill="#1DA1F2"/>
</svg>
