<svg width="75" height="75" viewBox="0 0 53 53" fill="none" xmlns="http://www.w3.org/2000/svg">
<path d="M43.7099 19.0328L45.9334 16.8092C46.2327 16.5137 46.6114 16.3114 47.0235 16.227C47.4355 16.1425 47.8633 16.1796 48.2547 16.3336L50.965 17.414C51.3608 17.5752 51.7 17.85 51.9398 18.2037C52.1797 18.5574 52.3094 18.9742 52.3128 19.4016V24.3649C52.3079 24.9358 52.0766 25.4813 51.6697 25.8817C51.2628 26.282 50.7135 26.5044 50.1427 26.5L50.0505 26.4963C31.0673 25.3163 27.2378 9.23512 26.5132 3.08069C26.4819 2.79958 26.5063 2.51506 26.5851 2.24338C26.6638 1.9717 26.7952 1.71819 26.9719 1.49733C27.1486 1.27646 27.3671 1.09257 27.6148 0.956146C27.8626 0.819725 28.1348 0.73345 28.416 0.70225C28.4992 0.692383 28.5829 0.687457 28.6667 0.6875H33.4604C33.888 0.689041 34.3053 0.818361 34.6588 1.05885C35.0123 1.29934 35.2859 1.64002 35.4443 2.03713L36.5266 4.74744C36.6857 5.13766 36.7264 5.56611 36.6434 5.97928C36.5604 6.39246 36.3576 6.77202 36.0601 7.07056L33.8366 9.29412C33.8366 9.29412 35.1161 17.9597 43.7099 19.0328Z" fill="#1DA1F2"/>
<path d="M26.5 52.3125H22.8125V43.0938C22.811 41.6272 22.2278 40.2212 21.1908 39.1842C20.1538 38.1472 18.7478 37.564 17.2812 37.5625H9.90625C8.43972 37.564 7.03368 38.1472 5.99668 39.1842C4.95969 40.2212 4.37646 41.6272 4.375 43.0938V52.3125H0.6875V43.0938C0.690428 40.6497 1.66263 38.3066 3.39084 36.5783C5.11906 34.8501 7.46218 33.8779 9.90625 33.875H17.2812C19.7253 33.8779 22.0684 34.8501 23.7967 36.5783C25.5249 38.3066 26.4971 40.6497 26.5 43.0938V52.3125Z" fill="#1DA1F2"/>
<path d="M13.5938 15.4375C14.6877 15.4375 15.7571 15.7619 16.6668 16.3697C17.5764 16.9775 18.2853 17.8413 18.704 18.852C19.1226 19.8627 19.2321 20.9749 19.0187 22.0478C18.8053 23.1208 18.2785 24.1064 17.5049 24.8799C16.7314 25.6535 15.7458 26.1803 14.6728 26.3937C13.5999 26.6071 12.4877 26.4976 11.477 26.079C10.4663 25.6603 9.60247 24.9514 8.99469 24.0417C8.38691 23.1321 8.0625 22.0627 8.0625 20.9688C8.0625 19.5018 8.64526 18.0949 9.68257 17.0576C10.7199 16.0203 12.1268 15.4375 13.5938 15.4375ZM13.5938 11.75C11.7705 11.75 9.98811 12.2907 8.47209 13.3036C6.95608 14.3166 5.77449 15.7564 5.07674 17.4409C4.37899 19.1254 4.19643 20.979 4.55214 22.7672C4.90785 24.5555 5.78585 26.1981 7.07511 27.4874C8.36438 28.7767 10.007 29.6547 11.7953 30.0104C13.5835 30.3661 15.4371 30.1835 17.1216 29.4858C18.8061 28.788 20.2459 27.6064 21.2589 26.0904C22.2718 24.5744 22.8125 22.792 22.8125 20.9688C22.8125 19.7581 22.5741 18.5594 22.1108 17.4409C21.6475 16.3224 20.9684 15.3061 20.1124 14.4501C19.2564 13.5941 18.2401 12.915 17.1216 12.4517C16.0031 11.9884 14.8044 11.75 13.5938 11.75Z" fill="#1DA1F2"/>
</svg>
