<svg width="75" height="75" viewBox="0 0 57 52" fill="none" xmlns="http://www.w3.org/2000/svg">
<path d="M32.0899 28.0133C33.94 28.0133 35.7143 28.7354 37.0225 30.0206C38.3307 31.3059 39.0656 33.0491 39.0656 34.8667V40.0067C39.0656 47.045 31.783 52 19.8824 52C7.98186 52 0.699219 47.045 0.699219 40.0067V34.8667C0.699219 33.0491 1.43416 31.3059 2.74236 30.0206C4.05056 28.7354 5.82486 28.0133 7.67493 28.0133H32.0899ZM32.0899 31.44H7.67493C6.74989 31.44 5.86274 31.801 5.20864 32.4437C4.55454 33.0863 4.18708 33.9579 4.18708 34.8667V40.0067C4.18708 44.828 9.6944 48.5733 19.8824 48.5733C30.0705 48.5733 35.5778 44.828 35.5778 40.0067V34.8667C35.5778 33.9579 35.2103 33.0863 34.5562 32.4437C33.9021 31.801 33.015 31.44 32.0899 31.44ZM49.5292 28.0133C51.3793 28.0133 53.1536 28.7354 54.4618 30.0206C55.77 31.3059 56.5049 33.0491 56.5049 34.8667V36.58C56.5049 43.7383 51.036 48.5733 40.8096 48.5733C40.3178 48.5733 39.833 48.5631 39.3656 48.5391C40.0911 47.7098 40.698 46.8189 41.1863 45.8628L41.5246 45.133H41.6606C49.4455 44.9102 53.0171 41.5829 53.0171 36.58V34.8667C53.0171 33.9579 52.6496 33.0863 51.9955 32.4437C51.3414 31.801 50.4542 31.44 49.5292 31.44H41.9571C41.5006 30.1759 40.7968 29.0118 39.8853 28.0133H49.5292ZM19.8824 0.600006C21.4855 0.600006 23.073 0.910223 24.554 1.51294C26.0351 2.11567 27.3809 2.99909 28.5144 4.11277C29.648 5.22646 30.5472 6.54859 31.1607 8.00369C31.7742 9.45879 32.0899 11.0184 32.0899 12.5933C32.0899 14.1683 31.7742 15.7279 31.1607 17.183C30.5472 18.6381 29.648 19.9602 28.5144 21.0739C27.3809 22.1876 26.0351 23.071 24.554 23.6737C23.073 24.2765 21.4855 24.5867 19.8824 24.5867C16.6448 24.5867 13.5398 23.3231 11.2504 21.0739C8.96108 18.8247 7.67493 15.7742 7.67493 12.5933C7.67493 9.41251 8.96108 6.36196 11.2504 4.11277C13.5398 1.86359 16.6448 0.600006 19.8824 0.600006ZM44.2974 7.45334C46.61 7.45334 48.8279 8.3559 50.4631 9.96246C52.0984 11.569 53.0171 13.748 53.0171 16.02C53.0171 18.292 52.0984 20.471 50.4631 22.0776C48.8279 23.6841 46.61 24.5867 44.2974 24.5867C41.9848 24.5867 39.767 23.6841 38.1317 22.0776C36.4965 20.471 35.5778 18.292 35.5778 16.02C35.5778 13.748 36.4965 11.569 38.1317 9.96246C39.767 8.3559 41.9848 7.45334 44.2974 7.45334ZM19.8824 4.02667C17.5698 4.02667 15.352 4.92923 13.7167 6.53579C12.0815 8.14235 11.1628 10.3213 11.1628 12.5933C11.1628 14.8654 12.0815 17.0443 13.7167 18.6509C15.352 20.2574 17.5698 21.16 19.8824 21.16C22.195 21.16 24.4129 20.2574 26.0481 18.6509C27.6834 17.0443 28.6021 14.8654 28.6021 12.5933C28.6021 10.3213 27.6834 8.14235 26.0481 6.53579C24.4129 4.92923 22.195 4.02667 19.8824 4.02667ZM44.2974 10.88C42.9099 10.88 41.5791 11.4215 40.598 12.3855C39.6168 13.3494 39.0656 14.6568 39.0656 16.02C39.0656 17.3832 39.6168 18.6906 40.598 19.6545C41.5791 20.6185 42.9099 21.16 44.2974 21.16C45.685 21.16 47.0157 20.6185 47.9969 19.6545C48.978 18.6906 49.5292 17.3832 49.5292 16.02C49.5292 14.6568 48.978 13.3494 47.9969 12.3855C47.0157 11.4215 45.685 10.88 44.2974 10.88Z" fill="#1DA1F2"/>
</svg>
