<svg width="75" height="75" viewBox="0 0 50 50" fill="none" xmlns="http://www.w3.org/2000/svg">
<path d="M0 49.2178C0 49.4252 0.082023 49.6242 0.228025 49.7709C0.374027 49.9176 0.572047 50 0.778525 50H49.2199C49.3228 50.0008 49.4249 49.9808 49.5199 49.941C49.6148 49.9012 49.7008 49.8425 49.7727 49.7685L49.7773 49.7653C49.782 49.7606 49.782 49.7512 49.7882 49.7465C49.8657 49.6586 49.9227 49.5544 49.9548 49.4415C49.9657 49.4055 49.9704 49.3711 49.9766 49.3336C49.9829 49.2945 50 49.26 50 49.2194C50 49.1568 49.9782 49.102 49.9642 49.0442C49.9595 49.0223 49.9689 49.0004 49.9611 48.9785L45.0408 33.7809C45.0035 33.6632 44.9383 33.5564 44.8508 33.4696L18.1988 6.6912C18.1708 6.6474 18.1505 6.60047 18.1132 6.56136L12.2914 0.71229C11.836 0.256148 11.2193 0 10.5763 0C9.93326 0 9.3165 0.256148 8.86117 0.71229L0.710015 8.90161C0.252242 9.36153 0 9.97319 0 10.624C0 11.2747 0.252242 11.8879 0.710015 12.3479L6.40259 18.0671C6.43062 18.1093 6.4493 18.1578 6.48667 18.1954L33.0967 45.1098C33.188 45.2033 33.3016 45.2717 33.4268 45.3085L43.8792 48.4372H0.778525C0.676361 48.437 0.57516 48.457 0.480714 48.4962C0.386268 48.5353 0.300432 48.5928 0.228119 48.6653C0.155806 48.7378 0.0984354 48.8239 0.0592918 48.9187C0.0201481 49.0135 -2.05147e-07 49.1152 0 49.2178H0ZM9.90595 15.8692L34.3314 40.0946L33.433 43.2264L8.1387 17.6447L9.90595 15.8692ZM35.5257 39.0824L11.0052 14.7648L14.7998 10.9525L39.1006 35.4313V39.0824H35.5257ZM40.0707 34.1939L15.9006 9.84648L17.5184 8.22113L42.7597 33.5807L40.0707 34.1939ZM35.7935 40.6468H39.8792C40.0857 40.6468 40.2837 40.5644 40.4297 40.4177C40.5757 40.271 40.6577 40.0721 40.6577 39.8646V35.6644L43.7827 34.951L48.0225 48.0445L34.8063 44.0883L35.7935 40.6468ZM1.55705 10.624C1.55705 10.3909 1.64736 10.1734 1.81085 10.0076L9.96201 1.81828C10.1251 1.65502 10.346 1.56336 10.5763 1.56336C10.8065 1.56336 11.0274 1.65502 11.1905 1.81828L16.4409 7.09324L7.06278 16.5153L1.81241 11.2403C1.73112 11.1598 1.66665 11.0639 1.6228 10.958C1.57895 10.8522 1.55659 10.7386 1.55705 10.624Z" fill="#1DA1F2"/>
</svg>
