<svg width="75" height="75" viewBox="0 0 67 61" fill="none" xmlns="http://www.w3.org/2000/svg">
<path d="M45.4375 19.7188H54.0625C54.6344 19.7188 55.1828 19.9459 55.5872 20.3503C55.9916 20.7547 56.2188 21.3031 56.2188 21.875V26.1875H43.2812V21.875C43.2812 21.3031 43.5084 20.7547 43.9128 20.3503C44.3172 19.9459 44.8656 19.7188 45.4375 19.7188Z" fill="#1DA1F2"/>
<path d="M49.75 17.5625C52.1317 17.5625 54.0625 15.6317 54.0625 13.25C54.0625 10.8683 52.1317 8.9375 49.75 8.9375C47.3683 8.9375 45.4375 10.8683 45.4375 13.25C45.4375 15.6317 47.3683 17.5625 49.75 17.5625Z" fill="#1DA1F2"/>
<path d="M62.6875 34.8125H36.8125C35.6691 34.8114 34.5729 34.3566 33.7644 33.5481C32.9559 32.7396 32.5011 31.6434 32.5 30.5V4.625C32.5011 3.4816 32.9559 2.38537 33.7644 1.57686C34.5729 0.76836 35.6691 0.313642 36.8125 0.3125H62.6875C63.8309 0.313642 64.9271 0.76836 65.7356 1.57686C66.5441 2.38537 66.9989 3.4816 67 4.625V30.5C66.9983 31.6432 66.5434 32.7391 65.735 33.5475C64.9266 34.3559 63.8307 34.8108 62.6875 34.8125ZM36.8125 4.625V30.5H62.6897L62.6875 4.625H36.8125Z" fill="#1DA1F2"/>
<path d="M30.3443 60.6875H26.0318V52.0625C26.0476 51.2087 25.8911 50.3604 25.5716 49.5685C25.2521 48.7765 24.7762 48.0571 24.1723 47.4532C23.5685 46.8494 22.849 46.3735 22.0571 46.054C21.2651 45.7345 20.4169 45.578 19.563 45.5938H10.938C10.0842 45.578 9.23594 45.7345 8.44397 46.054C7.65201 46.3735 6.9326 46.8494 6.32874 47.4532C5.72488 48.0571 5.24899 48.7765 4.92949 49.5685C4.61 50.3604 4.45348 51.2087 4.46928 52.0625V60.6875H0.156778V52.0625C0.142656 50.6428 0.411878 49.2345 0.948686 47.9201C1.48549 46.6056 2.2791 45.4115 3.28306 44.4075C4.28702 43.4036 5.48115 42.61 6.79557 42.0732C8.10999 41.5364 9.51829 41.2671 10.938 41.2813H19.563C20.9828 41.2671 22.3911 41.5364 23.7055 42.0732C25.0199 42.61 26.214 43.4036 27.218 44.4075C28.222 45.4115 29.0156 46.6056 29.5524 47.9201C30.0892 49.2345 30.3584 50.6428 30.3443 52.0625V60.6875Z" fill="#1DA1F2"/>
<path d="M15.25 19.7188C16.9656 19.7188 18.611 20.4003 19.8241 21.6134C21.0372 22.8265 21.7188 24.4719 21.7188 26.1875C21.7188 27.9031 21.0372 29.5485 19.8241 30.7616C18.611 31.9747 16.9656 32.6562 15.25 32.6562C13.5344 32.6562 11.889 31.9747 10.6759 30.7616C9.46278 29.5485 8.78125 27.9031 8.78125 26.1875C8.78125 24.4719 9.46278 22.8265 10.6759 21.6134C11.889 20.4003 13.5344 19.7188 15.25 19.7188V19.7188ZM15.25 15.4062C12.3906 15.4063 9.64838 16.5421 7.62651 18.564C5.60463 20.5859 4.46875 23.3281 4.46875 26.1875C4.46875 29.0469 5.60463 31.7891 7.62651 33.811C9.64838 35.8329 12.3906 36.9688 15.25 36.9688C18.1094 36.9688 20.8516 35.8329 22.8735 33.811C24.8954 31.7891 26.0312 29.0469 26.0312 26.1875C26.0312 23.3281 24.8954 20.5859 22.8735 18.564C20.8516 16.5421 18.1094 15.4062 15.25 15.4062V15.4062Z" fill="#1DA1F2"/>
</svg>
