<svg width="75" height="75" viewBox="0 0 76 58" fill="none" xmlns="http://www.w3.org/2000/svg">
<path d="M9.23438 46.6484H10.0156C10.7812 46.6484 11.3464 46.5208 11.7109 46.2656C12.0755 46.0104 12.2578 45.6094 12.2578 45.0625C12.2578 44.5208 12.0703 44.1354 11.6953 43.9062C11.3255 43.6771 10.75 43.5625 9.96875 43.5625H9.23438V46.6484ZM9.23438 48.6172V53H6.8125V41.5781H10.1406C11.6927 41.5781 12.8411 41.862 13.5859 42.4297C14.3307 42.9922 14.7031 43.849 14.7031 45C14.7031 45.6719 14.5182 46.2708 14.1484 46.7969C13.7786 47.3177 13.2552 47.7266 12.5781 48.0234C14.2969 50.5911 15.4167 52.25 15.9375 53H13.25L10.5234 48.6172H9.23438ZM20.8047 45.7969C20.2995 45.7969 19.9036 45.9583 19.6172 46.2812C19.3307 46.599 19.1667 47.0521 19.125 47.6406H22.4688C22.4583 47.0521 22.3047 46.599 22.0078 46.2812C21.7109 45.9583 21.3099 45.7969 20.8047 45.7969ZM21.1406 53.1562C19.7344 53.1562 18.6354 52.7682 17.8438 51.9922C17.0521 51.2161 16.6562 50.1172 16.6562 48.6953C16.6562 47.2318 17.0208 46.1016 17.75 45.3047C18.4844 44.5026 19.4974 44.1016 20.7891 44.1016C22.0234 44.1016 22.9844 44.4531 23.6719 45.1562C24.3594 45.8594 24.7031 46.8307 24.7031 48.0703V49.2266H19.0703C19.0964 49.9036 19.2969 50.4323 19.6719 50.8125C20.0469 51.1927 20.5729 51.3828 21.25 51.3828C21.776 51.3828 22.2734 51.3281 22.7422 51.2188C23.2109 51.1094 23.7005 50.9349 24.2109 50.6953V52.5391C23.7943 52.7474 23.349 52.901 22.875 53C22.401 53.1042 21.8229 53.1562 21.1406 53.1562ZM34.7031 53H32.3203V47.8984C32.3203 47.2682 32.2083 46.7969 31.9844 46.4844C31.7604 46.1667 31.4036 46.0078 30.9141 46.0078C30.2474 46.0078 29.7656 46.2318 29.4688 46.6797C29.1719 47.1224 29.0234 47.8594 29.0234 48.8906V53H26.6406V44.2656H28.4609L28.7812 45.3828H28.9141C29.1797 44.9609 29.5443 44.6432 30.0078 44.4297C30.4766 44.2109 31.0078 44.1016 31.6016 44.1016C32.6172 44.1016 33.388 44.3776 33.9141 44.9297C34.4401 45.4766 34.7031 46.2682 34.7031 47.3047V53ZM40.7734 45.7969C40.2682 45.7969 39.8724 45.9583 39.5859 46.2812C39.2995 46.599 39.1354 47.0521 39.0938 47.6406H42.4375C42.4271 47.0521 42.2734 46.599 41.9766 46.2812C41.6797 45.9583 41.2786 45.7969 40.7734 45.7969ZM41.1094 53.1562C39.7031 53.1562 38.6042 52.7682 37.8125 51.9922C37.0208 51.2161 36.625 50.1172 36.625 48.6953C36.625 47.2318 36.9896 46.1016 37.7188 45.3047C38.4531 44.5026 39.4661 44.1016 40.7578 44.1016C41.9922 44.1016 42.9531 44.4531 43.6406 45.1562C44.3281 45.8594 44.6719 46.8307 44.6719 48.0703V49.2266H39.0391C39.0651 49.9036 39.2656 50.4323 39.6406 50.8125C40.0156 51.1927 40.5417 51.3828 41.2188 51.3828C41.7448 51.3828 42.2422 51.3281 42.7109 51.2188C43.1797 51.1094 43.6693 50.9349 44.1797 50.6953V52.5391C43.763 52.7474 43.3177 52.901 42.8438 53C42.3698 53.1042 41.7917 53.1562 41.1094 53.1562ZM53.7891 53L53.1172 49.9453L52.2109 46.0859H52.1562L50.5625 53H48L45.5156 44.2656H47.8906L48.8984 48.1328C49.0599 48.8255 49.224 49.7812 49.3906 51H49.4375C49.4583 50.6042 49.5495 49.9766 49.7109 49.1172L49.8359 48.4531L50.9141 44.2656H53.5391L54.5625 48.4531C54.5833 48.5677 54.6146 48.737 54.6562 48.9609C54.7031 49.1849 54.7474 49.4245 54.7891 49.6797C54.8307 49.9297 54.8672 50.1771 54.8984 50.4219C54.9349 50.6615 54.9557 50.8542 54.9609 51H55.0078C55.0547 50.625 55.138 50.112 55.2578 49.4609C55.3776 48.8047 55.4635 48.362 55.5156 48.1328L56.5625 44.2656H58.8984L56.3828 53H53.7891ZM65.8594 53L65.3984 51.8125H65.3359C64.9349 52.3177 64.5208 52.6693 64.0938 52.8672C63.6719 53.0599 63.1198 53.1562 62.4375 53.1562C61.599 53.1562 60.9375 52.9167 60.4531 52.4375C59.974 51.9583 59.7344 51.276 59.7344 50.3906C59.7344 49.4635 60.0573 48.7812 60.7031 48.3438C61.3542 47.901 62.3333 47.6562 63.6406 47.6094L65.1562 47.5625V47.1797C65.1562 46.2943 64.7031 45.8516 63.7969 45.8516C63.099 45.8516 62.2786 46.0625 61.3359 46.4844L60.5469 44.875C61.5521 44.349 62.6667 44.0859 63.8906 44.0859C65.0625 44.0859 65.9609 44.3411 66.5859 44.8516C67.2109 45.362 67.5234 46.138 67.5234 47.1797V53H65.8594ZM65.1562 48.9531L64.2344 48.9844C63.5417 49.0052 63.026 49.1302 62.6875 49.3594C62.349 49.5885 62.1797 49.9375 62.1797 50.4062C62.1797 51.0781 62.5651 51.4141 63.3359 51.4141C63.888 51.4141 64.3281 51.2552 64.6562 50.9375C64.9896 50.6198 65.1562 50.1979 65.1562 49.6719V48.9531ZM72.3672 53H69.9844V40.8438H72.3672V53Z" fill="#55B8F5"/>
<path d="M38 0C17.024 0 0 7.23692 0 16.1538C0 23.3908 11.172 29.4969 26.6 31.5646V42L41.8 29.0769L26.6 16.1538V24.9738C14.63 23.1646 7.6 18.8354 7.6 16.1538C7.6 12.7292 19.152 6.46154 38 6.46154C56.848 6.46154 68.4 12.7292 68.4 16.1538C68.4 18.5123 62.852 22.26 53.2 24.3277V30.9508C66.614 28.4631 76 22.7769 76 16.1538C76 7.23692 58.976 0 38 0Z" fill="#2BA6F3" fill-opacity="0.8"/>
</svg>
