<svg width="75" height="75" viewBox="0 0 187 88" fill="none" xmlns="http://www.w3.org/2000/svg">
<path d="M36.6313 38.5781V45.9688C36.6313 46.8125 36.4412 47.5521 36.061 48.1875C35.686 48.8229 35.1417 49.3099 34.4282 49.6484C33.7147 49.987 32.8709 50.1562 31.8969 50.1562C30.4282 50.1562 29.2876 49.7812 28.4751 49.0312C27.6626 48.276 27.2563 47.2448 27.2563 45.9375V38.5781H29.6704V45.5703C29.6704 46.4505 29.8475 47.0964 30.2016 47.5078C30.5558 47.9193 31.1417 48.125 31.9594 48.125C32.7511 48.125 33.324 47.9193 33.6782 47.5078C34.0376 47.0911 34.2173 46.4401 34.2173 45.5547V38.5781H36.6313ZM46.1704 46.8281C46.1704 47.8594 45.798 48.6719 45.0532 49.2656C44.3136 49.8594 43.2824 50.1562 41.9594 50.1562C40.7407 50.1562 39.6626 49.9271 38.7251 49.4688V47.2188C39.4959 47.5625 40.1469 47.8047 40.6782 47.9453C41.2147 48.0859 41.7042 48.1562 42.1469 48.1562C42.6782 48.1562 43.0844 48.0547 43.3657 47.8516C43.6522 47.6484 43.7954 47.3464 43.7954 46.9453C43.7954 46.7214 43.7329 46.5234 43.6079 46.3516C43.4829 46.1745 43.298 46.0052 43.0532 45.8438C42.8136 45.6823 42.3214 45.4245 41.5766 45.0703C40.8787 44.7422 40.3553 44.4271 40.0063 44.125C39.6574 43.8229 39.3787 43.4714 39.1704 43.0703C38.962 42.6693 38.8579 42.2005 38.8579 41.6641C38.8579 40.6536 39.199 39.8594 39.8813 39.2812C40.5688 38.7031 41.5167 38.4141 42.7251 38.4141C43.3188 38.4141 43.8839 38.4844 44.4204 38.625C44.962 38.7656 45.5272 38.9635 46.1157 39.2188L45.3344 41.1016C44.7251 40.8516 44.2199 40.6771 43.8188 40.5781C43.423 40.4792 43.0324 40.4297 42.6469 40.4297C42.1886 40.4297 41.837 40.5365 41.5923 40.75C41.3475 40.9635 41.2251 41.2422 41.2251 41.5859C41.2251 41.7995 41.2745 41.987 41.3735 42.1484C41.4725 42.3047 41.6287 42.4583 41.8423 42.6094C42.061 42.7552 42.574 43.0208 43.3813 43.4062C44.449 43.9167 45.1808 44.4297 45.5766 44.9453C45.9725 45.4557 46.1704 46.0833 46.1704 46.8281ZM55.2329 50L54.4048 47.2812H50.2407L49.4126 50H46.8032L50.8344 38.5312H53.7954L57.8423 50H55.2329ZM53.8266 45.25C53.061 42.7865 52.6287 41.3932 52.5298 41.0703C52.436 40.7474 52.3683 40.4922 52.3266 40.3047C52.1548 40.9714 51.6626 42.6198 50.8501 45.25H53.8266ZM67.8501 50H65.4282V40.5938H62.3266V38.5781H70.9516V40.5938H67.8501V50ZM75.1313 43.6484H75.9126C76.6782 43.6484 77.2433 43.5208 77.6079 43.2656C77.9725 43.0104 78.1548 42.6094 78.1548 42.0625C78.1548 41.5208 77.9673 41.1354 77.5923 40.9062C77.2225 40.6771 76.6469 40.5625 75.8657 40.5625H75.1313V43.6484ZM75.1313 45.6172V50H72.7094V38.5781H76.0376C77.5897 38.5781 78.7381 38.862 79.4829 39.4297C80.2277 39.9922 80.6001 40.849 80.6001 42C80.6001 42.6719 80.4152 43.2708 80.0454 43.7969C79.6756 44.3177 79.1522 44.7266 78.4751 45.0234C80.1938 47.5911 81.3136 49.25 81.8344 50H79.1469L76.4204 45.6172H75.1313ZM90.2641 50L89.436 47.2812H85.2719L84.4438 50H81.8344L85.8657 38.5312H88.8266L92.8735 50H90.2641ZM88.8579 45.25C88.0923 42.7865 87.66 41.3932 87.561 41.0703C87.4673 40.7474 87.3995 40.4922 87.3579 40.3047C87.186 40.9714 86.6938 42.6198 85.8813 45.25H88.8579ZM103.795 44.1797C103.795 46.0599 103.259 47.5 102.186 48.5C101.118 49.5 99.574 50 97.5532 50H94.3188V38.5781H97.9048C99.7693 38.5781 101.217 39.0703 102.249 40.0547C103.28 41.0391 103.795 42.4141 103.795 44.1797ZM101.28 44.2422C101.28 41.7891 100.196 40.5625 98.0298 40.5625H96.7407V48H97.7798C100.113 48 101.28 46.7474 101.28 44.2422ZM112.741 50H106.163V38.5781H112.741V40.5625H108.584V43.0703H112.452V45.0547H108.584V48H112.741V50ZM119.967 50L117.217 41.0391H117.147C117.246 42.862 117.295 44.0781 117.295 44.6875V50H115.131V38.5781H118.428L121.131 47.3125H121.178L124.045 38.5781H127.342V50H125.084V44.5938C125.084 44.3385 125.087 44.0443 125.092 43.7109C125.103 43.3776 125.139 42.4922 125.202 41.0547H125.131L122.186 50H119.967ZM137.217 50L136.389 47.2812H132.225L131.397 50H128.788L132.819 38.5312H135.78L139.827 50H137.217ZM135.811 45.25C135.045 42.7865 134.613 41.3932 134.514 41.0703C134.42 40.7474 134.353 40.4922 134.311 40.3047C134.139 40.9714 133.647 42.6198 132.834 45.25H135.811ZM143.694 43.6484H144.475C145.241 43.6484 145.806 43.5208 146.17 43.2656C146.535 43.0104 146.717 42.6094 146.717 42.0625C146.717 41.5208 146.53 41.1354 146.155 40.9062C145.785 40.6771 145.209 40.5625 144.428 40.5625H143.694V43.6484ZM143.694 45.6172V50H141.272V38.5781H144.6C146.152 38.5781 147.301 38.862 148.045 39.4297C148.79 39.9922 149.163 40.849 149.163 42C149.163 42.6719 148.978 43.2708 148.608 43.7969C148.238 44.3177 147.715 44.7266 147.038 45.0234C148.756 47.5911 149.876 49.25 150.397 50H147.709L144.983 45.6172H143.694ZM161.022 50H158.272L155.28 45.1875L154.256 45.9219V50H151.834V38.5781H154.256V43.8047L155.209 42.4609L158.303 38.5781H160.991L157.006 43.6328L161.022 50Z" fill="#1DA1F2"/>
<path fill-rule="evenodd" clip-rule="evenodd" d="M164.516 33.6454L173.086 43.5096C173.247 43.6998 173.327 43.9199 173.327 44.1659C173.325 44.4194 173.239 44.6625 173.086 44.8452L164.136 54.897C163.684 55.3277 163.281 55.3277 162.929 54.897C162.576 54.4663 162.576 54.0233 162.929 53.5654L171.294 44.1659L163.314 34.9769C163.034 34.5109 163.06 34.0883 163.392 33.7065C163.724 33.3261 164.099 33.3057 164.516 33.6454ZM175.149 33.6454L183.72 43.5096C183.88 43.6998 183.961 43.9199 183.961 44.1659C183.959 44.4194 183.873 44.6625 183.72 44.8452L174.77 54.897C174.317 55.3277 173.914 55.3277 173.562 54.897C173.209 54.4663 173.209 54.0233 173.562 53.5654L181.927 44.1659L173.948 34.9769C173.668 34.5109 173.694 34.0883 174.026 33.7065C174.358 33.3261 174.732 33.3057 175.149 33.6454Z" fill="#1DA1F2"/>
<path d="M10.2737 34.5113C10.4324 34.3537 10.6462 34.2643 10.8698 34.2621C11.0933 34.2599 11.3089 34.3451 11.4706 34.4995C11.5498 34.5745 11.6131 34.6647 11.6568 34.7646C11.7005 34.8645 11.7237 34.9722 11.725 35.0813C11.7263 35.1904 11.7057 35.2986 11.6645 35.3996C11.6232 35.5006 11.5621 35.5922 11.4848 35.6691L3.56879 43.5934L11.9219 51.7551C12.0002 51.8311 12.0624 51.922 12.1048 52.0225C12.1473 52.1229 12.1692 52.2309 12.1692 52.34C12.1692 52.449 12.1473 52.557 12.1048 52.6574C12.0624 52.7579 12.0002 52.8488 11.9219 52.9248C11.7617 53.0801 11.5473 53.167 11.3241 53.167C11.1009 53.167 10.8865 53.0801 10.7263 52.9248L1.78238 44.1877C1.70465 44.1122 1.64276 44.0219 1.60031 43.9222C1.55786 43.8226 1.53572 43.7154 1.53517 43.607C1.53462 43.4987 1.55567 43.3913 1.59711 43.2912C1.63854 43.1911 1.69952 43.1002 1.77647 43.0239L10.2737 34.5113ZM20.9071 34.5113C21.0657 34.3541 21.2793 34.2649 21.5026 34.2627C21.7258 34.2605 21.9412 34.3454 22.1028 34.4995C22.182 34.5745 22.2453 34.6647 22.289 34.7646C22.3327 34.8645 22.3559 34.9722 22.3572 35.0813C22.3585 35.1904 22.3379 35.2986 22.2967 35.3996C22.2554 35.5006 22.1943 35.5922 22.117 35.6691L14.201 43.5934L22.5541 51.7551C22.6324 51.8311 22.6946 51.922 22.7371 52.0225C22.7795 52.1229 22.8014 52.2309 22.8014 52.34C22.8014 52.449 22.7795 52.557 22.7371 52.6574C22.6946 52.7579 22.6324 52.8488 22.5541 52.9248C22.3939 53.0801 22.1795 53.167 21.9563 53.167C21.7331 53.167 21.5187 53.0801 21.3585 52.9248L12.4158 44.1877C12.3381 44.1122 12.2762 44.0219 12.2337 43.9222C12.1913 43.8226 12.1691 43.7154 12.1686 43.607C12.168 43.4987 12.1891 43.3913 12.2305 43.2912C12.2719 43.1911 12.3329 43.1002 12.4099 43.0239L20.9071 34.5113Z" fill="#1DA1F2"/>
</svg>
