<svg width="70" height="70" viewBox="0 0 70 70" fill="none" xmlns="http://www.w3.org/2000/svg">
<path d="M50.2124 53.7392C50.0866 53.7392 49.9621 53.7141 49.8461 53.6654C49.7301 53.6166 49.6251 53.5453 49.537 53.4554C49.1128 53.0239 48.6441 52.6383 48.1389 52.3052C47.9416 52.1622 47.8071 51.9486 47.7634 51.7089C47.7197 51.4692 47.7702 51.2218 47.9043 51.0184C48.0385 50.815 48.2459 50.6712 48.4835 50.617C48.721 50.5628 48.9703 50.6023 49.1794 50.7273C49.7945 51.1345 50.3651 51.605 50.8821 52.1311C51.0125 52.2641 51.1007 52.4327 51.1357 52.6157C51.1707 52.7986 51.1509 52.9878 51.0787 53.1596C51.0066 53.3313 50.8854 53.4779 50.7303 53.5811C50.5751 53.6842 50.393 53.7392 50.2067 53.7392H50.2124Z" fill="#1DA1F2"/>
<path d="M52.8807 68.108H17.0104C16.7595 68.108 16.5189 68.0084 16.3415 67.831C16.1641 67.6536 16.0645 67.413 16.0645 67.1621V59.358C16.0675 56.6118 17.1597 53.9789 19.1016 52.0371C21.0435 50.0952 23.6763 49.0029 26.4226 48.9999H43.4307C43.6815 48.9999 43.9222 49.0996 44.0996 49.277C44.277 49.4544 44.3766 49.695 44.3766 49.9459C44.3766 50.1968 44.277 50.4374 44.0996 50.6148C43.9222 50.7922 43.6815 50.8918 43.4307 50.8918H26.4226C24.1779 50.8943 22.026 51.7871 20.4388 53.3743C18.8516 54.9615 17.9588 57.1134 17.9563 59.358V66.2161H51.9347V59.358C51.9366 58.6973 51.8597 58.0387 51.7058 57.3962C51.673 57.2745 51.6649 57.1474 51.6819 57.0226C51.6989 56.8977 51.7407 56.7775 51.8048 56.669C51.8689 56.5605 51.9541 56.4659 52.0552 56.3907C52.1564 56.3156 52.2716 56.2614 52.394 56.2314C52.5164 56.2014 52.6436 56.1962 52.768 56.216C52.8925 56.2358 53.0118 56.2803 53.1188 56.3469C53.2258 56.4135 53.3184 56.5007 53.3913 56.6036C53.4641 56.7064 53.5156 56.8228 53.5428 56.9459C53.7325 57.7346 53.8277 58.5431 53.8266 59.3543V67.1621C53.8266 67.413 53.727 67.6536 53.5496 67.831C53.3722 68.0084 53.1315 68.108 52.8807 68.108Z" fill="#1DA1F2"/>
<path d="M34.9409 45.3997C32.9802 45.3997 31.0635 44.8183 29.4332 43.729C27.8029 42.6397 26.5323 41.0914 25.782 39.2799C25.0316 37.4685 24.8353 35.4752 25.2178 33.5522C25.6003 31.6291 26.5445 29.8627 27.9309 28.4763C29.3174 27.0899 31.0838 26.1457 33.0068 25.7632C34.9299 25.3807 36.9231 25.577 38.7346 26.3273C40.5461 27.0776 42.0943 28.3483 43.1837 29.9786C44.273 31.6088 44.8544 33.5255 44.8544 35.4862C44.8516 38.1146 43.8063 40.6345 41.9477 42.4931C40.0892 44.3516 37.5692 45.397 34.9409 45.3997ZM34.9409 27.4646C33.3543 27.4646 31.8034 27.935 30.4843 28.8165C29.1651 29.6979 28.137 30.9507 27.5299 32.4165C26.9227 33.8822 26.7639 35.4951 27.0734 37.0511C27.3829 38.6072 28.1469 40.0365 29.2687 41.1583C30.3906 42.2802 31.8199 43.0442 33.3759 43.3537C34.932 43.6632 36.5448 43.5043 38.0106 42.8972C39.4764 42.2901 40.7292 41.2619 41.6106 39.9428C42.492 38.6236 42.9625 37.0727 42.9625 35.4862C42.9602 33.3594 42.1144 31.3204 40.6105 29.8166C39.1067 28.3127 37.0676 27.4668 34.9409 27.4646Z" fill="#1DA1F2"/>
<path d="M44.1581 68.1081H25.7311C25.4802 68.1081 25.2396 68.0084 25.0622 67.831C24.8848 67.6536 24.7852 67.413 24.7852 67.1621V61.7627C24.7852 61.5118 24.8848 61.2712 25.0622 61.0938C25.2396 60.9164 25.4802 60.8167 25.7311 60.8167C25.982 60.8167 26.2226 60.9164 26.4 61.0938C26.5774 61.2712 26.677 61.5118 26.677 61.7627V66.2162H43.2122V61.7627C43.2122 61.5118 43.3118 61.2712 43.4892 61.0938C43.6666 60.9164 43.9072 60.8167 44.1581 60.8167C44.409 60.8167 44.6496 60.9164 44.827 61.0938C45.0044 61.2712 45.1041 61.5118 45.1041 61.7627V67.1621C45.1041 67.413 45.0044 67.6536 44.827 67.831C44.6496 68.0084 44.409 68.1081 44.1581 68.1081Z" fill="#1DA1F2"/>
<path d="M63.8328 28.473C63.6795 28.4729 63.5286 28.4355 63.3929 28.3642L58.5052 25.795L53.6185 28.3642C53.4622 28.4466 53.2861 28.4836 53.1099 28.471C52.9337 28.4584 52.7645 28.3967 52.6216 28.293C52.4786 28.1892 52.3676 28.0475 52.301 27.8839C52.2345 27.7202 52.215 27.5412 52.245 27.3671L53.1786 21.9251L49.2255 18.0676C49.0991 17.9444 49.0096 17.7884 48.9672 17.6171C48.9248 17.4458 48.9311 17.266 48.9855 17.0981C49.04 16.9302 49.1403 16.7809 49.2751 16.667C49.41 16.5532 49.574 16.4793 49.7486 16.4538L55.2134 15.6592L57.6567 10.7081C57.7437 10.5604 57.8678 10.438 58.0166 10.3529C58.1654 10.2678 58.3338 10.2231 58.5052 10.2231C58.6767 10.2231 58.8451 10.2678 58.9939 10.3529C59.1427 10.438 59.2668 10.5604 59.3538 10.7081L61.7971 15.6592L67.2619 16.4538C67.4366 16.4791 67.6007 16.5529 67.7357 16.6667C67.8707 16.7805 67.9711 16.9298 68.0256 17.0977C68.0801 17.2657 68.0866 17.4455 68.0442 17.6169C68.0019 17.7883 67.9124 17.9444 67.7859 18.0676L63.8319 21.9213L64.7655 27.3634C64.7888 27.4992 64.7821 27.6384 64.746 27.7714C64.7099 27.9043 64.6451 28.0278 64.5563 28.1331C64.4674 28.2384 64.3567 28.3231 64.2317 28.3811C64.1067 28.4392 63.9706 28.4692 63.8328 28.4692V28.473ZM58.5052 23.7801C58.6586 23.7799 58.8096 23.8172 58.9451 23.8889L62.5766 25.7978L61.8823 21.7567C61.8564 21.6053 61.8677 21.4499 61.9154 21.3039C61.963 21.1579 62.0455 21.0256 62.1557 20.9186L65.0928 18.0553L61.0328 17.4659C60.881 17.4439 60.7369 17.3853 60.6128 17.2951C60.4887 17.205 60.3884 17.086 60.3205 16.9485L58.5052 13.2697L56.69 16.9447C56.6221 17.0822 56.5218 17.2012 56.3977 17.2914C56.2736 17.3815 56.1295 17.4401 55.9777 17.4621L51.9177 18.0515L54.8558 20.9149C54.9658 21.022 55.0481 21.1542 55.0956 21.3002C55.143 21.4463 55.1542 21.6016 55.1282 21.753L54.4339 25.7959L58.0654 23.887C58.2009 23.8153 58.3519 23.778 58.5052 23.7782V23.7801Z" fill="#1DA1F2"/>
<path d="M40.3278 20.1799C40.1746 20.1798 40.0238 20.1428 39.8879 20.0721L35.0002 17.5L30.1125 20.0702C29.9563 20.1523 29.7802 20.1891 29.6042 20.1764C29.4281 20.1637 29.2592 20.102 29.1164 19.9982C28.9736 19.8945 28.8626 19.7529 28.7961 19.5894C28.7296 19.4259 28.7101 19.2471 28.74 19.0731L29.6736 13.6302L25.7195 9.77639C25.5931 9.65321 25.5036 9.49709 25.4612 9.3257C25.4189 9.15431 25.4253 8.97448 25.4798 8.80657C25.5344 8.63865 25.6348 8.48934 25.7698 8.37554C25.9048 8.26173 26.0689 8.18797 26.2436 8.1626L31.7083 7.36895L34.1489 2.41977C34.2359 2.27206 34.3599 2.14963 34.5087 2.06456C34.6575 1.9795 34.826 1.93475 34.9974 1.93475C35.1688 1.93475 35.3373 1.9795 35.4861 2.06456C35.6349 2.14963 35.7589 2.27206 35.8459 2.41977L38.2921 7.37085L43.7569 8.16449C43.9316 8.18987 44.0957 8.26363 44.2307 8.37743C44.3657 8.49123 44.4661 8.64054 44.5206 8.80846C44.5751 8.97637 44.5816 9.1562 44.5392 9.32759C44.4969 9.49898 44.4074 9.6551 44.2809 9.77828L40.3269 13.6321L41.2605 19.075C41.2836 19.2108 41.2769 19.3499 41.2406 19.4828C41.2044 19.6156 41.1397 19.7389 41.0508 19.8441C40.962 19.9494 40.8513 20.0339 40.7264 20.0919C40.6015 20.1499 40.4655 20.1799 40.3278 20.1799ZM35.0002 15.488C35.1534 15.4878 35.3044 15.5248 35.4401 15.5958L39.0678 17.5048L38.3735 13.4618C38.3476 13.3106 38.3589 13.1554 38.4064 13.0096C38.4538 12.8637 38.536 12.7316 38.6459 12.6246L41.584 9.76125L37.5278 9.17571C37.3759 9.15357 37.2317 9.09481 37.1076 9.0045C36.9835 8.91419 36.8833 8.79504 36.8155 8.65733L35.0002 4.97571L33.185 8.65355C33.1172 8.79126 33.0169 8.91041 32.8928 9.00072C32.7687 9.09103 32.6245 9.14979 32.4727 9.17193L28.4127 9.76125L31.3508 12.6246C31.4606 12.7316 31.5428 12.8637 31.5903 13.0096C31.6378 13.1554 31.6491 13.3106 31.6232 13.4618L30.9327 17.5048L34.5641 15.5958C34.6987 15.5254 34.8483 15.4884 35.0002 15.488Z" fill="#1DA1F2"/>
<path d="M16.8228 28.473C16.6692 28.473 16.5179 28.4357 16.3819 28.3642L11.4952 25.795L6.60749 28.3623C6.45127 28.4444 6.27519 28.4812 6.09915 28.4685C5.92311 28.4558 5.75414 28.3941 5.61134 28.2903C5.46854 28.1866 5.35761 28.045 5.29109 27.8815C5.22457 27.7181 5.20512 27.5392 5.23492 27.3653L6.16857 21.9232L2.21452 18.0676C2.08969 17.9442 2.00166 17.7885 1.96027 17.6179C1.91888 17.4473 1.92576 17.2686 1.98015 17.1017C2.03453 16.9349 2.13427 16.7864 2.26821 16.673C2.40215 16.5595 2.56501 16.4856 2.73857 16.4594L8.2033 15.6649L10.6467 10.7138C10.7337 10.5661 10.8577 10.4436 11.0065 10.3586C11.1553 10.2735 11.3238 10.2288 11.4952 10.2288C11.6666 10.2288 11.835 10.2735 11.9839 10.3586C12.1327 10.4436 12.2567 10.5661 12.3437 10.7138L14.7871 15.6649L20.2518 16.4594C20.4265 16.485 20.5905 16.5588 20.7253 16.6727C20.8602 16.7866 20.9605 16.9359 21.0149 17.1038C21.0693 17.2717 21.0757 17.4514 21.0333 17.6228C20.9909 17.7941 20.9014 17.9501 20.7749 18.0732L16.8218 21.927L17.7555 27.369C17.7787 27.5048 17.7721 27.6441 17.7359 27.7771C17.6998 27.91 17.635 28.0335 17.5462 28.1388C17.4574 28.2441 17.3466 28.3288 17.2216 28.3868C17.0967 28.4449 16.9605 28.4749 16.8228 28.4749V28.473ZM11.4952 23.7801C11.6485 23.7799 11.7995 23.8172 11.9351 23.8889L15.5665 25.7978L14.8722 21.7567C14.8462 21.6054 14.8574 21.45 14.9049 21.304C14.9523 21.158 15.0346 21.0257 15.1447 20.9186L18.0828 18.0553L14.0228 17.4659C13.871 17.4439 13.7268 17.3853 13.6027 17.2951C13.4787 17.205 13.3783 17.086 13.3105 16.9485L11.4952 13.2697L9.67992 16.9485C9.61204 17.086 9.51173 17.205 9.38764 17.2951C9.26355 17.3853 9.11941 17.4439 8.96763 17.4659L4.90763 18.0553L7.84006 20.9186C7.95109 21.0252 8.03445 21.1572 8.08291 21.3032C8.13137 21.4493 8.14347 21.605 8.11817 21.7567L7.42384 25.7959L11.0553 23.887C11.1908 23.8153 11.3419 23.778 11.4952 23.7782V23.7801Z" fill="#1DA1F2"/>
</svg>
