<svg width="70" height="70" viewBox="0 0 70 70" fill="none" xmlns="http://www.w3.org/2000/svg">
<path d="M10.3906 36.9141C10.9156 36.9141 11.44 36.7138 11.8406 36.3132L26.7969 21.357L33.55 28.1101C34.3511 28.9112 35.6489 28.9112 36.45 28.1101L57.5586 7.0015V10.2539C57.5586 11.3872 58.4761 12.3047 59.6094 12.3047C60.7426 12.3047 61.6602 11.3872 61.6602 10.2539V2.05078C61.6602 1.98349 61.6564 1.91566 61.65 1.84891C61.6468 1.81526 61.6404 1.78268 61.6356 1.75011C61.6308 1.717 61.627 1.68388 61.6206 1.65131C61.6132 1.61125 61.6019 1.5728 61.5923 1.53381C61.5854 1.50871 61.58 1.48308 61.5726 1.45798C61.5603 1.41685 61.5453 1.37733 61.5304 1.33728C61.5218 1.31485 61.5149 1.29189 61.5058 1.26999C61.4887 1.22887 61.469 1.18881 61.4497 1.14929C61.4401 1.129 61.431 1.1087 61.4209 1.08894C61.3974 1.04515 61.3718 1.00349 61.3456 0.961838C61.3365 0.946884 61.3285 0.93193 61.3189 0.917511C61.282 0.862503 61.2431 0.809097 61.2014 0.757828C61.2009 0.757294 61.2009 0.75676 61.2003 0.756226C61.1117 0.647812 61.0123 0.548477 60.9039 0.459824C60.9034 0.45929 60.9029 0.45929 60.9023 0.458756C60.8511 0.417099 60.7977 0.378113 60.7426 0.341263C60.7282 0.33165 60.7133 0.323639 60.6983 0.31456C60.6567 0.288391 60.615 0.262756 60.5712 0.239258C60.5515 0.228577 60.5312 0.220032 60.5109 0.210419C60.4713 0.190659 60.4313 0.171432 60.3902 0.154343C60.3683 0.145264 60.3453 0.138321 60.3229 0.129776C60.2828 0.114822 60.2433 0.0998688 60.2022 0.0875854C60.1771 0.0801087 60.1514 0.0747681 60.1263 0.0678253C60.0874 0.0582122 60.0489 0.0469971 60.0089 0.0395202C59.9763 0.0331116 59.9432 0.0293732 59.91 0.0245667C59.8775 0.0197601 59.8449 0.0133514 59.8112 0.0101471C59.7445 0.00373841 59.6767 0 59.6094 0H51.4062C50.273 0 49.3555 0.917511 49.3555 2.05078C49.3555 3.18405 50.273 4.10156 51.4062 4.10156H54.6587L35 23.7602L28.2468 17.0071C27.4458 16.206 26.148 16.206 25.3469 17.0071L8.94066 33.4133C8.13957 34.2144 8.13957 35.5122 8.94066 36.3132C9.3412 36.7138 9.86565 36.9141 10.3906 36.9141Z" fill="#1DA1F2"/>
<path d="M0 67.9492C0 69.0825 0.917511 70 2.05078 70H18.457C19.5903 70 20.5078 69.0825 20.5078 67.9492V65.0781H0V67.9492Z" fill="#1DA1F2"/>
<path d="M18.457 56.0547H2.05078C0.917511 56.0547 0 56.9722 0 58.1055V60.9766H20.5078V58.1055C20.5078 56.9722 19.5903 56.0547 18.457 56.0547Z" fill="#1DA1F2"/>
<path d="M24.7461 67.9492C24.7461 69.0825 25.6636 70 26.7969 70H43.2031C44.3364 70 45.2539 69.0825 45.2539 67.9492V65.0781H24.7461V67.9492Z" fill="#1DA1F2"/>
<path d="M49.4922 56.0547H70V60.9766H49.4922V56.0547Z" fill="#1DA1F2"/>
<path d="M67.9492 28.9844H51.543C50.4097 28.9844 49.4922 29.9019 49.4922 31.0352V33.9062H70V31.0352C70 29.9019 69.0825 28.9844 67.9492 28.9844Z" fill="#1DA1F2"/>
<path d="M49.4922 38.0078H70V42.9297H49.4922V38.0078Z" fill="#1DA1F2"/>
<path d="M49.4922 47.0312H70V51.9531H49.4922V47.0312Z" fill="#1DA1F2"/>
<path d="M49.4922 67.9492C49.4922 69.0825 50.4097 70 51.543 70H67.9492C69.0825 70 70 69.0825 70 67.9492V65.0781H49.4922V67.9492Z" fill="#1DA1F2"/>
<path d="M24.7461 56.0547H45.2539V60.9766H24.7461V56.0547Z" fill="#1DA1F2"/>
<path d="M43.2031 47.0312H26.7969C25.6636 47.0312 24.7461 47.9488 24.7461 49.082V51.9531H45.2539V49.082C45.2539 47.9488 44.3364 47.0312 43.2031 47.0312Z" fill="#1DA1F2"/>
</svg>
