<svg width="70" height="70" viewBox="0 0 70 70" fill="none" xmlns="http://www.w3.org/2000/svg">
<g clip-path="url(#clip0)">
<path d="M69.3308 19.4418L47.1952 11.0026C46.6585 10.7981 46.0577 11.0673 45.8531 11.6035C45.6486 12.1402 45.9177 12.741 46.4545 12.9456L66.0421 20.4133L52.4824 25.5835L35.4288 17.8621C34.9055 17.625 34.2897 17.8573 34.0531 18.3801C33.816 18.9035 34.0483 19.5193 34.5712 19.7564L49.7453 26.627L35 32.2485L3.9579 20.4133L35 8.57803L42.6498 11.4951C43.1855 11.6991 43.7868 11.4304 43.9919 10.8937C44.1965 10.3575 43.9273 9.75669 43.3906 9.55215L35.3706 6.49414C35.1319 6.40335 34.8681 6.40281 34.6294 6.49414L0.669174 19.4418C0.266495 19.5956 0 19.9823 0 20.4133V25.1611C0 25.592 0.266495 25.9787 0.669174 26.1325L11.274 30.1753V33.7781C11.274 34.3522 11.7391 34.8179 12.3132 34.8179C12.8879 34.8179 13.353 34.3522 13.353 33.7781V30.9684L34.6294 39.0802C34.749 39.1256 34.8745 39.1486 35 39.1486C35.1255 39.1486 35.251 39.1256 35.3706 39.0802L51.4084 32.9658V49.419C46.3733 52.0621 40.7272 53.4784 35 53.4784C27.1835 53.4784 19.5166 50.8433 13.353 46.048V37.9368C13.353 37.3627 12.8879 36.897 12.3132 36.897C11.7391 36.897 11.274 37.3627 11.274 37.9368V46.5517C11.274 46.8673 11.4171 47.1658 11.6633 47.3629C18.2594 52.6474 26.5475 55.5575 35 55.5575C40.7005 55.5575 46.3252 54.2319 51.4084 51.7491V55.9569C49.733 56.4146 48.4978 57.949 48.4978 59.7674C48.4978 61.9453 50.2698 63.7179 52.4477 63.7179C54.6261 63.7179 56.3981 61.9453 56.3981 59.7674C56.3981 57.949 55.1628 56.4146 53.4875 55.9569V50.6511C55.182 49.6871 56.8056 48.5902 58.3372 47.3629C58.5835 47.1658 58.7271 46.8673 58.7271 46.5517V30.1748L69.3308 26.132C69.7335 25.9787 70 25.592 70 25.1605V20.4133C70 19.9823 69.7335 19.5956 69.3308 19.4418ZM54.319 59.7674C54.319 60.7987 53.4795 61.6383 52.4477 61.6383C51.4164 61.6383 50.5769 60.7987 50.5769 59.7674C50.5769 58.7356 51.4164 57.8961 52.4477 57.8961C53.4795 57.8961 54.319 58.7356 54.319 59.7674ZM2.07909 21.9225L33.9602 34.0777V36.5995L2.07909 24.4443V21.9225ZM36.0398 36.5995V34.0777L51.4084 28.218V30.7404L36.0398 36.5995ZM56.6475 46.0475C55.6333 46.8368 54.5775 47.5664 53.4875 48.2361V32.1727L56.6475 30.9679V46.0475ZM53.4875 29.9473V27.4255L67.9209 21.9225V24.4443L53.4875 29.9473Z" fill="#1DA1F2"/>
</g>
<defs>
<clipPath id="clip0">
<rect width="70" height="70" fill="white"/>
</clipPath>
</defs>
</svg>
