<svg width="228" height="301" viewBox="0 0 228 301" fill="none" xmlns="http://www.w3.org/2000/svg">
<path d="M117.117 244.363C178.306 244.363 227.909 195.974 227.909 136.282C227.909 76.59 178.306 28.2002 117.117 28.2002C55.9277 28.2002 6.32422 76.59 6.32422 136.282C6.32422 195.974 55.9277 244.363 117.117 244.363Z" fill="url(#paint0_linear)"/>
<path d="M37.5689 270.913C37.5689 270.913 -1.14176 272.455 0.472976 280.282C1.2032 283.821 38.152 288.871 76.1611 292.984C114.17 297.097 153.236 300.272 158.202 300.064C163.169 299.855 165.067 296.003 164.299 291.76C163.533 287.518 160.101 282.885 154.404 281.115C152.314 280.466 127.558 278.227 101.1 275.996C74.6415 273.764 46.4786 271.538 37.5689 270.913Z" fill="white"/>
<path d="M2.17008 279.905C2.42306 281.414 9.7163 283.257 21.1217 285.186C35.3171 287.589 55.8027 290.128 76.6741 292.379C97.3051 294.602 118.243 296.538 133.773 297.789C146.725 298.829 155.904 299.356 157.98 299.232C162.691 298.95 164.337 295.337 163.425 291.263C162.521 287.212 159.135 282.695 153.486 281.066C151.06 280.367 126.905 278.214 101.116 276.037C98.3314 275.802 95.5289 275.566 92.7318 275.333C69.5442 273.401 46.7638 271.609 38.7009 271.042C38.0514 270.993 0.908789 272.4 2.17008 279.905Z" fill="#F7F7F7"/>
<path d="M3.86676 279.529C4.05156 280.98 11.1887 282.795 22.4919 284.703C36.4468 287.06 56.5934 289.563 77.1867 291.774C97.6472 293.968 118.406 295.871 133.794 297.084C146.734 298.095 155.851 298.55 157.757 298.396C162.212 298.036 163.608 294.67 162.551 290.76C161.51 286.904 158.161 282.524 152.568 281.011C149.805 280.264 126.251 278.197 101.135 276.074C98.4008 275.843 95.6468 275.612 92.8999 275.383C70.2631 273.496 48.0066 271.742 39.8342 271.166C38.5334 271.075 2.95712 272.356 3.86676 279.529Z" fill="#EFEFF0"/>
<path d="M5.56547 279.151C5.6803 280.549 12.6614 282.331 23.8641 284.218C37.5786 286.532 57.386 288.996 77.7012 291.168C97.9913 293.335 118.572 295.204 133.819 296.38C146.746 297.366 155.799 297.749 157.536 297.564C161.732 297.117 162.882 294.011 161.678 290.262C160.503 286.602 157.182 282.375 151.651 280.962C148.549 280.17 125.598 278.185 101.153 276.118C98.4686 275.89 95.7648 275.663 93.0682 275.439C70.9803 273.596 49.2513 271.882 40.9677 271.299C39.0157 271.157 5.0039 272.325 5.56547 279.151Z" fill="#E7E8E8"/>
<path d="M7.26284 278.775C7.30949 280.126 14.1344 281.869 25.2349 283.735C38.709 286.003 58.1791 288.429 78.2145 290.565C98.3359 292.703 118.737 294.539 133.84 295.677C146.755 296.636 155.74 296.946 157.313 296.731C161.246 296.193 162.159 293.353 160.805 289.761C159.499 286.299 156.197 282.237 150.732 280.91C147.291 280.075 124.945 278.171 101.171 276.156C98.5351 275.932 95.8833 275.71 93.2351 275.488C71.6963 273.689 50.493 272.017 42.0999 271.424C39.4984 271.238 7.04216 272.308 7.26284 278.775Z" fill="#E0E0E0"/>
<path d="M8.961 278.399C8.93767 279.71 15.6065 281.407 26.6083 283.252C39.842 285.477 58.9731 287.864 78.7303 289.959C98.6813 292.07 118.903 293.873 133.866 294.974C146.768 295.905 155.682 296.144 157.094 295.899C160.757 295.262 161.441 292.698 159.934 289.264C158.502 286.002 155.213 282.109 149.816 280.861C146.033 279.986 124.293 278.159 101.19 276.199C98.6042 275.98 96.0026 275.759 93.4047 275.542C72.4167 273.787 51.7372 272.156 43.2365 271.555C39.9801 271.321 9.06685 272.304 8.961 278.399Z" fill="#D8D8D8"/>
<path d="M10.6572 278.022C10.3127 279.258 17.0784 280.945 27.9779 282.769C40.9712 284.948 59.7632 287.299 79.2405 289.355C99.0211 291.438 119.065 293.206 133.885 294.27C146.772 295.175 155.609 295.343 156.868 295.066C160.256 294.322 160.722 292.045 159.057 288.764C157.503 285.704 154.222 281.987 148.895 280.81C144.77 279.899 123.635 278.145 101.205 276.241C98.6694 276.025 96.1163 275.81 93.5686 275.596C73.1296 273.886 52.9759 272.295 44.3657 271.685C40.4634 271.401 9.93412 272.344 10.6572 278.022Z" fill="#D0D0D1"/>
<path d="M12.3521 277.644C11.8964 278.824 18.5473 280.481 29.3463 282.284C42.0992 284.418 60.552 286.73 79.7513 288.749C99.3632 290.804 119.226 292.539 133.906 293.566C146.781 294.443 155.617 294.756 156.645 294.233C159.858 294 160.011 291.394 158.183 288.265C156.512 285.406 153.231 281.871 147.978 280.76C143.508 279.814 122.983 278.131 101.222 276.281C98.737 276.069 96.2342 275.857 93.7367 275.647C73.8467 273.981 54.2187 272.43 45.4991 271.812C40.9419 271.483 11.7762 272.327 12.3521 277.644Z" fill="#C8C8C9"/>
<path d="M14.0497 277.268C13.4828 278.391 20.0207 280.019 30.7174 281.801C43.2299 283.891 61.3455 286.164 80.2648 288.144C99.7063 290.172 119.392 291.872 133.93 292.861C146.792 293.711 155.571 293.983 156.423 293.398C159.387 293.162 159.304 290.741 157.308 287.762C155.528 285.107 152.237 281.757 147.058 280.705C142.246 279.729 122.327 278.113 101.238 276.317C98.802 276.109 96.3512 275.902 93.904 275.696C74.5648 274.073 55.4624 272.563 46.6316 271.936C41.4249 271.565 13.6227 272.307 14.0497 277.268Z" fill="#C0C0C1"/>
<path d="M15.7481 276.891C15.0699 277.959 21.493 279.557 32.0911 281.318C44.3631 283.362 62.1396 285.599 80.7808 287.54C100.052 289.54 119.558 291.207 133.954 292.157C146.804 292.981 155.525 293.212 156.204 292.567C158.916 292.327 158.608 290.092 156.437 287.265C154.551 284.81 151.248 281.652 146.142 280.658C140.985 279.655 121.675 278.103 101.258 276.363C98.8713 276.158 96.4707 275.955 94.0719 275.754C75.2818 274.175 56.7051 272.707 47.7666 272.071C41.9069 271.646 15.4682 272.29 15.7481 276.891Z" fill="#B8B9BA"/>
<path d="M17.4413 276.513C16.6519 277.525 22.962 279.093 33.4578 280.833C45.4894 282.834 62.9268 285.032 81.2899 286.934C100.392 288.907 119.719 290.54 133.973 291.454C146.811 292.25 155.475 292.441 155.977 291.734C158.44 291.49 157.911 289.439 155.559 286.765C153.575 284.509 150.252 281.545 145.219 280.605C139.717 279.578 121.018 278.089 101.271 276.401C98.9354 276.202 96.5851 276.002 94.2365 275.804C75.9954 274.269 57.9444 272.841 48.8965 272.197C42.3855 271.728 17.3104 272.272 17.4413 276.513Z" fill="#B0B1B2"/>
<path d="M19.1412 276.137C18.2405 277.094 24.4357 278.631 34.8311 280.35C46.6222 282.305 63.7205 284.465 81.8038 286.329C100.736 288.273 119.883 289.873 133.996 290.748C146.82 291.518 155.427 291.667 155.755 290.899C157.969 290.652 157.225 288.781 154.686 286.264C152.608 284.204 149.26 281.44 144.301 280.553C138.452 279.506 120.364 278.073 101.288 276.442C99.0008 276.246 96.7007 276.05 94.4023 275.855C76.712 274.366 59.1849 272.976 50.0275 272.323C42.8707 271.81 19.1591 272.253 19.1412 276.137Z" fill="#A8A9AA"/>
<path d="M20.8359 275.76C19.824 276.662 25.9061 278.169 36.201 279.867C47.7518 281.778 64.5128 283.899 82.3162 285.725C101.078 287.641 120.047 289.208 134.018 290.046C146.829 290.79 155.378 290.897 155.532 290.067C157.495 289.817 156.542 288.123 153.811 285.765C151.646 283.896 148.266 281.34 143.384 280.504C137.189 279.441 119.71 278.06 101.307 276.483C99.07 276.291 96.8201 276.1 94.5721 275.909C77.4307 274.464 60.4293 273.116 51.1625 272.454C43.3507 271.891 21.0027 272.235 20.8359 275.76Z" fill="#A1A1A2"/>
<path d="M22.5353 275.385C21.4121 276.23 27.3795 277.707 37.5739 279.384C48.8842 281.25 65.3061 283.334 82.8314 285.121C101.424 287.01 120.213 288.543 134.042 289.343C146.84 290.059 155.331 290.127 155.312 289.236C157.025 288.982 155.868 287.456 152.94 285.268C150.69 283.586 147.274 281.245 142.467 280.455C135.926 279.381 119.059 278.049 101.326 276.526C99.1385 276.337 96.9388 276.15 94.7392 275.964C78.1469 274.562 61.6712 273.255 52.2967 272.585C43.8337 271.974 22.851 272.219 22.5353 275.385Z" fill="#99999B"/>
<path d="M24.2315 275.006C22.9971 275.796 28.8515 277.243 38.9436 278.899C50.0135 280.721 66.0963 282.765 83.3435 284.514C101.766 286.374 120.377 287.873 134.064 288.637C146.849 289.327 155.284 289.353 155.088 288.401C156.55 288.144 155.194 286.78 152.065 284.766C149.734 283.266 146.281 281.143 141.548 280.401C134.658 279.319 118.403 278.031 101.342 276.564C99.2056 276.38 97.0562 276.196 94.9069 276.014C78.8653 274.656 62.9153 273.391 53.4296 272.712C44.3153 272.054 24.6944 272.199 24.2315 275.006Z" fill="#919193"/>
<path d="M25.929 274.63C24.5816 275.364 30.3229 276.781 40.3145 278.418C51.144 280.194 66.8877 282.202 83.8569 283.912C102.109 285.744 120.542 287.209 134.086 287.936C146.859 288.599 155.235 288.583 154.866 287.57C156.079 287.309 154.523 286.098 151.191 284.269C148.78 282.944 145.287 281.05 140.629 280.353C133.392 279.27 117.748 278.02 101.359 276.608C99.2704 276.428 97.1713 276.247 95.0739 276.069C79.5814 274.754 64.157 273.529 54.5619 272.841C44.7963 272.136 26.5408 272.182 25.929 274.63Z" fill="#898A8B"/>
<path d="M27.6248 274.254C26.1662 274.932 31.7944 276.32 41.6856 277.935C52.2747 279.668 67.6811 281.637 84.3686 283.308C102.452 285.113 120.704 286.545 134.108 287.234C146.868 287.869 155.187 287.813 154.642 286.739C155.604 286.475 153.853 285.409 150.314 283.77C147.821 282.615 144.29 280.956 139.709 280.303C132.124 279.223 117.092 278.007 101.375 276.649C99.3372 276.472 97.2883 276.297 95.2393 276.122C80.2958 274.853 65.3972 273.666 55.6926 272.971C45.2793 272.219 28.3855 272.163 27.6248 274.254Z" fill="#818284"/>
<path d="M29.3215 273.878C27.7516 274.499 33.2668 275.859 43.0557 277.452C53.4044 279.139 68.4717 281.069 84.881 282.702C102.794 284.479 120.868 285.877 134.129 286.528C146.874 287.137 155.138 287.041 154.419 285.905C155.131 285.638 153.181 284.708 149.44 283.271C146.864 282.282 143.297 280.861 138.79 280.252C130.854 279.179 116.438 277.994 101.393 276.69C99.4047 276.517 97.406 276.345 95.4073 276.176C81.0146 274.95 66.6399 273.806 56.8277 273.1C45.7595 272.299 30.2311 272.145 29.3215 273.878Z" fill="#797A7C"/>
<path d="M31.019 273.499C29.3379 274.066 34.7383 275.395 44.4267 276.967C54.535 278.61 69.2632 280.502 85.3944 282.097C103.137 283.845 121.032 285.21 134.152 285.825C146.885 286.408 155.09 286.269 154.198 285.072C154.66 284.801 152.51 283.999 148.568 282.771C145.908 281.941 142.307 280.766 137.873 280.199C129.588 279.14 115.786 277.978 101.411 276.729C99.4731 276.561 97.5247 276.393 95.5744 276.225C81.7308 275.043 67.8817 273.939 57.96 273.225C46.2424 272.381 32.0758 272.127 31.019 273.499Z" fill="#717274"/>
<path d="M32.7153 273.123C30.923 273.634 36.2103 274.933 45.7965 276.484C55.6626 278.082 70.0535 279.937 85.9066 281.493C103.48 283.215 121.196 284.545 134.173 285.121C146.894 285.676 155.041 285.498 153.973 284.239C154.185 283.964 151.831 283.283 147.692 282.272C144.941 281.6 141.312 280.676 136.952 280.151C128.317 279.111 115.128 277.966 101.426 276.771C99.5368 276.606 97.6386 276.442 95.7404 276.279C82.4457 275.141 69.1241 274.077 59.0912 273.356C46.7223 272.463 33.921 272.108 32.7153 273.123Z" fill="#6A6A6C"/>
<path d="M34.4129 272.747C32.5721 273.403 37.6818 274.471 47.1693 276.001C56.7949 277.555 70.8485 279.372 86.4218 280.887C103.825 282.582 121.361 283.879 134.198 284.416C146.906 284.945 154.996 284.726 153.755 283.404C153.715 283.126 151.153 282.561 146.822 281.77C143.98 281.252 140.324 280.581 136.037 280.096C127.052 279.081 114.479 277.949 101.446 276.809C99.607 276.648 97.7591 276.487 95.9093 276.33C83.1654 275.236 70.3677 274.214 60.2254 273.482C47.2052 272.544 35.832 272.24 34.4129 272.747Z" fill="#626365"/>
<path d="M36.1066 272.369C34.0918 272.768 39.1513 274.007 48.5365 275.516C57.9217 277.025 71.6363 278.803 86.9314 280.282C104.164 281.948 121.523 283.21 134.218 283.712C146.914 284.215 154.946 283.954 153.529 282.573C153.051 282.107 145.803 281.173 135.115 280.047C124.427 278.922 110.304 277.607 96.0745 276.384C67.6138 273.935 38.7369 271.849 36.1066 272.369Z" fill="#353535"/>
<path d="M76.2383 15.5527C77.1515 11.8561 78.6353 7.90398 83.2714 4.04284C84.6475 2.8964 88.4529 0.277976 94.0507 0.715548C92.9185 0.610531 92.0035 1.06385 91.8205 1.92675C85.1947 1.31065 78.4146 7.39114 76.6868 15.495C76.3962 15.4687 76.2508 15.4915 76.2383 15.5527Z" fill="#292A2A"/>
<path d="M92.2474 1.18785C91.9765 1.31736 91.4813 1.04083 91.3934 1.44338C91.3683 1.5554 91.4741 1.5904 91.8957 1.67791C91.8617 1.75667 91.8365 1.84068 91.8168 1.92819C85.191 1.31211 78.4108 7.3924 76.6831 15.496C76.3942 15.4697 76.2489 15.4925 76.2363 15.5537C76.4211 14.8029 76.5988 14.0188 76.945 13.0299C79.4515 5.89071 85.8907 0.0799536 94.0469 0.717036C93.3059 0.647027 92.6583 0.81855 92.2474 1.18785Z" fill="#292A2A"/>
<path d="M92.5238 0.9885C92.4879 0.999002 92.4359 0.997253 92.3982 1.00075C91.0365 1.13027 89.9402 1.52934 89.9169 1.6081C89.9061 1.6466 89.9492 1.70261 89.9833 1.72361C90.5789 2.08942 91.2213 1.78488 91.8384 1.84263C85.1929 1.31055 78.4128 7.38925 76.685 15.493C76.3962 15.4668 76.2508 15.4895 76.2383 15.5508C76.4231 14.7999 76.6007 14.0158 76.947 13.0269C79.457 5.87527 85.9052 0.0766085 94.0488 0.713708C93.4568 0.6612 92.9239 0.759214 92.5238 0.9885Z" fill="#282828"/>
<path d="M92.8432 0.842628C89.1132 1.59697 85.8926 2.24806 82.3994 5.41246C78.1186 9.28921 77.0277 13.9588 76.6707 15.492C76.3908 15.4675 76.2508 15.4903 76.2383 15.5515C76.4231 14.8007 76.6007 14.0166 76.947 13.0277C79.4427 5.91828 85.8765 0.0760304 94.0489 0.714862C93.6003 0.674607 93.1895 0.718362 92.8432 0.842628Z" fill="#262727"/>
<path d="M93.2522 0.738172C80.7578 1.79534 77.3722 12.297 76.633 15.4895C76.3782 15.4702 76.2508 15.493 76.2383 15.5525C76.6581 13.853 76.6581 13.853 76.947 13.0286C79.457 5.87698 85.9052 0.0783175 94.0488 0.715417C93.7671 0.689163 93.4998 0.697915 93.2522 0.738172Z" fill="#252626"/>
<path d="M93.7815 0.701415C87.1844 0.342609 78.9187 5.4044 76.5935 15.4877C76.3657 15.4737 76.249 15.4982 76.2383 15.5525C76.4231 14.8016 76.6007 14.0175 76.947 13.0286C79.457 5.87698 85.9052 0.0783175 94.0488 0.715417C93.9573 0.706666 93.8694 0.703165 93.7815 0.701415Z" fill="#242525"/>
<path d="M92.6441 0.65272C86.4722 0.738484 78.7358 5.96654 76.5523 15.4845C76.3513 15.4758 76.249 15.5003 76.2383 15.551C76.4231 14.8002 76.6007 14.016 76.947 13.0271C79.3583 6.15382 85.4549 0.58446 92.8379 0.65272H92.6441Z" fill="#232323"/>
<path d="M90.5556 0.812503C85.2125 1.63688 78.5382 6.57962 76.5055 15.485C76.335 15.4815 76.2471 15.506 76.2363 15.5532C76.4211 14.8024 76.5988 14.0182 76.945 13.0293C79.0586 7.00669 84.0607 1.8049 90.6219 0.802002L90.5556 0.812503Z" fill="#212222"/>
<path d="M87.8356 1.49498C86.3392 2.05157 78.7589 5.33684 76.4516 15.485C76.3153 15.4867 76.2453 15.5112 76.2363 15.5532C76.6562 13.8537 76.6562 13.8537 76.945 13.0293C79.5896 5.49437 85.4744 2.53639 85.2035 2.72192C85.5552 2.53114 86.0217 2.27385 86.3805 2.09882C86.9869 1.80302 88.1244 1.38471 88.0706 1.41271L87.8356 1.49498Z" fill="#202121"/>
<path d="M76.6854 15.4949L25.1412 257.088C25.1358 257.088 25.1304 257.086 25.125 257.086L76.6693 15.4932C76.6747 15.4949 76.68 15.4949 76.6854 15.4949Z" fill="#282828"/>
<path d="M76.6675 15.4925L25.1233 257.085C25.1089 257.084 25.0964 257.084 25.082 257.082L76.6263 15.489C76.6406 15.4908 76.6532 15.4925 76.6675 15.4925Z" fill="#262727"/>
<path d="M76.6288 15.4915L25.0845 257.084C25.072 257.082 25.0594 257.082 25.0469 257.08L76.5912 15.488C76.6019 15.488 76.6145 15.4898 76.6288 15.4915Z" fill="#252626"/>
<path d="M76.5898 15.4881L25.0455 257.081C25.0329 257.081 25.0186 257.079 25.0078 257.079C32.9308 219.947 49.1338 143.997 73.9757 27.5666L76.5521 15.4863C76.5647 15.4863 76.5772 15.4881 76.5898 15.4881Z" fill="#242525"/>
<path d="M76.5533 15.4861L73.9769 27.5664C73.9661 27.6189 34.0319 214.791 35.3183 208.761C34.9433 210.522 24.6449 258.791 25.0091 257.081C24.9911 257.081 24.9732 257.079 24.957 257.079L76.5013 15.4844C76.5174 15.4844 76.5353 15.4844 76.5533 15.4861Z" fill="#232323"/>
<path d="M76.4991 15.4844L24.9549 257.077C24.9387 257.077 24.9226 257.077 24.9082 257.077L76.4525 15.4844C76.4669 15.4844 76.483 15.4844 76.4991 15.4844Z" fill="#212222"/>
<path d="M76.4529 15.4843L24.9086 257.077C24.7723 257.079 24.7023 257.104 24.6934 257.146C64.8968 68.7078 71.101 39.6343 71.083 39.7113C76.6754 13.8285 76.0708 15.4913 76.4529 15.4843Z" fill="#202121"/>
<path d="M38.2462 276.522C37.2917 276.409 36.104 276.269 34.3672 275.63C35.2445 275.959 36.1793 276.178 37.1679 276.269C37.5393 276.407 37.9017 276.489 38.2462 276.522Z" fill="#1F2020"/>
<path d="M36.4471 275.997L37.1648 276.267C36.1762 276.176 35.2397 275.957 34.3641 275.628L33.6465 275.358C34.5238 275.689 35.4604 275.906 36.4471 275.997Z" fill="#202121"/>
<path d="M33.6492 275.359C25.0534 271.881 23.3885 263.671 24.6946 257.146C24.7072 257.083 24.8525 257.062 25.1414 257.088C23.41 265.197 27.3841 272.268 34.0116 272.881C33.7712 274.006 34.8639 275.401 36.4499 275.998C35.4631 275.907 34.5266 275.69 33.6492 275.359Z" fill="#262727"/>
<path d="M25.1266 257.089C25.2701 257.273 25.0244 257.619 24.9813 257.847C23.8994 263.467 25.9824 271.861 34.0022 272.927C33.8013 274.043 34.885 275.41 36.4495 275.998C34.8276 275.848 33.5932 275.344 33.6488 275.359C30.9755 274.278 28.8728 272.83 27.1289 270.447C27.0248 270.217 23.5424 266.078 24.3964 258.928L24.5938 257.651L24.6942 257.145C24.7068 257.087 24.8467 257.064 25.1266 257.089Z" fill="#262727"/>
<path d="M25.0888 257.086C23.4759 265.45 27.1341 272.012 33.9842 273.046C33.8747 274.14 34.9368 275.432 36.4475 276.001C34.8256 275.85 33.5912 275.346 33.6469 275.362C30.9736 274.28 28.8708 272.833 27.1269 270.449C27.0229 270.22 23.5404 266.08 24.3945 258.931L24.5918 257.653L24.6923 257.147C24.7048 257.089 24.834 257.067 25.0888 257.086Z" fill="#252626"/>
<path d="M25.0493 257.082C23.4436 265.424 27.1144 272.036 33.977 273.163C33.9519 274.229 34.9925 275.451 36.4476 275.999C34.8257 275.848 33.5913 275.344 33.6469 275.36C30.9736 274.278 28.8709 272.831 27.1269 270.447C27.0229 270.218 23.5404 266.078 24.3945 258.929L24.5918 257.651L24.6923 257.145C24.7049 257.093 24.8197 257.068 25.0493 257.082Z" fill="#242525"/>
<path d="M25.0082 257.08C25.1571 257.263 24.9059 257.615 24.8611 257.846C23.8671 263.013 25.4657 271.777 33.9807 273.292C34.0381 274.327 35.0518 275.473 36.4495 275.998C34.8276 275.848 33.5932 275.344 33.6488 275.359C30.9755 274.278 28.8728 272.83 27.1289 270.446C27.0248 270.217 23.5424 266.078 24.3964 258.928L24.5938 257.65L24.6942 257.144C24.705 257.095 24.8073 257.071 25.0082 257.08Z" fill="#232323"/>
<path d="M24.9614 257.078C23.614 264.093 25.8854 271.877 33.995 273.447C34.1385 274.439 35.1199 275.498 36.4476 275.999C34.8257 275.848 33.5913 275.344 33.6469 275.36C30.9736 274.278 28.8709 272.831 27.1269 270.447C27.0229 270.218 23.5404 266.078 24.3945 258.928L24.5918 257.651L24.6923 257.145C24.7031 257.099 24.791 257.075 24.9614 257.078Z" fill="#212222"/>
<path d="M24.9076 257.079C23.562 264.078 25.8639 271.92 34.038 273.664C34.282 274.59 35.2149 275.536 36.4475 275.999C34.8256 275.848 33.5912 275.344 33.6469 275.36C30.9736 274.278 28.8708 272.831 27.1269 270.447C27.0229 270.218 23.5404 266.078 24.3945 258.929L24.5918 257.651L24.6923 257.145C24.7013 257.105 24.773 257.082 24.9076 257.079Z" fill="#202121"/>
<path d="M200.232 11.9712L91.8223 1.9269C91.8294 1.89715 91.8366 1.8674 91.8438 1.83765C103.755 2.94201 183.764 10.354 194.834 11.3796L200.254 11.8819C200.245 11.9117 200.238 11.9414 200.232 11.9712Z" fill="#282828"/>
<path d="M200.254 11.8823L194.834 11.38C183.295 10.3106 87.5109 1.43673 91.8437 1.83754C91.8599 1.77803 91.8814 1.72027 91.9047 1.66602L200.315 11.7108C200.291 11.7651 200.27 11.8228 200.254 11.8823Z" fill="#292A2A"/>
<path d="M200.312 11.7112L91.9023 1.6665C91.9813 1.48272 92.0979 1.32345 92.2468 1.19043L200.657 11.2351C200.508 11.3681 200.391 11.5274 200.312 11.7112Z" fill="#2A2B2B"/>
<path d="M200.662 11.2327L92.252 1.18809C92.3345 1.11283 92.4278 1.04632 92.5301 0.986816C95.4779 1.25985 205.07 11.4129 200.94 11.0314C200.838 11.0909 200.745 11.1592 200.662 11.2327Z" fill="#292A2A"/>
<path d="M200.938 11.0337C193.091 10.3073 87.8476 0.556751 92.5285 0.989061C92.6272 0.931303 92.7348 0.882297 92.8497 0.842041L201.26 10.8867C201.145 10.9269 201.037 10.9759 200.938 11.0337Z" fill="#282828"/>
<path d="M201.258 10.8867L92.8477 0.841792C92.975 0.796284 93.1114 0.761279 93.2567 0.738525L201.667 10.7835C201.521 10.8062 201.385 10.8412 201.258 10.8867Z" fill="#262727"/>
<path d="M201.668 10.7834L93.2578 0.738558C93.7709 0.654545 202.262 10.7519 202.195 10.7449C202.011 10.7432 201.835 10.7554 201.668 10.7834Z" fill="#252626"/>
<path d="M202.195 10.7462L93.7852 0.701904C93.8731 0.703654 93.961 0.708905 94.0525 0.715906C89.6012 0.302862 207.901 11.2643 202.463 10.7602C202.371 10.7515 202.283 10.7462 202.195 10.7462Z" fill="#242525"/>
<path d="M207.053 11.9231C215.649 15.4008 217.315 23.6113 216.009 30.1362C216.038 30.0015 215.442 29.6777 214.355 29.2681C216.065 21.2449 212.873 14.1109 207.053 11.9231Z" fill="#353636"/>
<path d="M214.352 29.2683C214.732 27.49 214.635 27.1855 214.859 25.899C215.048 24.1891 215.014 22.7784 214.278 20.6256C212.452 13.5091 206.997 11.8831 207.051 11.9251C213.207 14.4157 216.329 19.5579 216.44 25.836L216.417 27.0612C216.228 29.2665 215.993 30.1924 216.008 30.1381C216.036 30.0016 215.439 29.6778 214.352 29.2683Z" fill="#353636"/>
<path d="M214.352 29.268C214.416 28.9652 214.515 28.4383 214.526 28.4086C215.945 24.257 214.879 20.9595 213.736 18.9239C211.544 13.2181 206.996 11.8844 207.051 11.9229C219.356 16.9006 216.017 30.1886 216.008 30.1361C216.036 30.0013 215.439 29.6775 214.352 29.268Z" fill="#343535"/>
<path d="M214.493 29.3222C215.431 27.0836 216.515 22.6047 213.226 17.7547C211.884 15.0173 209.751 12.9397 207.051 11.9246C219.359 16.9041 216.016 30.1903 216.007 30.1378C216.036 30.0065 215.492 29.7055 214.493 29.3222Z" fill="#333434"/>
<path d="M214.772 29.4307C216.442 25.1233 215.678 20.4099 212.725 16.8219C210.414 12.9118 206.996 11.8896 207.051 11.9229C219.356 16.9006 216.017 30.1886 216.008 30.1361C216.031 30.0188 215.592 29.7615 214.772 29.4307Z" fill="#323232"/>
<path d="M215.012 29.5305C216.692 24.7838 215.62 19.6118 212.217 16.0308C209.972 12.798 206.996 11.8914 207.052 11.9229C219.356 16.9006 216.017 30.1886 216.008 30.1361C216.03 30.0311 215.678 29.814 215.012 29.5305Z" fill="#303131"/>
<path d="M215.22 29.6215C217.266 23.2383 214.603 17.9385 211.702 15.3412C209.58 12.6983 206.996 11.8932 207.052 11.9229C219.356 16.9006 216.017 30.1886 216.008 30.1361C216.028 30.0433 215.75 29.8595 215.22 29.6215Z" fill="#2F3030"/>
<path d="M215.397 29.7023C217.045 23.9439 215.431 18.2066 211.18 14.7324C209.228 12.6111 206.998 11.8935 207.054 11.9232C219.358 16.9009 216.019 30.1888 216.01 30.1363C216.024 30.0541 215.811 29.9018 215.397 29.7023Z" fill="#2E2F2F"/>
<path d="M215.543 29.7758C217.245 23.6358 215.367 17.6622 210.641 14.1862C209.604 13.2008 208.398 12.4307 207.051 11.9231C219.359 16.9026 216.016 30.1888 216.007 30.1363C216.023 30.0646 215.862 29.9385 215.543 29.7758Z" fill="#2D2D2D"/>
<path d="M215.665 29.8402C217.398 23.3958 215.209 17.0563 210.087 13.6923C209.182 12.9415 208.165 12.3429 207.053 11.9246C219.361 16.9041 216.018 30.1903 216.009 30.1378C216.022 30.073 215.903 29.9715 215.665 29.8402Z" fill="#2B2C2C"/>
<path d="M215.763 29.8963C217.739 21.5092 213.827 15.7946 209.509 13.2445C208.755 12.7002 207.934 12.2556 207.053 11.9231C219.361 16.9025 216.018 30.1886 216.009 30.1361C216.02 30.0836 215.936 30.0013 215.763 29.8963Z" fill="#2A2B2B"/>
<path d="M215.841 29.9471C217.825 21.1013 213.559 15.3097 208.905 12.8384C207.918 12.2223 206.998 11.9002 207.053 11.923C219.358 16.9007 216.019 30.1886 216.01 30.1361C216.019 30.0923 215.961 30.0276 215.841 29.9471Z" fill="#292A2A"/>
<path d="M215.902 29.9911C218.926 15.9313 206.997 11.8794 207.053 11.9232C219.357 16.9009 216.018 30.1888 216.009 30.1363C216.016 30.0996 215.981 30.0506 215.902 29.9911Z" fill="#282828"/>
<path d="M208.987 12.8152C207.918 12.2392 206.998 11.903 207.053 11.924C207.85 12.2462 208.289 12.4247 209.064 12.8572L208.987 12.8152Z" fill="#262727"/>
<path d="M215.949 30.0289C216.249 28.5884 217.159 24.204 215.113 19.5186C215.16 19.6743 216.375 21.9969 216.443 25.8335C216.484 28.1509 215.958 30.4122 216.01 30.1357C216.016 30.1077 215.994 30.0709 215.949 30.0289Z" fill="#262727"/>
<path d="M215.98 30.0622C216.47 27.6399 216.657 25.5344 216.076 22.531C216.294 23.7211 216.422 24.7905 216.442 25.8337C216.483 28.1509 215.957 30.4122 216.009 30.1357C216.013 30.1147 216.004 30.0902 215.98 30.0622Z" fill="#252626"/>
<path d="M215.998 30.0923C216.256 28.8601 216.509 27.3234 216.421 25.2739C216.506 28.0533 216 30.1868 216.005 30.1343C216.009 30.1238 216.005 30.1098 215.998 30.0923Z" fill="#242525"/>
<path d="M216.01 30.1202C216.198 29.1539 216.232 28.9789 216.335 28.1055C216.284 28.5466 216.022 30.2322 216.01 30.1202Z" fill="#232323"/>
<path d="M206.334 11.6533C206.946 11.8861 207.183 11.9631 207.588 12.1416L206.87 11.8721C206.693 11.7933 206.515 11.7216 206.334 11.6533Z" fill="#262727"/>
<path d="M206.871 11.8723C207.259 12.0315 207.53 12.0804 208.269 12.4705L207.551 12.2011C207.329 12.0839 207.103 11.9738 206.871 11.8723Z" fill="#282828"/>
<path d="M207.551 12.2004C208.026 12.4106 208.051 12.3055 208.905 12.8379L208.188 12.5682C207.98 12.4369 207.766 12.3143 207.551 12.2004Z" fill="#292A2A"/>
<path d="M208.184 12.5667L208.901 12.8364C209.108 12.966 209.31 13.1008 209.506 13.2427L208.788 12.973C208.593 12.8311 208.39 12.6963 208.184 12.5667Z" fill="#2A2B2B"/>
<path d="M208.789 12.9741L209.507 13.2436C209.704 13.3854 209.896 13.5342 210.083 13.6899L209.365 13.4204C209.178 13.2646 208.986 13.1159 208.789 12.9741Z" fill="#2B2C2C"/>
<path d="M209.369 13.4207L210.087 13.6902C210.277 13.8495 210.464 14.014 210.645 14.1855L209.927 13.916C209.746 13.7445 209.561 13.5799 209.369 13.4207Z" fill="#2D2D2D"/>
<path d="M209.928 13.9165L210.645 14.186C210.83 14.3628 211.011 14.5449 211.185 14.7339L210.468 14.4643C210.294 14.2771 210.113 14.0933 209.928 13.9165Z" fill="#2E2F2F"/>
<path d="M210.465 14.4658L211.183 14.7353C211.362 14.9313 211.536 15.1343 211.705 15.3425L210.987 15.073C210.818 14.8648 210.644 14.6618 210.465 14.4658Z" fill="#2F3030"/>
<path d="M210.988 15.0732L211.706 15.3427C211.884 15.565 212.056 15.7943 212.219 16.0305L211.501 15.761C211.338 15.5248 211.166 15.2955 210.988 15.0732Z" fill="#303131"/>
<path d="M211.498 15.7612L212.216 16.0308C212.393 16.2881 212.564 16.5541 212.725 16.8271L212.008 16.5576C211.846 16.2846 211.677 16.0185 211.498 15.7612Z" fill="#323232"/>
<path d="M212.012 16.5571L212.729 16.8267C212.909 17.1314 213.077 17.4447 213.235 17.7668L212.518 17.4972C212.36 17.1751 212.191 16.8617 212.012 16.5571Z" fill="#333434"/>
<path d="M212.516 17.4973L213.233 17.7669C213.418 18.1449 213.587 18.5352 213.741 18.936L213.023 18.6665C212.871 18.2657 212.7 17.8754 212.516 17.4973Z" fill="#343535"/>
<path d="M213.023 18.6685L213.741 18.938C213.953 19.4911 214.134 20.0651 214.287 20.6584L213.569 20.3889C213.418 19.7938 213.235 19.2198 213.023 18.6685Z" fill="#353636"/>
<path d="M213.57 20.3867L214.288 20.6562C214.747 22.459 214.918 24.4367 214.756 26.5125L214.039 26.2429C214.2 24.1672 214.03 22.1894 213.57 20.3867Z" fill="#373737"/>
<path d="M214.038 26.2429L214.755 26.5124C214.707 27.1372 214.628 27.7725 214.518 28.4131L213.801 28.1436C213.91 27.503 213.989 26.8677 214.038 26.2429Z" fill="#353636"/>
<path d="M213.798 28.144L214.516 28.4136C214.467 28.6971 214.411 28.9806 214.35 29.2676L213.633 28.9981C213.696 28.7128 213.749 28.4276 213.798 28.144Z" fill="#343535"/>
<path d="M202.459 10.7613C204.068 10.9521 204.789 11.1166 206.314 11.6452C212.156 13.8418 215.348 20.9741 213.636 28.9973C212.05 28.4005 210.017 27.8474 209.097 27.7634C210.826 19.6596 206.854 12.5833 200.227 11.9707C200.411 11.1096 201.326 10.6563 202.459 10.7613Z" fill="#9D9E9E"/>
<path d="M210.344 27.9919C210.288 27.8852 210.455 27.7329 210.503 27.6209C211.166 26.0771 210.997 23.2434 210.652 23.1734C210.41 23.1244 210.129 27.8939 210.125 27.9412C209.716 27.8501 209.361 27.7871 209.097 27.7626C210.826 19.6588 206.854 12.5824 200.227 11.9698C200.411 11.1069 201.325 10.6536 202.457 10.7586C204.027 10.9441 204.963 11.2102 204.909 11.1944C205.839 11.4657 205.857 11.471 206.334 11.6512C212.154 13.8391 215.346 20.9733 213.634 28.9966C212.583 28.6028 211.334 28.2247 210.344 27.9919Z" fill="#9D9E9E"/>
<path d="M210.426 28.0112C210.328 27.8344 210.581 27.5666 210.649 27.3758C211.345 25.3787 210.875 22.4943 210.548 22.9388C210.446 23.0771 210.064 27.8799 210.06 27.9272C209.678 27.8431 209.346 27.7854 209.097 27.7626C210.826 19.6588 206.854 12.5824 200.227 11.9698C200.411 11.1069 201.325 10.6536 202.457 10.7586C204.027 10.9441 204.963 11.2102 204.909 11.1944C205.839 11.4657 205.857 11.471 206.334 11.6512C212.154 13.8391 215.346 20.9733 213.634 28.9966C212.612 28.6133 211.402 28.2457 210.426 28.0112Z" fill="#9B9B9B"/>
<path d="M210.486 28.0269C210.45 27.9639 210.543 27.8676 210.568 27.7994C211.541 25.0987 210.825 22.2807 210.529 22.6448C210.478 22.7078 210.444 22.9178 210.387 24.0048C210.304 25.5625 210.238 26.1104 210.023 27.9184C209.657 27.8396 209.339 27.7854 209.097 27.7626C210.826 19.6588 206.854 12.5824 200.227 11.9698C200.411 11.1069 201.325 10.6536 202.457 10.7586C204.027 10.9441 204.963 11.2102 204.909 11.1944C205.839 11.4657 205.857 11.471 206.334 11.6512C212.154 13.8391 215.346 20.9733 213.634 28.9966C212.633 28.6203 211.451 28.2615 210.486 28.0269Z" fill="#989898"/>
<path d="M210.543 28.0392C210.448 27.8746 210.679 27.6191 210.739 27.4388C211.282 25.7656 211.21 23.2364 210.593 22.3332C210.534 22.4173 210.448 22.5345 210.437 22.636C210.245 24.3916 210.218 26.1594 209.987 27.9114C209.637 27.8361 209.332 27.7854 209.099 27.7626C210.828 19.6588 206.856 12.5824 200.229 11.9698C200.413 11.1069 201.327 10.6536 202.459 10.7586C204.029 10.9441 204.965 11.2102 204.911 11.1944C205.841 11.4657 205.859 11.471 206.336 11.6512C212.156 13.8391 215.348 20.9733 213.636 28.9966C212.653 28.629 211.498 28.2755 210.543 28.0392Z" fill="#959595"/>
<path d="M210.597 28.0537C210.572 28.0081 210.634 27.9399 210.651 27.8926C211.542 25.2463 211.07 22.6979 210.566 22.0731C210.387 22.3829 210.387 22.3829 210.36 23.2562C210.308 24.9645 210.238 25.9236 209.956 27.9066C209.619 27.8349 209.325 27.7859 209.097 27.7649C210.826 19.6613 206.854 12.585 200.227 11.9724C200.411 11.1096 201.325 10.6563 202.457 10.7613C204.027 10.9468 204.963 11.2128 204.909 11.1971C205.839 11.4684 205.857 11.4736 206.334 11.6539C212.154 13.8417 215.346 20.9757 213.634 28.9988C212.671 28.6347 211.541 28.2882 210.597 28.0537Z" fill="#929292"/>
<path d="M210.647 28.0654C210.55 27.8974 210.78 27.6366 210.837 27.4528C211.684 24.7241 210.837 21.7907 210.536 21.8117C210.364 21.8239 210.36 22.0147 210.331 23.2556C210.281 25.3822 210.154 26.3589 209.929 27.8992C209.603 27.8309 209.318 27.7836 209.097 27.7626C210.826 19.6588 206.854 12.5824 200.227 11.9698C200.411 11.1069 201.325 10.6536 202.457 10.7586C204.027 10.9441 204.963 11.2102 204.909 11.1944C205.839 11.4657 205.857 11.471 206.334 11.6512C212.154 13.8391 215.346 20.9733 213.634 28.9966C212.689 28.6413 211.582 28.3017 210.647 28.0654Z" fill="#8E8F8F"/>
<path d="M210.699 28.0792C210.678 28.0407 210.731 27.9794 210.746 27.9374C211.928 24.2812 210.681 21.5403 210.502 21.5525C210.324 21.5648 210.319 21.9043 210.313 22.5204C210.295 24.2409 210.281 25.4853 209.906 27.8954C209.59 27.8306 209.314 27.7851 209.099 27.7641C210.828 19.6605 206.856 12.5843 200.229 11.9717C200.413 11.1088 201.327 10.6555 202.459 10.7605C204.029 10.9461 204.965 11.2121 204.911 11.1964C205.841 11.4676 205.859 11.4729 206.336 11.6532C212.156 13.841 215.348 20.9749 213.636 28.998C212.705 28.648 211.621 28.3137 210.699 28.0792Z" fill="#8B8B8B"/>
<path d="M210.749 28.0922C210.652 27.9259 210.88 27.6633 210.936 27.4813C211.89 24.3536 210.785 21.2732 210.46 21.2942C210.283 21.3047 210.277 21.4167 210.277 22.8852C210.276 24.9872 210.154 26.1284 209.879 27.8909C209.572 27.8279 209.305 27.7841 209.097 27.7649C210.826 19.6613 206.854 12.585 200.227 11.9724C200.411 11.1096 201.325 10.6563 202.457 10.7613C204.027 10.9468 204.963 11.2128 204.909 11.1971C205.839 11.4684 205.857 11.4736 206.334 11.6539C212.154 13.8417 215.346 20.9757 213.634 28.9988C212.723 28.6557 211.661 28.3267 210.749 28.0922Z" fill="#878888"/>
<path d="M210.803 28.1062C210.787 28.0782 210.825 28.0361 210.835 28.0064C212.142 23.9073 210.611 20.8829 210.329 21.0492C210.055 21.2102 210.559 23.4488 209.859 27.8856C209.562 27.8244 209.301 27.7824 209.097 27.7649C210.826 19.6613 206.854 12.585 200.227 11.9724C200.411 11.1096 201.325 10.6563 202.457 10.7613C204.027 10.9468 204.963 11.2128 204.909 11.1971C205.839 11.4684 205.857 11.4736 206.334 11.6539C212.154 13.8417 215.346 20.9757 213.634 28.9988C212.741 28.661 211.702 28.3389 210.803 28.1062Z" fill="#838484"/>
<path d="M210.857 28.1197C212.323 23.2906 210.394 20.7597 210.367 20.7615C209.841 20.793 210.67 22.6483 209.838 27.8799C209.549 27.8221 209.298 27.7819 209.097 27.7626C210.826 19.6588 206.854 12.5824 200.227 11.9698C200.411 11.1069 201.325 10.6536 202.457 10.7586C204.027 10.9441 204.963 11.2102 204.909 11.1944C205.839 11.4657 205.857 11.471 206.334 11.6512C212.154 13.8391 215.346 20.9733 213.634 28.9966C212.759 28.6675 211.745 28.3507 210.857 28.1197Z" fill="#808080"/>
<path d="M210.914 28.1354C210.787 27.9149 211.083 27.5701 211.155 27.3286C212.142 24.0205 210.735 20.4657 210.311 20.4919C209.77 20.5252 210.687 22.7393 209.816 27.8764C209.536 27.8204 209.292 27.7819 209.097 27.7626C210.826 19.6588 206.854 12.5824 200.227 11.9698C200.411 11.1069 201.325 10.6536 202.457 10.7586C204.027 10.9441 204.963 11.2102 204.909 11.1944C205.839 11.4657 205.857 11.471 206.334 11.6512C212.154 13.8391 215.346 20.9733 213.634 28.9966C212.777 28.6745 211.786 28.3647 210.914 28.1354Z" fill="#7B7C7C"/>
<path d="M210.975 28.1512C210.914 28.0444 211.06 27.8781 211.096 27.7609C212.369 23.6267 210.599 20.1961 210.249 20.2066C210.103 20.2101 210.041 20.3204 210.102 21.2971C210.267 23.94 210.198 25.4155 209.795 27.8711C209.524 27.8169 209.285 27.7801 209.097 27.7626C210.826 19.6588 206.854 12.5824 200.227 11.9698C200.411 11.1069 201.325 10.6536 202.457 10.7586C204.027 10.9441 204.963 11.2102 204.909 11.1944C205.839 11.4657 205.857 11.471 206.334 11.6512C212.154 13.8391 215.346 20.9733 213.634 28.9966C212.796 28.6833 211.833 28.3787 210.975 28.1512Z" fill="#777777"/>
<path d="M211.04 28.1692C210.923 27.9626 211.198 27.6423 211.266 27.4166C212.375 23.7376 210.672 19.8695 210.177 19.9133C210.059 19.9238 209.955 19.9325 210.039 20.9284C210.29 23.9371 210.148 25.6261 209.777 27.8699C209.513 27.8174 209.283 27.7824 209.097 27.7649C210.826 19.6613 206.854 12.585 200.227 11.9724C200.411 11.1096 201.325 10.6563 202.457 10.7613C204.027 10.9468 204.963 11.2128 204.909 11.1971C205.839 11.4684 205.857 11.4736 206.334 11.6539C212.154 13.8417 215.346 20.9757 213.634 28.9988C212.818 28.6907 211.881 28.3949 211.04 28.1692Z" fill="#727373"/>
<path d="M211.108 28.1867C210.982 27.9644 211.28 27.6196 211.354 27.378C212.497 23.629 210.701 19.5841 210.094 19.6086C209.872 19.6174 209.915 20.0514 210.015 21.1033C210.333 24.4043 210.012 26.3244 209.755 27.8664C209.5 27.8174 209.276 27.7823 209.095 27.7648C210.824 19.6611 206.852 12.5848 200.225 11.9722C200.409 11.1093 201.323 10.656 202.455 10.761C204.025 10.9466 204.961 11.2126 204.907 11.1969C205.837 11.4681 205.855 11.4734 206.332 11.6537C212.152 13.8415 215.344 20.9756 213.632 28.9988C212.839 28.6995 211.931 28.4107 211.108 28.1867Z" fill="#6C6D6D"/>
<path d="M211.185 28.2072C213.035 22.3665 210.193 19.2387 209.999 19.2702C209.876 19.2895 209.777 19.307 209.908 20.4079C210.247 23.2591 210.204 25.139 209.739 27.8606C209.492 27.8134 209.275 27.7801 209.099 27.7626C210.828 19.6588 206.856 12.5824 200.229 11.9698C200.413 11.1069 201.327 10.6536 202.459 10.7586C204.029 10.9441 204.965 11.2102 204.911 11.1944C205.841 11.4657 205.859 11.471 206.336 11.6512C212.156 13.8391 215.348 20.9733 213.636 28.9966C212.865 28.7078 211.987 28.4277 211.185 28.2072Z" fill="#666767"/>
<path d="M211.27 28.2322C213.236 22.0538 210.107 18.8964 209.89 18.9261C209.676 18.9559 209.714 19.2359 209.865 20.4174C210.227 23.2352 210.191 25.0432 209.718 27.8594C209.479 27.8139 209.269 27.7806 209.097 27.7649C210.826 19.6613 206.854 12.585 200.227 11.9724C200.411 11.1096 201.325 10.6563 202.457 10.7613C204.027 10.9468 204.963 11.2128 204.909 11.1971C205.839 11.4684 205.857 11.4736 206.334 11.6539C212.154 13.8417 215.346 20.9757 213.634 28.9988C212.891 28.7187 212.048 28.4492 211.27 28.2322Z" fill="#5F6060"/>
<path d="M211.365 28.2584C211.284 28.1097 211.487 27.8839 211.539 27.7246C213.24 22.4949 210.168 18.4046 209.755 18.5376C209.558 18.6006 209.578 18.8351 209.779 20.1163C210.272 23.2737 210.123 25.3443 209.698 27.8541C209.466 27.8104 209.264 27.7789 209.097 27.7649C210.826 19.6613 206.854 12.585 200.227 11.9724C200.411 11.1096 201.325 10.6563 202.457 10.7613C204.027 10.9468 204.963 11.2128 204.909 11.1971C205.839 11.4684 205.857 11.4736 206.334 11.6539C212.154 13.8417 215.346 20.9757 213.634 28.9988C212.922 28.7292 212.116 28.4702 211.365 28.2584Z" fill="#555656"/>
<path d="M211.474 28.2892C211.404 28.1597 211.584 27.9619 211.632 27.8219C213.532 22.1774 210.129 17.8578 209.596 18.1116C209.431 18.1903 209.42 18.3986 209.651 19.6255C210.348 23.2888 210.046 25.6971 209.678 27.8499C209.456 27.8079 209.26 27.7781 209.099 27.7641C210.828 19.6605 206.856 12.5843 200.229 11.9717C200.413 11.1088 201.327 10.6555 202.459 10.7605C204.029 10.9461 204.965 11.2121 204.911 11.1964C205.841 11.4676 205.859 11.4729 206.336 11.6532C212.156 13.841 215.348 20.9749 213.636 28.998C212.956 28.7425 212.194 28.494 211.474 28.2892Z" fill="#3E3F3F"/>
<path d="M211.602 28.326C211.562 28.2489 211.668 28.1369 211.697 28.0547C214.011 21.5018 210.001 17.6022 209.492 17.6425C209.44 17.646 209.368 17.681 209.336 17.7213C209.233 17.8455 209.314 18.2376 209.494 19.0934C210.179 22.3751 210.22 24.5839 209.659 27.8464C209.445 27.8061 209.255 27.7781 209.099 27.7641C210.828 19.6605 206.856 12.5843 200.229 11.9717C200.413 11.1088 201.327 10.6555 202.459 10.7605C204.029 10.9461 204.965 11.2121 204.911 11.1964C205.841 11.4676 205.859 11.4729 206.336 11.6532C212.156 13.841 215.348 20.9749 213.636 28.998C212.996 28.7565 212.283 28.5237 211.602 28.326Z" fill="#3D3E3E"/>
<path d="M211.754 28.37C211.666 28.1985 211.91 27.9499 211.976 27.7696C214.411 21.2043 209.615 16.3473 209.102 17.2172C209.074 17.2662 209.056 17.4097 209.136 17.8105C210.085 22.4733 210.34 23.7265 209.637 27.8414C209.431 27.8029 209.249 27.7766 209.097 27.7626C210.826 19.6588 206.854 12.5824 200.227 11.9698C200.411 11.1069 201.325 10.6536 202.457 10.7586C204.027 10.9441 204.963 11.2102 204.909 11.1944C205.839 11.4657 205.857 11.471 206.334 11.6512C212.154 13.8391 215.346 20.9733 213.634 28.9966C213.044 28.776 212.389 28.559 211.754 28.37Z" fill="#3C3C3C"/>
<path d="M211.942 28.4282C211.989 28.4422 212.874 26.2439 212.944 24.4167C213.06 23.1652 212.77 21.9348 212.613 21.2732C211.869 18.1245 208.34 15.0844 208.873 17.2127C209.951 21.5165 210.398 23.2982 209.614 27.8401C209.418 27.8051 209.244 27.7789 209.097 27.7649C210.826 19.6613 206.854 12.585 200.227 11.9724C200.411 11.1096 201.325 10.6563 202.457 10.7613C204.027 10.9468 204.963 11.2128 204.909 11.1971C205.839 11.4684 205.857 11.4736 206.334 11.6539C212.154 13.8417 215.346 20.9757 213.634 28.9988C213.101 28.7975 212.518 28.6015 211.942 28.4282Z" fill="#3A3B3B"/>
<path d="M212.176 28.4995C212.109 28.3577 212.321 28.1652 212.382 28.0217C215.671 20.4132 209.065 15.1028 208.492 15.9552C208.399 16.0935 208.519 16.4873 208.564 16.6361C209.786 20.6477 210.459 22.8583 209.59 27.8326C209.404 27.7994 209.237 27.7749 209.097 27.7626C210.826 19.6588 206.854 12.5824 200.227 11.9698C200.411 11.1069 201.325 10.6536 202.457 10.7586C204.027 10.9441 204.963 11.2102 204.909 11.1944C205.839 11.4657 205.857 11.471 206.334 11.6512C212.154 13.8391 215.346 20.9733 213.634 28.9966C213.173 28.8251 212.674 28.6553 212.176 28.4995Z" fill="#393A3A"/>
<path d="M212.459 28.5888C212.534 28.587 213.485 26.4097 213.586 24.7924C213.747 23.4744 213.482 21.9744 213.329 21.4563C211.869 16.5013 208.564 15.2761 208.532 15.2656C207.78 15.0328 208.029 15.6506 208.438 16.6746C209.21 18.5999 210.647 22.1845 209.569 27.8291C209.391 27.7976 209.231 27.7749 209.097 27.7626C210.826 19.6588 206.854 12.5824 200.227 11.9698C200.411 11.1069 201.325 10.6536 202.457 10.7586C204.027 10.9441 204.963 11.2102 204.909 11.1944C205.839 11.4657 205.857 11.471 206.334 11.6512C212.154 13.8391 215.346 20.9733 213.634 28.9966C213.261 28.8566 212.863 28.72 212.459 28.5888Z" fill="#383939"/>
<path d="M212.786 28.6953C217.092 19.7603 208.449 14.3783 207.732 14.6426C207.515 14.7213 207.471 14.8771 207.997 15.9483C209.894 19.804 210.342 23.245 209.544 27.8254C209.377 27.7956 209.226 27.7764 209.099 27.7641C210.828 19.6605 206.856 12.5843 200.229 11.9717C200.413 11.1088 201.327 10.6555 202.459 10.7605C204.029 10.9461 204.965 11.2121 204.911 11.1964C205.841 11.4676 205.859 11.4729 206.336 11.6532C212.156 13.841 215.348 20.9749 213.636 28.998C213.363 28.8948 213.076 28.7933 212.786 28.6953Z" fill="#373737"/>
<path d="M209.097 27.7626C210.826 19.6588 206.854 12.5824 200.227 11.9698C200.411 11.1069 201.325 10.6536 202.457 10.7586C204.027 10.9441 204.963 11.2102 204.909 11.1944C205.839 11.4657 205.857 11.471 206.334 11.6512C209.911 12.9972 212.497 16.2107 213.561 20.3519C211.768 15.6489 207.513 13.7043 207.1 14.1804C206.982 14.3169 207.238 14.7842 207.407 15.094C209.142 18.2638 210.609 21.6226 209.513 27.8186C209.359 27.7941 209.219 27.7748 209.097 27.7626Z" fill="#353636"/>
<path d="M209.097 27.7625C210.826 19.6587 206.854 12.5824 200.227 11.9698C200.411 11.1069 201.325 10.6536 202.457 10.7586C204.027 10.9441 204.963 11.2102 204.909 11.1944C205.839 11.4657 205.857 11.471 206.334 11.6512C211.445 13.573 213.069 18.7346 213.019 18.6523C210.329 14.2084 206.703 13.3822 206.54 13.7428C206.49 13.8513 206.617 14.1209 206.964 14.6424C208.855 17.4884 210.634 21.2795 209.486 27.8132C209.343 27.7922 209.212 27.773 209.097 27.7625Z" fill="#343535"/>
<path d="M209.097 27.7628C210.826 19.6589 206.854 12.5824 200.227 11.9698C200.411 11.1069 201.325 10.6536 202.457 10.7586C204.027 10.9441 204.963 11.2102 204.909 11.1944C205.839 11.4657 205.857 11.471 206.334 11.6512C210.817 13.3368 212.547 17.534 212.509 17.4815C209.558 13.5818 206.167 12.9762 205.993 13.2755C205.902 13.4331 206.011 13.5783 206.86 14.7038C210.848 19.995 209.798 25.876 209.454 27.8083C209.323 27.7891 209.203 27.7733 209.097 27.7628Z" fill="#333434"/>
<path d="M209.097 27.7625C210.826 19.6587 206.854 12.5824 200.227 11.9698C200.411 11.1069 201.325 10.6536 202.457 10.7586C203.941 10.9336 205.024 11.1594 206.334 11.6512C210.308 13.146 212.05 16.6027 212.007 16.5502C208.894 13.0479 205.523 12.6261 205.392 12.9184C205.329 13.0584 205.692 13.4698 206.011 13.8338C209.343 17.6127 210.491 22.3121 209.422 27.8027C209.303 27.787 209.194 27.773 209.097 27.7625Z" fill="#323232"/>
<path d="M209.097 27.7628C210.826 19.6589 206.854 12.5824 200.227 11.9698C200.411 11.1069 201.325 10.6536 202.457 10.7586C206.393 11.2259 209.296 12.5842 211.499 15.7592C208.553 12.838 204.87 12.1151 204.771 12.6034C204.742 12.7434 205.126 13.1163 205.381 13.363C209.17 17.0474 210.48 21.7698 209.384 27.7996C209.28 27.7838 209.183 27.7716 209.097 27.7628Z" fill="#303131"/>
<path d="M209.097 27.7627C210.826 19.6588 206.854 12.5824 200.227 11.9698C200.411 11.1069 201.325 10.6536 202.457 10.7586C206.07 11.1874 208.778 12.3216 210.984 15.0696C207.55 12.1151 204.262 11.9838 204.132 12.2551C204.068 12.3899 204.276 12.5666 204.963 13.153C208.962 16.5661 210.478 21.6279 209.348 27.7942C209.257 27.7802 209.174 27.7697 209.097 27.7627Z" fill="#2F3030"/>
<path d="M209.097 27.7626C210.826 19.6588 206.854 12.5824 200.227 11.9698C200.411 11.1069 201.325 10.6536 202.457 10.7586C203.94 10.9336 205.024 11.1594 206.334 11.6512C208.946 12.6331 210.516 14.5095 210.46 14.4604C206.894 11.7125 203.499 11.7265 203.431 12.0083C203.4 12.1378 203.618 12.2953 204.427 12.8782C206.946 14.695 210.927 19.0462 209.305 27.7871C209.233 27.7784 209.163 27.7696 209.097 27.7626Z" fill="#2E2F2F"/>
<path d="M209.097 27.7627C210.826 19.6588 206.854 12.5824 200.227 11.9698C200.411 11.1069 201.325 10.6536 202.457 10.7586C203.941 10.9336 205.024 11.1594 206.334 11.6512C208.557 12.4879 209.978 13.9564 209.924 13.9144C206.163 11.3082 202.713 11.506 202.683 11.8018C202.67 11.9173 202.866 12.0346 203.445 12.3829C210.256 16.4715 210.019 23.786 209.271 27.7837C209.21 27.7749 209.151 27.7679 209.097 27.7627Z" fill="#2D2D2D"/>
<path d="M209.097 27.7626C210.826 19.6588 206.854 12.5824 200.227 11.9698C200.411 11.1069 201.325 10.6536 202.457 10.7586C205.828 11.1577 207.805 12.1221 209.368 13.419C205.496 11.0019 201.87 11.3012 201.856 11.6337C201.852 11.737 201.954 11.786 202.755 12.1693C208.164 14.7598 210.586 20.5935 209.231 27.7749C209.185 27.7732 209.14 27.7679 209.097 27.7626Z" fill="#2B2C2C"/>
<path d="M209.097 27.7626C210.826 19.6588 206.854 12.5824 200.227 11.9698C200.411 11.1069 201.325 10.6536 202.457 10.7586C203.941 10.9336 205.024 11.1594 206.334 11.6512C207.798 12.2008 208.846 13.006 208.79 12.9727C204.509 10.5626 201.05 11.3449 200.959 11.4692C200.937 11.499 200.924 11.555 200.941 11.5882C200.942 11.5917 201.163 11.7195 201.569 11.8578C208.941 14.3572 210.342 21.7189 209.194 27.7749C209.161 27.7697 209.129 27.7661 209.097 27.7626Z" fill="#2A2B2B"/>
<path d="M207.955 12.4497C204.546 10.7505 201.507 11.0883 200.656 11.2335C201.404 10.5598 202.49 10.7645 203.213 10.8503C204.478 11.0655 204.966 11.2125 204.91 11.1967C205.84 11.468 205.857 11.4732 206.335 11.6535C207.415 12.0594 208.242 12.5984 208.186 12.5686C208.118 12.5319 208.025 12.4846 207.955 12.4497Z" fill="#292A2A"/>
<path d="M207.357 12.1118C205.288 11.1914 203.128 10.8292 200.934 11.0339C201.667 10.6122 202.46 10.761 203.214 10.8502C204.479 11.0654 204.967 11.2124 204.911 11.1967C205.841 11.4679 205.859 11.4731 206.336 11.6534C206.937 11.8791 207.995 12.4005 207.357 12.1118Z" fill="#282828"/>
<path d="M206.812 11.8478C204.989 11.1093 203.172 10.7943 201.252 10.887C201.919 10.6508 202.51 10.7663 203.211 10.8503C204.476 11.0655 204.964 11.2126 204.908 11.1968C206.48 11.6571 207.079 11.9563 206.812 11.8478Z" fill="#262727"/>
<path d="M209.097 27.7628C210.826 19.659 206.854 12.5826 200.227 11.97C200.245 11.8825 200.271 11.7985 200.306 11.7197C208.76 13.4788 210.356 21.4635 209.158 27.7681C209.136 27.7681 209.117 27.7646 209.097 27.7628Z" fill="#292A2A"/>
<path d="M205.448 11.3506C204.551 11.0863 203.307 10.7817 201.662 10.7835C202.618 10.626 204.635 11.0881 205.67 11.4207L205.448 11.3506Z" fill="#252626"/>
<path d="M210.203 27.6773C210.196 27.6335 210.413 23.4627 210.664 23.5047C210.822 23.531 211.248 26.4906 210.264 27.8418C210.246 27.7928 210.212 27.728 210.203 27.6773Z" fill="#A0A1A1"/>
<path d="M203.302 10.864C203.043 10.8273 202.69 10.7783 202.189 10.7468C202.5 10.7521 203.327 10.8692 203.383 10.8762L203.302 10.864Z" fill="#242525"/>
<path d="M209.097 27.7629C210.826 19.6592 206.854 12.5828 200.227 11.9702C200.232 11.9422 200.239 11.9142 200.246 11.8862C200.431 11.9125 200.675 11.9475 200.86 11.9737C207.278 13.1569 210.672 19.6504 209.118 27.7646C209.113 27.7646 209.104 27.7646 209.097 27.7629Z" fill="#282828"/>
<path d="M210.279 27.2641C210.276 27.2378 210.374 24.1767 210.667 23.8564C211.02 24.6195 210.825 26.7653 210.34 27.4426C210.322 27.3884 210.288 27.3201 210.279 27.2641Z" fill="#A3A3A3"/>
<path d="M210.367 26.7391C210.366 26.7233 210.38 24.8366 210.667 24.2993C210.87 24.9731 210.832 26.1948 210.421 26.9963C210.405 26.9176 210.374 26.8161 210.367 26.7391Z" fill="#A6A6A6"/>
<path d="M213.123 28.8132C213.068 28.6855 213.261 28.5174 213.321 28.3914C213.462 28.0886 213.814 27.273 214.036 26.228C213.966 27.1347 213.834 28.0606 213.633 28.9988C213.468 28.9358 213.297 28.8745 213.123 28.8132Z" fill="#353636"/>
<path d="M210.486 26.3574C210.425 25.8113 210.518 25.4175 210.646 24.8696C210.695 25.5872 210.72 25.981 210.502 26.4326C210.499 26.4099 210.49 26.3801 210.486 26.3574Z" fill="#A8A9A9"/>
<path d="M213.461 28.9338C213.561 28.708 213.694 28.4069 213.793 28.1812C213.746 28.4524 213.692 28.7255 213.635 28.9985C213.578 28.9758 213.52 28.9548 213.461 28.9338Z" fill="#343535"/>
<path d="M37.166 276.267L145.576 286.312C145.946 286.45 146.31 286.534 146.654 286.565C46.5369 277.307 38.0559 276.603 37.166 276.267Z" fill="#202121"/>
<path d="M144.859 286.042L145.579 286.312L37.1687 276.267L36.4492 275.998L144.859 286.042Z" fill="#1F2020"/>
<path d="M34.009 272.88L142.419 282.925C142.415 282.939 142.414 282.955 142.41 282.969L34 272.924C34.0036 272.91 34.0054 272.894 34.009 272.88Z" fill="#282828"/>
<path d="M33.9986 272.924L142.409 282.969C142.401 283.009 142.396 283.047 142.392 283.088L33.9824 273.043C33.986 273.002 33.9914 272.964 33.9986 272.924Z" fill="#262727"/>
<path d="M33.9857 273.043L142.396 283.088C142.392 283.128 142.388 283.168 142.388 283.208L33.9785 273.164C33.9785 273.124 33.9821 273.083 33.9857 273.043Z" fill="#252626"/>
<path d="M33.9773 273.164L142.387 283.209C142.385 283.252 142.387 283.296 142.389 283.34L33.9791 273.295C33.9773 273.251 33.9755 273.208 33.9773 273.164Z" fill="#242525"/>
<path d="M33.9785 273.295L142.388 283.34C142.392 283.391 142.397 283.443 142.405 283.496L33.9947 273.451C33.9875 273.398 33.9821 273.348 33.9785 273.295Z" fill="#232323"/>
<path d="M33.9941 273.451L142.404 283.496C142.415 283.569 142.429 283.643 142.449 283.714L34.039 273.67C34.0211 273.598 34.0049 273.524 33.9941 273.451Z" fill="#212222"/>
<path d="M34.043 273.67L142.453 283.715C142.699 284.639 143.632 285.581 144.861 286.043L36.4507 275.998C35.2199 275.536 34.2888 274.594 34.043 273.67Z" fill="#202121"/>
<path d="M162.809 270.86L214.353 29.2678C214.399 29.2853 214.446 29.3028 214.493 29.3203C212.09 40.5832 160.306 283.299 162.949 270.913C162.902 270.897 162.855 270.878 162.809 270.86Z" fill="#343535"/>
<path d="M162.949 270.914C164.322 264.482 214.506 29.2678 214.493 29.322C214.59 29.3588 214.684 29.3955 214.773 29.4323L163.229 271.025C163.139 270.988 163.046 270.951 162.949 270.914Z" fill="#333434"/>
<path d="M163.227 271.023L214.771 29.4302C214.855 29.4652 214.936 29.4984 215.013 29.5299L163.469 271.123C163.392 271.091 163.311 271.058 163.227 271.023Z" fill="#323232"/>
<path d="M163.469 271.123L215.013 29.53C215.087 29.5615 215.155 29.5913 215.219 29.621L163.675 271.214C163.61 271.184 163.541 271.154 163.469 271.123Z" fill="#303131"/>
<path d="M163.676 271.214L215.22 29.6213C215.281 29.6493 215.34 29.6756 215.396 29.7018L163.852 271.295C163.796 271.268 163.739 271.242 163.676 271.214Z" fill="#2F3030"/>
<path d="M163.854 271.294L215.398 29.7014C215.45 29.7259 215.498 29.7504 215.545 29.7732L164.001 271.366C163.954 271.343 163.906 271.32 163.854 271.294Z" fill="#2E2F2F"/>
<path d="M164 271.368L215.544 29.7754C215.587 29.7981 215.629 29.8191 215.666 29.8401L164.122 271.433C164.083 271.412 164.043 271.389 164 271.368Z" fill="#2D2D2D"/>
<path d="M164.121 271.433L215.665 29.8401C215.701 29.8593 215.734 29.8786 215.764 29.8961C213.371 41.117 164.207 271.543 164.22 271.489C164.189 271.471 164.157 271.452 164.121 271.433Z" fill="#2B2C2C"/>
<path d="M164.219 271.489C166.829 259.256 217.927 19.757 215.763 29.8962C215.792 29.9137 215.819 29.9295 215.842 29.947C213.449 41.1678 164.285 271.594 164.298 271.54C164.274 271.524 164.247 271.506 164.219 271.489Z" fill="#2A2B2B"/>
<path d="M164.297 271.539C166.907 259.307 218.005 19.8075 215.841 29.9468C215.864 29.9625 215.884 29.9765 215.902 29.9905L164.358 271.583C164.34 271.569 164.318 271.553 164.297 271.539Z" fill="#292A2A"/>
<path d="M164.359 271.583L215.904 29.9902C215.922 30.0042 215.936 30.0165 215.948 30.0287L164.404 271.622C164.392 271.609 164.377 271.597 164.359 271.583Z" fill="#282828"/>
<path d="M164.404 271.622L215.95 30.0291C215.963 30.0413 215.974 30.0518 215.983 30.0623L164.438 271.655C164.429 271.645 164.417 271.634 164.404 271.622Z" fill="#262727"/>
<path d="M164.436 271.655L215.98 30.062C215.989 30.0725 215.996 30.083 216 30.0918L164.457 271.686C164.452 271.676 164.445 271.665 164.436 271.655Z" fill="#252626"/>
<path d="M164.457 271.687L216.001 30.0938C216.007 30.1025 216.008 30.113 216.01 30.12L164.466 271.713C164.464 271.704 164.461 271.695 164.457 271.687Z" fill="#242525"/>
<path d="M164.467 271.713L216.011 30.1201C216.011 30.1271 164.47 271.746 164.467 271.713Z" fill="#232323"/>
<path d="M213.636 28.9978L214.354 29.2673L162.809 270.86L162.092 270.591L213.636 28.9978Z" fill="#373838"/>
<path d="M164.461 271.728C163.548 275.425 162.064 279.379 157.428 283.24C156.052 284.386 152.248 287.005 146.651 286.566C146.306 286.534 145.944 286.45 145.574 286.312C153.122 287.012 160.837 280.097 162.807 270.86C163.894 271.27 164.49 271.594 164.461 271.728Z" fill="#333434"/>
<path d="M145.574 286.311C152.954 286.995 160.493 280.402 162.667 271.476C162.753 271.308 162.866 271.084 162.949 270.914C164.594 271.546 164.519 271.775 164.463 271.728C164.043 273.427 164.043 273.427 163.754 274.253C161.865 279.635 157.748 284.3 152.022 286.059C151.967 286.067 147.932 287.198 145.574 286.311Z" fill="#333434"/>
<path d="M145.574 286.312C152.616 286.965 159.805 280.99 162.337 272.683C162.809 271.969 163.051 271.423 163.227 271.024C164.047 271.354 164.488 271.612 164.463 271.729C164.043 273.429 164.043 273.429 163.754 274.255C161.865 279.637 157.748 284.301 152.022 286.06C151.967 286.069 147.932 287.2 145.574 286.312Z" fill="#323232"/>
<path d="M145.574 286.312C152.315 286.936 159.19 281.488 161.985 273.738C162.583 272.957 162.995 272.294 163.467 271.125C164.131 271.407 164.485 271.625 164.461 271.73C164.041 273.43 164.041 273.43 163.753 274.256C161.863 279.638 157.746 284.302 152.021 286.061C151.967 286.068 147.932 287.199 145.574 286.312Z" fill="#303131"/>
<path d="M145.574 286.312C152.031 286.91 158.612 281.936 161.612 274.703C162.434 273.778 163.074 272.861 163.675 271.216C164.206 271.454 164.483 271.638 164.463 271.731C164.043 273.43 164.043 273.43 163.754 274.256C161.865 279.638 157.748 284.303 152.022 286.062C151.967 286.069 147.932 287.199 145.574 286.312Z" fill="#2F3030"/>
<path d="M145.574 286.312C151.76 286.885 158.06 282.344 161.216 275.601C162.604 274.237 163.247 273.012 163.851 271.295C164.267 271.493 164.481 271.645 164.463 271.727C164.278 272.477 164.101 273.262 163.754 274.253C161.865 279.635 157.748 284.299 152.022 286.058C151.967 286.069 147.932 287.2 145.574 286.312Z" fill="#2E2F2F"/>
<path d="M145.574 286.312C151.497 286.86 157.523 282.722 160.796 276.451C162.439 275.028 163.338 273.458 163.998 271.368C164.318 271.531 164.479 271.657 164.463 271.729C164.043 273.428 164.043 273.428 163.754 274.255C161.865 279.637 157.748 284.301 152.022 286.06C151.967 286.069 147.932 287.199 145.574 286.312Z" fill="#2D2D2D"/>
<path d="M145.574 286.312C151.237 286.837 156.994 283.076 160.349 277.265C162.635 275.511 163.512 273.427 164.119 271.433C164.357 271.564 164.476 271.668 164.463 271.729C164.043 273.428 164.043 273.428 163.754 274.254C161.865 279.636 157.748 284.301 152.022 286.06C151.967 286.068 147.932 287.199 145.574 286.312Z" fill="#2B2C2C"/>
<path d="M145.574 286.312C150.978 286.813 156.467 283.412 159.874 278.049C161.756 276.785 163.331 274.792 164.217 271.489C164.389 271.594 164.474 271.676 164.463 271.729C164.278 272.478 164.101 273.264 163.754 274.254C161.865 279.637 157.748 284.301 152.022 286.06C151.967 286.069 147.932 287.2 145.574 286.312Z" fill="#2A2B2B"/>
<path d="M145.574 286.312C150.716 286.788 155.935 283.732 159.362 278.815C162.059 277.177 163.523 274.532 164.294 271.54C164.415 271.62 164.47 271.685 164.461 271.729C164.276 272.478 164.099 273.264 163.753 274.254C161.863 279.636 157.746 284.301 152.021 286.06C151.967 286.068 147.932 287.199 145.574 286.312Z" fill="#292A2A"/>
<path d="M145.574 286.312C150.447 286.764 155.392 284.04 158.813 279.568C161.546 278.088 163.41 275.401 164.357 271.584C164.434 271.645 164.472 271.694 164.463 271.729C164.043 273.429 164.043 273.428 163.754 274.255C161.865 279.637 157.748 284.301 152.022 286.06C151.967 286.069 147.932 287.2 145.574 286.312Z" fill="#282828"/>
<path d="M145.574 286.312C150.171 286.737 154.83 284.339 158.216 280.314C162.059 278.485 163.701 274.578 164.402 271.624C164.449 271.668 164.468 271.703 164.463 271.731C164.278 272.48 164.101 273.266 163.754 274.256C161.865 279.638 157.748 284.303 152.022 286.062C151.967 286.069 147.932 287.199 145.574 286.312Z" fill="#262727"/>
<path d="M145.574 286.312C149.88 286.711 154.242 284.632 157.559 281.056C160.911 279.68 163.225 276.519 164.434 271.657L164.463 271.731C164.043 273.43 164.043 273.43 163.754 274.256C161.865 279.638 157.748 284.303 152.022 286.062C151.967 286.069 147.932 287.199 145.574 286.312Z" fill="#252626"/>
<path d="M145.574 286.312C152.114 286.918 156.664 281.861 156.885 281.784C158.973 281.061 162.735 278.79 164.456 271.687L164.465 271.729C164.045 273.429 164.045 273.429 163.756 274.255C161.867 279.637 157.749 284.301 152.024 286.06C151.967 286.069 147.932 287.2 145.574 286.312Z" fill="#242525"/>
<path d="M145.574 286.312C149.229 286.65 152.923 285.204 155.986 282.573C160.717 281.203 163.342 276.439 164.463 271.713C164.434 271.766 162.554 282.825 152.021 286.06C151.967 286.069 147.932 287.199 145.574 286.312Z" fill="#232323"/>
<path d="M145.574 286.312C148.84 286.614 152.135 285.493 154.983 283.375C159.802 282.269 162.882 277.546 164.171 272.919C164.084 273.178 163.679 274.758 162.753 276.617C162.563 276.848 159.705 283.7 152.019 286.06C151.967 286.068 147.932 287.199 145.574 286.312Z" fill="#212222"/>
<path d="M145.574 286.312C150.139 286.736 153.714 284.243 153.66 284.268C158.639 283.564 161.539 279.084 162.825 276.476C160.586 281.014 156.885 284.567 152.021 286.06C151.967 286.069 147.932 287.2 145.574 286.312Z" fill="#202121"/>
<path d="M162.093 270.591L162.811 270.86C162.768 271.06 162.723 271.259 162.675 271.457L161.957 271.187C162.005 270.99 162.05 270.79 162.093 270.591Z" fill="#343535"/>
<path d="M161.957 271.188L162.675 271.457C162.576 271.867 162.465 272.269 162.345 272.668L161.627 272.399C161.747 272.001 161.857 271.597 161.957 271.188Z" fill="#333434"/>
<path d="M161.625 272.399L162.342 272.668C162.233 273.029 162.115 273.384 161.987 273.736L161.27 273.466C161.397 273.116 161.515 272.759 161.625 272.399Z" fill="#323232"/>
<path d="M161.272 273.466L161.989 273.736C161.873 274.061 161.747 274.383 161.616 274.7L160.898 274.431C161.029 274.114 161.153 273.792 161.272 273.466Z" fill="#303131"/>
<path d="M160.897 274.431L161.614 274.7C161.489 275.003 161.358 275.301 161.22 275.596L160.502 275.327C160.64 275.033 160.771 274.734 160.897 274.431Z" fill="#2F3030"/>
<path d="M160.504 275.326L161.221 275.596C161.087 275.885 160.945 276.168 160.8 276.448L160.082 276.179C160.229 275.899 160.369 275.613 160.504 275.326Z" fill="#2E2F2F"/>
<path d="M160.08 276.179L160.797 276.449C160.654 276.723 160.505 276.996 160.35 277.262L159.633 276.993C159.787 276.727 159.936 276.454 160.08 276.179Z" fill="#2D2D2D"/>
<path d="M159.632 276.993L160.349 277.262C160.195 277.528 160.037 277.791 159.872 278.048L159.154 277.779C159.319 277.521 159.477 277.26 159.632 276.993Z" fill="#2B2C2C"/>
<path d="M159.158 277.78L159.875 278.05C159.71 278.311 159.54 278.566 159.364 278.818L158.646 278.549C158.822 278.297 158.993 278.041 159.158 277.78Z" fill="#2A2B2B"/>
<path d="M158.647 278.547L159.365 278.816C159.187 279.072 159.004 279.321 158.817 279.566L158.1 279.296C158.286 279.053 158.469 278.802 158.647 278.547Z" fill="#292A2A"/>
<path d="M158.097 279.298L158.815 279.568C158.619 279.821 158.42 280.072 158.216 280.313L157.498 280.044C157.703 279.8 157.904 279.552 158.097 279.298Z" fill="#282828"/>
<path d="M157.502 280.044L158.22 280.313C158.004 280.569 157.784 280.819 157.559 281.061L156.842 280.791C157.066 280.55 157.287 280.299 157.502 280.044Z" fill="#262727"/>
<path d="M156.839 280.791L157.557 281.06C157.316 281.319 157.072 281.57 156.821 281.811L156.104 281.542C156.355 281.3 156.6 281.05 156.839 280.791Z" fill="#252626"/>
<path d="M156.103 281.542L156.821 281.811C156.546 282.077 156.266 282.333 155.979 282.578L155.262 282.308C155.549 282.063 155.829 281.808 156.103 281.542Z" fill="#242525"/>
<path d="M155.262 282.31L155.98 282.58C155.65 282.863 155.312 283.133 154.97 283.387L154.252 283.117C154.596 282.862 154.932 282.592 155.262 282.31Z" fill="#232323"/>
<path d="M154.25 283.117L154.967 283.386C154.535 283.707 154.092 284.006 153.64 284.279L152.922 284.01C153.374 283.737 153.817 283.437 154.25 283.117Z" fill="#212222"/>
<path d="M152.924 284.01L153.642 284.28C151.125 285.804 148.34 286.567 145.577 286.312L144.859 286.042C147.622 286.298 150.407 285.534 152.924 284.01Z" fill="#202121"/>
<path d="M157.551 269.357L209.095 27.7639C209.102 27.7639 209.109 27.7657 209.117 27.7657L157.572 269.358C157.565 269.357 157.558 269.357 157.551 269.357Z" fill="#282828"/>
<path d="M157.572 269.359L209.117 27.7659C209.129 27.7676 209.14 27.7676 209.152 27.7694L157.608 269.362C157.597 269.361 157.585 269.361 157.572 269.359Z" fill="#292A2A"/>
<path d="M157.611 269.361L209.156 27.7688C209.168 27.7705 209.181 27.7723 209.193 27.7723L157.649 269.365C157.636 269.365 157.624 269.363 157.611 269.361Z" fill="#2A2B2B"/>
<path d="M157.65 269.366L209.195 27.7732C209.207 27.7749 209.22 27.7767 209.234 27.7784L157.69 269.371C157.676 269.37 157.663 269.368 157.65 269.366Z" fill="#2B2C2C"/>
<path d="M157.688 269.371L209.232 27.7781C209.244 27.7798 209.257 27.7816 209.269 27.7833L157.725 269.376C157.713 269.374 157.7 269.372 157.688 269.371Z" fill="#2D2D2D"/>
<path d="M157.725 269.376L209.269 27.7832C209.281 27.785 209.294 27.7867 209.307 27.7885L157.762 269.381C157.75 269.379 157.737 269.377 157.725 269.376Z" fill="#2E2F2F"/>
<path d="M157.762 269.381L209.306 27.7888C209.319 27.7906 209.331 27.7923 209.344 27.7941L157.799 269.387C157.787 269.385 157.774 269.383 157.762 269.381Z" fill="#2F3030"/>
<path d="M157.799 269.387L209.343 27.7939C209.356 27.7957 209.368 27.7974 209.383 27.7992L157.838 269.392C157.826 269.39 157.811 269.388 157.799 269.387Z" fill="#303131"/>
<path d="M157.84 269.392L209.384 27.7993C209.395 27.8011 209.408 27.8028 209.418 27.8046L157.874 269.397C157.863 269.395 157.851 269.393 157.84 269.392Z" fill="#323232"/>
<path d="M157.871 269.397L209.415 27.8044C209.424 27.8062 209.435 27.8079 209.444 27.8097L157.9 269.403C157.891 269.401 157.88 269.399 157.871 269.397Z" fill="#333434"/>
<path d="M157.902 269.402L209.447 27.8098C209.456 27.8116 209.466 27.8133 209.475 27.8151L157.931 269.407C157.922 269.406 157.911 269.404 157.902 269.402Z" fill="#343535"/>
<path d="M157.93 269.408L209.474 27.8152C209.483 27.8169 209.494 27.8187 209.503 27.8204L157.96 269.412C157.949 269.41 157.94 269.408 157.93 269.408Z" fill="#353636"/>
<path d="M157.963 269.411L209.507 27.8184C209.518 27.8201 209.527 27.8219 209.538 27.8236L157.993 269.416C157.983 269.414 157.972 269.413 157.963 269.411Z" fill="#373737"/>
<path d="M157.988 269.416L209.534 27.8235C209.545 27.8252 209.554 27.827 209.565 27.8287L158.021 269.422C158.01 269.42 157.999 269.418 157.988 269.416Z" fill="#383939"/>
<path d="M158.02 269.422L209.564 27.8291C209.573 27.8309 209.58 27.8326 209.589 27.8344L158.045 269.427C158.036 269.425 158.029 269.423 158.02 269.422Z" fill="#393A3A"/>
<path d="M158.043 269.427L209.587 27.8345C209.594 27.8362 209.6 27.8362 209.607 27.838L158.063 269.431C158.057 269.429 158.05 269.427 158.043 269.427Z" fill="#3A3B3B"/>
<path d="M158.062 269.431L209.607 27.8379C209.614 27.8396 209.619 27.8396 209.626 27.8414L158.084 269.434C158.077 269.432 158.07 269.432 158.062 269.431Z" fill="#3C3C3C"/>
<path d="M158.088 269.434L209.632 27.8413C209.639 27.8431 209.646 27.8431 209.652 27.8448L158.108 269.438C158.1 269.436 158.093 269.436 158.088 269.434Z" fill="#3D3E3E"/>
<path d="M158.105 269.437L209.65 27.8447C209.657 27.8465 209.664 27.8465 209.669 27.8482L158.125 269.441C158.12 269.439 158.113 269.439 158.105 269.437Z" fill="#3E3F3F"/>
<path d="M158.125 269.441L209.669 27.8484C209.676 27.8501 209.684 27.8501 209.689 27.8519L158.145 269.445C158.139 269.445 158.132 269.443 158.125 269.441Z" fill="#555656"/>
<path d="M158.146 269.444L209.691 27.8518C209.698 27.8536 209.705 27.8536 209.712 27.8553L158.168 269.448C158.161 269.448 158.154 269.446 158.146 269.444Z" fill="#5F6060"/>
<path d="M158.166 269.45L209.71 27.8569C209.717 27.8587 209.725 27.8604 209.732 27.8604L158.188 269.453C158.18 269.451 158.173 269.45 158.166 269.45Z" fill="#666767"/>
<path d="M158.189 269.453L209.734 27.8604C209.741 27.8621 209.748 27.8639 209.755 27.8639L158.211 269.456C158.204 269.456 158.197 269.455 158.189 269.453Z" fill="#6C6D6D"/>
<path d="M158.211 269.457L209.755 27.8638C209.762 27.8655 209.77 27.8673 209.777 27.8673L158.232 269.46C158.225 269.46 158.218 269.458 158.211 269.457Z" fill="#727373"/>
<path d="M158.232 269.462L209.777 27.8691C209.784 27.8709 209.791 27.8726 209.798 27.8726L158.254 269.465C158.247 269.464 158.24 269.464 158.232 269.462Z" fill="#777777"/>
<path d="M158.252 269.466L209.796 27.873C209.803 27.8748 209.811 27.8765 209.818 27.8783L158.273 269.471C158.266 269.469 158.259 269.467 158.252 269.466Z" fill="#7B7C7C"/>
<path d="M158.273 269.47L209.818 27.8777C209.825 27.8794 209.832 27.8812 209.839 27.8829L158.295 269.476C158.29 269.472 158.282 269.472 158.273 269.47Z" fill="#808080"/>
<path d="M158.299 269.474L209.843 27.8818C209.85 27.8836 209.857 27.8853 209.866 27.8871L158.32 269.479C158.313 269.478 158.306 269.476 158.299 269.474Z" fill="#838484"/>
<path d="M158.32 269.48L209.866 27.8867C209.874 27.8885 209.881 27.8902 209.89 27.892L158.345 269.485C158.336 269.483 158.329 269.481 158.32 269.48Z" fill="#878888"/>
<path d="M158.344 269.485L209.888 27.8921C209.895 27.8938 209.902 27.8956 209.911 27.8973L158.367 269.49C158.358 269.486 158.351 269.485 158.344 269.485Z" fill="#8B8B8B"/>
<path d="M158.367 269.488L209.911 27.8955C209.919 27.8973 209.926 27.899 209.935 27.9008L158.391 269.494C158.382 269.492 158.374 269.49 158.367 269.488Z" fill="#8E8F8F"/>
<path d="M158.389 269.493L209.933 27.9009C209.94 27.9026 209.949 27.9044 209.956 27.9061L158.412 269.499C158.405 269.497 158.398 269.495 158.389 269.493Z" fill="#929292"/>
<path d="M158.408 269.499L209.952 27.906C209.963 27.9078 209.976 27.9113 209.987 27.913L158.442 269.506C158.432 269.504 158.421 269.5 158.408 269.499Z" fill="#959595"/>
<path d="M158.445 269.506L209.99 27.9133C210.008 27.9168 210.025 27.9203 210.042 27.9238L158.497 269.517C158.479 269.513 158.461 269.51 158.445 269.506Z" fill="#989898"/>
<path d="M158.5 269.516L210.044 27.9233C210.062 27.9268 210.08 27.9303 210.098 27.9356L158.554 269.528C158.536 269.525 158.518 269.521 158.5 269.516Z" fill="#9B9B9B"/>
<path d="M158.555 269.529L210.099 27.936C210.117 27.9395 210.135 27.9448 210.153 27.9483L158.608 269.541C158.591 269.537 158.573 269.532 158.555 269.529Z" fill="#9D9E9E"/>
<path d="M158.607 269.541L210.152 27.948C210.195 27.9567 210.238 27.9673 210.281 27.9778L158.737 269.57C158.694 269.56 158.65 269.549 158.607 269.541Z" fill="#A0A1A1"/>
<path d="M158.734 269.571L210.279 27.9783C210.325 27.9888 210.372 27.9993 210.419 28.0115L158.874 269.604C158.828 269.592 158.781 269.581 158.734 269.571Z" fill="#9D9E9E"/>
<path d="M158.875 269.604L210.419 28.011C210.437 28.0162 210.457 28.0197 210.475 28.025L158.931 269.618C158.913 269.612 158.893 269.607 158.875 269.604Z" fill="#9B9B9B"/>
<path d="M158.93 269.616L210.474 28.0229C210.492 28.0282 210.512 28.0317 210.531 28.037L158.987 269.63C158.967 269.626 158.949 269.621 158.93 269.616Z" fill="#989898"/>
<path d="M158.988 269.63L210.533 28.0371C210.552 28.0424 210.57 28.0459 210.59 28.0511L159.046 269.644C159.026 269.64 159.006 269.635 158.988 269.63Z" fill="#959595"/>
<path d="M159.047 269.644L210.591 28.0513C210.609 28.0565 210.629 28.06 210.647 28.0653L159.102 269.658C159.083 269.654 159.065 269.649 159.047 269.644Z" fill="#929292"/>
<path d="M159.104 269.66L210.648 28.0671C210.666 28.0706 210.682 28.0759 210.7 28.0811L159.156 269.674C159.138 269.667 159.121 269.664 159.104 269.66Z" fill="#8E8F8F"/>
<path d="M159.154 269.672L210.699 28.0791C210.717 28.0844 210.733 28.0879 210.751 28.0931L159.206 269.686C159.188 269.681 159.172 269.677 159.154 269.672Z" fill="#8B8B8B"/>
<path d="M159.205 269.686L210.749 28.0933C210.767 28.0985 210.785 28.102 210.801 28.1073L159.257 269.7C159.241 269.695 159.223 269.689 159.205 269.686Z" fill="#878888"/>
<path d="M159.258 269.698L210.802 28.1055C210.82 28.1107 210.838 28.1142 210.856 28.1195L159.312 269.712C159.292 269.709 159.274 269.704 159.258 269.698Z" fill="#838484"/>
<path d="M159.311 269.712L210.855 28.1194C210.874 28.1246 210.894 28.1299 210.916 28.1351L159.372 269.728C159.35 269.723 159.33 269.717 159.311 269.712Z" fill="#808080"/>
<path d="M159.375 269.728L210.919 28.1355C210.941 28.1407 210.962 28.146 210.982 28.153L159.438 269.746C159.416 269.741 159.395 269.734 159.375 269.728Z" fill="#7B7C7C"/>
<path d="M159.438 269.745L210.982 28.1528C211.003 28.1581 211.025 28.1633 211.046 28.1703L159.502 269.763C159.481 269.756 159.459 269.751 159.438 269.745Z" fill="#777777"/>
<path d="M159.5 269.763L211.044 28.1702C211.066 28.1754 211.087 28.1824 211.109 28.1877L159.565 269.78C159.541 269.773 159.52 269.768 159.5 269.763Z" fill="#727373"/>
<path d="M159.562 269.781L211.107 28.1877C211.134 28.1947 211.162 28.2035 211.189 28.2105L159.645 269.803C159.618 269.795 159.591 269.788 159.562 269.781Z" fill="#6C6D6D"/>
<path d="M159.646 269.801L211.191 28.2087C211.219 28.2157 211.248 28.2245 211.275 28.2315L159.731 269.824C159.704 269.817 159.675 269.81 159.646 269.801Z" fill="#666767"/>
<path d="M159.732 269.826L211.277 28.2336C211.305 28.2424 211.334 28.2494 211.363 28.2581L159.819 269.851C159.79 269.842 159.761 269.833 159.732 269.826Z" fill="#5F6060"/>
<path d="M159.814 269.851L211.359 28.2576C211.398 28.2681 211.438 28.2803 211.477 28.2908L159.935 269.884C159.895 269.872 159.854 269.861 159.814 269.851Z" fill="#555656"/>
<path d="M159.936 269.883L211.48 28.2905C211.519 28.3028 211.561 28.3133 211.6 28.3255L160.056 269.918C160.014 269.906 159.975 269.896 159.936 269.883Z" fill="#3E3F3F"/>
<path d="M160.057 269.919L211.601 28.3259C211.655 28.3417 211.708 28.3574 211.76 28.3732L160.216 269.966C160.164 269.95 160.11 269.934 160.057 269.919Z" fill="#3D3E3E"/>
<path d="M160.215 269.966L211.759 28.373C211.82 28.3905 211.883 28.4098 211.944 28.4291L160.4 270.022C160.339 270.003 160.278 269.983 160.215 269.966Z" fill="#3C3C3C"/>
<path d="M160.402 270.022L211.947 28.428C212.024 28.4507 212.101 28.4752 212.178 28.4997L160.634 270.092C160.557 270.068 160.479 270.045 160.402 270.022Z" fill="#3A3B3B"/>
<path d="M160.631 270.092L212.175 28.4995C212.27 28.5293 212.364 28.559 212.459 28.5888L160.914 270.181C160.821 270.152 160.726 270.122 160.631 270.092Z" fill="#393A3A"/>
<path d="M160.916 270.183L212.46 28.5901C212.568 28.6251 212.677 28.6601 212.785 28.6969L161.241 270.29C161.133 270.253 161.025 270.218 160.916 270.183Z" fill="#383939"/>
<path d="M161.242 270.289L212.786 28.6968C212.901 28.7353 213.014 28.7738 213.127 28.814L161.583 270.407C161.47 270.366 161.357 270.328 161.242 270.289Z" fill="#373737"/>
<path d="M161.58 270.405L213.124 28.8127C213.237 28.853 213.349 28.8933 213.46 28.9335L161.916 270.526C161.804 270.486 161.693 270.446 161.58 270.405Z" fill="#353636"/>
<path d="M161.92 270.526L213.464 28.9336C213.523 28.9546 213.581 28.9773 213.638 28.9984L162.094 270.591C162.037 270.57 161.977 270.547 161.92 270.526Z" fill="#343535"/>
<path d="M200.229 11.9717C206.855 12.5843 210.829 19.6588 209.099 27.7643C191.918 108.295 174.736 188.826 157.555 269.357C155.825 277.466 149.047 283.539 142.421 282.925C106.285 279.576 70.1474 276.228 34.0113 272.88C27.3855 272.267 23.4115 265.196 25.141 257.088C42.3218 176.557 59.5045 96.0258 76.6853 15.495C78.413 7.39132 85.1932 1.31269 91.819 1.92703C127.955 5.27526 164.091 8.6235 200.229 11.9717Z" fill="#2B2C2C"/>
<path d="M157.554 269.357C158.474 269.443 160.505 269.996 162.093 270.591C160.123 279.827 152.406 286.74 144.86 286.042C143.274 285.445 142.181 284.05 142.422 282.925C149.046 283.539 155.824 277.466 157.554 269.357Z" fill="#9D9E9E"/>
<path d="M142.418 282.925C149.044 283.54 155.822 277.466 157.552 269.357C157.986 269.397 158.632 269.546 158.578 269.536C158.601 269.595 158.632 269.674 158.655 269.732C158.702 269.691 158.768 269.639 158.799 269.586C159.789 269.819 161.038 270.197 162.091 270.593C160.121 279.829 152.404 286.743 144.858 286.044C143.27 285.446 142.178 284.049 142.418 282.925Z" fill="#9D9E9E"/>
<path d="M142.418 282.925C149.044 283.54 155.822 277.466 157.552 269.357C158.05 269.403 158.583 269.543 158.511 269.529C158.517 269.665 158.459 269.961 158.599 269.979C158.678 269.989 158.836 269.704 158.883 269.606C159.859 269.84 161.068 270.208 162.093 270.591C160.123 279.827 152.406 286.741 144.86 286.042C143.27 285.446 142.178 284.049 142.418 282.925Z" fill="#9B9B9B"/>
<path d="M142.418 282.925C149.044 283.54 155.822 277.466 157.552 269.357C157.792 269.38 158.11 269.434 158.476 269.513C158.468 269.597 158.459 269.707 158.452 269.791C158.458 269.923 158.404 270.206 158.538 270.224C158.612 270.232 158.747 270.029 158.94 269.62C159.906 269.854 161.086 270.215 162.089 270.591C160.119 279.827 152.402 286.741 144.856 286.042C143.27 285.446 142.178 284.049 142.418 282.925Z" fill="#989898"/>
<path d="M142.418 282.925C149.044 283.54 155.822 277.466 157.552 269.357C157.937 269.392 158.494 269.516 158.44 269.506C158.397 270.007 158.359 270.439 158.479 270.465C158.533 270.477 158.711 270.318 158.998 269.635C159.952 269.87 161.108 270.224 162.091 270.593C160.121 279.829 152.404 286.743 144.858 286.044C143.27 285.446 142.178 284.049 142.418 282.925Z" fill="#959595"/>
<path d="M142.418 282.925C149.044 283.54 155.822 277.466 157.552 269.357C157.927 269.392 158.465 269.509 158.409 269.499C158.312 270.245 158.284 270.68 158.415 270.698C158.587 270.721 158.899 269.996 159.05 269.648C159.993 269.882 161.124 270.229 162.089 270.593C160.119 279.829 152.402 286.743 144.856 286.044C143.27 285.446 142.178 284.049 142.418 282.925Z" fill="#929292"/>
<path d="M142.418 282.925C149.044 283.54 155.822 277.466 157.552 269.357C157.772 269.378 158.058 269.425 158.384 269.494C158.364 269.639 158.337 269.833 158.318 269.98C158.26 270.542 158.223 270.915 158.352 270.929C158.354 270.929 158.592 270.943 159.104 269.66C160.037 269.895 161.144 270.236 162.091 270.591C160.121 279.827 152.404 286.741 144.858 286.042C143.27 285.446 142.178 284.049 142.418 282.925Z" fill="#8E8F8F"/>
<path d="M142.418 282.925C149.044 283.54 155.822 277.466 157.552 269.357C157.767 269.376 158.041 269.422 158.359 269.488C158.325 269.725 158.28 270.038 158.246 270.274C158.19 270.836 158.16 271.146 158.284 271.16C158.359 271.169 158.596 271.039 159.152 269.674C160.074 269.909 161.16 270.243 162.089 270.593C160.119 279.829 152.402 286.743 144.856 286.044C143.27 285.446 142.178 284.049 142.418 282.925Z" fill="#8B8B8B"/>
<path d="M142.418 282.925C149.044 283.54 155.822 277.466 157.552 269.357C157.762 269.376 158.029 269.42 158.334 269.483C158.328 269.513 158.323 269.551 158.32 269.581C158.09 271.092 158.049 271.363 158.217 271.38C158.221 271.38 158.544 271.393 159.206 269.688C160.117 269.921 161.178 270.25 162.091 270.595C160.121 279.831 152.404 286.744 144.858 286.046C143.27 285.446 142.178 284.049 142.418 282.925Z" fill="#878888"/>
<path d="M142.418 282.925C149.044 283.54 155.822 277.466 157.552 269.357C157.756 269.376 158.016 269.418 158.314 269.478C158.291 269.614 158.262 269.798 158.239 269.937C158.09 270.859 157.991 271.47 158.07 271.536C158.115 271.575 158.214 271.557 158.267 271.535C158.32 271.512 158.614 271.314 159.258 269.698C160.157 269.931 161.196 270.253 162.091 270.591C160.121 279.827 152.404 286.741 144.858 286.042C143.27 285.446 142.178 284.049 142.418 282.925Z" fill="#838484"/>
<path d="M142.418 282.925C149.044 283.54 155.822 277.466 157.552 269.357C157.884 269.389 158.346 269.485 158.293 269.474C157.93 271.573 157.819 271.916 158.196 271.755C158.199 271.753 158.626 271.503 159.312 269.714C160.198 269.945 161.212 270.262 162.089 270.593C160.119 279.829 152.402 286.743 144.856 286.044C143.27 285.446 142.178 284.049 142.418 282.925Z" fill="#808080"/>
<path d="M142.418 282.925C149.044 283.54 155.822 277.466 157.552 269.357C157.876 269.387 158.325 269.48 158.271 269.471C157.826 271.988 157.826 271.988 158 272.035C158.061 272.051 158.632 271.706 159.367 269.73C160.241 269.959 161.23 270.271 162.089 270.593C160.119 279.829 152.402 286.743 144.856 286.044C143.27 285.446 142.178 284.049 142.418 282.925Z" fill="#7B7C7C"/>
<path d="M142.418 282.925C149.044 283.54 155.822 277.466 157.552 269.357C157.867 269.387 158.305 269.476 158.25 269.466C157.783 272.159 157.783 272.159 157.841 272.205C157.995 272.327 158.607 271.878 159.428 269.744C160.286 269.972 161.249 270.276 162.089 270.591C160.119 279.827 152.402 286.741 144.856 286.042C143.27 285.446 142.178 284.049 142.418 282.925Z" fill="#777777"/>
<path d="M142.418 282.925C149.044 283.54 155.822 277.466 157.552 269.357C157.736 269.375 157.968 269.41 158.232 269.462C157.738 272.135 157.641 272.336 157.762 272.429C157.962 272.585 158.716 271.827 159.496 269.763C160.338 269.989 161.274 270.285 162.093 270.593C160.123 279.829 152.406 286.743 144.86 286.044C143.27 285.446 142.178 284.049 142.418 282.925Z" fill="#727373"/>
<path d="M142.418 282.925C149.044 283.54 155.822 277.466 157.552 269.357C157.733 269.375 157.957 269.408 158.212 269.459C157.67 272.278 157.537 272.546 157.677 272.649C157.769 272.718 158.508 272.478 159.565 269.781C160.388 270.005 161.296 270.292 162.093 270.591C160.123 279.827 152.406 286.741 144.86 286.042C143.27 285.446 142.178 284.049 142.418 282.925Z" fill="#6C6D6D"/>
<path d="M142.418 282.925C149.044 283.54 155.822 277.466 157.552 269.357C157.727 269.373 157.945 269.406 158.192 269.455C157.605 272.445 157.422 272.772 157.582 272.887C157.718 272.985 158.612 272.438 159.64 269.802C160.442 270.022 161.319 270.302 162.091 270.591C160.121 279.827 152.404 286.741 144.858 286.042C143.27 285.446 142.178 284.049 142.418 282.925Z" fill="#666767"/>
<path d="M142.418 282.925C149.044 283.54 155.822 277.466 157.552 269.357C157.724 269.373 157.934 269.404 158.172 269.452C158.045 270.141 157.406 273.069 157.487 273.124C157.666 273.248 158.68 272.49 159.724 269.825C160.505 270.042 161.346 270.311 162.091 270.591C160.121 279.827 152.404 286.741 144.858 286.042C143.27 285.446 142.178 284.049 142.418 282.925Z" fill="#5F6060"/>
<path d="M142.418 282.925C149.044 283.54 155.822 277.466 157.552 269.357C157.718 269.373 157.921 269.403 158.153 269.446C157.695 271.711 157.229 273.253 157.388 273.358C157.579 273.484 158.711 272.635 159.819 269.851C160.573 270.063 161.377 270.323 162.091 270.591C160.121 279.827 152.404 286.741 144.858 286.042C143.27 285.446 142.178 284.049 142.418 282.925Z" fill="#555656"/>
<path d="M142.418 282.925C149.044 283.54 155.822 277.466 157.552 269.357C157.824 269.382 158.187 269.452 158.131 269.443C157.577 272.145 157.044 273.47 157.274 273.616C157.458 273.733 158.716 272.851 159.927 269.882C160.648 270.089 161.409 270.336 162.089 270.591C160.119 279.827 152.402 286.741 144.856 286.042C143.27 285.446 142.178 284.049 142.418 282.925Z" fill="#3E3F3F"/>
<path d="M142.418 282.925C149.044 283.54 155.822 277.466 157.552 269.357C157.708 269.371 157.898 269.399 158.111 269.439C157.69 271.459 157.047 273.81 157.157 273.875C157.3 273.962 158.659 273.208 160.056 269.919C160.738 270.117 161.45 270.351 162.091 270.591C160.121 279.827 152.404 286.741 144.858 286.042C143.27 285.446 142.178 284.049 142.418 282.925Z" fill="#3D3E3E"/>
<path d="M142.418 282.925C149.044 283.54 155.822 277.466 157.552 269.357C157.801 269.38 158.145 269.445 158.092 269.436C157.555 272.165 156.737 273.966 157.035 274.134C157.245 274.253 158.773 273.199 160.209 269.963C160.844 270.152 161.499 270.367 162.091 270.591C160.121 279.827 152.404 286.741 144.858 286.042C143.27 285.446 142.178 284.049 142.418 282.925Z" fill="#3C3C3C"/>
<path d="M142.418 282.925C149.044 283.54 155.822 277.466 157.552 269.357C157.697 269.371 157.873 269.396 158.068 269.431C157.376 272.697 156.585 274.265 156.89 274.429C157.053 274.517 158.711 273.595 160.397 270.021C160.973 270.196 161.556 270.392 162.091 270.591C160.121 279.827 152.404 286.741 144.858 286.042C143.27 285.446 142.178 284.049 142.418 282.925Z" fill="#3A3B3B"/>
<path d="M142.418 282.925C149.044 283.54 155.822 277.466 157.552 269.357C157.692 269.369 157.858 269.394 158.045 269.427C157.302 272.879 156.402 274.554 156.741 274.722C156.978 274.839 158.861 273.586 160.629 270.092C161.127 270.248 161.626 270.418 162.089 270.591C160.119 279.827 152.402 286.741 144.856 286.042C143.27 285.446 142.178 284.049 142.418 282.925Z" fill="#393A3A"/>
<path d="M142.418 282.925C149.044 283.54 155.822 277.466 157.552 269.357C157.686 269.369 157.846 269.392 158.023 269.424C157.971 269.658 157.903 269.972 157.853 270.204C157.056 273.388 156.229 274.888 156.572 275.042C156.868 275.177 159.032 273.672 160.916 270.182C161.319 270.311 161.718 270.449 162.091 270.591C160.121 279.827 152.404 286.741 144.858 286.042C143.27 285.446 142.178 284.049 142.418 282.925Z" fill="#383939"/>
<path d="M142.418 282.925C149.044 283.54 155.822 277.466 157.552 269.357C157.679 269.369 157.83 269.39 157.997 269.418C157.173 273.194 156.089 274.981 156.321 275.308C156.619 275.732 159.448 273.512 161.24 270.288C161.533 270.386 161.818 270.488 162.091 270.591C160.121 279.827 152.404 286.741 144.858 286.042C143.27 285.446 142.178 284.049 142.418 282.925Z" fill="#373737"/>
<path d="M142.418 282.925C149.044 283.54 155.822 277.466 157.552 269.357C157.672 269.368 157.814 269.387 157.97 269.415C157.695 270.658 157.458 271.731 156.606 273.929C156.287 274.751 155.985 275.53 156.104 275.684C156.355 276.012 159.636 273.924 161.581 270.409C161.755 270.47 161.926 270.532 162.091 270.595C160.121 279.831 152.404 286.744 144.858 286.046C143.27 285.446 142.178 284.049 142.418 282.925Z" fill="#353636"/>
<path d="M142.418 282.925C149.044 283.54 155.822 277.466 157.552 269.357C157.665 269.368 157.796 269.385 157.941 269.41C157.055 273.652 155.526 275.718 155.862 276.08C156.222 276.47 160.11 274.025 161.917 270.528C161.976 270.549 162.033 270.572 162.091 270.593C160.121 279.829 152.404 286.743 144.858 286.044C143.27 285.446 142.178 284.049 142.418 282.925Z" fill="#343535"/>
<path d="M142.418 282.925C149.044 283.54 155.822 277.466 157.552 269.357C157.657 269.368 157.776 269.383 157.909 269.404C157.857 269.637 157.788 269.947 157.736 270.18C156.692 274.232 155.241 276.215 155.574 276.526C155.897 276.826 160.001 274.697 161.949 271.209C159.775 280.135 152.236 286.727 144.856 286.044C143.27 285.446 142.178 284.049 142.418 282.925Z" fill="#333434"/>
<path d="M142.418 282.925C149.044 283.539 155.822 277.466 157.552 269.357C157.649 269.366 157.756 269.38 157.876 269.399C156.721 274.534 154.787 276.656 155.25 277.001C155.548 277.223 159.218 275.733 161.619 272.415C159.087 280.722 151.898 286.697 144.856 286.044C143.27 285.445 142.178 284.049 142.418 282.925Z" fill="#323232"/>
<path d="M142.418 282.925C149.044 283.539 155.822 277.466 157.552 269.357C157.638 269.366 157.735 269.378 157.839 269.394C157.787 269.625 157.717 269.935 157.665 270.166C156.412 274.932 154.539 276.987 154.816 277.445C155.029 277.797 158.822 276.365 161.267 273.47C158.47 281.222 151.597 286.669 144.856 286.044C143.27 285.445 142.178 284.049 142.418 282.925Z" fill="#303131"/>
<path d="M142.418 282.925C149.044 283.54 155.822 277.466 157.552 269.357C157.629 269.364 157.711 269.375 157.803 269.387C157.792 269.436 157.778 269.502 157.769 269.551C156.463 275.203 153.951 277.554 154.372 278.01C154.629 278.289 158.372 277.027 160.896 274.429C157.896 281.663 151.315 286.637 144.858 286.039C143.27 285.446 142.178 284.049 142.418 282.925Z" fill="#2F3030"/>
<path d="M142.418 282.925C149.044 283.539 155.822 277.466 157.552 269.357C157.616 269.362 157.688 269.371 157.763 269.382C156.355 275.578 153.475 277.993 153.805 278.546C154.021 278.907 157.964 277.627 160.498 275.331C157.342 282.073 151.042 286.615 144.856 286.042C143.27 285.445 142.178 284.049 142.418 282.925Z" fill="#2E2F2F"/>
<path d="M142.418 282.925C149.044 283.539 155.822 277.466 157.552 269.357C157.605 269.362 157.663 269.369 157.726 269.376C157.674 269.606 157.604 269.912 157.552 270.141C155.917 276.206 152.921 278.576 153.165 279.117C153.375 279.58 157.719 278.114 160.078 276.181C156.805 282.452 150.779 286.59 144.856 286.042C143.27 285.445 142.178 284.049 142.418 282.925Z" fill="#2D2D2D"/>
<path d="M142.418 282.925C149.044 283.539 155.822 277.466 157.552 269.357C157.595 269.361 157.64 269.366 157.686 269.373C156.075 276.372 152.205 279.173 152.429 279.722C152.602 280.147 157.238 278.763 159.631 276.995C156.276 282.808 150.519 286.567 144.856 286.042C143.27 285.445 142.178 284.049 142.418 282.925Z" fill="#2B2C2C"/>
<path d="M142.418 282.925C149.044 283.539 155.822 277.466 157.552 269.357C157.582 269.361 157.616 269.364 157.649 269.368C157.597 269.595 157.525 269.9 157.473 270.127C155.499 277.351 151.304 279.855 151.572 280.363C151.74 280.683 156.511 279.507 159.154 277.781C155.749 283.142 150.258 286.545 144.854 286.044C143.27 285.446 142.178 284.049 142.418 282.925Z" fill="#2A2B2B"/>
<path d="M142.418 282.925C149.044 283.539 155.822 277.466 157.552 269.357C157.518 269.586 157.471 269.893 157.435 270.122C156.321 274.174 154.518 277.141 151.401 280.039C150.98 280.431 150.501 280.877 150.515 280.972C150.59 281.439 156.149 280.018 158.644 278.548C155.216 283.464 149.996 286.52 144.856 286.044C143.27 285.446 142.178 284.049 142.418 282.925Z" fill="#292A2A"/>
<path d="M142.418 282.925C149.044 283.539 155.822 277.466 157.552 269.357C157.505 269.585 157.444 269.888 157.397 270.115C155.704 276.248 152.397 279.239 149.706 281.161C149.499 281.308 148.981 281.467 149.058 281.705C149.144 281.968 155.287 280.785 158.094 279.299C154.672 283.771 149.727 286.494 144.854 286.042C143.27 285.446 142.178 284.049 142.418 282.925Z" fill="#282828"/>
<path d="M142.409 282.969C146.008 283.226 155.359 281.05 157.498 280.042C154.112 284.069 149.453 286.467 144.856 286.04C143.291 285.452 142.208 284.087 142.409 282.969Z" fill="#262727"/>
<path d="M142.393 283.087C146.32 283.457 154.855 281.601 156.843 280.784C153.525 284.36 149.164 286.439 144.858 286.04C143.345 285.473 142.283 284.181 142.393 283.087Z" fill="#252626"/>
<path d="M142.385 283.207C145.651 283.648 154.06 282.307 156.112 281.534C152.899 284.649 148.855 286.413 144.858 286.044C143.399 285.494 142.36 284.273 142.385 283.207Z" fill="#242525"/>
<path d="M142.387 283.336C145.496 283.777 153.087 282.989 155.267 282.303C152.204 284.934 148.51 286.381 144.855 286.042C143.458 285.515 142.444 284.37 142.387 283.336Z" fill="#232323"/>
<path d="M142.402 283.49C145.183 283.956 152.254 283.648 154.265 283.105C151.416 285.223 148.12 286.345 144.857 286.042C143.527 285.541 142.546 284.482 142.402 283.49Z" fill="#212222"/>
<path d="M142.447 283.705C144.742 284.157 150.677 284.467 152.943 283.996C150.42 285.529 147.627 286.297 144.857 286.04C143.624 285.578 142.691 284.633 142.447 283.705Z" fill="#202121"/>
<path d="M200.117 17.5585C204.387 17.9628 206.895 22.587 205.702 27.8483C187.527 108.08 169.354 188.313 151.179 268.545C149.988 273.81 145.537 277.767 141.267 277.359C105.525 273.953 69.7839 270.549 34.0425 267.143C29.7724 266.738 27.2588 262.118 28.4537 256.853C46.6285 176.622 64.8015 96.3882 82.9763 16.1566C84.1658 10.8971 88.6243 6.93448 92.8926 7.34404C128.636 10.7483 164.375 14.1543 200.117 17.5585Z" fill="white"/>
<defs>
<linearGradient id="paint0_linear" x1="227.909" y1="28.2002" x2="-26.1442" y2="194.873" gradientUnits="userSpaceOnUse">
<stop stop-color="#1171EF"/>
<stop offset="1" stop-color="#11CDEF"/>
</linearGradient>
</defs>
</svg>
