<svg width="40" height="40" viewBox="0 0 40 40" fill="none" xmlns="http://www.w3.org/2000/svg">
<g clip-path="url(#clip0)">
<path d="M35.4945 0H20.6745C19.4895 0 18.3278 0.481667 17.4895 1.31833L1.31945 17.4883C-0.437213 19.245 -0.437213 22.105 1.31945 23.86L16.1411 38.68C17.0195 39.56 18.1728 40 19.3261 40C20.4795 40 21.6345 39.56 22.5128 38.68L38.6828 22.5117C39.5211 21.6733 40.0028 20.5117 40.0028 19.3267V4.50667C40.0028 2.02167 37.9811 0 35.4945 0V0Z" fill="#FB5D7C"/>
<path d="M32.5 10C31.12 10 30 8.88 30 7.5C30 6.12 31.12 5 32.5 5C33.8817 5 35 6.12 35 7.5C35 8.88 33.8817 10 32.5 10Z" fill="white"/>
<path d="M13.8133 20.8833C13.325 20.395 12.5333 20.395 12.045 20.8833C11.5566 21.3716 11.5566 22.1633 12.045 22.6516L14.7466 25.3533L9.69831 24.09C9.14998 23.945 8.58332 24.1966 8.30665 24.6866C8.02998 25.175 8.11332 25.7883 8.51165 26.185L14.4033 32.0783C14.6483 32.3216 14.9666 32.445 15.2866 32.445C15.6066 32.445 15.9266 32.3233 16.17 32.0783C16.6583 31.59 16.6583 30.7983 16.17 30.31L13.4683 27.6083L18.5183 28.8716C19.0616 29.01 19.6316 28.765 19.91 28.275C20.1866 27.7866 20.1033 27.1733 19.705 26.7766L13.8133 20.8833Z" fill="#FAFAFA"/>
<path d="M23.8296 20.8833L21.1779 23.535L19.9996 22.3567L22.6513 19.705C23.1396 19.2167 23.1396 18.425 22.6513 17.9367C22.1629 17.4483 21.3713 17.4483 20.8829 17.9367L18.2313 20.5883L17.0513 19.41L19.7029 16.7583C20.1913 16.27 20.1913 15.4783 19.7029 14.99C19.2146 14.5017 18.4229 14.5017 17.9346 14.99L14.3979 18.525C14.1629 18.76 14.0312 19.0767 14.0312 19.4083C14.0312 19.74 14.1629 20.0583 14.3979 20.2917L20.2913 26.1833C20.5346 26.4267 20.8546 26.55 21.1746 26.55C21.4946 26.55 21.8146 26.4283 22.0579 26.1833L25.5946 22.6483C26.0829 22.16 26.0829 21.3683 25.5946 20.88C25.1096 20.395 24.3179 20.395 23.8296 20.8833Z" fill="#FAFAFA"/>
<path d="M26.9331 8.10999C26.5498 7.53499 25.7715 7.37832 25.1998 7.76332C24.6248 8.14499 24.4698 8.92165 24.8531 9.49665L27.2348 13.0717L26.9748 12.96C26.5065 12.7583 25.9598 12.8633 25.5981 13.225C25.2365 13.5867 25.1315 14.1317 25.3331 14.6017L25.4448 14.86L21.8715 12.4783C21.2981 12.0983 20.5215 12.2483 20.1381 12.825C19.7548 13.4 19.9098 14.1767 20.4848 14.5583L27.5565 19.2717C27.7665 19.4117 28.0081 19.4817 28.2498 19.4817C28.5348 19.4817 28.8181 19.3833 29.0498 19.1917C29.4748 18.8383 29.6181 18.2483 29.3998 17.7383L28.8631 16.4867L30.1148 17.0233C30.6231 17.2417 31.2148 17.1017 31.5681 16.6733C31.9215 16.2483 31.9531 15.6417 31.6465 15.18L26.9331 8.10999Z" fill="#FAFAFA"/>
<path d="M38.7351 1.37668L34.3235 5.78834C34.7435 6.23668 35.0001 6.83834 35.0001 7.50001C35.0001 8.88001 33.8818 10 32.5001 10C31.8385 10 31.2368 9.74334 30.7885 9.32168L28.9585 11.1517L31.6451 15.1817C31.9518 15.6417 31.9201 16.25 31.5668 16.675C31.3251 16.9683 30.9701 17.1267 30.6068 17.1267C30.4401 17.1267 30.2718 17.0933 30.1135 17.025L28.8618 16.4883L29.3985 17.74C29.6168 18.25 29.4735 18.84 29.0485 19.1933C28.8185 19.385 28.5335 19.4833 28.2485 19.4833C28.0068 19.4833 27.7651 19.4133 27.5551 19.2733L23.5251 16.5867L22.3801 17.7333C22.4768 17.7883 22.5685 17.8567 22.6518 17.94C23.1401 18.4283 23.1401 19.22 22.6518 19.7083L20.0001 22.3567L21.1785 23.535L23.8301 20.8833C24.0735 20.64 24.3935 20.5167 24.7135 20.5167C25.0335 20.5167 25.3535 20.6383 25.5968 20.8833C26.0851 21.3717 26.0851 22.1633 25.5968 22.6517L22.0601 26.1867C21.8168 26.43 21.4968 26.5533 21.1768 26.5533C20.8568 26.5533 20.5368 26.4317 20.2935 26.1867L17.1085 23.0017L16.5185 23.5917L19.7035 26.7767C20.1001 27.1733 20.1851 27.7867 19.9085 28.275C19.6835 28.6733 19.2618 28.91 18.8218 28.91C18.7202 28.91 18.6185 28.8983 18.5168 28.8717L13.4668 27.6083L16.1685 30.31C16.6568 30.7983 16.6568 31.59 16.1685 32.0783C15.9235 32.3217 15.6052 32.445 15.2852 32.445C14.9652 32.445 14.6452 32.3233 14.4018 32.0783L11.2168 28.895L8.78516 31.3267L16.1402 38.68C17.0185 39.56 18.1718 40 19.3252 40C20.4785 40 21.6335 39.56 22.5118 38.68L38.6818 22.5117C39.5201 21.6733 40.0018 20.5117 40.0018 19.3267V4.50668C40.0018 3.29168 39.5185 2.18834 38.7351 1.37668Z" fill="#FF3B62"/>
<path d="M34.3244 5.78833L30.791 9.32166C31.2377 9.74333 31.8393 10 32.501 10C33.8827 10 35.001 8.88 35.001 7.5C35.001 6.83833 34.7444 6.23666 34.3244 5.78833Z" fill="#DEDEDE"/>
<path d="M16.5201 23.5917L11.2168 28.895L14.4018 32.08C14.6468 32.3233 14.9651 32.4467 15.2851 32.4467C15.6051 32.4467 15.9251 32.325 16.1685 32.08C16.6568 31.5917 16.6568 30.8 16.1685 30.3117L13.4668 27.61L18.5168 28.8733C18.6185 28.8983 18.7201 28.9117 18.8218 28.9117C19.2635 28.9117 19.6835 28.675 19.9085 28.2767C20.1851 27.7883 20.1018 27.175 19.7035 26.7783L16.5201 23.5917Z" fill="#DADADA"/>
<path d="M22.3794 17.7317L17.1094 23.0017L20.2944 26.1867C20.5377 26.43 20.8577 26.5533 21.1777 26.5533C21.4977 26.5533 21.8177 26.4317 22.061 26.1867L25.5977 22.6517C26.086 22.1633 26.086 21.3717 25.5977 20.8833C25.3544 20.64 25.0344 20.5167 24.7144 20.5167C24.3944 20.5167 24.0744 20.6383 23.831 20.8833L21.1794 23.535L19.9994 22.3567L22.651 19.705C23.1394 19.2167 23.1394 18.425 22.651 17.9367C22.5677 17.855 22.476 17.7867 22.3794 17.7317Z" fill="#DADADA"/>
<path d="M25.3865 14.725L25.3281 14.7833L25.4431 14.86L25.3865 14.725ZM27.1565 12.955L27.0981 13.0133L27.2348 13.0717L27.1565 12.955Z" fill="#DEA806"/>
<path d="M28.9604 11.1517L27.1571 12.955L27.2354 13.0717L27.0987 13.0133L25.3854 14.7267L25.4437 14.8617L25.3287 14.7833L23.5254 16.5867L27.5554 19.2733C27.7654 19.4133 28.0071 19.4833 28.2487 19.4833C28.5337 19.4833 28.8171 19.385 29.0487 19.1933C29.4737 18.84 29.6171 18.25 29.3987 17.74L28.8621 16.4883L30.1137 17.025C30.2737 17.0933 30.4421 17.1267 30.6071 17.1267C30.9704 17.1267 31.3237 16.9683 31.5671 16.675C31.9204 16.25 31.9521 15.6433 31.6454 15.1817L28.9604 11.1517Z" fill="#DADADA"/>
</g>
<defs>
<clipPath id="clip0">
<rect width="40" height="40" fill="white"/>
</clipPath>
</defs>
</svg>
