<svg width="503" height="339" viewBox="0 0 503 339" fill="none" xmlns="http://www.w3.org/2000/svg">
<path d="M96.8215 218.131C98.0713 214.985 102.032 204.343 98.2664 201.382C94.6171 198.512 84.4181 203.409 72.7583 213.599C81.3383 199.826 84.3126 186.31 79.3924 183.405C75.7378 181.244 68.7504 185.556 61.879 193.564C62.0055 193.127 62.1268 192.691 62.2481 192.244C65.7972 179.139 64.3892 162.78 59.7959 161.44C54.1691 159.797 43.2106 180.546 41.3913 184.026C41.0801 182.337 40.5791 180.294 39.7459 178.051C34.6991 164.391 21.22 153.396 17.0011 155.732C10.8891 159.114 22.0637 191.628 22.0637 191.628C9.03809 188.492 1.94518 188.266 0.595151 190.858C-1.03965 194 5.7474 201.315 21.2569 212.957C8.97481 209.821 4.74543 210.693 3.63798 212.567C2.3196 214.795 4.34991 220.221 20.6663 234.399C9.12247 235.63 6.47515 238.012 6.07963 239.871C4.97219 245.029 19.5694 253.802 29.7789 258.027C30.1323 258.176 30.4276 258.294 30.6332 258.376C19.369 260.542 16.7533 263.104 16.516 265.075C15.8937 270.157 30.1428 278.683 43.1368 279.13C45.8791 279.222 49.0906 278.976 54.8915 279.602C57.233 279.853 62.9759 280.469 67.3898 281.901C70.5118 282.913 78.633 286.177 85.805 297.281C90.3666 306.289 94.9335 315.298 99.4951 324.307C101.251 323.614 103.013 322.926 104.769 322.233C100.276 313.476 95.7773 304.724 91.2842 295.967C89.9764 293.605 87.3555 288.087 87.9461 280.87C88.3047 276.465 89.7233 273.031 90.836 270.886C93.478 267.256 96.1201 263.622 98.7674 259.993C110.538 245.096 116.144 232.551 112.426 228.752C108.059 224.291 91.8116 232.828 88.9428 234.357C91.5637 228.947 94.19 223.537 96.8215 218.131Z" fill="#7084C2"/>
<path d="M203.394 155.201L202.875 155.26L212.214 232.156L212.732 232.096L203.394 155.201Z" fill="#0C775B"/>
<path d="M202.978 145.789C203.643 151.266 203.743 155.757 203.2 155.819C202.656 155.881 201.681 151.492 201.011 146.014C200.347 140.537 200.246 136.046 200.79 135.984C201.338 135.922 202.314 140.311 202.978 145.789Z" fill="#20B78C"/>
<path d="M208.462 147.19C206.052 152.179 203.695 156.045 203.199 155.819C202.704 155.593 204.259 151.363 206.669 146.374C209.079 141.384 211.437 137.519 211.932 137.745C212.428 137.971 210.878 142.2 208.462 147.19Z" fill="#20B78C"/>
<path d="M196.058 148.622C199.596 152.929 202.813 156.147 203.24 155.819C203.667 155.485 201.141 151.728 197.603 147.421C194.064 143.114 190.847 139.896 190.42 140.224C189.993 140.553 192.519 144.315 196.058 148.622Z" fill="#20B78C"/>
<path d="M205.82 146.117C204.913 151.563 203.737 155.906 203.199 155.819C202.661 155.732 202.961 151.25 203.868 145.809C204.775 140.363 205.951 136.02 206.489 136.107C207.033 136.189 206.732 140.671 205.82 146.117Z" fill="#77C9B5"/>
<path d="M210.697 148.935C206.969 153.088 203.61 156.173 203.204 155.819C202.792 155.47 205.482 151.82 209.21 147.667C212.939 143.515 216.298 140.429 216.704 140.784C217.115 141.133 214.426 144.782 210.697 148.935Z" fill="#77C9B5"/>
<path d="M198.372 146.974C200.561 152.061 202.739 156.019 203.245 155.814C203.746 155.608 202.385 151.317 200.197 146.23C198.008 141.143 195.83 137.185 195.324 137.391C194.818 137.596 196.184 141.887 198.372 146.974Z" fill="#77C9B5"/>
<path d="M194.302 150.819C198.922 154.012 202.925 156.245 203.241 155.814C203.557 155.383 200.066 152.441 195.447 149.248C190.827 146.056 186.825 143.823 186.508 144.254C186.192 144.69 189.683 147.631 194.302 150.819Z" fill="#77C9B5"/>
<path d="M431.297 257.39C432.847 256.723 438.01 254.387 437.762 252.093C437.525 249.87 432.262 248.12 424.604 247.699C432.473 245.84 438.31 242.18 437.651 239.516C437.161 237.535 433.211 236.667 427.985 237.114C428.185 237.006 428.38 236.893 428.581 236.785C434.471 233.459 439.819 227.34 438.711 225.328C437.356 222.864 426.181 226.324 424.314 226.909C424.81 226.221 425.364 225.349 425.875 224.291C428.997 217.875 428.264 209.528 425.976 208.912C422.664 208.019 414.933 223.013 414.933 223.013C411.552 217.536 409.185 215.062 407.798 215.498C406.115 216.032 405.852 220.847 407.054 230.102C403.932 224.871 402.16 223.747 401.111 224.019C399.861 224.342 398.627 226.899 399.212 237.304C394.788 233.834 393.026 233.762 392.23 234.27C390.01 235.677 391.924 243.633 393.939 248.535C394.007 248.705 394.071 248.843 394.108 248.941C389.451 245.887 387.632 245.887 386.846 246.487C384.821 248.032 386.703 255.784 391.028 260.326C391.94 261.286 393.137 262.282 394.92 264.459C395.637 265.337 397.398 267.487 398.416 269.469C399.133 270.87 400.773 274.741 399.291 280.993C397.657 285.644 396.022 290.294 394.387 294.94C395.241 295.294 396.09 295.648 396.945 296.003C398.511 291.465 400.082 286.922 401.649 282.384C402.039 281.126 403.099 278.339 405.873 276.044C407.566 274.643 409.28 273.94 410.429 273.575C412.634 273.216 414.843 272.852 417.047 272.492C426.419 271.327 432.821 268.889 432.894 266.317C432.979 263.304 424.33 260.763 422.79 260.326C425.628 259.346 428.459 258.371 431.297 257.39Z" fill="#20B78C"/>
<path d="M405.378 269.541C405.31 269.556 405.231 269.556 405.157 269.53C404.951 269.459 404.84 269.243 404.909 269.038L423.213 217.146C423.287 216.946 423.509 216.838 423.72 216.904C423.925 216.971 424.036 217.192 423.967 217.397L405.663 269.289C405.616 269.417 405.505 269.51 405.378 269.541Z" fill="#E5EAF6"/>
<path d="M414.163 243.931L411.025 226.114C410.988 225.903 411.131 225.708 411.347 225.667C411.563 225.631 411.769 225.77 411.806 225.98L414.717 242.504L427.484 232.53C427.653 232.397 427.906 232.422 428.043 232.592C428.18 232.756 428.154 233.002 427.98 233.136L414.163 243.931Z" fill="#E5EAF6"/>
<path d="M409.406 257.395L400.636 243.561C400.52 243.382 400.578 243.14 400.763 243.028C400.947 242.915 401.195 242.971 401.311 243.151L409.78 256.502L428.174 252.047C428.385 251.995 428.602 252.124 428.654 252.329C428.707 252.534 428.575 252.745 428.364 252.796L409.406 257.395Z" fill="#E5EAF6"/>
<path d="M422.786 265.511C422.765 265.516 422.744 265.521 422.717 265.521L406.459 266.553L392.853 254.11C392.695 253.966 392.685 253.72 392.837 253.566C392.985 253.412 393.238 253.402 393.396 253.551L406.749 265.763L422.665 264.751C422.881 264.736 423.071 264.9 423.086 265.111C423.102 265.301 422.97 265.465 422.786 265.511Z" fill="#E5EAF6"/>
<path d="M337.823 282.81C335.418 269.931 338.256 263.268 341.509 259.546C348.618 251.405 360.884 253.72 363.685 246.251C366.005 240.066 358.685 235.595 361.433 229.507C364.191 223.408 372.507 225.754 377.823 218.568C382.886 211.72 379.484 203.984 382.648 202.973C385.618 202.023 391.93 207.767 393.032 214.512C394.261 222.002 387.853 224.214 386.799 233.377C385.517 244.516 394.198 247.591 391.972 255.527C389.225 265.331 375.165 263.535 371.12 274.227C367.65 283.395 375.882 290.305 371.02 296.942C366.954 302.486 358.095 301.931 357.335 301.875C348.492 301.197 340.513 293.595 337.823 282.81Z" fill="#7557A4"/>
<path d="M156.128 244.952C158.533 232.073 155.696 225.41 152.442 221.689C145.333 213.547 133.067 215.862 130.267 208.394C127.946 202.208 135.266 197.737 132.519 191.649C129.761 185.551 121.444 187.897 116.128 180.71C111.066 173.862 114.467 166.126 111.303 165.115C108.334 164.166 102.022 169.91 100.92 176.655C99.6908 184.144 106.098 186.357 107.153 195.519C108.434 206.659 99.7541 209.733 101.98 217.669C104.727 227.474 118.786 225.677 122.831 236.37C126.301 245.538 118.069 252.447 122.931 259.084C126.997 264.628 135.857 264.074 136.616 264.017C145.46 263.34 153.439 255.732 156.128 244.952Z" fill="#7557A4"/>
<path d="M143.803 278.457C143.592 278.621 143.287 278.652 143.039 278.503C140.592 277.056 138.424 275.249 136.605 273.134C135.371 271.697 134.295 270.121 133.415 268.442L133.383 268.375C131.637 263.889 133.335 257.899 135.134 251.559C137.169 244.388 139.268 236.97 136.046 232.001C134.722 229.963 132.344 228.865 129.829 227.705C126.422 226.134 122.567 224.358 120.642 219.841C119.851 217.988 119.593 216.489 119.582 216.422C119.118 213.701 119.608 211.581 120.041 209.713C120.484 207.798 120.837 206.284 120.051 204.672C119.603 203.743 119.287 203.332 118.195 202.547C111.967 198.055 111.709 190.058 111.703 189.724C111.693 189.365 111.988 189.067 112.357 189.057C112.726 189.046 113.032 189.334 113.043 189.693C113.043 189.77 113.301 197.398 118.997 201.5C120.199 202.367 120.689 202.932 121.264 204.118C122.245 206.135 121.813 208.014 121.349 210.005C120.943 211.761 120.484 213.748 120.9 216.217C120.9 216.232 121.154 217.639 121.876 219.348C123.6 223.398 127.055 224.989 130.398 226.529C133.098 227.772 135.645 228.947 137.175 231.303C140.718 236.76 138.535 244.46 136.42 251.903C134.685 258.017 133.051 263.791 134.617 267.878C135.45 269.459 136.463 270.942 137.628 272.292C139.358 274.299 141.409 276.014 143.735 277.384C144.051 277.569 144.151 277.969 143.962 278.277C143.914 278.354 143.867 278.411 143.803 278.457Z" fill="#77C9B5"/>
<path d="M115.395 279.089C114.293 266.04 109.774 260.321 105.644 257.549C96.6107 251.477 85.3781 256.81 80.6846 250.301C76.798 244.911 82.6781 238.746 78.4012 233.562C74.1138 228.367 66.7045 232.73 59.659 227.13C52.9458 221.791 54.1746 213.46 50.847 213.285C47.7303 213.116 43.1581 220.256 43.8859 227.048C44.6927 234.588 51.4692 235.112 54.9287 243.695C59.1317 254.131 51.5694 259.29 55.8252 266.394C61.0882 275.172 74.1929 269.89 80.9431 279.196C86.7334 287.178 80.6214 295.926 87.0867 301.11C92.4868 305.437 100.898 302.671 101.621 302.424C109.984 299.544 115.669 290.181 115.395 279.089Z" fill="#7557A4"/>
<path d="M112.41 314.559C112.247 314.775 111.962 314.877 111.683 314.8C108.935 314.02 106.362 312.819 104.036 311.238C102.459 310.165 101.004 308.907 99.7063 307.511L99.6588 307.455C96.7795 303.559 96.8269 297.347 96.8744 290.767C96.9324 283.329 96.9851 275.634 92.5501 271.65C90.7307 270.013 88.1414 269.556 85.3991 269.068C81.6918 268.411 77.4941 267.667 74.4354 263.791C73.1803 262.2 72.5264 260.819 72.5 260.758C71.3293 258.248 71.2397 256.076 71.1606 254.161C71.0815 252.201 71.0129 250.65 69.8264 249.29C69.1461 248.51 68.7295 248.186 67.4691 247.704C60.2601 244.937 57.8818 237.278 57.7816 236.955C57.6761 236.611 57.8818 236.246 58.2351 236.149C58.5884 236.046 58.9629 236.246 59.0683 236.59C59.0894 236.662 61.3676 243.967 67.9595 246.492C69.3517 247.026 69.974 247.447 70.8494 248.448C72.3366 250.152 72.4157 252.072 72.5 254.11C72.5739 255.907 72.6583 257.945 73.7235 260.219C73.7288 260.229 74.3458 261.533 75.5007 262.996C78.2429 266.471 82.003 267.138 85.6417 267.785C88.5791 268.304 91.353 268.796 93.4624 270.69C98.3352 275.069 98.2771 283.051 98.2191 290.777C98.1717 297.116 98.1295 303.112 100.729 306.664C101.958 307.978 103.329 309.159 104.811 310.17C107.015 311.674 109.452 312.809 112.062 313.553C112.416 313.656 112.621 314.015 112.516 314.359C112.489 314.431 112.458 314.503 112.41 314.559Z" fill="#77C9B5"/>
<path d="M130.065 269.659C129.806 274.73 126.6 279.047 122.144 280.418C116.601 282.117 111.096 278.652 108.802 275.033C105.722 270.172 109.551 266.794 106.935 261.892C103.423 255.306 94.8217 258.242 90.0756 251.769C85.4032 245.394 91.9213 240.066 87.597 232.289C82.9615 223.963 73.0578 225.718 70.3631 217.587C68.6333 212.356 71.9768 209.379 69.3294 205.729C66.3657 201.633 61.0605 203.917 56.0348 200.468C47.5181 194.626 47.6868 178.272 50.9986 177.019C53.3823 176.121 55.2807 183.641 65.2003 189.036C73.7909 193.707 77.9359 191.089 81.8277 195.93C84.5647 199.339 83.5944 201.987 88.2825 209.379C89.8277 211.817 90.6029 213.034 91.9635 214.384C97.2898 219.656 101.846 217.885 105.395 221.648C109.524 226.026 105.253 230.436 108.844 235.471C113.379 241.831 122.645 238.207 128.361 243.705C131.441 246.672 133.751 252.539 130.782 265.183L130.065 269.659Z" fill="#76C9B5"/>
<path d="M142.918 296.1C142.739 296.244 142.491 296.295 142.259 296.213C132.007 292.656 125.035 287.44 121.539 280.716C119.155 276.127 118.855 271.784 118.586 267.955C118.264 263.278 117.979 259.243 114.32 255.532C111.925 253.104 109.626 252.426 107.411 251.769C104.938 251.035 102.386 250.281 99.9756 247.196C97.2545 243.705 97.265 240.528 97.2808 237.448C97.2914 234.563 97.3019 231.58 95.0185 228.182C92.7878 224.866 90.2354 223.809 87.5353 222.69C84.7034 221.519 81.7766 220.308 79.5986 216.335C78.1168 213.629 77.8478 211.242 77.6158 209.128C77.3416 206.643 77.099 204.492 74.9263 202.408C73.4286 200.976 72.0891 200.576 70.2275 200.021C69.1096 199.688 67.8439 199.313 66.304 198.64C60.9936 196.325 56.3529 192.131 52.5137 186.172C52.3133 185.864 52.4135 185.458 52.7299 185.263C53.0464 185.068 53.463 185.16 53.6633 185.468C57.3601 191.202 61.8004 195.227 66.863 197.434C68.3238 198.071 69.5473 198.435 70.6283 198.753C72.5163 199.313 74.1458 199.801 75.8808 201.459C78.4015 203.871 78.6758 206.351 78.9658 208.974C79.1978 211.063 79.4404 213.224 80.7957 215.698C82.7469 219.255 85.331 220.328 88.0679 221.458C90.8365 222.602 93.6948 223.788 96.1523 227.438C98.6625 231.165 98.6519 234.352 98.6361 237.427C98.6256 240.415 98.615 243.238 101.057 246.369C103.198 249.116 105.334 249.747 107.807 250.481C110.08 251.153 112.658 251.918 115.301 254.593C119.303 258.648 119.614 263.114 119.941 267.836C120.21 271.722 120.49 275.742 122.752 280.089C126.085 286.506 132.803 291.506 142.718 294.945C143.071 295.068 143.256 295.443 143.129 295.787C143.082 295.931 143.008 296.028 142.918 296.1Z" fill="#278A71"/>
<path d="M460.75 286.065C462.3 285.397 467.458 283.062 467.215 280.767C466.978 278.544 461.715 276.794 454.057 276.373C461.926 274.515 467.763 270.855 467.104 268.191C466.614 266.209 462.664 265.342 457.438 265.788C457.638 265.681 457.833 265.568 458.034 265.46C463.924 262.133 469.272 256.015 468.164 254.002C466.809 251.538 455.634 254.998 453.767 255.583C454.263 254.896 454.817 254.023 455.328 252.965C458.45 246.549 457.717 238.202 455.429 237.586C452.117 236.693 444.386 251.687 444.386 251.687C441.006 246.21 438.638 243.736 437.251 244.172C435.568 244.706 435.305 249.521 436.507 258.776C433.385 253.546 431.613 252.421 430.564 252.693C429.314 253.017 428.08 255.573 428.665 265.978C424.241 262.508 422.48 262.436 421.683 262.944C419.463 264.351 421.377 272.308 423.392 277.21C423.46 277.379 423.524 277.518 423.561 277.615C418.904 274.561 417.085 274.561 416.299 275.162C414.274 276.707 416.157 284.458 420.481 289.001C421.393 289.961 422.59 290.957 424.373 293.133C425.09 294.011 426.851 296.162 427.869 298.143C428.586 299.544 430.226 303.415 428.745 309.667C427.11 314.318 425.475 318.969 423.84 323.614C424.694 323.968 425.543 324.323 426.398 324.677C427.964 320.139 429.536 315.596 431.102 311.058C431.492 309.801 432.552 307.013 435.326 304.719C437.019 303.317 438.733 302.614 439.882 302.25C442.087 301.89 444.296 301.526 446.501 301.167C455.872 300.001 462.274 297.563 462.348 294.991C462.432 291.978 453.783 289.437 452.243 289.001C455.081 288.02 457.918 287.04 460.75 286.065Z" fill="#61C3A8"/>
<path d="M359.976 258.396C361.527 257.729 366.689 255.393 366.442 253.099C366.204 250.876 360.941 249.126 353.284 248.705C361.152 246.847 366.99 243.187 366.331 240.522C365.84 238.541 361.891 237.674 356.664 238.12C356.865 238.012 357.06 237.899 357.26 237.792C363.151 234.465 368.498 228.346 367.391 226.334C366.036 223.87 354.861 227.33 352.994 227.915C353.49 227.227 354.044 226.355 354.555 225.297C357.677 218.881 356.944 210.534 354.655 209.918C351.343 209.025 343.612 224.019 343.612 224.019C340.232 218.542 337.864 216.068 336.477 216.504C334.795 217.038 334.531 221.853 335.734 231.108C332.612 225.877 330.84 224.753 329.79 225.025C328.541 225.349 327.307 227.905 327.892 238.31C323.468 234.84 321.706 234.768 320.91 235.276C318.69 236.683 320.604 244.639 322.618 249.542C322.687 249.711 322.75 249.85 322.787 249.947C318.131 246.893 316.311 246.893 315.526 247.493C313.501 249.039 315.383 256.79 319.707 261.333C320.62 262.293 321.817 263.288 323.599 265.465C324.317 266.343 326.078 268.493 327.096 270.475C327.813 271.876 329.453 275.747 327.971 281.999C326.336 286.65 324.702 291.3 323.067 295.946C323.921 296.3 324.77 296.654 325.624 297.009C327.191 292.471 328.762 287.928 330.328 283.39C330.719 282.133 331.779 279.345 334.553 277.051C336.245 275.649 337.959 274.946 339.109 274.581C341.313 274.222 343.523 273.858 345.727 273.498C355.098 272.333 361.5 269.895 361.574 267.323C361.659 264.31 353.01 261.769 351.47 261.333C354.307 260.352 357.144 259.377 359.976 258.396Z" fill="#3C2975"/>
<path d="M42.5254 329.559H480.672C480.672 329.559 465.659 249.085 346.745 271.05C346.745 271.05 307.495 201.474 233.892 227.438C233.892 227.438 164.434 201.171 123.395 249.624C123.39 249.624 52.9143 248.941 42.5254 329.559Z" fill="#1DB78C"/>
<path d="M357.228 208.134L356.641 208.011L337.189 295.592L337.777 295.715L357.228 208.134Z" fill="#0C775B"/>
<path d="M360.425 197.696C359.038 203.933 357.414 208.886 356.797 208.758C356.18 208.63 356.802 203.466 358.189 197.229C359.576 190.992 361.2 186.038 361.817 186.167C362.434 186.295 361.812 191.459 360.425 197.696Z" fill="#20B78C"/>
<path d="M365.889 201.238C361.322 205.817 357.257 209.184 356.803 208.758C356.35 208.332 359.682 204.272 364.249 199.688C368.816 195.109 372.882 191.741 373.336 192.167C373.789 192.599 370.456 196.659 365.889 201.238Z" fill="#20B78C"/>
<path d="M351.761 198.266C353.976 204.272 356.254 208.974 356.845 208.768C357.441 208.563 356.128 203.522 353.913 197.516C351.698 191.51 349.42 186.808 348.829 187.014C348.233 187.219 349.546 192.26 351.761 198.266Z" fill="#20B78C"/>
<path d="M363.41 199.097C360.314 204.723 357.356 209.051 356.797 208.758C356.238 208.465 358.299 203.671 361.395 198.045C364.491 192.419 367.449 188.092 368.008 188.384C368.567 188.672 366.505 193.471 363.41 199.097Z" fill="#77C9B5"/>
<path d="M367.661 203.964C361.976 207.146 357.114 209.292 356.797 208.758C356.481 208.224 360.837 205.216 366.522 202.033C372.207 198.851 377.069 196.705 377.385 197.239C377.702 197.773 373.346 200.781 367.661 203.964Z" fill="#77C9B5"/>
<path d="M354.925 197.311C355.358 203.681 356.217 208.809 356.845 208.768C357.478 208.727 357.636 203.532 357.209 197.162C356.776 190.792 355.917 185.664 355.289 185.705C354.656 185.746 354.493 190.941 354.925 197.311Z" fill="#77C9B5"/>
<path d="M348.988 200.031C352.816 205.216 356.334 209.128 356.845 208.768C357.357 208.409 354.672 203.917 350.844 198.733C347.015 193.548 343.498 189.637 342.986 189.996C342.475 190.355 345.164 194.852 348.988 200.031Z" fill="#77C9B5"/>
<path d="M165.054 210.013L164.326 210.094L177.108 318.431L177.837 318.349L165.054 210.013Z" fill="#0C775B"/>
<path d="M164.53 196.746C165.442 204.461 165.558 210.791 164.793 210.873C164.029 210.96 162.673 204.769 161.761 197.054C160.849 189.339 160.733 183.01 161.497 182.928C162.257 182.84 163.617 189.026 164.53 196.746Z" fill="#20B78C"/>
<path d="M172.242 198.735C175.662 191.717 177.872 185.768 177.177 185.447C176.482 185.126 173.147 190.555 169.726 197.574C166.306 204.592 164.096 210.542 164.791 210.862C165.486 211.183 168.822 205.754 172.242 198.735Z" fill="#20B78C"/>
<path d="M154.767 200.699C159.735 206.777 164.249 211.33 164.85 210.863C165.452 210.396 161.913 205.093 156.945 199.01C151.978 192.932 147.464 188.379 146.862 188.846C146.266 189.313 149.805 194.621 154.767 200.699Z" fill="#20B78C"/>
<path d="M168.532 197.218C167.224 204.882 165.552 210.996 164.793 210.873C164.034 210.75 164.477 204.441 165.784 196.777C167.092 189.113 168.764 182.999 169.523 183.123C170.278 183.246 169.835 189.555 168.532 197.218Z" fill="#77C9B5"/>
<path d="M175.383 201.207C170.11 207.038 165.369 211.366 164.794 210.873C164.219 210.38 168.021 205.252 173.295 199.421C178.568 193.589 183.309 189.262 183.884 189.755C184.464 190.248 180.657 195.376 175.383 201.207Z" fill="#77C9B5"/>
<path d="M158.033 198.394C161.091 205.57 164.145 211.155 164.851 210.868C165.563 210.58 163.66 204.533 160.601 197.357C157.542 190.181 154.489 184.596 153.782 184.883C153.076 185.171 154.974 191.218 158.033 198.394Z" fill="#77C9B5"/>
<path d="M152.284 203.794C158.776 208.311 164.403 211.479 164.851 210.868C165.299 210.257 160.395 206.104 153.903 201.587C147.412 197.07 141.785 193.902 141.336 194.513C140.893 195.124 145.793 199.277 152.284 203.794Z" fill="#77C9B5"/>
<path d="M373.536 230.104L373.041 230L356.743 303.382L357.238 303.486L373.536 230.104Z" fill="#0C775B"/>
<path d="M376.192 221.375C375.032 226.601 373.671 230.754 373.155 230.641C372.638 230.528 373.16 226.206 374.32 220.98C375.48 215.755 376.841 211.602 377.358 211.715C377.88 211.823 377.358 216.15 376.192 221.375Z" fill="#20B78C"/>
<path d="M380.769 224.342C376.945 228.182 373.533 231 373.154 230.641C372.774 230.282 375.569 226.878 379.392 223.044C383.216 219.204 386.628 216.386 387.007 216.745C387.387 217.099 384.597 220.503 380.769 224.342Z" fill="#20B78C"/>
<path d="M368.936 221.853C370.792 226.889 372.701 230.826 373.197 230.651C373.692 230.477 372.596 226.257 370.739 221.221C368.883 216.186 366.974 212.249 366.478 212.423C365.977 212.593 367.079 216.817 368.936 221.853Z" fill="#20B78C"/>
<path d="M378.684 222.52C381.276 217.806 382.999 213.787 382.532 213.544C382.064 213.3 379.584 216.924 376.991 221.638C374.399 226.351 372.676 230.37 373.143 230.614C373.61 230.857 376.091 227.233 378.684 222.52Z" fill="#77C9B5"/>
<path d="M382.256 226.622C377.494 229.286 373.418 231.088 373.154 230.641C372.89 230.194 376.54 227.669 381.302 225.005C386.064 222.341 390.14 220.539 390.404 220.985C390.668 221.437 387.018 223.958 382.256 226.622Z" fill="#77C9B5"/>
<path d="M371.583 221.047C371.942 226.386 372.664 230.682 373.191 230.646C373.719 230.61 373.856 226.257 373.492 220.924C373.133 215.585 372.411 211.289 371.884 211.325C371.361 211.361 371.224 215.714 371.583 221.047Z" fill="#77C9B5"/>
<path d="M366.609 223.331C369.815 227.674 372.763 230.949 373.19 230.651C373.623 230.348 371.371 226.586 368.165 222.243C364.958 217.9 362.011 214.625 361.583 214.923C361.156 215.226 363.403 218.989 366.609 223.331Z" fill="#77C9B5"/>
<path d="M268.986 329.559H11.4473C12.8658 318.548 16.1882 310.119 20.4597 303.661C27.5685 292.917 37.2929 287.646 45.1926 285.064C52.9711 282.518 58.9777 282.574 58.9777 282.574C83.0989 254.095 123.921 269.53 123.921 269.53C167.185 254.269 190.257 295.166 190.257 295.166C260.163 282.256 268.986 329.559 268.986 329.559Z" fill="#FED27A"/>
<path d="M301.182 329.559H495.533C495.533 329.559 488.872 293.862 436.126 303.605C436.126 303.605 418.713 272.744 386.065 284.258C386.065 284.258 355.256 272.605 337.052 294.098C337.058 294.103 305.791 293.8 301.182 329.559Z" fill="#304A9F"/>
<g opacity="0.16">
<path opacity="0.16" d="M238.996 90.945C238.996 92.8392 237.42 94.374 235.474 94.374C233.528 94.374 231.951 92.8392 231.951 90.945C231.951 89.0509 233.528 87.5161 235.474 87.5161C237.42 87.5161 238.996 89.0458 238.996 90.945Z" fill="#7084C2"/>
</g>
<g opacity="0.16">
<path opacity="0.16" d="M331.759 223.762C333.705 223.762 335.282 222.227 335.282 220.333C335.282 218.44 333.705 216.904 331.759 216.904C329.813 216.904 328.236 218.44 328.236 220.333C328.236 222.227 329.813 223.762 331.759 223.762Z" fill="#7084C2"/>
</g>
<g opacity="0.4">
<path opacity="0.4" d="M102.481 282.528C106.119 282.528 109.068 279.657 109.068 276.116C109.068 272.575 106.119 269.705 102.481 269.705C98.8435 269.705 95.8945 272.575 95.8945 276.116C95.8945 279.657 98.8435 282.528 102.481 282.528Z" fill="white"/>
</g>
<g opacity="0.16">
<path opacity="0.16" d="M90.9146 121.549C90.9146 123.444 89.3378 124.978 87.3918 124.978C85.4459 124.978 83.8691 123.444 83.8691 121.549C83.8691 119.655 85.4459 118.12 87.3918 118.12C89.3378 118.12 90.9146 119.655 90.9146 121.549Z" fill="#7084C2"/>
</g>
<g opacity="0.16">
<path opacity="0.16" d="M366.895 51.8605C370.224 51.8605 372.922 49.2337 372.922 45.9933C372.922 42.7528 370.224 40.126 366.895 40.126C363.566 40.126 360.867 42.7528 360.867 45.9933C360.867 49.2337 363.566 51.8605 366.895 51.8605Z" fill="#7084C2"/>
</g>
<g opacity="0.16">
<path opacity="0.16" d="M372.918 149.88C376.247 149.88 378.946 147.253 378.946 144.012C378.946 140.772 376.247 138.145 372.918 138.145C369.589 138.145 366.891 140.772 366.891 144.012C366.891 147.253 369.589 149.88 372.918 149.88Z" fill="#7084C2"/>
</g>
<g opacity="0.16">
<path opacity="0.16" d="M263.722 143.438C266.076 141.147 266.076 137.432 263.722 135.141C261.368 132.849 257.552 132.849 255.198 135.141C252.844 137.432 252.844 141.147 255.198 143.438C257.552 145.73 261.368 145.73 263.722 143.438Z" fill="#7084C2"/>
</g>
<g opacity="0.16">
<path opacity="0.16" d="M501.502 233.184C502.035 229.985 499.804 226.972 496.518 226.453C493.232 225.933 490.136 228.106 489.602 231.304C489.069 234.503 491.301 237.517 494.587 238.036C497.873 238.555 500.969 236.383 501.502 233.184Z" fill="#7084C2"/>
</g>
<g opacity="0.16">
<path opacity="0.16" d="M431.855 289.909C433.518 289.909 434.866 288.597 434.866 286.978C434.866 285.36 433.518 284.047 431.855 284.047C430.192 284.047 428.844 285.36 428.844 286.978C428.844 288.597 430.192 289.909 431.855 289.909Z" fill="white"/>
</g>
<g opacity="0.16">
<path opacity="0.16" d="M389.05 274.623C389.05 276.245 387.7 277.554 386.039 277.554C384.372 277.554 383.027 276.24 383.027 274.623C383.027 273 384.377 271.691 386.039 271.691C387.7 271.686 389.05 273 389.05 274.623Z" fill="white"/>
</g>
<g opacity="0.16">
<path opacity="0.16" d="M251.357 234.624C253.02 234.624 254.368 233.312 254.368 231.693C254.368 230.074 253.02 228.762 251.357 228.762C249.694 228.762 248.346 230.074 248.346 231.693C248.346 233.312 249.694 234.624 251.357 234.624Z" fill="white"/>
</g>
<g opacity="0.4">
<path opacity="0.4" d="M136.605 279.001C138.268 279.001 139.616 277.689 139.616 276.07C139.616 274.451 138.268 273.139 136.605 273.139C134.942 273.139 133.594 274.451 133.594 276.07C133.594 277.689 134.942 279.001 136.605 279.001Z" fill="white"/>
</g>
<g opacity="0.16">
<path opacity="0.16" d="M139.124 253.114C140.787 253.114 142.136 251.802 142.136 250.183C142.136 248.564 140.787 247.252 139.124 247.252C137.461 247.252 136.113 248.564 136.113 250.183C136.113 251.802 137.461 253.114 139.124 253.114Z" fill="white"/>
</g>
<g opacity="0.16">
<path opacity="0.16" d="M366.241 289.909C366.241 291.531 364.891 292.84 363.23 292.84C361.564 292.84 360.219 291.526 360.219 289.909C360.219 288.287 361.569 286.978 363.23 286.978C364.891 286.978 366.241 288.287 366.241 289.909Z" fill="white"/>
</g>
<g opacity="0.16">
<path opacity="0.16" d="M301.113 240.987C301.698 237.478 299.25 234.171 295.644 233.602C292.039 233.032 288.643 235.415 288.057 238.924C287.472 242.434 289.921 245.74 293.526 246.31C297.131 246.879 300.528 244.496 301.113 240.987Z" fill="white"/>
</g>
<g opacity="0.16">
<path opacity="0.16" d="M404.886 298.934C406.549 298.934 407.897 297.621 407.897 296.003C407.897 294.384 406.549 293.071 404.886 293.071C403.223 293.071 401.875 294.384 401.875 296.003C401.875 297.621 403.223 298.934 404.886 298.934Z" fill="white"/>
</g>
<path d="M467.798 314.272H419.039V329.292H467.798V314.272Z" fill="#FBAF2C"/>
<path d="M423.416 315.473H421.285V328.085H423.416V315.473Z" fill="#A4712A"/>
<path d="M428.09 315.473H425.959V328.085H428.09V315.473Z" fill="#A4712A"/>
<path d="M432.765 315.473H430.635V328.085H432.765V315.473Z" fill="#A4712A"/>
<path d="M437.439 315.473H435.309V328.085H437.439V315.473Z" fill="#A4712A"/>
<path d="M442.115 315.473H439.984V328.085H442.115V315.473Z" fill="#A4712A"/>
<path d="M446.789 315.473H444.658V328.085H446.789V315.473Z" fill="#A4712A"/>
<path d="M451.466 315.473H449.336V328.085H451.466V315.473Z" fill="#A4712A"/>
<path d="M456.138 315.473H454.008V328.085H456.138V315.473Z" fill="#A4712A"/>
<path d="M460.816 315.473H458.686V328.085H460.816V315.473Z" fill="#A4712A"/>
<path d="M465.488 315.473H463.357V328.085H465.488V315.473Z" fill="#A4712A"/>
<path d="M406.036 329.266C419.422 329.266 430.273 318.51 430.273 305.242C430.273 291.974 419.422 281.219 406.036 281.219C392.65 281.219 381.799 291.974 381.799 305.242C381.799 318.51 392.65 329.266 406.036 329.266Z" fill="#A5722A"/>
<path d="M402.159 329.292C415.187 329.292 425.748 318.823 425.748 305.91C425.748 292.996 415.187 282.528 402.159 282.528C389.131 282.528 378.57 292.996 378.57 305.91C378.57 318.823 389.131 329.292 402.159 329.292Z" fill="#FBAF2C"/>
<g opacity="0.8">
<path opacity="0.8" d="M421.382 306.767C420.897 306.767 420.502 306.382 420.502 305.91C420.502 301.228 418.709 296.783 415.449 293.385C415.117 293.035 415.138 292.497 415.492 292.173C415.85 291.85 416.404 291.87 416.736 292.214C420.301 295.931 422.263 300.797 422.263 305.91C422.263 306.382 421.867 306.767 421.382 306.767Z" fill="#FDFEFF"/>
</g>
<g opacity="0.8">
<path opacity="0.8" d="M409.631 289.211C409.515 289.211 409.393 289.191 409.283 289.139C407.026 288.19 404.626 287.712 402.158 287.712C401.673 287.712 401.277 287.327 401.277 286.855C401.277 286.383 401.673 285.998 402.158 285.998C404.869 285.998 407.5 286.527 409.984 287.569C410.432 287.759 410.638 288.262 410.443 288.698C410.301 289.016 409.974 289.211 409.631 289.211Z" fill="#FDFEFF"/>
</g>
<path d="M402.159 320.632C393.969 320.632 387.309 314.025 387.309 305.91C387.309 297.794 393.969 291.188 402.159 291.188C410.349 291.188 417.009 297.794 417.009 305.91C417.009 314.025 410.349 320.632 402.159 320.632Z" fill="#FDC351"/>
<path d="M407.173 310.904C407.105 310.412 406.947 309.944 406.709 309.498C406.472 309.051 406.208 308.646 405.923 308.276C405.639 307.907 405.285 307.511 404.874 307.09L403.361 305.576C403.06 305.268 402.849 305.042 402.723 304.898C402.596 304.755 402.438 304.549 402.248 304.272C402.058 304 401.937 303.728 401.895 303.466C401.847 303.204 401.852 302.922 401.91 302.624C401.968 302.311 402.132 302.049 402.39 301.839C402.649 301.629 402.976 301.557 403.371 301.623C403.572 301.654 403.735 301.706 403.872 301.777C404.009 301.849 404.115 301.947 404.189 302.07C404.262 302.193 404.315 302.322 404.352 302.45C404.384 302.583 404.399 302.748 404.394 302.953C404.389 303.158 404.373 303.348 404.352 303.523C404.331 303.702 404.299 303.923 404.252 304.19L408.244 304.544C408.286 304.241 408.312 303.959 408.328 303.687C408.344 303.42 408.328 303.117 408.286 302.784C408.244 302.45 408.17 302.142 408.07 301.86C407.964 301.577 407.811 301.29 407.6 300.987C407.39 300.684 407.131 300.422 406.82 300.191C406.509 299.96 406.119 299.745 405.639 299.55C405.19 299.365 404.679 299.216 404.115 299.103L404.573 296.737L402.053 296.254L401.536 298.908C400.814 298.959 400.17 299.113 399.595 299.37C398.435 299.893 397.729 300.817 397.47 302.132C397.375 302.619 397.354 303.081 397.407 303.518C397.46 303.949 397.591 304.359 397.802 304.744C398.013 305.129 398.24 305.473 398.483 305.771C398.725 306.069 399.036 306.402 399.416 306.782L400.998 308.343C401.452 308.784 401.794 309.159 402.032 309.472C402.269 309.78 402.454 310.134 402.58 310.53C402.707 310.925 402.728 311.341 402.649 311.767C402.501 312.532 402.042 312.84 401.278 312.691C400.692 312.578 400.297 312.27 400.091 311.767C399.885 311.264 399.87 310.514 400.049 309.518L396.083 309.236C395.819 311.002 396.083 312.372 396.879 313.353C397.454 314.056 398.324 314.605 399.49 314.995L399.063 317.203L401.583 317.685L402.005 315.519C403.181 315.611 404.21 315.437 405.096 314.99C406.229 314.426 406.91 313.568 407.131 312.424C407.231 311.905 407.247 311.397 407.173 310.904Z" fill="#BD9237"/>
<path d="M139.834 44.8777L112.484 71.9098L148.285 106.23L175.635 79.1975L139.834 44.8777Z" fill="#E6E7E8"/>
<path d="M140.406 91.1042L126.447 77.7218L146.397 58.005L160.356 71.3874L140.406 91.1042ZM128.282 77.7064L140.391 89.3178L158.516 71.4028L146.408 59.7914L128.282 77.7064Z" fill="#7084C2"/>
<path d="M132.885 72.2505L131.975 73.1502L145.013 85.6491L145.923 84.7493L132.885 72.2505Z" fill="#7084C2"/>
<path d="M137.34 67.8459L136.43 68.7456L149.468 81.2445L150.378 80.3448L137.34 67.8459Z" fill="#7084C2"/>
<path d="M141.797 63.4454L140.887 64.3451L153.925 76.844L154.835 75.9443L141.797 63.4454Z" fill="#7084C2"/>
<path d="M132.092 63.734L122.574 73.1396L123.498 74.0257L133.016 64.6201L132.092 63.734Z" fill="#7084C2"/>
<path d="M125.773 64.3752L119.697 70.3798L120.621 71.2659L126.698 65.2613L125.773 64.3752Z" fill="#7084C2"/>
<path d="M168.553 80.5469L162.477 86.5516L163.401 87.4377L169.477 81.433L168.553 80.5469Z" fill="#7084C2"/>
<path d="M162.998 74.8216L143.959 93.6365L144.883 94.5226L163.922 75.7077L162.998 74.8216Z" fill="#7084C2"/>
<path d="M165.877 77.5858L146.838 96.4007L147.762 97.2868L166.801 78.4719L165.877 77.5858Z" fill="#7084C2"/>
<path d="M136.785 60.546L134.333 58.195L133.901 58.621L133.357 58.1026L134.94 56.5369L135.483 57.0554L135.056 57.4814L137.508 59.8325L136.785 60.546Z" fill="#7084C2"/>
<path d="M138.045 59.3037L135.582 55.9004L136.421 55.0688L139.948 57.4198L139.289 58.0717L138.598 57.5892L138.214 57.9691L138.725 58.6313L138.045 59.3037ZM137.855 57.5071L138.119 57.2453L136.869 56.3059L137.855 57.5071Z" fill="#7084C2"/>
<path d="M140.056 57.3172L138.99 55.1971L137.092 54.4169L137.777 53.7393L138.806 54.1654L138.284 53.2414L138.874 52.6562L139.971 54.653L141.933 55.4641L141.258 56.1314L140.108 55.6591L140.646 56.7422L140.056 57.3172Z" fill="#7084C2"/>
<path d="M470.29 76.6402L443.941 48.6824L406.915 81.7452L433.263 109.703L470.29 76.6402Z" fill="#E6E7E8"/>
<path d="M442.037 95.2621L422.82 74.8677L437.259 61.973L456.476 82.3674L442.037 95.2621ZM424.655 74.9447L442.116 93.4757L454.641 82.2904L437.18 63.7594L424.655 74.9447Z" fill="#7084C2"/>
<path d="M441.667 67.5864L428.184 79.6293L429.061 80.5598L442.544 68.5168L441.667 67.5864Z" fill="#7084C2"/>
<path d="M445.957 72.1389L432.475 84.1818L433.352 85.1122L446.834 73.0693L445.957 72.1389Z" fill="#7084C2"/>
<path d="M450.26 76.7097L436.777 88.7526L437.654 89.683L451.137 77.6401L450.26 76.7097Z" fill="#7084C2"/>
<path d="M442.151 58.4335L441.195 59.2871L450.364 69.0162L451.32 68.1625L442.151 58.4335Z" fill="#7084C2"/>
<path d="M445.13 55.777L444.174 56.6306L450.027 62.8418L450.983 61.9881L445.13 55.777Z" fill="#7084C2"/>
<path d="M426.368 96.5479L425.412 97.4015L431.266 103.613L432.222 102.759L426.368 96.5479Z" fill="#7084C2"/>
<path d="M420.034 78.1851L419.078 79.0387L437.42 98.5006L438.376 97.647L420.034 78.1851Z" fill="#7084C2"/>
<path d="M417.056 80.8483L416.1 81.7019L434.441 101.164L435.397 100.31L417.056 80.8483Z" fill="#7084C2"/>
<path d="M454.355 72.8966L456.892 70.6277L456.476 70.1862L457.035 69.6832L458.559 71.3001L458 71.8032L457.588 71.3669L455.052 73.6358L454.355 72.8966Z" fill="#7084C2"/>
<path d="M455.574 74.185L459.192 71.9623L459.999 72.8196L457.409 76.1305L456.771 75.4529L457.299 74.8061L456.93 74.416L456.223 74.878L455.574 74.185ZM457.425 74.0875L457.678 74.3595L458.707 73.1892L457.425 74.0875Z" fill="#7084C2"/>
<path d="M457.504 76.2383L459.735 75.3092L460.631 73.5023L461.29 74.2055L460.8 75.1808L461.776 74.724L462.345 75.3297L460.241 76.2948L459.307 78.1581L458.654 77.4651L459.197 76.3718L458.063 76.8389L457.504 76.2383Z" fill="#7084C2"/>
<path d="M366.125 177.984L396.912 159.972C396.912 159.972 408.809 159.345 418.518 172.569C426.391 183.287 441.357 182.276 441.357 182.276L414.072 203.25C414.072 203.25 405.371 202.198 395.868 188.98C385.257 174.227 366.125 177.984 366.125 177.984Z" fill="#E6E7E8"/>
<path d="M259.463 45.6493L223.545 45.9932C223.545 45.9932 212.961 40.6701 211.473 24.4798C210.266 11.3541 196.834 4.84519 196.834 4.84519L231.276 0.225281C231.276 0.225281 238.226 5.42525 239.544 21.5077C241.01 39.4535 259.463 45.6493 259.463 45.6493Z" fill="#E6E7E8"/>
<path d="M117.33 163.329L141.852 137.781C141.852 137.781 153.116 133.997 166.179 144.12C176.773 152.323 190.88 147.354 190.88 147.354L170.556 174.812C170.556 174.812 161.892 176.126 149.024 165.952C134.669 154.602 117.33 163.329 117.33 163.329Z" fill="#E6E7E8"/>
<path d="M93.5469 159.936H81.2332C80.9063 159.936 80.6426 159.679 80.6426 159.361V152.59C80.6426 152.272 80.9063 152.015 81.2332 152.015H93.5469C93.8739 152.015 94.1376 152.272 94.1376 152.59V159.361C94.1376 159.679 93.8739 159.936 93.5469 159.936Z" fill="#62C3A8"/>
<path d="M90.8788 154.448H83.1426V155.218H90.8788V154.448Z" fill="white"/>
<path d="M90.8788 156.378H83.1426V157.148H90.8788V156.378Z" fill="white"/>
<path d="M466.829 220.862H454.52C454.193 220.862 453.93 220.606 453.93 220.287V213.517C453.93 213.198 454.193 212.942 454.52 212.942H466.834C467.161 212.942 467.425 213.198 467.425 213.517V220.287C467.419 220.606 467.156 220.862 466.829 220.862Z" fill="#62C3A8"/>
<path d="M464.16 215.375H456.424V216.145H464.16V215.375Z" fill="white"/>
<path d="M464.16 217.31H456.424V218.08H464.16V217.31Z" fill="white"/>
<path d="M278.31 293.605C279.861 292.938 285.023 290.602 284.776 288.308C284.538 286.085 279.275 284.335 271.618 283.914C279.486 282.055 285.324 278.395 284.665 275.731C284.174 273.75 280.224 272.882 274.998 273.329C275.199 273.221 275.394 273.108 275.594 273C281.485 269.674 286.832 263.555 285.725 261.543C284.369 259.079 273.195 262.539 271.328 263.124C271.824 262.436 272.377 261.564 272.889 260.506C276.011 254.09 275.278 245.743 272.989 245.127C269.677 244.234 261.946 259.228 261.946 259.228C258.566 253.751 256.198 251.277 254.811 251.713C253.129 252.247 252.865 257.062 254.068 266.317C250.946 261.086 249.174 259.962 248.124 260.234C246.875 260.557 245.641 263.114 246.226 273.519C241.801 270.049 240.04 269.977 239.244 270.485C237.024 271.892 238.938 279.848 240.952 284.75C241.021 284.92 241.084 285.058 241.121 285.156C236.465 282.102 234.645 282.102 233.86 282.702C231.835 284.247 233.717 291.999 238.041 296.542C238.954 297.501 240.151 298.497 241.933 300.674C242.651 301.552 244.412 303.702 245.43 305.684C246.147 307.085 247.787 310.956 246.305 317.208C244.67 321.859 243.035 326.509 241.401 331.155C242.255 331.509 243.104 331.863 243.958 332.218C245.525 327.68 247.096 323.137 248.662 318.599C249.053 317.341 250.113 314.554 252.886 312.259C254.579 310.858 256.293 310.155 257.443 309.79C259.647 309.431 261.857 309.067 264.061 308.707C273.432 307.542 279.834 305.104 279.908 302.532C279.992 299.519 271.344 296.978 269.804 296.542C272.641 295.566 275.473 294.586 278.31 293.605Z" fill="white"/>
<path d="M126.807 128.926H114.493C114.166 128.926 113.902 128.669 113.902 128.351V121.58C113.902 121.262 114.166 121.005 114.493 121.005H126.807C127.134 121.005 127.397 121.262 127.397 121.58V128.351C127.397 128.669 127.134 128.926 126.807 128.926Z" fill="#4D67B0"/>
<path d="M124.139 123.438H116.402V124.208H124.139V123.438Z" fill="white"/>
<path d="M124.139 125.369H116.402V126.139H124.139V125.369Z" fill="white"/>
<path d="M248.68 73.7949H236.366C236.039 73.7949 235.775 73.5382 235.775 73.2199V66.4492C235.775 66.1309 236.039 65.8743 236.366 65.8743H248.68C249.007 65.8743 249.27 66.1309 249.27 66.4492V73.2199C249.27 73.5382 249.007 73.7949 248.68 73.7949Z" fill="#4D67B0"/>
<path d="M246.012 68.3126H238.275V69.0826H246.012V68.3126Z" fill="white"/>
<path d="M246.012 70.2426H238.275V71.0126H246.012V70.2426Z" fill="white"/>
<path d="M434.281 153.637H421.968C421.641 153.637 421.377 153.381 421.377 153.062V146.292C421.377 145.973 421.641 145.717 421.968 145.717H434.281C434.608 145.717 434.872 145.973 434.872 146.292V153.062C434.872 153.381 434.608 153.637 434.281 153.637Z" fill="#4D67B0"/>
<path d="M431.614 148.155H423.877V148.925H431.614V148.155Z" fill="white"/>
<path d="M431.614 150.085H423.877V150.855H431.614V150.085Z" fill="white"/>
<path d="M70.9762 329.559H40.7905C40.7272 326.345 40.337 322.973 37.9797 319.728C31.2295 310.422 18.1248 315.704 12.8618 306.931C12.1868 305.802 11.8071 304.724 11.6331 303.661C10.7102 298.051 15.5038 293.005 11.96 284.232C8.50584 275.649 1.72934 275.126 0.917213 267.585C0.189464 260.788 4.75635 253.653 7.87301 253.818C11.2006 253.997 9.97189 262.328 16.6851 267.667C23.7306 273.267 31.1399 268.904 35.4273 274.099C38.2381 277.497 36.6718 281.321 36.366 285.069C36.1972 287.04 36.3765 288.985 37.716 290.839C42.4042 297.347 53.6368 292.014 62.6704 298.087C66.8049 300.864 71.319 306.577 72.4212 319.626C72.5161 323.163 71.994 326.525 70.9762 329.559Z" fill="#3C2975"/>
<path d="M87.8973 293.02H27.125V331.027H87.8973V293.02Z" fill="#28896C"/>
<path d="M82.1443 321.135V302.912C79.7079 302.912 77.7356 300.992 77.7356 298.62H37.2876C37.2876 300.992 35.3153 302.912 32.8789 302.912V321.135C35.3153 321.135 37.2876 323.055 37.2876 325.426H77.7356C77.7356 323.055 79.7132 321.135 82.1443 321.135Z" fill="#62C3A8"/>
<path d="M56.2726 319.595C60.5686 319.595 64.0511 316.205 64.0511 312.023C64.0511 307.842 60.5686 304.452 56.2726 304.452C51.9767 304.452 48.4941 307.842 48.4941 312.023C48.4941 316.205 51.9767 319.595 56.2726 319.595Z" fill="#ADDDD2"/>
<path d="M43.8423 312.023C43.8423 313.805 42.3605 315.247 40.5305 315.247C38.7006 315.247 37.2188 313.805 37.2188 312.023C37.2188 310.242 38.7006 308.8 40.5305 308.8C42.3605 308.795 43.8423 310.242 43.8423 312.023Z" fill="#ADDDD2"/>
<path d="M76.9595 312.023C76.9595 313.805 75.4776 315.247 73.6477 315.247C71.8178 315.247 70.3359 313.805 70.3359 312.023C70.3359 310.242 71.8178 308.8 73.6477 308.8C75.4776 308.795 76.9595 310.242 76.9595 312.023Z" fill="#ADDDD2"/>
<path d="M105.151 293.02H87.8965V331.027H105.151V293.02Z" fill="#134937"/>
<path d="M57.9963 293.02H54.5527V331.027H57.9963V293.02Z" fill="#FDC351"/>
<path d="M290.534 89.5847H325.846C332.812 89.5847 338.049 95.7702 336.72 102.428L321.648 177.81L276.158 167.687L279.465 99.8563C279.744 94.1071 284.617 89.5847 290.534 89.5847Z" fill="#552E8D"/>
<path d="M311.818 98.7784H305.785L302.969 89.5847H315.056L311.818 98.7784Z" fill="#8B6EB0"/>
<path d="M305.785 98.7784L290.93 154.063L295.628 163.565L306.059 155.819L311.818 98.7784H305.785Z" fill="#8B6EB0"/>
<path d="M301.592 97.069L309.613 92.9419L302.968 89.5847L301.592 97.069Z" fill="#3A2768"/>
<path d="M309.613 92.9418L316.137 96.9201L315.056 89.5847L309.613 92.9418Z" fill="#3A2768"/>
<g opacity="0.23">
<path opacity="0.23" d="M305.784 98.7784H311.817L311.601 101.437H305.072L305.784 98.7784Z" fill="#352451"/>
</g>
<path d="M325.777 68.446C325.777 66.326 324.48 64.6115 322.876 64.6115C322.734 64.6115 322.597 64.6269 322.46 64.6526C322.729 65.9769 322.876 67.3629 322.876 68.7951C322.876 70.4942 322.671 72.1368 322.291 73.6819C323.884 72.6553 325.777 70.1092 325.777 68.446Z" fill="#E09F90"/>
<path d="M303.451 81.7411L302.971 89.5847L309.615 92.9419L315.058 89.5847V81.7411H303.451Z" fill="#FABFAE"/>
<path d="M315.056 84.0562V86.7255C315.056 86.7255 307.056 89.2254 303.449 84.0562H315.056Z" fill="#E09F90"/>
<path d="M322.461 64.6526C322.661 65.6382 322.793 66.6597 322.846 67.7017C324.686 65.1146 325.767 61.973 325.767 58.5851C325.767 58.4876 325.762 58.39 325.762 58.2976H319.914C321.101 60.1405 321.981 62.2964 322.461 64.6526Z" fill="#1E1649"/>
<path d="M319.914 58.2976H309.361C303.291 62.4761 296.056 64.6064 296.051 64.6115C295.85 65.5868 295.719 66.5929 295.666 67.6298C295.645 68.0148 295.629 68.405 295.629 68.7951C295.629 78.1119 301.73 85.6629 309.251 85.6629C315.4 85.6629 320.599 80.6118 322.292 73.6819C322.672 72.1368 322.877 70.4942 322.877 68.7951C322.877 68.4306 322.867 68.0662 322.851 67.7068C322.798 66.6597 322.667 65.6433 322.466 64.6577C321.981 62.2964 321.1 60.1405 319.914 58.2976Z" fill="#FABFAE"/>
<path d="M308.1 65.6022C308.1 66.1515 307.641 66.5929 307.082 66.5929C306.518 66.5929 306.064 66.1464 306.064 65.6022C306.064 65.053 306.523 64.6115 307.082 64.6115C307.641 64.6064 308.1 65.053 308.1 65.6022Z" fill="#273273"/>
<path d="M319.133 65.6022C319.133 66.1515 318.674 66.5929 318.115 66.5929C317.551 66.5929 317.098 66.1464 317.098 65.6022C317.098 65.053 317.556 64.6115 318.115 64.6115C318.68 64.6064 319.133 65.053 319.133 65.6022Z" fill="#273273"/>
<path d="M310.495 79.9753C309.651 79.9753 308.881 79.8059 308.19 79.4722C306.202 78.5123 305.638 76.536 305.617 76.4488C305.522 76.1151 305.728 75.7712 306.07 75.6788C306.413 75.5915 306.767 75.7866 306.861 76.1202C306.872 76.1459 307.32 77.6551 308.781 78.3532C309.952 78.9127 311.476 78.8306 313.316 78.1017C313.648 77.9682 314.023 78.1273 314.155 78.4456C314.287 78.769 314.128 79.1335 313.801 79.2618C312.599 79.734 311.497 79.9753 310.495 79.9753Z" fill="#273273"/>
<path d="M339.435 46.5271C339.008 41.2347 334.588 36.9433 329.146 36.5429C325.46 36.2709 322.116 37.7441 319.891 40.2029C318.567 41.6659 316.685 42.5386 314.681 42.5386H308.753V42.554C299.894 42.826 292.801 49.8996 292.801 58.5851C292.801 61.9371 293.861 65.053 295.664 67.6247C295.722 66.5929 303.448 65.6022 309.36 58.2976H319.912H325.76H328.919C329.774 58.2976 330.586 58.1436 331.35 57.8818C336.308 56.5061 339.867 51.8862 339.435 46.5271Z" fill="#3C2975"/>
<path d="M297.564 68.3588C297.564 70.7817 297.801 74.1388 295.971 74.1388C294.141 74.1388 290.93 70.7817 290.93 68.3588C290.93 65.9359 292.417 63.9699 294.247 63.9699C296.077 63.9699 297.564 65.9359 297.564 68.3588Z" fill="#FABFAE"/>
<path d="M350.184 160.901L329.301 132.17L336.7 102.367L353.48 141.723L350.184 160.901Z" fill="#552E8D"/>
<path d="M308.079 65.5355C308.079 66.0847 307.62 66.5262 307.061 66.5262C306.497 66.5262 306.043 66.0796 306.043 65.5355C306.043 64.9862 306.502 64.5448 307.061 64.5448C307.62 64.5448 308.079 64.9914 308.079 65.5355Z" fill="#273273"/>
<path d="M319.112 65.5355C319.112 66.0847 318.653 66.5262 318.094 66.5262C317.53 66.5262 317.076 66.0796 317.076 65.5355C317.076 64.9862 317.535 64.5448 318.094 64.5448C318.653 64.5448 319.112 64.9914 319.112 65.5355Z" fill="#273273"/>
<path d="M310.473 79.9085C309.63 79.9085 308.86 79.7391 308.169 79.4055C306.186 78.4456 305.617 76.4693 305.595 76.3872C305.501 76.0535 305.706 75.7096 306.049 75.6172C306.392 75.5299 306.745 75.725 306.84 76.0586C306.851 76.0843 307.299 77.5935 308.76 78.2916C309.93 78.8511 311.454 78.7638 313.295 78.04C313.627 77.9066 314.001 78.0657 314.133 78.384C314.265 78.7074 314.107 79.0718 313.78 79.2002C312.578 79.6724 311.475 79.9085 310.473 79.9085Z" fill="#273273"/>
<path d="M372.925 101.971L340.094 80.9917L310.84 124.369L343.671 145.348L372.925 101.971Z" fill="#D2D2D3"/>
<path d="M370.244 98.9119L334.707 82.6424L312.02 129.595L347.558 145.864L370.244 98.9119Z" fill="#E6E7E8"/>
<path d="M364.032 130.779L362.761 158.252C362.614 161.465 359.676 163.868 356.402 163.457L353.886 163.144C350.443 162.718 348.207 159.397 349.177 156.153L357.05 129.773L364.032 130.779Z" fill="#7456A4"/>
<path d="M287.08 90.0519L243.89 106.709C241.39 107.674 238.532 106.868 236.95 104.753L219.653 81.6744L213.203 85.5962L231.534 118.947C232.72 121.103 235.178 122.294 237.662 121.909L280.209 115.328L287.08 90.0519Z" fill="#552E8D"/>
<path d="M276.137 167.625L228.121 150.177C220.459 147.395 212.116 152.221 210.966 160.1L203.857 208.779L221.265 214.425L230.51 176.105L295.074 203.65L316.374 260.558L312.825 313.907H332.532L336.904 259.926L321.626 177.748L276.137 167.625Z" fill="#190E35"/>
<path d="M210.028 210.781L221.266 214.43L218.945 225.246L207.586 222.171L210.028 210.781Z" fill="#8B6EB0"/>
<path d="M207.586 222.171C207.586 222.171 203.9 224.44 197.509 224.296C191.112 224.147 190.289 225.246 191.191 227.079C192.093 228.911 218.571 233.521 218.571 233.521L218.946 225.246L207.586 222.171Z" fill="#190E35"/>
<path d="M326.052 313.912L314.087 313.943L313.918 324.995L325.694 324.41L326.052 313.912Z" fill="#8B6EB0"/>
<path d="M325.693 324.41C325.693 324.41 328.778 327.408 335.053 328.624C341.323 329.841 341.888 331.088 340.596 332.685C339.304 334.281 312.43 333.147 312.43 333.147L313.922 324.99L325.693 324.41Z" fill="#190E35"/>
<path d="M219.653 81.6795L220.544 69.4778C220.544 69.4778 218.181 68.1483 217.19 73.9489C217.19 73.9489 212.096 63.549 207.75 65.8486C203.405 68.1483 205.863 78.2711 213.203 85.6013L219.653 81.6795Z" fill="#FABFAE"/>
<path d="M358.646 116.385C356.205 114.625 352.751 115.123 350.942 117.499L350.014 118.716C348.205 121.093 348.716 124.455 351.158 126.215L357.043 129.778L364.031 130.779L364.31 124.737C364.447 121.775 362.928 118.972 360.344 117.407L358.646 116.385Z" fill="#FABFAE"/>
<path d="M120.103 323.317C111.903 316.72 110.136 311.284 110.152 307.419C110.189 298.97 118.817 294.283 116.602 288.38C114.767 283.488 108.001 284.417 106.477 279.371C104.952 274.315 111.207 271.609 110.658 264.623C110.136 257.97 104.024 254.983 105.411 252.801C106.709 250.758 113.533 251.097 117.73 254.629C122.392 258.55 119.681 263.068 123.837 269.13C128.894 276.501 135.755 274.053 138.561 279.956C142.031 287.245 132.591 293.138 135.739 301.608C138.445 308.872 147.035 308.964 147.568 315.396C148.011 320.765 142.363 324.826 141.873 325.17C136.182 329.143 127.376 328.501 120.103 323.317Z" fill="white"/>
<path d="M145.496 310.94C134.474 302.075 132.096 294.771 132.117 289.576C132.165 278.221 143.766 271.917 140.787 263.981C138.319 257.411 129.222 258.653 127.176 251.872C125.124 245.076 133.536 241.436 132.797 232.053C132.091 223.111 123.885 219.091 125.741 216.16C127.487 213.409 136.658 213.871 142.3 218.614C148.565 223.881 144.921 229.953 150.511 238.105C157.304 248.012 166.527 244.727 170.303 252.657C174.97 262.457 162.276 270.372 166.511 281.758C170.145 291.521 181.694 291.644 182.411 300.289C183.012 307.506 175.418 312.963 174.759 313.425C167.107 318.768 155.268 317.906 145.496 310.94Z" fill="white"/>
<path d="M126.4 312.013V330.816L127.228 331.314C132.534 335.118 162.682 338.028 199.075 338.028C235.468 338.028 265.617 335.113 270.922 331.314L271.75 330.816V312.013H126.4Z" fill="#273273"/>
<path d="M199.08 319.929C239.22 319.929 271.76 316.385 271.76 312.013C271.76 307.642 239.22 304.098 199.08 304.098C158.94 304.098 126.4 307.642 126.4 312.013C126.4 316.385 158.94 319.929 199.08 319.929Z" fill="#7084C2"/>
<path d="M146.799 251.867V309.344L147.395 309.842C151.213 313.312 172.898 315.971 199.075 315.971C225.253 315.971 246.938 313.312 250.756 309.842L251.352 309.344V251.867H146.799Z" fill="#3C2975"/>
<path d="M199.081 257.56C227.953 257.56 251.358 255.011 251.358 251.867C251.358 248.723 227.953 246.174 199.081 246.174C170.21 246.174 146.805 248.723 146.805 251.867C146.805 255.011 170.21 257.56 199.081 257.56Z" fill="#8B6EB0"/>
</svg>
