<svg width="503" height="339" viewBox="0 0 503 339" fill="none" xmlns="http://www.w3.org/2000/svg">
<path d="M96.8234 218.131C98.0732 214.985 102.034 204.343 98.2684 201.382C94.6191 198.512 84.42 203.409 72.7602 213.599C81.3403 199.826 84.3146 186.31 79.3944 183.405C75.7398 181.244 68.7524 185.556 61.8809 193.564C62.0075 193.127 62.1288 192.691 62.2501 192.244C65.7992 179.139 64.3911 162.78 59.7979 161.44C54.171 159.797 43.2126 180.546 41.3932 184.026C41.0821 182.337 40.5811 180.294 39.7479 178.051C34.7011 164.391 21.2219 153.396 17.0031 155.732C10.8911 159.114 22.0657 191.628 22.0657 191.628C9.04004 188.492 1.94713 188.266 0.597104 190.858C-1.03769 194 5.74935 201.315 21.2588 212.957C8.97676 209.821 4.74738 210.693 3.63994 212.567C2.32155 214.795 4.35187 220.221 20.6682 234.399C9.12442 235.63 6.4771 238.012 6.08159 239.871C4.97414 245.029 19.5713 253.802 29.7809 258.027C30.1342 258.176 30.4295 258.294 30.6352 258.376C19.3709 260.542 16.7552 263.104 16.5179 265.075C15.8956 270.157 30.1448 278.683 43.1388 279.13C45.881 279.222 49.0926 278.976 54.8935 279.602C57.2349 279.853 62.9778 280.469 67.3918 281.901C70.5137 282.913 78.635 286.177 85.807 297.281C90.3686 306.289 94.9355 315.298 99.4971 324.307C101.253 323.614 103.015 322.926 104.771 322.233C100.278 313.476 95.7792 304.724 91.2862 295.967C89.9784 293.605 87.3574 288.087 87.948 280.87C88.3066 276.465 89.7252 273.031 90.8379 270.886C93.48 267.256 96.122 263.622 98.7693 259.993C110.54 245.096 116.146 232.551 112.428 228.752C108.061 224.291 91.8135 232.828 88.9447 234.357C91.5657 228.947 94.1919 223.537 96.8234 218.131Z" fill="#3C59E3"/>
<path d="M203.397 155.201L202.879 155.26L212.218 232.157L212.736 232.097L203.397 155.201Z" fill="#0C775B"/>
<path d="M202.98 145.789C203.645 151.266 203.745 155.757 203.202 155.819C202.658 155.881 201.683 151.492 201.013 146.014C200.349 140.537 200.248 136.046 200.792 135.984C201.34 135.922 202.316 140.311 202.98 145.789Z" fill="#20B78C"/>
<path d="M208.464 147.19C206.054 152.179 203.697 156.045 203.201 155.819C202.706 155.593 204.261 151.363 206.671 146.374C209.081 141.384 211.439 137.519 211.934 137.745C212.43 137.971 210.88 142.2 208.464 147.19Z" fill="#20B78C"/>
<path d="M196.063 148.622C199.602 152.929 202.819 156.147 203.246 155.819C203.673 155.485 201.147 151.728 197.609 147.421C194.07 143.114 190.853 139.896 190.426 140.224C189.999 140.553 192.525 144.315 196.063 148.622Z" fill="#20B78C"/>
<path d="M205.826 146.117C204.918 151.563 203.742 155.906 203.205 155.819C202.667 155.732 202.967 151.25 203.874 145.809C204.781 140.363 205.957 136.02 206.495 136.107C207.038 136.189 206.738 140.671 205.826 146.117Z" fill="#77C9B5"/>
<path d="M210.703 148.935C206.975 153.088 203.616 156.173 203.21 155.819C202.798 155.47 205.488 151.82 209.216 147.667C212.945 143.515 216.304 140.429 216.71 140.784C217.121 141.133 214.432 144.782 210.703 148.935Z" fill="#77C9B5"/>
<path d="M198.376 146.974C200.565 152.061 202.743 156.019 203.249 155.814C203.75 155.608 202.389 151.317 200.201 146.23C198.012 141.143 195.834 137.185 195.328 137.391C194.822 137.596 196.188 141.887 198.376 146.974Z" fill="#77C9B5"/>
<path d="M194.306 150.819C198.926 154.012 202.929 156.245 203.245 155.814C203.561 155.383 200.07 152.441 195.451 149.248C190.831 146.056 186.829 143.823 186.512 144.254C186.196 144.69 189.687 147.631 194.306 150.819Z" fill="#77C9B5"/>
<path d="M431.297 257.39C432.847 256.723 438.01 254.387 437.762 252.093C437.525 249.87 432.262 248.12 424.604 247.699C432.473 245.84 438.31 242.18 437.651 239.516C437.161 237.535 433.211 236.667 427.985 237.114C428.185 237.006 428.38 236.893 428.581 236.785C434.471 233.459 439.819 227.34 438.711 225.328C437.356 222.864 426.181 226.324 424.314 226.909C424.81 226.221 425.364 225.349 425.875 224.291C428.997 217.875 428.264 209.528 425.976 208.912C422.664 208.019 414.933 223.013 414.933 223.013C411.552 217.536 409.185 215.062 407.798 215.498C406.115 216.032 405.852 220.847 407.054 230.102C403.932 224.871 402.16 223.747 401.111 224.019C399.861 224.342 398.627 226.899 399.212 237.304C394.788 233.834 393.026 233.762 392.23 234.27C390.01 235.677 391.924 243.633 393.939 248.535C394.007 248.705 394.071 248.843 394.108 248.941C389.451 245.887 387.632 245.887 386.846 246.487C384.821 248.032 386.703 255.784 391.028 260.326C391.94 261.286 393.137 262.282 394.92 264.459C395.637 265.337 397.398 267.487 398.416 269.469C399.133 270.87 400.773 274.741 399.291 280.993C397.657 285.644 396.022 290.294 394.387 294.94C395.241 295.294 396.09 295.648 396.945 296.003C398.511 291.465 400.082 286.922 401.649 282.384C402.039 281.126 403.099 278.339 405.873 276.044C407.566 274.643 409.28 273.94 410.429 273.575C412.634 273.216 414.843 272.852 417.047 272.492C426.419 271.327 432.821 268.889 432.894 266.317C432.979 263.304 424.33 260.763 422.79 260.326C425.628 259.346 428.459 258.371 431.297 257.39Z" fill="#7194E0"/>
<path d="M405.376 269.541C405.308 269.556 405.229 269.556 405.155 269.53C404.949 269.459 404.838 269.243 404.907 269.038L423.211 217.146C423.285 216.946 423.507 216.838 423.718 216.904C423.923 216.971 424.034 217.192 423.966 217.397L405.661 269.289C405.614 269.417 405.503 269.51 405.376 269.541Z" fill="#7194E0"/>
<path d="M414.163 243.931L411.025 226.114C410.988 225.903 411.131 225.708 411.347 225.667C411.563 225.631 411.769 225.77 411.806 225.98L414.717 242.504L427.484 232.53C427.653 232.397 427.906 232.422 428.043 232.592C428.18 232.756 428.154 233.002 427.98 233.136L414.163 243.931Z" fill="#7194E0"/>
<path d="M409.404 257.395L400.634 243.561C400.518 243.382 400.576 243.14 400.761 243.028C400.945 242.915 401.193 242.971 401.309 243.151L409.778 256.502L428.172 252.047C428.383 251.995 428.599 252.124 428.652 252.329C428.705 252.534 428.573 252.745 428.362 252.796L409.404 257.395Z" fill="#7194E0"/>
<path d="M422.784 265.511C422.763 265.516 422.742 265.521 422.715 265.521L406.457 266.553L392.851 254.11C392.693 253.966 392.683 253.72 392.836 253.566C392.983 253.412 393.236 253.402 393.395 253.551L406.747 265.763L422.663 264.751C422.879 264.736 423.069 264.9 423.084 265.111C423.1 265.301 422.968 265.465 422.784 265.511Z" fill="#7194E0"/>
<path d="M337.823 282.81C335.418 269.931 338.256 263.268 341.509 259.546C348.618 251.405 360.884 253.72 363.685 246.251C366.005 240.066 358.685 235.595 361.433 229.507C364.191 223.408 372.507 225.754 377.823 218.568C382.886 211.72 379.484 203.984 382.648 202.973C385.618 202.023 391.93 207.767 393.032 214.512C394.261 222.002 387.853 224.214 386.799 233.377C385.517 244.516 394.198 247.591 391.972 255.527C389.225 265.331 375.165 263.535 371.12 274.227C367.65 283.395 375.882 290.305 371.02 296.942C366.954 302.486 358.095 301.931 357.335 301.875C348.492 301.197 340.513 293.595 337.823 282.81Z" fill="#3C59E3"/>
<path d="M156.126 244.952C158.531 232.073 155.694 225.41 152.44 221.689C145.331 213.547 133.065 215.862 130.265 208.394C127.945 202.208 135.264 197.737 132.517 191.649C129.759 185.551 121.442 187.897 116.126 180.71C111.064 173.862 114.465 166.126 111.301 165.115C108.332 164.166 102.02 169.91 100.918 176.655C99.6888 184.144 106.096 186.357 107.151 195.519C108.432 206.659 99.7521 209.733 101.978 217.669C104.725 227.474 118.784 225.677 122.829 236.37C126.299 245.538 118.067 252.447 122.929 259.084C126.995 264.628 135.855 264.074 136.614 264.017C145.458 263.34 153.437 255.732 156.126 244.952Z" fill="#7194E0"/>
<path d="M143.803 278.457C143.592 278.621 143.287 278.652 143.039 278.503C140.592 277.056 138.424 275.249 136.605 273.134C135.371 271.697 134.295 270.121 133.415 268.442L133.383 268.375C131.637 263.889 133.335 257.899 135.134 251.559C137.169 244.388 139.268 236.97 136.046 232.001C134.722 229.963 132.344 228.865 129.829 227.705C126.422 226.134 122.567 224.358 120.642 219.841C119.851 217.988 119.593 216.489 119.582 216.422C119.118 213.701 119.608 211.581 120.041 209.713C120.484 207.798 120.837 206.284 120.051 204.672C119.603 203.743 119.287 203.332 118.195 202.547C111.967 198.055 111.709 190.058 111.703 189.724C111.693 189.365 111.988 189.067 112.357 189.057C112.726 189.046 113.032 189.334 113.043 189.693C113.043 189.77 113.301 197.398 118.997 201.5C120.199 202.367 120.689 202.932 121.264 204.118C122.245 206.135 121.813 208.014 121.349 210.005C120.943 211.761 120.484 213.748 120.9 216.217C120.9 216.232 121.154 217.639 121.876 219.348C123.6 223.398 127.055 224.989 130.398 226.529C133.098 227.772 135.645 228.947 137.175 231.303C140.718 236.76 138.535 244.46 136.42 251.903C134.685 258.017 133.051 263.791 134.617 267.878C135.45 269.459 136.463 270.942 137.628 272.292C139.358 274.299 141.409 276.014 143.735 277.384C144.051 277.569 144.151 277.969 143.962 278.277C143.914 278.354 143.867 278.411 143.803 278.457Z" fill="#77C9B5"/>
<path d="M130.065 269.659C129.806 274.73 126.6 279.047 122.144 280.418C116.601 282.117 111.096 278.652 108.802 275.033C105.722 270.172 109.551 266.794 106.935 261.892C103.423 255.306 94.8217 258.242 90.0756 251.769C85.4032 245.394 91.9213 240.066 87.597 232.289C82.9615 223.963 73.0578 225.718 70.3631 217.587C68.6333 212.356 71.9768 209.379 69.3294 205.729C66.3657 201.633 61.0605 203.917 56.0348 200.468C47.5181 194.626 47.6868 178.272 50.9986 177.019C53.3823 176.121 55.2807 183.641 65.2003 189.036C73.7909 193.707 77.9359 191.089 81.8277 195.93C84.5647 199.339 83.5944 201.987 88.2825 209.379C89.8277 211.817 90.6029 213.034 91.9635 214.384C97.2898 219.656 101.846 217.885 105.395 221.648C109.524 226.026 105.253 230.436 108.844 235.471C113.379 241.831 122.645 238.207 128.361 243.705C131.441 246.672 133.751 252.539 130.782 265.183L130.065 269.659Z" fill="#7194E0"/>
<path d="M142.918 296.1C142.739 296.244 142.491 296.295 142.259 296.213C132.007 292.656 125.035 287.44 121.539 280.716C119.155 276.127 118.855 271.784 118.586 267.955C118.264 263.278 117.979 259.243 114.32 255.532C111.925 253.104 109.626 252.426 107.411 251.769C104.938 251.035 102.386 250.281 99.9756 247.196C97.2545 243.705 97.265 240.528 97.2808 237.448C97.2914 234.563 97.3019 231.58 95.0185 228.182C92.7878 224.866 90.2354 223.809 87.5353 222.69C84.7034 221.519 81.7766 220.308 79.5986 216.335C78.1168 213.629 77.8478 211.242 77.6158 209.128C77.3416 206.643 77.099 204.492 74.9263 202.408C73.4286 200.976 72.0891 200.576 70.2275 200.021C69.1096 199.688 67.8439 199.313 66.304 198.64C60.9936 196.325 56.3529 192.131 52.5137 186.172C52.3133 185.864 52.4135 185.458 52.7299 185.263C53.0464 185.068 53.463 185.16 53.6633 185.468C57.3601 191.202 61.8004 195.227 66.863 197.434C68.3238 198.071 69.5473 198.435 70.6283 198.753C72.5163 199.313 74.1458 199.801 75.8808 201.459C78.4015 203.871 78.6758 206.351 78.9658 208.974C79.1978 211.063 79.4404 213.224 80.7957 215.698C82.7469 219.255 85.331 220.328 88.0679 221.458C90.8365 222.602 93.6948 223.788 96.1523 227.438C98.6625 231.165 98.6519 234.352 98.6361 237.427C98.6256 240.415 98.615 243.238 101.057 246.369C103.198 249.116 105.334 249.747 107.807 250.481C110.08 251.153 112.658 251.918 115.301 254.593C119.303 258.648 119.614 263.114 119.941 267.836C120.21 271.722 120.49 275.742 122.752 280.089C126.085 286.506 132.803 291.506 142.718 294.945C143.071 295.068 143.256 295.443 143.129 295.787C143.082 295.931 143.008 296.028 142.918 296.1Z" fill="#278A71"/>
<path d="M460.75 286.065C462.3 285.397 467.457 283.062 467.215 280.767C466.978 278.544 461.715 276.794 454.057 276.373C461.926 274.515 467.763 270.855 467.104 268.191C466.614 266.209 462.664 265.342 457.438 265.788C457.638 265.681 457.833 265.568 458.034 265.46C463.924 262.133 469.272 256.015 468.164 254.002C466.809 251.538 455.634 254.998 453.767 255.583C454.263 254.896 454.817 254.023 455.328 252.965C458.45 246.549 457.717 238.202 455.429 237.586C452.117 236.693 444.386 251.687 444.386 251.687C441.005 246.21 438.638 243.736 437.251 244.172C435.568 244.706 435.305 249.521 436.507 258.776C433.385 253.546 431.613 252.421 430.564 252.693C429.314 253.017 428.08 255.573 428.665 265.978C424.241 262.508 422.48 262.436 421.683 262.944C419.463 264.351 421.377 272.308 423.392 277.21C423.46 277.379 423.524 277.518 423.561 277.615C418.904 274.561 417.085 274.561 416.299 275.162C414.274 276.707 416.157 284.458 420.481 289.001C421.393 289.961 422.59 290.957 424.373 293.133C425.09 294.011 426.851 296.162 427.869 298.143C428.586 299.544 430.226 303.415 428.744 309.667C427.11 314.318 425.475 318.969 423.84 323.614C424.694 323.968 425.543 324.323 426.398 324.677C427.964 320.139 429.536 315.596 431.102 311.058C431.492 309.801 432.552 307.013 435.326 304.719C437.019 303.317 438.733 302.614 439.882 302.25C442.087 301.89 444.296 301.526 446.5 301.167C455.871 300.001 462.274 297.563 462.347 294.991C462.432 291.978 453.783 289.437 452.243 289.001C455.08 288.02 457.918 287.04 460.75 286.065Z" fill="#3C59E3"/>
<path d="M359.98 258.396C361.531 257.729 366.693 255.393 366.446 253.099C366.208 250.876 360.945 249.126 353.288 248.705C361.156 246.847 366.994 243.187 366.335 240.522C365.844 238.541 361.894 237.674 356.668 238.12C356.869 238.012 357.064 237.899 357.264 237.792C363.155 234.465 368.502 228.346 367.395 226.334C366.039 223.87 354.865 227.33 352.998 227.915C353.494 227.227 354.047 226.355 354.559 225.297C357.681 218.881 356.948 210.534 354.659 209.918C351.347 209.025 343.616 224.019 343.616 224.019C340.236 218.542 337.868 216.068 336.481 216.504C334.799 217.038 334.535 221.853 335.738 231.108C332.616 225.877 330.844 224.753 329.794 225.025C328.545 225.349 327.311 227.905 327.896 238.31C323.471 234.84 321.71 234.768 320.914 235.276C318.694 236.683 320.608 244.639 322.622 249.542C322.691 249.711 322.754 249.85 322.791 249.947C318.135 246.893 316.315 246.893 315.529 247.493C313.504 249.039 315.387 256.79 319.711 261.333C320.624 262.293 321.821 263.288 323.603 265.465C324.32 266.343 326.082 268.493 327.1 270.475C327.817 271.876 329.457 275.747 327.975 281.999C326.34 286.65 324.705 291.3 323.071 295.946C323.925 296.3 324.774 296.654 325.628 297.009C327.195 292.471 328.766 287.928 330.332 283.39C330.723 282.133 331.783 279.345 334.556 277.051C336.249 275.649 337.963 274.946 339.113 274.581C341.317 274.222 343.527 273.858 345.731 273.498C355.102 272.333 361.504 269.895 361.578 267.323C361.662 264.31 353.014 261.769 351.474 261.333C354.311 260.352 357.148 259.377 359.98 258.396Z" fill="#7194E0"/>
<path d="M42.5273 329.559H480.674C480.674 329.559 465.661 249.085 346.747 271.05C346.747 271.05 307.496 201.474 233.894 227.438C233.894 227.438 164.436 201.171 123.397 249.624C123.392 249.624 52.9162 248.941 42.5273 329.559Z" fill="#7194E0"/>
<path d="M357.232 208.134L356.645 208.011L337.193 295.592L337.781 295.715L357.232 208.134Z" fill="#0C775B"/>
<path d="M360.429 197.696C359.042 203.933 357.418 208.886 356.801 208.758C356.184 208.63 356.806 203.466 358.193 197.229C359.58 190.992 361.204 186.038 361.821 186.167C362.438 186.295 361.816 191.459 360.429 197.696Z" fill="#20B78C"/>
<path d="M365.889 201.238C361.322 205.817 357.257 209.184 356.803 208.758C356.349 208.332 359.682 204.272 364.249 199.688C368.816 195.109 372.882 191.741 373.336 192.167C373.789 192.599 370.456 196.659 365.889 201.238Z" fill="#20B78C"/>
<path d="M351.763 198.266C353.978 204.272 356.256 208.974 356.847 208.768C357.443 208.563 356.13 203.522 353.915 197.516C351.7 191.51 349.422 186.808 348.831 187.014C348.235 187.219 349.548 192.26 351.763 198.266Z" fill="#20B78C"/>
<path d="M363.412 199.097C360.316 204.723 357.357 209.051 356.798 208.758C356.239 208.465 358.301 203.671 361.397 198.045C364.493 192.419 367.451 188.092 368.01 188.384C368.569 188.672 366.507 193.471 363.412 199.097Z" fill="#77C9B5"/>
<path d="M367.661 203.964C361.976 207.146 357.114 209.292 356.797 208.758C356.481 208.224 360.837 205.216 366.522 202.033C372.207 198.851 377.069 196.705 377.385 197.239C377.702 197.773 373.346 200.781 367.661 203.964Z" fill="#77C9B5"/>
<path d="M354.929 197.311C355.362 203.681 356.221 208.809 356.849 208.768C357.482 208.727 357.64 203.532 357.213 197.162C356.78 190.792 355.921 185.664 355.293 185.705C354.66 185.746 354.497 190.941 354.929 197.311Z" fill="#77C9B5"/>
<path d="M348.99 200.031C352.818 205.216 356.336 209.128 356.847 208.768C357.359 208.409 354.674 203.917 350.846 198.733C347.017 193.548 343.5 189.637 342.988 189.996C342.477 190.355 345.166 194.852 348.99 200.031Z" fill="#77C9B5"/>
<path d="M165.052 210.013L164.324 210.094L177.106 318.431L177.835 318.349L165.052 210.013Z" fill="#0C775B"/>
<path d="M164.53 196.746C165.442 204.461 165.558 210.791 164.793 210.873C164.029 210.96 162.673 204.769 161.761 197.054C160.849 189.339 160.733 183.01 161.497 182.928C162.257 182.84 163.617 189.026 164.53 196.746Z" fill="#20B78C"/>
<path d="M172.244 198.735C175.664 191.717 177.874 185.768 177.179 185.447C176.484 185.126 173.149 190.555 169.728 197.574C166.308 204.592 164.098 210.542 164.793 210.862C165.488 211.183 168.824 205.754 172.244 198.735Z" fill="#20B78C"/>
<path d="M154.767 200.699C159.735 206.777 164.249 211.33 164.85 210.863C165.452 210.396 161.913 205.093 156.945 199.01C151.978 192.932 147.464 188.379 146.862 188.846C146.266 189.313 149.805 194.621 154.767 200.699Z" fill="#20B78C"/>
<path d="M168.532 197.218C167.224 204.882 165.552 210.996 164.793 210.873C164.034 210.75 164.477 204.441 165.784 196.777C167.092 189.113 168.764 182.999 169.523 183.123C170.278 183.246 169.835 189.555 168.532 197.218Z" fill="#77C9B5"/>
<path d="M175.381 201.207C170.108 207.038 165.367 211.366 164.792 210.873C164.217 210.38 168.019 205.252 173.293 199.421C178.566 193.589 183.307 189.262 183.882 189.755C184.462 190.248 180.655 195.376 175.381 201.207Z" fill="#77C9B5"/>
<path d="M158.031 198.394C161.09 205.57 164.143 211.155 164.85 210.868C165.561 210.58 163.658 204.533 160.599 197.357C157.54 190.181 154.487 184.596 153.78 184.883C153.074 185.171 154.972 191.218 158.031 198.394Z" fill="#77C9B5"/>
<path d="M152.284 203.794C158.776 208.311 164.403 211.479 164.851 210.868C165.299 210.257 160.395 206.104 153.903 201.587C147.412 197.07 141.785 193.902 141.336 194.513C140.893 195.124 145.793 199.277 152.284 203.794Z" fill="#77C9B5"/>
<path d="M373.538 230.104L373.043 230L356.746 303.38L357.24 303.485L373.538 230.104Z" fill="#0C775B"/>
<path d="M376.194 221.375C375.034 226.601 373.673 230.754 373.157 230.641C372.64 230.528 373.162 226.206 374.322 220.98C375.482 215.755 376.843 211.602 377.359 211.715C377.882 211.823 377.359 216.15 376.194 221.375Z" fill="#20B78C"/>
<path d="M380.771 224.342C376.947 228.182 373.535 231 373.156 230.641C372.776 230.282 375.571 226.878 379.394 223.044C383.217 219.204 386.629 216.386 387.009 216.745C387.389 217.099 384.599 220.503 380.771 224.342Z" fill="#20B78C"/>
<path d="M368.938 221.853C370.794 226.889 372.703 230.826 373.199 230.651C373.694 230.477 372.597 226.257 370.741 221.221C368.885 216.186 366.976 212.249 366.48 212.423C365.979 212.593 367.081 216.817 368.938 221.853Z" fill="#20B78C"/>
<path d="M378.684 222.52C381.276 217.806 382.999 213.787 382.532 213.544C382.064 213.3 379.584 216.924 376.991 221.638C374.399 226.351 372.676 230.37 373.143 230.614C373.61 230.857 376.091 227.233 378.684 222.52Z" fill="#77C9B5"/>
<path d="M382.256 226.622C377.494 229.286 373.418 231.088 373.154 230.641C372.89 230.194 376.54 227.669 381.302 225.005C386.064 222.341 390.14 220.539 390.404 220.985C390.668 221.437 387.018 223.958 382.256 226.622Z" fill="#77C9B5"/>
<path d="M371.583 221.047C371.942 226.386 372.664 230.682 373.191 230.646C373.719 230.61 373.856 226.257 373.492 220.924C373.133 215.585 372.411 211.289 371.884 211.325C371.361 211.361 371.224 215.714 371.583 221.047Z" fill="#77C9B5"/>
<path d="M366.613 223.331C369.819 227.674 372.767 230.949 373.194 230.651C373.627 230.348 371.375 226.586 368.169 222.243C364.962 217.9 362.014 214.625 361.587 214.923C361.16 215.226 363.407 218.989 366.613 223.331Z" fill="#77C9B5"/>
<path d="M268.988 329.559H11.4492C12.8678 318.548 16.1901 310.119 20.4617 303.661C27.5704 292.917 37.2948 287.646 45.1946 285.064C52.9731 282.518 58.9796 282.574 58.9796 282.574C83.1008 254.095 123.923 269.53 123.923 269.53C167.187 254.269 190.259 295.166 190.259 295.166C260.165 282.256 268.988 329.559 268.988 329.559Z" fill="#4261E7"/>
<path d="M301.184 329.559H495.535C495.535 329.559 488.874 293.862 436.128 303.605C436.128 303.605 418.715 272.744 386.067 284.258C386.067 284.258 355.258 272.605 337.054 294.098C337.059 294.103 305.793 293.8 301.184 329.559Z" fill="#4261E7"/>
<g opacity="0.16">
<path opacity="0.16" d="M238.998 90.945C238.998 92.8392 237.422 94.374 235.476 94.374C233.53 94.374 231.953 92.8392 231.953 90.945C231.953 89.0509 233.53 87.5161 235.476 87.5161C237.422 87.5161 238.998 89.0458 238.998 90.945Z" fill="#7084C2"/>
</g>
<g opacity="0.16">
<path opacity="0.16" d="M331.761 223.762C333.707 223.762 335.284 222.227 335.284 220.333C335.284 218.44 333.707 216.904 331.761 216.904C329.815 216.904 328.238 218.44 328.238 220.333C328.238 222.227 329.815 223.762 331.761 223.762Z" fill="#7084C2"/>
</g>
<g opacity="0.4">
<path opacity="0.4" d="M102.481 282.528C106.119 282.528 109.068 279.657 109.068 276.116C109.068 272.575 106.119 269.705 102.481 269.705C98.8435 269.705 95.8945 272.575 95.8945 276.116C95.8945 279.657 98.8435 282.528 102.481 282.528Z" fill="white"/>
</g>
<g opacity="0.16">
<path opacity="0.16" d="M90.9165 121.549C90.9165 123.444 89.3397 124.978 87.3938 124.978C85.4479 124.978 83.8711 123.444 83.8711 121.549C83.8711 119.655 85.4479 118.12 87.3938 118.12C89.3397 118.12 90.9165 119.655 90.9165 121.549Z" fill="#7084C2"/>
</g>
<g opacity="0.16">
<path opacity="0.16" d="M366.899 51.8606C370.228 51.8606 372.926 49.2337 372.926 45.9933C372.926 42.7528 370.228 40.126 366.899 40.126C363.57 40.126 360.871 42.7528 360.871 45.9933C360.871 49.2337 363.57 51.8606 366.899 51.8606Z" fill="#7084C2"/>
</g>
<g opacity="0.16">
<path opacity="0.16" d="M372.918 149.88C376.247 149.88 378.946 147.253 378.946 144.012C378.946 140.772 376.247 138.145 372.918 138.145C369.589 138.145 366.891 140.772 366.891 144.012C366.891 147.253 369.589 149.88 372.918 149.88Z" fill="#7084C2"/>
</g>
<g opacity="0.16">
<path opacity="0.16" d="M263.724 143.438C266.078 141.147 266.078 137.432 263.724 135.141C261.37 132.849 257.554 132.849 255.2 135.141C252.846 137.432 252.846 141.147 255.2 143.438C257.554 145.73 261.37 145.73 263.724 143.438Z" fill="#7084C2"/>
</g>
<g opacity="0.16">
<path opacity="0.16" d="M501.502 233.184C502.035 229.985 499.804 226.972 496.518 226.453C493.232 225.933 490.136 228.106 489.602 231.304C489.069 234.503 491.301 237.517 494.587 238.036C497.873 238.555 500.969 236.383 501.502 233.184Z" fill="#7084C2"/>
</g>
<g opacity="0.16">
<path opacity="0.16" d="M431.855 289.909C433.518 289.909 434.866 288.597 434.866 286.978C434.866 285.36 433.518 284.047 431.855 284.047C430.192 284.047 428.844 285.36 428.844 286.978C428.844 288.597 430.192 289.909 431.855 289.909Z" fill="white"/>
</g>
<g opacity="0.16">
<path opacity="0.16" d="M389.05 274.623C389.05 276.245 387.7 277.554 386.039 277.554C384.372 277.554 383.027 276.24 383.027 274.623C383.027 273 384.377 271.691 386.039 271.691C387.7 271.686 389.05 273 389.05 274.623Z" fill="white"/>
</g>
<g opacity="0.16">
<path opacity="0.16" d="M251.359 234.624C253.022 234.624 254.37 233.312 254.37 231.693C254.37 230.074 253.022 228.762 251.359 228.762C249.696 228.762 248.348 230.074 248.348 231.693C248.348 233.312 249.696 234.624 251.359 234.624Z" fill="white"/>
</g>
<g opacity="0.4">
<path opacity="0.4" d="M136.609 279.001C138.272 279.001 139.62 277.689 139.62 276.07C139.62 274.451 138.272 273.139 136.609 273.139C134.946 273.139 133.598 274.451 133.598 276.07C133.598 277.689 134.946 279.001 136.609 279.001Z" fill="white"/>
</g>
<g opacity="0.16">
<path opacity="0.16" d="M139.128 253.114C140.791 253.114 142.14 251.802 142.14 250.183C142.14 248.564 140.791 247.252 139.128 247.252C137.465 247.252 136.117 248.564 136.117 250.183C136.117 251.802 137.465 253.114 139.128 253.114Z" fill="white"/>
</g>
<g opacity="0.16">
<path opacity="0.16" d="M366.245 289.909C366.245 291.531 364.895 292.84 363.234 292.84C361.567 292.84 360.223 291.526 360.223 289.909C360.223 288.287 361.573 286.978 363.234 286.978C364.895 286.978 366.245 288.287 366.245 289.909Z" fill="white"/>
</g>
<g opacity="0.16">
<path opacity="0.16" d="M301.115 240.987C301.7 237.478 299.252 234.171 295.647 233.601C292.041 233.032 288.645 235.415 288.059 238.924C287.474 242.434 289.923 245.74 293.528 246.31C297.133 246.879 300.53 244.496 301.115 240.987Z" fill="white"/>
</g>
<g opacity="0.16">
<path opacity="0.16" d="M404.886 298.934C406.549 298.934 407.897 297.621 407.897 296.003C407.897 294.384 406.549 293.071 404.886 293.071C403.223 293.071 401.875 294.384 401.875 296.003C401.875 297.621 403.223 298.934 404.886 298.934Z" fill="white"/>
</g>
<path d="M467.802 314.272H419.043V329.292H467.802V314.272Z" fill="#FBAF2C"/>
<path d="M423.42 315.473H421.289V328.085H423.42V315.473Z" fill="#A4712A"/>
<path d="M428.092 315.473H425.961V328.085H428.092V315.473Z" fill="#A4712A"/>
<path d="M432.771 315.473H430.641V328.085H432.771V315.473Z" fill="#A4712A"/>
<path d="M437.443 315.473H435.312V328.085H437.443V315.473Z" fill="#A4712A"/>
<path d="M442.119 315.473H439.988V328.085H442.119V315.473Z" fill="#A4712A"/>
<path d="M446.791 315.473H444.66V328.085H446.791V315.473Z" fill="#A4712A"/>
<path d="M451.47 315.473H449.34V328.085H451.47V315.473Z" fill="#A4712A"/>
<path d="M456.142 315.473H454.012V328.085H456.142V315.473Z" fill="#A4712A"/>
<path d="M460.822 315.473H458.691V328.085H460.822V315.473Z" fill="#A4712A"/>
<path d="M465.49 315.473H463.359V328.085H465.49V315.473Z" fill="#A4712A"/>
<path d="M406.038 329.266C419.424 329.266 430.275 318.51 430.275 305.242C430.275 291.974 419.424 281.219 406.038 281.219C392.652 281.219 381.801 291.974 381.801 305.242C381.801 318.51 392.652 329.266 406.038 329.266Z" fill="#A5722A"/>
<path d="M402.163 329.292C415.19 329.292 425.751 318.823 425.751 305.91C425.751 292.996 415.19 282.528 402.163 282.528C389.135 282.528 378.574 292.996 378.574 305.91C378.574 318.823 389.135 329.292 402.163 329.292Z" fill="#FBAF2C"/>
<g opacity="0.8">
<path opacity="0.8" d="M421.384 306.767C420.899 306.767 420.503 306.382 420.503 305.91C420.503 301.228 418.71 296.783 415.451 293.385C415.119 293.035 415.14 292.497 415.494 292.173C415.852 291.85 416.406 291.87 416.738 292.214C420.303 295.931 422.265 300.797 422.265 305.91C422.265 306.382 421.869 306.767 421.384 306.767Z" fill="#FDFEFF"/>
</g>
<g opacity="0.8">
<path opacity="0.8" d="M409.635 289.211C409.519 289.211 409.397 289.191 409.287 289.139C407.029 288.19 404.63 287.712 402.162 287.712C401.677 287.712 401.281 287.327 401.281 286.855C401.281 286.383 401.677 285.998 402.162 285.998C404.873 285.998 407.504 286.527 409.988 287.569C410.436 287.759 410.642 288.262 410.447 288.698C410.304 289.016 409.977 289.211 409.635 289.211Z" fill="#FDFEFF"/>
</g>
<path d="M402.163 320.632C393.973 320.632 387.312 314.025 387.312 305.91C387.312 297.794 393.973 291.188 402.163 291.188C410.353 291.188 417.013 297.794 417.013 305.91C417.013 314.025 410.353 320.632 402.163 320.632Z" fill="#FDC351"/>
<path d="M407.177 310.904C407.109 310.412 406.95 309.944 406.713 309.498C406.476 309.051 406.212 308.646 405.927 308.276C405.643 307.907 405.289 307.511 404.878 307.09L403.364 305.576C403.064 305.268 402.853 305.042 402.726 304.898C402.6 304.755 402.442 304.549 402.252 304.272C402.062 304 401.941 303.728 401.898 303.466C401.851 303.204 401.856 302.922 401.914 302.624C401.972 302.311 402.136 302.049 402.394 301.839C402.653 301.629 402.98 301.557 403.375 301.623C403.575 301.654 403.739 301.706 403.876 301.777C404.013 301.849 404.119 301.947 404.192 302.07C404.266 302.193 404.319 302.322 404.356 302.45C404.388 302.583 404.403 302.748 404.398 302.953C404.393 303.158 404.377 303.348 404.356 303.523C404.335 303.702 404.303 303.923 404.256 304.19L408.248 304.544C408.29 304.241 408.316 303.959 408.332 303.687C408.348 303.42 408.332 303.117 408.29 302.784C408.248 302.45 408.174 302.142 408.074 301.86C407.968 301.577 407.815 301.29 407.604 300.987C407.393 300.684 407.135 300.422 406.824 300.191C406.513 299.96 406.123 299.745 405.643 299.55C405.194 299.365 404.683 299.216 404.119 299.103L404.577 296.737L402.057 296.254L401.54 298.908C400.817 298.959 400.174 299.113 399.599 299.37C398.439 299.893 397.732 300.817 397.474 302.132C397.379 302.619 397.358 303.081 397.411 303.518C397.463 303.949 397.595 304.359 397.806 304.744C398.017 305.129 398.244 305.473 398.487 305.771C398.729 306.069 399.04 306.402 399.42 306.782L401.002 308.343C401.455 308.784 401.798 309.159 402.036 309.472C402.273 309.78 402.457 310.134 402.584 310.53C402.711 310.925 402.732 311.341 402.653 311.767C402.505 312.532 402.046 312.84 401.281 312.691C400.696 312.578 400.301 312.27 400.095 311.767C399.889 311.264 399.873 310.514 400.053 309.518L396.087 309.236C395.823 311.002 396.087 312.372 396.883 313.353C397.458 314.056 398.328 314.605 399.494 314.995L399.067 317.203L401.587 317.685L402.009 315.519C403.185 315.611 404.214 315.437 405.099 314.99C406.233 314.426 406.914 313.568 407.135 312.424C407.235 311.905 407.251 311.397 407.177 310.904Z" fill="#BD9237"/>
<path d="M139.834 44.8777L112.484 71.9098L148.285 106.23L175.635 79.1975L139.834 44.8777Z" fill="#E6E7E8"/>
<path d="M140.408 91.1042L126.449 77.7218L146.399 58.0051L160.358 71.3874L140.408 91.1042ZM128.284 77.7064L140.392 89.3178L158.518 71.4028L146.41 59.7914L128.284 77.7064Z" fill="#7084C2"/>
<path d="M132.883 72.2505L131.973 73.1502L145.011 85.6491L145.921 84.7494L132.883 72.2505Z" fill="#7084C2"/>
<path d="M137.34 67.8459L136.43 68.7456L149.468 81.2446L150.378 80.3448L137.34 67.8459Z" fill="#7084C2"/>
<path d="M141.797 63.4454L140.887 64.3452L153.925 76.844L154.835 75.9443L141.797 63.4454Z" fill="#7084C2"/>
<path d="M132.092 63.734L122.574 73.1396L123.498 74.0257L133.016 64.6201L132.092 63.734Z" fill="#7084C2"/>
<path d="M125.771 64.3752L119.695 70.3798L120.62 71.2659L126.696 65.2612L125.771 64.3752Z" fill="#7084C2"/>
<path d="M168.553 80.547L162.477 86.5516L163.401 87.4377L169.477 81.433L168.553 80.547Z" fill="#7084C2"/>
<path d="M162.996 74.8217L143.957 93.6365L144.881 94.5226L163.92 75.7078L162.996 74.8217Z" fill="#7084C2"/>
<path d="M165.875 77.5859L146.836 96.4008L147.76 97.2869L166.799 78.472L165.875 77.5859Z" fill="#7084C2"/>
<path d="M136.783 60.546L134.331 58.195L133.899 58.621L133.355 58.1026L134.938 56.5369L135.481 57.0554L135.054 57.4814L137.506 59.8325L136.783 60.546Z" fill="#7084C2"/>
<path d="M138.045 59.3037L135.582 55.9004L136.421 55.0688L139.948 57.4198L139.289 58.0717L138.598 57.5892L138.214 57.9691L138.725 58.6313L138.045 59.3037ZM137.855 57.5071L138.119 57.2453L136.869 56.3059L137.855 57.5071Z" fill="#7084C2"/>
<path d="M140.054 57.3172L138.988 55.1971L137.09 54.4169L137.775 53.7393L138.804 54.1654L138.282 53.2414L138.872 52.6562L139.969 54.653L141.931 55.4641L141.256 56.1314L140.106 55.6591L140.644 56.7422L140.054 57.3172Z" fill="#7084C2"/>
<path d="M470.294 76.6402L443.945 48.6824L406.919 81.7452L433.267 109.703L470.294 76.6402Z" fill="#E6E7E8"/>
<path d="M442.041 95.2621L422.824 74.8677L437.263 61.973L456.48 82.3674L442.041 95.2621ZM424.659 74.9447L442.12 93.4757L454.645 82.2904L437.184 63.7594L424.659 74.9447Z" fill="#7084C2"/>
<path d="M441.671 67.5864L428.188 79.6294L429.065 80.5598L442.548 68.5168L441.671 67.5864Z" fill="#7084C2"/>
<path d="M445.963 72.1389L432.48 84.1819L433.358 85.1123L446.84 73.0693L445.963 72.1389Z" fill="#7084C2"/>
<path d="M450.264 76.7097L436.781 88.7526L437.658 89.683L451.141 77.6401L450.264 76.7097Z" fill="#7084C2"/>
<path d="M442.155 58.4335L441.199 59.2871L450.368 69.0162L451.324 68.1626L442.155 58.4335Z" fill="#7084C2"/>
<path d="M445.132 55.777L444.176 56.6306L450.029 62.8418L450.985 61.9882L445.132 55.777Z" fill="#7084C2"/>
<path d="M426.374 96.5479L425.418 97.4016L431.272 103.613L432.228 102.759L426.374 96.5479Z" fill="#7084C2"/>
<path d="M420.038 78.1851L419.082 79.0387L437.423 98.5005L438.379 97.6469L420.038 78.1851Z" fill="#7084C2"/>
<path d="M417.061 80.8483L416.105 81.7019L434.447 101.164L435.403 100.31L417.061 80.8483Z" fill="#7084C2"/>
<path d="M454.359 72.8966L456.896 70.6277L456.479 70.1862L457.038 69.6832L458.563 71.3001L458.003 71.8032L457.592 71.3669L455.056 73.6358L454.359 72.8966Z" fill="#7084C2"/>
<path d="M455.578 74.185L459.196 71.9623L460.003 72.8196L457.413 76.1305L456.775 75.4529L457.303 74.8061L456.933 74.416L456.227 74.878L455.578 74.185ZM457.429 74.0875L457.682 74.3595L458.711 73.1892L457.429 74.0875Z" fill="#7084C2"/>
<path d="M457.508 76.2383L459.739 75.3092L460.635 73.5023L461.294 74.2055L460.804 75.1808L461.78 74.724L462.349 75.3297L460.245 76.2948L459.311 78.1581L458.658 77.4651L459.201 76.3718L458.067 76.8389L457.508 76.2383Z" fill="#7084C2"/>
<path d="M366.129 177.984L396.916 159.972C396.916 159.972 408.813 159.345 418.522 172.569C426.395 183.287 441.361 182.276 441.361 182.276L414.076 203.25C414.076 203.25 405.375 202.198 395.872 188.98C385.261 174.227 366.129 177.984 366.129 177.984Z" fill="#E6E7E8"/>
<path d="M259.465 45.6493L223.546 45.9932C223.546 45.9932 212.962 40.6701 211.475 24.4798C210.268 11.3541 196.836 4.84519 196.836 4.84519L231.277 0.225281C231.277 0.225281 238.228 5.42525 239.546 21.5077C241.012 39.4535 259.465 45.6493 259.465 45.6493Z" fill="#E6E7E8"/>
<path d="M117.332 163.329L141.854 137.781C141.854 137.781 153.118 133.997 166.181 144.12C176.775 152.323 190.882 147.354 190.882 147.354L170.558 174.812C170.558 174.812 161.893 176.126 149.026 165.952C134.671 154.602 117.332 163.329 117.332 163.329Z" fill="#E6E7E8"/>
<path d="M93.5489 159.936H81.2352C80.9082 159.936 80.6445 159.679 80.6445 159.361V152.59C80.6445 152.272 80.9082 152.015 81.2352 152.015H93.5489C93.8759 152.015 94.1395 152.272 94.1395 152.59V159.361C94.1395 159.679 93.8759 159.936 93.5489 159.936Z" fill="#62C3A8"/>
<path d="M90.8808 154.448H83.1445V155.218H90.8808V154.448Z" fill="white"/>
<path d="M90.8808 156.378H83.1445V157.148H90.8808V156.378Z" fill="white"/>
<path d="M466.833 220.862H454.524C454.197 220.862 453.934 220.606 453.934 220.287V213.517C453.934 213.198 454.197 212.942 454.524 212.942H466.838C467.165 212.942 467.428 213.198 467.428 213.517V220.287C467.423 220.606 467.16 220.862 466.833 220.862Z" fill="#62C3A8"/>
<path d="M464.162 215.375H456.426V216.145H464.162V215.375Z" fill="white"/>
<path d="M464.162 217.31H456.426V218.08H464.162V217.31Z" fill="white"/>
<path d="M278.312 293.605C279.863 292.938 285.025 290.602 284.778 288.308C284.54 286.085 279.277 284.335 271.62 283.914C279.488 282.055 285.326 278.395 284.667 275.731C284.176 273.75 280.227 272.882 275 273.329C275.201 273.221 275.396 273.108 275.596 273C281.487 269.674 286.834 263.555 285.727 261.543C284.372 259.079 273.197 262.539 271.33 263.124C271.826 262.436 272.379 261.564 272.891 260.506C276.013 254.09 275.28 245.743 272.991 245.127C269.679 244.234 261.948 259.228 261.948 259.228C258.568 253.751 256.2 251.277 254.813 251.713C253.131 252.247 252.867 257.062 254.07 266.317C250.948 261.086 249.176 259.962 248.126 260.234C246.877 260.557 245.643 263.114 246.228 273.519C241.803 270.049 240.042 269.977 239.246 270.485C237.026 271.892 238.94 279.848 240.954 284.75C241.023 284.92 241.086 285.058 241.123 285.156C236.467 282.102 234.647 282.102 233.862 282.702C231.836 284.247 233.719 291.999 238.043 296.542C238.956 297.501 240.153 298.497 241.935 300.674C242.653 301.552 244.414 303.702 245.432 305.684C246.149 307.085 247.789 310.956 246.307 317.208C244.672 321.859 243.037 326.509 241.403 331.155C242.257 331.509 243.106 331.863 243.96 332.218C245.527 327.68 247.098 323.137 248.664 318.599C249.055 317.341 250.115 314.554 252.888 312.259C254.581 310.858 256.295 310.155 257.445 309.79C259.649 309.431 261.859 309.067 264.063 308.707C273.434 307.542 279.836 305.104 279.91 302.532C279.994 299.519 271.346 296.978 269.806 296.542C272.643 295.566 275.475 294.586 278.312 293.605Z" fill="white"/>
<path d="M126.811 128.926H114.497C114.17 128.926 113.906 128.669 113.906 128.351V121.58C113.906 121.262 114.17 121.005 114.497 121.005H126.811C127.138 121.005 127.401 121.262 127.401 121.58V128.351C127.401 128.669 127.138 128.926 126.811 128.926Z" fill="#4D67B0"/>
<path d="M124.143 123.438H116.406V124.208H124.143V123.438Z" fill="white"/>
<path d="M124.143 125.369H116.406V126.139H124.143V125.369Z" fill="white"/>
<path d="M248.682 73.7948H236.368C236.041 73.7948 235.777 73.5382 235.777 73.2199V66.4492C235.777 66.1309 236.041 65.8743 236.368 65.8743H248.682C249.009 65.8743 249.272 66.1309 249.272 66.4492V73.2199C249.272 73.5382 249.009 73.7948 248.682 73.7948Z" fill="#4D67B0"/>
<path d="M246.014 68.3126H238.277V69.0825H246.014V68.3126Z" fill="white"/>
<path d="M246.014 70.2426H238.277V71.0126H246.014V70.2426Z" fill="white"/>
<path d="M434.283 153.637H421.97C421.643 153.637 421.379 153.381 421.379 153.062V146.292C421.379 145.973 421.643 145.717 421.97 145.717H434.283C434.61 145.717 434.874 145.973 434.874 146.292V153.062C434.874 153.381 434.61 153.637 434.283 153.637Z" fill="#4D67B0"/>
<path d="M431.615 148.155H423.879V148.925H431.615V148.155Z" fill="white"/>
<path d="M431.615 150.085H423.879V150.855H431.615V150.085Z" fill="white"/>
<path d="M70.9762 329.559H40.7905C40.7272 326.345 40.337 322.973 37.9797 319.728C31.2295 310.422 18.1248 315.704 12.8618 306.931C12.1868 305.802 11.8071 304.724 11.6331 303.661C10.7102 298.051 15.5038 293.005 11.96 284.232C8.50584 275.649 1.72934 275.126 0.917213 267.585C0.189464 260.788 4.75635 253.653 7.87301 253.818C11.2006 253.997 9.97189 262.328 16.6851 267.667C23.7306 273.267 31.1399 268.904 35.4273 274.099C38.2381 277.497 36.6718 281.321 36.366 285.069C36.1972 287.04 36.3765 288.985 37.716 290.839C42.4042 297.347 53.6368 292.014 62.6704 298.087C66.8049 300.864 71.319 306.577 72.4212 319.626C72.5161 323.163 71.994 326.525 70.9762 329.559Z" fill="#7194E0"/>
<path d="M87.9012 293.02H27.1289V331.027H87.9012V293.02Z" fill="#28896C"/>
<path d="M82.1482 321.135V302.912C79.7118 302.912 77.7395 300.992 77.7395 298.62H37.2915C37.2915 300.992 35.3192 302.912 32.8828 302.912V321.135C35.3192 321.135 37.2915 323.055 37.2915 325.426H77.7395C77.7395 323.055 79.7171 321.135 82.1482 321.135Z" fill="#62C3A8"/>
<path d="M56.2746 319.595C60.5705 319.595 64.0531 316.205 64.0531 312.023C64.0531 307.842 60.5705 304.452 56.2746 304.452C51.9786 304.452 48.4961 307.842 48.4961 312.023C48.4961 316.205 51.9786 319.595 56.2746 319.595Z" fill="#ADDDD2"/>
<path d="M43.8463 312.023C43.8463 313.805 42.3644 315.247 40.5345 315.247C38.7045 315.247 37.2227 313.805 37.2227 312.023C37.2227 310.242 38.7045 308.8 40.5345 308.8C42.3644 308.795 43.8463 310.242 43.8463 312.023Z" fill="#ADDDD2"/>
<path d="M76.9634 312.023C76.9634 313.805 75.4815 315.247 73.6516 315.247C71.8217 315.247 70.3398 313.805 70.3398 312.023C70.3398 310.242 71.8217 308.8 73.6516 308.8C75.4815 308.795 76.9634 310.242 76.9634 312.023Z" fill="#ADDDD2"/>
<path d="M105.157 293.02H87.9023V331.027H105.157V293.02Z" fill="#134937"/>
<path d="M58.0021 293.02H54.5586V331.027H58.0021V293.02Z" fill="#FDC351"/>
<path d="M290.54 89.5847H325.851C332.818 89.5847 338.054 95.7702 336.725 102.428L321.654 177.81L276.164 167.687L279.471 99.8563C279.75 94.107 284.623 89.5847 290.54 89.5847Z" fill="#4261E7"/>
<path d="M311.822 98.7784H305.789L302.973 89.5847H315.06L311.822 98.7784Z" fill="#8B6EB0"/>
<path d="M305.789 98.7783L290.934 154.063L295.632 163.565L306.063 155.819L311.822 98.7783H305.789Z" fill="#8B6EB0"/>
<path d="M301.598 97.069L309.619 92.9418L302.974 89.5847L301.598 97.069Z" fill="#3A2768"/>
<path d="M309.617 92.9418L316.141 96.9201L315.06 89.5847L309.617 92.9418Z" fill="#3A2768"/>
<g opacity="0.23">
<path opacity="0.23" d="M305.79 98.7783H311.823L311.607 101.437H305.078L305.79 98.7783Z" fill="#352451"/>
</g>
<path d="M325.783 68.446C325.783 66.326 324.485 64.6115 322.882 64.6115C322.74 64.6115 322.603 64.6269 322.466 64.6525C322.735 65.9769 322.882 67.3629 322.882 68.7951C322.882 70.4942 322.677 72.1368 322.297 73.6819C323.89 72.6552 325.783 70.1092 325.783 68.446Z" fill="#E09F90"/>
<path d="M303.453 81.7411L302.973 89.5847L309.617 92.9418L315.06 89.5847V81.7411H303.453Z" fill="#FABFAE"/>
<path d="M315.06 84.0562V86.7255C315.06 86.7255 307.06 89.2254 303.453 84.0562H315.06Z" fill="#E09F90"/>
<path d="M322.465 64.6526C322.665 65.6381 322.797 66.6597 322.85 67.7017C324.69 65.1146 325.771 61.973 325.771 58.5851C325.771 58.4875 325.766 58.39 325.766 58.2976H319.918C321.104 60.1404 321.985 62.2964 322.465 64.6526Z" fill="#1E1649"/>
<path d="M319.918 58.2976H309.365C303.295 62.4761 296.06 64.6064 296.055 64.6115C295.854 65.5868 295.722 66.5929 295.67 67.6298C295.649 68.0148 295.633 68.4049 295.633 68.7951C295.633 78.1119 301.734 85.6629 309.254 85.6629C315.403 85.6629 320.603 80.6118 322.296 73.6819C322.676 72.1368 322.881 70.4942 322.881 68.7951C322.881 68.4306 322.871 68.0662 322.855 67.7068C322.802 66.6596 322.67 65.6433 322.47 64.6577C321.985 62.2964 321.104 60.1404 319.918 58.2976Z" fill="#FABFAE"/>
<path d="M308.106 65.6022C308.106 66.1515 307.647 66.5929 307.088 66.5929C306.524 66.5929 306.07 66.1463 306.07 65.6022C306.07 65.053 306.529 64.6115 307.088 64.6115C307.647 64.6064 308.106 65.053 308.106 65.6022Z" fill="#273273"/>
<path d="M319.137 65.6022C319.137 66.1515 318.678 66.5929 318.119 66.5929C317.555 66.5929 317.102 66.1463 317.102 65.6022C317.102 65.053 317.56 64.6115 318.119 64.6115C318.684 64.6064 319.137 65.053 319.137 65.6022Z" fill="#273273"/>
<path d="M310.499 79.9753C309.655 79.9753 308.885 79.8059 308.194 79.4722C306.206 78.5123 305.642 76.536 305.621 76.4487C305.526 76.1151 305.732 75.7712 306.074 75.6788C306.417 75.5915 306.77 75.7866 306.865 76.1202C306.876 76.1459 307.324 77.6551 308.785 78.3532C309.956 78.9127 311.48 78.8306 313.32 78.1016C313.652 77.9682 314.027 78.1273 314.159 78.4456C314.29 78.769 314.132 79.1334 313.805 79.2618C312.603 79.734 311.501 79.9753 310.499 79.9753Z" fill="#273273"/>
<path d="M339.439 46.5271C339.012 41.2347 334.592 36.9433 329.15 36.5429C325.464 36.2709 322.12 37.7441 319.895 40.2029C318.571 41.6659 316.689 42.5385 314.685 42.5385H308.757V42.5539C299.898 42.826 292.805 49.8996 292.805 58.5851C292.805 61.9371 293.865 65.0529 295.668 67.6247C295.726 66.5929 303.452 65.6022 309.364 58.2976H319.916H325.764H328.923C329.778 58.2976 330.59 58.1436 331.354 57.8818C336.312 56.5061 339.871 51.8862 339.439 46.5271Z" fill="#3C2975"/>
<path d="M297.568 68.3588C297.568 70.7816 297.805 74.1388 295.975 74.1388C294.145 74.1388 290.934 70.7816 290.934 68.3588C290.934 65.9359 292.421 63.9698 294.251 63.9698C296.08 63.9698 297.568 65.9359 297.568 68.3588Z" fill="#FABFAE"/>
<path d="M350.188 160.901L329.305 132.17L336.703 102.366L353.484 141.723L350.188 160.901Z" fill="#7194E0"/>
<path d="M308.083 65.5355C308.083 66.0847 307.624 66.5262 307.065 66.5262C306.5 66.5262 306.047 66.0796 306.047 65.5355C306.047 64.9862 306.506 64.5447 307.065 64.5447C307.624 64.5447 308.083 64.9913 308.083 65.5355Z" fill="#273273"/>
<path d="M319.114 65.5355C319.114 66.0847 318.655 66.5262 318.096 66.5262C317.532 66.5262 317.078 66.0796 317.078 65.5355C317.078 64.9862 317.537 64.5447 318.096 64.5447C318.655 64.5447 319.114 64.9913 319.114 65.5355Z" fill="#273273"/>
<path d="M310.479 79.9085C309.636 79.9085 308.866 79.7391 308.175 79.4055C306.192 78.4455 305.622 76.4693 305.601 76.3871C305.506 76.0535 305.712 75.7095 306.055 75.6171C306.398 75.5299 306.751 75.7249 306.846 76.0586C306.856 76.0843 307.305 77.5934 308.765 78.2915C309.936 78.8511 311.46 78.7638 313.301 78.04C313.633 77.9066 314.007 78.0657 314.139 78.3839C314.271 78.7073 314.113 79.0718 313.786 79.2001C312.583 79.6724 311.481 79.9085 310.479 79.9085Z" fill="#273273"/>
<path d="M372.929 101.971L340.098 80.9916L310.844 124.369L343.675 145.348L372.929 101.971Z" fill="#D2D2D3"/>
<path d="M370.248 98.9118L334.711 82.6423L312.024 129.595L347.562 145.864L370.248 98.9118Z" fill="#E6E7E8"/>
<path d="M364.036 130.779L362.765 158.252C362.618 161.465 359.68 163.868 356.405 163.457L353.89 163.144C350.446 162.718 348.211 159.397 349.181 156.153L357.054 129.773L364.036 130.779Z" fill="#7194E0"/>
<path d="M287.084 90.0518L243.894 106.709C241.394 107.674 238.536 106.868 236.954 104.753L219.657 81.6744L213.207 85.5962L231.538 118.947C232.724 121.103 235.182 122.294 237.666 121.909L280.213 115.328L287.084 90.0518Z" fill="#7194E0"/>
<path d="M276.142 167.625L228.127 150.177C220.464 147.395 212.122 152.22 210.972 160.1L203.863 208.779L221.271 214.425L230.516 176.105L295.08 203.65L316.38 260.558L312.83 313.907H332.538L336.909 259.926L321.632 177.748L276.142 167.625Z" fill="#190E35"/>
<path d="M210.032 210.781L221.27 214.43L218.949 225.246L207.59 222.171L210.032 210.781Z" fill="#8B6EB0"/>
<path d="M207.59 222.171C207.59 222.171 203.904 224.44 197.513 224.296C191.116 224.147 190.293 225.246 191.195 227.079C192.097 228.911 218.575 233.521 218.575 233.521L218.95 225.246L207.59 222.171Z" fill="#190E35"/>
<path d="M326.056 313.912L314.091 313.943L313.922 324.995L325.698 324.41L326.056 313.912Z" fill="#8B6EB0"/>
<path d="M325.697 324.41C325.697 324.41 328.782 327.408 335.057 328.624C341.327 329.841 341.892 331.088 340.599 332.685C339.307 334.281 312.434 333.147 312.434 333.147L313.926 324.99L325.697 324.41Z" fill="#190E35"/>
<path d="M219.657 81.6795L220.548 69.4778C220.548 69.4778 218.185 68.1483 217.194 73.9489C217.194 73.9489 212.1 63.5489 207.754 65.8486C203.409 68.1483 205.866 78.271 213.207 85.6013L219.657 81.6795Z" fill="#FABFAE"/>
<path d="M358.652 116.385C356.21 114.625 352.756 115.123 350.948 117.499L350.019 118.716C348.211 121.092 348.722 124.455 351.164 126.215L357.049 129.778L364.036 130.779L364.316 124.737C364.453 121.775 362.934 118.972 360.35 117.407L358.652 116.385Z" fill="#FABFAE"/>
<path d="M120.107 323.317C111.907 316.72 110.14 311.284 110.156 307.419C110.193 298.97 118.821 294.283 116.606 288.38C114.77 283.488 108.004 284.417 106.48 279.371C104.956 274.315 111.211 271.609 110.662 264.623C110.14 257.97 104.028 254.983 105.415 252.801C106.712 250.758 113.536 251.097 117.734 254.629C122.396 258.55 119.685 263.068 123.841 269.13C128.898 276.501 135.759 274.053 138.565 279.956C142.035 287.245 132.595 293.138 135.743 301.608C138.449 308.872 147.039 308.964 147.572 315.396C148.015 320.765 142.367 324.826 141.876 325.17C136.186 329.143 127.379 328.501 120.107 323.317Z" fill="white"/>
<path d="M145.5 310.94C134.478 302.075 132.1 294.771 132.121 289.576C132.168 278.221 143.77 271.917 140.791 263.981C138.323 257.411 129.226 258.653 127.18 251.872C125.128 245.076 133.54 241.436 132.801 232.053C132.095 223.111 123.889 219.091 125.745 216.16C127.491 213.409 136.662 213.871 142.304 218.614C148.569 223.881 144.925 229.953 150.515 238.105C157.307 248.012 166.531 244.727 170.307 252.657C174.974 262.457 162.28 270.372 166.515 281.758C170.148 291.521 181.698 291.644 182.415 300.289C183.016 307.506 175.422 312.963 174.763 313.425C167.111 318.768 155.272 317.906 145.5 310.94Z" fill="white"/>
<path d="M126.402 312.013V330.816L127.23 331.314C132.535 335.118 162.684 338.028 199.077 338.028C235.47 338.028 265.619 335.113 270.924 331.314L271.752 330.816V312.013H126.402Z" fill="#4261E7"/>
<path d="M199.082 319.929C239.222 319.929 271.762 316.385 271.762 312.013C271.762 307.642 239.222 304.098 199.082 304.098C158.942 304.098 126.402 307.642 126.402 312.013C126.402 316.385 158.942 319.929 199.082 319.929Z" fill="#7084C2"/>
<path d="M146.801 251.867V309.344L147.397 309.842C151.215 313.312 172.9 315.971 199.077 315.971C225.255 315.971 246.94 313.312 250.758 309.842L251.354 309.344V251.867H146.801Z" fill="#4261E7"/>
<path d="M199.081 257.56C227.953 257.56 251.358 255.011 251.358 251.867C251.358 248.723 227.953 246.174 199.081 246.174C170.21 246.174 146.805 248.723 146.805 251.867C146.805 255.011 170.21 257.56 199.081 257.56Z" fill="#8B6EB0"/>
</svg>
