<svg width="75" height="75" viewBox="0 0 58 82" fill="none" xmlns="http://www.w3.org/2000/svg">
<path fill-rule="evenodd" clip-rule="evenodd" d="M8.16667 4.08333C7.0837 4.08333 6.04509 4.51354 5.27931 5.27931C4.51354 6.04509 4.08333 7.0837 4.08333 8.16667V65.3333C4.08333 66.4163 4.51354 67.4549 5.27931 68.2207C6.04509 68.9865 7.0837 69.4167 8.16667 69.4167H30.625V73.5H8.16667C6.00073 73.5 3.92351 72.6396 2.39196 71.108C0.860414 69.5765 0 67.4993 0 65.3333V8.16667C0 6.00073 0.860414 3.92351 2.39196 2.39196C3.92351 0.860414 6.00073 0 8.16667 0H49C51.1659 0 53.2432 0.860414 54.7747 2.39196C56.3063 3.92351 57.1667 6.00073 57.1667 8.16667V65.3333C57.1667 67.4993 56.3063 69.5765 54.7747 71.108C53.2432 72.6396 51.1659 73.5 49 73.5H42.875V69.4167H49C50.083 69.4167 51.1216 68.9865 51.8874 68.2207C52.6531 67.4549 53.0833 66.4163 53.0833 65.3333V8.16667C53.0833 7.0837 52.6531 6.04509 51.8874 5.27931C51.1216 4.51354 50.083 4.08333 49 4.08333H8.16667Z" fill="#1DA1F2"/>
<path fill-rule="evenodd" clip-rule="evenodd" d="M16.332 14.2917C16.332 13.7502 16.5471 13.2309 16.93 12.848C17.3129 12.4651 17.8322 12.25 18.3737 12.25H38.7904C39.3319 12.25 39.8512 12.4651 40.234 12.848C40.6169 13.2309 40.832 13.7502 40.832 14.2917C40.832 14.8332 40.6169 15.3525 40.234 15.7353C39.8512 16.1182 39.3319 16.3333 38.7904 16.3333H18.3737C17.8322 16.3333 17.3129 16.1182 16.93 15.7353C16.5471 15.3525 16.332 14.8332 16.332 14.2917Z" fill="#1DA1F2"/>
<path fill-rule="evenodd" clip-rule="evenodd" d="M8.16797 26.5417C8.16797 26.0002 8.38307 25.4809 8.76596 25.098C9.14885 24.7151 9.66815 24.5 10.2096 24.5H46.9596C47.5011 24.5 48.0204 24.7151 48.4033 25.098C48.7862 25.4809 49.0013 26.0002 49.0013 26.5417C49.0013 27.0831 48.7862 27.6025 48.4033 27.9853C48.0204 28.3682 47.5011 28.5833 46.9596 28.5833H10.2096C9.66815 28.5833 9.14885 28.3682 8.76596 27.9853C8.38307 27.6025 8.16797 27.0831 8.16797 26.5417Z" fill="#1DA1F2"/>
<path fill-rule="evenodd" clip-rule="evenodd" d="M8.16797 34.7083C8.16797 34.1668 8.38307 33.6475 8.76596 33.2646C9.14885 32.8818 9.66815 32.6667 10.2096 32.6667H46.9596C47.5011 32.6667 48.0204 32.8818 48.4033 33.2646C48.7862 33.6475 49.0013 34.1668 49.0013 34.7083C49.0013 35.2498 48.7862 35.7691 48.4033 36.152C48.0204 36.5349 47.5011 36.75 46.9596 36.75H10.2096C9.66815 36.75 9.14885 36.5349 8.76596 36.152C8.38307 35.7691 8.16797 35.2498 8.16797 34.7083Z" fill="#1DA1F2"/>
<path fill-rule="evenodd" clip-rule="evenodd" d="M8.16797 42.875C8.16797 42.3335 8.38307 41.8142 8.76596 41.4313C9.14885 41.0484 9.66815 40.8333 10.2096 40.8333H46.9596C47.5011 40.8333 48.0204 41.0484 48.4033 41.4313C48.7862 41.8142 49.0013 42.3335 49.0013 42.875C49.0013 43.4165 48.7862 43.9358 48.4033 44.3187C48.0204 44.7016 47.5011 44.9167 46.9596 44.9167H10.2096C9.66815 44.9167 9.14885 44.7016 8.76596 44.3187C8.38307 43.9358 8.16797 43.4165 8.16797 42.875Z" fill="#1DA1F2"/>
<path fill-rule="evenodd" clip-rule="evenodd" d="M36.7487 63.2917C37.8317 63.2917 38.8703 62.8614 39.6361 62.0957C40.4018 61.3299 40.832 60.2913 40.832 59.2083C40.832 58.1254 40.4018 57.0867 39.6361 56.321C38.8703 55.5552 37.8317 55.125 36.7487 55.125C35.6657 55.125 34.6271 55.5552 33.8613 56.321C33.0956 57.0867 32.6654 58.1254 32.6654 59.2083C32.6654 60.2913 33.0956 61.3299 33.8613 62.0957C34.6271 62.8614 35.6657 63.2917 36.7487 63.2917ZM36.7487 67.375C38.9146 67.375 40.9919 66.5146 42.5234 64.983C44.055 63.4515 44.9154 61.3743 44.9154 59.2083C44.9154 57.0424 44.055 54.9652 42.5234 53.4336C40.9919 51.9021 38.9146 51.0417 36.7487 51.0417C34.5828 51.0417 32.5055 51.9021 30.974 53.4336C29.4424 54.9652 28.582 57.0424 28.582 59.2083C28.582 61.3743 29.4424 63.4515 30.974 64.983C32.5055 66.5146 34.5828 67.375 36.7487 67.375Z" fill="#1DA1F2"/>
<path fill-rule="evenodd" clip-rule="evenodd" d="M34.7083 63.2917H30.625V81.6667L36.75 78.6042L42.875 81.6667V63.2917H38.7917V75.0598L36.75 74.039L34.7083 75.0598V63.2917Z" fill="#1DA1F2"/>
</svg>
