<svg width="75" height="75" viewBox="0 0 53 50" fill="none" xmlns="http://www.w3.org/2000/svg">
<path d="M21.0677 33.8698H32.2135C32.9526 33.8698 33.6613 34.1634 34.1839 34.6859C34.7064 35.2085 35 35.9172 35 36.6562V42.2292H18.2812V36.6562C18.2812 35.9172 18.5748 35.2085 19.0974 34.6859C19.6199 34.1634 20.3287 33.8698 21.0677 33.8698Z" fill="#1DA1F2"/>
<path d="M26.6393 31.0833C29.7172 31.0833 32.2122 28.5883 32.2122 25.5104C32.2122 22.4326 29.7172 19.9375 26.6393 19.9375C23.5615 19.9375 21.0664 22.4326 21.0664 25.5104C21.0664 28.5883 23.5615 31.0833 26.6393 31.0833Z" fill="#1DA1F2"/>
<path d="M8.75 11.25H17V5.75L22.5 0.25H30.75L36.25 5.75V11.25H44.5C46.688 11.25 48.7865 12.1192 50.3336 13.6664C51.8808 15.2135 52.75 17.312 52.75 19.5V41.5C52.75 43.688 51.8808 45.7865 50.3336 47.3336C48.7865 48.8808 46.688 49.75 44.5 49.75H8.75C6.56196 49.75 4.46354 48.8808 2.91637 47.3336C1.36919 45.7865 0.5 43.688 0.5 41.5V19.5C0.5 17.312 1.36919 15.2135 2.91637 13.6664C4.46354 12.1192 6.56196 11.25 8.75 11.25ZM23.6385 3L19.75 6.8885V11.25H33.5V6.8885L29.6115 3H23.6385ZM8.75 14C7.29131 14 5.89236 14.5795 4.86091 15.6109C3.82946 16.6424 3.25 18.0413 3.25 19.5V41.5C3.25 42.9587 3.82946 44.3576 4.86091 45.3891C5.89236 46.4205 7.29131 47 8.75 47H44.5C45.9587 47 47.3576 46.4205 48.3891 45.3891C49.4205 44.3576 50 42.9587 50 41.5V19.5C50 18.0413 49.4205 16.6424 48.3891 15.6109C47.3576 14.5795 45.9587 14 44.5 14H8.75Z" fill="#1DA1F2"/>
</svg>
