<svg width="75" height="75" viewBox="0 0 57 71" fill="none" xmlns="http://www.w3.org/2000/svg">
<path d="M16.7647 0H46.9412C49.6089 0 52.1674 1.06862 54.0538 2.97077C55.9402 4.87293 57 7.4528 57 10.1429V54.0952C57 56.7853 55.9402 59.3652 54.0538 61.2673C52.1674 63.1695 49.6089 64.2381 46.9412 64.2381H16.7647C14.0969 64.2381 11.5384 63.1695 9.65204 61.2673C7.76565 59.3652 6.70588 56.7853 6.70588 54.0952V10.1429C6.70588 7.4528 7.76565 4.87293 9.65204 2.97077C11.5384 1.06862 14.0969 0 16.7647 0V0ZM16.7647 3.38095C14.9862 3.38095 13.2805 4.09336 12.0229 5.36147C10.7653 6.62957 10.0588 8.34949 10.0588 10.1429V54.0952C10.0588 55.8886 10.7653 57.6085 12.0229 58.8766C13.2805 60.1447 14.9862 60.8571 16.7647 60.8571H46.9412C48.7197 60.8571 50.4254 60.1447 51.683 58.8766C52.9405 57.6085 53.6471 55.8886 53.6471 54.0952V10.1429C53.6471 8.34949 52.9405 6.62957 51.683 5.36147C50.4254 4.09336 48.7197 3.38095 46.9412 3.38095H36.8824V26.0333L26.8235 18.9333L16.7647 26.0333V3.38095ZM33.5294 3.38095H20.1176V19.5419L26.8235 14.8052L33.5294 19.5385V3.38095ZM16.7647 71C12.3184 71 8.05426 69.219 4.91027 66.0487C1.76628 62.8785 0 58.5787 0 54.0952V13.5238H3.35294V54.0952C3.35294 57.682 4.76596 61.1218 7.28116 63.658C9.79635 66.1942 13.2077 67.619 16.7647 67.619H43.5882V71H16.7647Z" fill="#2BA6F3"/>
</svg>
